# MagicaVoxel @ Ephtracy

# material
mtllib Bull_01.mtl
usemtl palette

# normals
vn -1 0 0
vn 1 0 0
vn 0 0 1
vn 0 0 -1
vn 0 -1 0
vn 0 1 0

# texcoords
vt 0.0371094 0.5
vt 0.232422 0.5
vt 0.958984 0.5

# verts
v -4 4 -1.5
v -4 4 -2.5
v -4 5 -1.5
v -4 5 -2.5
v -3 1 4.5
v -3 1 -2.5
v -3 2 -2.5
v -3 2 -4.5
v -3 4 4.5
v -3 4 -0.5
v -3 4 -1.5
v -3 4 -2.5
v -3 5 -1.5
v -3 5 -2.5
v -3 6 -0.5
v -3 6 -1.5
v -3 6 -2.5
v -3 6 -4.5
v -3 8 -1.5
v -3 8 -2.5
v -2 0 3.5
v -2 0 2.5
v -2 0 -0.5
v -2 0 -1.5
v -2 1 3.5
v -2 1 2.5
v -2 1 -0.5
v -2 1 -1.5
v -2 4 3.5
v -2 4 -0.5
v -2 5 3.5
v -2 5 -0.5
v -1 2 5.5
v -1 2 4.5
v -1 2 -4.5
v -1 2 -5.5
v -1 3 5.5
v -1 3 4.5
v -1 4 -4.5
v -1 4 -5.5
v -1 6 -1.5
v -1 6 -4.5
v -1 6 -5.5
v -1 7 -1.5
v -1 7 -5.5
v 1 0 3.5
v 1 0 2.5
v 1 0 -0.5
v 1 0 -1.5
v 1 1 3.5
v 1 1 2.5
v 1 1 -0.5
v 1 1 -1.5
v 2 6 -1.5
v 2 6 -2.5
v 2 8 -1.5
v 2 8 -2.5
v -2 6 -1.5
v -2 6 -2.5
v -2 8 -1.5
v -2 8 -2.5
v -1 0 3.5
v -1 0 2.5
v -1 0 -0.5
v -1 0 -1.5
v -1 1 3.5
v -1 1 2.5
v -1 1 -0.5
v -1 1 -1.5
v 1 2 5.5
v 1 2 4.5
v 1 2 -4.5
v 1 2 -5.5
v 1 3 5.5
v 1 3 4.5
v 1 4 -4.5
v 1 4 -5.5
v 1 6 -1.5
v 1 6 -4.5
v 1 6 -5.5
v 1 7 -1.5
v 1 7 -5.5
v 2 0 3.5
v 2 0 2.5
v 2 0 -0.5
v 2 0 -1.5
v 2 1 3.5
v 2 1 2.5
v 2 1 -0.5
v 2 1 -1.5
v 2 4 3.5
v 2 4 -0.5
v 2 5 3.5
v 2 5 -0.5
v 3 1 4.5
v 3 1 -2.5
v 3 2 -2.5
v 3 2 -4.5
v 3 4 4.5
v 3 4 -0.5
v 3 4 -1.5
v 3 4 -2.5
v 3 5 -1.5
v 3 5 -2.5
v 3 6 -0.5
v 3 6 -1.5
v 3 6 -2.5
v 3 6 -4.5
v 3 8 -1.5
v 3 8 -2.5
v 4 4 -1.5
v 4 4 -2.5
v 4 5 -1.5
v 4 5 -2.5
v -1 2 5.5
v -1 3 5.5
v 1 2 5.5
v 1 3 5.5
v -3 1 4.5
v -3 4 4.5
v -1 2 4.5
v -1 3 4.5
v 1 2 4.5
v 1 3 4.5
v 3 1 4.5
v 3 4 4.5
v -2 0 3.5
v -2 1 3.5
v -2 4 3.5
v -2 5 3.5
v -1 0 3.5
v -1 1 3.5
v 1 0 3.5
v 1 1 3.5
v 2 0 3.5
v 2 1 3.5
v 2 4 3.5
v 2 5 3.5
v -3 4 -0.5
v -3 6 -0.5
v -2 0 -0.5
v -2 1 -0.5
v -2 4 -0.5
v -2 5 -0.5
v -1 0 -0.5
v -1 1 -0.5
v 1 0 -0.5
v 1 1 -0.5
v 2 0 -0.5
v 2 1 -0.5
v 2 4 -0.5
v 2 5 -0.5
v 3 4 -0.5
v 3 6 -0.5
v -4 4 -1.5
v -4 5 -1.5
v -3 4 -1.5
v -3 5 -1.5
v -3 6 -1.5
v -3 8 -1.5
v -2 6 -1.5
v -2 8 -1.5
v -1 6 -1.5
v -1 7 -1.5
v 1 6 -1.5
v 1 7 -1.5
v 2 6 -1.5
v 2 8 -1.5
v 3 4 -1.5
v 3 5 -1.5
v 3 6 -1.5
v 3 8 -1.5
v 4 4 -1.5
v 4 5 -1.5
v -2 0 2.5
v -2 1 2.5
v -1 0 2.5
v -1 1 2.5
v 1 0 2.5
v 1 1 2.5
v 2 0 2.5
v 2 1 2.5
v -2 0 -1.5
v -2 1 -1.5
v -1 0 -1.5
v -1 1 -1.5
v 1 0 -1.5
v 1 1 -1.5
v 2 0 -1.5
v 2 1 -1.5
v -4 4 -2.5
v -4 5 -2.5
v -3 1 -2.5
v -3 2 -2.5
v -3 4 -2.5
v -3 5 -2.5
v -3 6 -2.5
v -3 8 -2.5
v -2 6 -2.5
v -2 8 -2.5
v 2 6 -2.5
v 2 8 -2.5
v 3 1 -2.5
v 3 2 -2.5
v 3 4 -2.5
v 3 5 -2.5
v 3 6 -2.5
v 3 8 -2.5
v 4 4 -2.5
v 4 5 -2.5
v -3 2 -4.5
v -3 6 -4.5
v -2 4 -4.5
v -2 5 -4.5
v -1 2 -4.5
v -1 4 -4.5
v -1 5 -4.5
v -1 6 -4.5
v 1 2 -4.5
v 1 4 -4.5
v 1 5 -4.5
v 1 6 -4.5
v 2 4 -4.5
v 2 5 -4.5
v 3 2 -4.5
v 3 6 -4.5
v -1 2 -5.5
v -1 4 -5.5
v -1 6 -5.5
v -1 7 -5.5
v 1 2 -5.5
v 1 4 -5.5
v 1 6 -5.5
v 1 7 -5.5
v -2 0 3.5
v -1 0 3.5
v 1 0 3.5
v 2 0 3.5
v -2 0 2.5
v -1 0 2.5
v 1 0 2.5
v 2 0 2.5
v -2 0 -0.5
v -1 0 -0.5
v 1 0 -0.5
v 2 0 -0.5
v -2 0 -1.5
v -1 0 -1.5
v 1 0 -1.5
v 2 0 -1.5
v -3 1 4.5
v 3 1 4.5
v -2 1 3.5
v -1 1 3.5
v 1 1 3.5
v 2 1 3.5
v -2 1 2.5
v -1 1 2.5
v 1 1 2.5
v 2 1 2.5
v -2 1 -0.5
v -1 1 -0.5
v 1 1 -0.5
v 2 1 -0.5
v -2 1 -1.5
v -1 1 -1.5
v 1 1 -1.5
v 2 1 -1.5
v -3 1 -2.5
v 3 1 -2.5
v -1 2 5.5
v 1 2 5.5
v -1 2 4.5
v 1 2 4.5
v -3 2 -2.5
v 3 2 -2.5
v -3 2 -4.5
v -1 2 -4.5
v 1 2 -4.5
v 3 2 -4.5
v -1 2 -5.5
v 1 2 -5.5
v -4 4 -1.5
v -3 4 -1.5
v 3 4 -1.5
v 4 4 -1.5
v -4 4 -2.5
v -3 4 -2.5
v 3 4 -2.5
v 4 4 -2.5
v -1 6 -4.5
v 1 6 -4.5
v -1 6 -5.5
v 1 6 -5.5
v -1 3 5.5
v 1 3 5.5
v -1 3 4.5
v 1 3 4.5
v -3 4 4.5
v 3 4 4.5
v -2 4 3.5
v 2 4 3.5
v -3 4 -0.5
v -2 4 -0.5
v 2 4 -0.5
v 3 4 -0.5
v -1 4 -4.5
v 1 4 -4.5
v -1 4 -5.5
v 1 4 -5.5
v -2 5 3.5
v 2 5 3.5
v -2 5 -0.5
v 2 5 -0.5
v -4 5 -1.5
v -3 5 -1.5
v 3 5 -1.5
v 4 5 -1.5
v -4 5 -2.5
v -3 5 -2.5
v 3 5 -2.5
v 4 5 -2.5
v -3 6 -0.5
v 3 6 -0.5
v -3 6 -1.5
v -2 6 -1.5
v -1 6 -1.5
v 1 6 -1.5
v 2 6 -1.5
v 3 6 -1.5
v -3 6 -2.5
v -2 6 -2.5
v 2 6 -2.5
v 3 6 -2.5
v -3 6 -4.5
v -1 6 -4.5
v 1 6 -4.5
v 3 6 -4.5
v -1 7 -1.5
v 1 7 -1.5
v -1 7 -5.5
v 1 7 -5.5
v -3 8 -1.5
v -2 8 -1.5
v 2 8 -1.5
v 3 8 -1.5
v -3 8 -2.5
v -2 8 -2.5
v 2 8 -2.5
v 3 8 -2.5

# faces
f 3/2/1 2/2/1 1/2/1
f 4/2/1 2/2/1 3/2/1
f 7/2/1 6/2/1 5/2/1
f 9/2/1 7/2/1 5/2/1
f 9/2/1 8/2/1 7/2/1
f 10/2/1 8/2/1 9/2/1
f 11/2/1 8/2/1 10/2/1
f 12/2/1 8/2/1 11/2/1
f 13/2/1 11/2/1 10/2/1
f 14/2/1 8/2/1 12/2/1
f 15/2/1 13/2/1 10/2/1
f 15/2/1 14/2/1 13/2/1
f 16/2/1 14/2/1 15/2/1
f 17/2/1 8/2/1 14/2/1
f 17/2/1 14/2/1 16/2/1
f 18/2/1 8/2/1 17/2/1
f 19/3/1 17/3/1 16/3/1
f 20/3/1 17/3/1 19/3/1
f 25/2/1 22/2/1 21/2/1
f 26/2/1 22/2/1 25/2/1
f 27/2/1 24/2/1 23/2/1
f 28/2/1 24/2/1 27/2/1
f 31/2/1 30/2/1 29/2/1
f 32/2/1 30/2/1 31/2/1
f 37/2/1 34/2/1 33/2/1
f 38/2/1 34/2/1 37/2/1
f 39/1/1 36/1/1 35/1/1
f 40/1/1 36/1/1 39/1/1
f 44/2/1 42/2/1 41/2/1
f 44/2/1 43/2/1 42/2/1
f 45/2/1 43/2/1 44/2/1
f 50/2/1 47/2/1 46/2/1
f 51/2/1 47/2/1 50/2/1
f 52/2/1 49/2/1 48/2/1
f 53/2/1 49/2/1 52/2/1
f 56/3/1 55/3/1 54/3/1
f 57/3/1 55/3/1 56/3/1
f 58/3/2 59/3/2 60/3/2
f 60/3/2 59/3/2 61/3/2
f 62/2/2 63/2/2 66/2/2
f 66/2/2 63/2/2 67/2/2
f 64/2/2 65/2/2 68/2/2
f 68/2/2 65/2/2 69/2/2
f 70/2/2 71/2/2 74/2/2
f 74/2/2 71/2/2 75/2/2
f 72/1/2 73/1/2 76/1/2
f 76/1/2 73/1/2 77/1/2
f 78/2/2 79/2/2 81/2/2
f 79/2/2 80/2/2 81/2/2
f 81/2/2 80/2/2 82/2/2
f 83/2/2 84/2/2 87/2/2
f 87/2/2 84/2/2 88/2/2
f 85/2/2 86/2/2 89/2/2
f 89/2/2 86/2/2 90/2/2
f 91/2/2 92/2/2 93/2/2
f 93/2/2 92/2/2 94/2/2
f 95/2/2 96/2/2 97/2/2
f 95/2/2 97/2/2 99/2/2
f 97/2/2 98/2/2 99/2/2
f 99/2/2 98/2/2 100/2/2
f 100/2/2 98/2/2 101/2/2
f 101/2/2 98/2/2 102/2/2
f 100/2/2 101/2/2 103/2/2
f 102/2/2 98/2/2 104/2/2
f 100/2/2 103/2/2 105/2/2
f 103/2/2 104/2/2 105/2/2
f 105/2/2 104/2/2 106/2/2
f 104/2/2 98/2/2 107/2/2
f 106/2/2 104/2/2 107/2/2
f 107/2/2 98/2/2 108/2/2
f 106/3/2 107/3/2 109/3/2
f 109/3/2 107/3/2 110/3/2
f 111/2/2 112/2/2 113/2/2
f 113/2/2 112/2/2 114/2/2
f 117/2/3 116/2/3 115/2/3
f 118/2/3 116/2/3 117/2/3
f 121/2/3 120/2/3 119/2/3
f 122/2/3 120/2/3 121/2/3
f 123/2/3 121/2/3 119/2/3
f 124/2/3 120/2/3 122/2/3
f 125/2/3 123/2/3 119/2/3
f 125/2/3 124/2/3 123/2/3
f 126/2/3 120/2/3 124/2/3
f 126/2/3 124/2/3 125/2/3
f 131/2/3 128/2/3 127/2/3
f 132/2/3 128/2/3 131/2/3
f 135/2/3 134/2/3 133/2/3
f 136/2/3 134/2/3 135/2/3
f 137/2/3 130/2/3 129/2/3
f 138/2/3 130/2/3 137/2/3
f 143/2/3 140/2/3 139/2/3
f 144/2/3 140/2/3 143/2/3
f 145/2/3 142/2/3 141/2/3
f 146/2/3 142/2/3 145/2/3
f 149/2/3 148/2/3 147/2/3
f 150/2/3 148/2/3 149/2/3
f 152/2/3 140/2/3 144/2/3
f 153/2/3 152/2/3 151/2/3
f 154/2/3 140/2/3 152/2/3
f 154/2/3 152/2/3 153/2/3
f 157/2/3 156/2/3 155/2/3
f 158/2/3 156/2/3 157/2/3
f 161/3/3 160/3/3 159/3/3
f 162/3/3 160/3/3 161/3/3
f 165/2/3 164/2/3 163/2/3
f 166/2/3 164/2/3 165/2/3
f 171/3/3 168/3/3 167/3/3
f 172/3/3 168/3/3 171/3/3
f 173/2/3 170/2/3 169/2/3
f 174/2/3 170/2/3 173/2/3
f 175/2/4 176/2/4 177/2/4
f 177/2/4 176/2/4 178/2/4
f 179/2/4 180/2/4 181/2/4
f 181/2/4 180/2/4 182/2/4
f 183/2/4 184/2/4 185/2/4
f 185/2/4 184/2/4 186/2/4
f 187/2/4 188/2/4 189/2/4
f 189/2/4 188/2/4 190/2/4
f 191/2/4 192/2/4 195/2/4
f 195/2/4 192/2/4 196/2/4
f 197/3/4 198/3/4 199/3/4
f 199/3/4 198/3/4 200/3/4
f 193/2/4 194/2/4 203/2/4
f 203/2/4 194/2/4 204/2/4
f 201/3/4 202/3/4 207/3/4
f 207/3/4 202/3/4 208/3/4
f 205/2/4 206/2/4 209/2/4
f 209/2/4 206/2/4 210/2/4
f 211/2/4 212/2/4 213/2/4
f 213/2/4 212/2/4 214/2/4
f 211/2/4 213/2/4 215/2/4
f 213/3/4 214/3/4 216/3/4
f 215/2/4 213/2/4 216/2/4
f 214/2/4 212/2/4 217/2/4
f 216/3/4 214/3/4 217/3/4
f 217/2/4 212/2/4 218/2/4
f 216/2/4 217/2/4 220/2/4
f 217/2/4 218/2/4 220/2/4
f 220/2/4 218/2/4 221/2/4
f 221/2/4 218/2/4 222/2/4
f 219/2/4 220/2/4 223/2/4
f 220/3/4 221/3/4 223/3/4
f 221/2/4 222/2/4 224/2/4
f 223/3/4 221/3/4 224/3/4
f 219/2/4 223/2/4 225/2/4
f 223/2/4 224/2/4 225/2/4
f 224/2/4 222/2/4 226/2/4
f 225/2/4 224/2/4 226/2/4
f 227/1/4 228/1/4 231/1/4
f 231/1/4 228/1/4 232/1/4
f 229/2/4 230/2/4 233/2/4
f 233/2/4 230/2/4 234/2/4
f 239/2/5 236/2/5 235/2/5
f 240/2/5 236/2/5 239/2/5
f 241/2/5 238/2/5 237/2/5
f 242/2/5 238/2/5 241/2/5
f 247/2/5 244/2/5 243/2/5
f 248/2/5 244/2/5 247/2/5
f 249/2/5 246/2/5 245/2/5
f 250/2/5 246/2/5 249/2/5
f 253/2/5 252/2/5 251/2/5
f 254/2/5 252/2/5 253/2/5
f 255/2/5 252/2/5 254/2/5
f 256/2/5 252/2/5 255/2/5
f 257/2/5 253/2/5 251/2/5
f 258/2/5 255/2/5 254/2/5
f 259/2/5 255/2/5 258/2/5
f 260/2/5 252/2/5 256/2/5
f 261/2/5 259/2/5 258/2/5
f 261/2/5 260/2/5 259/2/5
f 261/2/5 257/2/5 251/2/5
f 261/2/5 258/2/5 257/2/5
f 262/2/5 260/2/5 261/2/5
f 263/2/5 260/2/5 262/2/5
f 264/2/5 252/2/5 260/2/5
f 264/2/5 260/2/5 263/2/5
f 265/2/5 261/2/5 251/2/5
f 266/2/5 263/2/5 262/2/5
f 267/2/5 263/2/5 266/2/5
f 268/2/5 252/2/5 264/2/5
f 269/2/5 265/2/5 251/2/5
f 269/2/5 268/2/5 267/2/5
f 269/2/5 267/2/5 266/2/5
f 269/2/5 266/2/5 265/2/5
f 270/2/5 252/2/5 268/2/5
f 270/2/5 268/2/5 269/2/5
f 273/2/5 272/2/5 271/2/5
f 274/2/5 272/2/5 273/2/5
f 277/2/5 276/2/5 275/2/5
f 278/2/5 276/2/5 277/2/5
f 279/2/5 276/2/5 278/2/5
f 280/2/5 276/2/5 279/2/5
f 281/1/5 279/1/5 278/1/5
f 282/1/5 279/1/5 281/1/5
f 287/2/5 284/2/5 283/2/5
f 288/2/5 284/2/5 287/2/5
f 289/2/5 286/2/5 285/2/5
f 290/2/5 286/2/5 289/2/5
f 293/2/5 292/2/5 291/2/5
f 294/2/5 292/2/5 293/2/5
f 295/2/6 296/2/6 297/2/6
f 297/2/6 296/2/6 298/2/6
f 299/2/6 300/2/6 301/2/6
f 301/2/6 300/2/6 302/2/6
f 299/2/6 301/2/6 303/2/6
f 303/2/6 301/2/6 304/2/6
f 302/2/6 300/2/6 305/2/6
f 305/2/6 300/2/6 306/2/6
f 307/1/6 308/1/6 309/1/6
f 309/1/6 308/1/6 310/1/6
f 311/2/6 312/2/6 313/2/6
f 313/2/6 312/2/6 314/2/6
f 315/2/6 316/2/6 319/2/6
f 319/2/6 316/2/6 320/2/6
f 317/2/6 318/2/6 321/2/6
f 321/2/6 318/2/6 322/2/6
f 323/2/6 324/2/6 325/2/6
f 325/2/6 324/2/6 326/2/6
f 326/2/6 324/2/6 327/2/6
f 327/2/6 324/2/6 328/2/6
f 328/2/6 324/2/6 329/2/6
f 329/2/6 324/2/6 330/2/6
f 326/2/6 327/2/6 332/2/6
f 328/2/6 329/2/6 333/2/6
f 331/2/6 332/2/6 335/2/6
f 332/2/6 327/2/6 336/2/6
f 335/2/6 332/2/6 336/2/6
f 333/2/6 334/2/6 337/2/6
f 328/2/6 333/2/6 337/2/6
f 337/2/6 334/2/6 338/2/6
f 339/2/6 340/2/6 341/2/6
f 341/2/6 340/2/6 342/2/6
f 343/3/6 344/3/6 347/3/6
f 347/3/6 344/3/6 348/3/6
f 345/3/6 346/3/6 349/3/6
f 349/3/6 346/3/6 350/3/6
