# MagicaVoxel @ Ephtracy

# material
mtllib Coin_02.mtl
usemtl palette

# normals
vn -1 0 0
vn 1 0 0
vn 0 0 1
vn 0 0 -1
vn 0 -1 0
vn 0 1 0

# texcoords
vt 0.419922 0.5
vt 0.478516 0.5

# verts
v -3.5 2 0.5
v -3.5 2 -0.5
v -3.5 5 0.5
v -3.5 5 -0.5
v -2.5 1 0.5
v -2.5 1 -0.5
v -2.5 2 0.5
v -2.5 2 -0.5
v -2.5 5 0.5
v -2.5 5 -0.5
v -2.5 6 0.5
v -2.5 6 -0.5
v -1.5 0 0.5
v -1.5 0 -0.5
v -1.5 1 0.5
v -1.5 1 -0.5
v -1.5 6 0.5
v -1.5 6 -0.5
v -1.5 7 0.5
v -1.5 7 -0.5
v 0.5 2 0.5
v 0.5 2 -0.5
v 0.5 5 0.5
v 0.5 5 -0.5
v -0.5 2 0.5
v -0.5 2 -0.5
v -0.5 5 0.5
v -0.5 5 -0.5
v 1.5 0 0.5
v 1.5 0 -0.5
v 1.5 1 0.5
v 1.5 1 -0.5
v 1.5 6 0.5
v 1.5 6 -0.5
v 1.5 7 0.5
v 1.5 7 -0.5
v 2.5 1 0.5
v 2.5 1 -0.5
v 2.5 2 0.5
v 2.5 2 -0.5
v 2.5 5 0.5
v 2.5 5 -0.5
v 2.5 6 0.5
v 2.5 6 -0.5
v 3.5 2 0.5
v 3.5 2 -0.5
v 3.5 5 0.5
v 3.5 5 -0.5
v -3.5 2 0.5
v -3.5 5 0.5
v -2.5 1 0.5
v -2.5 2 0.5
v -2.5 5 0.5
v -2.5 6 0.5
v -1.5 0 0.5
v -1.5 1 0.5
v -1.5 2 0.5
v -1.5 5 0.5
v -1.5 6 0.5
v -1.5 7 0.5
v -0.5 2 0.5
v -0.5 5 0.5
v 0.5 2 0.5
v 0.5 5 0.5
v 1.5 0 0.5
v 1.5 1 0.5
v 1.5 2 0.5
v 1.5 5 0.5
v 1.5 6 0.5
v 1.5 7 0.5
v 2.5 1 0.5
v 2.5 2 0.5
v 2.5 5 0.5
v 2.5 6 0.5
v 3.5 2 0.5
v 3.5 5 0.5
v -3.5 2 -0.5
v -3.5 5 -0.5
v -2.5 1 -0.5
v -2.5 2 -0.5
v -2.5 5 -0.5
v -2.5 6 -0.5
v -1.5 0 -0.5
v -1.5 1 -0.5
v -1.5 2 -0.5
v -1.5 5 -0.5
v -1.5 6 -0.5
v -1.5 7 -0.5
v -0.5 2 -0.5
v -0.5 5 -0.5
v 0.5 2 -0.5
v 0.5 5 -0.5
v 1.5 0 -0.5
v 1.5 1 -0.5
v 1.5 2 -0.5
v 1.5 5 -0.5
v 1.5 6 -0.5
v 1.5 7 -0.5
v 2.5 1 -0.5
v 2.5 2 -0.5
v 2.5 5 -0.5
v 2.5 6 -0.5
v 3.5 2 -0.5
v 3.5 5 -0.5
v -1.5 0 0.5
v 1.5 0 0.5
v -1.5 0 -0.5
v 1.5 0 -0.5
v -2.5 1 0.5
v -1.5 1 0.5
v 1.5 1 0.5
v 2.5 1 0.5
v -2.5 1 -0.5
v -1.5 1 -0.5
v 1.5 1 -0.5
v 2.5 1 -0.5
v -3.5 2 0.5
v -2.5 2 0.5
v 2.5 2 0.5
v 3.5 2 0.5
v -3.5 2 -0.5
v -2.5 2 -0.5
v 2.5 2 -0.5
v 3.5 2 -0.5
v -0.5 5 0.5
v 0.5 5 0.5
v -0.5 5 -0.5
v 0.5 5 -0.5
v -0.5 2 0.5
v 0.5 2 0.5
v -0.5 2 -0.5
v 0.5 2 -0.5
v -3.5 5 0.5
v -2.5 5 0.5
v 2.5 5 0.5
v 3.5 5 0.5
v -3.5 5 -0.5
v -2.5 5 -0.5
v 2.5 5 -0.5
v 3.5 5 -0.5
v -2.5 6 0.5
v -1.5 6 0.5
v 1.5 6 0.5
v 2.5 6 0.5
v -2.5 6 -0.5
v -1.5 6 -0.5
v 1.5 6 -0.5
v 2.5 6 -0.5
v -1.5 7 0.5
v 1.5 7 0.5
v -1.5 7 -0.5
v 1.5 7 -0.5

# faces
f 3/1/1 2/1/1 1/1/1
f 4/1/1 2/1/1 3/1/1
f 7/1/1 6/1/1 5/1/1
f 8/1/1 6/1/1 7/1/1
f 11/1/1 10/1/1 9/1/1
f 12/1/1 10/1/1 11/1/1
f 15/1/1 14/1/1 13/1/1
f 16/1/1 14/1/1 15/1/1
f 19/1/1 18/1/1 17/1/1
f 20/1/1 18/1/1 19/1/1
f 23/2/1 22/2/1 21/2/1
f 24/2/1 22/2/1 23/2/1
f 25/2/2 26/2/2 27/2/2
f 27/2/2 26/2/2 28/2/2
f 29/1/2 30/1/2 31/1/2
f 31/1/2 30/1/2 32/1/2
f 33/1/2 34/1/2 35/1/2
f 35/1/2 34/1/2 36/1/2
f 37/1/2 38/1/2 39/1/2
f 39/1/2 38/1/2 40/1/2
f 41/1/2 42/1/2 43/1/2
f 43/1/2 42/1/2 44/1/2
f 45/1/2 46/1/2 47/1/2
f 47/1/2 46/1/2 48/1/2
f 52/1/3 50/1/3 49/1/3
f 53/1/3 50/1/3 52/1/3
f 56/1/3 52/1/3 51/1/3
f 57/2/3 53/2/3 52/2/3
f 57/1/3 52/1/3 56/1/3
f 58/1/3 54/1/3 53/1/3
f 58/2/3 53/2/3 57/2/3
f 59/1/3 54/1/3 58/1/3
f 61/2/3 57/2/3 56/2/3
f 61/2/3 58/2/3 57/2/3
f 61/2/3 59/2/3 58/2/3
f 62/2/3 59/2/3 61/2/3
f 63/2/3 61/2/3 56/2/3
f 64/2/3 59/2/3 62/2/3
f 65/1/3 56/1/3 55/1/3
f 66/2/3 64/2/3 63/2/3
f 66/1/3 56/1/3 65/1/3
f 66/2/3 63/2/3 56/2/3
f 67/2/3 64/2/3 66/2/3
f 68/2/3 59/2/3 64/2/3
f 68/2/3 64/2/3 67/2/3
f 69/1/3 60/1/3 59/1/3
f 69/2/3 59/2/3 68/2/3
f 70/1/3 60/1/3 69/1/3
f 71/1/3 67/1/3 66/1/3
f 72/2/3 68/2/3 67/2/3
f 72/1/3 67/1/3 71/1/3
f 73/1/3 69/1/3 68/1/3
f 73/2/3 68/2/3 72/2/3
f 74/1/3 69/1/3 73/1/3
f 75/1/3 73/1/3 72/1/3
f 76/1/3 73/1/3 75/1/3
f 77/1/4 78/1/4 80/1/4
f 80/1/4 78/1/4 81/1/4
f 79/1/4 80/1/4 84/1/4
f 80/2/4 81/2/4 85/2/4
f 84/1/4 80/1/4 85/1/4
f 81/1/4 82/1/4 86/1/4
f 85/2/4 81/2/4 86/2/4
f 86/1/4 82/1/4 87/1/4
f 84/2/4 85/2/4 89/2/4
f 85/2/4 86/2/4 89/2/4
f 86/2/4 87/2/4 89/2/4
f 89/2/4 87/2/4 90/2/4
f 84/2/4 89/2/4 91/2/4
f 90/2/4 87/2/4 92/2/4
f 83/1/4 84/1/4 93/1/4
f 91/2/4 92/2/4 94/2/4
f 93/1/4 84/1/4 94/1/4
f 84/2/4 91/2/4 94/2/4
f 94/2/4 92/2/4 95/2/4
f 92/2/4 87/2/4 96/2/4
f 95/2/4 92/2/4 96/2/4
f 87/1/4 88/1/4 97/1/4
f 96/2/4 87/2/4 97/2/4
f 97/1/4 88/1/4 98/1/4
f 94/1/4 95/1/4 99/1/4
f 95/2/4 96/2/4 100/2/4
f 99/1/4 95/1/4 100/1/4
f 96/1/4 97/1/4 101/1/4
f 100/2/4 96/2/4 101/2/4
f 101/1/4 97/1/4 102/1/4
f 100/1/4 101/1/4 103/1/4
f 103/1/4 101/1/4 104/1/4
f 107/1/5 106/1/5 105/1/5
f 108/1/5 106/1/5 107/1/5
f 113/1/5 110/1/5 109/1/5
f 114/1/5 110/1/5 113/1/5
f 115/1/5 112/1/5 111/1/5
f 116/1/5 112/1/5 115/1/5
f 121/1/5 118/1/5 117/1/5
f 122/1/5 118/1/5 121/1/5
f 123/1/5 120/1/5 119/1/5
f 124/1/5 120/1/5 123/1/5
f 127/2/5 126/2/5 125/2/5
f 128/2/5 126/2/5 127/2/5
f 129/2/6 130/2/6 131/2/6
f 131/2/6 130/2/6 132/2/6
f 133/1/6 134/1/6 137/1/6
f 137/1/6 134/1/6 138/1/6
f 135/1/6 136/1/6 139/1/6
f 139/1/6 136/1/6 140/1/6
f 141/1/6 142/1/6 145/1/6
f 145/1/6 142/1/6 146/1/6
f 143/1/6 144/1/6 147/1/6
f 147/1/6 144/1/6 148/1/6
f 149/1/6 150/1/6 151/1/6
f 151/1/6 150/1/6 152/1/6
