# MagicaVoxel @ Ephtracy

# material
mtllib Duck_01.mtl
usemtl palette

# normals
vn -1 0 0
vn 1 0 0
vn 0 0 1
vn 0 0 -1
vn 0 -1 0
vn 0 1 0

# texcoords
vt 0.416016 0.5
vt 0.642578 0.5
vt 0.919922 0.5
vt 0.958984 0.5

# verts
v -1.5 0 2
v -1.5 0 -0
v -1.5 1 3
v -1.5 1 2
v -1.5 1 -0
v -1.5 3 3
v -1.5 3 -0
v -1.5 4 -1
v -1.5 4 -2
v -1.5 5 -1
v -1.5 5 -2
v -0.5 2 4
v -0.5 2 3
v -0.5 2 -0
v -0.5 2 -2
v -0.5 2 -4
v -0.5 3 4
v -0.5 3 3
v -0.5 3 2
v -0.5 3 -0
v -0.5 4 2
v -0.5 4 1
v -0.5 4 -1
v -0.5 4 -2
v -0.5 4 -4
v -0.5 5 1
v -0.5 5 -1
v 0.5 0 2
v 0.5 0 -0
v 0.5 1 2
v 0.5 1 1
v 0.5 1 -0
v -0.5 0 2
v -0.5 0 -0
v -0.5 1 2
v -0.5 1 1
v -0.5 1 -0
v 0.5 2 4
v 0.5 2 3
v 0.5 2 -0
v 0.5 2 -2
v 0.5 2 -4
v 0.5 3 4
v 0.5 3 3
v 0.5 3 2
v 0.5 3 -0
v 0.5 4 2
v 0.5 4 1
v 0.5 4 -1
v 0.5 4 -2
v 0.5 4 -4
v 0.5 5 1
v 0.5 5 -1
v 1.5 0 2
v 1.5 0 -0
v 1.5 1 3
v 1.5 1 2
v 1.5 1 -0
v 1.5 3 3
v 1.5 3 -0
v 1.5 4 -1
v 1.5 4 -2
v 1.5 5 -1
v 1.5 5 -2
v -0.5 2 4
v -0.5 3 4
v 0.5 2 4
v 0.5 3 4
v -1.5 1 3
v -1.5 3 3
v -0.5 2 3
v -0.5 3 3
v 0.5 2 3
v 0.5 3 3
v 1.5 1 3
v 1.5 3 3
v -1.5 0 2
v -1.5 1 2
v -0.5 0 2
v -0.5 1 2
v -0.5 3 2
v -0.5 4 2
v 0.5 0 2
v 0.5 1 2
v 0.5 3 2
v 0.5 4 2
v 1.5 0 2
v 1.5 1 2
v -0.5 4 1
v -0.5 5 1
v 0.5 4 1
v 0.5 5 1
v -1.5 4 -1
v -1.5 5 -1
v -0.5 4 -1
v -0.5 5 -1
v 0.5 4 -1
v 0.5 5 -1
v 1.5 4 -1
v 1.5 5 -1
v -1.5 0 -0
v -1.5 1 -0
v -1.5 3 -0
v -0.5 0 -0
v -0.5 1 -0
v -0.5 2 -0
v -0.5 3 -0
v 0.5 0 -0
v 0.5 1 -0
v 0.5 2 -0
v 0.5 3 -0
v 1.5 0 -0
v 1.5 1 -0
v 1.5 3 -0
v -1.5 4 -2
v -1.5 5 -2
v -0.5 4 -2
v -0.5 5 -2
v 0.5 4 -2
v 0.5 5 -2
v 1.5 4 -2
v 1.5 5 -2
v -0.5 2 -4
v -0.5 4 -4
v 0.5 2 -4
v 0.5 4 -4
v -1.5 0 2
v -0.5 0 2
v 0.5 0 2
v 1.5 0 2
v -1.5 0 -0
v -0.5 0 -0
v 0.5 0 -0
v 1.5 0 -0
v -1.5 1 3
v 1.5 1 3
v -1.5 1 2
v -0.5 1 2
v 0.5 1 2
v 1.5 1 2
v -0.5 1 1
v 0.5 1 1
v -0.5 1 -0
v 0.5 1 -0
v -0.5 2 4
v 0.5 2 4
v -0.5 2 3
v 0.5 2 3
v -0.5 2 -0
v 0.5 2 -0
v -0.5 2 -2
v 0.5 2 -2
v -0.5 2 -4
v 0.5 2 -4
v -1.5 4 -1
v -0.5 4 -1
v 0.5 4 -1
v 1.5 4 -1
v -1.5 4 -2
v -0.5 4 -2
v 0.5 4 -2
v 1.5 4 -2
v -0.5 3 4
v 0.5 3 4
v -1.5 3 3
v -0.5 3 3
v 0.5 3 3
v 1.5 3 3
v -0.5 3 2
v 0.5 3 2
v -1.5 3 -0
v -0.5 3 -0
v 0.5 3 -0
v 1.5 3 -0
v -0.5 4 2
v 0.5 4 2
v -0.5 4 1
v 0.5 4 1
v -0.5 4 -2
v 0.5 4 -2
v -0.5 4 -4
v 0.5 4 -4
v -0.5 5 1
v 0.5 5 1
v -1.5 5 -1
v -0.5 5 -1
v 0.5 5 -1
v 1.5 5 -1
v -1.5 5 -2
v -0.5 5 -2
v 0.5 5 -2
v 1.5 5 -2

# faces
f 4/1/1 2/1/1 1/1/1
f 5/1/1 2/1/1 4/1/1
f 6/2/1 4/2/1 3/2/1
f 6/2/1 5/2/1 4/2/1
f 7/2/1 5/2/1 6/2/1
f 10/4/1 9/4/1 8/4/1
f 11/4/1 9/4/1 10/4/1
f 17/2/1 13/2/1 12/2/1
f 18/2/1 13/2/1 17/2/1
f 20/2/1 15/2/1 14/2/1
f 21/2/1 20/2/1 19/2/1
f 22/2/1 20/2/1 21/2/1
f 23/2/1 15/2/1 20/2/1
f 23/2/1 20/2/1 22/2/1
f 24/1/1 16/1/1 15/1/1
f 24/2/1 15/2/1 23/2/1
f 25/1/1 16/1/1 24/1/1
f 26/2/1 23/2/1 22/2/1
f 27/2/1 23/2/1 26/2/1
f 30/1/1 29/1/1 28/1/1
f 31/1/1 29/1/1 30/1/1
f 32/1/1 29/1/1 31/1/1
f 33/1/2 34/1/2 35/1/2
f 35/1/2 34/1/2 36/1/2
f 36/1/2 34/1/2 37/1/2
f 38/2/2 39/2/2 43/2/2
f 43/2/2 39/2/2 44/2/2
f 40/2/2 41/2/2 46/2/2
f 45/2/2 46/2/2 47/2/2
f 47/2/2 46/2/2 48/2/2
f 46/2/2 41/2/2 49/2/2
f 48/2/2 46/2/2 49/2/2
f 41/1/2 42/1/2 50/1/2
f 49/2/2 41/2/2 50/2/2
f 50/1/2 42/1/2 51/1/2
f 48/2/2 49/2/2 52/2/2
f 52/2/2 49/2/2 53/2/2
f 54/1/2 55/1/2 57/1/2
f 57/1/2 55/1/2 58/1/2
f 56/2/2 57/2/2 59/2/2
f 57/2/2 58/2/2 59/2/2
f 59/2/2 58/2/2 60/2/2
f 61/4/2 62/4/2 63/4/2
f 63/4/2 62/4/2 64/4/2
f 67/2/3 66/2/3 65/2/3
f 68/2/3 66/2/3 67/2/3
f 71/2/3 70/2/3 69/2/3
f 72/2/3 70/2/3 71/2/3
f 73/2/3 71/2/3 69/2/3
f 75/2/3 73/2/3 69/2/3
f 75/2/3 74/2/3 73/2/3
f 76/2/3 74/2/3 75/2/3
f 79/1/3 78/1/3 77/1/3
f 80/1/3 78/1/3 79/1/3
f 85/2/3 82/2/3 81/2/3
f 86/2/3 82/2/3 85/2/3
f 87/1/3 84/1/3 83/1/3
f 88/1/3 84/1/3 87/1/3
f 91/2/3 90/2/3 89/2/3
f 92/2/3 90/2/3 91/2/3
f 95/4/3 94/4/3 93/4/3
f 96/4/3 94/4/3 95/4/3
f 99/4/3 98/4/3 97/4/3
f 100/4/3 98/4/3 99/4/3
f 101/1/4 102/1/4 104/1/4
f 102/2/4 103/2/4 105/2/4
f 104/1/4 102/1/4 105/1/4
f 105/2/4 103/2/4 106/2/4
f 106/2/4 103/2/4 107/2/4
f 105/2/4 106/2/4 109/2/4
f 109/2/4 106/2/4 110/2/4
f 108/1/4 109/1/4 112/1/4
f 110/2/4 111/2/4 113/2/4
f 112/1/4 109/1/4 113/1/4
f 109/2/4 110/2/4 113/2/4
f 113/2/4 111/2/4 114/2/4
f 115/4/4 116/4/4 117/4/4
f 117/4/4 116/4/4 118/4/4
f 117/2/4 118/2/4 119/2/4
f 119/2/4 118/2/4 120/2/4
f 119/4/4 120/4/4 121/4/4
f 121/4/4 120/4/4 122/4/4
f 123/1/4 124/1/4 125/1/4
f 125/1/4 124/1/4 126/1/4
f 131/1/5 128/1/5 127/1/5
f 132/1/5 128/1/5 131/1/5
f 133/1/5 130/1/5 129/1/5
f 134/1/5 130/1/5 133/1/5
f 137/2/5 136/2/5 135/2/5
f 138/2/5 136/2/5 137/2/5
f 139/2/5 136/2/5 138/2/5
f 140/2/5 136/2/5 139/2/5
f 141/3/5 139/3/5 138/3/5
f 142/3/5 139/3/5 141/3/5
f 143/2/5 142/2/5 141/2/5
f 144/2/5 142/2/5 143/2/5
f 147/2/5 146/2/5 145/2/5
f 148/2/5 146/2/5 147/2/5
f 151/2/5 150/2/5 149/2/5
f 152/2/5 150/2/5 151/2/5
f 153/1/5 152/1/5 151/1/5
f 154/1/5 152/1/5 153/1/5
f 159/4/5 156/4/5 155/4/5
f 160/4/5 156/4/5 159/4/5
f 161/4/5 158/4/5 157/4/5
f 162/4/5 158/4/5 161/4/5
f 163/2/6 164/2/6 166/2/6
f 166/2/6 164/2/6 167/2/6
f 165/2/6 166/2/6 169/2/6
f 167/2/6 168/2/6 169/2/6
f 166/2/6 167/2/6 169/2/6
f 169/2/6 168/2/6 170/2/6
f 165/2/6 169/2/6 171/2/6
f 171/2/6 169/2/6 172/2/6
f 170/2/6 168/2/6 173/2/6
f 173/2/6 168/2/6 174/2/6
f 175/2/6 176/2/6 177/2/6
f 177/2/6 176/2/6 178/2/6
f 179/1/6 180/1/6 181/1/6
f 181/1/6 180/1/6 182/1/6
f 183/2/6 184/2/6 186/2/6
f 186/2/6 184/2/6 187/2/6
f 185/4/6 186/4/6 189/4/6
f 186/2/6 187/2/6 190/2/6
f 189/4/6 186/4/6 190/4/6
f 187/4/6 188/4/6 191/4/6
f 190/2/6 187/2/6 191/2/6
f 191/4/6 188/4/6 192/4/6
