# MagicaVoxel @ Ephtracy

# material
mtllib Flag_01_red.mtl
usemtl palette

# normals
vn -1 0 0
vn 1 0 0
vn 0 0 1
vn 0 0 -1
vn 0 -1 0
vn 0 1 0

# texcoords
vt 0.146484 0.5
vt 0.279297 0.5

# verts
v -4 9 0.5
v -4 9 -0.5
v -4 10 0.5
v -4 10 -0.5
v -4 11 0.5
v -4 11 -0.5
v -4 12 0.5
v -4 12 -0.5
v -4 13 0.5
v -4 13 -0.5
v -4 14 0.5
v -4 14 -0.5
v -3 10 0.5
v -3 10 -0.5
v -3 11 0.5
v -3 11 -0.5
v -3 12 0.5
v -3 12 -0.5
v -3 13 0.5
v -3 13 -0.5
v 3 0 0.5
v 3 0 -0.5
v 3 9 0.5
v 3 9 -0.5
v 3 10 0.5
v 3 10 -0.5
v 3 13 0.5
v 3 13 -0.5
v 3 14 0.5
v 3 14 -0.5
v 3 15 0.5
v 3 15 -0.5
v 2 10 0.5
v 2 10 -0.5
v 2 13 0.5
v 2 13 -0.5
v 4 0 0.5
v 4 0 -0.5
v 4 15 0.5
v 4 15 -0.5
v -4 9 0.5
v -4 10 0.5
v -4 11 0.5
v -4 12 0.5
v -4 13 0.5
v -4 14 0.5
v -3 10 0.5
v -3 11 0.5
v -3 12 0.5
v -3 13 0.5
v 2 10 0.5
v 2 13 0.5
v 3 0 0.5
v 3 9 0.5
v 3 10 0.5
v 3 13 0.5
v 3 14 0.5
v 3 15 0.5
v 4 0 0.5
v 4 15 0.5
v -4 9 -0.5
v -4 10 -0.5
v -4 11 -0.5
v -4 12 -0.5
v -4 13 -0.5
v -4 14 -0.5
v -3 10 -0.5
v -3 11 -0.5
v -3 12 -0.5
v -3 13 -0.5
v 2 10 -0.5
v 2 13 -0.5
v 3 0 -0.5
v 3 9 -0.5
v 3 10 -0.5
v 3 13 -0.5
v 3 14 -0.5
v 3 15 -0.5
v 4 0 -0.5
v 4 15 -0.5
v 3 0 0.5
v 4 0 0.5
v 3 0 -0.5
v 4 0 -0.5
v -4 9 0.5
v 3 9 0.5
v -4 9 -0.5
v 3 9 -0.5
v -4 11 0.5
v -3 11 0.5
v -4 11 -0.5
v -3 11 -0.5
v -4 13 0.5
v -3 13 0.5
v 2 13 0.5
v 3 13 0.5
v -4 13 -0.5
v -3 13 -0.5
v 2 13 -0.5
v 3 13 -0.5
v -4 10 0.5
v -3 10 0.5
v 2 10 0.5
v 3 10 0.5
v -4 10 -0.5
v -3 10 -0.5
v 2 10 -0.5
v 3 10 -0.5
v -4 12 0.5
v -3 12 0.5
v -4 12 -0.5
v -3 12 -0.5
v -4 14 0.5
v 3 14 0.5
v -4 14 -0.5
v 3 14 -0.5
v 3 15 0.5
v 4 15 0.5
v 3 15 -0.5
v 4 15 -0.5

# faces
f 3/1/1 2/1/1 1/1/1
f 4/1/1 2/1/1 3/1/1
f 7/1/1 6/1/1 5/1/1
f 8/1/1 6/1/1 7/1/1
f 11/1/1 10/1/1 9/1/1
f 12/1/1 10/1/1 11/1/1
f 15/1/1 14/1/1 13/1/1
f 16/1/1 14/1/1 15/1/1
f 19/1/1 18/1/1 17/1/1
f 20/1/1 18/1/1 19/1/1
f 23/2/1 22/2/1 21/2/1
f 24/2/1 22/2/1 23/2/1
f 27/2/1 26/2/1 25/2/1
f 28/2/1 26/2/1 27/2/1
f 31/2/1 30/2/1 29/2/1
f 32/2/1 30/2/1 31/2/1
f 33/1/2 34/1/2 35/1/2
f 35/1/2 34/1/2 36/1/2
f 37/2/2 38/2/2 39/2/2
f 39/2/2 38/2/2 40/2/2
f 47/1/3 42/1/3 41/1/3
f 48/1/3 44/1/3 43/1/3
f 49/1/3 44/1/3 48/1/3
f 50/1/3 46/1/3 45/1/3
f 51/1/3 49/1/3 48/1/3
f 51/1/3 50/1/3 49/1/3
f 51/1/3 47/1/3 41/1/3
f 51/1/3 48/1/3 47/1/3
f 52/1/3 46/1/3 50/1/3
f 52/1/3 50/1/3 51/1/3
f 54/1/3 51/1/3 41/1/3
f 55/1/3 51/1/3 54/1/3
f 56/1/3 46/1/3 52/1/3
f 57/1/3 46/1/3 56/1/3
f 59/2/3 55/2/3 54/2/3
f 59/2/3 58/2/3 57/2/3
f 59/2/3 57/2/3 56/2/3
f 59/2/3 56/2/3 55/2/3
f 59/2/3 54/2/3 53/2/3
f 60/2/3 58/2/3 59/2/3
f 61/1/4 62/1/4 67/1/4
f 63/1/4 64/1/4 68/1/4
f 68/1/4 64/1/4 69/1/4
f 65/1/4 66/1/4 70/1/4
f 68/1/4 69/1/4 71/1/4
f 69/1/4 70/1/4 71/1/4
f 61/1/4 67/1/4 71/1/4
f 67/1/4 68/1/4 71/1/4
f 70/1/4 66/1/4 72/1/4
f 71/1/4 70/1/4 72/1/4
f 61/1/4 71/1/4 74/1/4
f 74/1/4 71/1/4 75/1/4
f 72/1/4 66/1/4 76/1/4
f 76/1/4 66/1/4 77/1/4
f 74/2/4 75/2/4 79/2/4
f 77/2/4 78/2/4 79/2/4
f 76/2/4 77/2/4 79/2/4
f 75/2/4 76/2/4 79/2/4
f 73/2/4 74/2/4 79/2/4
f 79/2/4 78/2/4 80/2/4
f 83/2/5 82/2/5 81/2/5
f 84/2/5 82/2/5 83/2/5
f 87/1/5 86/1/5 85/1/5
f 88/1/5 86/1/5 87/1/5
f 91/1/5 90/1/5 89/1/5
f 92/1/5 90/1/5 91/1/5
f 97/1/5 94/1/5 93/1/5
f 98/1/5 94/1/5 97/1/5
f 99/1/5 96/1/5 95/1/5
f 100/1/5 96/1/5 99/1/5
f 101/1/6 102/1/6 105/1/6
f 105/1/6 102/1/6 106/1/6
f 103/1/6 104/1/6 107/1/6
f 107/1/6 104/1/6 108/1/6
f 109/1/6 110/1/6 111/1/6
f 111/1/6 110/1/6 112/1/6
f 113/1/6 114/1/6 115/1/6
f 115/1/6 114/1/6 116/1/6
f 117/2/6 118/2/6 119/2/6
f 119/2/6 118/2/6 120/2/6
