# MagicaVoxel @ Ephtracy

# material
mtllib GroundBlock_type2_13.mtl
usemtl palette

# normals
vn -1 0 0
vn 1 0 0
vn 0 0 1
vn 0 0 -1
vn 0 -1 0
vn 0 1 0

# texcoords
vt 0.458984 0.5
vt 0.466797 0.5
vt 0.509766 0.5
vt 0.513672 0.5

# verts
v -3 0 3
v -3 0 2
v -3 0 -0
v -3 0 -1
v -3 0 -3
v -3 1 3
v -3 1 2
v -3 1 1
v -3 1 -0
v -3 1 -1
v -3 1 -2
v -3 1 -3
v -3 2 2
v -3 2 1
v -3 2 -0
v -3 2 -1
v -3 2 -2
v -3 2 -3
v -3 3 1
v -3 3 -0
v -3 3 -1
v -3 3 -2
v -3 3 -3
v -3 4 -0
v -3 4 -1
v -3 4 -2
v -3 4 -3
v -3 5 -1
v -3 5 -2
v -3 6 -2
v -3 6 -3
v 3 0 3
v 3 0 2
v 3 0 -3
v 3 1 3
v 3 1 2
v 3 1 1
v 3 1 -1
v 3 1 -2
v 3 1 -3
v 3 2 2
v 3 2 1
v 3 2 -0
v 3 2 -1
v 3 2 -2
v 3 2 -3
v 3 3 1
v 3 3 -0
v 3 3 -1
v 3 3 -2
v 3 4 -0
v 3 4 -1
v 3 4 -2
v 3 5 -1
v 3 5 -2
v 3 5 -3
v 3 6 -2
v 3 6 -3
v -3 0 3
v -3 1 3
v 3 0 3
v 3 1 3
v -3 1 2
v -3 2 2
v 3 1 2
v 3 2 2
v -3 2 1
v -3 3 1
v 3 2 1
v 3 3 1
v -3 3 -0
v -3 4 -0
v 3 3 -0
v 3 4 -0
v -3 4 -1
v -3 5 -1
v 3 4 -1
v 3 5 -1
v -3 5 -2
v -3 6 -2
v 3 5 -2
v 3 6 -2
v -3 0 -3
v -3 1 -3
v -3 2 -3
v -3 3 -3
v -3 4 -3
v -3 6 -3
v -2 1 -3
v -2 2 -3
v -2 3 -3
v -2 4 -3
v -2 5 -3
v -1 2 -3
v -1 3 -3
v 1 4 -3
v 1 5 -3
v 2 1 -3
v 2 2 -3
v 2 4 -3
v 2 5 -3
v 3 0 -3
v 3 1 -3
v 3 2 -3
v 3 5 -3
v 3 6 -3
v -3 0 3
v 3 0 3
v -3 0 2
v 3 0 2
v -1 0 1
v 0 0 1
v -3 0 -0
v -2 0 -0
v -1 0 -0
v 0 0 -0
v -3 0 -1
v -2 0 -1
v -3 0 -3
v 3 0 -3
v -3 1 3
v 3 1 3
v -3 1 2
v 3 1 2
v -3 2 2
v 3 2 2
v -3 2 1
v 3 2 1
v -3 3 1
v 3 3 1
v -3 3 -0
v 3 3 -0
v -3 4 -0
v 3 4 -0
v -3 4 -1
v 3 4 -1
v -3 5 -1
v 3 5 -1
v -3 5 -2
v 3 5 -2
v -3 6 -2
v 3 6 -2
v -3 6 -3
v 3 6 -3

# faces
f 6/4/1 2/4/1 1/4/1
f 7/1/1 3/1/1 2/1/1
f 7/4/1 2/4/1 6/4/1
f 8/1/1 3/1/1 7/1/1
f 9/2/1 4/2/1 3/2/1
f 9/1/1 3/1/1 8/1/1
f 10/1/1 5/1/1 4/1/1
f 10/2/1 4/2/1 9/2/1
f 11/1/1 5/1/1 10/1/1
f 12/1/1 5/1/1 11/1/1
f 13/4/1 8/4/1 7/4/1
f 14/1/1 9/1/1 8/1/1
f 14/4/1 8/4/1 13/4/1
f 14/1/1 10/1/1 9/1/1
f 15/1/1 10/1/1 14/1/1
f 16/4/1 11/4/1 10/4/1
f 16/1/1 10/1/1 15/1/1
f 17/3/1 12/3/1 11/3/1
f 17/4/1 11/4/1 16/4/1
f 18/3/1 12/3/1 17/3/1
f 19/4/1 15/4/1 14/4/1
f 20/1/1 16/1/1 15/1/1
f 20/4/1 15/4/1 19/4/1
f 20/1/1 18/1/1 17/1/1
f 20/1/1 17/1/1 16/1/1
f 21/1/1 18/1/1 20/1/1
f 22/1/1 18/1/1 21/1/1
f 23/1/1 18/1/1 22/1/1
f 24/4/1 21/4/1 20/4/1
f 25/1/1 22/1/1 21/1/1
f 25/4/1 21/4/1 24/4/1
f 26/2/1 23/2/1 22/2/1
f 26/1/1 22/1/1 25/1/1
f 27/2/1 23/2/1 26/2/1
f 28/4/1 26/4/1 25/4/1
f 28/4/1 27/4/1 26/4/1
f 29/4/1 27/4/1 28/4/1
f 30/4/1 27/4/1 29/4/1
f 31/4/1 27/4/1 30/4/1
f 32/4/2 33/4/2 35/4/2
f 33/1/2 34/1/2 36/1/2
f 35/4/2 33/4/2 36/4/2
f 36/1/2 34/1/2 37/1/2
f 37/1/2 34/1/2 38/1/2
f 38/1/2 34/1/2 39/1/2
f 39/1/2 34/1/2 40/1/2
f 36/4/2 37/4/2 41/4/2
f 37/1/2 38/1/2 42/1/2
f 41/4/2 37/4/2 42/4/2
f 42/1/2 38/1/2 43/1/2
f 38/2/2 39/2/2 44/2/2
f 43/1/2 38/1/2 44/1/2
f 39/3/2 40/3/2 45/3/2
f 44/2/2 39/2/2 45/2/2
f 45/3/2 40/3/2 46/3/2
f 42/4/2 43/4/2 47/4/2
f 43/1/2 44/1/2 48/1/2
f 47/4/2 43/4/2 48/4/2
f 44/4/2 45/4/2 49/4/2
f 48/1/2 44/1/2 49/1/2
f 45/1/2 46/1/2 50/1/2
f 49/4/2 45/4/2 50/4/2
f 48/4/2 49/4/2 51/4/2
f 49/1/2 50/1/2 52/1/2
f 51/4/2 49/4/2 52/4/2
f 50/1/2 46/1/2 53/1/2
f 52/1/2 50/1/2 53/1/2
f 52/4/2 53/4/2 54/4/2
f 53/1/2 46/1/2 55/1/2
f 54/4/2 53/4/2 55/4/2
f 55/1/2 46/1/2 56/1/2
f 55/4/2 56/4/2 57/4/2
f 57/4/2 56/4/2 58/4/2
f 61/4/3 60/4/3 59/4/3
f 62/4/3 60/4/3 61/4/3
f 65/4/3 64/4/3 63/4/3
f 66/4/3 64/4/3 65/4/3
f 69/4/3 68/4/3 67/4/3
f 70/4/3 68/4/3 69/4/3
f 73/4/3 72/4/3 71/4/3
f 74/4/3 72/4/3 73/4/3
f 77/4/3 76/4/3 75/4/3
f 78/4/3 76/4/3 77/4/3
f 81/4/3 80/4/3 79/4/3
f 82/4/3 80/4/3 81/4/3
f 83/1/4 84/1/4 89/1/4
f 84/3/4 85/3/4 89/3/4
f 85/1/4 86/1/4 90/1/4
f 89/3/4 85/3/4 90/3/4
f 86/2/4 87/2/4 91/2/4
f 90/1/4 86/1/4 91/1/4
f 87/4/4 88/4/4 92/4/4
f 91/2/4 87/2/4 92/2/4
f 92/4/4 88/4/4 93/4/4
f 90/4/4 91/4/4 94/4/4
f 89/1/4 90/1/4 94/1/4
f 92/1/4 93/1/4 95/1/4
f 94/4/4 91/4/4 95/4/4
f 91/1/4 92/1/4 95/1/4
f 94/1/4 95/1/4 96/1/4
f 95/1/4 93/1/4 96/1/4
f 93/4/4 88/4/4 97/4/4
f 96/1/4 93/1/4 97/1/4
f 94/1/4 96/1/4 98/1/4
f 89/1/4 94/1/4 98/1/4
f 83/1/4 89/1/4 98/1/4
f 98/1/4 96/1/4 99/1/4
f 96/4/4 97/4/4 100/4/4
f 99/1/4 96/1/4 100/1/4
f 97/4/4 88/4/4 101/4/4
f 100/4/4 97/4/4 101/4/4
f 83/1/4 98/1/4 102/1/4
f 98/3/4 99/3/4 103/3/4
f 102/1/4 98/1/4 103/1/4
f 99/1/4 100/1/4 104/1/4
f 103/3/4 99/3/4 104/3/4
f 100/1/4 101/1/4 104/1/4
f 101/4/4 88/4/4 105/4/4
f 104/1/4 101/1/4 105/1/4
f 105/4/4 88/4/4 106/4/4
f 109/4/5 108/4/5 107/4/5
f 110/4/5 108/4/5 109/4/5
f 111/1/5 110/1/5 109/1/5
f 112/1/5 110/1/5 111/1/5
f 113/1/5 111/1/5 109/1/5
f 114/1/5 111/1/5 113/1/5
f 115/3/5 112/3/5 111/3/5
f 115/1/5 111/1/5 114/1/5
f 116/1/5 110/1/5 112/1/5
f 116/3/5 112/3/5 115/3/5
f 117/2/5 114/2/5 113/2/5
f 118/1/5 115/1/5 114/1/5
f 118/2/5 114/2/5 117/2/5
f 118/1/5 116/1/5 115/1/5
f 119/1/5 118/1/5 117/1/5
f 120/1/5 110/1/5 116/1/5
f 120/1/5 118/1/5 119/1/5
f 120/1/5 116/1/5 118/1/5
f 121/4/6 122/4/6 123/4/6
f 123/4/6 122/4/6 124/4/6
f 125/4/6 126/4/6 127/4/6
f 127/4/6 126/4/6 128/4/6
f 129/4/6 130/4/6 131/4/6
f 131/4/6 130/4/6 132/4/6
f 133/4/6 134/4/6 135/4/6
f 135/4/6 134/4/6 136/4/6
f 137/4/6 138/4/6 139/4/6
f 139/4/6 138/4/6 140/4/6
f 141/4/6 142/4/6 143/4/6
f 143/4/6 142/4/6 144/4/6
