# MagicaVoxel @ Ephtracy

# material
mtllib GroundBlock_type1_10.mtl
usemtl palette

# normals
vn -1 0 0
vn 1 0 0
vn 0 0 1
vn 0 0 -1
vn 0 -1 0
vn 0 1 0

# texcoords
vt 0.111328 0.5
vt 0.119141 0.5
vt 0.505859 0.5
vt 0.529297 0.5
vt 0.541016 0.5
vt 0.556641 0.5
vt 0.966797 0.5

# verts
v -3 0 3
v -3 0 1
v -3 0 -0
v -3 0 -1
v -3 0 -2
v -3 0 -3
v -3 1 2
v -3 1 1
v -3 1 -0
v -3 1 -1
v -3 1 -2
v -3 1 -3
v -3 2 3
v -3 2 2
v -3 2 1
v -3 2 -0
v -3 2 -1
v -3 2 -2
v -3 3 3
v -3 3 2
v -3 3 1
v -3 3 -0
v -3 3 -1
v -3 4 3
v -3 4 2
v -3 4 1
v -3 4 -0
v -3 5 3
v -3 5 2
v -3 5 1
v -3 6 3
v -3 6 2
v 3 0 3
v 3 0 2
v 3 0 -1
v 3 0 -2
v 3 0 -3
v 3 1 3
v 3 1 2
v 3 1 1
v 3 1 -0
v 3 1 -1
v 3 1 -2
v 3 1 -3
v 3 2 2
v 3 2 1
v 3 2 -0
v 3 2 -1
v 3 2 -2
v 3 3 3
v 3 3 2
v 3 3 1
v 3 3 -0
v 3 3 -1
v 3 4 3
v 3 4 2
v 3 4 1
v 3 4 -0
v 3 5 2
v 3 5 1
v 3 6 3
v 3 6 2
v -3 0 3
v -3 2 3
v -3 3 3
v -3 4 3
v -3 5 3
v -3 6 3
v -2 2 3
v -2 3 3
v -2 4 3
v -2 5 3
v -1 1 3
v -1 2 3
v -1 3 3
v -1 4 3
v -1 5 3
v 0 0 3
v 0 1 3
v 0 2 3
v 0 3 3
v 0 4 3
v 0 5 3
v 0 6 3
v 1 0 3
v 1 1 3
v 1 2 3
v 1 3 3
v 1 4 3
v 1 5 3
v 1 6 3
v 2 0 3
v 2 1 3
v 2 3 3
v 2 4 3
v 3 0 3
v 3 1 3
v 3 3 3
v 3 4 3
v 3 6 3
v -3 5 2
v -3 6 2
v -1 5 2
v 0 5 2
v 0 6 2
v 1 5 2
v 1 6 2
v 3 5 2
v 3 6 2
v -3 4 1
v -3 5 1
v -1 4 1
v -1 5 1
v 0 4 1
v 0 5 1
v 3 4 1
v 3 5 1
v -3 3 -0
v -3 4 -0
v 1 3 -0
v 2 3 -0
v 3 3 -0
v 3 4 -0
v -3 2 -1
v -3 3 -1
v -2 2 -1
v -1 2 -1
v 1 2 -1
v 1 3 -1
v 2 2 -1
v 2 3 -1
v 3 2 -1
v 3 3 -1
v -3 1 -2
v -3 2 -2
v -2 1 -2
v -2 2 -2
v -1 1 -2
v -1 2 -2
v 3 1 -2
v 3 2 -2
v -3 0 -3
v -3 1 -3
v 3 0 -3
v 3 1 -3
v -3 0 3
v 0 0 3
v 1 0 3
v 2 0 3
v 3 0 3
v 0 0 2
v 1 0 2
v 2 0 2
v 3 0 2
v -3 0 1
v -2 0 1
v -3 0 -0
v -2 0 -0
v -3 0 -1
v -2 0 -1
v 2 0 -1
v 3 0 -1
v -3 0 -2
v -2 0 -2
v 2 0 -2
v 3 0 -2
v -3 0 -3
v 3 0 -3
v -3 1 -2
v -2 1 -2
v -1 1 -2
v 3 1 -2
v -3 1 -3
v 3 1 -3
v -3 2 -1
v -2 2 -1
v -1 2 -1
v 1 2 -1
v 2 2 -1
v 3 2 -1
v -3 2 -2
v -2 2 -2
v -1 2 -2
v 3 2 -2
v -3 3 -0
v 1 3 -0
v 2 3 -0
v 3 3 -0
v -3 3 -1
v 1 3 -1
v 2 3 -1
v 3 3 -1
v -3 4 1
v -1 4 1
v 0 4 1
v 3 4 1
v -3 4 -0
v 3 4 -0
v -3 5 2
v -1 5 2
v 0 5 2
v 1 5 2
v 3 5 2
v -3 5 1
v -1 5 1
v 0 5 1
v 3 5 1
v -3 6 3
v 0 6 3
v 1 6 3
v 3 6 3
v -3 6 2
v 0 6 2
v 1 6 2
v 3 6 2

# faces
f 7/2/1 2/2/1 1/2/1
f 8/4/1 3/4/1 2/4/1
f 8/2/1 2/2/1 7/2/1
f 9/2/1 4/2/1 3/2/1
f 9/4/1 3/4/1 8/4/1
f 10/4/1 5/4/1 4/4/1
f 10/2/1 4/2/1 9/2/1
f 11/6/1 6/6/1 5/6/1
f 11/4/1 5/4/1 10/4/1
f 12/6/1 6/6/1 11/6/1
f 13/2/1 7/2/1 1/2/1
f 14/1/1 8/1/1 7/1/1
f 14/2/1 7/2/1 13/2/1
f 15/2/1 9/2/1 8/2/1
f 15/1/1 8/1/1 14/1/1
f 16/4/1 10/4/1 9/4/1
f 16/2/1 9/2/1 15/2/1
f 17/6/1 11/6/1 10/6/1
f 17/4/1 10/4/1 16/4/1
f 18/6/1 11/6/1 17/6/1
f 19/4/1 14/4/1 13/4/1
f 20/2/1 15/2/1 14/2/1
f 20/4/1 14/4/1 19/4/1
f 21/3/1 16/3/1 15/3/1
f 21/2/1 15/2/1 20/2/1
f 22/6/1 17/6/1 16/6/1
f 22/3/1 16/3/1 21/3/1
f 23/6/1 17/6/1 22/6/1
f 24/3/1 20/3/1 19/3/1
f 25/4/1 21/4/1 20/4/1
f 25/3/1 20/3/1 24/3/1
f 26/6/1 22/6/1 21/6/1
f 26/4/1 21/4/1 25/4/1
f 27/6/1 22/6/1 26/6/1
f 28/4/1 25/4/1 24/4/1
f 29/6/1 26/6/1 25/6/1
f 29/4/1 25/4/1 28/4/1
f 30/6/1 26/6/1 29/6/1
f 31/6/1 29/6/1 28/6/1
f 32/6/1 29/6/1 31/6/1
f 33/3/2 34/3/2 38/3/2
f 34/2/2 35/2/2 39/2/2
f 38/3/2 34/3/2 39/3/2
f 39/2/2 35/2/2 40/2/2
f 40/2/2 35/2/2 41/2/2
f 35/4/2 36/4/2 42/4/2
f 41/2/2 35/2/2 42/2/2
f 36/6/2 37/6/2 43/6/2
f 42/4/2 36/4/2 43/4/2
f 43/6/2 37/6/2 44/6/2
f 38/2/2 39/2/2 45/2/2
f 39/3/2 40/3/2 45/3/2
f 40/6/2 41/6/2 46/6/2
f 45/3/2 40/3/2 46/3/2
f 41/4/2 42/4/2 47/4/2
f 46/6/2 41/6/2 47/6/2
f 42/6/2 43/6/2 48/6/2
f 47/4/2 42/4/2 48/4/2
f 48/6/2 43/6/2 49/6/2
f 38/2/2 45/2/2 50/2/2
f 45/1/2 46/1/2 51/1/2
f 50/2/2 45/2/2 51/2/2
f 46/3/2 47/3/2 52/3/2
f 51/1/2 46/1/2 52/1/2
f 47/6/2 48/6/2 53/6/2
f 52/3/2 47/3/2 53/3/2
f 53/6/2 48/6/2 54/6/2
f 50/4/2 51/4/2 55/4/2
f 51/3/2 52/3/2 56/3/2
f 55/4/2 51/4/2 56/4/2
f 52/6/2 53/6/2 57/6/2
f 56/3/2 52/3/2 57/3/2
f 57/6/2 53/6/2 58/6/2
f 55/6/2 56/6/2 59/6/2
f 56/6/2 57/6/2 59/6/2
f 59/6/2 57/6/2 60/6/2
f 55/6/2 59/6/2 61/6/2
f 61/6/2 59/6/2 62/6/2
f 69/2/3 64/2/3 63/2/3
f 69/4/3 65/4/3 64/4/3
f 70/3/3 66/3/3 65/3/3
f 70/4/3 65/4/3 69/4/3
f 71/4/3 67/4/3 66/4/3
f 71/3/3 66/3/3 70/3/3
f 72/6/3 68/6/3 67/6/3
f 72/4/3 67/4/3 71/4/3
f 73/2/3 70/2/3 69/2/3
f 73/2/3 69/2/3 63/2/3
f 74/2/3 70/2/3 73/2/3
f 75/3/3 71/3/3 70/3/3
f 75/2/3 70/2/3 74/2/3
f 75/3/3 72/3/3 71/3/3
f 76/3/3 72/3/3 75/3/3
f 77/6/3 68/6/3 72/6/3
f 77/3/3 72/3/3 76/3/3
f 78/2/3 73/2/3 63/2/3
f 79/4/3 74/4/3 73/4/3
f 79/2/3 73/2/3 78/2/3
f 80/3/3 75/3/3 74/3/3
f 80/4/3 74/4/3 79/4/3
f 81/4/3 76/4/3 75/4/3
f 81/3/3 75/3/3 80/3/3
f 82/6/3 77/6/3 76/6/3
f 82/4/3 76/4/3 81/4/3
f 83/6/3 68/6/3 77/6/3
f 83/6/3 77/6/3 82/6/3
f 84/6/3 68/6/3 83/6/3
f 85/1/3 79/1/3 78/1/3
f 86/2/3 80/2/3 79/2/3
f 86/1/3 79/1/3 85/1/3
f 87/4/3 81/4/3 80/4/3
f 87/2/3 80/2/3 86/2/3
f 88/3/3 82/3/3 81/3/3
f 88/4/3 81/4/3 87/4/3
f 89/4/3 83/4/3 82/4/3
f 89/3/3 82/3/3 88/3/3
f 90/5/3 84/5/3 83/5/3
f 90/4/3 83/4/3 89/4/3
f 91/5/3 84/5/3 90/5/3
f 92/2/3 87/2/3 86/2/3
f 92/2/3 86/2/3 85/2/3
f 92/2/3 88/2/3 87/2/3
f 93/2/3 88/2/3 92/2/3
f 94/3/3 89/3/3 88/3/3
f 94/2/3 88/2/3 93/2/3
f 95/6/3 91/6/3 90/6/3
f 95/3/3 89/3/3 94/3/3
f 95/6/3 90/6/3 89/6/3
f 96/3/3 93/3/3 92/3/3
f 97/2/3 94/2/3 93/2/3
f 97/3/3 93/3/3 96/3/3
f 98/4/3 95/4/3 94/4/3
f 98/2/3 94/2/3 97/2/3
f 99/6/3 91/6/3 95/6/3
f 99/4/3 95/4/3 98/4/3
f 100/6/3 91/6/3 99/6/3
f 101/6/4 102/6/4 103/6/4
f 103/6/4 102/6/4 104/6/4
f 104/6/4 102/6/4 105/6/4
f 104/5/4 105/5/4 106/5/4
f 106/5/4 105/5/4 107/5/4
f 106/6/4 107/6/4 108/6/4
f 108/6/4 107/6/4 109/6/4
f 110/6/4 111/6/4 112/6/4
f 112/6/4 111/6/4 113/6/4
f 112/5/4 113/5/4 114/5/4
f 114/5/4 113/5/4 115/5/4
f 114/6/4 115/6/4 116/6/4
f 116/6/4 115/6/4 117/6/4
f 118/6/4 119/6/4 120/6/4
f 120/6/4 119/6/4 121/6/4
f 121/6/4 119/6/4 122/6/4
f 122/6/4 119/6/4 123/6/4
f 124/6/4 125/6/4 126/6/4
f 126/6/4 125/6/4 127/6/4
f 127/6/4 125/6/4 128/6/4
f 128/6/4 125/6/4 129/6/4
f 128/5/4 129/5/4 130/5/4
f 130/5/4 129/5/4 131/5/4
f 130/6/4 131/6/4 132/6/4
f 132/6/4 131/6/4 133/6/4
f 134/6/4 135/6/4 136/6/4
f 136/6/4 135/6/4 137/6/4
f 136/5/4 137/5/4 138/5/4
f 138/5/4 137/5/4 139/5/4
f 138/6/4 139/6/4 140/6/4
f 140/6/4 139/6/4 141/6/4
f 142/6/4 143/6/4 144/6/4
f 144/6/4 143/6/4 145/6/4
f 151/2/5 147/2/5 146/2/5
f 151/1/5 148/1/5 147/1/5
f 152/2/5 149/2/5 148/2/5
f 152/1/5 148/1/5 151/1/5
f 153/3/5 150/3/5 149/3/5
f 153/2/5 149/2/5 152/2/5
f 154/3/5 150/3/5 153/3/5
f 155/2/5 152/2/5 151/2/5
f 155/2/5 151/2/5 146/2/5
f 155/2/5 154/2/5 153/2/5
f 155/2/5 153/2/5 152/2/5
f 156/2/5 154/2/5 155/2/5
f 157/4/5 156/4/5 155/4/5
f 158/2/5 154/2/5 156/2/5
f 158/4/5 156/4/5 157/4/5
f 159/2/5 158/2/5 157/2/5
f 160/2/5 154/2/5 158/2/5
f 160/2/5 158/2/5 159/2/5
f 161/2/5 154/2/5 160/2/5
f 162/2/5 154/2/5 161/2/5
f 163/4/5 160/4/5 159/4/5
f 164/2/5 161/2/5 160/2/5
f 164/4/5 160/4/5 163/4/5
f 165/4/5 162/4/5 161/4/5
f 165/2/5 161/2/5 164/2/5
f 166/4/5 162/4/5 165/4/5
f 167/6/5 164/6/5 163/6/5
f 167/6/5 165/6/5 164/6/5
f 167/6/5 166/6/5 165/6/5
f 168/6/5 166/6/5 167/6/5
f 169/6/6 170/6/6 173/6/6
f 171/6/6 172/6/6 173/6/6
f 170/6/6 171/6/6 173/6/6
f 173/6/6 172/6/6 174/6/6
f 175/6/6 176/6/6 181/6/6
f 176/5/6 177/5/6 182/5/6
f 181/6/6 176/6/6 182/6/6
f 179/6/6 180/6/6 183/6/6
f 182/5/6 177/5/6 183/5/6
f 177/6/6 178/6/6 183/6/6
f 178/6/6 179/6/6 183/6/6
f 183/6/6 180/6/6 184/6/6
f 185/6/6 186/6/6 189/6/6
f 186/5/6 187/5/6 190/5/6
f 189/6/6 186/6/6 190/6/6
f 187/6/6 188/6/6 191/6/6
f 190/5/6 187/5/6 191/5/6
f 191/6/6 188/6/6 192/6/6
f 193/6/6 194/6/6 197/6/6
f 195/6/6 196/6/6 197/6/6
f 194/6/6 195/6/6 197/6/6
f 197/6/6 196/6/6 198/6/6
f 199/6/6 200/6/6 204/6/6
f 200/5/6 201/5/6 205/5/6
f 204/6/6 200/6/6 205/6/6
f 202/6/6 203/6/6 206/6/6
f 205/5/6 201/5/6 206/5/6
f 201/6/6 202/6/6 206/6/6
f 206/6/6 203/6/6 207/6/6
f 208/6/6 209/6/6 212/6/6
f 209/5/6 210/5/6 213/5/6
f 212/6/6 209/6/6 213/6/6
f 210/6/6 211/6/6 214/6/6
f 213/5/6 210/5/6 214/5/6
f 214/6/6 211/6/6 215/6/6
