# MagicaVoxel @ Ephtracy

# material
mtllib GroundBlock_type4_14.mtl
usemtl palette

# normals
vn -1 0 0
vn 1 0 0
vn 0 0 1
vn 0 0 -1
vn 0 -1 0
vn 0 1 0

# texcoords
vt 0.197266 0.5
vt 0.201172 0.5
vt 0.205078 0.5
vt 0.982422 0.5

# verts
v -3 0 3
v -3 0 2
v -3 0 1
v -3 0 -1
v -3 0 -2
v -3 0 -3
v -3 1 3
v -3 1 2
v -3 1 1
v -3 2 2
v -3 2 1
v -3 2 -0
v -3 2 -1
v -3 2 -2
v -3 2 -3
v -3 3 1
v -3 3 -0
v -3 3 -1
v -3 3 -3
v -3 4 -0
v -3 4 -1
v -3 4 -2
v -3 5 -1
v -3 5 -2
v -3 5 -3
v -3 6 -2
v -3 6 -3
v 3 0 3
v 3 0 2
v 3 0 1
v 3 0 -3
v 3 1 3
v 3 1 2
v 3 1 1
v 3 2 2
v 3 2 1
v 3 2 -0
v 3 2 -3
v 3 3 1
v 3 3 -0
v 3 3 -1
v 3 3 -2
v 3 3 -3
v 3 4 -0
v 3 4 -1
v 3 4 -2
v 3 5 -1
v 3 5 -2
v 3 5 -3
v 3 6 -2
v 3 6 -3
v -3 0 3
v -3 1 3
v -2 0 3
v -2 1 3
v 2 0 3
v 2 1 3
v 3 0 3
v 3 1 3
v -3 1 2
v -3 2 2
v -2 1 2
v -2 2 2
v 2 1 2
v 2 2 2
v 3 1 2
v 3 2 2
v -3 2 1
v -3 3 1
v -2 2 1
v -2 3 1
v 2 2 1
v 2 3 1
v 3 2 1
v 3 3 1
v -3 3 -0
v -3 4 -0
v -2 3 -0
v -2 4 -0
v 2 3 -0
v 2 4 -0
v 3 3 -0
v 3 4 -0
v -3 4 -1
v -3 5 -1
v -2 4 -1
v -2 5 -1
v 2 4 -1
v 2 5 -1
v 3 4 -1
v 3 5 -1
v -3 5 -2
v -3 6 -2
v -2 5 -2
v -2 6 -2
v 2 5 -2
v 2 6 -2
v 3 5 -2
v 3 6 -2
v -3 0 -3
v -3 2 -3
v -3 3 -3
v -3 5 -3
v -3 6 -3
v -2 3 -3
v -2 5 -3
v -2 6 -3
v -1 3 -3
v -1 5 -3
v 1 0 -3
v 1 2 -3
v 2 0 -3
v 2 2 -3
v 2 5 -3
v 2 6 -3
v 3 0 -3
v 3 2 -3
v 3 3 -3
v 3 5 -3
v 3 6 -3
v -3 0 3
v -2 0 3
v 2 0 3
v 3 0 3
v -3 0 2
v -2 0 2
v 2 0 2
v 3 0 2
v -3 0 1
v 1 0 1
v 2 0 1
v 3 0 1
v -3 0 -1
v 1 0 -1
v -3 0 -2
v 1 0 -2
v -3 0 -3
v 1 0 -3
v 2 0 -3
v 3 0 -3
v -3 1 3
v -2 1 3
v 2 1 3
v 3 1 3
v -3 1 2
v -2 1 2
v 2 1 2
v 3 1 2
v -3 2 2
v -2 2 2
v 2 2 2
v 3 2 2
v -3 2 1
v -2 2 1
v 2 2 1
v 3 2 1
v -3 3 1
v -2 3 1
v 2 3 1
v 3 3 1
v -3 3 -0
v -2 3 -0
v 2 3 -0
v 3 3 -0
v -3 4 -0
v -2 4 -0
v 2 4 -0
v 3 4 -0
v -3 4 -1
v -2 4 -1
v 2 4 -1
v 3 4 -1
v -3 5 -1
v -2 5 -1
v 2 5 -1
v 3 5 -1
v -3 5 -2
v -2 5 -2
v 2 5 -2
v 3 5 -2
v -3 6 -2
v -2 6 -2
v 2 6 -2
v 3 6 -2
v -3 6 -3
v -2 6 -3
v 2 6 -3
v 3 6 -3

# faces
f 7/1/1 2/1/1 1/1/1
f 8/4/1 3/4/1 2/4/1
f 8/1/1 2/1/1 7/1/1
f 9/2/1 4/2/1 3/2/1
f 9/4/1 3/4/1 8/4/1
f 10/1/1 9/1/1 8/1/1
f 11/2/1 4/2/1 9/2/1
f 11/1/1 9/1/1 10/1/1
f 12/2/1 4/2/1 11/2/1
f 13/4/1 5/4/1 4/4/1
f 13/2/1 4/2/1 12/2/1
f 14/2/1 6/2/1 5/2/1
f 14/4/1 5/4/1 13/4/1
f 15/2/1 6/2/1 14/2/1
f 16/1/1 12/1/1 11/1/1
f 17/4/1 13/4/1 12/4/1
f 17/1/1 12/1/1 16/1/1
f 17/4/1 15/4/1 14/4/1
f 17/4/1 14/4/1 13/4/1
f 18/4/1 15/4/1 17/4/1
f 19/4/1 15/4/1 18/4/1
f 20/1/1 18/1/1 17/1/1
f 21/2/1 19/2/1 18/2/1
f 21/1/1 18/1/1 20/1/1
f 22/2/1 19/2/1 21/2/1
f 23/1/1 22/1/1 21/1/1
f 24/2/1 19/2/1 22/2/1
f 24/1/1 22/1/1 23/1/1
f 25/2/1 19/2/1 24/2/1
f 26/1/1 25/1/1 24/1/1
f 27/1/1 25/1/1 26/1/1
f 28/1/2 29/1/2 32/1/2
f 29/4/2 30/4/2 33/4/2
f 32/1/2 29/1/2 33/1/2
f 30/2/2 31/2/2 34/2/2
f 33/4/2 30/4/2 34/4/2
f 33/1/2 34/1/2 35/1/2
f 34/2/2 31/2/2 36/2/2
f 35/1/2 34/1/2 36/1/2
f 36/2/2 31/2/2 37/2/2
f 37/2/2 31/2/2 38/2/2
f 36/1/2 37/1/2 39/1/2
f 37/4/2 38/4/2 40/4/2
f 39/1/2 37/1/2 40/1/2
f 40/4/2 38/4/2 41/4/2
f 41/4/2 38/4/2 42/4/2
f 42/4/2 38/4/2 43/4/2
f 40/1/2 41/1/2 44/1/2
f 41/4/2 42/4/2 45/4/2
f 44/1/2 41/1/2 45/1/2
f 42/2/2 43/2/2 46/2/2
f 45/4/2 42/4/2 46/4/2
f 45/1/2 46/1/2 47/1/2
f 46/2/2 43/2/2 48/2/2
f 47/1/2 46/1/2 48/1/2
f 48/2/2 43/2/2 49/2/2
f 48/1/2 49/1/2 50/1/2
f 50/1/2 49/1/2 51/1/2
f 54/1/3 53/1/3 52/1/3
f 55/1/3 53/1/3 54/1/3
f 56/3/3 55/3/3 54/3/3
f 57/3/3 55/3/3 56/3/3
f 58/1/3 57/1/3 56/1/3
f 59/1/3 57/1/3 58/1/3
f 62/1/3 61/1/3 60/1/3
f 63/1/3 61/1/3 62/1/3
f 64/3/3 63/3/3 62/3/3
f 65/3/3 63/3/3 64/3/3
f 66/1/3 65/1/3 64/1/3
f 67/1/3 65/1/3 66/1/3
f 70/1/3 69/1/3 68/1/3
f 71/1/3 69/1/3 70/1/3
f 72/3/3 71/3/3 70/3/3
f 73/3/3 71/3/3 72/3/3
f 74/1/3 73/1/3 72/1/3
f 75/1/3 73/1/3 74/1/3
f 78/1/3 77/1/3 76/1/3
f 79/1/3 77/1/3 78/1/3
f 80/3/3 79/3/3 78/3/3
f 81/3/3 79/3/3 80/3/3
f 82/1/3 81/1/3 80/1/3
f 83/1/3 81/1/3 82/1/3
f 86/1/3 85/1/3 84/1/3
f 87/1/3 85/1/3 86/1/3
f 88/3/3 87/3/3 86/3/3
f 89/3/3 87/3/3 88/3/3
f 90/1/3 89/1/3 88/1/3
f 91/1/3 89/1/3 90/1/3
f 94/1/3 93/1/3 92/1/3
f 95/1/3 93/1/3 94/1/3
f 96/3/3 95/3/3 94/3/3
f 97/3/3 95/3/3 96/3/3
f 98/1/3 97/1/3 96/1/3
f 99/1/3 97/1/3 98/1/3
f 101/4/4 102/4/4 105/4/4
f 102/2/4 103/2/4 105/2/4
f 103/1/4 104/1/4 106/1/4
f 105/2/4 103/2/4 106/2/4
f 106/1/4 104/1/4 107/1/4
f 101/4/4 105/4/4 108/4/4
f 105/4/4 106/4/4 108/4/4
f 106/3/4 107/3/4 109/3/4
f 108/4/4 106/4/4 109/4/4
f 100/2/4 101/2/4 110/2/4
f 101/4/4 108/4/4 111/4/4
f 110/2/4 101/2/4 111/2/4
f 110/4/4 111/4/4 112/4/4
f 111/4/4 108/4/4 113/4/4
f 112/4/4 111/4/4 113/4/4
f 109/3/4 107/3/4 114/3/4
f 108/2/4 109/2/4 114/2/4
f 114/3/4 107/3/4 115/3/4
f 112/2/4 113/2/4 116/2/4
f 113/4/4 108/4/4 117/4/4
f 116/2/4 113/2/4 117/2/4
f 108/2/4 114/2/4 118/2/4
f 117/4/4 108/4/4 118/4/4
f 114/1/4 115/1/4 119/1/4
f 118/2/4 114/2/4 119/2/4
f 119/1/4 115/1/4 120/1/4
f 125/1/5 122/1/5 121/1/5
f 126/3/5 123/3/5 122/3/5
f 126/1/5 122/1/5 125/1/5
f 127/1/5 124/1/5 123/1/5
f 127/3/5 123/3/5 126/3/5
f 128/1/5 124/1/5 127/1/5
f 129/4/5 126/4/5 125/4/5
f 129/4/5 127/4/5 126/4/5
f 129/4/5 128/4/5 127/4/5
f 130/4/5 128/4/5 129/4/5
f 131/4/5 128/4/5 130/4/5
f 132/4/5 128/4/5 131/4/5
f 133/2/5 130/2/5 129/2/5
f 134/4/5 131/4/5 130/4/5
f 134/2/5 130/2/5 133/2/5
f 135/4/5 134/4/5 133/4/5
f 136/4/5 131/4/5 134/4/5
f 136/4/5 134/4/5 135/4/5
f 137/2/5 136/2/5 135/2/5
f 138/4/5 131/4/5 136/4/5
f 138/2/5 136/2/5 137/2/5
f 139/2/5 132/2/5 131/2/5
f 139/4/5 131/4/5 138/4/5
f 140/2/5 132/2/5 139/2/5
f 141/1/6 142/1/6 145/1/6
f 142/3/6 143/3/6 146/3/6
f 145/1/6 142/1/6 146/1/6
f 143/1/6 144/1/6 147/1/6
f 146/3/6 143/3/6 147/3/6
f 147/1/6 144/1/6 148/1/6
f 149/1/6 150/1/6 153/1/6
f 150/3/6 151/3/6 154/3/6
f 153/1/6 150/1/6 154/1/6
f 151/1/6 152/1/6 155/1/6
f 154/3/6 151/3/6 155/3/6
f 155/1/6 152/1/6 156/1/6
f 157/1/6 158/1/6 161/1/6
f 158/3/6 159/3/6 162/3/6
f 161/1/6 158/1/6 162/1/6
f 159/1/6 160/1/6 163/1/6
f 162/3/6 159/3/6 163/3/6
f 163/1/6 160/1/6 164/1/6
f 165/1/6 166/1/6 169/1/6
f 166/3/6 167/3/6 170/3/6
f 169/1/6 166/1/6 170/1/6
f 167/1/6 168/1/6 171/1/6
f 170/3/6 167/3/6 171/3/6
f 171/1/6 168/1/6 172/1/6
f 173/1/6 174/1/6 177/1/6
f 174/3/6 175/3/6 178/3/6
f 177/1/6 174/1/6 178/1/6
f 175/1/6 176/1/6 179/1/6
f 178/3/6 175/3/6 179/3/6
f 179/1/6 176/1/6 180/1/6
f 181/1/6 182/1/6 185/1/6
f 182/3/6 183/3/6 186/3/6
f 185/1/6 182/1/6 186/1/6
f 183/1/6 184/1/6 187/1/6
f 186/3/6 183/3/6 187/3/6
f 187/1/6 184/1/6 188/1/6
