# MagicaVoxel @ Ephtracy

# material
mtllib GroundBlock_type2_03.mtl
usemtl palette

# normals
vn -1 0 0
vn 1 0 0
vn 0 0 1
vn 0 0 -1
vn 0 -1 0
vn 0 1 0

# texcoords
vt 0.458984 0.5
vt 0.466797 0.5
vt 0.509766 0.5
vt 0.513672 0.5

# verts
v -3 0 3
v -3 0 -3
v -3 1 2
v -3 1 1
v -3 2 2
v -3 2 1
v -3 2 -0
v -3 2 -1
v -3 2 -2
v -3 2 -3
v -3 3 -0
v -3 3 -1
v -3 3 -2
v -3 3 -3
v -3 4 1
v -3 4 -0
v -3 4 -1
v -3 4 -2
v -3 4 -3
v -3 5 3
v -3 5 1
v -3 5 -0
v -3 5 -2
v -3 5 -3
v -3 6 3
v -3 6 -3
v 3 0 3
v 3 0 -1
v 3 0 -2
v 3 0 -3
v 3 1 1
v 3 1 -0
v 3 1 -1
v 3 1 -2
v 3 2 1
v 3 2 -0
v 3 3 3
v 3 3 2
v 3 3 -0
v 3 3 -1
v 3 3 -2
v 3 4 3
v 3 4 2
v 3 4 1
v 3 4 -0
v 3 4 -1
v 3 4 -2
v 3 4 -3
v 3 5 3
v 3 5 1
v 3 5 -0
v 3 5 -2
v 3 6 3
v 3 6 -3
v -3 0 3
v -3 5 3
v -3 6 3
v -2 3 3
v -2 4 3
v -1 3 3
v -1 4 3
v -1 5 3
v 0 1 3
v 0 3 3
v 0 4 3
v 0 5 3
v 1 1 3
v 1 3 3
v 1 4 3
v 1 5 3
v 2 3 3
v 2 4 3
v 2 5 3
v 3 0 3
v 3 3 3
v 3 4 3
v 3 5 3
v 3 6 3
v -3 0 -3
v -3 2 -3
v -3 3 -3
v -3 4 -3
v -3 5 -3
v -3 6 -3
v -2 2 -3
v -2 3 -3
v -2 4 -3
v -2 5 -3
v 0 3 -3
v 0 4 -3
v 1 3 -3
v 1 4 -3
v 2 4 -3
v 2 5 -3
v 3 0 -3
v 3 4 -3
v 3 6 -3
v -3 0 3
v 3 0 3
v 0 0 -1
v 1 0 -1
v 2 0 -1
v 3 0 -1
v 0 0 -2
v 1 0 -2
v 2 0 -2
v 3 0 -2
v -3 0 -3
v 3 0 -3
v -3 6 3
v 3 6 3
v 0 6 1
v 1 6 1
v 0 6 -0
v 1 6 -0
v -1 6 -1
v 0 6 -1
v -1 6 -2
v 0 6 -2
v -3 6 -3
v 3 6 -3

# faces
f 3/1/1 2/1/1 1/1/1
f 4/1/1 2/1/1 3/1/1
f 5/1/1 3/1/1 1/1/1
f 5/2/1 4/2/1 3/2/1
f 6/1/1 2/1/1 4/1/1
f 6/2/1 4/2/1 5/2/1
f 7/1/1 2/1/1 6/1/1
f 8/1/1 2/1/1 7/1/1
f 9/1/1 2/1/1 8/1/1
f 10/1/1 2/1/1 9/1/1
f 11/1/1 6/1/1 5/1/1
f 11/1/1 7/1/1 6/1/1
f 11/3/1 8/3/1 7/3/1
f 12/1/1 9/1/1 8/1/1
f 12/3/1 8/3/1 11/3/1
f 13/3/1 10/3/1 9/3/1
f 13/1/1 9/1/1 12/1/1
f 14/3/1 10/3/1 13/3/1
f 15/1/1 11/1/1 5/1/1
f 16/4/1 12/4/1 11/4/1
f 16/1/1 11/1/1 15/1/1
f 17/1/1 13/1/1 12/1/1
f 17/4/1 12/4/1 16/4/1
f 17/1/1 14/1/1 13/1/1
f 18/1/1 14/1/1 17/1/1
f 19/1/1 14/1/1 18/1/1
f 20/1/1 5/1/1 1/1/1
f 20/1/1 15/1/1 5/1/1
f 21/4/1 16/4/1 15/4/1
f 21/1/1 15/1/1 20/1/1
f 22/1/1 17/1/1 16/1/1
f 22/4/1 16/4/1 21/4/1
f 22/1/1 18/1/1 17/1/1
f 23/2/1 19/2/1 18/2/1
f 23/1/1 18/1/1 22/1/1
f 24/2/1 19/2/1 23/2/1
f 25/4/1 22/4/1 21/4/1
f 25/4/1 21/4/1 20/4/1
f 25/4/1 24/4/1 23/4/1
f 25/4/1 23/4/1 22/4/1
f 26/4/1 24/4/1 25/4/1
f 27/1/2 28/1/2 31/1/2
f 31/1/2 28/1/2 32/1/2
f 28/2/2 29/2/2 33/2/2
f 32/1/2 28/1/2 33/1/2
f 29/1/2 30/1/2 34/1/2
f 33/2/2 29/2/2 34/2/2
f 31/2/2 32/2/2 35/2/2
f 27/1/2 31/1/2 35/1/2
f 32/1/2 33/1/2 36/1/2
f 35/2/2 32/2/2 36/2/2
f 33/1/2 34/1/2 36/1/2
f 27/1/2 35/1/2 37/1/2
f 35/1/2 36/1/2 37/1/2
f 37/1/2 36/1/2 38/1/2
f 36/1/2 34/1/2 39/1/2
f 38/1/2 36/1/2 39/1/2
f 39/1/2 34/1/2 40/1/2
f 34/1/2 30/1/2 41/1/2
f 40/1/2 34/1/2 41/1/2
f 37/3/2 38/3/2 42/3/2
f 38/1/2 39/1/2 43/1/2
f 42/3/2 38/3/2 43/3/2
f 43/1/2 39/1/2 44/1/2
f 39/4/2 40/4/2 45/4/2
f 44/1/2 39/1/2 45/1/2
f 40/3/2 41/3/2 46/3/2
f 45/4/2 40/4/2 46/4/2
f 41/1/2 30/1/2 47/1/2
f 46/3/2 41/3/2 47/3/2
f 47/1/2 30/1/2 48/1/2
f 43/1/2 44/1/2 49/1/2
f 42/1/2 43/1/2 49/1/2
f 44/4/2 45/4/2 50/4/2
f 49/1/2 44/1/2 50/1/2
f 45/1/2 46/1/2 51/1/2
f 50/4/2 45/4/2 51/4/2
f 46/1/2 47/1/2 51/1/2
f 47/4/2 48/4/2 52/4/2
f 51/1/2 47/1/2 52/1/2
f 49/4/2 50/4/2 53/4/2
f 50/4/2 51/4/2 53/4/2
f 51/4/2 52/4/2 53/4/2
f 52/4/2 48/4/2 54/4/2
f 53/4/2 52/4/2 54/4/2
f 58/1/3 56/1/3 55/1/3
f 59/1/3 56/1/3 58/1/3
f 60/1/3 58/1/3 55/1/3
f 60/4/3 59/4/3 58/4/3
f 61/1/3 56/1/3 59/1/3
f 61/4/3 59/4/3 60/4/3
f 62/4/3 57/4/3 56/4/3
f 62/1/3 56/1/3 61/1/3
f 63/1/3 61/1/3 60/1/3
f 63/1/3 60/1/3 55/1/3
f 64/1/3 61/1/3 63/1/3
f 65/4/3 62/4/3 61/4/3
f 65/1/3 61/1/3 64/1/3
f 66/4/3 57/4/3 62/4/3
f 66/4/3 62/4/3 65/4/3
f 67/2/3 64/2/3 63/2/3
f 67/1/3 63/1/3 55/1/3
f 68/1/3 65/1/3 64/1/3
f 68/2/3 64/2/3 67/2/3
f 68/1/3 66/1/3 65/1/3
f 69/1/3 66/1/3 68/1/3
f 70/4/3 57/4/3 66/4/3
f 70/1/3 66/1/3 69/1/3
f 71/1/3 69/1/3 68/1/3
f 71/1/3 68/1/3 67/1/3
f 72/4/3 70/4/3 69/4/3
f 72/1/3 69/1/3 71/1/3
f 73/4/3 57/4/3 70/4/3
f 73/4/3 70/4/3 72/4/3
f 74/1/3 67/1/3 55/1/3
f 74/1/3 71/1/3 67/1/3
f 75/3/3 72/3/3 71/3/3
f 75/1/3 71/1/3 74/1/3
f 76/1/3 73/1/3 72/1/3
f 76/3/3 72/3/3 75/3/3
f 77/4/3 57/4/3 73/4/3
f 77/1/3 73/1/3 76/1/3
f 78/4/3 57/4/3 77/4/3
f 79/1/4 80/1/4 85/1/4
f 80/3/4 81/3/4 85/3/4
f 81/1/4 82/1/4 86/1/4
f 85/3/4 81/3/4 86/3/4
f 82/2/4 83/2/4 87/2/4
f 86/1/4 82/1/4 87/1/4
f 83/4/4 84/4/4 88/4/4
f 87/2/4 83/2/4 88/2/4
f 86/1/4 87/1/4 89/1/4
f 85/1/4 86/1/4 89/1/4
f 87/1/4 88/1/4 89/1/4
f 89/1/4 88/1/4 90/1/4
f 85/1/4 89/1/4 91/1/4
f 89/2/4 90/2/4 91/2/4
f 90/1/4 88/1/4 92/1/4
f 91/2/4 90/2/4 92/2/4
f 91/1/4 92/1/4 93/1/4
f 92/1/4 88/1/4 93/1/4
f 88/4/4 84/4/4 94/4/4
f 93/1/4 88/1/4 94/1/4
f 91/1/4 93/1/4 95/1/4
f 79/1/4 85/1/4 95/1/4
f 85/1/4 91/1/4 95/1/4
f 93/4/4 94/4/4 96/4/4
f 95/1/4 93/1/4 96/1/4
f 94/4/4 84/4/4 97/4/4
f 96/4/4 94/4/4 97/4/4
f 100/1/5 99/1/5 98/1/5
f 101/1/5 99/1/5 100/1/5
f 102/1/5 99/1/5 101/1/5
f 103/1/5 99/1/5 102/1/5
f 104/1/5 100/1/5 98/1/5
f 104/3/5 101/3/5 100/3/5
f 105/1/5 102/1/5 101/1/5
f 105/3/5 101/3/5 104/3/5
f 106/2/5 103/2/5 102/2/5
f 106/1/5 102/1/5 105/1/5
f 107/2/5 103/2/5 106/2/5
f 108/1/5 105/1/5 104/1/5
f 108/1/5 104/1/5 98/1/5
f 108/1/5 107/1/5 106/1/5
f 108/1/5 106/1/5 105/1/5
f 109/1/5 107/1/5 108/1/5
f 110/4/6 111/4/6 112/4/6
f 112/4/6 111/4/6 113/4/6
f 110/4/6 112/4/6 114/4/6
f 112/3/6 113/3/6 114/3/6
f 113/4/6 111/4/6 115/4/6
f 114/3/6 113/3/6 115/3/6
f 110/4/6 114/4/6 116/4/6
f 114/4/6 115/4/6 116/4/6
f 116/4/6 115/4/6 117/4/6
f 110/4/6 116/4/6 118/4/6
f 116/3/6 117/3/6 118/3/6
f 117/4/6 115/4/6 119/4/6
f 118/3/6 117/3/6 119/3/6
f 110/4/6 118/4/6 120/4/6
f 118/4/6 119/4/6 120/4/6
f 115/4/6 111/4/6 121/4/6
f 120/4/6 119/4/6 121/4/6
f 119/4/6 115/4/6 121/4/6
