# MagicaVoxel @ Ephtracy

# material
mtllib GroundBlock_type1_14.mtl
usemtl palette

# normals
vn -1 0 0
vn 1 0 0
vn 0 0 1
vn 0 0 -1
vn 0 -1 0
vn 0 1 0

# texcoords
vt 0.111328 0.5
vt 0.119141 0.5
vt 0.505859 0.5
vt 0.529297 0.5
vt 0.541016 0.5
vt 0.556641 0.5
vt 0.966797 0.5

# verts
v -3 2 2
v -3 2 -0
v -3 2 -1
v -3 2 -2
v -3 3 3
v -3 3 2
v -3 3 1
v -3 3 -0
v -3 3 -1
v -3 3 -2
v -3 3 -3
v -3 4 3
v -3 4 2
v -3 4 1
v -3 4 -0
v -3 4 -1
v -3 4 -2
v -3 4 -3
v -3 5 2
v -3 5 1
v -3 5 -0
v -3 5 -1
v -3 5 -2
v -3 6 3
v -3 6 -3
v -2 1 1
v -2 1 -0
v -2 1 -1
v -2 1 -2
v -2 2 1
v -2 2 -0
v -2 2 -1
v -2 2 -2
v -1 1 2
v -1 1 1
v -1 2 2
v -1 2 1
v 0 0 1
v 0 0 -1
v 0 1 1
v 0 1 -1
v 0 1 -2
v 0 2 -1
v 0 2 -2
v -1 1 -1
v -1 1 -2
v -1 2 -1
v -1 2 -2
v 1 0 1
v 1 0 -1
v 1 1 1
v 1 1 -0
v 1 1 -1
v 1 2 -0
v 1 2 -1
v 2 1 2
v 2 1 -0
v 2 1 -1
v 2 1 -2
v 2 2 2
v 2 2 1
v 2 2 -0
v 2 2 -1
v 2 3 -1
v 2 3 -2
v 3 2 2
v 3 2 1
v 3 2 -0
v 3 2 -1
v 3 3 3
v 3 3 2
v 3 3 1
v 3 3 -0
v 3 3 -1
v 3 3 -2
v 3 3 -3
v 3 4 3
v 3 4 2
v 3 4 1
v 3 4 -0
v 3 4 -1
v 3 4 -2
v 3 5 1
v 3 5 -0
v 3 5 -1
v 3 5 -2
v 3 5 -3
v 3 6 3
v 3 6 -3
v -3 3 3
v -3 4 3
v -3 6 3
v -2 3 3
v -2 4 3
v -2 5 3
v -1 3 3
v -1 4 3
v -1 5 3
v 0 3 3
v 0 4 3
v 1 4 3
v 1 5 3
v 2 3 3
v 2 4 3
v 3 3 3
v 3 4 3
v 3 6 3
v -3 2 2
v -3 3 2
v -2 3 2
v -1 1 2
v -1 2 2
v -1 3 2
v 0 2 2
v 0 3 2
v 1 2 2
v 1 3 2
v 2 1 2
v 2 2 2
v 2 3 2
v 3 2 2
v 3 3 2
v -2 1 1
v -2 2 1
v -1 1 1
v -1 2 1
v 0 0 1
v 0 1 1
v 1 0 1
v 1 1 1
v 1 1 -1
v 1 2 -1
v 2 1 -1
v 2 2 -1
v 1 1 -0
v 1 2 -0
v 2 1 -0
v 2 2 -0
v -1 1 -1
v -1 2 -1
v 0 0 -1
v 0 1 -1
v 0 2 -1
v 1 0 -1
v 1 1 -1
v 2 2 -1
v 2 3 -1
v 3 2 -1
v 3 3 -1
v -3 2 -2
v -3 3 -2
v -2 1 -2
v -2 2 -2
v -2 3 -2
v -1 1 -2
v -1 2 -2
v -1 3 -2
v 0 1 -2
v 0 2 -2
v 0 3 -2
v 1 1 -2
v 1 2 -2
v 1 3 -2
v 2 1 -2
v 2 3 -2
v -3 3 -3
v -3 4 -3
v -3 6 -3
v -2 3 -3
v -2 4 -3
v -1 3 -3
v -1 4 -3
v -1 5 -3
v 0 3 -3
v 0 4 -3
v 0 5 -3
v 1 3 -3
v 1 4 -3
v 1 5 -3
v 2 3 -3
v 2 4 -3
v 2 5 -3
v 3 3 -3
v 3 5 -3
v 3 6 -3
v 0 0 1
v 1 0 1
v 0 0 -1
v 1 0 -1
v -1 1 2
v 2 1 2
v -2 1 1
v -1 1 1
v 0 1 1
v 1 1 1
v -2 1 -0
v -1 1 -0
v 1 1 -0
v 2 1 -0
v -2 1 -1
v -1 1 -1
v 0 1 -1
v 1 1 -1
v 2 1 -1
v -2 1 -2
v -1 1 -2
v 0 1 -2
v 1 1 -2
v 2 1 -2
v -3 2 2
v -1 2 2
v 2 2 2
v 3 2 2
v -2 2 1
v -1 2 1
v 2 2 1
v 3 2 1
v -3 2 -0
v -2 2 -0
v 1 2 -0
v 2 2 -0
v 3 2 -0
v -3 2 -1
v -2 2 -1
v -1 2 -1
v 0 2 -1
v 1 2 -1
v 2 2 -1
v 3 2 -1
v -3 2 -2
v -2 2 -2
v -1 2 -2
v 0 2 -2
v -3 3 3
v -2 3 3
v -1 3 3
v 0 3 3
v 2 3 3
v 3 3 3
v -3 3 2
v -2 3 2
v -1 3 2
v 0 3 2
v 1 3 2
v 2 3 2
v 3 3 2
v 2 3 -1
v 3 3 -1
v -3 3 -2
v -2 3 -2
v -1 3 -2
v 0 3 -2
v 1 3 -2
v 2 3 -2
v 3 3 -2
v -3 3 -3
v -2 3 -3
v -1 3 -3
v 0 3 -3
v 1 3 -3
v 2 3 -3
v 3 3 -3
v -3 6 3
v 3 6 3
v -2 6 2
v -1 6 2
v -2 6 1
v -1 6 1
v 0 6 -0
v 1 6 -0
v 0 6 -1
v 1 6 -1
v -3 6 -3
v 3 6 -3

# faces
f 6/2/1 2/2/1 1/2/1
f 7/2/1 2/2/1 6/2/1
f 8/4/1 3/4/1 2/4/1
f 8/2/1 2/2/1 7/2/1
f 9/2/1 4/2/1 3/2/1
f 9/4/1 3/4/1 8/4/1
f 10/2/1 4/2/1 9/2/1
f 12/4/1 6/4/1 5/4/1
f 13/1/1 7/1/1 6/1/1
f 13/4/1 6/4/1 12/4/1
f 14/6/1 8/6/1 7/6/1
f 14/1/1 7/1/1 13/1/1
f 15/3/1 9/3/1 8/3/1
f 15/6/1 8/6/1 14/6/1
f 16/2/1 10/2/1 9/2/1
f 16/3/1 9/3/1 15/3/1
f 17/4/1 11/4/1 10/4/1
f 17/2/1 10/2/1 16/2/1
f 18/4/1 11/4/1 17/4/1
f 19/6/1 13/6/1 12/6/1
f 19/3/1 14/3/1 13/3/1
f 20/4/1 15/4/1 14/4/1
f 20/3/1 14/3/1 19/3/1
f 21/6/1 16/6/1 15/6/1
f 21/4/1 15/4/1 20/4/1
f 22/4/1 17/4/1 16/4/1
f 22/6/1 16/6/1 21/6/1
f 23/6/1 18/6/1 17/6/1
f 23/4/1 17/4/1 22/4/1
f 24/6/1 20/6/1 19/6/1
f 24/6/1 22/6/1 21/6/1
f 24/6/1 23/6/1 22/6/1
f 24/6/1 21/6/1 20/6/1
f 24/6/1 19/6/1 12/6/1
f 25/6/1 18/6/1 23/6/1
f 25/6/1 23/6/1 24/6/1
f 30/2/1 27/2/1 26/2/1
f 31/1/1 28/1/1 27/1/1
f 31/2/1 27/2/1 30/2/1
f 32/2/1 29/2/1 28/2/1
f 32/1/1 28/1/1 31/1/1
f 33/2/1 29/2/1 32/2/1
f 36/2/1 35/2/1 34/2/1
f 37/2/1 35/2/1 36/2/1
f 40/2/1 39/2/1 38/2/1
f 41/2/1 39/2/1 40/2/1
f 43/1/1 42/1/1 41/1/1
f 44/1/1 42/1/1 43/1/1
f 45/2/2 46/2/2 47/2/2
f 47/2/2 46/2/2 48/2/2
f 49/2/2 50/2/2 51/2/2
f 51/2/2 50/2/2 52/2/2
f 52/2/2 50/2/2 53/2/2
f 52/2/2 53/2/2 54/2/2
f 54/2/2 53/2/2 55/2/2
f 56/2/2 57/2/2 60/2/2
f 60/2/2 57/2/2 61/2/2
f 61/2/2 57/2/2 62/2/2
f 58/2/2 59/2/2 63/2/2
f 63/2/2 59/2/2 64/2/2
f 64/2/2 59/2/2 65/2/2
f 66/4/2 67/4/2 71/4/2
f 67/3/2 68/3/2 72/3/2
f 71/4/2 67/4/2 72/4/2
f 68/2/2 69/2/2 73/2/2
f 72/3/2 68/3/2 73/3/2
f 73/2/2 69/2/2 74/2/2
f 70/4/2 71/4/2 77/4/2
f 71/3/2 72/3/2 78/3/2
f 77/4/2 71/4/2 78/4/2
f 72/4/2 73/4/2 79/4/2
f 78/3/2 72/3/2 79/3/2
f 73/4/2 74/4/2 79/4/2
f 79/4/2 74/4/2 80/4/2
f 74/2/2 75/2/2 81/2/2
f 80/4/2 74/4/2 81/4/2
f 75/4/2 76/4/2 82/4/2
f 81/2/2 75/2/2 82/2/2
f 77/6/2 78/6/2 83/6/2
f 79/4/2 80/4/2 83/4/2
f 78/6/2 79/6/2 83/6/2
f 80/3/2 81/3/2 84/3/2
f 83/4/2 80/4/2 84/4/2
f 81/6/2 82/6/2 85/6/2
f 84/3/2 81/3/2 85/3/2
f 82/4/2 76/4/2 86/4/2
f 85/6/2 82/6/2 86/6/2
f 86/4/2 76/4/2 87/4/2
f 77/6/2 83/6/2 88/6/2
f 84/6/2 85/6/2 88/6/2
f 86/6/2 87/6/2 88/6/2
f 85/6/2 86/6/2 88/6/2
f 83/6/2 84/6/2 88/6/2
f 88/6/2 87/6/2 89/6/2
f 93/4/3 91/4/3 90/4/3
f 94/6/3 92/6/3 91/6/3
f 94/4/3 91/4/3 93/4/3
f 95/6/3 92/6/3 94/6/3
f 96/6/3 94/6/3 93/6/3
f 97/3/3 95/3/3 94/3/3
f 97/6/3 94/6/3 96/6/3
f 98/6/3 92/6/3 95/6/3
f 98/3/3 95/3/3 97/3/3
f 99/4/3 97/4/3 96/4/3
f 99/4/3 98/4/3 97/4/3
f 100/4/3 98/4/3 99/4/3
f 101/3/3 100/3/3 99/3/3
f 101/4/3 98/4/3 100/4/3
f 102/6/3 92/6/3 98/6/3
f 102/4/3 98/4/3 101/4/3
f 103/3/3 101/3/3 99/3/3
f 104/6/3 102/6/3 101/6/3
f 104/3/3 101/3/3 103/3/3
f 105/4/3 104/4/3 103/4/3
f 106/6/3 102/6/3 104/6/3
f 106/4/3 104/4/3 105/4/3
f 107/6/3 92/6/3 102/6/3
f 107/6/3 102/6/3 106/6/3
f 110/2/3 109/2/3 108/2/3
f 112/2/3 110/2/3 108/2/3
f 113/2/3 110/2/3 112/2/3
f 114/2/3 112/2/3 111/2/3
f 114/1/3 113/1/3 112/1/3
f 115/1/3 113/1/3 114/1/3
f 116/2/3 114/2/3 111/2/3
f 116/4/3 115/4/3 114/4/3
f 117/4/3 115/4/3 116/4/3
f 118/2/3 116/2/3 111/2/3
f 118/2/3 117/2/3 116/2/3
f 119/2/3 117/2/3 118/2/3
f 120/2/3 117/2/3 119/2/3
f 121/4/3 120/4/3 119/4/3
f 122/4/3 120/4/3 121/4/3
f 125/2/3 124/2/3 123/2/3
f 126/2/3 124/2/3 125/2/3
f 129/2/3 128/2/3 127/2/3
f 130/2/3 128/2/3 129/2/3
f 133/2/3 132/2/3 131/2/3
f 134/2/3 132/2/3 133/2/3
f 135/2/4 136/2/4 137/2/4
f 137/2/4 136/2/4 138/2/4
f 139/2/4 140/2/4 142/2/4
f 142/2/4 140/2/4 143/2/4
f 141/2/4 142/2/4 144/2/4
f 144/2/4 142/2/4 145/2/4
f 146/2/4 147/2/4 148/2/4
f 148/2/4 147/2/4 149/2/4
f 150/2/4 151/2/4 153/2/4
f 153/2/4 151/2/4 154/2/4
f 152/2/4 153/2/4 155/2/4
f 153/2/4 154/2/4 155/2/4
f 155/2/4 154/2/4 156/2/4
f 156/2/4 154/2/4 157/2/4
f 156/3/4 157/3/4 159/3/4
f 159/3/4 157/3/4 160/3/4
f 158/1/4 159/1/4 161/1/4
f 159/2/4 160/2/4 162/2/4
f 161/1/4 159/1/4 162/1/4
f 162/2/4 160/2/4 163/2/4
f 161/2/4 162/2/4 164/2/4
f 162/2/4 163/2/4 164/2/4
f 164/2/4 163/2/4 165/2/4
f 166/4/4 167/4/4 169/4/4
f 167/6/4 168/6/4 170/6/4
f 169/4/4 167/4/4 170/4/4
f 169/3/4 170/3/4 171/3/4
f 170/6/4 168/6/4 172/6/4
f 171/3/4 170/3/4 172/3/4
f 172/6/4 168/6/4 173/6/4
f 171/4/4 172/4/4 174/4/4
f 172/4/4 173/4/4 174/4/4
f 174/4/4 173/4/4 175/4/4
f 173/6/4 168/6/4 176/6/4
f 175/4/4 173/4/4 176/4/4
f 174/2/4 175/2/4 177/2/4
f 175/3/4 176/3/4 178/3/4
f 177/2/4 175/2/4 178/2/4
f 176/6/4 168/6/4 179/6/4
f 178/3/4 176/3/4 179/3/4
f 177/3/4 178/3/4 180/3/4
f 178/6/4 179/6/4 181/6/4
f 180/3/4 178/3/4 181/3/4
f 179/6/4 168/6/4 182/6/4
f 181/6/4 179/6/4 182/6/4
f 180/4/4 181/4/4 183/4/4
f 181/4/4 182/4/4 183/4/4
f 182/6/4 168/6/4 184/6/4
f 183/4/4 182/4/4 184/4/4
f 184/6/4 168/6/4 185/6/4
f 188/2/5 187/2/5 186/2/5
f 189/2/5 187/2/5 188/2/5
f 193/2/5 191/2/5 190/2/5
f 194/2/5 191/2/5 193/2/5
f 195/2/5 191/2/5 194/2/5
f 196/2/5 193/2/5 192/2/5
f 196/2/5 194/2/5 193/2/5
f 197/2/5 194/2/5 196/2/5
f 198/2/5 191/2/5 195/2/5
f 199/2/5 191/2/5 198/2/5
f 200/1/5 197/1/5 196/1/5
f 201/2/5 194/2/5 197/2/5
f 201/1/5 197/1/5 200/1/5
f 202/2/5 194/2/5 201/2/5
f 205/2/5 201/2/5 200/2/5
f 206/2/5 201/2/5 205/2/5
f 207/1/5 203/1/5 202/1/5
f 208/2/5 204/2/5 203/2/5
f 208/1/5 203/1/5 207/1/5
f 209/2/5 204/2/5 208/2/5
f 214/2/5 211/2/5 210/2/5
f 215/2/5 211/2/5 214/2/5
f 216/4/5 213/4/5 212/4/5
f 217/4/5 213/4/5 216/4/5
f 218/2/5 214/2/5 210/2/5
f 219/2/5 214/2/5 218/2/5
f 221/3/5 217/3/5 216/3/5
f 222/3/5 217/3/5 221/3/5
f 223/4/5 219/4/5 218/4/5
f 224/4/5 219/4/5 223/4/5
f 227/2/5 221/2/5 220/2/5
f 227/2/5 222/2/5 221/2/5
f 228/2/5 222/2/5 227/2/5
f 229/2/5 222/2/5 228/2/5
f 230/2/5 224/2/5 223/2/5
f 231/2/5 224/2/5 230/2/5
f 232/3/5 226/3/5 225/3/5
f 233/3/5 226/3/5 232/3/5
f 240/4/5 235/4/5 234/4/5
f 241/6/5 236/6/5 235/6/5
f 241/4/5 235/4/5 240/4/5
f 242/4/5 237/4/5 236/4/5
f 242/6/5 236/6/5 241/6/5
f 243/3/5 238/3/5 237/3/5
f 243/4/5 237/4/5 242/4/5
f 244/3/5 238/3/5 243/3/5
f 245/4/5 239/4/5 238/4/5
f 245/3/5 238/3/5 244/3/5
f 246/4/5 239/4/5 245/4/5
f 254/2/5 248/2/5 247/2/5
f 255/2/5 248/2/5 254/2/5
f 256/4/5 250/4/5 249/4/5
f 257/3/5 251/3/5 250/3/5
f 257/4/5 250/4/5 256/4/5
f 258/4/5 252/4/5 251/4/5
f 258/3/5 251/3/5 257/3/5
f 259/2/5 253/2/5 252/2/5
f 259/4/5 252/4/5 258/4/5
f 260/3/5 254/3/5 253/3/5
f 260/2/5 253/2/5 259/2/5
f 261/4/5 255/4/5 254/4/5
f 261/3/5 254/3/5 260/3/5
f 262/4/5 255/4/5 261/4/5
f 263/6/6 264/6/6 265/6/6
f 265/6/6 264/6/6 266/6/6
f 263/6/6 265/6/6 267/6/6
f 265/5/6 266/5/6 267/5/6
f 266/6/6 264/6/6 268/6/6
f 267/5/6 266/5/6 268/5/6
f 267/6/6 268/6/6 269/6/6
f 268/6/6 264/6/6 269/6/6
f 269/6/6 264/6/6 270/6/6
f 267/6/6 269/6/6 271/6/6
f 269/5/6 270/5/6 271/5/6
f 270/6/6 264/6/6 272/6/6
f 271/5/6 270/5/6 272/5/6
f 263/6/6 267/6/6 273/6/6
f 267/6/6 271/6/6 273/6/6
f 271/6/6 272/6/6 273/6/6
f 272/6/6 264/6/6 274/6/6
f 273/6/6 272/6/6 274/6/6
