# MagicaVoxel @ Ephtracy

# material
mtllib GroundBlock_type2_14.mtl
usemtl palette

# normals
vn -1 0 0
vn 1 0 0
vn 0 0 1
vn 0 0 -1
vn 0 -1 0
vn 0 1 0

# texcoords
vt 0.458984 0.5
vt 0.466797 0.5
vt 0.509766 0.5
vt 0.513672 0.5

# verts
v -3 0 3
v -3 0 2
v -3 0 -0
v -3 0 -1
v -3 0 -3
v -3 1 3
v -3 1 2
v -3 1 1
v -3 1 -0
v -3 1 -1
v -3 1 -2
v -3 1 -3
v -3 2 2
v -3 2 1
v -3 2 -0
v -3 2 -1
v -3 2 -2
v -3 2 -3
v -3 3 1
v -3 3 -0
v -3 3 -1
v -3 3 -2
v -3 4 -0
v -3 4 -1
v -3 4 -2
v -3 5 -1
v -3 5 -2
v -3 5 -3
v -3 6 -2
v -3 6 -3
v 3 0 3
v 3 0 2
v 3 0 -3
v 3 1 3
v 3 1 2
v 3 1 1
v 3 1 -1
v 3 1 -2
v 3 2 2
v 3 2 1
v 3 2 -0
v 3 2 -1
v 3 2 -2
v 3 2 -3
v 3 3 1
v 3 3 -0
v 3 3 -2
v 3 3 -3
v 3 4 -0
v 3 4 -1
v 3 4 -2
v 3 4 -3
v 3 5 -1
v 3 5 -2
v 3 5 -3
v 3 6 -2
v 3 6 -3
v -3 0 3
v -3 1 3
v 3 0 3
v 3 1 3
v -3 1 2
v -3 2 2
v 3 1 2
v 3 2 2
v -3 2 1
v -3 3 1
v 3 2 1
v 3 3 1
v -3 3 -0
v -3 4 -0
v 3 3 -0
v 3 4 -0
v -3 4 -1
v -3 5 -1
v 3 4 -1
v 3 5 -1
v -3 5 -2
v -3 6 -2
v 3 5 -2
v 3 6 -2
v -3 0 -3
v -3 1 -3
v -3 2 -3
v -3 5 -3
v -3 6 -3
v -2 1 -3
v -2 2 -3
v -2 4 -3
v -2 5 -3
v -1 4 -3
v -1 5 -3
v 2 2 -3
v 2 3 -3
v 2 4 -3
v 3 0 -3
v 3 2 -3
v 3 3 -3
v 3 4 -3
v 3 5 -3
v 3 6 -3
v -3 0 3
v 3 0 3
v -3 0 2
v 3 0 2
v -3 0 -0
v -2 0 -0
v -3 0 -1
v -2 0 -1
v -3 0 -3
v 3 0 -3
v -3 1 3
v 3 1 3
v -3 1 2
v 3 1 2
v -3 2 2
v 3 2 2
v -3 2 1
v 3 2 1
v -3 3 1
v 3 3 1
v -3 3 -0
v 3 3 -0
v -3 4 -0
v 3 4 -0
v -3 4 -1
v 3 4 -1
v -3 5 -1
v 3 5 -1
v -3 5 -2
v 3 5 -2
v -3 6 -2
v 3 6 -2
v -3 6 -3
v 3 6 -3

# faces
f 6/4/1 2/4/1 1/4/1
f 7/1/1 3/1/1 2/1/1
f 7/4/1 2/4/1 6/4/1
f 8/1/1 3/1/1 7/1/1
f 9/2/1 4/2/1 3/2/1
f 9/1/1 3/1/1 8/1/1
f 10/1/1 5/1/1 4/1/1
f 10/2/1 4/2/1 9/2/1
f 11/1/1 5/1/1 10/1/1
f 12/1/1 5/1/1 11/1/1
f 13/4/1 8/4/1 7/4/1
f 14/1/1 9/1/1 8/1/1
f 14/4/1 8/4/1 13/4/1
f 14/1/1 10/1/1 9/1/1
f 14/1/1 11/1/1 10/1/1
f 15/1/1 11/1/1 14/1/1
f 16/1/1 11/1/1 15/1/1
f 17/3/1 12/3/1 11/3/1
f 17/1/1 11/1/1 16/1/1
f 18/3/1 12/3/1 17/3/1
f 19/4/1 15/4/1 14/4/1
f 20/1/1 16/1/1 15/1/1
f 20/4/1 15/4/1 19/4/1
f 21/4/1 17/4/1 16/4/1
f 21/1/1 16/1/1 20/1/1
f 22/1/1 18/1/1 17/1/1
f 22/4/1 17/4/1 21/4/1
f 23/4/1 21/4/1 20/4/1
f 24/1/1 22/1/1 21/1/1
f 24/4/1 21/4/1 23/4/1
f 25/1/1 18/1/1 22/1/1
f 25/1/1 22/1/1 24/1/1
f 26/4/1 25/4/1 24/4/1
f 27/1/1 18/1/1 25/1/1
f 27/4/1 25/4/1 26/4/1
f 28/1/1 18/1/1 27/1/1
f 29/4/1 28/4/1 27/4/1
f 30/4/1 28/4/1 29/4/1
f 31/4/2 32/4/2 34/4/2
f 32/1/2 33/1/2 35/1/2
f 34/4/2 32/4/2 35/4/2
f 35/1/2 33/1/2 36/1/2
f 36/1/2 33/1/2 37/1/2
f 37/1/2 33/1/2 38/1/2
f 35/4/2 36/4/2 39/4/2
f 36/1/2 37/1/2 40/1/2
f 39/4/2 36/4/2 40/4/2
f 40/1/2 37/1/2 41/1/2
f 37/4/2 38/4/2 42/4/2
f 41/1/2 37/1/2 42/1/2
f 38/1/2 33/1/2 43/1/2
f 42/4/2 38/4/2 43/4/2
f 43/1/2 33/1/2 44/1/2
f 40/4/2 41/4/2 45/4/2
f 41/1/2 42/1/2 46/1/2
f 45/4/2 41/4/2 46/4/2
f 42/1/2 43/1/2 46/1/2
f 43/3/2 44/3/2 47/3/2
f 46/1/2 43/1/2 47/1/2
f 47/3/2 44/3/2 48/3/2
f 46/4/2 47/4/2 49/4/2
f 49/4/2 47/4/2 50/4/2
f 47/2/2 48/2/2 51/2/2
f 50/4/2 47/4/2 51/4/2
f 51/2/2 48/2/2 52/2/2
f 50/4/2 51/4/2 53/4/2
f 51/1/2 52/1/2 54/1/2
f 53/4/2 51/4/2 54/4/2
f 54/1/2 52/1/2 55/1/2
f 54/4/2 55/4/2 56/4/2
f 56/4/2 55/4/2 57/4/2
f 60/4/3 59/4/3 58/4/3
f 61/4/3 59/4/3 60/4/3
f 64/4/3 63/4/3 62/4/3
f 65/4/3 63/4/3 64/4/3
f 68/4/3 67/4/3 66/4/3
f 69/4/3 67/4/3 68/4/3
f 72/4/3 71/4/3 70/4/3
f 73/4/3 71/4/3 72/4/3
f 76/4/3 75/4/3 74/4/3
f 77/4/3 75/4/3 76/4/3
f 80/4/3 79/4/3 78/4/3
f 81/4/3 79/4/3 80/4/3
f 82/1/4 83/1/4 87/1/4
f 83/3/4 84/3/4 87/3/4
f 84/1/4 85/1/4 88/1/4
f 87/3/4 84/3/4 88/3/4
f 88/1/4 85/1/4 89/1/4
f 85/4/4 86/4/4 90/4/4
f 89/1/4 85/1/4 90/1/4
f 88/1/4 89/1/4 91/1/4
f 87/1/4 88/1/4 91/1/4
f 89/4/4 90/4/4 91/4/4
f 90/4/4 86/4/4 92/4/4
f 91/4/4 90/4/4 92/4/4
f 87/1/4 91/1/4 93/1/4
f 91/1/4 92/1/4 93/1/4
f 93/1/4 92/1/4 94/1/4
f 94/1/4 92/1/4 95/1/4
f 82/1/4 87/1/4 96/1/4
f 87/1/4 93/1/4 96/1/4
f 93/3/4 94/3/4 97/3/4
f 96/1/4 93/1/4 97/1/4
f 94/2/4 95/2/4 98/2/4
f 97/3/4 94/3/4 98/3/4
f 95/1/4 92/1/4 99/1/4
f 98/2/4 95/2/4 99/2/4
f 92/4/4 86/4/4 100/4/4
f 99/1/4 92/1/4 100/1/4
f 100/4/4 86/4/4 101/4/4
f 104/4/5 103/4/5 102/4/5
f 105/4/5 103/4/5 104/4/5
f 106/1/5 105/1/5 104/1/5
f 107/1/5 105/1/5 106/1/5
f 108/2/5 107/2/5 106/2/5
f 109/1/5 105/1/5 107/1/5
f 109/2/5 107/2/5 108/2/5
f 110/1/5 109/1/5 108/1/5
f 111/1/5 105/1/5 109/1/5
f 111/1/5 109/1/5 110/1/5
f 112/4/6 113/4/6 114/4/6
f 114/4/6 113/4/6 115/4/6
f 116/4/6 117/4/6 118/4/6
f 118/4/6 117/4/6 119/4/6
f 120/4/6 121/4/6 122/4/6
f 122/4/6 121/4/6 123/4/6
f 124/4/6 125/4/6 126/4/6
f 126/4/6 125/4/6 127/4/6
f 128/4/6 129/4/6 130/4/6
f 130/4/6 129/4/6 131/4/6
f 132/4/6 133/4/6 134/4/6
f 134/4/6 133/4/6 135/4/6
