# MagicaVoxel @ Ephtracy

# material
mtllib Thorns_07.mtl
usemtl palette

# normals
vn -1 0 0
vn 1 0 0
vn 0 0 1
vn 0 0 -1
vn 0 -1 0
vn 0 1 0

# texcoords
vt 0.197266 0.5
vt 0.205078 0.5
vt 0.974609 0.5

# verts
v -2 0 2.5
v -2 0 1.5
v -2 0 0.5
v -2 0 -0.5
v -2 0 -1.5
v -2 0 -2.5
v -2 1 2.5
v -2 1 1.5
v -2 1 -0.5
v -2 1 -1.5
v -2 2 -1.5
v -2 2 -2.5
v -2 3 1.5
v -2 3 0.5
v -2 3 -1.5
v -2 3 -2.5
v -2 4 1.5
v -2 4 0.5
v 0 0 -1.5
v 0 0 -2.5
v 0 3 -1.5
v 0 3 -2.5
v 0 4 -1.5
v 0 4 -2.5
v 1 0 1.5
v 1 0 0.5
v 1 0 -0.5
v 1 1 0.5
v 1 1 -0.5
v 1 3 1.5
v 1 3 0.5
v 1 4 1.5
v 1 4 0.5
v -1 0 2.5
v -1 0 1.5
v -1 0 0.5
v -1 0 -0.5
v -1 0 -1.5
v -1 0 -2.5
v -1 1 2.5
v -1 1 1.5
v -1 1 -0.5
v -1 1 -1.5
v -1 2 -1.5
v -1 2 -2.5
v -1 3 1.5
v -1 3 0.5
v -1 3 -1.5
v -1 3 -2.5
v -1 4 1.5
v -1 4 0.5
v 1 0 -1.5
v 1 0 -2.5
v 1 3 -1.5
v 1 3 -2.5
v 1 4 -1.5
v 1 4 -2.5
v 2 0 1.5
v 2 0 0.5
v 2 0 -0.5
v 2 1 0.5
v 2 1 -0.5
v 2 3 1.5
v 2 3 0.5
v 2 4 1.5
v 2 4 0.5
v -2 0 2.5
v -2 1 2.5
v -1 0 2.5
v -1 1 2.5
v -2 1 1.5
v -2 3 1.5
v -2 4 1.5
v -1 1 1.5
v -1 3 1.5
v -1 4 1.5
v 1 0 1.5
v 1 3 1.5
v 1 4 1.5
v 2 0 1.5
v 2 3 1.5
v 2 4 1.5
v -2 0 -0.5
v -2 1 -0.5
v -1 0 -0.5
v -1 1 -0.5
v -2 1 -1.5
v -2 2 -1.5
v -2 3 -1.5
v -1 1 -1.5
v -1 2 -1.5
v -1 3 -1.5
v 0 0 -1.5
v 0 3 -1.5
v 0 4 -1.5
v 1 0 -1.5
v 1 3 -1.5
v 1 4 -1.5
v -2 0 0.5
v -2 3 0.5
v -2 4 0.5
v -1 0 0.5
v -1 3 0.5
v -1 4 0.5
v 1 1 0.5
v 1 3 0.5
v 1 4 0.5
v 2 1 0.5
v 2 3 0.5
v 2 4 0.5
v 1 0 -0.5
v 1 1 -0.5
v 2 0 -0.5
v 2 1 -0.5
v -2 0 -2.5
v -2 2 -2.5
v -2 3 -2.5
v -1 0 -2.5
v -1 2 -2.5
v -1 3 -2.5
v 0 0 -2.5
v 0 3 -2.5
v 0 4 -2.5
v 1 0 -2.5
v 1 3 -2.5
v 1 4 -2.5
v -2 0 2.5
v -1 0 2.5
v -2 0 1.5
v -1 0 1.5
v 1 0 1.5
v 2 0 1.5
v -2 0 0.5
v -1 0 0.5
v 1 0 0.5
v 2 0 0.5
v -2 0 -0.5
v -1 0 -0.5
v 1 0 -0.5
v 2 0 -0.5
v -2 0 -1.5
v -1 0 -1.5
v 0 0 -1.5
v 1 0 -1.5
v -2 0 -2.5
v -1 0 -2.5
v 0 0 -2.5
v 1 0 -2.5
v -2 1 2.5
v -1 1 2.5
v -2 1 1.5
v -1 1 1.5
v 1 1 0.5
v 2 1 0.5
v -2 1 -0.5
v -1 1 -0.5
v 1 1 -0.5
v 2 1 -0.5
v -2 1 -1.5
v -1 1 -1.5
v -2 3 -1.5
v -1 3 -1.5
v -2 3 -2.5
v -1 3 -2.5
v -2 4 1.5
v -1 4 1.5
v 1 4 1.5
v 2 4 1.5
v -2 4 0.5
v -1 4 0.5
v 1 4 0.5
v 2 4 0.5
v 0 4 -1.5
v 1 4 -1.5
v 0 4 -2.5
v 1 4 -2.5

# faces
f 7/2/1 2/2/1 1/2/1
f 8/1/1 3/1/1 2/1/1
f 8/2/1 2/2/1 7/2/1
f 9/2/1 5/2/1 4/2/1
f 10/1/1 6/1/1 5/1/1
f 10/2/1 5/2/1 9/2/1
f 11/1/1 6/1/1 10/1/1
f 12/1/1 6/1/1 11/1/1
f 13/1/1 3/1/1 8/1/1
f 14/1/1 3/1/1 13/1/1
f 15/3/1 12/3/1 11/3/1
f 16/3/1 12/3/1 15/3/1
f 17/3/1 14/3/1 13/3/1
f 18/3/1 14/3/1 17/3/1
f 21/1/1 20/1/1 19/1/1
f 22/1/1 20/1/1 21/1/1
f 23/3/1 22/3/1 21/3/1
f 24/3/1 22/3/1 23/3/1
f 28/1/1 26/1/1 25/1/1
f 28/2/1 27/2/1 26/2/1
f 29/2/1 27/2/1 28/2/1
f 30/1/1 28/1/1 25/1/1
f 31/1/1 28/1/1 30/1/1
f 32/3/1 31/3/1 30/3/1
f 33/3/1 31/3/1 32/3/1
f 34/2/2 35/2/2 40/2/2
f 35/1/2 36/1/2 41/1/2
f 40/2/2 35/2/2 41/2/2
f 37/2/2 38/2/2 42/2/2
f 38/1/2 39/1/2 43/1/2
f 42/2/2 38/2/2 43/2/2
f 43/1/2 39/1/2 44/1/2
f 44/1/2 39/1/2 45/1/2
f 41/1/2 36/1/2 46/1/2
f 46/1/2 36/1/2 47/1/2
f 44/3/2 45/3/2 48/3/2
f 48/3/2 45/3/2 49/3/2
f 46/3/2 47/3/2 50/3/2
f 50/3/2 47/3/2 51/3/2
f 52/1/2 53/1/2 54/1/2
f 54/1/2 53/1/2 55/1/2
f 54/3/2 55/3/2 56/3/2
f 56/3/2 55/3/2 57/3/2
f 58/1/2 59/1/2 61/1/2
f 59/2/2 60/2/2 61/2/2
f 61/2/2 60/2/2 62/2/2
f 58/1/2 61/1/2 63/1/2
f 63/1/2 61/1/2 64/1/2
f 63/3/2 64/3/2 65/3/2
f 65/3/2 64/3/2 66/3/2
f 69/2/3 68/2/3 67/2/3
f 70/2/3 68/2/3 69/2/3
f 74/1/3 72/1/3 71/1/3
f 75/3/3 73/3/3 72/3/3
f 75/1/3 72/1/3 74/1/3
f 76/3/3 73/3/3 75/3/3
f 80/1/3 78/1/3 77/1/3
f 81/3/3 79/3/3 78/3/3
f 81/1/3 78/1/3 80/1/3
f 82/3/3 79/3/3 81/3/3
f 85/2/3 84/2/3 83/2/3
f 86/2/3 84/2/3 85/2/3
f 90/1/3 88/1/3 87/1/3
f 91/3/3 89/3/3 88/3/3
f 91/1/3 88/1/3 90/1/3
f 92/3/3 89/3/3 91/3/3
f 96/1/3 94/1/3 93/1/3
f 97/3/3 95/3/3 94/3/3
f 97/1/3 94/1/3 96/1/3
f 98/3/3 95/3/3 97/3/3
f 99/1/4 100/1/4 102/1/4
f 100/3/4 101/3/4 103/3/4
f 102/1/4 100/1/4 103/1/4
f 103/3/4 101/3/4 104/3/4
f 105/1/4 106/1/4 108/1/4
f 106/3/4 107/3/4 109/3/4
f 108/1/4 106/1/4 109/1/4
f 109/3/4 107/3/4 110/3/4
f 111/2/4 112/2/4 113/2/4
f 113/2/4 112/2/4 114/2/4
f 115/1/4 116/1/4 118/1/4
f 116/3/4 117/3/4 119/3/4
f 118/1/4 116/1/4 119/1/4
f 119/3/4 117/3/4 120/3/4
f 121/1/4 122/1/4 124/1/4
f 122/3/4 123/3/4 125/3/4
f 124/1/4 122/1/4 125/1/4
f 125/3/4 123/3/4 126/3/4
f 129/2/5 128/2/5 127/2/5
f 130/2/5 128/2/5 129/2/5
f 133/1/5 130/1/5 129/1/5
f 134/1/5 130/1/5 133/1/5
f 135/1/5 132/1/5 131/1/5
f 136/1/5 132/1/5 135/1/5
f 139/2/5 136/2/5 135/2/5
f 140/2/5 136/2/5 139/2/5
f 141/2/5 138/2/5 137/2/5
f 142/2/5 138/2/5 141/2/5
f 145/1/5 142/1/5 141/1/5
f 146/1/5 142/1/5 145/1/5
f 147/1/5 144/1/5 143/1/5
f 148/1/5 144/1/5 147/1/5
f 149/2/6 150/2/6 151/2/6
f 151/2/6 150/2/6 152/2/6
f 153/2/6 154/2/6 157/2/6
f 157/2/6 154/2/6 158/2/6
f 155/2/6 156/2/6 159/2/6
f 159/2/6 156/2/6 160/2/6
f 161/3/6 162/3/6 163/3/6
f 163/3/6 162/3/6 164/3/6
f 165/3/6 166/3/6 169/3/6
f 169/3/6 166/3/6 170/3/6
f 167/3/6 168/3/6 171/3/6
f 171/3/6 168/3/6 172/3/6
f 173/3/6 174/3/6 175/3/6
f 175/3/6 174/3/6 176/3/6
