# MagicaVoxel @ Ephtracy

# material
mtllib Tree_type1_02_snow.mtl
usemtl palette

# normals
vn -1 0 0
vn 1 0 0
vn 0 0 1
vn 0 0 -1
vn 0 -1 0
vn 0 1 0

# texcoords
vt 0.279297 0.5
vt 0.529297 0.5
vt 0.556641 0.5
vt 0.962891 0.5
vt 0.966797 0.5

# verts
v -3.5 3 1.5
v -3.5 3 -1.5
v -3.5 4 0.5
v -3.5 4 -0.5
v -3.5 5 1.5
v -3.5 5 0.5
v -3.5 5 -0.5
v -3.5 5 -1.5
v -3.5 6 1.5
v -3.5 6 0.5
v -3.5 6 -1.5
v -2.5 0 1.5
v -2.5 0 0.5
v -2.5 1 1.5
v -2.5 1 0.5
v -2.5 1 -0.5
v -2.5 3 0.5
v -2.5 3 -0.5
v -2.5 4 0.5
v -2.5 4 -0.5
v -2.5 5 0.5
v -2.5 5 -0.5
v -1.5 0 0.5
v -1.5 0 -1.5
v -1.5 1 0.5
v -1.5 1 -0.5
v -1.5 1 -1.5
v -1.5 2 -0.5
v -1.5 2 -1.5
v -1.5 4 1.5
v -1.5 4 0.5
v -1.5 4 -0.5
v -1.5 4 -1.5
v -1.5 5 1.5
v -1.5 5 0.5
v -1.5 5 -0.5
v -1.5 5 -1.5
v -1.5 6 0.5
v -1.5 6 -0.5
v 0.5 2 1.5
v 0.5 2 0.5
v 0.5 2 -0.5
v 0.5 2 -1.5
v 0.5 3 0.5
v 0.5 3 -0.5
v 0.5 4 1.5
v 0.5 4 0.5
v 0.5 4 -0.5
v 0.5 4 -1.5
v 0.5 5 1.5
v 0.5 5 -1.5
v 1.5 3 0.5
v 1.5 3 -0.5
v 1.5 4 0.5
v 1.5 4 -0.5
v 2.5 3 1.5
v 2.5 3 0.5
v 2.5 3 -0.5
v 2.5 3 -1.5
v 2.5 4 1.5
v 2.5 4 0.5
v 2.5 4 -0.5
v 2.5 4 -1.5
v 2.5 5 0.5
v 2.5 5 -0.5
v -2.5 4 1.5
v -2.5 4 0.5
v -2.5 4 -0.5
v -2.5 4 -1.5
v -2.5 5 1.5
v -2.5 5 0.5
v -2.5 5 -0.5
v -2.5 5 -1.5
v -2.5 6 0.5
v -2.5 6 -0.5
v -1.5 0 1.5
v -1.5 0 0.5
v -1.5 1 1.5
v -1.5 1 0.5
v -1.5 2 0.5
v -1.5 2 -0.5
v -1.5 3 0.5
v -1.5 3 -0.5
v -1.5 4 0.5
v -1.5 4 -0.5
v -1.5 5 0.5
v -1.5 5 -0.5
v -0.5 0 -0.5
v -0.5 0 -1.5
v -0.5 1 -0.5
v -0.5 1 -1.5
v -0.5 2 -0.5
v -0.5 2 -1.5
v -0.5 3 1.5
v -0.5 3 -1.5
v -0.5 4 0.5
v -0.5 4 -0.5
v -0.5 5 1.5
v -0.5 5 0.5
v -0.5 5 -0.5
v -0.5 5 -1.5
v -0.5 6 1.5
v -0.5 6 -1.5
v 0.5 0 0.5
v 0.5 0 -0.5
v 0.5 1 0.5
v 0.5 1 -0.5
v 1.5 1 0.5
v 1.5 1 -0.5
v 1.5 2 0.5
v 1.5 2 -0.5
v 1.5 3 1.5
v 1.5 3 0.5
v 1.5 3 -0.5
v 1.5 3 -1.5
v 1.5 4 1.5
v 1.5 4 0.5
v 1.5 4 -0.5
v 1.5 4 -1.5
v 1.5 5 0.5
v 1.5 5 -0.5
v 2.5 3 0.5
v 2.5 3 -0.5
v 2.5 4 0.5
v 2.5 4 -0.5
v 3.5 2 1.5
v 3.5 2 -1.5
v 3.5 3 0.5
v 3.5 3 -0.5
v 3.5 4 1.5
v 3.5 4 0.5
v 3.5 4 -0.5
v 3.5 4 -1.5
v 3.5 5 1.5
v 3.5 5 -1.5
v -3.5 3 1.5
v -3.5 5 1.5
v -3.5 6 1.5
v -2.5 0 1.5
v -2.5 1 1.5
v -2.5 4 1.5
v -2.5 5 1.5
v -2.5 6 1.5
v -1.5 0 1.5
v -1.5 1 1.5
v -1.5 4 1.5
v -1.5 5 1.5
v -0.5 3 1.5
v -0.5 5 1.5
v -0.5 6 1.5
v 0.5 2 1.5
v 0.5 4 1.5
v 0.5 5 1.5
v 1.5 3 1.5
v 1.5 4 1.5
v 2.5 3 1.5
v 2.5 4 1.5
v 3.5 2 1.5
v 3.5 4 1.5
v 3.5 5 1.5
v -2.5 1 0.5
v -2.5 3 0.5
v -2.5 4 0.5
v -2.5 5 0.5
v -1.5 0 0.5
v -1.5 1 0.5
v -1.5 2 0.5
v -1.5 3 0.5
v -1.5 4 0.5
v -1.5 5 0.5
v 0.5 0 0.5
v 0.5 1 0.5
v 0.5 2 0.5
v 1.5 1 0.5
v 1.5 2 0.5
v 1.5 3 0.5
v 1.5 4 0.5
v 2.5 3 0.5
v 2.5 4 0.5
v -3.5 4 -0.5
v -3.5 5 -0.5
v -2.5 4 -0.5
v -2.5 5 -0.5
v -2.5 6 -0.5
v -1.5 4 -0.5
v -1.5 5 -0.5
v -1.5 6 -0.5
v -0.5 4 -0.5
v -0.5 5 -0.5
v 0.5 3 -0.5
v 0.5 4 -0.5
v 1.5 3 -0.5
v 1.5 4 -0.5
v 1.5 5 -0.5
v 2.5 3 -0.5
v 2.5 4 -0.5
v 2.5 5 -0.5
v 3.5 3 -0.5
v 3.5 4 -0.5
v -3.5 4 0.5
v -3.5 5 0.5
v -2.5 0 0.5
v -2.5 1 0.5
v -2.5 4 0.5
v -2.5 5 0.5
v -2.5 6 0.5
v -1.5 0 0.5
v -1.5 1 0.5
v -1.5 4 0.5
v -1.5 5 0.5
v -1.5 6 0.5
v -0.5 4 0.5
v -0.5 5 0.5
v 0.5 3 0.5
v 0.5 4 0.5
v 1.5 3 0.5
v 1.5 4 0.5
v 1.5 5 0.5
v 2.5 3 0.5
v 2.5 4 0.5
v 2.5 5 0.5
v 3.5 3 0.5
v 3.5 4 0.5
v -2.5 1 -0.5
v -2.5 3 -0.5
v -2.5 4 -0.5
v -2.5 5 -0.5
v -1.5 1 -0.5
v -1.5 2 -0.5
v -1.5 3 -0.5
v -1.5 4 -0.5
v -1.5 5 -0.5
v -0.5 0 -0.5
v -0.5 1 -0.5
v -0.5 2 -0.5
v 0.5 0 -0.5
v 0.5 1 -0.5
v 0.5 2 -0.5
v 1.5 1 -0.5
v 1.5 2 -0.5
v 1.5 3 -0.5
v 1.5 4 -0.5
v 2.5 3 -0.5
v 2.5 4 -0.5
v -3.5 3 -1.5
v -3.5 5 -1.5
v -3.5 6 -1.5
v -2.5 4 -1.5
v -2.5 5 -1.5
v -1.5 0 -1.5
v -1.5 1 -1.5
v -1.5 2 -1.5
v -1.5 4 -1.5
v -1.5 5 -1.5
v -0.5 0 -1.5
v -0.5 1 -1.5
v -0.5 2 -1.5
v -0.5 3 -1.5
v -0.5 5 -1.5
v -0.5 6 -1.5
v 0.5 2 -1.5
v 0.5 4 -1.5
v 0.5 5 -1.5
v 1.5 3 -1.5
v 1.5 4 -1.5
v 1.5 5 -1.5
v 2.5 3 -1.5
v 2.5 4 -1.5
v 2.5 5 -1.5
v 3.5 2 -1.5
v 3.5 4 -1.5
v 3.5 5 -1.5
v -2.5 0 1.5
v -1.5 0 1.5
v -2.5 0 0.5
v -1.5 0 0.5
v 0.5 0 0.5
v -0.5 0 -0.5
v 0.5 0 -0.5
v -1.5 0 -1.5
v -0.5 0 -1.5
v -2.5 1 0.5
v -1.5 1 0.5
v 0.5 1 0.5
v 1.5 1 0.5
v -2.5 1 -0.5
v -1.5 1 -0.5
v 0.5 1 -0.5
v 1.5 1 -0.5
v 0.5 2 1.5
v 3.5 2 1.5
v 0.5 2 0.5
v 1.5 2 0.5
v 2.5 2 0.5
v 0.5 2 -0.5
v 1.5 2 -0.5
v 2.5 2 -0.5
v 0.5 2 -1.5
v 3.5 2 -1.5
v -3.5 3 1.5
v -0.5 3 1.5
v -2.5 3 0.5
v -1.5 3 0.5
v -2.5 3 -0.5
v -1.5 3 -0.5
v -3.5 3 -1.5
v -0.5 3 -1.5
v 1.5 4 1.5
v 2.5 4 1.5
v 0.5 4 0.5
v 1.5 4 0.5
v 2.5 4 0.5
v 3.5 4 0.5
v 0.5 4 -0.5
v 1.5 4 -0.5
v 2.5 4 -0.5
v 3.5 4 -0.5
v 1.5 4 -1.5
v 2.5 4 -1.5
v -2.5 5 1.5
v -1.5 5 1.5
v -3.5 5 0.5
v -2.5 5 0.5
v -1.5 5 0.5
v -0.5 5 0.5
v -3.5 5 -0.5
v -2.5 5 -0.5
v -1.5 5 -0.5
v -0.5 5 -0.5
v -2.5 5 -1.5
v -1.5 5 -1.5
v -2.5 1 1.5
v -1.5 1 1.5
v -2.5 1 0.5
v -1.5 1 0.5
v -1.5 2 0.5
v 0.5 2 0.5
v -1.5 2 -0.5
v -0.5 2 -0.5
v 0.5 2 -0.5
v -1.5 2 -1.5
v -0.5 2 -1.5
v 1.5 3 1.5
v 2.5 3 1.5
v 0.5 3 0.5
v 1.5 3 0.5
v 2.5 3 0.5
v 3.5 3 0.5
v 0.5 3 -0.5
v 1.5 3 -0.5
v 2.5 3 -0.5
v 3.5 3 -0.5
v 1.5 3 -1.5
v 2.5 3 -1.5
v -2.5 4 1.5
v -1.5 4 1.5
v -3.5 4 0.5
v -2.5 4 0.5
v -1.5 4 0.5
v -0.5 4 0.5
v 1.5 4 0.5
v 2.5 4 0.5
v -3.5 4 -0.5
v -2.5 4 -0.5
v -1.5 4 -0.5
v -0.5 4 -0.5
v 1.5 4 -0.5
v 2.5 4 -0.5
v -2.5 4 -1.5
v -1.5 4 -1.5
v 0.5 5 1.5
v 3.5 5 1.5
v -2.5 5 0.5
v -1.5 5 0.5
v 1.5 5 0.5
v 2.5 5 0.5
v -2.5 5 -0.5
v -1.5 5 -0.5
v 1.5 5 -0.5
v 2.5 5 -0.5
v 0.5 5 -1.5
v 1.5 5 -1.5
v 2.5 5 -1.5
v 3.5 5 -1.5
v -3.5 6 1.5
v -2.5 6 1.5
v -0.5 6 1.5
v -3.5 6 0.5
v -2.5 6 0.5
v -1.5 6 0.5
v -2.5 6 -0.5
v -1.5 6 -0.5
v -3.5 6 -1.5
v -0.5 6 -1.5

# faces
f 3/3/1 2/3/1 1/3/1
f 4/3/1 2/3/1 3/3/1
f 5/3/1 3/3/1 1/3/1
f 6/3/1 3/3/1 5/3/1
f 7/3/1 2/3/1 4/3/1
f 8/3/1 2/3/1 7/3/1
f 9/5/1 6/5/1 5/5/1
f 10/4/1 7/4/1 6/4/1
f 10/5/1 6/5/1 9/5/1
f 10/4/1 8/4/1 7/4/1
f 11/4/1 8/4/1 10/4/1
f 14/1/1 13/1/1 12/1/1
f 15/1/1 13/1/1 14/1/1
f 17/1/1 16/1/1 15/1/1
f 18/1/1 16/1/1 17/1/1
f 21/2/1 20/2/1 19/2/1
f 22/2/1 20/2/1 21/2/1
f 25/1/1 24/1/1 23/1/1
f 26/1/1 24/1/1 25/1/1
f 27/1/1 24/1/1 26/1/1
f 28/3/1 27/3/1 26/3/1
f 29/3/1 27/3/1 28/3/1
f 34/3/1 31/3/1 30/3/1
f 35/3/1 31/3/1 34/3/1
f 36/3/1 33/3/1 32/3/1
f 37/3/1 33/3/1 36/3/1
f 38/4/1 36/4/1 35/4/1
f 39/4/1 36/4/1 38/4/1
f 44/3/1 41/3/1 40/3/1
f 44/1/1 42/1/1 41/1/1
f 45/3/1 43/3/1 42/3/1
f 45/1/1 42/1/1 44/1/1
f 46/3/1 44/3/1 40/3/1
f 47/3/1 44/3/1 46/3/1
f 48/3/1 43/3/1 45/3/1
f 49/3/1 43/3/1 48/3/1
f 50/4/1 47/4/1 46/4/1
f 50/4/1 48/4/1 47/4/1
f 50/4/1 49/4/1 48/4/1
f 51/4/1 49/4/1 50/4/1
f 54/2/1 53/2/1 52/2/1
f 55/2/1 53/2/1 54/2/1
f 60/3/1 57/3/1 56/3/1
f 61/3/1 57/3/1 60/3/1
f 62/3/1 59/3/1 58/3/1
f 63/3/1 59/3/1 62/3/1
f 64/4/1 62/4/1 61/4/1
f 65/4/1 62/4/1 64/4/1
f 66/3/2 67/3/2 70/3/2
f 70/3/2 67/3/2 71/3/2
f 68/3/2 69/3/2 72/3/2
f 72/3/2 69/3/2 73/3/2
f 71/4/2 72/4/2 74/4/2
f 74/4/2 72/4/2 75/4/2
f 76/1/2 77/1/2 78/1/2
f 78/1/2 77/1/2 79/1/2
f 80/1/2 81/1/2 82/1/2
f 82/1/2 81/1/2 83/1/2
f 84/2/2 85/2/2 86/2/2
f 86/2/2 85/2/2 87/2/2
f 88/1/2 89/1/2 90/1/2
f 90/1/2 89/1/2 91/1/2
f 90/3/2 91/3/2 92/3/2
f 92/3/2 91/3/2 93/3/2
f 94/3/2 95/3/2 96/3/2
f 96/3/2 95/3/2 97/3/2
f 94/3/2 96/3/2 98/3/2
f 98/3/2 96/3/2 99/3/2
f 97/3/2 95/3/2 100/3/2
f 100/3/2 95/3/2 101/3/2
f 98/4/2 99/4/2 102/4/2
f 99/4/2 100/4/2 102/4/2
f 100/4/2 101/4/2 102/4/2
f 102/4/2 101/4/2 103/4/2
f 104/1/2 105/1/2 106/1/2
f 106/1/2 105/1/2 107/1/2
f 108/1/2 109/1/2 110/1/2
f 110/1/2 109/1/2 111/1/2
f 112/3/2 113/3/2 116/3/2
f 116/3/2 113/3/2 117/3/2
f 114/3/2 115/3/2 118/3/2
f 118/3/2 115/3/2 119/3/2
f 117/4/2 118/4/2 120/4/2
f 120/4/2 118/4/2 121/4/2
f 122/2/2 123/2/2 124/2/2
f 124/2/2 123/2/2 125/2/2
f 126/3/2 127/3/2 128/3/2
f 128/3/2 127/3/2 129/3/2
f 126/3/2 128/3/2 130/3/2
f 130/3/2 128/3/2 131/3/2
f 129/3/2 127/3/2 132/3/2
f 132/3/2 127/3/2 133/3/2
f 130/4/2 131/4/2 134/4/2
f 131/4/2 132/4/2 134/4/2
f 132/4/2 133/4/2 134/4/2
f 134/4/2 133/4/2 135/4/2
f 141/3/3 137/3/3 136/3/3
f 142/5/3 138/5/3 137/5/3
f 142/3/3 137/3/3 141/3/3
f 143/5/3 138/5/3 142/5/3
f 144/1/3 140/1/3 139/1/3
f 145/1/3 140/1/3 144/1/3
f 146/3/3 141/3/3 136/3/3
f 147/4/3 143/4/3 142/4/3
f 148/3/3 147/3/3 146/3/3
f 148/3/3 146/3/3 136/3/3
f 149/4/3 143/4/3 147/4/3
f 149/3/3 147/3/3 148/3/3
f 150/4/3 143/4/3 149/4/3
f 154/3/3 152/3/3 151/3/3
f 155/4/3 153/4/3 152/4/3
f 155/3/3 152/3/3 154/3/3
f 156/3/3 154/3/3 151/3/3
f 157/4/3 153/4/3 155/4/3
f 158/3/3 156/3/3 151/3/3
f 158/3/3 157/3/3 156/3/3
f 159/4/3 153/4/3 157/4/3
f 159/3/3 157/3/3 158/3/3
f 160/4/3 153/4/3 159/4/3
f 166/1/3 162/1/3 161/1/3
f 167/1/3 162/1/3 166/1/3
f 168/1/3 162/1/3 167/1/3
f 169/2/3 164/2/3 163/2/3
f 170/2/3 164/2/3 169/2/3
f 171/1/3 166/1/3 165/1/3
f 171/1/3 167/1/3 166/1/3
f 172/1/3 167/1/3 171/1/3
f 173/1/3 167/1/3 172/1/3
f 174/1/3 173/1/3 172/1/3
f 175/1/3 173/1/3 174/1/3
f 178/2/3 177/2/3 176/2/3
f 179/2/3 177/2/3 178/2/3
f 182/3/3 181/3/3 180/3/3
f 183/3/3 181/3/3 182/3/3
f 186/4/3 184/4/3 183/4/3
f 187/4/3 184/4/3 186/4/3
f 188/3/3 186/3/3 185/3/3
f 189/3/3 186/3/3 188/3/3
f 192/3/3 191/3/3 190/3/3
f 193/3/3 191/3/3 192/3/3
f 196/5/3 194/5/3 193/5/3
f 197/5/3 194/5/3 196/5/3
f 198/3/3 196/3/3 195/3/3
f 199/3/3 196/3/3 198/3/3
f 200/3/4 201/3/4 204/3/4
f 204/3/4 201/3/4 205/3/4
f 202/1/4 203/1/4 207/1/4
f 207/1/4 203/1/4 208/1/4
f 205/4/4 206/4/4 210/4/4
f 210/4/4 206/4/4 211/4/4
f 209/3/4 210/3/4 212/3/4
f 212/3/4 210/3/4 213/3/4
f 214/3/4 215/3/4 216/3/4
f 216/3/4 215/3/4 217/3/4
f 217/4/4 218/4/4 220/4/4
f 220/4/4 218/4/4 221/4/4
f 219/3/4 220/3/4 222/3/4
f 222/3/4 220/3/4 223/3/4
f 224/1/4 225/1/4 228/1/4
f 228/1/4 225/1/4 229/1/4
f 229/1/4 225/1/4 230/1/4
f 226/2/4 227/2/4 231/2/4
f 231/2/4 227/2/4 232/2/4
f 233/1/4 234/1/4 236/1/4
f 234/1/4 235/1/4 236/1/4
f 236/1/4 235/1/4 237/1/4
f 237/1/4 235/1/4 238/1/4
f 237/1/4 238/1/4 239/1/4
f 239/1/4 238/1/4 240/1/4
f 241/2/4 242/2/4 243/2/4
f 243/2/4 242/2/4 244/2/4
f 245/3/4 246/3/4 248/3/4
f 246/4/4 247/4/4 249/4/4
f 248/3/4 246/3/4 249/3/4
f 245/3/4 248/3/4 253/3/4
f 249/4/4 247/4/4 254/4/4
f 250/1/4 251/1/4 255/1/4
f 251/3/4 252/3/4 256/3/4
f 255/1/4 251/1/4 256/1/4
f 256/3/4 252/3/4 257/3/4
f 245/3/4 253/3/4 258/3/4
f 253/3/4 254/3/4 258/3/4
f 254/4/4 247/4/4 259/4/4
f 258/3/4 254/3/4 259/3/4
f 259/4/4 247/4/4 260/4/4
f 261/3/4 262/3/4 264/3/4
f 262/4/4 263/4/4 265/4/4
f 264/3/4 262/3/4 265/3/4
f 265/4/4 263/4/4 266/4/4
f 261/3/4 264/3/4 267/3/4
f 265/5/4 266/5/4 268/5/4
f 268/5/4 266/5/4 269/5/4
f 261/3/4 267/3/4 270/3/4
f 267/3/4 268/3/4 270/3/4
f 268/4/4 269/4/4 271/4/4
f 270/3/4 268/3/4 271/3/4
f 271/4/4 269/4/4 272/4/4
f 275/1/5 274/1/5 273/1/5
f 276/1/5 274/1/5 275/1/5
f 278/1/5 277/1/5 276/1/5
f 279/1/5 277/1/5 278/1/5
f 280/1/5 278/1/5 276/1/5
f 281/1/5 278/1/5 280/1/5
f 286/1/5 283/1/5 282/1/5
f 287/1/5 283/1/5 286/1/5
f 288/1/5 285/1/5 284/1/5
f 289/1/5 285/1/5 288/1/5
f 292/3/5 291/3/5 290/3/5
f 293/3/5 291/3/5 292/3/5
f 294/3/5 291/3/5 293/3/5
f 296/1/5 294/1/5 293/1/5
f 297/3/5 291/3/5 294/3/5
f 297/1/5 294/1/5 296/1/5
f 298/3/5 296/3/5 295/3/5
f 298/3/5 297/3/5 296/3/5
f 299/3/5 291/3/5 297/3/5
f 299/3/5 297/3/5 298/3/5
f 302/3/5 301/3/5 300/3/5
f 303/3/5 301/3/5 302/3/5
f 304/3/5 302/3/5 300/3/5
f 305/3/5 301/3/5 303/3/5
f 306/3/5 304/3/5 300/3/5
f 306/3/5 305/3/5 304/3/5
f 307/3/5 301/3/5 305/3/5
f 307/3/5 305/3/5 306/3/5
f 311/4/5 309/4/5 308/4/5
f 312/4/5 309/4/5 311/4/5
f 314/4/5 311/4/5 310/4/5
f 315/4/5 311/4/5 314/4/5
f 316/4/5 313/4/5 312/4/5
f 317/4/5 313/4/5 316/4/5
f 318/5/5 316/5/5 315/5/5
f 319/5/5 316/5/5 318/5/5
f 323/4/5 321/4/5 320/4/5
f 324/4/5 321/4/5 323/4/5
f 326/4/5 323/4/5 322/4/5
f 327/4/5 323/4/5 326/4/5
f 328/4/5 325/4/5 324/4/5
f 329/4/5 325/4/5 328/4/5
f 330/4/5 328/4/5 327/4/5
f 331/4/5 328/4/5 330/4/5
f 332/1/6 333/1/6 334/1/6
f 334/1/6 333/1/6 335/1/6
f 336/1/6 337/1/6 338/1/6
f 338/1/6 337/1/6 339/1/6
f 339/1/6 337/1/6 340/1/6
f 338/3/6 339/3/6 341/3/6
f 341/3/6 339/3/6 342/3/6
f 343/3/6 344/3/6 346/3/6
f 346/3/6 344/3/6 347/3/6
f 345/1/6 346/1/6 349/1/6
f 349/1/6 346/1/6 350/1/6
f 347/3/6 348/3/6 351/3/6
f 351/3/6 348/3/6 352/3/6
f 350/3/6 351/3/6 353/3/6
f 353/3/6 351/3/6 354/3/6
f 355/3/6 356/3/6 358/3/6
f 358/3/6 356/3/6 359/3/6
f 357/3/6 358/3/6 363/3/6
f 363/3/6 358/3/6 364/3/6
f 359/3/6 360/3/6 365/3/6
f 365/3/6 360/3/6 366/3/6
f 361/2/6 362/2/6 367/2/6
f 367/2/6 362/2/6 368/2/6
f 364/3/6 365/3/6 369/3/6
f 369/3/6 365/3/6 370/3/6
f 371/4/6 372/4/6 375/4/6
f 375/4/6 372/4/6 376/4/6
f 373/2/6 374/2/6 377/2/6
f 377/2/6 374/2/6 378/2/6
f 371/4/6 375/4/6 379/4/6
f 376/4/6 372/4/6 380/4/6
f 371/4/6 379/4/6 381/4/6
f 379/5/6 380/5/6 382/5/6
f 381/4/6 379/4/6 382/4/6
f 380/4/6 372/4/6 383/4/6
f 382/5/6 380/5/6 383/5/6
f 383/4/6 372/4/6 384/4/6
f 385/5/6 386/5/6 388/5/6
f 386/4/6 387/4/6 389/4/6
f 388/5/6 386/5/6 389/5/6
f 389/4/6 387/4/6 390/4/6
f 388/4/6 389/4/6 391/4/6
f 390/4/6 387/4/6 392/4/6
f 388/4/6 391/4/6 393/4/6
f 391/4/6 392/4/6 393/4/6
f 392/4/6 387/4/6 394/4/6
f 393/4/6 392/4/6 394/4/6
