# MagicaVoxel @ Ephtracy

# material
mtllib Tree_type4_02.mtl
usemtl palette

# normals
vn -1 0 0
vn 1 0 0
vn 0 0 1
vn 0 0 -1
vn 0 -1 0
vn 0 1 0

# texcoords
vt 0.279297 0.5
vt 0.556641 0.5
vt 0.560547 0.5

# verts
v -3 3 3
v -3 3 -3
v -3 5 3
v -3 5 -3
v -3 7 3
v -3 7 -3
v -3 9 3
v -3 9 -3
v -3 11 3
v -3 11 -3
v -3 13 3
v -3 13 -3
v -3 15 3
v -3 15 -3
v -1 0 1
v -1 0 -1
v -1 3 1
v -1 3 -1
v 1 0 1
v 1 0 -1
v 1 3 1
v 1 3 -1
v 3 3 3
v 3 3 -3
v 3 5 3
v 3 5 -3
v 3 7 3
v 3 7 -3
v 3 9 3
v 3 9 -3
v 3 11 3
v 3 11 -3
v 3 13 3
v 3 13 -3
v 3 15 3
v 3 15 -3
v -3 3 3
v -3 5 3
v -3 7 3
v -3 9 3
v -3 11 3
v -3 13 3
v -3 15 3
v 3 3 3
v 3 5 3
v 3 7 3
v 3 9 3
v 3 11 3
v 3 13 3
v 3 15 3
v -1 0 1
v -1 3 1
v 1 0 1
v 1 3 1
v -1 0 -1
v -1 3 -1
v 1 0 -1
v 1 3 -1
v -3 3 -3
v -3 5 -3
v -3 7 -3
v -3 9 -3
v -3 11 -3
v -3 13 -3
v -3 15 -3
v 3 3 -3
v 3 5 -3
v 3 7 -3
v 3 9 -3
v 3 11 -3
v 3 13 -3
v 3 15 -3
v -1 0 1
v 1 0 1
v -1 0 -1
v 1 0 -1
v -3 3 3
v 3 3 3
v -1 3 1
v 1 3 1
v -1 3 -1
v 1 3 -1
v -3 3 -3
v 3 3 -3
v -3 15 3
v 3 15 3
v -3 15 -3
v 3 15 -3

# faces
f 3/2/1 2/2/1 1/2/1
f 4/2/1 2/2/1 3/2/1
f 5/3/1 4/3/1 3/3/1
f 6/3/1 4/3/1 5/3/1
f 7/2/1 6/2/1 5/2/1
f 8/2/1 6/2/1 7/2/1
f 9/3/1 8/3/1 7/3/1
f 10/3/1 8/3/1 9/3/1
f 11/2/1 10/2/1 9/2/1
f 12/2/1 10/2/1 11/2/1
f 13/3/1 12/3/1 11/3/1
f 14/3/1 12/3/1 13/3/1
f 17/1/1 16/1/1 15/1/1
f 18/1/1 16/1/1 17/1/1
f 19/1/2 20/1/2 21/1/2
f 21/1/2 20/1/2 22/1/2
f 23/2/2 24/2/2 25/2/2
f 25/2/2 24/2/2 26/2/2
f 25/3/2 26/3/2 27/3/2
f 27/3/2 26/3/2 28/3/2
f 27/2/2 28/2/2 29/2/2
f 29/2/2 28/2/2 30/2/2
f 29/3/2 30/3/2 31/3/2
f 31/3/2 30/3/2 32/3/2
f 31/2/2 32/2/2 33/2/2
f 33/2/2 32/2/2 34/2/2
f 33/3/2 34/3/2 35/3/2
f 35/3/2 34/3/2 36/3/2
f 44/2/3 38/2/3 37/2/3
f 45/3/3 39/3/3 38/3/3
f 45/2/3 38/2/3 44/2/3
f 46/2/3 40/2/3 39/2/3
f 46/3/3 39/3/3 45/3/3
f 47/3/3 41/3/3 40/3/3
f 47/2/3 40/2/3 46/2/3
f 48/2/3 42/2/3 41/2/3
f 48/3/3 41/3/3 47/3/3
f 49/3/3 43/3/3 42/3/3
f 49/2/3 42/2/3 48/2/3
f 50/3/3 43/3/3 49/3/3
f 53/1/3 52/1/3 51/1/3
f 54/1/3 52/1/3 53/1/3
f 55/1/4 56/1/4 57/1/4
f 57/1/4 56/1/4 58/1/4
f 59/2/4 60/2/4 66/2/4
f 60/3/4 61/3/4 67/3/4
f 66/2/4 60/2/4 67/2/4
f 61/2/4 62/2/4 68/2/4
f 67/3/4 61/3/4 68/3/4
f 62/3/4 63/3/4 69/3/4
f 68/2/4 62/2/4 69/2/4
f 63/2/4 64/2/4 70/2/4
f 69/3/4 63/3/4 70/3/4
f 64/3/4 65/3/4 71/3/4
f 70/2/4 64/2/4 71/2/4
f 71/3/4 65/3/4 72/3/4
f 75/1/5 74/1/5 73/1/5
f 76/1/5 74/1/5 75/1/5
f 79/2/5 78/2/5 77/2/5
f 80/2/5 78/2/5 79/2/5
f 81/2/5 79/2/5 77/2/5
f 82/2/5 78/2/5 80/2/5
f 83/2/5 81/2/5 77/2/5
f 83/2/5 82/2/5 81/2/5
f 84/2/5 78/2/5 82/2/5
f 84/2/5 82/2/5 83/2/5
f 85/3/6 86/3/6 87/3/6
f 87/3/6 86/3/6 88/3/6
