# MagicaVoxel @ Ephtracy

# material
mtllib Tree_type2_01.mtl
usemtl palette

# normals
vn -1 0 0
vn 1 0 0
vn 0 0 1
vn 0 0 -1
vn 0 -1 0
vn 0 1 0

# texcoords
vt 0.279297 0.5
vt 0.513672 0.5

# verts
v -5.5 5 1.5
v -5.5 5 -1.5
v -5.5 6 1.5
v -5.5 6 -1.5
v -4.5 4 1.5
v -4.5 4 -1.5
v -4.5 5 2.5
v -4.5 5 1.5
v -4.5 5 -1.5
v -4.5 5 -2.5
v -4.5 6 2.5
v -4.5 6 1.5
v -4.5 6 -1.5
v -4.5 6 -2.5
v -4.5 7 1.5
v -4.5 7 -1.5
v -3.5 3 0.5
v -3.5 3 -0.5
v -3.5 4 0.5
v -3.5 4 -0.5
v -3.5 7 0.5
v -3.5 7 -0.5
v -3.5 8 0.5
v -3.5 8 -0.5
v -2.5 2 0.5
v -2.5 2 -0.5
v -2.5 3 0.5
v -2.5 3 -0.5
v -2.5 5 3.5
v -2.5 5 2.5
v -2.5 5 -2.5
v -2.5 5 -3.5
v -2.5 6 3.5
v -2.5 6 2.5
v -2.5 6 -2.5
v -2.5 6 -3.5
v -2.5 7 -0.5
v -2.5 7 -1.5
v -2.5 7 -3.5
v -2.5 8 -0.5
v -2.5 8 -3.5
v -1.5 0 -0.5
v -1.5 0 -1.5
v -1.5 1 -0.5
v -1.5 1 -1.5
v -1.5 4 2.5
v -1.5 4 1.5
v -1.5 4 -1.5
v -1.5 4 -3.5
v -1.5 5 4.5
v -1.5 5 3.5
v -1.5 5 2.5
v -1.5 5 1.5
v -1.5 5 -1.5
v -1.5 5 -3.5
v -1.5 5 -4.5
v -1.5 6 4.5
v -1.5 6 3.5
v -1.5 6 1.5
v -1.5 6 -1.5
v -1.5 6 -3.5
v -1.5 6 -4.5
v -1.5 7 3.5
v -1.5 7 1.5
v -1.5 7 0.5
v -1.5 7 -0.5
v -1.5 7 -1.5
v -1.5 7 -3.5
v -1.5 7 -4.5
v -1.5 8 0.5
v -1.5 8 -0.5
v -1.5 8 -3.5
v -1.5 8 -4.5
v -1.5 9 -0.5
v -1.5 9 -3.5
v -0.5 0 0.5
v -0.5 0 -0.5
v -0.5 1 -0.5
v -0.5 1 -1.5
v -0.5 2 0.5
v -0.5 2 -0.5
v -0.5 2 -1.5
v -0.5 2 -2.5
v -0.5 3 0.5
v -0.5 3 -0.5
v -0.5 3 -1.5
v -0.5 4 0.5
v -0.5 4 -0.5
v -0.5 4 -1.5
v -0.5 4 -2.5
v -0.5 7 2.5
v -0.5 7 1.5
v -0.5 8 2.5
v -0.5 8 1.5
v -0.5 9 -1.5
v -0.5 9 -2.5
v -0.5 10 -1.5
v -0.5 10 -2.5
v 0.5 0 -1.5
v 0.5 0 -2.5
v 0.5 1 -1.5
v 0.5 1 -2.5
v 0.5 4 0.5
v 0.5 4 -0.5
v 0.5 5 0.5
v 0.5 5 -0.5
v 0.5 6 0.5
v 0.5 6 -0.5
v 0.5 7 0.5
v 0.5 7 -0.5
v 1.5 3 0.5
v 1.5 3 -0.5
v 1.5 4 0.5
v 1.5 4 -0.5
v 1.5 7 1.5
v 1.5 7 0.5
v 1.5 8 1.5
v 1.5 8 0.5
v 2.5 8 0.5
v 2.5 8 -0.5
v 2.5 9 0.5
v 2.5 9 -0.5
v -2.5 7 0.5
v -2.5 7 -0.5
v -2.5 8 0.5
v -2.5 8 -0.5
v -1.5 3 0.5
v -1.5 3 -0.5
v -1.5 4 0.5
v -1.5 4 -0.5
v -1.5 6 0.5
v -1.5 6 -0.5
v -1.5 7 0.5
v -1.5 7 -0.5
v -0.5 4 0.5
v -0.5 4 -0.5
v -0.5 5 0.5
v -0.5 5 -0.5
v 0.5 1 -0.5
v 0.5 1 -1.5
v 0.5 2 -1.5
v 0.5 2 -2.5
v 0.5 3 0.5
v 0.5 3 -0.5
v 0.5 3 -1.5
v 0.5 4 0.5
v 0.5 4 -0.5
v 0.5 4 -1.5
v 0.5 4 -2.5
v 0.5 7 2.5
v 0.5 7 1.5
v 0.5 8 2.5
v 0.5 8 1.5
v 0.5 9 -1.5
v 0.5 9 -2.5
v 0.5 10 -1.5
v 0.5 10 -2.5
v 1.5 0 0.5
v 1.5 0 -2.5
v 1.5 1 -0.5
v 1.5 1 -2.5
v 1.5 2 0.5
v 1.5 2 -0.5
v 1.5 4 2.5
v 1.5 4 1.5
v 1.5 4 -1.5
v 1.5 4 -3.5
v 1.5 5 4.5
v 1.5 5 3.5
v 1.5 5 2.5
v 1.5 5 1.5
v 1.5 5 -1.5
v 1.5 5 -3.5
v 1.5 5 -4.5
v 1.5 6 4.5
v 1.5 6 3.5
v 1.5 6 2.5
v 1.5 6 -3.5
v 1.5 6 -4.5
v 1.5 7 3.5
v 1.5 7 2.5
v 1.5 7 -3.5
v 1.5 7 -4.5
v 1.5 8 -0.5
v 1.5 8 -3.5
v 1.5 8 -4.5
v 1.5 9 -0.5
v 1.5 9 -3.5
v 2.5 2 0.5
v 2.5 2 -0.5
v 2.5 3 0.5
v 2.5 3 -0.5
v 2.5 5 3.5
v 2.5 5 2.5
v 2.5 5 -2.5
v 2.5 5 -3.5
v 2.5 6 3.5
v 2.5 6 2.5
v 2.5 6 -2.5
v 2.5 6 -3.5
v 2.5 7 -1.5
v 2.5 7 -3.5
v 2.5 8 -1.5
v 2.5 8 -3.5
v 3.5 3 0.5
v 3.5 3 -0.5
v 3.5 4 1.5
v 3.5 4 0.5
v 3.5 4 -0.5
v 3.5 4 -1.5
v 3.5 5 1.5
v 3.5 5 -1.5
v 3.5 8 0.5
v 3.5 8 -0.5
v 3.5 9 0.5
v 3.5 9 -0.5
v 4.5 5 2.5
v 4.5 5 1.5
v 4.5 5 -1.5
v 4.5 5 -2.5
v 4.5 6 1.5
v 4.5 6 0.5
v 4.5 6 -1.5
v 4.5 6 -2.5
v 4.5 6 -3.5
v 4.5 7 2.5
v 4.5 7 1.5
v 4.5 7 0.5
v 4.5 7 -1.5
v 4.5 7 -2.5
v 4.5 7 -3.5
v 4.5 8 1.5
v 4.5 8 -1.5
v 5.5 5 1.5
v 5.5 5 -1.5
v 5.5 6 1.5
v 5.5 6 0.5
v 5.5 6 -1.5
v 5.5 6 -2.5
v 5.5 7 0.5
v 5.5 7 -2.5
v -1.5 5 4.5
v -1.5 6 4.5
v 1.5 5 4.5
v 1.5 6 4.5
v -2.5 5 3.5
v -2.5 6 3.5
v -1.5 5 3.5
v -1.5 6 3.5
v -1.5 7 3.5
v 1.5 5 3.5
v 1.5 6 3.5
v 1.5 7 3.5
v 2.5 5 3.5
v 2.5 6 3.5
v -4.5 5 2.5
v -4.5 6 2.5
v -2.5 5 2.5
v -2.5 6 2.5
v -1.5 4 2.5
v -1.5 5 2.5
v -0.5 7 2.5
v -0.5 8 2.5
v 0.5 7 2.5
v 0.5 8 2.5
v 1.5 4 2.5
v 1.5 5 2.5
v 1.5 6 2.5
v 1.5 7 2.5
v 2.5 5 2.5
v 2.5 6 2.5
v 4.5 5 2.5
v 4.5 7 2.5
v -5.5 5 1.5
v -5.5 6 1.5
v -4.5 4 1.5
v -4.5 5 1.5
v -4.5 6 1.5
v -4.5 7 1.5
v -1.5 4 1.5
v -1.5 5 1.5
v -1.5 6 1.5
v -1.5 7 1.5
v 1.5 4 1.5
v 1.5 5 1.5
v 1.5 7 1.5
v 1.5 8 1.5
v 3.5 4 1.5
v 3.5 5 1.5
v 4.5 5 1.5
v 4.5 6 1.5
v 4.5 7 1.5
v 4.5 8 1.5
v 5.5 5 1.5
v 5.5 6 1.5
v -3.5 3 0.5
v -3.5 4 0.5
v -3.5 7 0.5
v -3.5 8 0.5
v -2.5 2 0.5
v -2.5 3 0.5
v -2.5 7 0.5
v -2.5 8 0.5
v -1.5 3 0.5
v -1.5 4 0.5
v -1.5 7 0.5
v -1.5 8 0.5
v -0.5 0 0.5
v -0.5 2 0.5
v -0.5 3 0.5
v -0.5 4 0.5
v 0.5 3 0.5
v 0.5 4 0.5
v 1.5 0 0.5
v 1.5 2 0.5
v 1.5 3 0.5
v 1.5 4 0.5
v 1.5 7 0.5
v 1.5 8 0.5
v 2.5 2 0.5
v 2.5 3 0.5
v 2.5 8 0.5
v 2.5 9 0.5
v 3.5 3 0.5
v 3.5 4 0.5
v 3.5 8 0.5
v 3.5 9 0.5
v 4.5 6 0.5
v 4.5 7 0.5
v 5.5 6 0.5
v 5.5 7 0.5
v -2.5 7 -0.5
v -2.5 8 -0.5
v -1.5 0 -0.5
v -1.5 1 -0.5
v -1.5 6 -0.5
v -1.5 7 -0.5
v -1.5 8 -0.5
v -1.5 9 -0.5
v -0.5 0 -0.5
v -0.5 1 -0.5
v -0.5 4 -0.5
v -0.5 5 -0.5
v 0.5 4 -0.5
v 0.5 5 -0.5
v 0.5 6 -0.5
v 0.5 7 -0.5
v 1.5 8 -0.5
v 1.5 9 -0.5
v -0.5 3 -1.5
v -0.5 4 -1.5
v -0.5 9 -1.5
v -0.5 10 -1.5
v 0.5 3 -1.5
v 0.5 4 -1.5
v 0.5 9 -1.5
v 0.5 10 -1.5
v -0.5 7 1.5
v -0.5 8 1.5
v 0.5 7 1.5
v 0.5 8 1.5
v -1.5 6 0.5
v -1.5 7 0.5
v -0.5 4 0.5
v -0.5 5 0.5
v 0.5 4 0.5
v 0.5 5 0.5
v 0.5 6 0.5
v 0.5 7 0.5
v -3.5 3 -0.5
v -3.5 4 -0.5
v -3.5 7 -0.5
v -3.5 8 -0.5
v -2.5 2 -0.5
v -2.5 3 -0.5
v -2.5 7 -0.5
v -2.5 8 -0.5
v -1.5 3 -0.5
v -1.5 4 -0.5
v -0.5 2 -0.5
v -0.5 3 -0.5
v -0.5 4 -0.5
v 0.5 1 -0.5
v 0.5 3 -0.5
v 0.5 4 -0.5
v 1.5 1 -0.5
v 1.5 2 -0.5
v 1.5 3 -0.5
v 1.5 4 -0.5
v 2.5 2 -0.5
v 2.5 3 -0.5
v 2.5 8 -0.5
v 2.5 9 -0.5
v 3.5 3 -0.5
v 3.5 4 -0.5
v 3.5 8 -0.5
v 3.5 9 -0.5
v -5.5 5 -1.5
v -5.5 6 -1.5
v -4.5 4 -1.5
v -4.5 5 -1.5
v -4.5 6 -1.5
v -4.5 7 -1.5
v -2.5 7 -1.5
v -1.5 0 -1.5
v -1.5 1 -1.5
v -1.5 4 -1.5
v -1.5 5 -1.5
v -1.5 6 -1.5
v -1.5 7 -1.5
v -0.5 1 -1.5
v -0.5 2 -1.5
v 0.5 0 -1.5
v 0.5 1 -1.5
v 0.5 2 -1.5
v 1.5 4 -1.5
v 1.5 5 -1.5
v 2.5 7 -1.5
v 2.5 8 -1.5
v 3.5 4 -1.5
v 3.5 5 -1.5
v 4.5 5 -1.5
v 4.5 6 -1.5
v 4.5 7 -1.5
v 4.5 8 -1.5
v 5.5 5 -1.5
v 5.5 6 -1.5
v -4.5 5 -2.5
v -4.5 6 -2.5
v -2.5 5 -2.5
v -2.5 6 -2.5
v -0.5 2 -2.5
v -0.5 4 -2.5
v -0.5 9 -2.5
v -0.5 10 -2.5
v 0.5 0 -2.5
v 0.5 1 -2.5
v 0.5 2 -2.5
v 0.5 4 -2.5
v 0.5 9 -2.5
v 0.5 10 -2.5
v 1.5 0 -2.5
v 1.5 1 -2.5
v 2.5 5 -2.5
v 2.5 6 -2.5
v 4.5 5 -2.5
v 4.5 6 -2.5
v 4.5 7 -2.5
v 5.5 6 -2.5
v 5.5 7 -2.5
v -2.5 5 -3.5
v -2.5 6 -3.5
v -2.5 7 -3.5
v -2.5 8 -3.5
v -1.5 4 -3.5
v -1.5 5 -3.5
v -1.5 6 -3.5
v -1.5 7 -3.5
v -1.5 8 -3.5
v -1.5 9 -3.5
v 1.5 4 -3.5
v 1.5 5 -3.5
v 1.5 6 -3.5
v 1.5 7 -3.5
v 1.5 8 -3.5
v 1.5 9 -3.5
v 2.5 5 -3.5
v 2.5 6 -3.5
v 2.5 7 -3.5
v 2.5 8 -3.5
v 4.5 6 -3.5
v 4.5 7 -3.5
v -1.5 5 -4.5
v -1.5 6 -4.5
v -1.5 7 -4.5
v -1.5 8 -4.5
v 1.5 5 -4.5
v 1.5 6 -4.5
v 1.5 7 -4.5
v 1.5 8 -4.5
v -0.5 0 0.5
v 1.5 0 0.5
v -1.5 0 -0.5
v -0.5 0 -0.5
v -1.5 0 -1.5
v 0.5 0 -1.5
v 0.5 0 -2.5
v 1.5 0 -2.5
v -2.5 2 0.5
v -0.5 2 0.5
v 1.5 2 0.5
v 2.5 2 0.5
v -2.5 2 -0.5
v -0.5 2 -0.5
v 1.5 2 -0.5
v 2.5 2 -0.5
v -0.5 2 -1.5
v 0.5 2 -1.5
v -0.5 2 -2.5
v 0.5 2 -2.5
v -3.5 3 0.5
v -2.5 3 0.5
v 2.5 3 0.5
v 3.5 3 0.5
v -3.5 3 -0.5
v -2.5 3 -0.5
v 2.5 3 -0.5
v 3.5 3 -0.5
v -1.5 4 2.5
v 1.5 4 2.5
v -4.5 4 1.5
v -1.5 4 1.5
v 1.5 4 1.5
v 3.5 4 1.5
v -3.5 4 0.5
v -1.5 4 0.5
v -0.5 4 0.5
v 0.5 4 0.5
v 1.5 4 0.5
v 3.5 4 0.5
v -3.5 4 -0.5
v -1.5 4 -0.5
v -0.5 4 -0.5
v 0.5 4 -0.5
v 1.5 4 -0.5
v 3.5 4 -0.5
v -4.5 4 -1.5
v -1.5 4 -1.5
v -0.5 4 -1.5
v 0.5 4 -1.5
v 1.5 4 -1.5
v 3.5 4 -1.5
v -0.5 4 -2.5
v 0.5 4 -2.5
v -1.5 4 -3.5
v 1.5 4 -3.5
v -1.5 5 4.5
v 1.5 5 4.5
v -2.5 5 3.5
v -1.5 5 3.5
v 1.5 5 3.5
v 2.5 5 3.5
v -4.5 5 2.5
v -2.5 5 2.5
v -1.5 5 2.5
v 1.5 5 2.5
v 2.5 5 2.5
v 4.5 5 2.5
v -5.5 5 1.5
v -4.5 5 1.5
v -1.5 5 1.5
v 1.5 5 1.5
v 3.5 5 1.5
v 4.5 5 1.5
v 5.5 5 1.5
v -0.5 5 0.5
v 0.5 5 0.5
v -0.5 5 -0.5
v 0.5 5 -0.5
v -5.5 5 -1.5
v -4.5 5 -1.5
v -1.5 5 -1.5
v 1.5 5 -1.5
v 3.5 5 -1.5
v 4.5 5 -1.5
v 5.5 5 -1.5
v -4.5 5 -2.5
v -2.5 5 -2.5
v 2.5 5 -2.5
v 4.5 5 -2.5
v -2.5 5 -3.5
v -1.5 5 -3.5
v 1.5 5 -3.5
v 2.5 5 -3.5
v -1.5 5 -4.5
v 1.5 5 -4.5
v 4.5 6 -1.5
v 5.5 6 -1.5
v 2.5 6 -2.5
v 4.5 6 -2.5
v 5.5 6 -2.5
v 2.5 6 -3.5
v 4.5 6 -3.5
v -1.5 7 0.5
v 0.5 7 0.5
v -1.5 7 -0.5
v 0.5 7 -0.5
v -2.5 7 -1.5
v -1.5 7 -1.5
v -2.5 7 -3.5
v -1.5 7 -3.5
v 1.5 7 -3.5
v -1.5 7 -4.5
v 1.5 7 -4.5
v -1.5 1 -0.5
v -0.5 1 -0.5
v 0.5 1 -0.5
v 1.5 1 -0.5
v -1.5 1 -1.5
v -0.5 1 -1.5
v 0.5 1 -1.5
v 0.5 1 -2.5
v 1.5 1 -2.5
v -1.5 3 0.5
v -0.5 3 0.5
v 0.5 3 0.5
v 1.5 3 0.5
v -1.5 3 -0.5
v -0.5 3 -0.5
v 0.5 3 -0.5
v 1.5 3 -0.5
v -0.5 3 -1.5
v 0.5 3 -1.5
v -0.5 4 0.5
v 0.5 4 0.5
v -0.5 4 -0.5
v 0.5 4 -0.5
v -1.5 6 4.5
v 1.5 6 4.5
v -2.5 6 3.5
v -1.5 6 3.5
v 1.5 6 3.5
v 2.5 6 3.5
v -4.5 6 2.5
v -2.5 6 2.5
v 1.5 6 2.5
v 2.5 6 2.5
v -5.5 6 1.5
v -4.5 6 1.5
v -1.5 6 1.5
v 4.5 6 1.5
v 5.5 6 1.5
v -1.5 6 0.5
v 0.5 6 0.5
v 4.5 6 0.5
v 5.5 6 0.5
v -1.5 6 -0.5
v 0.5 6 -0.5
v -5.5 6 -1.5
v -4.5 6 -1.5
v -1.5 6 -1.5
v -4.5 6 -2.5
v -2.5 6 -2.5
v -2.5 6 -3.5
v -1.5 6 -3.5
v 1.5 6 -3.5
v -1.5 6 -4.5
v 1.5 6 -4.5
v -1.5 7 3.5
v 1.5 7 3.5
v -0.5 7 2.5
v 0.5 7 2.5
v 1.5 7 2.5
v 4.5 7 2.5
v -4.5 7 1.5
v -1.5 7 1.5
v -0.5 7 1.5
v 0.5 7 1.5
v 1.5 7 1.5
v 4.5 7 1.5
v -3.5 7 0.5
v -2.5 7 0.5
v -1.5 7 0.5
v 1.5 7 0.5
v 4.5 7 0.5
v 5.5 7 0.5
v -3.5 7 -0.5
v -2.5 7 -0.5
v -1.5 7 -0.5
v -4.5 7 -1.5
v -2.5 7 -1.5
v 2.5 7 -1.5
v 4.5 7 -1.5
v 4.5 7 -2.5
v 5.5 7 -2.5
v 2.5 7 -3.5
v 4.5 7 -3.5
v -0.5 8 2.5
v 0.5 8 2.5
v -0.5 8 1.5
v 0.5 8 1.5
v 1.5 8 1.5
v 4.5 8 1.5
v -3.5 8 0.5
v -2.5 8 0.5
v -1.5 8 0.5
v 1.5 8 0.5
v 2.5 8 0.5
v 3.5 8 0.5
v -3.5 8 -0.5
v -2.5 8 -0.5
v -1.5 8 -0.5
v 1.5 8 -0.5
v 2.5 8 -0.5
v 3.5 8 -0.5
v 2.5 8 -1.5
v 4.5 8 -1.5
v -2.5 8 -3.5
v -1.5 8 -3.5
v 1.5 8 -3.5
v 2.5 8 -3.5
v -1.5 8 -4.5
v 1.5 8 -4.5
v 2.5 9 0.5
v 3.5 9 0.5
v -1.5 9 -0.5
v 1.5 9 -0.5
v 2.5 9 -0.5
v 3.5 9 -0.5
v -0.5 9 -1.5
v 0.5 9 -1.5
v -0.5 9 -2.5
v 0.5 9 -2.5
v -1.5 9 -3.5
v 1.5 9 -3.5
v -0.5 10 -1.5
v 0.5 10 -1.5
v -0.5 10 -2.5
v 0.5 10 -2.5

# faces
f 3/2/1 2/2/1 1/2/1
f 4/2/1 2/2/1 3/2/1
f 8/2/1 6/2/1 5/2/1
f 9/2/1 6/2/1 8/2/1
f 11/2/1 8/2/1 7/2/1
f 12/2/1 8/2/1 11/2/1
f 13/2/1 10/2/1 9/2/1
f 14/2/1 10/2/1 13/2/1
f 15/2/1 13/2/1 12/2/1
f 16/2/1 13/2/1 15/2/1
f 19/1/1 18/1/1 17/1/1
f 20/1/1 18/1/1 19/1/1
f 23/2/1 22/2/1 21/2/1
f 24/2/1 22/2/1 23/2/1
f 27/1/1 26/1/1 25/1/1
f 28/1/1 26/1/1 27/1/1
f 33/2/1 30/2/1 29/2/1
f 34/2/1 30/2/1 33/2/1
f 35/2/1 32/2/1 31/2/1
f 36/2/1 32/2/1 35/2/1
f 40/2/1 38/2/1 37/2/1
f 40/2/1 39/2/1 38/2/1
f 41/2/1 39/2/1 40/2/1
f 44/1/1 43/1/1 42/1/1
f 45/1/1 43/1/1 44/1/1
f 52/2/1 47/2/1 46/2/1
f 53/2/1 47/2/1 52/2/1
f 54/2/1 49/2/1 48/2/1
f 55/2/1 49/2/1 54/2/1
f 57/2/1 51/2/1 50/2/1
f 58/2/1 51/2/1 57/2/1
f 61/2/1 56/2/1 55/2/1
f 62/2/1 56/2/1 61/2/1
f 63/2/1 59/2/1 58/2/1
f 64/2/1 59/2/1 63/2/1
f 67/2/1 61/2/1 60/2/1
f 68/2/1 61/2/1 67/2/1
f 70/2/1 66/2/1 65/2/1
f 71/2/1 66/2/1 70/2/1
f 72/2/1 69/2/1 68/2/1
f 73/2/1 69/2/1 72/2/1
f 74/2/1 72/2/1 71/2/1
f 75/2/1 72/2/1 74/2/1
f 78/1/1 77/1/1 76/1/1
f 80/1/1 78/1/1 76/1/1
f 80/1/1 79/1/1 78/1/1
f 81/1/1 79/1/1 80/1/1
f 82/1/1 79/1/1 81/1/1
f 85/1/1 83/1/1 82/1/1
f 85/1/1 82/1/1 81/1/1
f 86/1/1 83/1/1 85/1/1
f 87/1/1 85/1/1 84/1/1
f 88/1/1 85/1/1 87/1/1
f 89/1/1 83/1/1 86/1/1
f 90/1/1 83/1/1 89/1/1
f 93/2/1 92/2/1 91/2/1
f 94/2/1 92/2/1 93/2/1
f 97/2/1 96/2/1 95/2/1
f 98/2/1 96/2/1 97/2/1
f 101/1/1 100/1/1 99/1/1
f 102/1/1 100/1/1 101/1/1
f 105/2/1 104/2/1 103/2/1
f 106/2/1 104/2/1 105/2/1
f 109/2/1 108/2/1 107/2/1
f 110/2/1 108/2/1 109/2/1
f 113/1/1 112/1/1 111/1/1
f 114/1/1 112/1/1 113/1/1
f 117/2/1 116/2/1 115/2/1
f 118/2/1 116/2/1 117/2/1
f 121/2/1 120/2/1 119/2/1
f 122/2/1 120/2/1 121/2/1
f 123/2/2 124/2/2 125/2/2
f 125/2/2 124/2/2 126/2/2
f 127/1/2 128/1/2 129/1/2
f 129/1/2 128/1/2 130/1/2
f 131/2/2 132/2/2 133/2/2
f 133/2/2 132/2/2 134/2/2
f 135/2/2 136/2/2 137/2/2
f 137/2/2 136/2/2 138/2/2
f 139/1/2 140/1/2 141/1/2
f 139/1/2 141/1/2 144/1/2
f 141/1/2 142/1/2 144/1/2
f 144/1/2 142/1/2 145/1/2
f 143/1/2 144/1/2 146/1/2
f 146/1/2 144/1/2 147/1/2
f 145/1/2 142/1/2 148/1/2
f 148/1/2 142/1/2 149/1/2
f 150/2/2 151/2/2 152/2/2
f 152/2/2 151/2/2 153/2/2
f 154/2/2 155/2/2 156/2/2
f 156/2/2 155/2/2 157/2/2
f 158/1/2 159/1/2 160/1/2
f 160/1/2 159/1/2 161/1/2
f 158/1/2 160/1/2 162/1/2
f 162/1/2 160/1/2 163/1/2
f 164/2/2 165/2/2 170/2/2
f 170/2/2 165/2/2 171/2/2
f 166/2/2 167/2/2 172/2/2
f 172/2/2 167/2/2 173/2/2
f 168/2/2 169/2/2 175/2/2
f 175/2/2 169/2/2 176/2/2
f 173/2/2 174/2/2 178/2/2
f 178/2/2 174/2/2 179/2/2
f 176/2/2 177/2/2 180/2/2
f 180/2/2 177/2/2 181/2/2
f 182/2/2 183/2/2 185/2/2
f 185/2/2 183/2/2 186/2/2
f 184/2/2 185/2/2 187/2/2
f 187/2/2 185/2/2 188/2/2
f 189/1/2 190/1/2 191/1/2
f 191/1/2 190/1/2 192/1/2
f 193/2/2 194/2/2 197/2/2
f 197/2/2 194/2/2 198/2/2
f 195/2/2 196/2/2 199/2/2
f 199/2/2 196/2/2 200/2/2
f 201/2/2 202/2/2 203/2/2
f 203/2/2 202/2/2 204/2/2
f 205/1/2 206/1/2 208/1/2
f 208/1/2 206/1/2 209/1/2
f 207/2/2 208/2/2 211/2/2
f 209/2/2 210/2/2 211/2/2
f 208/2/2 209/2/2 211/2/2
f 211/2/2 210/2/2 212/2/2
f 213/2/2 214/2/2 215/2/2
f 215/2/2 214/2/2 216/2/2
f 217/2/2 218/2/2 221/2/2
f 219/2/2 220/2/2 223/2/2
f 223/2/2 220/2/2 224/2/2
f 221/2/2 222/2/2 226/2/2
f 217/2/2 221/2/2 226/2/2
f 226/2/2 222/2/2 227/2/2
f 227/2/2 222/2/2 228/2/2
f 224/2/2 225/2/2 230/2/2
f 230/2/2 225/2/2 231/2/2
f 228/2/2 229/2/2 232/2/2
f 227/2/2 228/2/2 232/2/2
f 232/2/2 229/2/2 233/2/2
f 234/2/2 235/2/2 236/2/2
f 236/2/2 235/2/2 237/2/2
f 237/2/2 235/2/2 238/2/2
f 238/2/2 239/2/2 240/2/2
f 237/2/2 238/2/2 240/2/2
f 240/2/2 239/2/2 241/2/2
f 244/2/3 243/2/3 242/2/3
f 245/2/3 243/2/3 244/2/3
f 248/2/3 247/2/3 246/2/3
f 249/2/3 247/2/3 248/2/3
f 252/2/3 250/2/3 249/2/3
f 253/2/3 250/2/3 252/2/3
f 254/2/3 252/2/3 251/2/3
f 255/2/3 252/2/3 254/2/3
f 258/2/3 257/2/3 256/2/3
f 259/2/3 257/2/3 258/2/3
f 264/2/3 263/2/3 262/2/3
f 265/2/3 263/2/3 264/2/3
f 266/2/3 261/2/3 260/2/3
f 267/2/3 261/2/3 266/2/3
f 271/2/3 269/2/3 268/2/3
f 272/2/3 271/2/3 270/2/3
f 273/2/3 269/2/3 271/2/3
f 273/2/3 271/2/3 272/2/3
f 277/2/3 275/2/3 274/2/3
f 278/2/3 275/2/3 277/2/3
f 280/2/3 277/2/3 276/2/3
f 281/2/3 277/2/3 280/2/3
f 282/2/3 279/2/3 278/2/3
f 283/2/3 279/2/3 282/2/3
f 288/2/3 285/2/3 284/2/3
f 289/2/3 285/2/3 288/2/3
f 292/2/3 287/2/3 286/2/3
f 293/2/3 287/2/3 292/2/3
f 294/2/3 291/2/3 290/2/3
f 295/2/3 291/2/3 294/2/3
f 301/1/3 297/1/3 296/1/3
f 302/2/3 299/2/3 298/2/3
f 303/2/3 299/2/3 302/2/3
f 304/1/3 301/1/3 300/1/3
f 304/1/3 297/1/3 301/1/3
f 305/1/3 297/1/3 304/1/3
f 309/1/3 304/1/3 300/1/3
f 310/1/3 304/1/3 309/1/3
f 312/1/3 309/1/3 308/1/3
f 312/1/3 311/1/3 310/1/3
f 312/1/3 310/1/3 309/1/3
f 313/1/3 311/1/3 312/1/3
f 314/1/3 312/1/3 308/1/3
f 315/1/3 312/1/3 314/1/3
f 316/1/3 312/1/3 315/1/3
f 318/2/3 307/2/3 306/2/3
f 319/2/3 307/2/3 318/2/3
f 320/1/3 317/1/3 316/1/3
f 320/1/3 316/1/3 315/1/3
f 321/1/3 317/1/3 320/1/3
f 324/1/3 317/1/3 321/1/3
f 325/1/3 317/1/3 324/1/3
f 326/2/3 323/2/3 322/2/3
f 327/2/3 323/2/3 326/2/3
f 330/2/3 329/2/3 328/2/3
f 331/2/3 329/2/3 330/2/3
f 337/2/3 333/2/3 332/2/3
f 338/2/3 333/2/3 337/2/3
f 340/1/3 335/1/3 334/1/3
f 341/1/3 335/1/3 340/1/3
f 344/2/3 343/2/3 342/2/3
f 345/2/3 343/2/3 344/2/3
f 346/2/3 337/2/3 336/2/3
f 347/2/3 337/2/3 346/2/3
f 348/2/3 339/2/3 338/2/3
f 349/2/3 339/2/3 348/2/3
f 354/1/3 351/1/3 350/1/3
f 355/1/3 351/1/3 354/1/3
f 356/2/3 353/2/3 352/2/3
f 357/2/3 353/2/3 356/2/3
f 358/2/4 359/2/4 360/2/4
f 360/2/4 359/2/4 361/2/4
f 364/2/4 365/2/4 366/2/4
f 366/2/4 365/2/4 367/2/4
f 362/2/4 363/2/4 368/2/4
f 368/2/4 363/2/4 369/2/4
f 370/1/4 371/1/4 375/1/4
f 372/2/4 373/2/4 376/2/4
f 376/2/4 373/2/4 377/2/4
f 374/1/4 375/1/4 378/1/4
f 375/1/4 371/1/4 378/1/4
f 378/1/4 371/1/4 379/1/4
f 374/1/4 378/1/4 380/1/4
f 380/1/4 378/1/4 381/1/4
f 381/1/4 382/1/4 384/1/4
f 384/1/4 382/1/4 385/1/4
f 383/1/4 384/1/4 386/1/4
f 386/1/4 384/1/4 387/1/4
f 387/1/4 384/1/4 388/1/4
f 388/1/4 389/1/4 390/1/4
f 387/1/4 388/1/4 390/1/4
f 390/1/4 389/1/4 391/1/4
f 391/1/4 389/1/4 394/1/4
f 394/1/4 389/1/4 395/1/4
f 392/2/4 393/2/4 396/2/4
f 396/2/4 393/2/4 397/2/4
f 398/2/4 399/2/4 401/2/4
f 401/2/4 399/2/4 402/2/4
f 402/2/4 403/2/4 404/2/4
f 400/2/4 401/2/4 407/2/4
f 407/2/4 401/2/4 408/2/4
f 402/2/4 404/2/4 409/2/4
f 409/2/4 404/2/4 410/2/4
f 405/1/4 406/1/4 411/1/4
f 405/1/4 411/1/4 413/1/4
f 411/1/4 412/1/4 413/1/4
f 413/1/4 412/1/4 414/1/4
f 414/1/4 412/1/4 415/1/4
f 416/2/4 417/2/4 420/2/4
f 420/2/4 417/2/4 421/2/4
f 418/2/4 419/2/4 424/2/4
f 424/2/4 419/2/4 425/2/4
f 422/2/4 423/2/4 426/2/4
f 426/2/4 423/2/4 427/2/4
f 428/2/4 429/2/4 430/2/4
f 430/2/4 429/2/4 431/2/4
f 432/1/4 433/1/4 438/1/4
f 438/1/4 433/1/4 439/1/4
f 434/2/4 435/2/4 440/2/4
f 440/2/4 435/2/4 441/2/4
f 436/1/4 437/1/4 442/1/4
f 442/1/4 437/1/4 443/1/4
f 444/2/4 445/2/4 446/2/4
f 446/2/4 445/2/4 447/2/4
f 447/2/4 448/2/4 449/2/4
f 449/2/4 448/2/4 450/2/4
f 451/2/4 452/2/4 456/2/4
f 456/2/4 452/2/4 457/2/4
f 453/2/4 454/2/4 458/2/4
f 458/2/4 454/2/4 459/2/4
f 455/2/4 456/2/4 461/2/4
f 461/2/4 456/2/4 462/2/4
f 457/2/4 458/2/4 463/2/4
f 463/2/4 458/2/4 464/2/4
f 459/2/4 460/2/4 465/2/4
f 465/2/4 460/2/4 466/2/4
f 463/2/4 464/2/4 467/2/4
f 464/2/4 465/2/4 467/2/4
f 462/2/4 463/2/4 467/2/4
f 467/2/4 465/2/4 468/2/4
f 468/2/4 465/2/4 469/2/4
f 469/2/4 465/2/4 470/2/4
f 468/2/4 469/2/4 471/2/4
f 471/2/4 469/2/4 472/2/4
f 473/2/4 474/2/4 477/2/4
f 477/2/4 474/2/4 478/2/4
f 475/2/4 476/2/4 479/2/4
f 479/2/4 476/2/4 480/2/4
f 484/1/5 482/1/5 481/1/5
f 485/1/5 484/1/5 483/1/5
f 486/1/5 482/1/5 484/1/5
f 486/1/5 484/1/5 485/1/5
f 487/1/5 482/1/5 486/1/5
f 488/1/5 482/1/5 487/1/5
f 493/1/5 490/1/5 489/1/5
f 494/1/5 490/1/5 493/1/5
f 495/1/5 492/1/5 491/1/5
f 496/1/5 492/1/5 495/1/5
f 499/1/5 498/1/5 497/1/5
f 500/1/5 498/1/5 499/1/5
f 505/1/5 502/1/5 501/1/5
f 506/1/5 502/1/5 505/1/5
f 507/1/5 504/1/5 503/1/5
f 508/1/5 504/1/5 507/1/5
f 512/2/5 510/2/5 509/2/5
f 513/2/5 510/2/5 512/2/5
f 515/2/5 512/2/5 511/2/5
f 515/2/5 514/2/5 513/2/5
f 515/2/5 513/2/5 512/2/5
f 516/2/5 514/2/5 515/2/5
f 517/2/5 514/2/5 516/2/5
f 518/2/5 514/2/5 517/2/5
f 519/2/5 514/2/5 518/2/5
f 520/2/5 514/2/5 519/2/5
f 521/2/5 515/2/5 511/2/5
f 522/2/5 517/2/5 516/2/5
f 523/2/5 517/2/5 522/2/5
f 524/2/5 519/2/5 518/2/5
f 525/2/5 519/2/5 524/2/5
f 527/2/5 523/2/5 522/2/5
f 527/2/5 526/2/5 525/2/5
f 527/2/5 525/2/5 524/2/5
f 527/2/5 524/2/5 523/2/5
f 527/2/5 521/2/5 511/2/5
f 527/2/5 522/2/5 521/2/5
f 528/2/5 526/2/5 527/2/5
f 529/2/5 526/2/5 528/2/5
f 530/2/5 526/2/5 529/2/5
f 531/2/5 526/2/5 530/2/5
f 532/2/5 526/2/5 531/2/5
f 533/2/5 529/2/5 528/2/5
f 534/2/5 531/2/5 530/2/5
f 535/2/5 533/2/5 528/2/5
f 535/2/5 534/2/5 533/2/5
f 536/2/5 531/2/5 534/2/5
f 536/2/5 534/2/5 535/2/5
f 540/2/5 538/2/5 537/2/5
f 541/2/5 538/2/5 540/2/5
f 544/2/5 540/2/5 539/2/5
f 544/2/5 542/2/5 541/2/5
f 544/2/5 541/2/5 540/2/5
f 545/2/5 542/2/5 544/2/5
f 546/2/5 542/2/5 545/2/5
f 547/2/5 542/2/5 546/2/5
f 550/2/5 544/2/5 543/2/5
f 550/2/5 545/2/5 544/2/5
f 551/2/5 545/2/5 550/2/5
f 552/2/5 547/2/5 546/2/5
f 552/2/5 548/2/5 547/2/5
f 553/2/5 548/2/5 552/2/5
f 554/2/5 548/2/5 553/2/5
f 558/2/5 557/2/5 556/2/5
f 559/2/5 557/2/5 558/2/5
f 560/2/5 550/2/5 549/2/5
f 561/2/5 550/2/5 560/2/5
f 564/2/5 555/2/5 554/2/5
f 564/2/5 554/2/5 553/2/5
f 565/2/5 555/2/5 564/2/5
f 566/2/5 555/2/5 565/2/5
f 567/2/5 562/2/5 561/2/5
f 568/2/5 562/2/5 567/2/5
f 569/2/5 565/2/5 564/2/5
f 569/2/5 564/2/5 563/2/5
f 570/2/5 565/2/5 569/2/5
f 571/2/5 562/2/5 568/2/5
f 572/2/5 562/2/5 571/2/5
f 573/2/5 569/2/5 563/2/5
f 574/2/5 569/2/5 573/2/5
f 575/2/5 573/2/5 572/2/5
f 576/2/5 573/2/5 575/2/5
f 580/2/5 578/2/5 577/2/5
f 581/2/5 578/2/5 580/2/5
f 582/2/5 580/2/5 579/2/5
f 583/2/5 580/2/5 582/2/5
f 586/2/5 585/2/5 584/2/5
f 587/2/5 585/2/5 586/2/5
f 590/2/5 589/2/5 588/2/5
f 591/2/5 589/2/5 590/2/5
f 593/2/5 592/2/5 591/2/5
f 594/2/5 592/2/5 593/2/5
f 595/1/6 596/1/6 599/1/6
f 599/1/6 596/1/6 600/1/6
f 597/1/6 598/1/6 601/1/6
f 601/1/6 598/1/6 602/1/6
f 602/1/6 598/1/6 603/1/6
f 604/1/6 605/1/6 608/1/6
f 608/1/6 605/1/6 609/1/6
f 606/1/6 607/1/6 610/1/6
f 610/1/6 607/1/6 611/1/6
f 609/1/6 610/1/6 612/1/6
f 612/1/6 610/1/6 613/1/6
f 614/1/6 615/1/6 616/1/6
f 616/1/6 615/1/6 617/1/6
f 618/2/6 619/2/6 621/2/6
f 621/2/6 619/2/6 622/2/6
f 620/2/6 621/2/6 625/2/6
f 622/2/6 623/2/6 626/2/6
f 626/2/6 623/2/6 627/2/6
f 624/2/6 625/2/6 629/2/6
f 625/2/6 621/2/6 630/2/6
f 629/2/6 625/2/6 630/2/6
f 631/2/6 632/2/6 635/2/6
f 635/2/6 632/2/6 636/2/6
f 633/2/6 634/2/6 637/2/6
f 637/2/6 634/2/6 638/2/6
f 628/2/6 629/2/6 639/2/6
f 639/2/6 629/2/6 640/2/6
f 640/2/6 641/2/6 642/2/6
f 642/2/6 641/2/6 643/2/6
f 643/2/6 641/2/6 644/2/6
f 644/2/6 641/2/6 645/2/6
f 645/2/6 646/2/6 647/2/6
f 647/2/6 646/2/6 648/2/6
f 649/2/6 650/2/6 651/2/6
f 651/2/6 650/2/6 652/2/6
f 652/2/6 650/2/6 653/2/6
f 649/2/6 651/2/6 656/2/6
f 656/2/6 651/2/6 657/2/6
f 652/2/6 653/2/6 658/2/6
f 653/2/6 654/2/6 658/2/6
f 658/2/6 654/2/6 659/2/6
f 659/2/6 654/2/6 660/2/6
f 656/2/6 657/2/6 661/2/6
f 655/2/6 656/2/6 661/2/6
f 658/2/6 659/2/6 661/2/6
f 657/2/6 658/2/6 661/2/6
f 661/2/6 659/2/6 662/2/6
f 662/2/6 659/2/6 663/2/6
f 663/2/6 659/2/6 664/2/6
f 655/2/6 661/2/6 667/2/6
f 662/2/6 663/2/6 668/2/6
f 668/2/6 663/2/6 669/2/6
f 655/2/6 667/2/6 670/2/6
f 667/2/6 668/2/6 670/2/6
f 670/2/6 668/2/6 671/2/6
f 665/2/6 666/2/6 673/2/6
f 672/2/6 673/2/6 674/2/6
f 673/2/6 666/2/6 674/2/6
f 674/2/6 666/2/6 675/2/6
f 672/2/6 674/2/6 676/2/6
f 676/2/6 674/2/6 677/2/6
f 678/2/6 679/2/6 680/2/6
f 680/2/6 679/2/6 681/2/6
f 682/2/6 683/2/6 687/2/6
f 687/2/6 683/2/6 688/2/6
f 688/2/6 683/2/6 689/2/6
f 684/2/6 685/2/6 690/2/6
f 690/2/6 685/2/6 691/2/6
f 686/2/6 687/2/6 692/2/6
f 687/2/6 688/2/6 692/2/6
f 692/2/6 688/2/6 693/2/6
f 693/2/6 688/2/6 694/2/6
f 689/2/6 683/2/6 695/2/6
f 693/2/6 694/2/6 696/2/6
f 694/2/6 695/2/6 696/2/6
f 695/2/6 683/2/6 697/2/6
f 696/2/6 695/2/6 697/2/6
f 691/2/6 692/2/6 698/2/6
f 698/2/6 692/2/6 699/2/6
f 693/2/6 696/2/6 700/2/6
f 700/2/6 696/2/6 701/2/6
f 699/2/6 700/2/6 702/2/6
f 702/2/6 700/2/6 703/2/6
f 704/2/6 705/2/6 708/2/6
f 708/2/6 705/2/6 709/2/6
f 706/2/6 707/2/6 710/2/6
f 710/2/6 707/2/6 711/2/6
f 706/2/6 710/2/6 712/2/6
f 711/2/6 707/2/6 713/2/6
f 706/2/6 712/2/6 714/2/6
f 712/2/6 713/2/6 714/2/6
f 713/2/6 707/2/6 715/2/6
f 714/2/6 713/2/6 715/2/6
f 716/2/6 717/2/6 718/2/6
f 718/2/6 717/2/6 719/2/6
