# MagicaVoxel @ Ephtracy

# material
mtllib Tree_type3_03_snow.mtl
usemtl palette

# normals
vn -1 0 0
vn 1 0 0
vn 0 0 1
vn 0 0 -1
vn 0 -1 0
vn 0 1 0

# texcoords
vt 0.466797 0.5
vt 0.509766 0.5
vt 0.513672 0.5
vt 0.962891 0.5
vt 0.966797 0.5

# verts
v -5 4 5
v -5 4 -5
v -5 7 5
v -5 7 -5
v -5 10 5
v -5 10 -5
v -5 11 3
v -5 11 2
v -5 12 3
v -5 12 2
v -5 13 5
v -5 13 -5
v -5 16 5
v -5 16 -5
v -5 17 3
v -5 17 2
v -5 18 3
v -5 18 2
v -5 19 5
v -5 19 -5
v -5 21 5
v -5 21 -5
v -5 22 5
v -5 22 -5
v -2 0 2
v -2 0 -2
v -2 4 2
v -2 4 -2
v 2 0 2
v 2 0 -2
v 2 4 2
v 2 4 -2
v 5 4 5
v 5 4 -5
v 5 7 5
v 5 7 -5
v 5 10 5
v 5 10 -5
v 5 13 5
v 5 13 -5
v 5 16 5
v 5 16 -5
v 5 17 -4
v 5 17 -5
v 5 18 -4
v 5 18 -5
v 5 19 5
v 5 19 -5
v 5 21 5
v 5 21 -5
v 5 22 5
v 5 22 -5
v -5 4 5
v -5 7 5
v -5 10 5
v -5 13 5
v -5 16 5
v -5 19 5
v -5 21 5
v -5 22 5
v -2 13 5
v -2 14 5
v -1 13 5
v -1 14 5
v -1 15 5
v -1 16 5
v 0 15 5
v 0 16 5
v 1 18 5
v 1 19 5
v 2 8 5
v 2 9 5
v 2 18 5
v 2 19 5
v 3 8 5
v 3 9 5
v 5 4 5
v 5 7 5
v 5 10 5
v 5 13 5
v 5 16 5
v 5 19 5
v 5 21 5
v 5 22 5
v -2 0 2
v -2 4 2
v 2 0 2
v 2 4 2
v -2 0 -2
v -2 4 -2
v 2 0 -2
v 2 4 -2
v -5 4 -5
v -5 7 -5
v -5 10 -5
v -5 13 -5
v -5 16 -5
v -5 19 -5
v -5 21 -5
v -5 22 -5
v -2 6 -5
v -2 7 -5
v -2 11 -5
v -2 12 -5
v -1 6 -5
v -1 7 -5
v -1 11 -5
v -1 12 -5
v 0 15 -5
v 0 16 -5
v 1 15 -5
v 1 16 -5
v 3 17 -5
v 3 18 -5
v 5 4 -5
v 5 7 -5
v 5 10 -5
v 5 13 -5
v 5 16 -5
v 5 17 -5
v 5 18 -5
v 5 19 -5
v 5 21 -5
v 5 22 -5
v -2 0 2
v 2 0 2
v -2 0 -2
v 2 0 -2
v -5 4 5
v 5 4 5
v -2 4 2
v 2 4 2
v -2 4 -2
v 2 4 -2
v -5 4 -5
v 5 4 -5
v -5 22 5
v 5 22 5
v 1 22 2
v 2 22 2
v 1 22 1
v 2 22 1
v -3 22 -2
v -2 22 -2
v 1 22 -2
v 2 22 -2
v -3 22 -3
v -2 22 -3
v 1 22 -3
v 2 22 -3
v -5 22 -5
v 5 22 -5

# faces
f 3/2/1 2/2/1 1/2/1
f 4/2/1 2/2/1 3/2/1
f 5/3/1 4/3/1 3/3/1
f 6/3/1 4/3/1 5/3/1
f 7/2/1 6/2/1 5/2/1
f 8/2/1 6/2/1 7/2/1
f 9/2/1 7/2/1 5/2/1
f 9/1/1 8/1/1 7/1/1
f 10/2/1 6/2/1 8/2/1
f 10/1/1 8/1/1 9/1/1
f 11/2/1 9/2/1 5/2/1
f 11/2/1 10/2/1 9/2/1
f 12/2/1 6/2/1 10/2/1
f 12/2/1 10/2/1 11/2/1
f 13/3/1 12/3/1 11/3/1
f 14/3/1 12/3/1 13/3/1
f 15/2/1 14/2/1 13/2/1
f 16/2/1 14/2/1 15/2/1
f 17/2/1 15/2/1 13/2/1
f 17/1/1 16/1/1 15/1/1
f 18/2/1 14/2/1 16/2/1
f 18/1/1 16/1/1 17/1/1
f 19/2/1 17/2/1 13/2/1
f 19/2/1 18/2/1 17/2/1
f 20/2/1 14/2/1 18/2/1
f 20/2/1 18/2/1 19/2/1
f 21/3/1 20/3/1 19/3/1
f 22/3/1 20/3/1 21/3/1
f 23/4/1 22/4/1 21/4/1
f 24/4/1 22/4/1 23/4/1
f 27/1/1 26/1/1 25/1/1
f 28/1/1 26/1/1 27/1/1
f 29/1/2 30/1/2 31/1/2
f 31/1/2 30/1/2 32/1/2
f 33/2/2 34/2/2 35/2/2
f 35/2/2 34/2/2 36/2/2
f 35/3/2 36/3/2 37/3/2
f 37/3/2 36/3/2 38/3/2
f 37/2/2 38/2/2 39/2/2
f 39/2/2 38/2/2 40/2/2
f 39/3/2 40/3/2 41/3/2
f 41/3/2 40/3/2 42/3/2
f 41/2/2 42/2/2 43/2/2
f 43/2/2 42/2/2 44/2/2
f 41/2/2 43/2/2 45/2/2
f 43/1/2 44/1/2 45/1/2
f 45/1/2 44/1/2 46/1/2
f 41/2/2 45/2/2 47/2/2
f 45/2/2 46/2/2 47/2/2
f 47/2/2 46/2/2 48/2/2
f 47/3/2 48/3/2 49/3/2
f 49/3/2 48/3/2 50/3/2
f 49/4/2 50/4/2 51/4/2
f 51/4/2 50/4/2 52/4/2
f 61/2/3 56/2/3 55/2/3
f 61/3/3 57/3/3 56/3/3
f 62/3/3 57/3/3 61/3/3
f 63/2/3 61/2/3 55/2/3
f 63/1/3 62/1/3 61/1/3
f 64/3/3 57/3/3 62/3/3
f 64/1/3 62/1/3 63/1/3
f 65/3/3 57/3/3 64/3/3
f 66/2/3 58/2/3 57/2/3
f 66/3/3 57/3/3 65/3/3
f 67/3/3 65/3/3 64/3/3
f 67/3/3 64/3/3 63/3/3
f 67/1/3 66/1/3 65/1/3
f 68/2/3 58/2/3 66/2/3
f 68/1/3 66/1/3 67/1/3
f 69/2/3 58/2/3 68/2/3
f 70/3/3 59/3/3 58/3/3
f 70/2/3 58/2/3 69/2/3
f 71/3/3 55/3/3 54/3/3
f 72/3/3 55/3/3 71/3/3
f 73/2/3 69/2/3 68/2/3
f 73/1/3 70/1/3 69/1/3
f 74/3/3 59/3/3 70/3/3
f 74/1/3 70/1/3 73/1/3
f 75/1/3 72/1/3 71/1/3
f 75/3/3 71/3/3 54/3/3
f 76/3/3 55/3/3 72/3/3
f 76/1/3 72/1/3 75/1/3
f 77/2/3 54/2/3 53/2/3
f 78/3/3 75/3/3 54/3/3
f 78/2/3 54/2/3 77/2/3
f 78/3/3 76/3/3 75/3/3
f 79/3/3 55/3/3 76/3/3
f 79/3/3 76/3/3 78/3/3
f 79/2/3 63/2/3 55/2/3
f 80/3/3 67/3/3 63/3/3
f 80/2/3 63/2/3 79/2/3
f 80/3/3 68/3/3 67/3/3
f 81/2/3 73/2/3 68/2/3
f 81/3/3 68/3/3 80/3/3
f 81/2/3 74/2/3 73/2/3
f 82/3/3 59/3/3 74/3/3
f 82/2/3 74/2/3 81/2/3
f 83/4/3 60/4/3 59/4/3
f 83/3/3 59/3/3 82/3/3
f 84/4/3 60/4/3 83/4/3
f 87/1/3 86/1/3 85/1/3
f 88/1/3 86/1/3 87/1/3
f 89/1/4 90/1/4 91/1/4
f 91/1/4 90/1/4 92/1/4
f 93/2/4 94/2/4 101/2/4
f 94/3/4 95/3/4 102/3/4
f 101/2/4 94/2/4 102/2/4
f 95/2/4 96/2/4 103/2/4
f 103/2/4 96/2/4 104/2/4
f 93/2/4 101/2/4 105/2/4
f 101/1/4 102/1/4 105/1/4
f 102/3/4 95/3/4 106/3/4
f 105/1/4 102/1/4 106/1/4
f 103/1/4 104/1/4 107/1/4
f 95/2/4 103/2/4 107/2/4
f 104/2/4 96/2/4 108/2/4
f 107/1/4 104/1/4 108/1/4
f 96/3/4 97/3/4 109/3/4
f 97/2/4 98/2/4 110/2/4
f 109/3/4 97/3/4 110/3/4
f 96/3/4 109/3/4 111/3/4
f 109/1/4 110/1/4 111/1/4
f 110/2/4 98/2/4 112/2/4
f 111/1/4 110/1/4 112/1/4
f 112/2/4 98/2/4 113/2/4
f 113/2/4 98/2/4 114/2/4
f 93/2/4 105/2/4 115/2/4
f 105/2/4 106/2/4 115/2/4
f 106/3/4 95/3/4 116/3/4
f 115/2/4 106/2/4 116/2/4
f 95/2/4 107/2/4 117/2/4
f 116/3/4 95/3/4 117/3/4
f 107/2/4 108/2/4 117/2/4
f 108/2/4 96/2/4 118/2/4
f 117/2/4 108/2/4 118/2/4
f 96/3/4 111/3/4 118/3/4
f 111/3/4 112/3/4 118/3/4
f 112/2/4 113/2/4 119/2/4
f 118/3/4 112/3/4 119/3/4
f 113/1/4 114/1/4 120/1/4
f 119/2/4 113/2/4 120/2/4
f 114/2/4 98/2/4 121/2/4
f 120/1/4 114/1/4 121/1/4
f 98/3/4 99/3/4 122/3/4
f 121/2/4 98/2/4 122/2/4
f 99/4/4 100/4/4 123/4/4
f 122/3/4 99/3/4 123/3/4
f 123/4/4 100/4/4 124/4/4
f 127/1/5 126/1/5 125/1/5
f 128/1/5 126/1/5 127/1/5
f 131/2/5 130/2/5 129/2/5
f 132/2/5 130/2/5 131/2/5
f 133/2/5 131/2/5 129/2/5
f 134/2/5 130/2/5 132/2/5
f 135/2/5 133/2/5 129/2/5
f 135/2/5 134/2/5 133/2/5
f 136/2/5 130/2/5 134/2/5
f 136/2/5 134/2/5 135/2/5
f 137/4/6 138/4/6 139/4/6
f 139/4/6 138/4/6 140/4/6
f 137/4/6 139/4/6 141/4/6
f 139/5/6 140/5/6 141/5/6
f 140/4/6 138/4/6 142/4/6
f 141/5/6 140/5/6 142/5/6
f 137/4/6 141/4/6 143/4/6
f 141/4/6 142/4/6 143/4/6
f 143/4/6 142/4/6 144/4/6
f 144/4/6 142/4/6 145/4/6
f 142/4/6 138/4/6 146/4/6
f 145/4/6 142/4/6 146/4/6
f 137/4/6 143/4/6 147/4/6
f 143/5/6 144/5/6 147/5/6
f 144/4/6 145/4/6 148/4/6
f 147/5/6 144/5/6 148/5/6
f 145/5/6 146/5/6 149/5/6
f 148/4/6 145/4/6 149/4/6
f 146/4/6 138/4/6 150/4/6
f 149/5/6 146/5/6 150/5/6
f 137/4/6 147/4/6 151/4/6
f 148/4/6 149/4/6 151/4/6
f 149/4/6 150/4/6 151/4/6
f 147/4/6 148/4/6 151/4/6
f 150/4/6 138/4/6 152/4/6
f 151/4/6 150/4/6 152/4/6
