# MagicaVoxel @ Ephtracy

# material
mtllib Tree_type1_04.mtl
usemtl palette

# normals
vn -1 0 0
vn 1 0 0
vn 0 0 1
vn 0 0 -1
vn 0 -1 0
vn 0 1 0

# texcoords
vt 0.279297 0.5
vt 0.529297 0.5
vt 0.556641 0.5

# verts
v -4.5 5 -1
v -4.5 5 -4
v -4.5 6 -2
v -4.5 6 -3
v -4.5 8 -2
v -4.5 8 -3
v -4.5 9 -1
v -4.5 9 -4
v -3.5 4 -0
v -3.5 4 -3
v -3.5 5 -0
v -3.5 5 -1
v -3.5 5 -3
v -3.5 6 -2
v -3.5 6 -3
v -3.5 8 -2
v -3.5 8 -3
v -2.5 6 -1
v -2.5 6 -2
v -2.5 6 -3
v -2.5 6 -4
v -2.5 8 -1
v -2.5 8 -2
v -2.5 8 -3
v -2.5 8 -4
v -2.5 9 -2
v -2.5 9 -3
v -1.5 0 -0
v -1.5 0 -1
v -1.5 1 -0
v -1.5 1 -1
v -1.5 2 1
v -1.5 2 -2
v -1.5 3 2
v -1.5 3 1
v -1.5 3 -1
v -1.5 3 -2
v -1.5 3 -3
v -1.5 4 2
v -1.5 4 1
v -1.5 4 -0
v -1.5 4 -1
v -1.5 5 -1
v -1.5 5 -3
v -1.5 8 3
v -1.5 8 -0
v -1.5 9 2
v -1.5 9 1
v -1.5 10 2
v -1.5 10 1
v -1.5 11 3
v -1.5 11 -0
v -0.5 0 1
v -0.5 0 -0
v -0.5 1 -0
v -0.5 1 -1
v -0.5 2 1
v -0.5 2 -1
v -0.5 4 1
v -0.5 4 -0
v -0.5 5 -0
v -0.5 5 -1
v -0.5 7 -0
v -0.5 7 -1
v -0.5 8 1
v -0.5 8 -0
v -0.5 9 2
v -0.5 9 1
v -0.5 10 2
v -0.5 10 1
v 0.5 0 -1
v 0.5 0 -2
v 0.5 1 -1
v 0.5 1 -2
v 0.5 3 2
v 0.5 3 1
v 0.5 4 2
v 0.5 4 1
v 0.5 9 3
v 0.5 9 2
v 0.5 9 1
v 0.5 9 -0
v 0.5 10 3
v 0.5 10 2
v 0.5 10 1
v 0.5 10 -0
v 0.5 11 2
v 0.5 11 1
v 1.5 3 3
v 1.5 3 2
v 1.5 4 4
v 1.5 4 3
v 1.5 4 2
v 1.5 4 1
v 1.5 5 3
v 1.5 5 2
v 1.5 6 3
v 1.5 6 2
v 1.5 7 4
v 1.5 7 1
v 2.5 5 3
v 2.5 5 2
v 2.5 6 3
v 2.5 6 2
v 3.5 4 3
v 3.5 4 2
v 3.5 5 4
v 3.5 5 3
v 3.5 5 2
v 3.5 5 1
v 3.5 6 4
v 3.5 6 3
v 3.5 6 2
v 3.5 6 1
v 3.5 7 3
v 3.5 7 2
v -3.5 6 -1
v -3.5 6 -2
v -3.5 6 -3
v -3.5 6 -4
v -3.5 8 -1
v -3.5 8 -2
v -3.5 8 -3
v -3.5 8 -4
v -3.5 9 -2
v -3.5 9 -3
v -2.5 4 -1
v -2.5 4 -3
v -2.5 5 -1
v -2.5 5 -3
v -2.5 6 -2
v -2.5 6 -3
v -2.5 8 -2
v -2.5 8 -3
v -1.5 5 -1
v -1.5 5 -3
v -1.5 5 -4
v -1.5 6 -2
v -1.5 6 -3
v -1.5 8 -2
v -1.5 8 -3
v -1.5 9 -1
v -1.5 9 -4
v -0.5 2 -1
v -0.5 2 -2
v -0.5 3 2
v -0.5 3 1
v -0.5 3 -1
v -0.5 3 -2
v -0.5 4 2
v -0.5 4 1
v -0.5 9 3
v -0.5 9 2
v -0.5 9 1
v -0.5 9 -0
v -0.5 10 3
v -0.5 10 2
v -0.5 10 1
v -0.5 10 -0
v -0.5 11 2
v -0.5 11 1
v 0.5 3 -0
v 0.5 3 -1
v 0.5 3 -3
v 0.5 4 1
v 0.5 4 -0
v 0.5 5 -1
v 0.5 5 -3
v 0.5 7 -0
v 0.5 7 -1
v 0.5 8 1
v 0.5 8 -0
v 0.5 9 2
v 0.5 9 1
v 0.5 10 2
v 0.5 10 1
v 1.5 0 -0
v 1.5 0 -2
v 1.5 1 1
v 1.5 1 -0
v 1.5 1 -1
v 1.5 1 -2
v 1.5 3 1
v 1.5 3 -0
v 1.5 3 -1
v 1.5 4 1
v 1.5 4 -0
v 1.5 8 3
v 1.5 8 -0
v 1.5 9 2
v 1.5 9 1
v 1.5 10 2
v 1.5 10 1
v 1.5 11 3
v 1.5 11 -0
v 2.5 0 1
v 2.5 0 -0
v 2.5 1 1
v 2.5 1 -0
v 2.5 3 3
v 2.5 3 1
v 2.5 4 3
v 2.5 4 2
v 2.5 4 1
v 2.5 5 4
v 2.5 5 3
v 2.5 5 2
v 2.5 5 1
v 2.5 6 4
v 2.5 6 3
v 2.5 6 2
v 2.5 6 1
v 2.5 7 3
v 2.5 7 2
v 3.5 5 3
v 3.5 5 2
v 3.5 6 3
v 3.5 6 2
v 4.5 4 4
v 4.5 4 1
v 4.5 5 3
v 4.5 5 2
v 4.5 6 3
v 4.5 6 2
v 4.5 7 4
v 4.5 7 1
v 1.5 4 4
v 1.5 7 4
v 2.5 5 4
v 2.5 6 4
v 3.5 5 4
v 3.5 6 4
v 4.5 4 4
v 4.5 7 4
v -1.5 8 3
v -1.5 11 3
v -0.5 9 3
v -0.5 10 3
v 0.5 9 3
v 0.5 10 3
v 1.5 3 3
v 1.5 4 3
v 1.5 8 3
v 1.5 11 3
v 2.5 3 3
v 2.5 4 3
v 2.5 5 3
v 2.5 6 3
v 3.5 5 3
v 3.5 6 3
v -1.5 3 2
v -1.5 4 2
v -0.5 3 2
v -0.5 4 2
v -0.5 9 2
v -0.5 10 2
v 0.5 3 2
v 0.5 4 2
v 0.5 9 2
v 0.5 10 2
v 1.5 3 2
v 1.5 4 2
v 1.5 5 2
v 1.5 6 2
v 2.5 4 2
v 2.5 5 2
v 2.5 6 2
v 2.5 7 2
v 3.5 4 2
v 3.5 5 2
v 3.5 6 2
v 3.5 7 2
v 4.5 5 2
v 4.5 6 2
v -1.5 2 1
v -1.5 3 1
v -1.5 9 1
v -1.5 10 1
v -0.5 0 1
v -0.5 2 1
v -0.5 3 1
v -0.5 4 1
v -0.5 8 1
v -0.5 9 1
v -0.5 10 1
v -0.5 11 1
v 0.5 3 1
v 0.5 4 1
v 0.5 8 1
v 0.5 9 1
v 0.5 10 1
v 0.5 11 1
v 1.5 1 1
v 1.5 3 1
v 1.5 9 1
v 1.5 10 1
v 2.5 0 1
v 2.5 1 1
v -3.5 4 -0
v -3.5 5 -0
v -1.5 0 -0
v -1.5 1 -0
v -1.5 4 -0
v -0.5 0 -0
v -0.5 1 -0
v -0.5 4 -0
v -0.5 5 -0
v -4.5 5 -1
v -4.5 9 -1
v -3.5 5 -1
v -3.5 6 -1
v -3.5 8 -1
v -2.5 6 -1
v -2.5 8 -1
v -1.5 5 -1
v -1.5 9 -1
v -3.5 6 -2
v -3.5 8 -2
v -2.5 6 -2
v -2.5 8 -2
v -4.5 6 -3
v -4.5 8 -3
v -3.5 6 -3
v -3.5 8 -3
v -3.5 9 -3
v -2.5 6 -3
v -2.5 8 -3
v -2.5 9 -3
v -1.5 6 -3
v -1.5 8 -3
v 1.5 5 3
v 1.5 6 3
v 2.5 4 3
v 2.5 5 3
v 2.5 6 3
v 2.5 7 3
v 3.5 4 3
v 3.5 5 3
v 3.5 6 3
v 3.5 7 3
v 4.5 5 3
v 4.5 6 3
v -1.5 9 2
v -1.5 10 2
v -0.5 9 2
v -0.5 10 2
v -0.5 11 2
v 0.5 9 2
v 0.5 10 2
v 0.5 11 2
v 1.5 9 2
v 1.5 10 2
v 2.5 5 2
v 2.5 6 2
v 3.5 5 2
v 3.5 6 2
v -0.5 9 1
v -0.5 10 1
v 0.5 9 1
v 0.5 10 1
v 1.5 3 1
v 1.5 4 1
v 1.5 7 1
v 2.5 3 1
v 2.5 4 1
v 2.5 5 1
v 2.5 6 1
v 3.5 5 1
v 3.5 6 1
v 4.5 4 1
v 4.5 7 1
v -1.5 8 -0
v -1.5 11 -0
v -0.5 7 -0
v -0.5 8 -0
v -0.5 9 -0
v -0.5 10 -0
v 0.5 3 -0
v 0.5 4 -0
v 0.5 7 -0
v 0.5 8 -0
v 0.5 9 -0
v 0.5 10 -0
v 1.5 0 -0
v 1.5 1 -0
v 1.5 3 -0
v 1.5 4 -0
v 1.5 8 -0
v 1.5 11 -0
v 2.5 0 -0
v 2.5 1 -0
v -2.5 4 -1
v -2.5 5 -1
v -1.5 0 -1
v -1.5 1 -1
v -1.5 4 -1
v -1.5 5 -1
v -0.5 1 -1
v -0.5 2 -1
v -0.5 3 -1
v -0.5 5 -1
v -0.5 7 -1
v 0.5 0 -1
v 0.5 1 -1
v 0.5 3 -1
v 0.5 5 -1
v 0.5 7 -1
v 1.5 1 -1
v 1.5 3 -1
v -4.5 6 -2
v -4.5 8 -2
v -3.5 6 -2
v -3.5 8 -2
v -3.5 9 -2
v -2.5 6 -2
v -2.5 8 -2
v -2.5 9 -2
v -1.5 2 -2
v -1.5 3 -2
v -1.5 6 -2
v -1.5 8 -2
v -0.5 2 -2
v -0.5 3 -2
v 0.5 0 -2
v 0.5 1 -2
v 1.5 0 -2
v 1.5 1 -2
v -3.5 4 -3
v -3.5 5 -3
v -3.5 6 -3
v -3.5 8 -3
v -2.5 4 -3
v -2.5 5 -3
v -2.5 6 -3
v -2.5 8 -3
v -1.5 3 -3
v -1.5 5 -3
v 0.5 3 -3
v 0.5 5 -3
v -4.5 5 -4
v -4.5 9 -4
v -3.5 6 -4
v -3.5 8 -4
v -2.5 6 -4
v -2.5 8 -4
v -1.5 5 -4
v -1.5 9 -4
v -0.5 0 1
v 2.5 0 1
v -1.5 0 -0
v -0.5 0 -0
v 1.5 0 -0
v 2.5 0 -0
v -1.5 0 -1
v 0.5 0 -1
v 0.5 0 -2
v 1.5 0 -2
v -1.5 2 1
v -0.5 2 1
v -0.5 2 -1
v -1.5 2 -2
v -0.5 2 -2
v 1.5 3 3
v 2.5 3 3
v -1.5 3 2
v -0.5 3 2
v 0.5 3 2
v 1.5 3 2
v -1.5 3 1
v -0.5 3 1
v 0.5 3 1
v 1.5 3 1
v 2.5 3 1
v -0.5 3 -1
v 0.5 3 -1
v -1.5 3 -2
v -0.5 3 -2
v -1.5 3 -3
v 0.5 3 -3
v 1.5 4 4
v 4.5 4 4
v 1.5 4 3
v 2.5 4 3
v 3.5 4 3
v 2.5 4 2
v 3.5 4 2
v 2.5 4 1
v 4.5 4 1
v -3.5 4 -0
v -1.5 4 -0
v -2.5 4 -1
v -1.5 4 -1
v -3.5 4 -3
v -2.5 4 -3
v 2.5 5 3
v 3.5 5 3
v 2.5 5 2
v 3.5 5 2
v -4.5 5 -1
v -3.5 5 -1
v -2.5 5 -1
v -1.5 5 -1
v -3.5 5 -3
v -2.5 5 -3
v -1.5 5 -3
v -4.5 5 -4
v -1.5 5 -4
v 2.5 6 4
v 3.5 6 4
v 1.5 6 3
v 2.5 6 3
v 3.5 6 3
v 4.5 6 3
v 1.5 6 2
v 2.5 6 2
v 3.5 6 2
v 4.5 6 2
v 2.5 6 1
v 3.5 6 1
v -1.5 8 3
v 1.5 8 3
v -0.5 8 2
v 0.5 8 2
v -0.5 8 1
v 0.5 8 1
v -1.5 8 -0
v -0.5 8 -0
v 0.5 8 -0
v 1.5 8 -0
v -3.5 8 -1
v -2.5 8 -1
v -4.5 8 -2
v -3.5 8 -2
v -2.5 8 -2
v -1.5 8 -2
v -4.5 8 -3
v -3.5 8 -3
v -2.5 8 -3
v -1.5 8 -3
v -3.5 8 -4
v -2.5 8 -4
v -0.5 10 3
v 0.5 10 3
v -1.5 10 2
v -0.5 10 2
v 0.5 10 2
v 1.5 10 2
v -1.5 10 1
v -0.5 10 1
v 0.5 10 1
v 1.5 10 1
v -0.5 10 -0
v 0.5 10 -0
v 1.5 1 1
v 2.5 1 1
v -1.5 1 -0
v -0.5 1 -0
v 1.5 1 -0
v 2.5 1 -0
v -1.5 1 -1
v -0.5 1 -1
v 0.5 1 -1
v 1.5 1 -1
v 0.5 1 -2
v 1.5 1 -2
v 0.5 3 -0
v 1.5 3 -0
v 0.5 3 -1
v 1.5 3 -1
v -1.5 4 2
v -0.5 4 2
v 0.5 4 2
v 1.5 4 2
v -1.5 4 1
v -0.5 4 1
v 0.5 4 1
v 1.5 4 1
v -1.5 4 -0
v -0.5 4 -0
v 0.5 4 -0
v 1.5 4 -0
v 2.5 5 4
v 3.5 5 4
v 1.5 5 3
v 2.5 5 3
v 3.5 5 3
v 4.5 5 3
v 1.5 5 2
v 2.5 5 2
v 3.5 5 2
v 4.5 5 2
v 2.5 5 1
v 3.5 5 1
v -3.5 5 -0
v -0.5 5 -0
v -3.5 5 -1
v -1.5 5 -1
v -0.5 5 -1
v 0.5 5 -1
v -1.5 5 -3
v 0.5 5 -3
v 2.5 6 3
v 3.5 6 3
v 2.5 6 2
v 3.5 6 2
v -3.5 6 -1
v -2.5 6 -1
v -4.5 6 -2
v -3.5 6 -2
v -2.5 6 -2
v -1.5 6 -2
v -4.5 6 -3
v -3.5 6 -3
v -2.5 6 -3
v -1.5 6 -3
v -3.5 6 -4
v -2.5 6 -4
v 1.5 7 4
v 4.5 7 4
v 2.5 7 3
v 3.5 7 3
v 2.5 7 2
v 3.5 7 2
v 1.5 7 1
v 4.5 7 1
v -0.5 7 -0
v 0.5 7 -0
v -0.5 7 -1
v 0.5 7 -1
v -3.5 8 -2
v -2.5 8 -2
v -3.5 8 -3
v -2.5 8 -3
v -0.5 9 3
v 0.5 9 3
v -1.5 9 2
v -0.5 9 2
v 0.5 9 2
v 1.5 9 2
v -1.5 9 1
v -0.5 9 1
v 0.5 9 1
v 1.5 9 1
v -0.5 9 -0
v 0.5 9 -0
v -4.5 9 -1
v -1.5 9 -1
v -3.5 9 -2
v -2.5 9 -2
v -3.5 9 -3
v -2.5 9 -3
v -4.5 9 -4
v -1.5 9 -4
v -0.5 10 2
v 0.5 10 2
v -0.5 10 1
v 0.5 10 1
v -1.5 11 3
v 1.5 11 3
v -0.5 11 2
v 0.5 11 2
v -0.5 11 1
v 0.5 11 1
v -1.5 11 -0
v 1.5 11 -0

# faces
f 3/3/1 2/3/1 1/3/1
f 4/3/1 2/3/1 3/3/1
f 5/3/1 3/3/1 1/3/1
f 6/3/1 2/3/1 4/3/1
f 7/3/1 5/3/1 1/3/1
f 7/3/1 6/3/1 5/3/1
f 8/3/1 2/3/1 6/3/1
f 8/3/1 6/3/1 7/3/1
f 11/1/1 10/1/1 9/1/1
f 12/1/1 10/1/1 11/1/1
f 13/1/1 10/1/1 12/1/1
f 16/2/1 15/2/1 14/2/1
f 17/2/1 15/2/1 16/2/1
f 22/3/1 19/3/1 18/3/1
f 23/3/1 19/3/1 22/3/1
f 24/3/1 21/3/1 20/3/1
f 25/3/1 21/3/1 24/3/1
f 26/3/1 24/3/1 23/3/1
f 27/3/1 24/3/1 26/3/1
f 30/1/1 29/1/1 28/1/1
f 31/1/1 29/1/1 30/1/1
f 35/1/1 33/1/1 32/1/1
f 36/1/1 33/1/1 35/1/1
f 37/1/1 33/1/1 36/1/1
f 39/3/1 35/3/1 34/3/1
f 40/1/1 36/1/1 35/1/1
f 40/3/1 35/3/1 39/3/1
f 41/1/1 36/1/1 40/1/1
f 42/3/1 38/3/1 37/3/1
f 42/1/1 36/1/1 41/1/1
f 42/3/1 37/3/1 36/3/1
f 43/3/1 38/3/1 42/3/1
f 44/3/1 38/3/1 43/3/1
f 47/3/1 46/3/1 45/3/1
f 48/3/1 46/3/1 47/3/1
f 49/3/1 47/3/1 45/3/1
f 50/3/1 46/3/1 48/3/1
f 51/3/1 49/3/1 45/3/1
f 51/3/1 50/3/1 49/3/1
f 52/3/1 46/3/1 50/3/1
f 52/3/1 50/3/1 51/3/1
f 55/1/1 54/1/1 53/1/1
f 57/1/1 55/1/1 53/1/1
f 57/1/1 56/1/1 55/1/1
f 58/1/1 56/1/1 57/1/1
f 61/1/1 60/1/1 59/1/1
f 63/1/1 61/1/1 59/1/1
f 63/1/1 62/1/1 61/1/1
f 64/1/1 62/1/1 63/1/1
f 65/1/1 63/1/1 59/1/1
f 66/1/1 63/1/1 65/1/1
f 69/2/1 68/2/1 67/2/1
f 70/2/1 68/2/1 69/2/1
f 73/1/1 72/1/1 71/1/1
f 74/1/1 72/1/1 73/1/1
f 77/1/1 76/1/1 75/1/1
f 78/1/1 76/1/1 77/1/1
f 83/3/1 80/3/1 79/3/1
f 84/3/1 80/3/1 83/3/1
f 85/3/1 82/3/1 81/3/1
f 86/3/1 82/3/1 85/3/1
f 87/3/1 85/3/1 84/3/1
f 88/3/1 85/3/1 87/3/1
f 92/1/1 90/1/1 89/1/1
f 93/1/1 90/1/1 92/1/1
f 95/3/1 92/3/1 91/3/1
f 95/3/1 94/3/1 93/3/1
f 95/3/1 93/3/1 92/3/1
f 96/3/1 94/3/1 95/3/1
f 97/3/1 95/3/1 91/3/1
f 98/3/1 94/3/1 96/3/1
f 99/3/1 97/3/1 91/3/1
f 99/3/1 98/3/1 97/3/1
f 100/3/1 94/3/1 98/3/1
f 100/3/1 98/3/1 99/3/1
f 103/2/1 102/2/1 101/2/1
f 104/2/1 102/2/1 103/2/1
f 108/3/1 106/3/1 105/3/1
f 109/3/1 106/3/1 108/3/1
f 111/3/1 108/3/1 107/3/1
f 112/3/1 108/3/1 111/3/1
f 113/3/1 110/3/1 109/3/1
f 114/3/1 110/3/1 113/3/1
f 115/3/1 113/3/1 112/3/1
f 116/3/1 113/3/1 115/3/1
f 117/3/2 118/3/2 121/3/2
f 121/3/2 118/3/2 122/3/2
f 119/3/2 120/3/2 123/3/2
f 123/3/2 120/3/2 124/3/2
f 122/3/2 123/3/2 125/3/2
f 125/3/2 123/3/2 126/3/2
f 127/1/2 128/1/2 129/1/2
f 129/1/2 128/1/2 130/1/2
f 131/2/2 132/2/2 133/2/2
f 133/2/2 132/2/2 134/2/2
f 135/3/2 136/3/2 138/3/2
f 136/3/2 137/3/2 138/3/2
f 138/3/2 137/3/2 139/3/2
f 135/3/2 138/3/2 140/3/2
f 139/3/2 137/3/2 141/3/2
f 135/3/2 140/3/2 142/3/2
f 140/3/2 141/3/2 142/3/2
f 141/3/2 137/3/2 143/3/2
f 142/3/2 141/3/2 143/3/2
f 144/1/2 145/1/2 148/1/2
f 148/1/2 145/1/2 149/1/2
f 146/3/2 147/3/2 150/3/2
f 150/3/2 147/3/2 151/3/2
f 152/3/2 153/3/2 156/3/2
f 156/3/2 153/3/2 157/3/2
f 154/3/2 155/3/2 158/3/2
f 158/3/2 155/3/2 159/3/2
f 157/3/2 158/3/2 160/3/2
f 160/3/2 158/3/2 161/3/2
f 162/1/2 163/1/2 166/1/2
f 163/3/2 164/3/2 167/3/2
f 165/1/2 166/1/2 167/1/2
f 166/1/2 163/1/2 167/1/2
f 167/3/2 164/3/2 168/3/2
f 165/1/2 167/1/2 169/1/2
f 169/1/2 167/1/2 170/1/2
f 165/1/2 169/1/2 171/1/2
f 171/1/2 169/1/2 172/1/2
f 173/2/2 174/2/2 175/2/2
f 175/2/2 174/2/2 176/2/2
f 177/1/2 178/1/2 180/1/2
f 180/1/2 178/1/2 181/1/2
f 181/1/2 178/1/2 182/1/2
f 179/1/2 180/1/2 183/1/2
f 180/1/2 181/1/2 183/1/2
f 183/1/2 181/1/2 184/1/2
f 184/1/2 181/1/2 185/1/2
f 183/1/2 184/1/2 186/1/2
f 186/1/2 184/1/2 187/1/2
f 188/3/2 189/3/2 190/3/2
f 190/3/2 189/3/2 191/3/2
f 188/3/2 190/3/2 192/3/2
f 191/3/2 189/3/2 193/3/2
f 188/3/2 192/3/2 194/3/2
f 192/3/2 193/3/2 194/3/2
f 193/3/2 189/3/2 195/3/2
f 194/3/2 193/3/2 195/3/2
f 196/1/2 197/1/2 198/1/2
f 198/1/2 197/1/2 199/1/2
f 200/1/2 201/1/2 202/1/2
f 202/1/2 201/1/2 203/1/2
f 203/1/2 201/1/2 204/1/2
f 202/3/2 203/3/2 206/3/2
f 206/3/2 203/3/2 207/3/2
f 205/3/2 206/3/2 209/3/2
f 209/3/2 206/3/2 210/3/2
f 207/3/2 208/3/2 211/3/2
f 211/3/2 208/3/2 212/3/2
f 210/3/2 211/3/2 213/3/2
f 213/3/2 211/3/2 214/3/2
f 215/2/2 216/2/2 217/2/2
f 217/2/2 216/2/2 218/2/2
f 219/3/2 220/3/2 221/3/2
f 221/3/2 220/3/2 222/3/2
f 219/3/2 221/3/2 223/3/2
f 222/3/2 220/3/2 224/3/2
f 219/3/2 223/3/2 225/3/2
f 223/3/2 224/3/2 225/3/2
f 224/3/2 220/3/2 226/3/2
f 225/3/2 224/3/2 226/3/2
f 229/3/3 228/3/3 227/3/3
f 230/3/3 228/3/3 229/3/3
f 231/3/3 229/3/3 227/3/3
f 232/3/3 228/3/3 230/3/3
f 233/3/3 231/3/3 227/3/3
f 233/3/3 232/3/3 231/3/3
f 234/3/3 228/3/3 232/3/3
f 234/3/3 232/3/3 233/3/3
f 237/3/3 236/3/3 235/3/3
f 238/3/3 236/3/3 237/3/3
f 239/3/3 237/3/3 235/3/3
f 240/3/3 236/3/3 238/3/3
f 243/3/3 239/3/3 235/3/3
f 243/3/3 240/3/3 239/3/3
f 244/3/3 236/3/3 240/3/3
f 244/3/3 240/3/3 243/3/3
f 245/1/3 242/1/3 241/1/3
f 246/1/3 242/1/3 245/1/3
f 249/2/3 248/2/3 247/2/3
f 250/2/3 248/2/3 249/2/3
f 253/3/3 252/3/3 251/3/3
f 254/3/3 252/3/3 253/3/3
f 259/2/3 256/2/3 255/2/3
f 260/2/3 256/2/3 259/2/3
f 261/1/3 258/1/3 257/1/3
f 262/1/3 258/1/3 261/1/3
f 266/3/3 264/3/3 263/3/3
f 267/3/3 264/3/3 266/3/3
f 269/3/3 266/3/3 265/3/3
f 270/3/3 266/3/3 269/3/3
f 271/3/3 268/3/3 267/3/3
f 272/3/3 268/3/3 271/3/3
f 273/3/3 271/3/3 270/3/3
f 274/3/3 271/3/3 273/3/3
f 280/1/3 276/1/3 275/1/3
f 281/1/3 276/1/3 280/1/3
f 284/3/3 278/3/3 277/3/3
f 285/3/3 278/3/3 284/3/3
f 287/1/3 283/1/3 282/1/3
f 287/1/3 280/1/3 279/1/3
f 287/1/3 281/1/3 280/1/3
f 287/1/3 282/1/3 281/1/3
f 288/1/3 283/1/3 287/1/3
f 289/1/3 283/1/3 288/1/3
f 291/3/3 286/3/3 285/3/3
f 292/3/3 286/3/3 291/3/3
f 293/1/3 287/1/3 279/1/3
f 294/1/3 287/1/3 293/1/3
f 295/3/3 291/3/3 290/3/3
f 296/3/3 291/3/3 295/3/3
f 297/1/3 293/1/3 279/1/3
f 298/1/3 293/1/3 297/1/3
f 303/1/3 300/1/3 299/1/3
f 304/1/3 302/1/3 301/1/3
f 305/1/3 302/1/3 304/1/3
f 306/1/3 300/1/3 303/1/3
f 307/1/3 300/1/3 306/1/3
f 310/3/3 309/3/3 308/3/3
f 311/3/3 309/3/3 310/3/3
f 312/3/3 309/3/3 311/3/3
f 313/3/3 311/3/3 310/3/3
f 314/3/3 309/3/3 312/3/3
f 315/3/3 313/3/3 310/3/3
f 315/3/3 314/3/3 313/3/3
f 316/3/3 309/3/3 314/3/3
f 316/3/3 314/3/3 315/3/3
f 319/2/3 318/2/3 317/2/3
f 320/2/3 318/2/3 319/2/3
f 323/3/3 322/3/3 321/3/3
f 324/3/3 322/3/3 323/3/3
f 327/3/3 325/3/3 324/3/3
f 328/3/3 325/3/3 327/3/3
f 329/3/3 327/3/3 326/3/3
f 330/3/3 327/3/3 329/3/3
f 331/3/4 332/3/4 334/3/4
f 334/3/4 332/3/4 335/3/4
f 333/3/4 334/3/4 337/3/4
f 337/3/4 334/3/4 338/3/4
f 335/3/4 336/3/4 339/3/4
f 339/3/4 336/3/4 340/3/4
f 338/3/4 339/3/4 341/3/4
f 341/3/4 339/3/4 342/3/4
f 343/3/4 344/3/4 345/3/4
f 345/3/4 344/3/4 346/3/4
f 346/3/4 347/3/4 349/3/4
f 349/3/4 347/3/4 350/3/4
f 348/3/4 349/3/4 351/3/4
f 351/3/4 349/3/4 352/3/4
f 353/2/4 354/2/4 355/2/4
f 355/2/4 354/2/4 356/2/4
f 357/2/4 358/2/4 359/2/4
f 359/2/4 358/2/4 360/2/4
f 361/1/4 362/1/4 364/1/4
f 362/3/4 363/3/4 365/3/4
f 364/1/4 362/1/4 365/1/4
f 365/3/4 363/3/4 366/3/4
f 366/3/4 363/3/4 367/3/4
f 365/3/4 366/3/4 368/3/4
f 367/3/4 363/3/4 369/3/4
f 365/3/4 368/3/4 370/3/4
f 368/3/4 369/3/4 370/3/4
f 369/3/4 363/3/4 371/3/4
f 370/3/4 369/3/4 371/3/4
f 372/3/4 373/3/4 375/3/4
f 375/3/4 373/3/4 376/3/4
f 376/3/4 373/3/4 377/3/4
f 374/1/4 375/1/4 380/1/4
f 375/3/4 376/3/4 381/3/4
f 380/1/4 375/1/4 381/1/4
f 381/3/4 376/3/4 382/3/4
f 377/3/4 373/3/4 383/3/4
f 378/1/4 379/1/4 386/1/4
f 386/1/4 379/1/4 387/1/4
f 381/3/4 382/3/4 388/3/4
f 382/3/4 383/3/4 388/3/4
f 383/3/4 373/3/4 389/3/4
f 388/3/4 383/3/4 389/3/4
f 384/1/4 385/1/4 390/1/4
f 390/1/4 385/1/4 391/1/4
f 392/1/4 393/1/4 396/1/4
f 396/1/4 393/1/4 397/1/4
f 394/1/4 395/1/4 398/1/4
f 399/1/4 400/1/4 403/1/4
f 394/1/4 398/1/4 403/1/4
f 398/1/4 399/1/4 403/1/4
f 403/1/4 400/1/4 404/1/4
f 404/1/4 400/1/4 405/1/4
f 401/1/4 402/1/4 406/1/4
f 406/1/4 402/1/4 407/1/4
f 404/1/4 405/1/4 408/1/4
f 408/1/4 405/1/4 409/1/4
f 410/3/4 411/3/4 412/3/4
f 412/3/4 411/3/4 413/3/4
f 413/3/4 414/3/4 416/3/4
f 416/3/4 414/3/4 417/3/4
f 415/3/4 416/3/4 420/3/4
f 420/3/4 416/3/4 421/3/4
f 418/1/4 419/1/4 422/1/4
f 422/1/4 419/1/4 423/1/4
f 424/1/4 425/1/4 426/1/4
f 426/1/4 425/1/4 427/1/4
f 428/1/4 429/1/4 432/1/4
f 432/1/4 429/1/4 433/1/4
f 430/2/4 431/2/4 434/2/4
f 434/2/4 431/2/4 435/2/4
f 436/3/4 437/3/4 438/3/4
f 438/3/4 437/3/4 439/3/4
f 440/3/4 441/3/4 442/3/4
f 442/3/4 441/3/4 443/3/4
f 440/3/4 442/3/4 444/3/4
f 443/3/4 441/3/4 445/3/4
f 440/3/4 444/3/4 446/3/4
f 444/3/4 445/3/4 446/3/4
f 445/3/4 441/3/4 447/3/4
f 446/3/4 445/3/4 447/3/4
f 451/1/5 449/1/5 448/1/5
f 452/1/5 449/1/5 451/1/5
f 453/1/5 449/1/5 452/1/5
f 454/1/5 451/1/5 450/1/5
f 454/1/5 452/1/5 451/1/5
f 455/1/5 452/1/5 454/1/5
f 456/1/5 452/1/5 455/1/5
f 457/1/5 452/1/5 456/1/5
f 460/1/5 459/1/5 458/1/5
f 461/1/5 460/1/5 458/1/5
f 462/1/5 460/1/5 461/1/5
f 468/1/5 464/1/5 463/1/5
f 469/3/5 466/3/5 465/3/5
f 470/3/5 466/3/5 469/3/5
f 471/1/5 468/1/5 467/1/5
f 472/1/5 464/1/5 468/1/5
f 472/1/5 468/1/5 471/1/5
f 473/1/5 464/1/5 472/1/5
f 477/3/5 475/3/5 474/3/5
f 478/3/5 477/3/5 476/3/5
f 479/3/5 475/3/5 477/3/5
f 479/3/5 477/3/5 478/3/5
f 482/3/5 481/3/5 480/3/5
f 483/3/5 481/3/5 482/3/5
f 484/3/5 481/3/5 483/3/5
f 486/3/5 481/3/5 484/3/5
f 487/3/5 486/3/5 485/3/5
f 488/3/5 481/3/5 486/3/5
f 488/3/5 486/3/5 487/3/5
f 491/1/5 490/1/5 489/1/5
f 492/1/5 490/1/5 491/1/5
f 493/1/5 491/1/5 489/1/5
f 494/1/5 491/1/5 493/1/5
f 497/2/5 496/2/5 495/2/5
f 498/2/5 496/2/5 497/2/5
f 503/3/5 500/3/5 499/3/5
f 504/3/5 502/3/5 501/3/5
f 505/3/5 502/3/5 504/3/5
f 506/3/5 503/3/5 499/3/5
f 506/3/5 504/3/5 503/3/5
f 506/3/5 505/3/5 504/3/5
f 507/3/5 505/3/5 506/3/5
f 511/3/5 509/3/5 508/3/5
f 512/3/5 509/3/5 511/3/5
f 514/3/5 511/3/5 510/3/5
f 515/3/5 511/3/5 514/3/5
f 516/3/5 513/3/5 512/3/5
f 517/3/5 513/3/5 516/3/5
f 518/3/5 516/3/5 515/3/5
f 519/3/5 516/3/5 518/3/5
f 522/3/5 521/3/5 520/3/5
f 523/3/5 521/3/5 522/3/5
f 524/3/5 522/3/5 520/3/5
f 524/1/5 523/1/5 522/1/5
f 525/3/5 521/3/5 523/3/5
f 525/1/5 523/1/5 524/1/5
f 526/3/5 524/3/5 520/3/5
f 527/3/5 524/3/5 526/3/5
f 528/3/5 521/3/5 525/3/5
f 529/3/5 521/3/5 528/3/5
f 533/3/5 531/3/5 530/3/5
f 534/3/5 531/3/5 533/3/5
f 536/3/5 533/3/5 532/3/5
f 537/3/5 533/3/5 536/3/5
f 538/3/5 535/3/5 534/3/5
f 539/3/5 535/3/5 538/3/5
f 540/3/5 538/3/5 537/3/5
f 541/3/5 538/3/5 540/3/5
f 545/3/5 543/3/5 542/3/5
f 546/3/5 543/3/5 545/3/5
f 548/3/5 545/3/5 544/3/5
f 549/3/5 545/3/5 548/3/5
f 550/3/5 547/3/5 546/3/5
f 551/3/5 547/3/5 550/3/5
f 552/3/5 550/3/5 549/3/5
f 553/3/5 550/3/5 552/3/5
f 554/1/6 555/1/6 558/1/6
f 558/1/6 555/1/6 559/1/6
f 556/1/6 557/1/6 560/1/6
f 560/1/6 557/1/6 561/1/6
f 562/1/6 563/1/6 564/1/6
f 564/1/6 563/1/6 565/1/6
f 566/1/6 567/1/6 568/1/6
f 568/1/6 567/1/6 569/1/6
f 570/3/6 571/3/6 574/3/6
f 574/3/6 571/3/6 575/3/6
f 572/1/6 573/1/6 576/1/6
f 576/1/6 573/1/6 577/1/6
f 574/1/6 575/1/6 578/1/6
f 578/1/6 575/1/6 579/1/6
f 576/1/6 577/1/6 580/1/6
f 580/1/6 577/1/6 581/1/6
f 582/3/6 583/3/6 585/3/6
f 585/3/6 583/3/6 586/3/6
f 584/3/6 585/3/6 588/3/6
f 588/3/6 585/3/6 589/3/6
f 586/3/6 587/3/6 590/3/6
f 590/3/6 587/3/6 591/3/6
f 589/3/6 590/3/6 592/3/6
f 592/3/6 590/3/6 593/3/6
f 594/1/6 595/1/6 596/1/6
f 596/1/6 595/1/6 597/1/6
f 597/1/6 595/1/6 598/1/6
f 598/3/6 599/3/6 600/3/6
f 597/3/6 598/3/6 600/3/6
f 600/3/6 599/3/6 601/3/6
f 602/2/6 603/2/6 604/2/6
f 604/2/6 603/2/6 605/2/6
f 606/3/6 607/3/6 609/3/6
f 609/3/6 607/3/6 610/3/6
f 608/3/6 609/3/6 612/3/6
f 612/3/6 609/3/6 613/3/6
f 610/3/6 611/3/6 614/3/6
f 614/3/6 611/3/6 615/3/6
f 613/3/6 614/3/6 616/3/6
f 616/3/6 614/3/6 617/3/6
f 618/3/6 619/3/6 620/3/6
f 620/3/6 619/3/6 621/3/6
f 618/3/6 620/3/6 622/3/6
f 621/3/6 619/3/6 623/3/6
f 618/3/6 622/3/6 624/3/6
f 622/3/6 623/3/6 624/3/6
f 623/3/6 619/3/6 625/3/6
f 624/3/6 623/3/6 625/3/6
f 626/1/6 627/1/6 628/1/6
f 628/1/6 627/1/6 629/1/6
f 630/2/6 631/2/6 632/2/6
f 632/2/6 631/2/6 633/2/6
f 634/3/6 635/3/6 637/3/6
f 637/3/6 635/3/6 638/3/6
f 636/3/6 637/3/6 640/3/6
f 640/3/6 637/3/6 641/3/6
f 638/3/6 639/3/6 642/3/6
f 642/3/6 639/3/6 643/3/6
f 641/3/6 642/3/6 644/3/6
f 644/3/6 642/3/6 645/3/6
f 646/3/6 647/3/6 648/3/6
f 648/3/6 647/3/6 649/3/6
f 646/3/6 648/3/6 650/3/6
f 649/3/6 647/3/6 651/3/6
f 646/3/6 650/3/6 652/3/6
f 650/3/6 651/3/6 652/3/6
f 651/3/6 647/3/6 653/3/6
f 652/3/6 651/3/6 653/3/6
f 654/2/6 655/2/6 656/2/6
f 656/2/6 655/2/6 657/2/6
f 658/3/6 659/3/6 660/3/6
f 660/3/6 659/3/6 661/3/6
f 658/3/6 660/3/6 662/3/6
f 661/3/6 659/3/6 663/3/6
f 658/3/6 662/3/6 664/3/6
f 662/3/6 663/3/6 664/3/6
f 663/3/6 659/3/6 665/3/6
f 664/3/6 663/3/6 665/3/6
