# MagicaVoxel @ Ephtracy

# material
mtllib Tree_type1_04_snow.mtl
usemtl palette

# normals
vn -1 0 0
vn 1 0 0
vn 0 0 1
vn 0 0 -1
vn 0 -1 0
vn 0 1 0

# texcoords
vt 0.279297 0.5
vt 0.529297 0.5
vt 0.556641 0.5
vt 0.962891 0.5
vt 0.966797 0.5

# verts
v -4.5 5 -1
v -4.5 5 -4
v -4.5 6 -2
v -4.5 6 -3
v -4.5 8 -1
v -4.5 8 -2
v -4.5 8 -3
v -4.5 8 -4
v -4.5 9 -1
v -4.5 9 -4
v -3.5 4 -0
v -3.5 4 -1
v -3.5 4 -3
v -3.5 5 -0
v -3.5 5 -1
v -3.5 5 -3
v -3.5 6 -2
v -3.5 6 -3
v -3.5 8 -2
v -3.5 8 -3
v -2.5 6 -1
v -2.5 6 -2
v -2.5 6 -3
v -2.5 6 -4
v -2.5 8 -1
v -2.5 8 -2
v -2.5 8 -3
v -2.5 8 -4
v -2.5 9 -2
v -2.5 9 -3
v -1.5 0 -0
v -1.5 0 -1
v -1.5 1 -0
v -1.5 1 -1
v -1.5 2 1
v -1.5 2 -2
v -1.5 3 2
v -1.5 3 1
v -1.5 3 -1
v -1.5 3 -2
v -1.5 3 -3
v -1.5 4 2
v -1.5 4 1
v -1.5 4 -0
v -1.5 4 -1
v -1.5 4 -3
v -1.5 5 -1
v -1.5 5 -3
v -1.5 8 3
v -1.5 8 -0
v -1.5 9 2
v -1.5 9 1
v -1.5 10 3
v -1.5 10 2
v -1.5 10 1
v -1.5 10 -0
v -1.5 11 3
v -1.5 11 -0
v -0.5 0 1
v -0.5 0 -0
v -0.5 1 -0
v -0.5 1 -1
v -0.5 2 1
v -0.5 2 -1
v -0.5 4 1
v -0.5 4 -0
v -0.5 5 -0
v -0.5 5 -1
v -0.5 6 -0
v -0.5 6 -1
v -0.5 7 -0
v -0.5 7 -1
v -0.5 8 1
v -0.5 8 -0
v -0.5 9 2
v -0.5 9 1
v -0.5 10 2
v -0.5 10 1
v 0.5 0 -1
v 0.5 0 -2
v 0.5 1 -1
v 0.5 1 -2
v 0.5 3 2
v 0.5 3 1
v 0.5 4 2
v 0.5 4 1
v 0.5 9 3
v 0.5 9 2
v 0.5 9 1
v 0.5 9 -0
v 0.5 10 3
v 0.5 10 2
v 0.5 10 1
v 0.5 10 -0
v 0.5 11 2
v 0.5 11 1
v 1.5 3 3
v 1.5 3 2
v 1.5 4 4
v 1.5 4 3
v 1.5 4 2
v 1.5 4 1
v 1.5 5 3
v 1.5 5 2
v 1.5 6 4
v 1.5 6 3
v 1.5 6 2
v 1.5 6 1
v 1.5 7 4
v 1.5 7 2
v 1.5 7 1
v 2.5 5 3
v 2.5 5 2
v 2.5 6 3
v 2.5 6 2
v 3.5 4 3
v 3.5 4 2
v 3.5 5 4
v 3.5 5 3
v 3.5 5 2
v 3.5 5 1
v 3.5 6 4
v 3.5 6 3
v 3.5 6 2
v 3.5 6 1
v 3.5 7 3
v 3.5 7 2
v -3.5 6 -1
v -3.5 6 -2
v -3.5 6 -3
v -3.5 6 -4
v -3.5 8 -1
v -3.5 8 -2
v -3.5 8 -3
v -3.5 8 -4
v -3.5 9 -2
v -3.5 9 -3
v -2.5 4 -1
v -2.5 4 -3
v -2.5 5 -1
v -2.5 5 -3
v -2.5 6 -2
v -2.5 6 -3
v -2.5 8 -2
v -2.5 8 -3
v -1.5 5 -1
v -1.5 5 -3
v -1.5 5 -4
v -1.5 6 -2
v -1.5 6 -3
v -1.5 8 -1
v -1.5 8 -2
v -1.5 8 -3
v -1.5 8 -4
v -1.5 9 -1
v -1.5 9 -3
v -1.5 9 -4
v -0.5 2 -1
v -0.5 2 -2
v -0.5 3 2
v -0.5 3 1
v -0.5 3 -1
v -0.5 3 -2
v -0.5 4 2
v -0.5 4 1
v -0.5 9 3
v -0.5 9 2
v -0.5 9 1
v -0.5 9 -0
v -0.5 10 3
v -0.5 10 2
v -0.5 10 1
v -0.5 10 -0
v -0.5 11 2
v -0.5 11 1
v 0.5 3 -0
v 0.5 3 -1
v 0.5 3 -3
v 0.5 4 1
v 0.5 4 -0
v 0.5 4 -1
v 0.5 4 -3
v 0.5 5 -1
v 0.5 5 -3
v 0.5 6 -0
v 0.5 6 -1
v 0.5 7 -0
v 0.5 7 -1
v 0.5 8 1
v 0.5 8 -0
v 0.5 9 2
v 0.5 9 1
v 0.5 10 2
v 0.5 10 1
v 1.5 0 -0
v 1.5 0 -2
v 1.5 1 1
v 1.5 1 -0
v 1.5 1 -1
v 1.5 1 -2
v 1.5 3 1
v 1.5 3 -0
v 1.5 3 -1
v 1.5 4 1
v 1.5 4 -0
v 1.5 8 3
v 1.5 8 -0
v 1.5 9 2
v 1.5 9 1
v 1.5 10 3
v 1.5 10 2
v 1.5 10 1
v 1.5 10 -0
v 1.5 11 3
v 1.5 11 -0
v 2.5 0 1
v 2.5 0 -0
v 2.5 1 1
v 2.5 1 -0
v 2.5 3 3
v 2.5 3 1
v 2.5 4 3
v 2.5 4 2
v 2.5 4 1
v 2.5 5 4
v 2.5 5 3
v 2.5 5 2
v 2.5 5 1
v 2.5 6 4
v 2.5 6 3
v 2.5 6 2
v 2.5 6 1
v 2.5 7 3
v 2.5 7 2
v 3.5 5 3
v 3.5 5 2
v 3.5 6 3
v 3.5 6 2
v 4.5 4 4
v 4.5 4 1
v 4.5 5 3
v 4.5 5 2
v 4.5 6 4
v 4.5 6 3
v 4.5 6 2
v 4.5 6 1
v 4.5 7 4
v 4.5 7 1
v 1.5 4 4
v 1.5 6 4
v 1.5 7 4
v 2.5 5 4
v 2.5 6 4
v 3.5 5 4
v 3.5 6 4
v 4.5 4 4
v 4.5 6 4
v 4.5 7 4
v -1.5 8 3
v -1.5 10 3
v -1.5 11 3
v -0.5 9 3
v -0.5 10 3
v 0.5 9 3
v 0.5 10 3
v 1.5 3 3
v 1.5 4 3
v 1.5 8 3
v 1.5 10 3
v 1.5 11 3
v 2.5 3 3
v 2.5 4 3
v 2.5 5 3
v 2.5 6 3
v 3.5 5 3
v 3.5 6 3
v -1.5 3 2
v -1.5 4 2
v -0.5 3 2
v -0.5 4 2
v -0.5 9 2
v -0.5 10 2
v 0.5 3 2
v 0.5 4 2
v 0.5 9 2
v 0.5 10 2
v 1.5 3 2
v 1.5 4 2
v 1.5 5 2
v 1.5 6 2
v 2.5 4 2
v 2.5 5 2
v 2.5 6 2
v 2.5 7 2
v 3.5 4 2
v 3.5 5 2
v 3.5 6 2
v 3.5 7 2
v 4.5 5 2
v 4.5 6 2
v -1.5 2 1
v -1.5 3 1
v -1.5 9 1
v -1.5 10 1
v -0.5 0 1
v -0.5 2 1
v -0.5 3 1
v -0.5 4 1
v -0.5 8 1
v -0.5 9 1
v -0.5 10 1
v -0.5 11 1
v 0.5 3 1
v 0.5 4 1
v 0.5 8 1
v 0.5 9 1
v 0.5 10 1
v 0.5 11 1
v 1.5 1 1
v 1.5 3 1
v 1.5 9 1
v 1.5 10 1
v 2.5 0 1
v 2.5 1 1
v -3.5 4 -0
v -3.5 5 -0
v -1.5 0 -0
v -1.5 1 -0
v -1.5 4 -0
v -0.5 0 -0
v -0.5 1 -0
v -0.5 4 -0
v -0.5 5 -0
v -4.5 5 -1
v -4.5 8 -1
v -4.5 9 -1
v -3.5 5 -1
v -3.5 6 -1
v -3.5 8 -1
v -2.5 6 -1
v -2.5 8 -1
v -1.5 5 -1
v -1.5 8 -1
v -1.5 9 -1
v -3.5 6 -2
v -3.5 8 -2
v -2.5 6 -2
v -2.5 8 -2
v -4.5 6 -3
v -4.5 8 -3
v -3.5 6 -3
v -3.5 8 -3
v -3.5 9 -3
v -2.5 6 -3
v -2.5 8 -3
v -2.5 9 -3
v -1.5 6 -3
v -1.5 8 -3
v 1.5 5 3
v 1.5 6 3
v 2.5 4 3
v 2.5 5 3
v 2.5 6 3
v 2.5 7 3
v 3.5 4 3
v 3.5 5 3
v 3.5 6 3
v 3.5 7 3
v 4.5 5 3
v 4.5 6 3
v -1.5 9 2
v -1.5 10 2
v -0.5 9 2
v -0.5 10 2
v -0.5 11 2
v 0.5 9 2
v 0.5 10 2
v 0.5 11 2
v 1.5 9 2
v 1.5 10 2
v 2.5 5 2
v 2.5 6 2
v 3.5 5 2
v 3.5 6 2
v -0.5 9 1
v -0.5 10 1
v 0.5 9 1
v 0.5 10 1
v 1.5 3 1
v 1.5 4 1
v 1.5 6 1
v 1.5 7 1
v 2.5 3 1
v 2.5 4 1
v 2.5 5 1
v 2.5 6 1
v 2.5 7 1
v 3.5 5 1
v 3.5 6 1
v 4.5 4 1
v 4.5 6 1
v 4.5 7 1
v -1.5 8 -0
v -1.5 10 -0
v -1.5 11 -0
v -0.5 7 -0
v -0.5 8 -0
v -0.5 9 -0
v -0.5 10 -0
v 0.5 3 -0
v 0.5 4 -0
v 0.5 7 -0
v 0.5 8 -0
v 0.5 9 -0
v 0.5 10 -0
v 1.5 0 -0
v 1.5 1 -0
v 1.5 3 -0
v 1.5 4 -0
v 1.5 8 -0
v 1.5 10 -0
v 1.5 11 -0
v 2.5 0 -0
v 2.5 1 -0
v -2.5 4 -1
v -2.5 5 -1
v -1.5 0 -1
v -1.5 1 -1
v -1.5 4 -1
v -1.5 5 -1
v -0.5 1 -1
v -0.5 2 -1
v -0.5 3 -1
v -0.5 5 -1
v -0.5 6 -1
v -0.5 7 -1
v 0.5 0 -1
v 0.5 1 -1
v 0.5 3 -1
v 0.5 5 -1
v 0.5 6 -1
v 0.5 7 -1
v 1.5 1 -1
v 1.5 3 -1
v -4.5 6 -2
v -4.5 8 -2
v -3.5 6 -2
v -3.5 8 -2
v -3.5 9 -2
v -2.5 6 -2
v -2.5 8 -2
v -2.5 9 -2
v -1.5 2 -2
v -1.5 3 -2
v -1.5 6 -2
v -1.5 8 -2
v -0.5 2 -2
v -0.5 3 -2
v 0.5 0 -2
v 0.5 1 -2
v 1.5 0 -2
v 1.5 1 -2
v -3.5 4 -3
v -3.5 5 -3
v -3.5 6 -3
v -3.5 8 -3
v -2.5 4 -3
v -2.5 5 -3
v -2.5 6 -3
v -2.5 8 -3
v -1.5 3 -3
v -1.5 4 -3
v -1.5 5 -3
v 0.5 3 -3
v 0.5 4 -3
v 0.5 5 -3
v -4.5 5 -4
v -4.5 8 -4
v -4.5 9 -4
v -3.5 6 -4
v -3.5 8 -4
v -2.5 6 -4
v -2.5 8 -4
v -2.5 9 -4
v -1.5 5 -4
v -1.5 8 -4
v -1.5 9 -4
v -0.5 0 1
v 2.5 0 1
v -1.5 0 -0
v -0.5 0 -0
v 1.5 0 -0
v 2.5 0 -0
v -1.5 0 -1
v 0.5 0 -1
v 0.5 0 -2
v 1.5 0 -2
v -1.5 2 1
v -0.5 2 1
v -0.5 2 -1
v -1.5 2 -2
v -0.5 2 -2
v 1.5 3 3
v 2.5 3 3
v -1.5 3 2
v -0.5 3 2
v 0.5 3 2
v 1.5 3 2
v -1.5 3 1
v -0.5 3 1
v 0.5 3 1
v 1.5 3 1
v 2.5 3 1
v -0.5 3 -1
v 0.5 3 -1
v -1.5 3 -2
v -0.5 3 -2
v -1.5 3 -3
v 0.5 3 -3
v 1.5 4 4
v 4.5 4 4
v 1.5 4 3
v 2.5 4 3
v 3.5 4 3
v 2.5 4 2
v 3.5 4 2
v 2.5 4 1
v 4.5 4 1
v -3.5 4 -0
v -1.5 4 -0
v -3.5 4 -1
v -2.5 4 -1
v -1.5 4 -1
v -3.5 4 -3
v -2.5 4 -3
v 2.5 5 3
v 3.5 5 3
v 2.5 5 2
v 3.5 5 2
v -4.5 5 -1
v -3.5 5 -1
v -2.5 5 -1
v -1.5 5 -1
v -3.5 5 -3
v -2.5 5 -3
v -1.5 5 -3
v -4.5 5 -4
v -1.5 5 -4
v 2.5 6 4
v 3.5 6 4
v 1.5 6 3
v 2.5 6 3
v 3.5 6 3
v 4.5 6 3
v 1.5 6 2
v 2.5 6 2
v 3.5 6 2
v 4.5 6 2
v 2.5 6 1
v 3.5 6 1
v -1.5 8 3
v 1.5 8 3
v -0.5 8 2
v 0.5 8 2
v -0.5 8 1
v 0.5 8 1
v -1.5 8 -0
v -0.5 8 -0
v 0.5 8 -0
v 1.5 8 -0
v -3.5 8 -1
v -2.5 8 -1
v -4.5 8 -2
v -3.5 8 -2
v -2.5 8 -2
v -1.5 8 -2
v -4.5 8 -3
v -3.5 8 -3
v -2.5 8 -3
v -1.5 8 -3
v -3.5 8 -4
v -2.5 8 -4
v -0.5 10 3
v 0.5 10 3
v -1.5 10 2
v -0.5 10 2
v 0.5 10 2
v 1.5 10 2
v -1.5 10 1
v -0.5 10 1
v 0.5 10 1
v 1.5 10 1
v -0.5 10 -0
v 0.5 10 -0
v 1.5 1 1
v 2.5 1 1
v -1.5 1 -0
v -0.5 1 -0
v 1.5 1 -0
v 2.5 1 -0
v -1.5 1 -1
v -0.5 1 -1
v 0.5 1 -1
v 1.5 1 -1
v 0.5 1 -2
v 1.5 1 -2
v 0.5 3 -0
v 1.5 3 -0
v 0.5 3 -1
v 1.5 3 -1
v -1.5 4 2
v -0.5 4 2
v 0.5 4 2
v 1.5 4 2
v -1.5 4 1
v -0.5 4 1
v 0.5 4 1
v 1.5 4 1
v -1.5 4 -0
v -0.5 4 -0
v 0.5 4 -0
v 1.5 4 -0
v 2.5 5 4
v 3.5 5 4
v 1.5 5 3
v 2.5 5 3
v 3.5 5 3
v 4.5 5 3
v 1.5 5 2
v 2.5 5 2
v 3.5 5 2
v 4.5 5 2
v 2.5 5 1
v 3.5 5 1
v -3.5 5 -0
v -0.5 5 -0
v -3.5 5 -1
v -1.5 5 -1
v -0.5 5 -1
v 0.5 5 -1
v -1.5 5 -3
v 0.5 5 -3
v 2.5 6 3
v 3.5 6 3
v 2.5 6 2
v 3.5 6 2
v -3.5 6 -1
v -2.5 6 -1
v -4.5 6 -2
v -3.5 6 -2
v -2.5 6 -2
v -1.5 6 -2
v -4.5 6 -3
v -3.5 6 -3
v -2.5 6 -3
v -1.5 6 -3
v -3.5 6 -4
v -2.5 6 -4
v 1.5 7 4
v 4.5 7 4
v 2.5 7 3
v 3.5 7 3
v 1.5 7 2
v 2.5 7 2
v 3.5 7 2
v 1.5 7 1
v 2.5 7 1
v 4.5 7 1
v -0.5 7 -0
v 0.5 7 -0
v -0.5 7 -1
v 0.5 7 -1
v -3.5 8 -2
v -2.5 8 -2
v -3.5 8 -3
v -2.5 8 -3
v -0.5 9 3
v 0.5 9 3
v -1.5 9 2
v -0.5 9 2
v 0.5 9 2
v 1.5 9 2
v -1.5 9 1
v -0.5 9 1
v 0.5 9 1
v 1.5 9 1
v -0.5 9 -0
v 0.5 9 -0
v -4.5 9 -1
v -1.5 9 -1
v -3.5 9 -2
v -2.5 9 -2
v -3.5 9 -3
v -2.5 9 -3
v -1.5 9 -3
v -4.5 9 -4
v -2.5 9 -4
v -1.5 9 -4
v -0.5 10 2
v 0.5 10 2
v -0.5 10 1
v 0.5 10 1
v -1.5 11 3
v 1.5 11 3
v -0.5 11 2
v 0.5 11 2
v -0.5 11 1
v 0.5 11 1
v -1.5 11 -0
v 1.5 11 -0

# faces
f 3/3/1 2/3/1 1/3/1
f 4/3/1 2/3/1 3/3/1
f 5/3/1 3/3/1 1/3/1
f 6/3/1 3/3/1 5/3/1
f 7/3/1 2/3/1 4/3/1
f 8/3/1 2/3/1 7/3/1
f 9/4/1 6/4/1 5/4/1
f 9/4/1 7/4/1 6/4/1
f 9/4/1 8/4/1 7/4/1
f 10/4/1 8/4/1 9/4/1
f 14/4/1 12/4/1 11/4/1
f 15/1/1 13/1/1 12/1/1
f 15/4/1 12/4/1 14/4/1
f 16/1/1 13/1/1 15/1/1
f 19/2/1 18/2/1 17/2/1
f 20/2/1 18/2/1 19/2/1
f 25/3/1 22/3/1 21/3/1
f 26/3/1 22/3/1 25/3/1
f 27/3/1 24/3/1 23/3/1
f 28/3/1 24/3/1 27/3/1
f 29/4/1 27/4/1 26/4/1
f 30/4/1 27/4/1 29/4/1
f 33/1/1 32/1/1 31/1/1
f 34/1/1 32/1/1 33/1/1
f 38/1/1 36/1/1 35/1/1
f 39/1/1 36/1/1 38/1/1
f 40/1/1 36/1/1 39/1/1
f 42/3/1 38/3/1 37/3/1
f 43/1/1 39/1/1 38/1/1
f 43/3/1 38/3/1 42/3/1
f 44/1/1 39/1/1 43/1/1
f 45/3/1 41/3/1 40/3/1
f 45/1/1 39/1/1 44/1/1
f 45/3/1 40/3/1 39/3/1
f 46/3/1 41/3/1 45/3/1
f 47/4/1 46/4/1 45/4/1
f 48/4/1 46/4/1 47/4/1
f 51/3/1 50/3/1 49/3/1
f 52/3/1 50/3/1 51/3/1
f 53/3/1 51/3/1 49/3/1
f 54/3/1 51/3/1 53/3/1
f 55/3/1 50/3/1 52/3/1
f 56/3/1 50/3/1 55/3/1
f 57/4/1 54/4/1 53/4/1
f 57/4/1 55/4/1 54/4/1
f 57/4/1 56/4/1 55/4/1
f 58/4/1 56/4/1 57/4/1
f 61/1/1 60/1/1 59/1/1
f 63/1/1 61/1/1 59/1/1
f 63/1/1 62/1/1 61/1/1
f 64/1/1 62/1/1 63/1/1
f 67/1/1 66/1/1 65/1/1
f 69/1/1 67/1/1 65/1/1
f 69/1/1 68/1/1 67/1/1
f 70/1/1 68/1/1 69/1/1
f 71/1/1 69/1/1 65/1/1
f 71/4/1 70/4/1 69/4/1
f 72/4/1 70/4/1 71/4/1
f 73/1/1 71/1/1 65/1/1
f 74/1/1 71/1/1 73/1/1
f 77/2/1 76/2/1 75/2/1
f 78/2/1 76/2/1 77/2/1
f 81/1/1 80/1/1 79/1/1
f 82/1/1 80/1/1 81/1/1
f 85/4/1 84/4/1 83/4/1
f 86/4/1 84/4/1 85/4/1
f 91/3/1 88/3/1 87/3/1
f 92/3/1 88/3/1 91/3/1
f 93/3/1 90/3/1 89/3/1
f 94/3/1 90/3/1 93/3/1
f 95/4/1 93/4/1 92/4/1
f 96/4/1 93/4/1 95/4/1
f 100/1/1 98/1/1 97/1/1
f 101/1/1 98/1/1 100/1/1
f 103/3/1 100/3/1 99/3/1
f 103/3/1 102/3/1 101/3/1
f 103/3/1 101/3/1 100/3/1
f 104/3/1 102/3/1 103/3/1
f 105/3/1 103/3/1 99/3/1
f 106/3/1 103/3/1 105/3/1
f 107/3/1 102/3/1 104/3/1
f 108/3/1 102/3/1 107/3/1
f 109/4/1 106/4/1 105/4/1
f 109/4/1 107/4/1 106/4/1
f 110/5/1 108/5/1 107/5/1
f 110/4/1 107/4/1 109/4/1
f 111/5/1 108/5/1 110/5/1
f 114/2/1 113/2/1 112/2/1
f 115/2/1 113/2/1 114/2/1
f 119/3/1 117/3/1 116/3/1
f 120/3/1 117/3/1 119/3/1
f 122/3/1 119/3/1 118/3/1
f 123/3/1 119/3/1 122/3/1
f 124/3/1 121/3/1 120/3/1
f 125/3/1 121/3/1 124/3/1
f 126/4/1 124/4/1 123/4/1
f 127/4/1 124/4/1 126/4/1
f 128/3/2 129/3/2 132/3/2
f 132/3/2 129/3/2 133/3/2
f 130/3/2 131/3/2 134/3/2
f 134/3/2 131/3/2 135/3/2
f 133/4/2 134/4/2 136/4/2
f 136/4/2 134/4/2 137/4/2
f 138/1/2 139/1/2 140/1/2
f 140/1/2 139/1/2 141/1/2
f 142/2/2 143/2/2 144/2/2
f 144/2/2 143/2/2 145/2/2
f 146/3/2 147/3/2 149/3/2
f 147/3/2 148/3/2 149/3/2
f 149/3/2 148/3/2 150/3/2
f 146/3/2 149/3/2 151/3/2
f 151/3/2 149/3/2 152/3/2
f 150/3/2 148/3/2 153/3/2
f 153/3/2 148/3/2 154/3/2
f 151/4/2 152/4/2 155/4/2
f 152/4/2 153/4/2 155/4/2
f 153/5/2 154/5/2 156/5/2
f 155/4/2 153/4/2 156/4/2
f 156/5/2 154/5/2 157/5/2
f 158/1/2 159/1/2 162/1/2
f 162/1/2 159/1/2 163/1/2
f 160/3/2 161/3/2 164/3/2
f 164/3/2 161/3/2 165/3/2
f 166/3/2 167/3/2 170/3/2
f 170/3/2 167/3/2 171/3/2
f 168/3/2 169/3/2 172/3/2
f 172/3/2 169/3/2 173/3/2
f 171/4/2 172/4/2 174/4/2
f 174/4/2 172/4/2 175/4/2
f 176/1/2 177/1/2 180/1/2
f 177/3/2 178/3/2 181/3/2
f 180/1/2 177/1/2 181/1/2
f 181/3/2 178/3/2 182/3/2
f 179/1/2 180/1/2 183/1/2
f 180/1/2 181/1/2 183/1/2
f 181/4/2 182/4/2 183/4/2
f 183/4/2 182/4/2 184/4/2
f 179/1/2 183/1/2 185/1/2
f 185/1/2 183/1/2 186/1/2
f 179/1/2 185/1/2 187/1/2
f 185/4/2 186/4/2 187/4/2
f 187/4/2 186/4/2 188/4/2
f 179/1/2 187/1/2 189/1/2
f 189/1/2 187/1/2 190/1/2
f 191/2/2 192/2/2 193/2/2
f 193/2/2 192/2/2 194/2/2
f 195/1/2 196/1/2 198/1/2
f 198/1/2 196/1/2 199/1/2
f 199/1/2 196/1/2 200/1/2
f 197/1/2 198/1/2 201/1/2
f 198/1/2 199/1/2 201/1/2
f 201/1/2 199/1/2 202/1/2
f 202/1/2 199/1/2 203/1/2
f 201/4/2 202/4/2 204/4/2
f 204/4/2 202/4/2 205/4/2
f 206/3/2 207/3/2 208/3/2
f 208/3/2 207/3/2 209/3/2
f 206/3/2 208/3/2 210/3/2
f 210/3/2 208/3/2 211/3/2
f 209/3/2 207/3/2 212/3/2
f 212/3/2 207/3/2 213/3/2
f 210/4/2 211/4/2 214/4/2
f 211/4/2 212/4/2 214/4/2
f 212/4/2 213/4/2 214/4/2
f 214/4/2 213/4/2 215/4/2
f 216/1/2 217/1/2 218/1/2
f 218/1/2 217/1/2 219/1/2
f 220/1/2 221/1/2 222/1/2
f 222/1/2 221/1/2 223/1/2
f 223/1/2 221/1/2 224/1/2
f 222/3/2 223/3/2 226/3/2
f 226/3/2 223/3/2 227/3/2
f 225/3/2 226/3/2 229/3/2
f 229/3/2 226/3/2 230/3/2
f 227/3/2 228/3/2 231/3/2
f 231/3/2 228/3/2 232/3/2
f 230/4/2 231/4/2 233/4/2
f 233/4/2 231/4/2 234/4/2
f 235/2/2 236/2/2 237/2/2
f 237/2/2 236/2/2 238/2/2
f 239/3/2 240/3/2 241/3/2
f 241/3/2 240/3/2 242/3/2
f 239/3/2 241/3/2 243/3/2
f 243/3/2 241/3/2 244/3/2
f 242/3/2 240/3/2 245/3/2
f 245/3/2 240/3/2 246/3/2
f 243/4/2 244/4/2 247/4/2
f 244/4/2 245/4/2 247/4/2
f 245/4/2 246/4/2 247/4/2
f 247/4/2 246/4/2 248/4/2
f 252/3/3 250/3/3 249/3/3
f 253/4/3 251/4/3 250/4/3
f 253/3/3 250/3/3 252/3/3
f 254/3/3 252/3/3 249/3/3
f 255/4/3 251/4/3 253/4/3
f 256/3/3 254/3/3 249/3/3
f 256/3/3 255/3/3 254/3/3
f 257/4/3 251/4/3 255/4/3
f 257/3/3 255/3/3 256/3/3
f 258/4/3 251/4/3 257/4/3
f 262/3/3 260/3/3 259/3/3
f 263/4/3 261/4/3 260/4/3
f 263/3/3 260/3/3 262/3/3
f 264/3/3 262/3/3 259/3/3
f 265/4/3 261/4/3 263/4/3
f 268/3/3 264/3/3 259/3/3
f 268/3/3 265/3/3 264/3/3
f 269/4/3 261/4/3 265/4/3
f 269/3/3 265/3/3 268/3/3
f 270/4/3 261/4/3 269/4/3
f 271/1/3 267/1/3 266/1/3
f 272/1/3 267/1/3 271/1/3
f 275/2/3 274/2/3 273/2/3
f 276/2/3 274/2/3 275/2/3
f 279/3/3 278/3/3 277/3/3
f 280/3/3 278/3/3 279/3/3
f 285/2/3 282/2/3 281/2/3
f 286/2/3 282/2/3 285/2/3
f 287/4/3 284/4/3 283/4/3
f 288/4/3 284/4/3 287/4/3
f 292/3/3 290/3/3 289/3/3
f 293/3/3 290/3/3 292/3/3
f 295/3/3 292/3/3 291/3/3
f 296/3/3 292/3/3 295/3/3
f 297/4/3 294/4/3 293/4/3
f 298/4/3 294/4/3 297/4/3
f 299/3/3 297/3/3 296/3/3
f 300/3/3 297/3/3 299/3/3
f 306/1/3 302/1/3 301/1/3
f 307/1/3 302/1/3 306/1/3
f 310/3/3 304/3/3 303/3/3
f 311/3/3 304/3/3 310/3/3
f 313/1/3 309/1/3 308/1/3
f 313/1/3 306/1/3 305/1/3
f 313/1/3 307/1/3 306/1/3
f 313/1/3 308/1/3 307/1/3
f 314/1/3 309/1/3 313/1/3
f 315/1/3 309/1/3 314/1/3
f 317/4/3 312/4/3 311/4/3
f 318/4/3 312/4/3 317/4/3
f 319/1/3 313/1/3 305/1/3
f 320/1/3 313/1/3 319/1/3
f 321/3/3 317/3/3 316/3/3
f 322/3/3 317/3/3 321/3/3
f 323/1/3 319/1/3 305/1/3
f 324/1/3 319/1/3 323/1/3
f 329/4/3 326/4/3 325/4/3
f 330/1/3 328/1/3 327/1/3
f 331/1/3 328/1/3 330/1/3
f 332/4/3 326/4/3 329/4/3
f 333/4/3 326/4/3 332/4/3
f 337/3/3 335/3/3 334/3/3
f 338/3/3 335/3/3 337/3/3
f 339/4/3 336/4/3 335/4/3
f 339/3/3 335/3/3 338/3/3
f 340/3/3 338/3/3 337/3/3
f 341/4/3 336/4/3 339/4/3
f 342/3/3 340/3/3 337/3/3
f 342/3/3 341/3/3 340/3/3
f 343/4/3 336/4/3 341/4/3
f 343/3/3 341/3/3 342/3/3
f 344/4/3 336/4/3 343/4/3
f 347/2/3 346/2/3 345/2/3
f 348/2/3 346/2/3 347/2/3
f 351/3/3 350/3/3 349/3/3
f 352/3/3 350/3/3 351/3/3
f 355/4/3 353/4/3 352/4/3
f 356/4/3 353/4/3 355/4/3
f 357/3/3 355/3/3 354/3/3
f 358/3/3 355/3/3 357/3/3
f 359/3/4 360/3/4 362/3/4
f 362/3/4 360/3/4 363/3/4
f 361/3/4 362/3/4 365/3/4
f 365/3/4 362/3/4 366/3/4
f 363/4/4 364/4/4 367/4/4
f 367/4/4 364/4/4 368/4/4
f 366/3/4 367/3/4 369/3/4
f 369/3/4 367/3/4 370/3/4
f 371/3/4 372/3/4 373/3/4
f 373/3/4 372/3/4 374/3/4
f 374/4/4 375/4/4 377/4/4
f 377/4/4 375/4/4 378/4/4
f 376/3/4 377/3/4 379/3/4
f 379/3/4 377/3/4 380/3/4
f 381/2/4 382/2/4 383/2/4
f 383/2/4 382/2/4 384/2/4
f 385/2/4 386/2/4 387/2/4
f 387/2/4 386/2/4 388/2/4
f 389/1/4 390/1/4 393/1/4
f 390/3/4 391/3/4 394/3/4
f 393/1/4 390/1/4 394/1/4
f 394/3/4 391/3/4 395/3/4
f 391/5/4 392/5/4 396/5/4
f 395/3/4 391/3/4 396/3/4
f 396/5/4 392/5/4 397/5/4
f 394/3/4 395/3/4 398/3/4
f 396/4/4 397/4/4 399/4/4
f 394/3/4 398/3/4 400/3/4
f 398/3/4 399/3/4 400/3/4
f 399/4/4 397/4/4 401/4/4
f 400/3/4 399/3/4 401/3/4
f 401/4/4 397/4/4 402/4/4
f 403/3/4 404/3/4 407/3/4
f 407/3/4 404/3/4 408/3/4
f 404/4/4 405/4/4 409/4/4
f 408/3/4 404/3/4 409/3/4
f 406/1/4 407/1/4 412/1/4
f 407/3/4 408/3/4 413/3/4
f 412/1/4 407/1/4 413/1/4
f 413/3/4 408/3/4 414/3/4
f 409/4/4 405/4/4 415/4/4
f 410/4/4 411/4/4 418/4/4
f 418/4/4 411/4/4 419/4/4
f 413/3/4 414/3/4 420/3/4
f 414/3/4 415/3/4 420/3/4
f 415/4/4 405/4/4 421/4/4
f 420/3/4 415/3/4 421/3/4
f 421/4/4 405/4/4 422/4/4
f 416/1/4 417/1/4 423/1/4
f 423/1/4 417/1/4 424/1/4
f 425/4/4 426/4/4 429/4/4
f 429/4/4 426/4/4 430/4/4
f 427/1/4 428/1/4 431/1/4
f 432/1/4 433/1/4 437/1/4
f 427/1/4 431/1/4 437/1/4
f 431/1/4 432/1/4 437/1/4
f 437/1/4 433/1/4 438/1/4
f 438/1/4 433/1/4 439/1/4
f 434/1/4 435/1/4 440/1/4
f 435/4/4 436/4/4 441/4/4
f 440/1/4 435/1/4 441/1/4
f 441/4/4 436/4/4 442/4/4
f 438/1/4 439/1/4 443/1/4
f 443/1/4 439/1/4 444/1/4
f 445/3/4 446/3/4 447/3/4
f 447/3/4 446/3/4 448/3/4
f 448/4/4 449/4/4 451/4/4
f 451/4/4 449/4/4 452/4/4
f 450/3/4 451/3/4 455/3/4
f 455/3/4 451/3/4 456/3/4
f 453/1/4 454/1/4 457/1/4
f 457/1/4 454/1/4 458/1/4
f 459/1/4 460/1/4 461/1/4
f 461/1/4 460/1/4 462/1/4
f 463/1/4 464/1/4 467/1/4
f 467/1/4 464/1/4 468/1/4
f 465/2/4 466/2/4 469/2/4
f 469/2/4 466/2/4 470/2/4
f 471/3/4 472/3/4 474/3/4
f 472/4/4 473/4/4 475/4/4
f 474/3/4 472/3/4 475/3/4
f 475/4/4 473/4/4 476/4/4
f 477/3/4 478/3/4 480/3/4
f 478/4/4 479/4/4 481/4/4
f 480/3/4 478/3/4 481/3/4
f 477/3/4 480/3/4 482/3/4
f 481/4/4 479/4/4 483/4/4
f 483/4/4 479/4/4 484/4/4
f 477/3/4 482/3/4 485/3/4
f 482/3/4 483/3/4 485/3/4
f 483/5/4 484/5/4 486/5/4
f 485/3/4 483/3/4 486/3/4
f 486/5/4 484/5/4 487/5/4
f 491/1/5 489/1/5 488/1/5
f 492/1/5 489/1/5 491/1/5
f 493/1/5 489/1/5 492/1/5
f 494/1/5 491/1/5 490/1/5
f 494/1/5 492/1/5 491/1/5
f 495/1/5 492/1/5 494/1/5
f 496/1/5 492/1/5 495/1/5
f 497/1/5 492/1/5 496/1/5
f 500/1/5 499/1/5 498/1/5
f 501/1/5 500/1/5 498/1/5
f 502/1/5 500/1/5 501/1/5
f 508/1/5 504/1/5 503/1/5
f 509/3/5 506/3/5 505/3/5
f 510/3/5 506/3/5 509/3/5
f 511/4/5 508/4/5 507/4/5
f 512/1/5 504/1/5 508/1/5
f 512/4/5 508/4/5 511/4/5
f 513/1/5 504/1/5 512/1/5
f 517/3/5 515/3/5 514/3/5
f 518/3/5 517/3/5 516/3/5
f 519/3/5 515/3/5 517/3/5
f 519/3/5 517/3/5 518/3/5
f 522/3/5 521/3/5 520/3/5
f 523/3/5 521/3/5 522/3/5
f 524/3/5 521/3/5 523/3/5
f 526/3/5 521/3/5 524/3/5
f 527/3/5 526/3/5 525/3/5
f 528/3/5 521/3/5 526/3/5
f 528/3/5 526/3/5 527/3/5
f 531/4/5 530/4/5 529/4/5
f 532/4/5 530/4/5 531/4/5
f 533/4/5 530/4/5 532/4/5
f 534/1/5 532/1/5 531/1/5
f 535/1/5 532/1/5 534/1/5
f 538/2/5 537/2/5 536/2/5
f 539/2/5 537/2/5 538/2/5
f 544/3/5 541/3/5 540/3/5
f 545/3/5 543/3/5 542/3/5
f 546/3/5 543/3/5 545/3/5
f 547/3/5 544/3/5 540/3/5
f 547/3/5 545/3/5 544/3/5
f 547/3/5 546/3/5 545/3/5
f 548/3/5 546/3/5 547/3/5
f 552/4/5 550/4/5 549/4/5
f 553/4/5 550/4/5 552/4/5
f 555/4/5 552/4/5 551/4/5
f 556/4/5 552/4/5 555/4/5
f 557/4/5 554/4/5 553/4/5
f 558/4/5 554/4/5 557/4/5
f 559/4/5 557/4/5 556/4/5
f 560/4/5 557/4/5 559/4/5
f 563/3/5 562/3/5 561/3/5
f 564/3/5 562/3/5 563/3/5
f 565/3/5 563/3/5 561/3/5
f 565/1/5 564/1/5 563/1/5
f 566/3/5 562/3/5 564/3/5
f 566/1/5 564/1/5 565/1/5
f 567/3/5 565/3/5 561/3/5
f 568/3/5 565/3/5 567/3/5
f 569/3/5 562/3/5 566/3/5
f 570/3/5 562/3/5 569/3/5
f 574/4/5 572/4/5 571/4/5
f 575/4/5 572/4/5 574/4/5
f 577/4/5 574/4/5 573/4/5
f 578/4/5 574/4/5 577/4/5
f 579/4/5 576/4/5 575/4/5
f 580/4/5 576/4/5 579/4/5
f 581/4/5 579/4/5 578/4/5
f 582/4/5 579/4/5 581/4/5
f 586/4/5 584/4/5 583/4/5
f 587/4/5 584/4/5 586/4/5
f 589/4/5 586/4/5 585/4/5
f 590/4/5 586/4/5 589/4/5
f 591/4/5 588/4/5 587/4/5
f 592/4/5 588/4/5 591/4/5
f 593/4/5 591/4/5 590/4/5
f 594/4/5 591/4/5 593/4/5
f 595/1/6 596/1/6 599/1/6
f 599/1/6 596/1/6 600/1/6
f 597/1/6 598/1/6 601/1/6
f 601/1/6 598/1/6 602/1/6
f 603/1/6 604/1/6 605/1/6
f 605/1/6 604/1/6 606/1/6
f 607/1/6 608/1/6 609/1/6
f 609/1/6 608/1/6 610/1/6
f 611/3/6 612/3/6 615/3/6
f 615/3/6 612/3/6 616/3/6
f 613/4/6 614/4/6 617/4/6
f 617/4/6 614/4/6 618/4/6
f 615/1/6 616/1/6 619/1/6
f 619/1/6 616/1/6 620/1/6
f 617/4/6 618/4/6 621/4/6
f 621/4/6 618/4/6 622/4/6
f 623/3/6 624/3/6 626/3/6
f 626/3/6 624/3/6 627/3/6
f 625/3/6 626/3/6 629/3/6
f 629/3/6 626/3/6 630/3/6
f 627/3/6 628/3/6 631/3/6
f 631/3/6 628/3/6 632/3/6
f 630/3/6 631/3/6 633/3/6
f 633/3/6 631/3/6 634/3/6
f 635/4/6 636/4/6 637/4/6
f 637/4/6 636/4/6 638/4/6
f 638/4/6 636/4/6 639/4/6
f 639/4/6 640/4/6 641/4/6
f 638/4/6 639/4/6 641/4/6
f 641/4/6 640/4/6 642/4/6
f 643/2/6 644/2/6 645/2/6
f 645/2/6 644/2/6 646/2/6
f 647/3/6 648/3/6 650/3/6
f 650/3/6 648/3/6 651/3/6
f 649/3/6 650/3/6 653/3/6
f 653/3/6 650/3/6 654/3/6
f 651/3/6 652/3/6 655/3/6
f 655/3/6 652/3/6 656/3/6
f 654/3/6 655/3/6 657/3/6
f 657/3/6 655/3/6 658/3/6
f 659/4/6 660/4/6 661/4/6
f 661/4/6 660/4/6 662/4/6
f 659/4/6 661/4/6 663/4/6
f 663/4/6 661/4/6 664/4/6
f 662/4/6 660/4/6 665/4/6
f 663/5/6 664/5/6 666/5/6
f 664/4/6 665/4/6 667/4/6
f 666/5/6 664/5/6 667/5/6
f 665/4/6 660/4/6 668/4/6
f 667/4/6 665/4/6 668/4/6
f 669/4/6 670/4/6 671/4/6
f 671/4/6 670/4/6 672/4/6
f 673/2/6 674/2/6 675/2/6
f 675/2/6 674/2/6 676/2/6
f 677/3/6 678/3/6 680/3/6
f 680/3/6 678/3/6 681/3/6
f 679/3/6 680/3/6 683/3/6
f 683/3/6 680/3/6 684/3/6
f 681/3/6 682/3/6 685/3/6
f 685/3/6 682/3/6 686/3/6
f 684/3/6 685/3/6 687/3/6
f 687/3/6 685/3/6 688/3/6
f 689/4/6 690/4/6 691/4/6
f 691/4/6 690/4/6 692/4/6
f 689/4/6 691/4/6 693/4/6
f 692/4/6 690/4/6 694/4/6
f 694/4/6 690/4/6 695/4/6
f 689/4/6 693/4/6 696/4/6
f 693/4/6 694/4/6 696/4/6
f 694/5/6 695/5/6 697/5/6
f 696/4/6 694/4/6 697/4/6
f 697/5/6 695/5/6 698/5/6
f 699/2/6 700/2/6 701/2/6
f 701/2/6 700/2/6 702/2/6
f 703/4/6 704/4/6 705/4/6
f 705/4/6 704/4/6 706/4/6
f 703/4/6 705/4/6 707/4/6
f 706/4/6 704/4/6 708/4/6
f 703/4/6 707/4/6 709/4/6
f 707/4/6 708/4/6 709/4/6
f 708/4/6 704/4/6 710/4/6
f 709/4/6 708/4/6 710/4/6
