# MagicaVoxel @ Ephtracy

# material
mtllib Tree_type1_03.mtl
usemtl palette

# normals
vn -1 0 0
vn 1 0 0
vn 0 0 1
vn 0 0 -1
vn 0 -1 0
vn 0 1 0

# texcoords
vt 0.279297 0.5
vt 0.529297 0.5
vt 0.556641 0.5

# verts
v -3.5 5 1.5
v -3.5 5 -1.5
v -3.5 6 0.5
v -3.5 6 -0.5
v -3.5 7 0.5
v -3.5 7 -0.5
v -3.5 8 1.5
v -3.5 8 -1.5
v -2.5 0 0.5
v -2.5 0 -0.5
v -2.5 1 0.5
v -2.5 1 -0.5
v -2.5 3 0.5
v -2.5 3 -0.5
v -2.5 5 0.5
v -2.5 5 -0.5
v -2.5 6 0.5
v -2.5 6 -0.5
v -2.5 7 0.5
v -2.5 7 -0.5
v -1.5 0 1.5
v -1.5 0 0.5
v -1.5 1 1.5
v -1.5 1 0.5
v -1.5 1 -0.5
v -1.5 2 1.5
v -1.5 2 0.5
v -1.5 2 -0.5
v -1.5 2 -3.5
v -1.5 3 -0.5
v -1.5 3 -1.5
v -1.5 3 -2.5
v -1.5 4 -1.5
v -1.5 4 -2.5
v -1.5 5 -0.5
v -1.5 5 -1.5
v -1.5 5 -3.5
v -1.5 6 1.5
v -1.5 6 0.5
v -1.5 6 -0.5
v -1.5 6 -1.5
v -1.5 7 1.5
v -1.5 7 0.5
v -1.5 7 -0.5
v -1.5 7 -1.5
v -1.5 8 0.5
v -1.5 8 -0.5
v -0.5 0 -0.5
v -0.5 0 -1.5
v -0.5 1 -1.5
v -0.5 1 -2.5
v -0.5 2 0.5
v -0.5 2 -0.5
v -0.5 2 -2.5
v -0.5 3 0.5
v -0.5 3 -0.5
v -0.5 3 -1.5
v -0.5 3 -2.5
v -0.5 4 -1.5
v -0.5 4 -2.5
v 0.5 2 2.5
v 0.5 2 0.5
v 0.5 3 2.5
v 0.5 3 0.5
v 0.5 3 -0.5
v 0.5 3 -1.5
v 0.5 3 -2.5
v 0.5 3 -3.5
v 0.5 4 3.5
v 0.5 4 0.5
v 0.5 4 -0.5
v 0.5 4 -1.5
v 0.5 4 -2.5
v 0.5 4 -3.5
v 0.5 5 2.5
v 0.5 5 1.5
v 0.5 5 -1.5
v 0.5 5 -2.5
v 0.5 6 2.5
v 0.5 6 1.5
v 0.5 7 3.5
v 0.5 7 0.5
v 1.5 0 1.5
v 1.5 0 0.5
v 1.5 1 1.5
v 1.5 1 0.5
v 1.5 3 2.5
v 1.5 3 1.5
v 1.5 4 2.5
v 1.5 4 1.5
v 1.5 5 2.5
v 1.5 5 1.5
v 1.5 6 2.5
v 1.5 6 1.5
v 2.5 5 3.5
v 2.5 5 2.5
v 2.5 5 1.5
v 2.5 5 0.5
v 2.5 6 3.5
v 2.5 6 2.5
v 2.5 6 1.5
v 2.5 6 0.5
v 2.5 7 2.5
v 2.5 7 1.5
v -2.5 6 1.5
v -2.5 6 0.5
v -2.5 6 -0.5
v -2.5 6 -1.5
v -2.5 7 1.5
v -2.5 7 0.5
v -2.5 7 -0.5
v -2.5 7 -1.5
v -2.5 8 0.5
v -2.5 8 -0.5
v -1.5 4 0.5
v -1.5 4 -0.5
v -1.5 5 0.5
v -1.5 5 -0.5
v -1.5 6 0.5
v -1.5 6 -0.5
v -1.5 7 0.5
v -1.5 7 -0.5
v -0.5 0 1.5
v -0.5 0 0.5
v -0.5 1 1.5
v -0.5 1 0.5
v -0.5 2 1.5
v -0.5 2 0.5
v -0.5 3 -0.5
v -0.5 3 -1.5
v -0.5 3 -2.5
v -0.5 3 -3.5
v -0.5 4 -0.5
v -0.5 4 -1.5
v -0.5 4 -2.5
v -0.5 4 -3.5
v -0.5 5 1.5
v -0.5 5 -0.5
v -0.5 5 -1.5
v -0.5 5 -2.5
v -0.5 6 0.5
v -0.5 6 -0.5
v -0.5 7 0.5
v -0.5 7 -0.5
v -0.5 8 1.5
v -0.5 8 -1.5
v 0.5 1 -0.5
v 0.5 1 -1.5
v 0.5 1 -2.5
v 0.5 2 -0.5
v 0.5 2 -2.5
v 0.5 3 0.5
v 0.5 3 -0.5
v 0.5 3 -1.5
v 0.5 3 -2.5
v 0.5 4 0.5
v 0.5 4 -0.5
v 0.5 4 -1.5
v 0.5 4 -2.5
v 1.5 0 0.5
v 1.5 0 -1.5
v 1.5 1 0.5
v 1.5 1 -0.5
v 1.5 1 -1.5
v 1.5 2 1.5
v 1.5 2 0.5
v 1.5 2 -0.5
v 1.5 2 -3.5
v 1.5 3 1.5
v 1.5 3 -0.5
v 1.5 3 -1.5
v 1.5 3 -2.5
v 1.5 4 -1.5
v 1.5 4 -2.5
v 1.5 5 3.5
v 1.5 5 2.5
v 1.5 5 1.5
v 1.5 5 0.5
v 1.5 5 -0.5
v 1.5 5 -3.5
v 1.5 6 3.5
v 1.5 6 2.5
v 1.5 6 1.5
v 1.5 6 0.5
v 1.5 7 2.5
v 1.5 7 1.5
v 2.5 0 1.5
v 2.5 0 0.5
v 2.5 1 1.5
v 2.5 1 0.5
v 2.5 2 2.5
v 2.5 2 1.5
v 2.5 4 2.5
v 2.5 4 1.5
v 2.5 5 2.5
v 2.5 5 1.5
v 2.5 6 2.5
v 2.5 6 1.5
v 3.5 4 3.5
v 3.5 4 0.5
v 3.5 5 2.5
v 3.5 5 1.5
v 3.5 6 2.5
v 3.5 6 1.5
v 3.5 7 3.5
v 3.5 7 0.5
v 0.5 4 3.5
v 0.5 7 3.5
v 1.5 5 3.5
v 1.5 6 3.5
v 2.5 5 3.5
v 2.5 6 3.5
v 3.5 4 3.5
v 3.5 7 3.5
v 0.5 2 2.5
v 0.5 3 2.5
v 1.5 3 2.5
v 1.5 4 2.5
v 1.5 5 2.5
v 1.5 6 2.5
v 2.5 2 2.5
v 2.5 4 2.5
v 2.5 5 2.5
v 2.5 6 2.5
v -3.5 5 1.5
v -3.5 8 1.5
v -2.5 6 1.5
v -2.5 7 1.5
v -1.5 0 1.5
v -1.5 1 1.5
v -1.5 2 1.5
v -1.5 6 1.5
v -1.5 7 1.5
v -0.5 0 1.5
v -0.5 1 1.5
v -0.5 2 1.5
v -0.5 5 1.5
v -0.5 8 1.5
v 0.5 5 1.5
v 0.5 6 1.5
v 1.5 0 1.5
v 1.5 1 1.5
v 1.5 5 1.5
v 1.5 6 1.5
v 1.5 7 1.5
v 2.5 0 1.5
v 2.5 1 1.5
v 2.5 5 1.5
v 2.5 6 1.5
v 2.5 7 1.5
v 3.5 5 1.5
v 3.5 6 1.5
v -2.5 0 0.5
v -2.5 1 0.5
v -2.5 3 0.5
v -2.5 5 0.5
v -2.5 6 0.5
v -2.5 7 0.5
v -1.5 0 0.5
v -1.5 1 0.5
v -1.5 4 0.5
v -1.5 5 0.5
v -1.5 6 0.5
v -1.5 7 0.5
v -0.5 0 0.5
v -0.5 1 0.5
v -0.5 2 0.5
v -0.5 3 0.5
v 0.5 2 0.5
v 0.5 3 0.5
v 0.5 4 0.5
v 1.5 0 0.5
v 1.5 1 0.5
v 1.5 2 0.5
v -3.5 6 -0.5
v -3.5 7 -0.5
v -2.5 6 -0.5
v -2.5 7 -0.5
v -2.5 8 -0.5
v -1.5 2 -0.5
v -1.5 3 -0.5
v -1.5 4 -0.5
v -1.5 5 -0.5
v -1.5 6 -0.5
v -1.5 7 -0.5
v -1.5 8 -0.5
v -0.5 2 -0.5
v -0.5 3 -0.5
v -0.5 5 -0.5
v -0.5 6 -0.5
v -0.5 7 -0.5
v 0.5 3 -0.5
v 0.5 4 -0.5
v 1.5 3 -0.5
v 1.5 5 -0.5
v -0.5 3 -1.5
v -0.5 4 -1.5
v 0.5 3 -1.5
v 0.5 4 -1.5
v -1.5 3 -2.5
v -1.5 4 -2.5
v -0.5 3 -2.5
v -0.5 4 -2.5
v -0.5 5 -2.5
v 0.5 3 -2.5
v 0.5 4 -2.5
v 0.5 5 -2.5
v 1.5 3 -2.5
v 1.5 4 -2.5
v 0.5 5 2.5
v 0.5 6 2.5
v 1.5 5 2.5
v 1.5 6 2.5
v 1.5 7 2.5
v 2.5 5 2.5
v 2.5 6 2.5
v 2.5 7 2.5
v 3.5 5 2.5
v 3.5 6 2.5
v 1.5 2 1.5
v 1.5 3 1.5
v 1.5 4 1.5
v 1.5 5 1.5
v 1.5 6 1.5
v 2.5 2 1.5
v 2.5 4 1.5
v 2.5 5 1.5
v 2.5 6 1.5
v -3.5 6 0.5
v -3.5 7 0.5
v -2.5 6 0.5
v -2.5 7 0.5
v -2.5 8 0.5
v -1.5 6 0.5
v -1.5 7 0.5
v -1.5 8 0.5
v -0.5 6 0.5
v -0.5 7 0.5
v 0.5 4 0.5
v 0.5 7 0.5
v 1.5 0 0.5
v 1.5 1 0.5
v 1.5 5 0.5
v 1.5 6 0.5
v 2.5 0 0.5
v 2.5 1 0.5
v 2.5 5 0.5
v 2.5 6 0.5
v 3.5 4 0.5
v 3.5 7 0.5
v -2.5 0 -0.5
v -2.5 1 -0.5
v -2.5 3 -0.5
v -2.5 5 -0.5
v -2.5 6 -0.5
v -2.5 7 -0.5
v -1.5 1 -0.5
v -1.5 2 -0.5
v -1.5 3 -0.5
v -1.5 5 -0.5
v -1.5 6 -0.5
v -1.5 7 -0.5
v -0.5 0 -0.5
v -0.5 2 -0.5
v -0.5 3 -0.5
v -0.5 4 -0.5
v 0.5 1 -0.5
v 0.5 2 -0.5
v 0.5 3 -0.5
v 0.5 4 -0.5
v 1.5 1 -0.5
v 1.5 2 -0.5
v -3.5 5 -1.5
v -3.5 8 -1.5
v -2.5 6 -1.5
v -2.5 7 -1.5
v -1.5 3 -1.5
v -1.5 4 -1.5
v -1.5 5 -1.5
v -1.5 6 -1.5
v -1.5 7 -1.5
v -0.5 0 -1.5
v -0.5 1 -1.5
v -0.5 3 -1.5
v -0.5 4 -1.5
v -0.5 5 -1.5
v -0.5 8 -1.5
v 0.5 1 -1.5
v 0.5 3 -1.5
v 0.5 4 -1.5
v 0.5 5 -1.5
v 1.5 0 -1.5
v 1.5 1 -1.5
v 1.5 3 -1.5
v 1.5 4 -1.5
v -0.5 1 -2.5
v -0.5 2 -2.5
v -0.5 3 -2.5
v -0.5 4 -2.5
v 0.5 1 -2.5
v 0.5 2 -2.5
v 0.5 3 -2.5
v 0.5 4 -2.5
v -1.5 2 -3.5
v -1.5 5 -3.5
v -0.5 3 -3.5
v -0.5 4 -3.5
v 0.5 3 -3.5
v 0.5 4 -3.5
v 1.5 2 -3.5
v 1.5 5 -3.5
v -1.5 0 1.5
v -0.5 0 1.5
v 1.5 0 1.5
v 2.5 0 1.5
v -2.5 0 0.5
v -1.5 0 0.5
v -0.5 0 0.5
v 1.5 0 0.5
v 2.5 0 0.5
v -2.5 0 -0.5
v -0.5 0 -0.5
v -0.5 0 -1.5
v 1.5 0 -1.5
v -0.5 1 -1.5
v 0.5 1 -1.5
v -0.5 1 -2.5
v 0.5 1 -2.5
v 0.5 2 2.5
v 2.5 2 2.5
v 1.5 2 1.5
v 2.5 2 1.5
v 0.5 2 0.5
v 1.5 2 0.5
v -1.5 2 -0.5
v -0.5 2 -0.5
v 0.5 2 -0.5
v 1.5 2 -0.5
v -0.5 2 -2.5
v 0.5 2 -2.5
v -1.5 2 -3.5
v 1.5 2 -3.5
v -2.5 3 0.5
v -0.5 3 0.5
v -2.5 3 -0.5
v -1.5 3 -0.5
v -0.5 3 -0.5
v 0.5 4 3.5
v 3.5 4 3.5
v 1.5 4 2.5
v 2.5 4 2.5
v 1.5 4 1.5
v 2.5 4 1.5
v 0.5 4 0.5
v 3.5 4 0.5
v -0.5 4 -0.5
v 0.5 4 -0.5
v -1.5 4 -1.5
v -0.5 4 -1.5
v 0.5 4 -1.5
v 1.5 4 -1.5
v -1.5 4 -2.5
v -0.5 4 -2.5
v 0.5 4 -2.5
v 1.5 4 -2.5
v -0.5 4 -3.5
v 0.5 4 -3.5
v -3.5 5 1.5
v -0.5 5 1.5
v -2.5 5 0.5
v -1.5 5 0.5
v -2.5 5 -0.5
v -1.5 5 -0.5
v -0.5 5 -0.5
v -3.5 5 -1.5
v -1.5 5 -1.5
v 1.5 6 3.5
v 2.5 6 3.5
v 0.5 6 2.5
v 1.5 6 2.5
v 2.5 6 2.5
v 3.5 6 2.5
v 0.5 6 1.5
v 1.5 6 1.5
v 2.5 6 1.5
v 3.5 6 1.5
v 1.5 6 0.5
v 2.5 6 0.5
v -2.5 7 1.5
v -1.5 7 1.5
v -3.5 7 0.5
v -2.5 7 0.5
v -1.5 7 0.5
v -0.5 7 0.5
v -3.5 7 -0.5
v -2.5 7 -0.5
v -1.5 7 -0.5
v -0.5 7 -0.5
v -2.5 7 -1.5
v -1.5 7 -1.5
v 1.5 1 1.5
v 2.5 1 1.5
v -2.5 1 0.5
v -1.5 1 0.5
v 1.5 1 0.5
v 2.5 1 0.5
v -2.5 1 -0.5
v -1.5 1 -0.5
v 0.5 1 -0.5
v 1.5 1 -0.5
v 0.5 1 -1.5
v 1.5 1 -1.5
v -1.5 2 1.5
v -0.5 2 1.5
v -1.5 2 0.5
v -0.5 2 0.5
v -1.5 2 -0.5
v -0.5 2 -0.5
v 0.5 3 2.5
v 1.5 3 2.5
v 1.5 3 1.5
v 0.5 3 0.5
v -0.5 3 -0.5
v 0.5 3 -0.5
v 1.5 3 -0.5
v -1.5 3 -1.5
v -0.5 3 -1.5
v 0.5 3 -1.5
v 1.5 3 -1.5
v -1.5 3 -2.5
v -0.5 3 -2.5
v 0.5 3 -2.5
v 1.5 3 -2.5
v -0.5 3 -3.5
v 0.5 3 -3.5
v -1.5 4 0.5
v 0.5 4 0.5
v -1.5 4 -0.5
v 0.5 4 -0.5
v -0.5 4 -1.5
v 0.5 4 -1.5
v -0.5 4 -2.5
v 0.5 4 -2.5
v 1.5 5 3.5
v 2.5 5 3.5
v 0.5 5 2.5
v 1.5 5 2.5
v 2.5 5 2.5
v 3.5 5 2.5
v 0.5 5 1.5
v 1.5 5 1.5
v 2.5 5 1.5
v 3.5 5 1.5
v 1.5 5 0.5
v 2.5 5 0.5
v -0.5 5 -0.5
v 1.5 5 -0.5
v -1.5 5 -1.5
v -0.5 5 -1.5
v 0.5 5 -1.5
v -0.5 5 -2.5
v 0.5 5 -2.5
v -1.5 5 -3.5
v 1.5 5 -3.5
v 1.5 6 2.5
v 2.5 6 2.5
v -2.5 6 1.5
v -1.5 6 1.5
v 1.5 6 1.5
v 2.5 6 1.5
v -3.5 6 0.5
v -2.5 6 0.5
v -1.5 6 0.5
v -0.5 6 0.5
v -3.5 6 -0.5
v -2.5 6 -0.5
v -1.5 6 -0.5
v -0.5 6 -0.5
v -2.5 6 -1.5
v -1.5 6 -1.5
v 0.5 7 3.5
v 3.5 7 3.5
v 1.5 7 2.5
v 2.5 7 2.5
v 1.5 7 1.5
v 2.5 7 1.5
v -2.5 7 0.5
v -1.5 7 0.5
v 0.5 7 0.5
v 3.5 7 0.5
v -2.5 7 -0.5
v -1.5 7 -0.5
v -3.5 8 1.5
v -0.5 8 1.5
v -2.5 8 0.5
v -1.5 8 0.5
v -2.5 8 -0.5
v -1.5 8 -0.5
v -3.5 8 -1.5
v -0.5 8 -1.5

# faces
f 3/3/1 2/3/1 1/3/1
f 4/3/1 2/3/1 3/3/1
f 5/3/1 3/3/1 1/3/1
f 6/3/1 2/3/1 4/3/1
f 7/3/1 5/3/1 1/3/1
f 7/3/1 6/3/1 5/3/1
f 8/3/1 2/3/1 6/3/1
f 8/3/1 6/3/1 7/3/1
f 11/1/1 10/1/1 9/1/1
f 12/1/1 10/1/1 11/1/1
f 15/1/1 14/1/1 13/1/1
f 16/1/1 14/1/1 15/1/1
f 19/2/1 18/2/1 17/2/1
f 20/2/1 18/2/1 19/2/1
f 23/1/1 22/1/1 21/1/1
f 24/1/1 22/1/1 23/1/1
f 26/3/1 24/3/1 23/3/1
f 27/1/1 25/1/1 24/1/1
f 27/3/1 24/3/1 26/3/1
f 28/1/1 25/1/1 27/1/1
f 30/3/1 29/3/1 28/3/1
f 31/3/1 29/3/1 30/3/1
f 32/3/1 29/3/1 31/3/1
f 33/3/1 31/3/1 30/3/1
f 34/3/1 29/3/1 32/3/1
f 35/3/1 33/3/1 30/3/1
f 35/3/1 34/3/1 33/3/1
f 36/3/1 34/3/1 35/3/1
f 37/3/1 29/3/1 34/3/1
f 37/3/1 34/3/1 36/3/1
f 42/3/1 39/3/1 38/3/1
f 43/3/1 39/3/1 42/3/1
f 44/3/1 41/3/1 40/3/1
f 45/3/1 41/3/1 44/3/1
f 46/3/1 44/3/1 43/3/1
f 47/3/1 44/3/1 46/3/1
f 50/1/1 49/1/1 48/1/1
f 53/1/1 50/1/1 48/1/1
f 53/1/1 51/1/1 50/1/1
f 54/1/1 51/1/1 53/1/1
f 55/1/1 53/1/1 52/1/1
f 56/1/1 53/1/1 55/1/1
f 59/2/1 58/2/1 57/2/1
f 60/2/1 58/2/1 59/2/1
f 63/1/1 62/1/1 61/1/1
f 64/1/1 62/1/1 63/1/1
f 71/3/1 66/3/1 65/3/1
f 72/3/1 66/3/1 71/3/1
f 73/3/1 68/3/1 67/3/1
f 74/3/1 68/3/1 73/3/1
f 75/3/1 70/3/1 69/3/1
f 76/3/1 70/3/1 75/3/1
f 77/3/1 73/3/1 72/3/1
f 78/3/1 73/3/1 77/3/1
f 79/3/1 75/3/1 69/3/1
f 80/3/1 70/3/1 76/3/1
f 81/3/1 79/3/1 69/3/1
f 81/3/1 80/3/1 79/3/1
f 82/3/1 70/3/1 80/3/1
f 82/3/1 80/3/1 81/3/1
f 85/1/1 84/1/1 83/1/1
f 86/1/1 84/1/1 85/1/1
f 89/1/1 88/1/1 87/1/1
f 90/1/1 88/1/1 89/1/1
f 93/2/1 92/2/1 91/2/1
f 94/2/1 92/2/1 93/2/1
f 99/3/1 96/3/1 95/3/1
f 100/3/1 96/3/1 99/3/1
f 101/3/1 98/3/1 97/3/1
f 102/3/1 98/3/1 101/3/1
f 103/3/1 101/3/1 100/3/1
f 104/3/1 101/3/1 103/3/1
f 105/3/2 106/3/2 109/3/2
f 109/3/2 106/3/2 110/3/2
f 107/3/2 108/3/2 111/3/2
f 111/3/2 108/3/2 112/3/2
f 110/3/2 111/3/2 113/3/2
f 113/3/2 111/3/2 114/3/2
f 115/1/2 116/1/2 117/1/2
f 117/1/2 116/1/2 118/1/2
f 119/2/2 120/2/2 121/2/2
f 121/2/2 120/2/2 122/2/2
f 123/1/2 124/1/2 125/1/2
f 125/1/2 124/1/2 126/1/2
f 125/3/2 126/3/2 127/3/2
f 127/3/2 126/3/2 128/3/2
f 129/3/2 130/3/2 133/3/2
f 133/3/2 130/3/2 134/3/2
f 131/3/2 132/3/2 135/3/2
f 135/3/2 132/3/2 136/3/2
f 134/3/2 135/3/2 139/3/2
f 139/3/2 135/3/2 140/3/2
f 137/3/2 138/3/2 141/3/2
f 138/3/2 139/3/2 141/3/2
f 141/3/2 139/3/2 142/3/2
f 137/3/2 141/3/2 143/3/2
f 142/3/2 139/3/2 144/3/2
f 137/3/2 143/3/2 145/3/2
f 143/3/2 144/3/2 145/3/2
f 144/3/2 139/3/2 146/3/2
f 145/3/2 144/3/2 146/3/2
f 147/1/2 148/1/2 150/1/2
f 148/1/2 149/1/2 150/1/2
f 150/1/2 149/1/2 151/1/2
f 152/1/2 153/1/2 156/1/2
f 156/1/2 153/1/2 157/1/2
f 154/2/2 155/2/2 158/2/2
f 158/2/2 155/2/2 159/2/2
f 160/1/2 161/1/2 162/1/2
f 162/1/2 161/1/2 163/1/2
f 163/1/2 161/1/2 164/1/2
f 162/1/2 163/1/2 166/1/2
f 166/1/2 163/1/2 167/1/2
f 166/1/2 167/1/2 169/1/2
f 165/1/2 166/1/2 169/1/2
f 167/3/2 168/3/2 170/3/2
f 169/1/2 167/1/2 170/1/2
f 170/3/2 168/3/2 171/3/2
f 171/3/2 168/3/2 172/3/2
f 170/3/2 171/3/2 173/3/2
f 172/3/2 168/3/2 174/3/2
f 170/3/2 173/3/2 179/3/2
f 173/3/2 174/3/2 179/3/2
f 174/3/2 168/3/2 180/3/2
f 179/3/2 174/3/2 180/3/2
f 175/3/2 176/3/2 181/3/2
f 181/3/2 176/3/2 182/3/2
f 177/3/2 178/3/2 183/3/2
f 183/3/2 178/3/2 184/3/2
f 182/3/2 183/3/2 185/3/2
f 185/3/2 183/3/2 186/3/2
f 187/1/2 188/1/2 189/1/2
f 189/1/2 188/1/2 190/1/2
f 191/1/2 192/1/2 193/1/2
f 193/1/2 192/1/2 194/1/2
f 195/2/2 196/2/2 197/2/2
f 197/2/2 196/2/2 198/2/2
f 199/3/2 200/3/2 201/3/2
f 201/3/2 200/3/2 202/3/2
f 199/3/2 201/3/2 203/3/2
f 202/3/2 200/3/2 204/3/2
f 199/3/2 203/3/2 205/3/2
f 203/3/2 204/3/2 205/3/2
f 204/3/2 200/3/2 206/3/2
f 205/3/2 204/3/2 206/3/2
f 209/3/3 208/3/3 207/3/3
f 210/3/3 208/3/3 209/3/3
f 211/3/3 209/3/3 207/3/3
f 212/3/3 208/3/3 210/3/3
f 213/3/3 211/3/3 207/3/3
f 213/3/3 212/3/3 211/3/3
f 214/3/3 208/3/3 212/3/3
f 214/3/3 212/3/3 213/3/3
f 217/1/3 216/1/3 215/1/3
f 221/1/3 217/1/3 215/1/3
f 221/1/3 218/1/3 217/1/3
f 222/1/3 218/1/3 221/1/3
f 223/2/3 220/2/3 219/2/3
f 224/2/3 220/2/3 223/2/3
f 227/3/3 226/3/3 225/3/3
f 228/3/3 226/3/3 227/3/3
f 232/3/3 227/3/3 225/3/3
f 233/3/3 226/3/3 228/3/3
f 234/1/3 230/1/3 229/1/3
f 235/3/3 231/3/3 230/3/3
f 235/1/3 230/1/3 234/1/3
f 236/3/3 231/3/3 235/3/3
f 237/3/3 232/3/3 225/3/3
f 237/3/3 233/3/3 232/3/3
f 238/3/3 226/3/3 233/3/3
f 238/3/3 233/3/3 237/3/3
f 243/3/3 240/3/3 239/3/3
f 244/3/3 240/3/3 243/3/3
f 246/1/3 242/1/3 241/1/3
f 247/1/3 242/1/3 246/1/3
f 249/3/3 245/3/3 244/3/3
f 250/3/3 245/3/3 249/3/3
f 251/3/3 249/3/3 248/3/3
f 252/3/3 249/3/3 251/3/3
f 259/1/3 254/1/3 253/1/3
f 260/1/3 254/1/3 259/1/3
f 261/1/3 256/1/3 255/1/3
f 262/1/3 256/1/3 261/1/3
f 263/2/3 258/2/3 257/2/3
f 264/2/3 258/2/3 263/2/3
f 268/1/3 261/1/3 255/1/3
f 269/1/3 267/1/3 266/1/3
f 269/1/3 268/1/3 267/1/3
f 269/1/3 266/1/3 265/1/3
f 270/1/3 261/1/3 268/1/3
f 270/1/3 268/1/3 269/1/3
f 271/1/3 261/1/3 270/1/3
f 272/1/3 269/1/3 265/1/3
f 273/1/3 269/1/3 272/1/3
f 274/1/3 269/1/3 273/1/3
f 277/3/3 276/3/3 275/3/3
f 278/3/3 276/3/3 277/3/3
f 285/3/3 279/3/3 278/3/3
f 286/3/3 279/3/3 285/3/3
f 287/3/3 281/3/3 280/3/3
f 288/3/3 281/3/3 287/3/3
f 289/3/3 283/3/3 282/3/3
f 290/3/3 285/3/3 284/3/3
f 291/3/3 285/3/3 290/3/3
f 293/3/3 289/3/3 282/3/3
f 294/3/3 293/3/3 292/3/3
f 295/3/3 289/3/3 293/3/3
f 295/3/3 293/3/3 294/3/3
f 298/2/3 297/2/3 296/2/3
f 299/2/3 297/2/3 298/2/3
f 302/3/3 301/3/3 300/3/3
f 303/3/3 301/3/3 302/3/3
f 306/3/3 304/3/3 303/3/3
f 307/3/3 304/3/3 306/3/3
f 308/3/3 306/3/3 305/3/3
f 309/3/3 306/3/3 308/3/3
f 310/3/4 311/3/4 312/3/4
f 312/3/4 311/3/4 313/3/4
f 313/3/4 314/3/4 316/3/4
f 316/3/4 314/3/4 317/3/4
f 315/3/4 316/3/4 318/3/4
f 318/3/4 316/3/4 319/3/4
f 320/1/4 321/1/4 325/1/4
f 321/1/4 322/1/4 325/1/4
f 325/1/4 322/1/4 326/1/4
f 323/2/4 324/2/4 327/2/4
f 327/2/4 324/2/4 328/2/4
f 329/3/4 330/3/4 331/3/4
f 331/3/4 330/3/4 332/3/4
f 332/3/4 333/3/4 335/3/4
f 335/3/4 333/3/4 336/3/4
f 334/3/4 335/3/4 337/3/4
f 337/3/4 335/3/4 338/3/4
f 339/3/4 340/3/4 343/3/4
f 343/3/4 340/3/4 344/3/4
f 341/1/4 342/1/4 345/1/4
f 345/1/4 342/1/4 346/1/4
f 339/3/4 343/3/4 347/3/4
f 344/3/4 340/3/4 348/3/4
f 339/3/4 347/3/4 349/3/4
f 347/3/4 348/3/4 349/3/4
f 348/3/4 340/3/4 350/3/4
f 349/3/4 348/3/4 350/3/4
f 351/1/4 352/1/4 357/1/4
f 353/1/4 354/1/4 359/1/4
f 359/1/4 354/1/4 360/1/4
f 355/2/4 356/2/4 361/2/4
f 361/2/4 356/2/4 362/2/4
f 357/1/4 358/1/4 363/1/4
f 351/1/4 357/1/4 363/1/4
f 363/1/4 358/1/4 364/1/4
f 365/1/4 366/1/4 369/1/4
f 369/1/4 366/1/4 370/1/4
f 367/1/4 368/1/4 371/1/4
f 371/1/4 368/1/4 372/1/4
f 373/3/4 374/3/4 375/3/4
f 375/3/4 374/3/4 376/3/4
f 373/3/4 375/3/4 379/3/4
f 379/3/4 375/3/4 380/3/4
f 376/3/4 374/3/4 381/3/4
f 377/3/4 378/3/4 384/3/4
f 384/3/4 378/3/4 385/3/4
f 379/3/4 380/3/4 386/3/4
f 380/3/4 381/3/4 386/3/4
f 381/3/4 374/3/4 387/3/4
f 386/3/4 381/3/4 387/3/4
f 382/1/4 383/1/4 388/1/4
f 385/3/4 386/3/4 390/3/4
f 390/3/4 386/3/4 391/3/4
f 382/1/4 388/1/4 392/1/4
f 392/1/4 388/1/4 393/1/4
f 389/3/4 390/3/4 394/3/4
f 394/3/4 390/3/4 395/3/4
f 396/1/4 397/1/4 400/1/4
f 400/1/4 397/1/4 401/1/4
f 398/2/4 399/2/4 402/2/4
f 402/2/4 399/2/4 403/2/4
f 404/3/4 405/3/4 406/3/4
f 406/3/4 405/3/4 407/3/4
f 404/3/4 406/3/4 408/3/4
f 407/3/4 405/3/4 409/3/4
f 404/3/4 408/3/4 410/3/4
f 408/3/4 409/3/4 410/3/4
f 409/3/4 405/3/4 411/3/4
f 410/3/4 409/3/4 411/3/4
f 417/1/5 413/1/5 412/1/5
f 418/1/5 413/1/5 417/1/5
f 419/1/5 415/1/5 414/1/5
f 420/1/5 415/1/5 419/1/5
f 421/1/5 418/1/5 417/1/5
f 421/1/5 417/1/5 416/1/5
f 421/1/5 419/1/5 418/1/5
f 422/1/5 419/1/5 421/1/5
f 423/1/5 419/1/5 422/1/5
f 424/1/5 419/1/5 423/1/5
f 427/1/5 426/1/5 425/1/5
f 428/1/5 426/1/5 427/1/5
f 431/1/5 430/1/5 429/1/5
f 432/1/5 430/1/5 431/1/5
f 433/1/5 431/1/5 429/1/5
f 434/1/5 431/1/5 433/1/5
f 439/3/5 436/3/5 435/3/5
f 440/3/5 438/3/5 437/3/5
f 441/3/5 439/3/5 435/3/5
f 441/3/5 440/3/5 439/3/5
f 442/3/5 438/3/5 440/3/5
f 442/3/5 440/3/5 441/3/5
f 445/1/5 444/1/5 443/1/5
f 446/1/5 444/1/5 445/1/5
f 447/1/5 444/1/5 446/1/5
f 450/3/5 449/3/5 448/3/5
f 451/3/5 449/3/5 450/3/5
f 452/3/5 450/3/5 448/3/5
f 453/3/5 449/3/5 451/3/5
f 454/3/5 452/3/5 448/3/5
f 454/3/5 453/3/5 452/3/5
f 455/3/5 449/3/5 453/3/5
f 455/3/5 453/3/5 454/3/5
f 459/3/5 457/3/5 456/3/5
f 460/3/5 457/3/5 459/3/5
f 462/3/5 459/3/5 458/3/5
f 463/3/5 459/3/5 462/3/5
f 464/3/5 461/3/5 460/3/5
f 465/3/5 461/3/5 464/3/5
f 466/3/5 464/3/5 463/3/5
f 467/3/5 464/3/5 466/3/5
f 470/3/5 469/3/5 468/3/5
f 471/3/5 469/3/5 470/3/5
f 472/3/5 470/3/5 468/3/5
f 473/3/5 469/3/5 471/3/5
f 474/3/5 469/3/5 473/3/5
f 475/3/5 472/3/5 468/3/5
f 475/3/5 473/3/5 472/3/5
f 476/3/5 473/3/5 475/3/5
f 480/3/5 478/3/5 477/3/5
f 481/3/5 478/3/5 480/3/5
f 483/3/5 480/3/5 479/3/5
f 484/3/5 480/3/5 483/3/5
f 485/3/5 482/3/5 481/3/5
f 486/3/5 482/3/5 485/3/5
f 487/3/5 485/3/5 484/3/5
f 488/3/5 485/3/5 487/3/5
f 492/3/5 490/3/5 489/3/5
f 493/3/5 490/3/5 492/3/5
f 495/3/5 492/3/5 491/3/5
f 496/3/5 492/3/5 495/3/5
f 497/3/5 494/3/5 493/3/5
f 498/3/5 494/3/5 497/3/5
f 499/3/5 497/3/5 496/3/5
f 500/3/5 497/3/5 499/3/5
f 501/1/6 502/1/6 505/1/6
f 505/1/6 502/1/6 506/1/6
f 503/1/6 504/1/6 507/1/6
f 507/1/6 504/1/6 508/1/6
f 509/1/6 510/1/6 511/1/6
f 511/1/6 510/1/6 512/1/6
f 513/3/6 514/3/6 515/3/6
f 515/3/6 514/3/6 516/3/6
f 515/1/6 516/1/6 517/1/6
f 517/1/6 516/1/6 518/1/6
f 519/1/6 520/1/6 521/1/6
f 519/1/6 521/1/6 522/1/6
f 522/1/6 521/1/6 524/1/6
f 524/1/6 521/1/6 525/1/6
f 523/3/6 524/3/6 527/3/6
f 527/3/6 524/3/6 528/3/6
f 526/3/6 527/3/6 530/3/6
f 530/3/6 527/3/6 531/3/6
f 528/3/6 529/3/6 532/3/6
f 532/3/6 529/3/6 533/3/6
f 531/3/6 532/3/6 534/3/6
f 534/3/6 532/3/6 535/3/6
f 536/1/6 537/1/6 538/1/6
f 538/1/6 537/1/6 539/1/6
f 540/2/6 541/2/6 542/2/6
f 542/2/6 541/2/6 543/2/6
f 544/3/6 545/3/6 547/3/6
f 547/3/6 545/3/6 548/3/6
f 546/3/6 547/3/6 550/3/6
f 550/3/6 547/3/6 551/3/6
f 548/3/6 549/3/6 552/3/6
f 552/3/6 549/3/6 553/3/6
f 551/3/6 552/3/6 554/3/6
f 554/3/6 552/3/6 555/3/6
f 556/3/6 557/3/6 559/3/6
f 559/3/6 557/3/6 560/3/6
f 558/3/6 559/3/6 561/3/6
f 560/3/6 557/3/6 562/3/6
f 558/3/6 561/3/6 563/3/6
f 561/3/6 562/3/6 563/3/6
f 562/3/6 557/3/6 564/3/6
f 563/3/6 562/3/6 564/3/6
f 565/2/6 566/2/6 569/2/6
f 569/2/6 566/2/6 570/2/6
f 567/3/6 568/3/6 572/3/6
f 572/3/6 568/3/6 573/3/6
f 571/3/6 572/3/6 575/3/6
f 575/3/6 572/3/6 576/3/6
f 573/3/6 574/3/6 577/3/6
f 577/3/6 574/3/6 578/3/6
f 576/3/6 577/3/6 579/3/6
f 579/3/6 577/3/6 580/3/6
f 581/3/6 582/3/6 583/3/6
f 583/3/6 582/3/6 584/3/6
f 581/3/6 583/3/6 585/3/6
f 584/3/6 582/3/6 586/3/6
f 581/3/6 585/3/6 589/3/6
f 585/3/6 586/3/6 589/3/6
f 586/3/6 582/3/6 590/3/6
f 589/3/6 586/3/6 590/3/6
f 587/2/6 588/2/6 591/2/6
f 591/2/6 588/2/6 592/2/6
f 593/3/6 594/3/6 595/3/6
f 595/3/6 594/3/6 596/3/6
f 593/3/6 595/3/6 597/3/6
f 596/3/6 594/3/6 598/3/6
f 593/3/6 597/3/6 599/3/6
f 597/3/6 598/3/6 599/3/6
f 598/3/6 594/3/6 600/3/6
f 599/3/6 598/3/6 600/3/6
