# MagicaVoxel @ Ephtracy

# material
mtllib Turtle_01.mtl
usemtl palette

# normals
vn -1 0 0
vn 1 0 0
vn 0 0 1
vn 0 0 -1
vn 0 -1 0
vn 0 1 0

# texcoords
vt 0.529297 0.5
vt 0.556641 0.5
vt 0.912109 0.5

# verts
v -3.5 2 2
v -3.5 2 -1
v -3.5 3 2
v -3.5 3 -1
v -2.5 0 3
v -2.5 0 2
v -2.5 0 -1
v -2.5 0 -2
v -2.5 1 2
v -2.5 1 -1
v -2.5 2 3
v -2.5 2 2
v -2.5 2 -1
v -2.5 2 -2
v -2.5 3 3
v -2.5 3 2
v -2.5 3 -1
v -2.5 3 -2
v -2.5 4 2
v -2.5 4 -1
v -1.5 2 4
v -1.5 2 3
v -1.5 2 -2
v -1.5 2 -3
v -1.5 2 -4
v -1.5 3 4
v -1.5 3 3
v -1.5 3 2
v -1.5 3 -1
v -1.5 3 -2
v -1.5 3 -3
v -1.5 3 -4
v -1.5 4 3
v -1.5 4 2
v -1.5 4 -1
v -1.5 4 -2
v -1.5 5 2
v -1.5 5 -1
v -0.5 1 -2
v -0.5 1 -4
v -0.5 2 -2
v -0.5 2 -3
v -0.5 2 -4
v -0.5 5 1
v -0.5 5 -0
v -0.5 6 1
v -0.5 6 -0
v 1.5 0 3
v 1.5 0 2
v 1.5 0 -1
v 1.5 0 -2
v 1.5 1 3
v 1.5 1 2
v 1.5 1 -1
v 1.5 1 -2
v -1.5 0 3
v -1.5 0 2
v -1.5 0 -1
v -1.5 0 -2
v -1.5 1 3
v -1.5 1 2
v -1.5 1 -1
v -1.5 1 -2
v 0.5 1 -2
v 0.5 1 -4
v 0.5 2 -2
v 0.5 2 -3
v 0.5 2 -4
v 0.5 5 1
v 0.5 5 -0
v 0.5 6 1
v 0.5 6 -0
v 1.5 2 4
v 1.5 2 3
v 1.5 2 -2
v 1.5 2 -3
v 1.5 2 -4
v 1.5 3 4
v 1.5 3 3
v 1.5 3 2
v 1.5 3 -1
v 1.5 3 -2
v 1.5 3 -3
v 1.5 3 -4
v 1.5 4 3
v 1.5 4 2
v 1.5 4 -1
v 1.5 4 -2
v 1.5 5 2
v 1.5 5 -1
v 2.5 0 3
v 2.5 0 2
v 2.5 0 -1
v 2.5 0 -2
v 2.5 1 2
v 2.5 1 -1
v 2.5 2 3
v 2.5 2 2
v 2.5 2 -1
v 2.5 2 -2
v 2.5 3 3
v 2.5 3 2
v 2.5 3 -1
v 2.5 3 -2
v 2.5 4 2
v 2.5 4 -1
v 3.5 2 2
v 3.5 2 -1
v 3.5 3 2
v 3.5 3 -1
v -1.5 2 4
v -1.5 3 4
v 1.5 2 4
v 1.5 3 4
v -2.5 0 3
v -2.5 2 3
v -2.5 3 3
v -1.5 0 3
v -1.5 1 3
v -1.5 2 3
v -1.5 3 3
v -1.5 4 3
v 1.5 0 3
v 1.5 1 3
v 1.5 2 3
v 1.5 3 3
v 1.5 4 3
v 2.5 0 3
v 2.5 2 3
v 2.5 3 3
v -3.5 2 2
v -3.5 3 2
v -2.5 2 2
v -2.5 3 2
v -2.5 4 2
v -1.5 3 2
v -1.5 4 2
v -1.5 5 2
v 1.5 3 2
v 1.5 4 2
v 1.5 5 2
v 2.5 2 2
v 2.5 3 2
v 2.5 4 2
v 3.5 2 2
v 3.5 3 2
v -0.5 5 1
v -0.5 6 1
v 0.5 5 1
v 0.5 6 1
v -2.5 0 -1
v -2.5 1 -1
v -1.5 0 -1
v -1.5 1 -1
v 1.5 0 -1
v 1.5 1 -1
v 2.5 0 -1
v 2.5 1 -1
v -2.5 0 2
v -2.5 1 2
v -1.5 0 2
v -1.5 1 2
v 1.5 0 2
v 1.5 1 2
v 2.5 0 2
v 2.5 1 2
v -0.5 5 -0
v -0.5 6 -0
v 0.5 5 -0
v 0.5 6 -0
v -3.5 2 -1
v -3.5 3 -1
v -2.5 2 -1
v -2.5 3 -1
v -2.5 4 -1
v -1.5 3 -1
v -1.5 4 -1
v -1.5 5 -1
v 1.5 3 -1
v 1.5 4 -1
v 1.5 5 -1
v 2.5 2 -1
v 2.5 3 -1
v 2.5 4 -1
v 3.5 2 -1
v 3.5 3 -1
v -2.5 0 -2
v -2.5 2 -2
v -2.5 3 -2
v -1.5 0 -2
v -1.5 1 -2
v -1.5 2 -2
v -1.5 3 -2
v -1.5 4 -2
v -0.5 1 -2
v -0.5 2 -2
v 0.5 1 -2
v 0.5 2 -2
v 1.5 0 -2
v 1.5 1 -2
v 1.5 2 -2
v 1.5 3 -2
v 1.5 4 -2
v 2.5 0 -2
v 2.5 2 -2
v 2.5 3 -2
v -1.5 2 -4
v -1.5 3 -4
v -0.5 1 -4
v -0.5 2 -4
v -0.5 3 -4
v 0.5 1 -4
v 0.5 2 -4
v 0.5 3 -4
v 1.5 2 -4
v 1.5 3 -4
v -2.5 0 3
v -1.5 0 3
v 1.5 0 3
v 2.5 0 3
v -2.5 0 2
v -1.5 0 2
v 1.5 0 2
v 2.5 0 2
v -2.5 0 -1
v -1.5 0 -1
v 1.5 0 -1
v 2.5 0 -1
v -2.5 0 -2
v -1.5 0 -2
v 1.5 0 -2
v 2.5 0 -2
v -1.5 1 3
v 1.5 1 3
v -2.5 1 2
v -1.5 1 2
v 1.5 1 2
v 2.5 1 2
v -2.5 1 -1
v -1.5 1 -1
v 1.5 1 -1
v 2.5 1 -1
v -1.5 1 -2
v -0.5 1 -2
v 0.5 1 -2
v 1.5 1 -2
v -0.5 1 -4
v 0.5 1 -4
v -1.5 2 4
v 1.5 2 4
v -1.5 2 3
v 1.5 2 3
v -3.5 2 2
v -2.5 2 2
v 2.5 2 2
v 3.5 2 2
v -3.5 2 -1
v -2.5 2 -1
v 2.5 2 -1
v 3.5 2 -1
v -1.5 2 -2
v -0.5 2 -2
v 0.5 2 -2
v 1.5 2 -2
v -1.5 2 -3
v -0.5 2 -3
v 0.5 2 -3
v 1.5 2 -3
v -1.5 2 -4
v -0.5 2 -4
v 0.5 2 -4
v 1.5 2 -4
v -1.5 3 4
v 1.5 3 4
v -2.5 3 3
v -1.5 3 3
v 1.5 3 3
v 2.5 3 3
v -3.5 3 2
v -2.5 3 2
v -1.5 3 2
v 1.5 3 2
v 2.5 3 2
v 3.5 3 2
v -3.5 3 -1
v -2.5 3 -1
v -1.5 3 -1
v 1.5 3 -1
v 2.5 3 -1
v 3.5 3 -1
v -2.5 3 -2
v -1.5 3 -2
v 1.5 3 -2
v 2.5 3 -2
v -1.5 3 -3
v -0.5 3 -3
v 0.5 3 -3
v 1.5 3 -3
v -1.5 3 -4
v -0.5 3 -4
v 0.5 3 -4
v 1.5 3 -4
v -1.5 4 3
v 1.5 4 3
v -2.5 4 2
v -1.5 4 2
v 1.5 4 2
v 2.5 4 2
v -2.5 4 -1
v -1.5 4 -1
v 1.5 4 -1
v 2.5 4 -1
v -1.5 4 -2
v 1.5 4 -2
v -1.5 5 2
v 1.5 5 2
v -0.5 5 1
v 0.5 5 1
v -0.5 5 -0
v 0.5 5 -0
v -1.5 5 -1
v 1.5 5 -1
v -0.5 6 1
v 0.5 6 1
v -0.5 6 -0
v 0.5 6 -0

# faces
f 3/2/1 2/2/1 1/2/1
f 4/2/1 2/2/1 3/2/1
f 9/1/1 6/1/1 5/1/1
f 10/1/1 8/1/1 7/1/1
f 11/1/1 9/1/1 5/1/1
f 11/1/1 10/1/1 9/1/1
f 12/1/1 10/1/1 11/1/1
f 13/1/1 8/1/1 10/1/1
f 13/1/1 10/1/1 12/1/1
f 14/1/1 8/1/1 13/1/1
f 15/2/1 12/2/1 11/2/1
f 16/2/1 12/2/1 15/2/1
f 17/2/1 14/2/1 13/2/1
f 18/2/1 14/2/1 17/2/1
f 19/2/1 17/2/1 16/2/1
f 20/2/1 17/2/1 19/2/1
f 26/2/1 22/2/1 21/2/1
f 27/2/1 22/2/1 26/2/1
f 30/2/1 24/2/1 23/2/1
f 31/3/1 25/3/1 24/3/1
f 31/2/1 24/2/1 30/2/1
f 32/3/1 25/3/1 31/3/1
f 33/2/1 28/2/1 27/2/1
f 34/2/1 28/2/1 33/2/1
f 35/2/1 30/2/1 29/2/1
f 36/2/1 30/2/1 35/2/1
f 37/2/1 35/2/1 34/2/1
f 38/2/1 35/2/1 37/2/1
f 41/1/1 40/1/1 39/1/1
f 42/1/1 40/1/1 41/1/1
f 43/1/1 40/1/1 42/1/1
f 46/2/1 45/2/1 44/2/1
f 47/2/1 45/2/1 46/2/1
f 52/1/1 49/1/1 48/1/1
f 53/1/1 49/1/1 52/1/1
f 54/1/1 51/1/1 50/1/1
f 55/1/1 51/1/1 54/1/1
f 56/1/2 57/1/2 60/1/2
f 60/1/2 57/1/2 61/1/2
f 58/1/2 59/1/2 62/1/2
f 62/1/2 59/1/2 63/1/2
f 64/1/2 65/1/2 66/1/2
f 66/1/2 65/1/2 67/1/2
f 67/1/2 65/1/2 68/1/2
f 69/2/2 70/2/2 71/2/2
f 71/2/2 70/2/2 72/2/2
f 73/2/2 74/2/2 78/2/2
f 78/2/2 74/2/2 79/2/2
f 75/2/2 76/2/2 82/2/2
f 76/3/2 77/3/2 83/3/2
f 82/2/2 76/2/2 83/2/2
f 83/3/2 77/3/2 84/3/2
f 79/2/2 80/2/2 85/2/2
f 85/2/2 80/2/2 86/2/2
f 81/2/2 82/2/2 87/2/2
f 87/2/2 82/2/2 88/2/2
f 86/2/2 87/2/2 89/2/2
f 89/2/2 87/2/2 90/2/2
f 91/1/2 92/1/2 95/1/2
f 93/1/2 94/1/2 96/1/2
f 91/1/2 95/1/2 97/1/2
f 95/1/2 96/1/2 97/1/2
f 97/1/2 96/1/2 98/1/2
f 96/1/2 94/1/2 99/1/2
f 98/1/2 96/1/2 99/1/2
f 99/1/2 94/1/2 100/1/2
f 97/2/2 98/2/2 101/2/2
f 101/2/2 98/2/2 102/2/2
f 99/2/2 100/2/2 103/2/2
f 103/2/2 100/2/2 104/2/2
f 102/2/2 103/2/2 105/2/2
f 105/2/2 103/2/2 106/2/2
f 107/2/2 108/2/2 109/2/2
f 109/2/2 108/2/2 110/2/2
f 113/2/3 112/2/3 111/2/3
f 114/2/3 112/2/3 113/2/3
f 118/1/3 116/1/3 115/1/3
f 119/1/3 116/1/3 118/1/3
f 120/2/3 117/2/3 116/2/3
f 120/1/3 116/1/3 119/1/3
f 121/2/3 117/2/3 120/2/3
f 124/1/3 120/1/3 119/1/3
f 125/1/3 120/1/3 124/1/3
f 126/2/3 122/2/3 121/2/3
f 127/2/3 122/2/3 126/2/3
f 128/1/3 125/1/3 124/1/3
f 128/1/3 124/1/3 123/1/3
f 129/2/3 126/2/3 125/2/3
f 129/1/3 125/1/3 128/1/3
f 130/2/3 126/2/3 129/2/3
f 133/2/3 132/2/3 131/2/3
f 134/2/3 132/2/3 133/2/3
f 136/2/3 135/2/3 134/2/3
f 137/2/3 135/2/3 136/2/3
f 140/2/3 138/2/3 137/2/3
f 141/2/3 138/2/3 140/2/3
f 143/2/3 140/2/3 139/2/3
f 144/2/3 140/2/3 143/2/3
f 145/2/3 143/2/3 142/2/3
f 146/2/3 143/2/3 145/2/3
f 149/2/3 148/2/3 147/2/3
f 150/2/3 148/2/3 149/2/3
f 153/1/3 152/1/3 151/1/3
f 154/1/3 152/1/3 153/1/3
f 157/1/3 156/1/3 155/1/3
f 158/1/3 156/1/3 157/1/3
f 159/1/4 160/1/4 161/1/4
f 161/1/4 160/1/4 162/1/4
f 163/1/4 164/1/4 165/1/4
f 165/1/4 164/1/4 166/1/4
f 167/2/4 168/2/4 169/2/4
f 169/2/4 168/2/4 170/2/4
f 171/2/4 172/2/4 173/2/4
f 173/2/4 172/2/4 174/2/4
f 174/2/4 175/2/4 176/2/4
f 176/2/4 175/2/4 177/2/4
f 177/2/4 178/2/4 180/2/4
f 180/2/4 178/2/4 181/2/4
f 179/2/4 180/2/4 183/2/4
f 183/2/4 180/2/4 184/2/4
f 182/2/4 183/2/4 185/2/4
f 185/2/4 183/2/4 186/2/4
f 187/1/4 188/1/4 190/1/4
f 190/1/4 188/1/4 191/1/4
f 188/2/4 189/2/4 192/2/4
f 191/1/4 188/1/4 192/1/4
f 192/2/4 189/2/4 193/2/4
f 191/1/4 192/1/4 195/1/4
f 195/1/4 192/1/4 196/1/4
f 197/1/4 198/1/4 200/1/4
f 200/1/4 198/1/4 201/1/4
f 193/2/4 194/2/4 202/2/4
f 202/2/4 194/2/4 203/2/4
f 200/1/4 201/1/4 204/1/4
f 199/1/4 200/1/4 204/1/4
f 201/2/4 202/2/4 205/2/4
f 204/1/4 201/1/4 205/1/4
f 205/2/4 202/2/4 206/2/4
f 207/3/4 208/3/4 210/3/4
f 210/3/4 208/3/4 211/3/4
f 209/1/4 210/1/4 212/1/4
f 210/1/4 211/1/4 212/1/4
f 212/1/4 211/1/4 213/1/4
f 213/1/4 211/1/4 214/1/4
f 213/3/4 214/3/4 215/3/4
f 215/3/4 214/3/4 216/3/4
f 221/1/5 218/1/5 217/1/5
f 222/1/5 218/1/5 221/1/5
f 223/1/5 220/1/5 219/1/5
f 224/1/5 220/1/5 223/1/5
f 229/1/5 226/1/5 225/1/5
f 230/1/5 226/1/5 229/1/5
f 231/1/5 228/1/5 227/1/5
f 232/1/5 228/1/5 231/1/5
f 236/1/5 234/1/5 233/1/5
f 237/1/5 234/1/5 236/1/5
f 239/1/5 236/1/5 235/1/5
f 239/1/5 238/1/5 237/1/5
f 239/1/5 237/1/5 236/1/5
f 240/1/5 238/1/5 239/1/5
f 241/1/5 238/1/5 240/1/5
f 242/1/5 238/1/5 241/1/5
f 243/1/5 241/1/5 240/1/5
f 244/1/5 241/1/5 243/1/5
f 245/1/5 241/1/5 244/1/5
f 246/1/5 241/1/5 245/1/5
f 247/1/5 245/1/5 244/1/5
f 248/1/5 245/1/5 247/1/5
f 251/2/5 250/2/5 249/2/5
f 252/2/5 250/2/5 251/2/5
f 257/2/5 254/2/5 253/2/5
f 258/2/5 254/2/5 257/2/5
f 259/2/5 256/2/5 255/2/5
f 260/2/5 256/2/5 259/2/5
f 265/2/5 262/2/5 261/2/5
f 266/2/5 262/2/5 265/2/5
f 267/2/5 264/2/5 263/2/5
f 268/2/5 264/2/5 267/2/5
f 269/3/5 266/3/5 265/3/5
f 270/3/5 266/3/5 269/3/5
f 271/3/5 268/3/5 267/3/5
f 272/3/5 268/3/5 271/3/5
f 273/2/6 274/2/6 276/2/6
f 276/2/6 274/2/6 277/2/6
f 275/2/6 276/2/6 280/2/6
f 280/2/6 276/2/6 281/2/6
f 277/2/6 278/2/6 282/2/6
f 282/2/6 278/2/6 283/2/6
f 279/2/6 280/2/6 285/2/6
f 285/2/6 280/2/6 286/2/6
f 283/2/6 284/2/6 289/2/6
f 289/2/6 284/2/6 290/2/6
f 286/2/6 287/2/6 291/2/6
f 291/2/6 287/2/6 292/2/6
f 288/2/6 289/2/6 293/2/6
f 293/2/6 289/2/6 294/2/6
f 292/2/6 293/2/6 295/2/6
f 295/2/6 293/2/6 296/2/6
f 296/2/6 293/2/6 297/2/6
f 297/2/6 293/2/6 298/2/6
f 295/3/6 296/3/6 299/3/6
f 296/1/6 297/1/6 300/1/6
f 299/3/6 296/3/6 300/3/6
f 297/3/6 298/3/6 301/3/6
f 300/1/6 297/1/6 301/1/6
f 301/3/6 298/3/6 302/3/6
f 303/2/6 304/2/6 306/2/6
f 306/2/6 304/2/6 307/2/6
f 305/2/6 306/2/6 309/2/6
f 309/2/6 306/2/6 310/2/6
f 307/2/6 308/2/6 311/2/6
f 311/2/6 308/2/6 312/2/6
f 310/2/6 311/2/6 313/2/6
f 313/2/6 311/2/6 314/2/6
f 315/2/6 316/2/6 317/2/6
f 317/2/6 316/2/6 318/2/6
f 315/2/6 317/2/6 319/2/6
f 318/2/6 316/2/6 320/2/6
f 315/2/6 319/2/6 321/2/6
f 319/2/6 320/2/6 321/2/6
f 320/2/6 316/2/6 322/2/6
f 321/2/6 320/2/6 322/2/6
f 323/2/6 324/2/6 325/2/6
f 325/2/6 324/2/6 326/2/6
