# MagicaVoxel @ Ephtracy

# material
mtllib WaterBlock_ice_05.mtl
usemtl palette

# normals
vn -1 0 0
vn 1 0 0
vn 0 0 1
vn 0 0 -1
vn 0 -1 0
vn 0 1 0

# texcoords
vt 0.302734 0.5
vt 0.677734 0.5
vt 0.736328 0.5
vt 0.748047 0.5

# verts
v -3 0 3
v -3 0 -3
v -3 2 3
v -3 2 2
v -3 2 -2
v -3 2 -3
v -3 3 3
v -3 3 2
v -3 3 -2
v -3 3 -3
v 3 0 3
v 3 0 -3
v 3 2 3
v 3 2 -3
v 3 3 3
v 3 3 -3
v -3 0 3
v -3 2 3
v -3 3 3
v 3 0 3
v 3 2 3
v 3 3 3
v -3 0 -3
v -3 2 -3
v -3 3 -3
v 3 0 -3
v 3 2 -3
v 3 3 -3
v -3 0 3
v 3 0 3
v -3 0 -3
v 3 0 -3
v -3 3 3
v 3 3 3
v -3 3 2
v -1 3 2
v 0 3 2
v 1 3 2
v -1 3 1
v 0 3 1
v 1 3 -0
v 2 3 -0
v -2 3 -1
v -1 3 -1
v 0 3 -1
v 2 3 -1
v -3 3 -2
v -2 3 -2
v -1 3 -2
v 0 3 -2
v -3 3 -3
v 3 3 -3

# faces
f 3/4/1 2/4/1 1/4/1
f 4/4/1 2/4/1 3/4/1
f 5/4/1 2/4/1 4/4/1
f 6/4/1 2/4/1 5/4/1
f 7/2/1 4/2/1 3/2/1
f 8/4/1 5/4/1 4/4/1
f 8/2/1 4/2/1 7/2/1
f 9/2/1 6/2/1 5/2/1
f 9/4/1 5/4/1 8/4/1
f 10/2/1 6/2/1 9/2/1
f 11/4/2 12/4/2 13/4/2
f 13/4/2 12/4/2 14/4/2
f 13/2/2 14/2/2 15/2/2
f 15/2/2 14/2/2 16/2/2
f 20/4/3 18/4/3 17/4/3
f 21/2/3 19/2/3 18/2/3
f 21/4/3 18/4/3 20/4/3
f 22/2/3 19/2/3 21/2/3
f 23/4/4 24/4/4 26/4/4
f 24/2/4 25/2/4 27/2/4
f 26/4/4 24/4/4 27/4/4
f 27/2/4 25/2/4 28/2/4
f 31/4/5 30/4/5 29/4/5
f 32/4/5 30/4/5 31/4/5
f 33/2/6 34/2/6 35/2/6
f 35/2/6 34/2/6 36/2/6
f 36/2/6 34/2/6 37/2/6
f 37/2/6 34/2/6 38/2/6
f 35/4/6 36/4/6 39/4/6
f 36/2/6 37/2/6 39/2/6
f 37/4/6 38/4/6 40/4/6
f 39/2/6 37/2/6 40/2/6
f 38/2/6 34/2/6 41/2/6
f 40/4/6 38/4/6 41/4/6
f 39/4/6 40/4/6 41/4/6
f 41/2/6 34/2/6 42/2/6
f 35/4/6 39/4/6 43/4/6
f 39/4/6 41/4/6 43/4/6
f 41/4/6 42/4/6 43/4/6
f 43/4/6 42/4/6 44/4/6
f 44/4/6 42/4/6 45/4/6
f 42/2/6 34/2/6 46/2/6
f 45/4/6 42/4/6 46/4/6
f 35/4/6 43/4/6 47/4/6
f 43/2/6 44/2/6 48/2/6
f 47/4/6 43/4/6 48/4/6
f 44/4/6 45/4/6 49/4/6
f 48/2/6 44/2/6 49/2/6
f 45/2/6 46/2/6 50/2/6
f 49/4/6 45/4/6 50/4/6
f 47/2/6 48/2/6 51/2/6
f 48/2/6 49/2/6 51/2/6
f 49/2/6 50/2/6 51/2/6
f 50/2/6 46/2/6 52/2/6
f 51/2/6 50/2/6 52/2/6
f 46/2/6 34/2/6 52/2/6
