# MagicaVoxel @ Ephtracy

# material
mtllib Wolf_02.mtl
usemtl palette

# normals
vn -1 0 0
vn 1 0 0
vn 0 0 1
vn 0 0 -1
vn 0 -1 0
vn 0 1 0

# texcoords
vt 0.306641 0.5
vt 0.931641 0.5
vt 0.958984 0.5
vt 0.982422 0.5

# verts
v -7 5 1
v -7 5 -1
v -7 6 1
v -7 6 -1
v -7 7 1
v -7 7 -1
v -5 7 2
v -5 7 1
v -5 7 -1
v -5 7 -2
v -5 8 2
v -5 8 1
v -5 8 -1
v -5 8 -2
v -4 8 2
v -4 8 1
v -4 8 -1
v -4 8 -2
v -4 9 2
v -4 9 1
v -4 9 -1
v -4 9 -2
v -3 0 2
v -3 0 1
v -3 0 -1
v -3 0 -2
v -3 1 2
v -3 1 1
v -3 1 -1
v -3 1 -2
v -3 3 1
v -3 3 -1
v -3 5 1
v -3 5 -1
v -3 6 2
v -3 6 1
v -3 6 -1
v -3 6 -2
v 4 0 2
v 4 0 1
v 4 0 -1
v 4 0 -2
v 4 1 2
v 4 1 1
v 4 1 -1
v 4 1 -2
v 4 3 2
v 4 3 1
v 4 3 -1
v 4 3 -2
v 6 3 1
v 6 3 -1
v 6 4 1
v 6 4 -1
v -3 7 2
v -3 7 1
v -3 7 -1
v -3 7 -2
v -3 8 1
v -3 8 -1
v -3 9 2
v -3 9 1
v -3 9 -1
v -3 9 -2
v -2 0 2
v -2 0 1
v -2 0 -1
v -2 0 -2
v -2 1 2
v -2 1 1
v -2 1 -1
v -2 1 -2
v -2 3 2
v -2 3 1
v -2 3 -1
v -2 3 -2
v 5 0 2
v 5 0 1
v 5 0 -1
v 5 0 -2
v 5 1 2
v 5 1 1
v 5 1 -1
v 5 1 -2
v 5 3 1
v 5 3 -1
v 5 4 1
v 5 4 -1
v 5 6 2
v 5 6 1
v 5 6 -1
v 5 6 -2
v 5 7 1
v 5 7 -1
v 6 5 1
v 6 5 -1
v 6 6 1
v 6 6 -1
v 7 3 1
v 7 3 -1
v 7 5 1
v 7 5 -1
v -5 7 2
v -5 8 2
v -4 7 2
v -4 8 2
v -4 9 2
v -3 0 2
v -3 1 2
v -3 6 2
v -3 7 2
v -3 9 2
v -2 0 2
v -2 1 2
v -2 3 2
v 4 0 2
v 4 1 2
v 4 3 2
v 5 0 2
v 5 1 2
v 5 6 2
v -7 5 1
v -7 6 1
v -7 7 1
v -6 6 1
v -6 7 1
v -5 7 1
v -4 7 1
v -3 5 1
v -3 6 1
v -3 7 1
v 5 4 1
v 5 6 1
v 5 7 1
v 6 3 1
v 6 4 1
v 6 5 1
v 6 6 1
v 7 3 1
v 7 5 1
v -4 8 -1
v -4 9 -1
v -3 0 -1
v -3 1 -1
v -3 3 -1
v -3 8 -1
v -3 9 -1
v -2 0 -1
v -2 1 -1
v -2 3 -1
v 4 0 -1
v 4 1 -1
v 4 3 -1
v 5 0 -1
v 5 1 -1
v 5 3 -1
v -4 8 1
v -4 9 1
v -3 0 1
v -3 1 1
v -3 3 1
v -3 8 1
v -3 9 1
v -2 0 1
v -2 1 1
v -2 3 1
v 4 0 1
v 4 1 1
v 4 3 1
v 5 0 1
v 5 1 1
v 5 3 1
v -7 5 -1
v -7 6 -1
v -7 7 -1
v -6 6 -1
v -6 7 -1
v -5 7 -1
v -4 7 -1
v -3 5 -1
v -3 6 -1
v -3 7 -1
v 5 4 -1
v 5 6 -1
v 5 7 -1
v 6 3 -1
v 6 4 -1
v 6 5 -1
v 6 6 -1
v 7 3 -1
v 7 5 -1
v -5 7 -2
v -5 8 -2
v -4 7 -2
v -4 8 -2
v -4 9 -2
v -3 0 -2
v -3 1 -2
v -3 6 -2
v -3 7 -2
v -3 9 -2
v -2 0 -2
v -2 1 -2
v -2 3 -2
v 4 0 -2
v 4 1 -2
v 4 3 -2
v 5 0 -2
v 5 1 -2
v 5 6 -2
v -3 0 2
v -2 0 2
v 4 0 2
v 5 0 2
v -3 0 1
v -2 0 1
v 4 0 1
v 5 0 1
v -3 0 -1
v -2 0 -1
v 4 0 -1
v 5 0 -1
v -3 0 -2
v -2 0 -2
v 4 0 -2
v 5 0 -2
v -2 3 2
v 4 3 2
v -3 3 1
v -2 3 1
v 4 3 1
v 5 3 1
v 6 3 1
v 7 3 1
v -3 3 -1
v -2 3 -1
v 4 3 -1
v 5 3 -1
v 6 3 -1
v 7 3 -1
v -2 3 -2
v 4 3 -2
v 5 4 1
v 6 4 1
v 5 4 -1
v 6 4 -1
v -7 5 1
v -3 5 1
v -7 5 -1
v -3 5 -1
v -5 7 2
v -4 7 2
v -3 7 2
v -5 7 1
v -4 7 1
v -3 7 1
v -5 7 -1
v -4 7 -1
v -3 7 -1
v -5 7 -2
v -4 7 -2
v -3 7 -2
v 6 5 1
v 7 5 1
v 6 5 -1
v 7 5 -1
v -3 6 2
v 5 6 2
v -3 6 1
v 5 6 1
v 6 6 1
v -3 6 -1
v 5 6 -1
v 6 6 -1
v -3 6 -2
v 5 6 -2
v -7 7 1
v -6 7 1
v -5 7 1
v -3 7 1
v 5 7 1
v -7 7 -1
v -6 7 -1
v -5 7 -1
v -3 7 -1
v 5 7 -1
v -5 8 2
v -4 8 2
v -5 8 1
v -4 8 1
v -3 8 1
v -5 8 -1
v -4 8 -1
v -3 8 -1
v -5 8 -2
v -4 8 -2
v -4 9 2
v -3 9 2
v -4 9 1
v -3 9 1
v -4 9 -1
v -3 9 -1
v -4 9 -2
v -3 9 -2

# faces
f 3/1/1 2/1/1 1/1/1
f 4/1/1 2/1/1 3/1/1
f 5/4/1 4/4/1 3/4/1
f 6/4/1 4/4/1 5/4/1
f 11/3/1 8/3/1 7/3/1
f 12/1/1 9/1/1 8/1/1
f 12/3/1 8/3/1 11/3/1
f 13/3/1 10/3/1 9/3/1
f 13/1/1 9/1/1 12/1/1
f 14/3/1 10/3/1 13/3/1
f 19/1/1 16/1/1 15/1/1
f 20/1/1 16/1/1 19/1/1
f 21/1/1 18/1/1 17/1/1
f 22/1/1 18/1/1 21/1/1
f 27/4/1 24/4/1 23/4/1
f 28/4/1 24/4/1 27/4/1
f 29/4/1 26/4/1 25/4/1
f 30/4/1 26/4/1 29/4/1
f 31/1/1 28/1/1 27/1/1
f 32/1/1 30/1/1 29/1/1
f 33/1/1 31/1/1 27/1/1
f 33/1/1 32/1/1 31/1/1
f 34/1/1 30/1/1 32/1/1
f 34/1/1 32/1/1 33/1/1
f 35/1/1 33/1/1 27/1/1
f 36/1/1 33/1/1 35/1/1
f 37/1/1 30/1/1 34/1/1
f 38/1/1 30/1/1 37/1/1
f 43/4/1 40/4/1 39/4/1
f 44/4/1 40/4/1 43/4/1
f 45/4/1 42/4/1 41/4/1
f 46/4/1 42/4/1 45/4/1
f 47/1/1 44/1/1 43/1/1
f 48/1/1 44/1/1 47/1/1
f 49/1/1 46/1/1 45/1/1
f 50/1/1 46/1/1 49/1/1
f 53/1/1 52/1/1 51/1/1
f 54/1/1 52/1/1 53/1/1
f 55/1/2 56/1/2 59/1/2
f 57/1/2 58/1/2 59/1/2
f 56/1/2 57/1/2 59/1/2
f 59/1/2 58/1/2 60/1/2
f 55/1/2 59/1/2 61/1/2
f 61/1/2 59/1/2 62/1/2
f 60/1/2 58/1/2 63/1/2
f 63/1/2 58/1/2 64/1/2
f 65/4/2 66/4/2 69/4/2
f 69/4/2 66/4/2 70/4/2
f 67/4/2 68/4/2 71/4/2
f 71/4/2 68/4/2 72/4/2
f 69/1/2 70/1/2 73/1/2
f 73/1/2 70/1/2 74/1/2
f 71/1/2 72/1/2 75/1/2
f 75/1/2 72/1/2 76/1/2
f 77/4/2 78/4/2 81/4/2
f 81/4/2 78/4/2 82/4/2
f 79/4/2 80/4/2 83/4/2
f 83/4/2 80/4/2 84/4/2
f 81/1/2 82/1/2 85/1/2
f 83/1/2 84/1/2 86/1/2
f 81/1/2 85/1/2 87/1/2
f 85/1/2 86/1/2 87/1/2
f 86/1/2 84/1/2 88/1/2
f 87/1/2 86/1/2 88/1/2
f 81/1/2 87/1/2 89/1/2
f 89/1/2 87/1/2 90/1/2
f 88/1/2 84/1/2 91/1/2
f 91/1/2 84/1/2 92/1/2
f 90/1/2 91/1/2 93/1/2
f 93/1/2 91/1/2 94/1/2
f 95/1/2 96/1/2 97/1/2
f 97/1/2 96/1/2 98/1/2
f 99/1/2 100/1/2 101/1/2
f 101/1/2 100/1/2 102/1/2
f 105/3/3 104/3/3 103/3/3
f 106/3/3 104/3/3 105/3/3
f 111/1/3 106/1/3 105/1/3
f 111/1/3 107/1/3 106/1/3
f 112/1/3 107/1/3 111/1/3
f 113/4/3 109/4/3 108/4/3
f 114/1/3 110/1/3 109/1/3
f 114/4/3 109/4/3 113/4/3
f 115/1/3 110/1/3 114/1/3
f 118/1/3 110/1/3 115/1/3
f 119/4/3 117/4/3 116/4/3
f 120/1/3 118/1/3 117/1/3
f 120/4/3 117/4/3 119/4/3
f 121/1/3 110/1/3 118/1/3
f 121/1/3 118/1/3 120/1/3
f 125/1/3 123/1/3 122/1/3
f 125/4/3 124/4/3 123/4/3
f 126/4/3 124/4/3 125/4/3
f 127/1/3 126/1/3 125/1/3
f 128/1/3 127/1/3 125/1/3
f 129/1/3 125/1/3 122/1/3
f 129/1/3 128/1/3 125/1/3
f 130/1/3 128/1/3 129/1/3
f 131/1/3 128/1/3 130/1/3
f 133/1/3 131/1/3 130/1/3
f 134/1/3 131/1/3 133/1/3
f 136/1/3 133/1/3 132/1/3
f 137/1/3 133/1/3 136/1/3
f 138/1/3 133/1/3 137/1/3
f 139/1/3 136/1/3 135/1/3
f 139/1/3 137/1/3 136/1/3
f 140/1/3 137/1/3 139/1/3
f 146/1/3 142/1/3 141/1/3
f 147/1/3 142/1/3 146/1/3
f 148/4/3 144/4/3 143/4/3
f 149/1/3 145/1/3 144/1/3
f 149/4/3 144/4/3 148/4/3
f 150/1/3 145/1/3 149/1/3
f 154/4/3 152/4/3 151/4/3
f 155/1/3 153/1/3 152/1/3
f 155/4/3 152/4/3 154/4/3
f 156/1/3 153/1/3 155/1/3
f 157/1/4 158/1/4 162/1/4
f 162/1/4 158/1/4 163/1/4
f 159/4/4 160/4/4 164/4/4
f 160/1/4 161/1/4 165/1/4
f 164/4/4 160/4/4 165/4/4
f 165/1/4 161/1/4 166/1/4
f 167/4/4 168/4/4 170/4/4
f 168/1/4 169/1/4 171/1/4
f 170/4/4 168/4/4 171/4/4
f 171/1/4 169/1/4 172/1/4
f 173/1/4 174/1/4 176/1/4
f 174/4/4 175/4/4 176/4/4
f 176/4/4 175/4/4 177/4/4
f 176/1/4 177/1/4 178/1/4
f 176/1/4 178/1/4 179/1/4
f 173/1/4 176/1/4 180/1/4
f 176/1/4 179/1/4 180/1/4
f 180/1/4 179/1/4 181/1/4
f 181/1/4 179/1/4 182/1/4
f 181/1/4 182/1/4 184/1/4
f 184/1/4 182/1/4 185/1/4
f 183/1/4 184/1/4 187/1/4
f 187/1/4 184/1/4 188/1/4
f 188/1/4 184/1/4 189/1/4
f 186/1/4 187/1/4 190/1/4
f 187/1/4 188/1/4 190/1/4
f 190/1/4 188/1/4 191/1/4
f 192/3/4 193/3/4 194/3/4
f 194/3/4 193/3/4 195/3/4
f 194/1/4 195/1/4 200/1/4
f 195/1/4 196/1/4 200/1/4
f 200/1/4 196/1/4 201/1/4
f 197/4/4 198/4/4 202/4/4
f 198/1/4 199/1/4 203/1/4
f 202/4/4 198/4/4 203/4/4
f 203/1/4 199/1/4 204/1/4
f 204/1/4 199/1/4 207/1/4
f 205/4/4 206/4/4 208/4/4
f 206/1/4 207/1/4 209/1/4
f 208/4/4 206/4/4 209/4/4
f 207/1/4 199/1/4 210/1/4
f 209/1/4 207/1/4 210/1/4
f 215/4/5 212/4/5 211/4/5
f 216/4/5 212/4/5 215/4/5
f 217/4/5 214/4/5 213/4/5
f 218/4/5 214/4/5 217/4/5
f 223/4/5 220/4/5 219/4/5
f 224/4/5 220/4/5 223/4/5
f 225/4/5 222/4/5 221/4/5
f 226/4/5 222/4/5 225/4/5
f 230/1/5 228/1/5 227/1/5
f 231/1/5 228/1/5 230/1/5
f 235/1/5 230/1/5 229/1/5
f 235/1/5 231/1/5 230/1/5
f 235/1/5 232/1/5 231/1/5
f 236/1/5 232/1/5 235/1/5
f 237/1/5 232/1/5 236/1/5
f 238/1/5 232/1/5 237/1/5
f 239/1/5 234/1/5 233/1/5
f 240/1/5 234/1/5 239/1/5
f 241/1/5 237/1/5 236/1/5
f 242/1/5 237/1/5 241/1/5
f 245/1/5 244/1/5 243/1/5
f 246/1/5 244/1/5 245/1/5
f 249/1/5 248/1/5 247/1/5
f 250/1/5 248/1/5 249/1/5
f 254/3/5 252/3/5 251/3/5
f 255/1/5 253/1/5 252/1/5
f 255/3/5 252/3/5 254/3/5
f 256/1/5 253/1/5 255/1/5
f 260/3/5 258/3/5 257/3/5
f 261/1/5 259/1/5 258/1/5
f 261/3/5 258/3/5 260/3/5
f 262/1/5 259/1/5 261/1/5
f 263/1/6 264/1/6 265/1/6
f 265/1/6 264/1/6 266/1/6
f 267/1/6 268/1/6 269/1/6
f 269/1/6 268/1/6 270/1/6
f 270/1/6 271/1/6 273/1/6
f 273/1/6 271/1/6 274/1/6
f 272/1/6 273/1/6 275/1/6
f 275/1/6 273/1/6 276/1/6
f 277/4/6 278/4/6 282/4/6
f 278/1/6 279/1/6 283/1/6
f 282/4/6 278/4/6 283/4/6
f 283/1/6 279/1/6 284/1/6
f 280/1/6 281/1/6 285/1/6
f 285/1/6 281/1/6 286/1/6
f 287/3/6 288/3/6 289/3/6
f 289/3/6 288/3/6 290/3/6
f 289/1/6 290/1/6 292/1/6
f 290/1/6 291/1/6 292/1/6
f 292/1/6 291/1/6 293/1/6
f 293/1/6 291/1/6 294/1/6
f 292/3/6 293/3/6 295/3/6
f 295/3/6 293/3/6 296/3/6
f 297/1/6 298/1/6 299/1/6
f 299/1/6 298/1/6 300/1/6
f 301/1/6 302/1/6 303/1/6
f 303/1/6 302/1/6 304/1/6
