# MagicaVoxel @ Ephtracy

# material
mtllib Bucket_01.mtl
usemtl palette

# normals
vn -1 0 0
vn 1 0 0
vn 0 0 1
vn 0 0 -1
vn 0 -1 0
vn 0 1 0

# texcoords
vt 0.279297 0.5
vt 0.298828 0.5
vt 0.302734 0.5
vt 0.736328 0.5
vt 0.974609 0.5

# verts
v -2.5 1 1.5
v -2.5 1 0.5
v -2.5 1 -0.5
v -2.5 1 -1.5
v -2.5 3 1.5
v -2.5 3 0.5
v -2.5 3 -0.5
v -2.5 3 -1.5
v -2.5 4 1.5
v -2.5 4 0.5
v -2.5 4 -0.5
v -2.5 4 -1.5
v -2.5 6 0.5
v -2.5 6 -0.5
v -1.5 0 1.5
v -1.5 0 0.5
v -1.5 0 -0.5
v -1.5 0 -1.5
v -1.5 1 2.5
v -1.5 1 1.5
v -1.5 1 0.5
v -1.5 1 -0.5
v -1.5 1 -1.5
v -1.5 1 -2.5
v -1.5 3 2.5
v -1.5 3 1.5
v -1.5 3 -1.5
v -1.5 3 -2.5
v -1.5 4 2.5
v -1.5 4 1.5
v -1.5 4 -1.5
v -1.5 4 -2.5
v -1.5 6 0.5
v -1.5 6 -0.5
v -1.5 7 0.5
v -1.5 7 -0.5
v 0.5 5 0.5
v 0.5 5 -0.5
v 0.5 6 0.5
v 0.5 6 -0.5
v 1.5 3 1.5
v 1.5 3 0.5
v 1.5 3 -0.5
v 1.5 3 -1.5
v 1.5 4 1.5
v 1.5 4 0.5
v 1.5 4 -0.5
v 1.5 4 -1.5
v 1.5 5 0.5
v 1.5 5 -0.5
v -1.5 3 1.5
v -1.5 3 0.5
v -1.5 3 -0.5
v -1.5 3 -1.5
v -1.5 4 1.5
v -1.5 4 0.5
v -1.5 4 -0.5
v -1.5 4 -1.5
v -1.5 5 0.5
v -1.5 5 -0.5
v -0.5 5 0.5
v -0.5 5 -0.5
v -0.5 6 0.5
v -0.5 6 -0.5
v 1.5 0 1.5
v 1.5 0 0.5
v 1.5 0 -0.5
v 1.5 0 -1.5
v 1.5 1 2.5
v 1.5 1 1.5
v 1.5 1 0.5
v 1.5 1 -0.5
v 1.5 1 -1.5
v 1.5 1 -2.5
v 1.5 3 2.5
v 1.5 3 1.5
v 1.5 3 -1.5
v 1.5 3 -2.5
v 1.5 4 2.5
v 1.5 4 1.5
v 1.5 4 -1.5
v 1.5 4 -2.5
v 1.5 6 0.5
v 1.5 6 -0.5
v 1.5 7 0.5
v 1.5 7 -0.5
v 2.5 1 1.5
v 2.5 1 0.5
v 2.5 1 -0.5
v 2.5 1 -1.5
v 2.5 3 1.5
v 2.5 3 0.5
v 2.5 3 -0.5
v 2.5 3 -1.5
v 2.5 4 1.5
v 2.5 4 0.5
v 2.5 4 -0.5
v 2.5 4 -1.5
v 2.5 6 0.5
v 2.5 6 -0.5
v -1.5 1 2.5
v -1.5 3 2.5
v -1.5 4 2.5
v -0.5 1 2.5
v -0.5 3 2.5
v 0.5 1 2.5
v 0.5 3 2.5
v 1.5 1 2.5
v 1.5 3 2.5
v 1.5 4 2.5
v -2.5 1 1.5
v -2.5 3 1.5
v -2.5 4 1.5
v -1.5 0 1.5
v -1.5 1 1.5
v -1.5 3 1.5
v -1.5 4 1.5
v -0.5 0 1.5
v -0.5 1 1.5
v 0.5 0 1.5
v 0.5 1 1.5
v 1.5 0 1.5
v 1.5 1 1.5
v 1.5 3 1.5
v 1.5 4 1.5
v 2.5 1 1.5
v 2.5 3 1.5
v 2.5 4 1.5
v -2.5 4 0.5
v -2.5 6 0.5
v -1.5 4 0.5
v -1.5 5 0.5
v -1.5 6 0.5
v -1.5 7 0.5
v -0.5 5 0.5
v -0.5 6 0.5
v 0.5 5 0.5
v 0.5 6 0.5
v 1.5 4 0.5
v 1.5 5 0.5
v 1.5 6 0.5
v 1.5 7 0.5
v 2.5 4 0.5
v 2.5 6 0.5
v -1.5 3 -1.5
v -1.5 4 -1.5
v 1.5 3 -1.5
v 1.5 4 -1.5
v -1.5 3 1.5
v -1.5 4 1.5
v 1.5 3 1.5
v 1.5 4 1.5
v -2.5 4 -0.5
v -2.5 6 -0.5
v -1.5 4 -0.5
v -1.5 5 -0.5
v -1.5 6 -0.5
v -1.5 7 -0.5
v -0.5 5 -0.5
v -0.5 6 -0.5
v 0.5 5 -0.5
v 0.5 6 -0.5
v 1.5 4 -0.5
v 1.5 5 -0.5
v 1.5 6 -0.5
v 1.5 7 -0.5
v 2.5 4 -0.5
v 2.5 6 -0.5
v -2.5 1 -1.5
v -2.5 3 -1.5
v -2.5 4 -1.5
v -1.5 0 -1.5
v -1.5 1 -1.5
v -1.5 3 -1.5
v -1.5 4 -1.5
v -0.5 0 -1.5
v -0.5 1 -1.5
v 0.5 0 -1.5
v 0.5 1 -1.5
v 1.5 0 -1.5
v 1.5 1 -1.5
v 1.5 3 -1.5
v 1.5 4 -1.5
v 2.5 1 -1.5
v 2.5 3 -1.5
v 2.5 4 -1.5
v -1.5 1 -2.5
v -1.5 3 -2.5
v -1.5 4 -2.5
v -0.5 1 -2.5
v -0.5 3 -2.5
v 0.5 1 -2.5
v 0.5 3 -2.5
v 1.5 1 -2.5
v 1.5 3 -2.5
v 1.5 4 -2.5
v -1.5 0 1.5
v -0.5 0 1.5
v 0.5 0 1.5
v 1.5 0 1.5
v -1.5 0 0.5
v -0.5 0 0.5
v 0.5 0 0.5
v 1.5 0 0.5
v -1.5 0 -0.5
v -0.5 0 -0.5
v 0.5 0 -0.5
v 1.5 0 -0.5
v -1.5 0 -1.5
v -0.5 0 -1.5
v 0.5 0 -1.5
v 1.5 0 -1.5
v -1.5 1 2.5
v -0.5 1 2.5
v 0.5 1 2.5
v 1.5 1 2.5
v -2.5 1 1.5
v -1.5 1 1.5
v -0.5 1 1.5
v 0.5 1 1.5
v 1.5 1 1.5
v 2.5 1 1.5
v -2.5 1 0.5
v -1.5 1 0.5
v 1.5 1 0.5
v 2.5 1 0.5
v -2.5 1 -0.5
v -1.5 1 -0.5
v 1.5 1 -0.5
v 2.5 1 -0.5
v -2.5 1 -1.5
v -1.5 1 -1.5
v -0.5 1 -1.5
v 0.5 1 -1.5
v 1.5 1 -1.5
v 2.5 1 -1.5
v -1.5 1 -2.5
v -0.5 1 -2.5
v 0.5 1 -2.5
v 1.5 1 -2.5
v -1.5 5 0.5
v -0.5 5 0.5
v 0.5 5 0.5
v 1.5 5 0.5
v -1.5 5 -0.5
v -0.5 5 -0.5
v 0.5 5 -0.5
v 1.5 5 -0.5
v -0.5 6 0.5
v 0.5 6 0.5
v -0.5 6 -0.5
v 0.5 6 -0.5
v -1.5 3 1.5
v 1.5 3 1.5
v -1.5 3 0.5
v 1.5 3 0.5
v -1.5 3 -0.5
v 1.5 3 -0.5
v -1.5 3 -1.5
v 1.5 3 -1.5
v -1.5 4 2.5
v 1.5 4 2.5
v -2.5 4 1.5
v -1.5 4 1.5
v 1.5 4 1.5
v 2.5 4 1.5
v -2.5 4 0.5
v -1.5 4 0.5
v 1.5 4 0.5
v 2.5 4 0.5
v -2.5 4 -0.5
v -1.5 4 -0.5
v 1.5 4 -0.5
v 2.5 4 -0.5
v -2.5 4 -1.5
v -1.5 4 -1.5
v 1.5 4 -1.5
v 2.5 4 -1.5
v -1.5 4 -2.5
v 1.5 4 -2.5
v -2.5 6 0.5
v -1.5 6 0.5
v 1.5 6 0.5
v 2.5 6 0.5
v -2.5 6 -0.5
v -1.5 6 -0.5
v 1.5 6 -0.5
v 2.5 6 -0.5
v -1.5 7 0.5
v 1.5 7 0.5
v -1.5 7 -0.5
v 1.5 7 -0.5

# faces
f 5/3/1 2/3/1 1/3/1
f 6/1/1 3/1/1 2/1/1
f 6/3/1 2/3/1 5/3/1
f 7/3/1 4/3/1 3/3/1
f 7/1/1 3/1/1 6/1/1
f 8/3/1 4/3/1 7/3/1
f 9/2/1 6/2/1 5/2/1
f 10/1/1 7/1/1 6/1/1
f 10/2/1 6/2/1 9/2/1
f 11/2/1 8/2/1 7/2/1
f 11/1/1 7/1/1 10/1/1
f 12/2/1 8/2/1 11/2/1
f 13/5/1 11/5/1 10/5/1
f 14/5/1 11/5/1 13/5/1
f 20/3/1 16/3/1 15/3/1
f 21/1/1 17/1/1 16/1/1
f 21/3/1 16/3/1 20/3/1
f 22/3/1 18/3/1 17/3/1
f 22/1/1 17/1/1 21/1/1
f 23/3/1 18/3/1 22/3/1
f 25/3/1 20/3/1 19/3/1
f 26/3/1 20/3/1 25/3/1
f 27/3/1 24/3/1 23/3/1
f 28/3/1 24/3/1 27/3/1
f 29/2/1 26/2/1 25/2/1
f 30/2/1 26/2/1 29/2/1
f 31/2/1 28/2/1 27/2/1
f 32/2/1 28/2/1 31/2/1
f 35/5/1 34/5/1 33/5/1
f 36/5/1 34/5/1 35/5/1
f 39/5/1 38/5/1 37/5/1
f 40/5/1 38/5/1 39/5/1
f 45/2/1 42/2/1 41/2/1
f 46/1/1 43/1/1 42/1/1
f 46/2/1 42/2/1 45/2/1
f 47/2/1 44/2/1 43/2/1
f 47/1/1 43/1/1 46/1/1
f 48/2/1 44/2/1 47/2/1
f 49/5/1 47/5/1 46/5/1
f 50/5/1 47/5/1 49/5/1
f 51/2/2 52/2/2 55/2/2
f 52/1/2 53/1/2 56/1/2
f 55/2/2 52/2/2 56/2/2
f 53/2/2 54/2/2 57/2/2
f 56/1/2 53/1/2 57/1/2
f 57/2/2 54/2/2 58/2/2
f 56/5/2 57/5/2 59/5/2
f 59/5/2 57/5/2 60/5/2
f 61/5/2 62/5/2 63/5/2
f 63/5/2 62/5/2 64/5/2
f 65/3/2 66/3/2 70/3/2
f 66/1/2 67/1/2 71/1/2
f 70/3/2 66/3/2 71/3/2
f 67/3/2 68/3/2 72/3/2
f 71/1/2 67/1/2 72/1/2
f 72/3/2 68/3/2 73/3/2
f 69/3/2 70/3/2 75/3/2
f 75/3/2 70/3/2 76/3/2
f 73/3/2 74/3/2 77/3/2
f 77/3/2 74/3/2 78/3/2
f 75/2/2 76/2/2 79/2/2
f 79/2/2 76/2/2 80/2/2
f 77/2/2 78/2/2 81/2/2
f 81/2/2 78/2/2 82/2/2
f 83/5/2 84/5/2 85/5/2
f 85/5/2 84/5/2 86/5/2
f 87/3/2 88/3/2 91/3/2
f 88/1/2 89/1/2 92/1/2
f 91/3/2 88/3/2 92/3/2
f 89/3/2 90/3/2 93/3/2
f 92/1/2 89/1/2 93/1/2
f 93/3/2 90/3/2 94/3/2
f 91/2/2 92/2/2 95/2/2
f 92/1/2 93/1/2 96/1/2
f 95/2/2 92/2/2 96/2/2
f 93/2/2 94/2/2 97/2/2
f 96/1/2 93/1/2 97/1/2
f 97/2/2 94/2/2 98/2/2
f 96/5/2 97/5/2 99/5/2
f 99/5/2 97/5/2 100/5/2
f 104/3/3 102/3/3 101/3/3
f 105/2/3 103/2/3 102/2/3
f 105/3/3 102/3/3 104/3/3
f 106/1/3 105/1/3 104/1/3
f 107/2/3 103/2/3 105/2/3
f 107/1/3 105/1/3 106/1/3
f 108/3/3 107/3/3 106/3/3
f 109/2/3 103/2/3 107/2/3
f 109/3/3 107/3/3 108/3/3
f 110/2/3 103/2/3 109/2/3
f 115/3/3 112/3/3 111/3/3
f 116/2/3 113/2/3 112/2/3
f 116/3/3 112/3/3 115/3/3
f 117/2/3 113/2/3 116/2/3
f 118/3/3 115/3/3 114/3/3
f 119/3/3 115/3/3 118/3/3
f 120/1/3 119/1/3 118/1/3
f 121/1/3 119/1/3 120/1/3
f 122/3/3 121/3/3 120/3/3
f 123/3/3 121/3/3 122/3/3
f 126/3/3 124/3/3 123/3/3
f 127/2/3 125/2/3 124/2/3
f 127/3/3 124/3/3 126/3/3
f 128/2/3 125/2/3 127/2/3
f 131/5/3 130/5/3 129/5/3
f 132/5/3 130/5/3 131/5/3
f 133/5/3 130/5/3 132/5/3
f 135/5/3 134/5/3 133/5/3
f 135/5/3 133/5/3 132/5/3
f 136/5/3 134/5/3 135/5/3
f 138/5/3 134/5/3 136/5/3
f 140/5/3 138/5/3 137/5/3
f 141/5/3 134/5/3 138/5/3
f 141/5/3 138/5/3 140/5/3
f 142/5/3 134/5/3 141/5/3
f 143/5/3 140/5/3 139/5/3
f 143/5/3 141/5/3 140/5/3
f 144/5/3 141/5/3 143/5/3
f 147/2/3 146/2/3 145/2/3
f 148/2/3 146/2/3 147/2/3
f 149/2/4 150/2/4 151/2/4
f 151/2/4 150/2/4 152/2/4
f 153/5/4 154/5/4 155/5/4
f 155/5/4 154/5/4 156/5/4
f 156/5/4 154/5/4 157/5/4
f 157/5/4 158/5/4 159/5/4
f 156/5/4 157/5/4 159/5/4
f 159/5/4 158/5/4 160/5/4
f 160/5/4 158/5/4 162/5/4
f 161/5/4 162/5/4 164/5/4
f 162/5/4 158/5/4 165/5/4
f 164/5/4 162/5/4 165/5/4
f 165/5/4 158/5/4 166/5/4
f 163/5/4 164/5/4 167/5/4
f 164/5/4 165/5/4 167/5/4
f 167/5/4 165/5/4 168/5/4
f 169/3/4 170/3/4 173/3/4
f 170/2/4 171/2/4 174/2/4
f 173/3/4 170/3/4 174/3/4
f 174/2/4 171/2/4 175/2/4
f 172/3/4 173/3/4 176/3/4
f 176/3/4 173/3/4 177/3/4
f 176/1/4 177/1/4 178/1/4
f 178/1/4 177/1/4 179/1/4
f 178/3/4 179/3/4 180/3/4
f 180/3/4 179/3/4 181/3/4
f 181/3/4 182/3/4 184/3/4
f 182/2/4 183/2/4 185/2/4
f 184/3/4 182/3/4 185/3/4
f 185/2/4 183/2/4 186/2/4
f 187/3/4 188/3/4 190/3/4
f 188/2/4 189/2/4 191/2/4
f 190/3/4 188/3/4 191/3/4
f 190/1/4 191/1/4 192/1/4
f 191/2/4 189/2/4 193/2/4
f 192/1/4 191/1/4 193/1/4
f 192/3/4 193/3/4 194/3/4
f 193/2/4 189/2/4 195/2/4
f 194/3/4 193/3/4 195/3/4
f 195/2/4 189/2/4 196/2/4
f 201/3/5 198/3/5 197/3/5
f 202/1/5 199/1/5 198/1/5
f 202/3/5 198/3/5 201/3/5
f 203/3/5 200/3/5 199/3/5
f 203/1/5 199/1/5 202/1/5
f 204/3/5 200/3/5 203/3/5
f 205/1/5 202/1/5 201/1/5
f 205/1/5 203/1/5 202/1/5
f 205/1/5 204/1/5 203/1/5
f 206/1/5 204/1/5 205/1/5
f 207/1/5 204/1/5 206/1/5
f 208/1/5 204/1/5 207/1/5
f 209/3/5 206/3/5 205/3/5
f 210/1/5 207/1/5 206/1/5
f 210/3/5 206/3/5 209/3/5
f 211/3/5 208/3/5 207/3/5
f 211/1/5 207/1/5 210/1/5
f 212/3/5 208/3/5 211/3/5
f 218/3/5 214/3/5 213/3/5
f 219/1/5 215/1/5 214/1/5
f 219/3/5 214/3/5 218/3/5
f 220/3/5 216/3/5 215/3/5
f 220/1/5 215/1/5 219/1/5
f 221/3/5 216/3/5 220/3/5
f 223/3/5 218/3/5 217/3/5
f 224/3/5 218/3/5 223/3/5
f 225/3/5 222/3/5 221/3/5
f 226/3/5 222/3/5 225/3/5
f 227/1/5 224/1/5 223/1/5
f 228/1/5 224/1/5 227/1/5
f 229/1/5 226/1/5 225/1/5
f 230/1/5 226/1/5 229/1/5
f 231/3/5 228/3/5 227/3/5
f 232/3/5 228/3/5 231/3/5
f 235/3/5 230/3/5 229/3/5
f 236/3/5 230/3/5 235/3/5
f 237/3/5 233/3/5 232/3/5
f 238/1/5 234/1/5 233/1/5
f 238/3/5 233/3/5 237/3/5
f 239/3/5 235/3/5 234/3/5
f 239/1/5 234/1/5 238/1/5
f 240/3/5 235/3/5 239/3/5
f 245/5/5 242/5/5 241/5/5
f 246/5/5 242/5/5 245/5/5
f 247/5/5 244/5/5 243/5/5
f 248/5/5 244/5/5 247/5/5
f 251/5/5 250/5/5 249/5/5
f 252/5/5 250/5/5 251/5/5
f 253/4/6 254/4/6 255/4/6
f 255/4/6 254/4/6 256/4/6
f 255/4/6 256/4/6 257/4/6
f 257/4/6 256/4/6 258/4/6
f 257/4/6 258/4/6 259/4/6
f 259/4/6 258/4/6 260/4/6
f 261/2/6 262/2/6 264/2/6
f 264/2/6 262/2/6 265/2/6
f 263/2/6 264/2/6 267/2/6
f 267/2/6 264/2/6 268/2/6
f 265/2/6 266/2/6 269/2/6
f 269/2/6 266/2/6 270/2/6
f 271/2/6 272/2/6 275/2/6
f 275/2/6 272/2/6 276/2/6
f 273/2/6 274/2/6 277/2/6
f 277/2/6 274/2/6 278/2/6
f 276/2/6 277/2/6 279/2/6
f 279/2/6 277/2/6 280/2/6
f 281/5/6 282/5/6 285/5/6
f 285/5/6 282/5/6 286/5/6
f 283/5/6 284/5/6 287/5/6
f 287/5/6 284/5/6 288/5/6
f 289/5/6 290/5/6 291/5/6
f 291/5/6 290/5/6 292/5/6
