# MagicaVoxel @ Ephtracy

# material
mtllib Coin_05.mtl
usemtl palette

# normals
vn -1 0 0
vn 1 0 0
vn 0 0 1
vn 0 0 -1
vn 0 -1 0
vn 0 1 0

# texcoords
vt 0.419922 0.5
vt 0.478516 0.5

# verts
v -3.5 2 0.5
v -3.5 2 -0.5
v -3.5 5 0.5
v -3.5 5 -0.5
v -2.5 1 0.5
v -2.5 1 -0.5
v -2.5 2 0.5
v -2.5 2 -0.5
v -2.5 5 0.5
v -2.5 5 -0.5
v -2.5 6 0.5
v -2.5 6 -0.5
v -1.5 0 0.5
v -1.5 0 -0.5
v -1.5 1 0.5
v -1.5 1 -0.5
v -1.5 6 0.5
v -1.5 6 -0.5
v -1.5 7 0.5
v -1.5 7 -0.5
v 1.5 0 0.5
v 1.5 0 -0.5
v 1.5 1 0.5
v 1.5 1 -0.5
v 1.5 6 0.5
v 1.5 6 -0.5
v 1.5 7 0.5
v 1.5 7 -0.5
v 2.5 1 0.5
v 2.5 1 -0.5
v 2.5 2 0.5
v 2.5 2 -0.5
v 2.5 5 0.5
v 2.5 5 -0.5
v 2.5 6 0.5
v 2.5 6 -0.5
v 3.5 2 0.5
v 3.5 2 -0.5
v 3.5 5 0.5
v 3.5 5 -0.5
v -3.5 2 0.5
v -3.5 5 0.5
v -2.5 1 0.5
v -2.5 2 0.5
v -2.5 5 0.5
v -2.5 6 0.5
v -1.5 0 0.5
v -1.5 1 0.5
v -1.5 2 0.5
v -1.5 5 0.5
v -1.5 6 0.5
v -1.5 7 0.5
v -0.5 2 0.5
v -0.5 5 0.5
v 0.5 2 0.5
v 0.5 5 0.5
v 1.5 0 0.5
v 1.5 1 0.5
v 1.5 2 0.5
v 1.5 5 0.5
v 1.5 6 0.5
v 1.5 7 0.5
v 2.5 1 0.5
v 2.5 2 0.5
v 2.5 5 0.5
v 2.5 6 0.5
v 3.5 2 0.5
v 3.5 5 0.5
v -3.5 2 -0.5
v -3.5 5 -0.5
v -2.5 1 -0.5
v -2.5 2 -0.5
v -2.5 5 -0.5
v -2.5 6 -0.5
v -1.5 0 -0.5
v -1.5 1 -0.5
v -1.5 2 -0.5
v -1.5 5 -0.5
v -1.5 6 -0.5
v -1.5 7 -0.5
v -0.5 2 -0.5
v -0.5 5 -0.5
v 0.5 2 -0.5
v 0.5 5 -0.5
v 1.5 0 -0.5
v 1.5 1 -0.5
v 1.5 2 -0.5
v 1.5 5 -0.5
v 1.5 6 -0.5
v 1.5 7 -0.5
v 2.5 1 -0.5
v 2.5 2 -0.5
v 2.5 5 -0.5
v 2.5 6 -0.5
v 3.5 2 -0.5
v 3.5 5 -0.5
v -1.5 0 0.5
v 1.5 0 0.5
v -1.5 0 -0.5
v 1.5 0 -0.5
v -2.5 1 0.5
v -1.5 1 0.5
v 1.5 1 0.5
v 2.5 1 0.5
v -2.5 1 -0.5
v -1.5 1 -0.5
v 1.5 1 -0.5
v 2.5 1 -0.5
v -3.5 2 0.5
v -2.5 2 0.5
v 2.5 2 0.5
v 3.5 2 0.5
v -3.5 2 -0.5
v -2.5 2 -0.5
v 2.5 2 -0.5
v 3.5 2 -0.5
v -3.5 5 0.5
v -2.5 5 0.5
v 2.5 5 0.5
v 3.5 5 0.5
v -3.5 5 -0.5
v -2.5 5 -0.5
v 2.5 5 -0.5
v 3.5 5 -0.5
v -2.5 6 0.5
v -1.5 6 0.5
v 1.5 6 0.5
v 2.5 6 0.5
v -2.5 6 -0.5
v -1.5 6 -0.5
v 1.5 6 -0.5
v 2.5 6 -0.5
v -1.5 7 0.5
v 1.5 7 0.5
v -1.5 7 -0.5
v 1.5 7 -0.5

# faces
f 3/1/1 2/1/1 1/1/1
f 4/1/1 2/1/1 3/1/1
f 7/1/1 6/1/1 5/1/1
f 8/1/1 6/1/1 7/1/1
f 11/1/1 10/1/1 9/1/1
f 12/1/1 10/1/1 11/1/1
f 15/1/1 14/1/1 13/1/1
f 16/1/1 14/1/1 15/1/1
f 19/1/1 18/1/1 17/1/1
f 20/1/1 18/1/1 19/1/1
f 21/1/2 22/1/2 23/1/2
f 23/1/2 22/1/2 24/1/2
f 25/1/2 26/1/2 27/1/2
f 27/1/2 26/1/2 28/1/2
f 29/1/2 30/1/2 31/1/2
f 31/1/2 30/1/2 32/1/2
f 33/1/2 34/1/2 35/1/2
f 35/1/2 34/1/2 36/1/2
f 37/1/2 38/1/2 39/1/2
f 39/1/2 38/1/2 40/1/2
f 44/1/3 42/1/3 41/1/3
f 45/1/3 42/1/3 44/1/3
f 48/1/3 44/1/3 43/1/3
f 49/2/3 45/2/3 44/2/3
f 49/1/3 44/1/3 48/1/3
f 50/1/3 46/1/3 45/1/3
f 50/2/3 45/2/3 49/2/3
f 51/1/3 46/1/3 50/1/3
f 53/2/3 49/2/3 48/2/3
f 53/2/3 50/2/3 49/2/3
f 53/2/3 51/2/3 50/2/3
f 54/2/3 51/2/3 53/2/3
f 55/2/3 53/2/3 48/2/3
f 55/1/3 54/1/3 53/1/3
f 56/2/3 51/2/3 54/2/3
f 56/1/3 54/1/3 55/1/3
f 57/1/3 48/1/3 47/1/3
f 58/2/3 55/2/3 48/2/3
f 58/1/3 48/1/3 57/1/3
f 58/2/3 56/2/3 55/2/3
f 59/2/3 56/2/3 58/2/3
f 60/2/3 51/2/3 56/2/3
f 60/2/3 56/2/3 59/2/3
f 61/1/3 52/1/3 51/1/3
f 61/2/3 51/2/3 60/2/3
f 62/1/3 52/1/3 61/1/3
f 63/1/3 59/1/3 58/1/3
f 64/2/3 60/2/3 59/2/3
f 64/1/3 59/1/3 63/1/3
f 65/1/3 61/1/3 60/1/3
f 65/2/3 60/2/3 64/2/3
f 66/1/3 61/1/3 65/1/3
f 67/1/3 65/1/3 64/1/3
f 68/1/3 65/1/3 67/1/3
f 69/1/4 70/1/4 72/1/4
f 72/1/4 70/1/4 73/1/4
f 71/1/4 72/1/4 76/1/4
f 72/2/4 73/2/4 77/2/4
f 76/1/4 72/1/4 77/1/4
f 73/1/4 74/1/4 78/1/4
f 77/2/4 73/2/4 78/2/4
f 78/1/4 74/1/4 79/1/4
f 76/2/4 77/2/4 81/2/4
f 77/2/4 78/2/4 81/2/4
f 78/2/4 79/2/4 81/2/4
f 81/2/4 79/2/4 82/2/4
f 76/2/4 81/2/4 83/2/4
f 81/1/4 82/1/4 83/1/4
f 82/2/4 79/2/4 84/2/4
f 83/1/4 82/1/4 84/1/4
f 75/1/4 76/1/4 85/1/4
f 76/2/4 83/2/4 86/2/4
f 85/1/4 76/1/4 86/1/4
f 83/2/4 84/2/4 86/2/4
f 86/2/4 84/2/4 87/2/4
f 84/2/4 79/2/4 88/2/4
f 87/2/4 84/2/4 88/2/4
f 79/1/4 80/1/4 89/1/4
f 88/2/4 79/2/4 89/2/4
f 89/1/4 80/1/4 90/1/4
f 86/1/4 87/1/4 91/1/4
f 87/2/4 88/2/4 92/2/4
f 91/1/4 87/1/4 92/1/4
f 88/1/4 89/1/4 93/1/4
f 92/2/4 88/2/4 93/2/4
f 93/1/4 89/1/4 94/1/4
f 92/1/4 93/1/4 95/1/4
f 95/1/4 93/1/4 96/1/4
f 99/1/5 98/1/5 97/1/5
f 100/1/5 98/1/5 99/1/5
f 105/1/5 102/1/5 101/1/5
f 106/1/5 102/1/5 105/1/5
f 107/1/5 104/1/5 103/1/5
f 108/1/5 104/1/5 107/1/5
f 113/1/5 110/1/5 109/1/5
f 114/1/5 110/1/5 113/1/5
f 115/1/5 112/1/5 111/1/5
f 116/1/5 112/1/5 115/1/5
f 117/1/6 118/1/6 121/1/6
f 121/1/6 118/1/6 122/1/6
f 119/1/6 120/1/6 123/1/6
f 123/1/6 120/1/6 124/1/6
f 125/1/6 126/1/6 129/1/6
f 129/1/6 126/1/6 130/1/6
f 127/1/6 128/1/6 131/1/6
f 131/1/6 128/1/6 132/1/6
f 133/1/6 134/1/6 135/1/6
f 135/1/6 134/1/6 136/1/6
