# MagicaVoxel @ Ephtracy

# material
mtllib Fence_type2_02.mtl
usemtl palette

# normals
vn -1 0 0
vn 1 0 0
vn 0 0 1
vn 0 0 -1
vn 0 -1 0
vn 0 1 0

# texcoords
vt 0.279297 0.5
vt 0.298828 0.5
vt 0.302734 0.5

# verts
v -6 0 1.5
v -6 0 -1.5
v -6 9 1.5
v -6 9 -1.5
v -6 10 1.5
v -6 10 -1.5
v 3 0 1.5
v 3 0 0.5
v 3 0 -0.5
v 3 0 -1.5
v 3 6 0.5
v 3 6 -0.5
v 3 7 0.5
v 3 7 -0.5
v 3 9 1.5
v 3 9 -1.5
v 3 10 1.5
v 3 10 -1.5
v -3 0 1.5
v -3 0 0.5
v -3 0 -0.5
v -3 0 -1.5
v -3 7 0.5
v -3 7 -0.5
v -3 9 1.5
v -3 9 -1.5
v -3 10 1.5
v -3 10 -1.5
v 6 0 1.5
v 6 0 -1.5
v 6 9 1.5
v 6 9 -1.5
v 6 10 1.5
v 6 10 -1.5
v -6 0 1.5
v -6 9 1.5
v -6 10 1.5
v -3 0 1.5
v -3 9 1.5
v -3 10 1.5
v 3 0 1.5
v 3 9 1.5
v 3 10 1.5
v 6 0 1.5
v 6 9 1.5
v 6 10 1.5
v -3 0 0.5
v -3 7 0.5
v -2 0 0.5
v -2 6 0.5
v -1 0 0.5
v -1 6 0.5
v 0 0 0.5
v 0 6 0.5
v 1 0 0.5
v 1 6 0.5
v 2 0 0.5
v 2 6 0.5
v 3 0 0.5
v 3 6 0.5
v 3 7 0.5
v -3 0 -0.5
v -3 7 -0.5
v -2 0 -0.5
v -2 6 -0.5
v -1 0 -0.5
v -1 6 -0.5
v 0 0 -0.5
v 0 6 -0.5
v 1 0 -0.5
v 1 6 -0.5
v 2 0 -0.5
v 2 6 -0.5
v 3 0 -0.5
v 3 6 -0.5
v 3 7 -0.5
v -6 0 -1.5
v -6 9 -1.5
v -6 10 -1.5
v -3 0 -1.5
v -3 9 -1.5
v -3 10 -1.5
v 3 0 -1.5
v 3 9 -1.5
v 3 10 -1.5
v 6 0 -1.5
v 6 9 -1.5
v 6 10 -1.5
v -6 0 1.5
v -3 0 1.5
v 3 0 1.5
v 6 0 1.5
v -5 0 0.5
v -4 0 0.5
v -3 0 0.5
v -2 0 0.5
v -1 0 0.5
v 0 0 0.5
v 1 0 0.5
v 2 0 0.5
v 3 0 0.5
v 4 0 0.5
v 5 0 0.5
v -5 0 -0.5
v -4 0 -0.5
v -3 0 -0.5
v -2 0 -0.5
v -1 0 -0.5
v 0 0 -0.5
v 1 0 -0.5
v 2 0 -0.5
v 3 0 -0.5
v 4 0 -0.5
v 5 0 -0.5
v -6 0 -1.5
v -3 0 -1.5
v 3 0 -1.5
v 6 0 -1.5
v -3 7 0.5
v 3 7 0.5
v -3 7 -0.5
v 3 7 -0.5
v -6 10 1.5
v -3 10 1.5
v 3 10 1.5
v 6 10 1.5
v -6 10 -1.5
v -3 10 -1.5
v 3 10 -1.5
v 6 10 -1.5

# faces
f 3/1/1 2/1/1 1/1/1
f 4/1/1 2/1/1 3/1/1
f 5/2/1 4/2/1 3/2/1
f 6/2/1 4/2/1 5/2/1
f 11/1/1 8/1/1 7/1/1
f 12/1/1 10/1/1 9/1/1
f 13/1/1 11/1/1 7/1/1
f 14/1/1 10/1/1 12/1/1
f 15/1/1 13/1/1 7/1/1
f 15/1/1 14/1/1 13/1/1
f 16/1/1 10/1/1 14/1/1
f 16/1/1 14/1/1 15/1/1
f 17/2/1 16/2/1 15/2/1
f 18/2/1 16/2/1 17/2/1
f 19/1/2 20/1/2 23/1/2
f 21/1/2 22/1/2 24/1/2
f 19/1/2 23/1/2 25/1/2
f 23/1/2 24/1/2 25/1/2
f 24/1/2 22/1/2 26/1/2
f 25/1/2 24/1/2 26/1/2
f 25/2/2 26/2/2 27/2/2
f 27/2/2 26/2/2 28/2/2
f 29/1/2 30/1/2 31/1/2
f 31/1/2 30/1/2 32/1/2
f 31/2/2 32/2/2 33/2/2
f 33/2/2 32/2/2 34/2/2
f 38/1/3 36/1/3 35/1/3
f 39/2/3 37/2/3 36/2/3
f 39/1/3 36/1/3 38/1/3
f 40/2/3 37/2/3 39/2/3
f 44/1/3 42/1/3 41/1/3
f 45/2/3 43/2/3 42/2/3
f 45/1/3 42/1/3 44/1/3
f 46/2/3 43/2/3 45/2/3
f 49/2/3 48/2/3 47/2/3
f 50/2/3 48/2/3 49/2/3
f 51/3/3 50/3/3 49/3/3
f 52/2/3 48/2/3 50/2/3
f 52/3/3 50/3/3 51/3/3
f 53/2/3 52/2/3 51/2/3
f 54/2/3 48/2/3 52/2/3
f 54/2/3 52/2/3 53/2/3
f 55/3/3 54/3/3 53/3/3
f 56/2/3 48/2/3 54/2/3
f 56/3/3 54/3/3 55/3/3
f 57/2/3 56/2/3 55/2/3
f 58/2/3 48/2/3 56/2/3
f 58/2/3 56/2/3 57/2/3
f 59/3/3 58/3/3 57/3/3
f 60/2/3 48/2/3 58/2/3
f 60/3/3 58/3/3 59/3/3
f 61/2/3 48/2/3 60/2/3
f 62/2/4 63/2/4 64/2/4
f 64/2/4 63/2/4 65/2/4
f 64/3/4 65/3/4 66/3/4
f 65/2/4 63/2/4 67/2/4
f 66/3/4 65/3/4 67/3/4
f 66/2/4 67/2/4 68/2/4
f 67/2/4 63/2/4 69/2/4
f 68/2/4 67/2/4 69/2/4
f 68/3/4 69/3/4 70/3/4
f 69/2/4 63/2/4 71/2/4
f 70/3/4 69/3/4 71/3/4
f 70/2/4 71/2/4 72/2/4
f 71/2/4 63/2/4 73/2/4
f 72/2/4 71/2/4 73/2/4
f 72/3/4 73/3/4 74/3/4
f 73/2/4 63/2/4 75/2/4
f 74/3/4 73/3/4 75/3/4
f 75/2/4 63/2/4 76/2/4
f 77/1/4 78/1/4 80/1/4
f 78/2/4 79/2/4 81/2/4
f 80/1/4 78/1/4 81/1/4
f 81/2/4 79/2/4 82/2/4
f 83/1/4 84/1/4 86/1/4
f 84/2/4 85/2/4 87/2/4
f 86/1/4 84/1/4 87/1/4
f 87/2/4 85/2/4 88/2/4
f 93/1/5 90/1/5 89/1/5
f 94/1/5 90/1/5 93/1/5
f 95/1/5 90/1/5 94/1/5
f 101/1/5 92/1/5 91/1/5
f 102/1/5 92/1/5 101/1/5
f 103/1/5 92/1/5 102/1/5
f 104/1/5 93/1/5 89/1/5
f 104/3/5 94/3/5 93/3/5
f 105/1/5 95/1/5 94/1/5
f 105/3/5 94/3/5 104/3/5
f 106/2/5 96/2/5 95/2/5
f 106/1/5 95/1/5 105/1/5
f 107/3/5 97/3/5 96/3/5
f 107/2/5 96/2/5 106/2/5
f 108/2/5 98/2/5 97/2/5
f 108/3/5 97/3/5 107/3/5
f 109/3/5 99/3/5 98/3/5
f 109/2/5 98/2/5 108/2/5
f 110/2/5 100/2/5 99/2/5
f 110/3/5 99/3/5 109/3/5
f 111/3/5 101/3/5 100/3/5
f 111/2/5 100/2/5 110/2/5
f 112/1/5 102/1/5 101/1/5
f 112/3/5 101/3/5 111/3/5
f 113/3/5 103/3/5 102/3/5
f 113/1/5 102/1/5 112/1/5
f 114/1/5 92/1/5 103/1/5
f 114/3/5 103/3/5 113/3/5
f 115/1/5 104/1/5 89/1/5
f 115/1/5 105/1/5 104/1/5
f 115/1/5 106/1/5 105/1/5
f 116/1/5 106/1/5 115/1/5
f 117/1/5 113/1/5 112/1/5
f 117/1/5 114/1/5 113/1/5
f 118/1/5 92/1/5 114/1/5
f 118/1/5 114/1/5 117/1/5
f 119/2/6 120/2/6 121/2/6
f 121/2/6 120/2/6 122/2/6
f 123/2/6 124/2/6 127/2/6
f 127/2/6 124/2/6 128/2/6
f 125/2/6 126/2/6 129/2/6
f 129/2/6 126/2/6 130/2/6
