# MagicaVoxel @ Ephtracy

# material
mtllib GroundBlock_type5_03.mtl
usemtl palette

# normals
vn -1 0 0
vn 1 0 0
vn 0 0 1
vn 0 0 -1
vn 0 -1 0
vn 0 1 0

# texcoords
vt 0.302734 0.5
vt 0.322266 0.5
vt 0.541016 0.5
vt 0.556641 0.5

# verts
v -3 0 3
v -3 0 2
v -3 0 1
v -3 0 -0
v -3 0 -1
v -3 0 -3
v -3 1 -0
v -3 1 -1
v -3 2 2
v -3 2 1
v -3 2 -1
v -3 2 -2
v -3 3 2
v -3 3 1
v -3 3 -0
v -3 3 -1
v -3 3 -2
v -3 4 2
v -3 4 1
v -3 4 -1
v -3 4 -2
v -3 5 3
v -3 5 2
v -3 5 -0
v -3 5 -1
v -3 5 -2
v -3 5 -3
v -3 6 3
v -3 6 -3
v 3 0 3
v 3 0 1
v 3 0 -0
v 3 0 -1
v 3 0 -2
v 3 0 -3
v 3 1 1
v 3 1 -0
v 3 2 2
v 3 2 1
v 3 2 -1
v 3 2 -2
v 3 3 2
v 3 3 1
v 3 3 -0
v 3 3 -1
v 3 3 -2
v 3 4 2
v 3 4 1
v 3 4 -1
v 3 4 -2
v 3 5 3
v 3 5 2
v 3 5 1
v 3 5 -0
v 3 5 -2
v 3 5 -3
v 3 6 3
v 3 6 -3
v -3 0 3
v -3 5 3
v -3 6 3
v -2 2 3
v -2 3 3
v -2 4 3
v -2 5 3
v -1 0 3
v -1 1 3
v -1 2 3
v -1 3 3
v -1 4 3
v -1 5 3
v 0 0 3
v 0 1 3
v 0 3 3
v 0 5 3
v 1 0 3
v 1 2 3
v 1 3 3
v 1 4 3
v 2 0 3
v 2 2 3
v 2 3 3
v 2 4 3
v 2 5 3
v 3 0 3
v 3 5 3
v 3 6 3
v -3 0 -3
v -3 5 -3
v -3 6 -3
v -2 0 -3
v -2 2 -3
v -2 3 -3
v -2 4 -3
v -2 5 -3
v -1 0 -3
v -1 2 -3
v -1 3 -3
v -1 4 -3
v 0 0 -3
v 0 1 -3
v 0 3 -3
v 0 5 -3
v 1 0 -3
v 1 1 -3
v 1 2 -3
v 1 3 -3
v 1 4 -3
v 1 5 -3
v 2 2 -3
v 2 3 -3
v 2 4 -3
v 2 5 -3
v 3 0 -3
v 3 5 -3
v 3 6 -3
v -3 0 3
v -1 0 3
v 0 0 3
v 1 0 3
v 2 0 3
v 3 0 3
v -3 0 2
v -2 0 2
v -1 0 2
v 0 0 2
v 1 0 2
v 2 0 2
v -3 0 1
v -2 0 1
v 2 0 1
v 3 0 1
v -3 0 -0
v -2 0 -0
v 2 0 -0
v 3 0 -0
v -3 0 -1
v -2 0 -1
v 2 0 -1
v 3 0 -1
v -2 0 -2
v -1 0 -2
v 0 0 -2
v 1 0 -2
v 2 0 -2
v 3 0 -2
v -3 0 -3
v -2 0 -3
v -1 0 -3
v 0 0 -3
v 1 0 -3
v 3 0 -3
v -3 6 3
v 3 6 3
v -2 6 2
v -1 6 2
v -2 6 1
v -1 6 1
v 0 6 -0
v 1 6 -0
v 0 6 -1
v 1 6 -1
v 2 6 -1
v 1 6 -2
v 2 6 -2
v -3 6 -3
v 3 6 -3

# faces
f 7/1/1 4/1/1 3/1/1
f 7/2/1 5/2/1 4/2/1
f 8/1/1 6/1/1 5/1/1
f 8/2/1 5/2/1 7/2/1
f 9/1/1 2/1/1 1/1/1
f 9/2/1 3/2/1 2/2/1
f 10/1/1 8/1/1 7/1/1
f 10/2/1 3/2/1 9/2/1
f 10/1/1 7/1/1 3/1/1
f 11/1/1 6/1/1 8/1/1
f 11/1/1 8/1/1 10/1/1
f 12/1/1 6/1/1 11/1/1
f 13/1/1 10/1/1 9/1/1
f 13/1/1 9/1/1 1/1/1
f 13/1/1 11/1/1 10/1/1
f 14/1/1 11/1/1 13/1/1
f 15/1/1 11/1/1 14/1/1
f 16/2/1 12/2/1 11/2/1
f 16/1/1 11/1/1 15/1/1
f 17/1/1 6/1/1 12/1/1
f 17/2/1 12/2/1 16/2/1
f 18/1/1 13/1/1 1/1/1
f 18/2/1 14/2/1 13/2/1
f 19/4/1 15/4/1 14/4/1
f 19/2/1 14/2/1 18/2/1
f 20/1/1 16/1/1 15/1/1
f 20/1/1 17/1/1 16/1/1
f 21/1/1 6/1/1 17/1/1
f 21/1/1 17/1/1 20/1/1
f 22/1/1 18/1/1 1/1/1
f 23/4/1 19/4/1 18/4/1
f 23/1/1 18/1/1 22/1/1
f 24/4/1 15/4/1 19/4/1
f 24/4/1 19/4/1 23/4/1
f 24/1/1 20/1/1 15/1/1
f 25/4/1 21/4/1 20/4/1
f 25/1/1 20/1/1 24/1/1
f 26/1/1 6/1/1 21/1/1
f 26/4/1 21/4/1 25/4/1
f 27/1/1 6/1/1 26/1/1
f 28/4/1 23/4/1 22/4/1
f 28/4/1 25/4/1 24/4/1
f 28/4/1 27/4/1 26/4/1
f 28/4/1 26/4/1 25/4/1
f 28/4/1 24/4/1 23/4/1
f 29/4/1 27/4/1 28/4/1
f 30/1/2 31/1/2 36/1/2
f 31/2/2 32/2/2 36/2/2
f 32/1/2 33/1/2 37/1/2
f 36/2/2 32/2/2 37/2/2
f 30/1/2 36/1/2 38/1/2
f 36/1/2 37/1/2 38/1/2
f 38/1/2 37/1/2 39/1/2
f 33/2/2 34/2/2 40/2/2
f 39/1/2 37/1/2 40/1/2
f 37/1/2 33/1/2 40/1/2
f 34/1/2 35/1/2 41/1/2
f 40/2/2 34/2/2 41/2/2
f 38/2/2 39/2/2 42/2/2
f 30/1/2 38/1/2 42/1/2
f 39/1/2 40/1/2 43/1/2
f 42/2/2 39/2/2 43/2/2
f 40/1/2 41/1/2 43/1/2
f 43/1/2 41/1/2 44/1/2
f 44/1/2 41/1/2 45/1/2
f 41/1/2 35/1/2 46/1/2
f 45/1/2 41/1/2 46/1/2
f 30/1/2 42/1/2 47/1/2
f 42/1/2 43/1/2 47/1/2
f 43/1/2 44/1/2 47/1/2
f 47/1/2 44/1/2 48/1/2
f 44/4/2 45/4/2 49/4/2
f 45/2/2 46/2/2 49/2/2
f 46/1/2 35/1/2 50/1/2
f 49/2/2 46/2/2 50/2/2
f 30/1/2 47/1/2 51/1/2
f 47/4/2 48/4/2 52/4/2
f 51/1/2 47/1/2 52/1/2
f 48/1/2 44/1/2 53/1/2
f 52/4/2 48/4/2 53/4/2
f 44/4/2 49/4/2 54/4/2
f 53/1/2 44/1/2 54/1/2
f 49/4/2 50/4/2 54/4/2
f 50/1/2 35/1/2 55/1/2
f 54/4/2 50/4/2 55/4/2
f 55/1/2 35/1/2 56/1/2
f 52/4/2 53/4/2 57/4/2
f 51/4/2 52/4/2 57/4/2
f 55/4/2 56/4/2 57/4/2
f 54/4/2 55/4/2 57/4/2
f 53/4/2 54/4/2 57/4/2
f 57/4/2 56/4/2 58/4/2
f 62/1/3 60/1/3 59/1/3
f 63/1/3 60/1/3 62/1/3
f 64/1/3 60/1/3 63/1/3
f 65/4/3 61/4/3 60/4/3
f 65/1/3 60/1/3 64/1/3
f 66/1/3 62/1/3 59/1/3
f 67/1/3 62/1/3 66/1/3
f 68/2/3 63/2/3 62/2/3
f 68/1/3 62/1/3 67/1/3
f 69/1/3 64/1/3 63/1/3
f 69/2/3 63/2/3 68/2/3
f 70/4/3 65/4/3 64/4/3
f 70/1/3 64/1/3 69/1/3
f 71/4/3 61/4/3 65/4/3
f 71/4/3 65/4/3 70/4/3
f 72/2/3 67/2/3 66/2/3
f 73/1/3 68/1/3 67/1/3
f 73/2/3 67/2/3 72/2/3
f 73/1/3 70/1/3 69/1/3
f 73/1/3 71/1/3 70/1/3
f 73/1/3 69/1/3 68/1/3
f 74/1/3 71/1/3 73/1/3
f 75/4/3 61/4/3 71/4/3
f 75/1/3 71/1/3 74/1/3
f 76/1/3 74/1/3 73/1/3
f 76/1/3 73/1/3 72/1/3
f 77/1/3 74/1/3 76/1/3
f 78/4/3 75/4/3 74/4/3
f 78/1/3 74/1/3 77/1/3
f 79/4/3 75/4/3 78/4/3
f 80/2/3 77/2/3 76/2/3
f 81/1/3 78/1/3 77/1/3
f 81/2/3 77/2/3 80/2/3
f 82/2/3 79/2/3 78/2/3
f 82/1/3 78/1/3 81/1/3
f 83/4/3 75/4/3 79/4/3
f 83/2/3 79/2/3 82/2/3
f 84/4/3 61/4/3 75/4/3
f 84/4/3 75/4/3 83/4/3
f 85/1/3 83/1/3 82/1/3
f 85/1/3 82/1/3 81/1/3
f 85/1/3 84/1/3 83/1/3
f 85/1/3 81/1/3 80/1/3
f 86/4/3 61/4/3 84/4/3
f 86/1/3 84/1/3 85/1/3
f 87/4/3 61/4/3 86/4/3
f 88/1/4 89/1/4 91/1/4
f 91/1/4 89/1/4 92/1/4
f 92/1/4 89/1/4 93/1/4
f 93/1/4 89/1/4 94/1/4
f 89/4/4 90/4/4 95/4/4
f 94/1/4 89/1/4 95/1/4
f 91/2/4 92/2/4 96/2/4
f 92/1/4 93/1/4 97/1/4
f 96/2/4 92/2/4 97/2/4
f 93/2/4 94/2/4 98/2/4
f 97/1/4 93/1/4 98/1/4
f 94/4/4 95/4/4 99/4/4
f 98/2/4 94/2/4 99/2/4
f 96/1/4 97/1/4 100/1/4
f 97/1/4 98/1/4 100/1/4
f 100/1/4 98/1/4 101/1/4
f 98/4/4 99/4/4 102/4/4
f 101/1/4 98/1/4 102/1/4
f 99/4/4 95/4/4 103/4/4
f 102/4/4 99/4/4 103/4/4
f 95/4/4 90/4/4 103/4/4
f 100/2/4 101/2/4 104/2/4
f 101/1/4 102/1/4 105/1/4
f 104/2/4 101/2/4 105/2/4
f 102/1/4 103/1/4 105/1/4
f 105/1/4 103/1/4 106/1/4
f 106/1/4 103/1/4 107/1/4
f 107/1/4 103/1/4 108/1/4
f 103/4/4 90/4/4 109/4/4
f 108/1/4 103/1/4 109/1/4
f 104/1/4 105/1/4 110/1/4
f 105/1/4 106/1/4 110/1/4
f 106/2/4 107/2/4 110/2/4
f 107/1/4 108/1/4 111/1/4
f 110/2/4 107/2/4 111/2/4
f 108/4/4 109/4/4 112/4/4
f 111/1/4 108/1/4 112/1/4
f 109/4/4 90/4/4 113/4/4
f 112/4/4 109/4/4 113/4/4
f 104/1/4 110/1/4 114/1/4
f 111/1/4 112/1/4 114/1/4
f 112/1/4 113/1/4 114/1/4
f 110/1/4 111/1/4 114/1/4
f 113/4/4 90/4/4 115/4/4
f 114/1/4 113/1/4 115/1/4
f 115/4/4 90/4/4 116/4/4
f 123/1/5 118/1/5 117/1/5
f 124/1/5 118/1/5 123/1/5
f 125/2/5 119/2/5 118/2/5
f 125/1/5 118/1/5 124/1/5
f 126/1/5 120/1/5 119/1/5
f 126/2/5 119/2/5 125/2/5
f 127/2/5 121/2/5 120/2/5
f 127/1/5 120/1/5 126/1/5
f 128/1/5 122/1/5 121/1/5
f 128/2/5 121/2/5 127/2/5
f 129/2/5 124/2/5 123/2/5
f 130/1/5 127/1/5 126/1/5
f 130/2/5 124/2/5 129/2/5
f 130/1/5 125/1/5 124/1/5
f 130/1/5 128/1/5 127/1/5
f 130/1/5 126/1/5 125/1/5
f 131/1/5 122/1/5 128/1/5
f 131/1/5 128/1/5 130/1/5
f 132/1/5 122/1/5 131/1/5
f 133/1/5 130/1/5 129/1/5
f 133/1/5 131/1/5 130/1/5
f 134/1/5 131/1/5 133/1/5
f 135/2/5 132/2/5 131/2/5
f 135/1/5 131/1/5 134/1/5
f 136/2/5 132/2/5 135/2/5
f 137/2/5 134/2/5 133/2/5
f 138/1/5 135/1/5 134/1/5
f 138/2/5 134/2/5 137/2/5
f 138/1/5 136/1/5 135/1/5
f 139/1/5 136/1/5 138/1/5
f 140/1/5 136/1/5 139/1/5
f 141/1/5 138/1/5 137/1/5
f 141/1/5 139/1/5 138/1/5
f 142/1/5 139/1/5 141/1/5
f 143/1/5 139/1/5 142/1/5
f 144/1/5 139/1/5 143/1/5
f 145/2/5 140/2/5 139/2/5
f 145/1/5 139/1/5 144/1/5
f 146/2/5 140/2/5 145/2/5
f 147/1/5 141/1/5 137/1/5
f 148/2/5 142/2/5 141/2/5
f 148/1/5 141/1/5 147/1/5
f 149/1/5 143/1/5 142/1/5
f 149/2/5 142/2/5 148/2/5
f 150/2/5 144/2/5 143/2/5
f 150/1/5 143/1/5 149/1/5
f 151/1/5 145/1/5 144/1/5
f 151/2/5 144/2/5 150/2/5
f 151/1/5 146/1/5 145/1/5
f 152/1/5 146/1/5 151/1/5
f 153/4/6 154/4/6 155/4/6
f 155/4/6 154/4/6 156/4/6
f 153/4/6 155/4/6 157/4/6
f 155/3/6 156/3/6 157/3/6
f 156/4/6 154/4/6 158/4/6
f 157/3/6 156/3/6 158/3/6
f 157/4/6 158/4/6 159/4/6
f 158/4/6 154/4/6 159/4/6
f 159/4/6 154/4/6 160/4/6
f 157/4/6 159/4/6 161/4/6
f 159/3/6 160/3/6 161/3/6
f 160/4/6 154/4/6 162/4/6
f 161/3/6 160/3/6 162/3/6
f 162/4/6 154/4/6 163/4/6
f 161/4/6 162/4/6 164/4/6
f 162/3/6 163/3/6 164/3/6
f 163/4/6 154/4/6 165/4/6
f 164/3/6 163/3/6 165/3/6
f 153/4/6 157/4/6 166/4/6
f 157/4/6 161/4/6 166/4/6
f 164/4/6 165/4/6 166/4/6
f 161/4/6 164/4/6 166/4/6
f 165/4/6 154/4/6 167/4/6
f 166/4/6 165/4/6 167/4/6
