# MagicaVoxel @ Ephtracy

# material
mtllib GroundBlock_type4_04.mtl
usemtl palette

# normals
vn -1 0 0
vn 1 0 0
vn 0 0 1
vn 0 0 -1
vn 0 -1 0
vn 0 1 0

# texcoords
vt 0.201172 0.5
vt 0.205078 0.5
vt 0.982422 0.5

# verts
v -3 0 3
v -3 0 -1
v -3 0 -2
v -3 0 -3
v -3 2 3
v -3 2 -1
v -3 2 -2
v -3 2 -3
v -3 3 3
v -3 3 2
v -3 3 1
v -3 3 -3
v -3 5 3
v -3 5 2
v -3 5 1
v -3 5 -3
v -3 6 3
v -3 6 -3
v 3 0 3
v 3 0 2
v 3 0 1
v 3 0 -3
v 3 2 3
v 3 2 2
v 3 2 1
v 3 2 -3
v 3 3 3
v 3 3 -1
v 3 3 -2
v 3 3 -3
v 3 5 3
v 3 5 -1
v 3 5 -2
v 3 5 -3
v 3 6 3
v 3 6 -3
v -3 0 3
v -3 2 3
v -3 3 3
v -3 5 3
v -3 6 3
v -2 0 3
v -2 2 3
v -1 0 3
v -1 2 3
v 1 3 3
v 1 5 3
v 2 3 3
v 2 5 3
v 3 0 3
v 3 2 3
v 3 3 3
v 3 5 3
v 3 6 3
v -3 0 -3
v -3 2 -3
v -3 3 -3
v -3 5 -3
v -3 6 -3
v -2 3 -3
v -2 5 -3
v -1 3 -3
v -1 5 -3
v 1 0 -3
v 1 2 -3
v 2 0 -3
v 2 2 -3
v 3 0 -3
v 3 2 -3
v 3 3 -3
v 3 5 -3
v 3 6 -3
v -3 0 3
v -2 0 3
v -1 0 3
v 3 0 3
v -1 0 2
v 3 0 2
v -1 0 1
v 1 0 1
v 2 0 1
v 3 0 1
v -3 0 -1
v -2 0 -1
v -1 0 -1
v 1 0 -1
v -3 0 -2
v 1 0 -2
v -3 0 -3
v 1 0 -3
v 2 0 -3
v 3 0 -3
v -3 6 3
v 3 6 3
v -2 6 2
v 2 6 2
v -2 6 -2
v 2 6 -2
v -3 6 -3
v 3 6 -3

# faces
f 5/1/1 2/1/1 1/1/1
f 6/3/1 3/3/1 2/3/1
f 6/1/1 2/1/1 5/1/1
f 7/1/1 4/1/1 3/1/1
f 7/3/1 3/3/1 6/3/1
f 8/1/1 4/1/1 7/1/1
f 9/3/1 6/3/1 5/3/1
f 9/3/1 7/3/1 6/3/1
f 9/3/1 8/3/1 7/3/1
f 10/3/1 8/3/1 9/3/1
f 11/3/1 8/3/1 10/3/1
f 12/3/1 8/3/1 11/3/1
f 13/1/1 10/1/1 9/1/1
f 14/3/1 11/3/1 10/3/1
f 14/1/1 10/1/1 13/1/1
f 15/2/1 12/2/1 11/2/1
f 15/3/1 11/3/1 14/3/1
f 16/2/1 12/2/1 15/2/1
f 17/3/1 14/3/1 13/3/1
f 17/3/1 15/3/1 14/3/1
f 17/3/1 16/3/1 15/3/1
f 18/3/1 16/3/1 17/3/1
f 19/2/2 20/2/2 23/2/2
f 20/3/2 21/3/2 24/3/2
f 23/2/2 20/2/2 24/2/2
f 21/1/2 22/1/2 25/1/2
f 24/3/2 21/3/2 25/3/2
f 25/1/2 22/1/2 26/1/2
f 23/3/2 24/3/2 27/3/2
f 24/3/2 25/3/2 27/3/2
f 25/3/2 26/3/2 27/3/2
f 27/3/2 26/3/2 28/3/2
f 28/3/2 26/3/2 29/3/2
f 29/3/2 26/3/2 30/3/2
f 27/2/2 28/2/2 31/2/2
f 28/3/2 29/3/2 32/3/2
f 31/2/2 28/2/2 32/2/2
f 29/1/2 30/1/2 33/1/2
f 32/3/2 29/3/2 33/3/2
f 33/1/2 30/1/2 34/1/2
f 31/3/2 32/3/2 35/3/2
f 32/3/2 33/3/2 35/3/2
f 33/3/2 34/3/2 35/3/2
f 35/3/2 34/3/2 36/3/2
f 42/1/3 38/1/3 37/1/3
f 43/3/3 39/3/3 38/3/3
f 43/1/3 38/1/3 42/1/3
f 44/3/3 43/3/3 42/3/3
f 45/3/3 39/3/3 43/3/3
f 45/3/3 43/3/3 44/3/3
f 46/1/3 40/1/3 39/1/3
f 46/3/3 39/3/3 45/3/3
f 47/3/3 41/3/3 40/3/3
f 47/1/3 40/1/3 46/1/3
f 48/3/3 46/3/3 45/3/3
f 48/3/3 47/3/3 46/3/3
f 49/3/3 41/3/3 47/3/3
f 49/3/3 47/3/3 48/3/3
f 50/2/3 45/2/3 44/2/3
f 51/3/3 48/3/3 45/3/3
f 51/2/3 45/2/3 50/2/3
f 52/2/3 49/2/3 48/2/3
f 52/3/3 48/3/3 51/3/3
f 53/3/3 41/3/3 49/3/3
f 53/2/3 49/2/3 52/2/3
f 54/3/3 41/3/3 53/3/3
f 56/3/4 57/3/4 60/3/4
f 57/2/4 58/2/4 60/2/4
f 58/3/4 59/3/4 61/3/4
f 60/2/4 58/2/4 61/2/4
f 56/3/4 60/3/4 62/3/4
f 60/3/4 61/3/4 62/3/4
f 61/3/4 59/3/4 63/3/4
f 62/3/4 61/3/4 63/3/4
f 55/1/4 56/1/4 64/1/4
f 56/3/4 62/3/4 65/3/4
f 64/1/4 56/1/4 65/1/4
f 64/3/4 65/3/4 66/3/4
f 65/3/4 62/3/4 67/3/4
f 66/3/4 65/3/4 67/3/4
f 66/1/4 67/1/4 68/1/4
f 67/3/4 62/3/4 69/3/4
f 68/1/4 67/1/4 69/1/4
f 62/1/4 63/1/4 70/1/4
f 69/3/4 62/3/4 70/3/4
f 63/3/4 59/3/4 71/3/4
f 70/1/4 63/1/4 71/1/4
f 71/3/4 59/3/4 72/3/4
f 77/3/5 75/3/5 74/3/5
f 77/2/5 76/2/5 75/2/5
f 78/2/5 76/2/5 77/2/5
f 79/3/5 77/3/5 74/3/5
f 79/3/5 78/3/5 77/3/5
f 80/3/5 78/3/5 79/3/5
f 81/3/5 78/3/5 80/3/5
f 82/3/5 78/3/5 81/3/5
f 83/1/5 74/1/5 73/1/5
f 84/3/5 79/3/5 74/3/5
f 84/1/5 74/1/5 83/1/5
f 85/1/5 80/1/5 79/1/5
f 85/3/5 79/3/5 84/3/5
f 86/3/5 81/3/5 80/3/5
f 86/1/5 80/1/5 85/1/5
f 87/3/5 84/3/5 83/3/5
f 87/3/5 85/3/5 84/3/5
f 87/3/5 86/3/5 85/3/5
f 88/3/5 81/3/5 86/3/5
f 88/3/5 86/3/5 87/3/5
f 89/1/5 88/1/5 87/1/5
f 90/3/5 81/3/5 88/3/5
f 90/1/5 88/1/5 89/1/5
f 91/1/5 82/1/5 81/1/5
f 91/3/5 81/3/5 90/3/5
f 92/1/5 82/1/5 91/1/5
f 93/3/6 94/3/6 95/3/6
f 95/3/6 94/3/6 96/3/6
f 93/3/6 95/3/6 97/3/6
f 95/1/6 96/1/6 97/1/6
f 96/3/6 94/3/6 98/3/6
f 97/1/6 96/1/6 98/1/6
f 93/3/6 97/3/6 99/3/6
f 97/3/6 98/3/6 99/3/6
f 98/3/6 94/3/6 100/3/6
f 99/3/6 98/3/6 100/3/6
