# MagicaVoxel @ Ephtracy

# material
mtllib GroundBlock_type1_04.mtl
usemtl palette

# normals
vn -1 0 0
vn 1 0 0
vn 0 0 1
vn 0 0 -1
vn 0 -1 0
vn 0 1 0

# texcoords
vt 0.111328 0.5
vt 0.119141 0.5

# verts
v -3 0 3
v -3 0 2
v -3 0 1
v -3 0 -3
v -3 1 2
v -3 1 1
v -3 1 -0
v -3 2 1
v -3 2 -0
v -3 3 1
v -3 3 -0
v -3 4 1
v -3 4 -0
v -3 4 -1
v -3 4 -2
v -3 5 -1
v -3 5 -2
v -3 5 -3
v -3 6 3
v -3 6 -2
v -3 6 -3
v 3 0 3
v 3 0 -0
v 3 0 -1
v 3 0 -3
v 3 1 -0
v 3 1 -1
v 3 2 -0
v 3 2 -1
v 3 2 -2
v 3 2 -3
v 3 3 -2
v 3 3 -3
v 3 4 1
v 3 4 -0
v 3 4 -1
v 3 5 3
v 3 5 2
v 3 5 1
v 3 5 -0
v 3 6 3
v 3 6 2
v 3 6 -3
v -3 0 3
v -3 6 3
v -2 4 3
v -2 5 3
v -1 4 3
v -1 5 3
v 0 4 3
v 0 5 3
v 1 4 3
v 1 5 3
v 2 5 3
v 2 6 3
v 3 0 3
v 3 5 3
v 3 6 3
v -3 0 -3
v -3 5 -3
v -3 6 -3
v -2 1 -3
v -2 2 -3
v -2 5 -3
v -2 6 -3
v -1 1 -3
v -1 2 -3
v 0 4 -3
v 0 5 -3
v 1 4 -3
v 1 5 -3
v 2 2 -3
v 2 3 -3
v 3 0 -3
v 3 2 -3
v 3 3 -3
v 3 6 -3
v -3 0 3
v 3 0 3
v -3 0 2
v -2 0 2
v -3 0 1
v -2 0 1
v -1 0 1
v 0 0 1
v -2 0 -0
v -1 0 -0
v 0 0 -0
v 2 0 -0
v 3 0 -0
v -2 0 -1
v -1 0 -1
v 2 0 -1
v 3 0 -1
v -3 0 -3
v 3 0 -3
v -3 6 3
v 2 6 3
v 3 6 3
v 2 6 2
v 3 6 2
v 0 6 1
v 1 6 1
v 0 6 -0
v 1 6 -0
v -1 6 -1
v 0 6 -1
v -3 6 -2
v -2 6 -2
v -1 6 -2
v 0 6 -2
v -3 6 -3
v -2 6 -3
v 3 6 -3

# faces
f 5/2/1 2/2/1 1/2/1
f 5/1/1 3/1/1 2/1/1
f 6/2/1 4/2/1 3/2/1
f 6/1/1 3/1/1 5/1/1
f 7/2/1 4/2/1 6/2/1
f 8/2/1 6/2/1 5/2/1
f 8/1/1 7/1/1 6/1/1
f 9/2/1 4/2/1 7/2/1
f 9/1/1 7/1/1 8/1/1
f 10/2/1 8/2/1 5/2/1
f 10/2/1 9/2/1 8/2/1
f 11/2/1 4/2/1 9/2/1
f 11/2/1 9/2/1 10/2/1
f 12/2/1 10/2/1 5/2/1
f 12/1/1 11/1/1 10/1/1
f 13/2/1 4/2/1 11/2/1
f 13/1/1 11/1/1 12/1/1
f 14/2/1 4/2/1 13/2/1
f 15/2/1 4/2/1 14/2/1
f 16/2/1 13/2/1 12/2/1
f 16/2/1 14/2/1 13/2/1
f 16/1/1 15/1/1 14/1/1
f 17/2/1 4/2/1 15/2/1
f 17/1/1 15/1/1 16/1/1
f 18/2/1 4/2/1 17/2/1
f 19/2/1 5/2/1 1/2/1
f 19/2/1 12/2/1 5/2/1
f 19/2/1 16/2/1 12/2/1
f 19/2/1 17/2/1 16/2/1
f 20/1/1 18/1/1 17/1/1
f 20/2/1 17/2/1 19/2/1
f 21/1/1 18/1/1 20/1/1
f 22/2/2 23/2/2 26/2/2
f 23/1/2 24/1/2 26/1/2
f 24/2/2 25/2/2 27/2/2
f 26/1/2 24/1/2 27/1/2
f 22/2/2 26/2/2 28/2/2
f 26/2/2 27/2/2 28/2/2
f 27/2/2 25/2/2 29/2/2
f 28/2/2 27/2/2 29/2/2
f 29/2/2 25/2/2 30/2/2
f 30/2/2 25/2/2 31/2/2
f 29/2/2 30/2/2 32/2/2
f 30/1/2 31/1/2 32/1/2
f 32/1/2 31/1/2 33/1/2
f 22/2/2 28/2/2 34/2/2
f 28/1/2 29/1/2 35/1/2
f 34/2/2 28/2/2 35/2/2
f 29/2/2 32/2/2 36/2/2
f 35/1/2 29/1/2 36/1/2
f 32/2/2 33/2/2 36/2/2
f 22/2/2 34/2/2 37/2/2
f 37/2/2 34/2/2 38/2/2
f 34/1/2 35/1/2 39/1/2
f 38/2/2 34/2/2 39/2/2
f 35/2/2 36/2/2 40/2/2
f 39/1/2 35/1/2 40/1/2
f 37/1/2 38/1/2 41/1/2
f 38/2/2 39/2/2 42/2/2
f 41/1/2 38/1/2 42/1/2
f 39/2/2 40/2/2 42/2/2
f 36/2/2 33/2/2 43/2/2
f 42/2/2 40/2/2 43/2/2
f 40/2/2 36/2/2 43/2/2
f 46/2/3 45/2/3 44/2/3
f 47/2/3 45/2/3 46/2/3
f 48/2/3 46/2/3 44/2/3
f 48/1/3 47/1/3 46/1/3
f 49/2/3 45/2/3 47/2/3
f 49/1/3 47/1/3 48/1/3
f 50/2/3 48/2/3 44/2/3
f 50/2/3 49/2/3 48/2/3
f 51/2/3 45/2/3 49/2/3
f 51/2/3 49/2/3 50/2/3
f 52/2/3 50/2/3 44/2/3
f 52/1/3 51/1/3 50/1/3
f 53/2/3 45/2/3 51/2/3
f 53/1/3 51/1/3 52/1/3
f 54/2/3 53/2/3 52/2/3
f 54/2/3 45/2/3 53/2/3
f 55/2/3 45/2/3 54/2/3
f 56/2/3 52/2/3 44/2/3
f 56/2/3 54/2/3 52/2/3
f 57/1/3 55/1/3 54/1/3
f 57/2/3 54/2/3 56/2/3
f 58/1/3 55/1/3 57/1/3
f 59/2/4 60/2/4 62/2/4
f 62/2/4 60/2/4 63/2/4
f 60/1/4 61/1/4 64/1/4
f 63/2/4 60/2/4 64/2/4
f 64/1/4 61/1/4 65/1/4
f 62/1/4 63/1/4 66/1/4
f 59/2/4 62/2/4 66/2/4
f 64/2/4 65/2/4 67/2/4
f 66/1/4 63/1/4 67/1/4
f 63/2/4 64/2/4 67/2/4
f 66/2/4 67/2/4 68/2/4
f 67/2/4 65/2/4 68/2/4
f 68/2/4 65/2/4 69/2/4
f 66/2/4 68/2/4 70/2/4
f 68/1/4 69/1/4 70/1/4
f 69/2/4 65/2/4 71/2/4
f 70/1/4 69/1/4 71/1/4
f 66/2/4 70/2/4 72/2/4
f 70/2/4 71/2/4 72/2/4
f 72/2/4 71/2/4 73/2/4
f 59/2/4 66/2/4 74/2/4
f 66/2/4 72/2/4 74/2/4
f 72/1/4 73/1/4 75/1/4
f 74/2/4 72/2/4 75/2/4
f 73/2/4 71/2/4 76/2/4
f 75/1/4 73/1/4 76/1/4
f 71/2/4 65/2/4 77/2/4
f 76/2/4 71/2/4 77/2/4
f 80/2/5 79/2/5 78/2/5
f 81/2/5 79/2/5 80/2/5
f 82/1/5 81/1/5 80/1/5
f 83/2/5 79/2/5 81/2/5
f 83/1/5 81/1/5 82/1/5
f 84/2/5 79/2/5 83/2/5
f 85/2/5 79/2/5 84/2/5
f 86/2/5 83/2/5 82/2/5
f 86/2/5 84/2/5 83/2/5
f 87/1/5 85/1/5 84/1/5
f 87/2/5 84/2/5 86/2/5
f 88/2/5 79/2/5 85/2/5
f 88/1/5 85/1/5 87/1/5
f 89/2/5 79/2/5 88/2/5
f 90/2/5 79/2/5 89/2/5
f 91/1/5 87/1/5 86/1/5
f 91/2/5 86/2/5 82/2/5
f 92/2/5 88/2/5 87/2/5
f 92/1/5 87/1/5 91/1/5
f 92/2/5 89/2/5 88/2/5
f 93/1/5 90/1/5 89/1/5
f 93/2/5 89/2/5 92/2/5
f 94/1/5 90/1/5 93/1/5
f 95/2/5 92/2/5 91/2/5
f 95/2/5 91/2/5 82/2/5
f 95/2/5 94/2/5 93/2/5
f 95/2/5 93/2/5 92/2/5
f 96/2/5 94/2/5 95/2/5
f 97/2/6 98/2/6 100/2/6
f 98/1/6 99/1/6 100/1/6
f 100/1/6 99/1/6 101/1/6
f 97/2/6 100/2/6 102/2/6
f 100/2/6 101/2/6 102/2/6
f 102/2/6 101/2/6 103/2/6
f 97/2/6 102/2/6 104/2/6
f 102/1/6 103/1/6 104/1/6
f 103/2/6 101/2/6 105/2/6
f 104/1/6 103/1/6 105/1/6
f 97/2/6 104/2/6 106/2/6
f 104/2/6 105/2/6 106/2/6
f 106/2/6 105/2/6 107/2/6
f 97/2/6 106/2/6 108/2/6
f 108/2/6 106/2/6 109/2/6
f 106/1/6 107/1/6 110/1/6
f 109/2/6 106/2/6 110/2/6
f 107/2/6 105/2/6 111/2/6
f 110/1/6 107/1/6 111/1/6
f 108/1/6 109/1/6 112/1/6
f 109/2/6 110/2/6 113/2/6
f 112/1/6 109/1/6 113/1/6
f 110/2/6 111/2/6 113/2/6
f 105/2/6 101/2/6 114/2/6
f 113/2/6 111/2/6 114/2/6
f 111/2/6 105/2/6 114/2/6
