# MagicaVoxel @ Ephtracy

# material
mtllib GroundBlock_type3_13.mtl
usemtl palette

# normals
vn -1 0 0
vn 1 0 0
vn 0 0 1
vn 0 0 -1
vn 0 -1 0
vn 0 1 0

# texcoords
vt 0.869141 0.5
vt 0.900391 0.5
vt 0.982422 0.5
vt 0.990234 0.5

# verts
v -3 0 3
v -3 0 2
v -3 0 -1
v -3 0 -2
v -3 0 -3
v -3 1 3
v -3 1 2
v -3 1 1
v -3 2 2
v -3 2 1
v -3 2 -0
v -3 2 -1
v -3 2 -2
v -3 2 -3
v -3 3 1
v -3 3 -0
v -3 3 -1
v -3 3 -2
v -3 3 -3
v -3 4 -0
v -3 4 -1
v -3 4 -2
v -3 5 -1
v -3 5 -2
v -3 5 -3
v -3 6 -2
v -3 6 -3
v 3 0 3
v 3 0 2
v 3 0 1
v 3 0 -2
v 3 0 -3
v 3 1 3
v 3 1 2
v 3 1 1
v 3 2 2
v 3 2 1
v 3 2 -0
v 3 2 -2
v 3 2 -3
v 3 3 1
v 3 3 -0
v 3 3 -1
v 3 3 -2
v 3 3 -3
v 3 4 -0
v 3 4 -1
v 3 4 -2
v 3 5 -1
v 3 5 -2
v 3 5 -3
v 3 6 -2
v 3 6 -3
v -3 0 3
v -3 1 3
v 3 0 3
v 3 1 3
v -3 1 2
v -3 2 2
v 3 1 2
v 3 2 2
v -3 2 1
v -3 3 1
v -1 2 1
v -1 3 1
v 0 2 1
v 0 3 1
v 3 2 1
v 3 3 1
v -3 3 -0
v -3 4 -0
v -1 3 -0
v 0 3 -0
v 3 3 -0
v 3 4 -0
v -3 4 -1
v -3 5 -1
v -1 4 -1
v -1 5 -1
v 0 4 -1
v 0 5 -1
v 3 4 -1
v 3 5 -1
v -3 5 -2
v -3 6 -2
v -1 5 -2
v 0 5 -2
v 3 5 -2
v 3 6 -2
v -3 0 -3
v -3 2 -3
v -3 3 -3
v -3 5 -3
v -3 6 -3
v -2 3 -3
v -2 5 -3
v -1 3 -3
v -1 5 -3
v 1 0 -3
v 1 2 -3
v 2 0 -3
v 2 2 -3
v 3 0 -3
v 3 2 -3
v 3 3 -3
v 3 5 -3
v 3 6 -3
v -3 0 3
v 3 0 3
v -3 0 2
v -2 0 2
v 3 0 2
v -1 0 1
v 1 0 1
v 2 0 1
v 3 0 1
v -3 0 -1
v -2 0 -1
v -1 0 -1
v 1 0 -1
v -3 0 -2
v 1 0 -2
v 2 0 -2
v 3 0 -2
v -3 0 -3
v 1 0 -3
v 2 0 -3
v 3 0 -3
v -3 1 3
v 3 1 3
v -3 1 2
v 3 1 2
v -3 2 2
v 3 2 2
v -3 2 1
v -1 2 1
v 0 2 1
v 3 2 1
v -3 3 1
v -1 3 1
v 0 3 1
v 3 3 1
v -3 3 -0
v -1 3 -0
v 0 3 -0
v 3 3 -0
v -3 4 -0
v 3 4 -0
v -3 4 -1
v -1 4 -1
v 0 4 -1
v 3 4 -1
v -3 5 -1
v -1 5 -1
v 0 5 -1
v 3 5 -1
v -3 5 -2
v -1 5 -2
v 0 5 -2
v 3 5 -2
v -3 6 -2
v 3 6 -2
v -3 6 -3
v 3 6 -3

# faces
f 6/4/1 2/4/1 1/4/1
f 7/2/1 3/2/1 2/2/1
f 7/4/1 2/4/1 6/4/1
f 8/2/1 3/2/1 7/2/1
f 9/4/1 8/4/1 7/4/1
f 10/2/1 3/2/1 8/2/1
f 10/4/1 8/4/1 9/4/1
f 11/2/1 3/2/1 10/2/1
f 12/3/1 4/3/1 3/3/1
f 12/2/1 3/2/1 11/2/1
f 13/2/1 5/2/1 4/2/1
f 13/3/1 4/3/1 12/3/1
f 14/2/1 5/2/1 13/2/1
f 15/4/1 11/4/1 10/4/1
f 16/3/1 12/3/1 11/3/1
f 16/4/1 11/4/1 15/4/1
f 16/3/1 14/3/1 13/3/1
f 16/3/1 13/3/1 12/3/1
f 17/3/1 14/3/1 16/3/1
f 18/3/1 14/3/1 17/3/1
f 19/3/1 14/3/1 18/3/1
f 20/4/1 17/4/1 16/4/1
f 21/2/1 18/2/1 17/2/1
f 21/4/1 17/4/1 20/4/1
f 22/1/1 19/1/1 18/1/1
f 22/2/1 18/2/1 21/2/1
f 23/4/1 22/4/1 21/4/1
f 24/1/1 19/1/1 22/1/1
f 24/4/1 22/4/1 23/4/1
f 25/1/1 19/1/1 24/1/1
f 26/4/1 25/4/1 24/4/1
f 27/4/1 25/4/1 26/4/1
f 28/4/2 29/4/2 33/4/2
f 29/3/2 30/3/2 34/3/2
f 33/4/2 29/4/2 34/4/2
f 30/2/2 31/2/2 35/2/2
f 34/3/2 30/3/2 35/3/2
f 34/4/2 35/4/2 36/4/2
f 35/2/2 31/2/2 37/2/2
f 36/4/2 35/4/2 37/4/2
f 37/2/2 31/2/2 38/2/2
f 31/1/2 32/1/2 39/1/2
f 38/2/2 31/2/2 39/2/2
f 39/1/2 32/1/2 40/1/2
f 37/4/2 38/4/2 41/4/2
f 39/3/2 40/3/2 42/3/2
f 41/4/2 38/4/2 42/4/2
f 38/3/2 39/3/2 42/3/2
f 42/3/2 40/3/2 43/3/2
f 43/3/2 40/3/2 44/3/2
f 44/3/2 40/3/2 45/3/2
f 42/4/2 43/4/2 46/4/2
f 43/3/2 44/3/2 47/3/2
f 46/4/2 43/4/2 47/4/2
f 44/2/2 45/2/2 48/2/2
f 47/3/2 44/3/2 48/3/2
f 47/4/2 48/4/2 49/4/2
f 48/2/2 45/2/2 50/2/2
f 49/4/2 48/4/2 50/4/2
f 50/2/2 45/2/2 51/2/2
f 50/4/2 51/4/2 52/4/2
f 52/4/2 51/4/2 53/4/2
f 56/4/3 55/4/3 54/4/3
f 57/4/3 55/4/3 56/4/3
f 60/4/3 59/4/3 58/4/3
f 61/4/3 59/4/3 60/4/3
f 64/4/3 63/4/3 62/4/3
f 65/4/3 63/4/3 64/4/3
f 66/2/3 65/2/3 64/2/3
f 67/2/3 65/2/3 66/2/3
f 68/4/3 67/4/3 66/4/3
f 69/4/3 67/4/3 68/4/3
f 72/4/3 71/4/3 70/4/3
f 73/4/3 71/4/3 72/4/3
f 74/4/3 71/4/3 73/4/3
f 75/4/3 71/4/3 74/4/3
f 78/4/3 77/4/3 76/4/3
f 79/4/3 77/4/3 78/4/3
f 80/2/3 79/2/3 78/2/3
f 81/2/3 79/2/3 80/2/3
f 82/4/3 81/4/3 80/4/3
f 83/4/3 81/4/3 82/4/3
f 86/4/3 85/4/3 84/4/3
f 87/4/3 85/4/3 86/4/3
f 88/4/3 85/4/3 87/4/3
f 89/4/3 85/4/3 88/4/3
f 91/3/4 92/3/4 95/3/4
f 92/1/4 93/1/4 95/1/4
f 93/4/4 94/4/4 96/4/4
f 95/1/4 93/1/4 96/1/4
f 91/3/4 95/3/4 97/3/4
f 95/3/4 96/3/4 97/3/4
f 96/4/4 94/4/4 98/4/4
f 97/3/4 96/3/4 98/3/4
f 90/2/4 91/2/4 99/2/4
f 91/3/4 97/3/4 100/3/4
f 99/2/4 91/2/4 100/2/4
f 99/3/4 100/3/4 101/3/4
f 100/3/4 97/3/4 102/3/4
f 101/3/4 100/3/4 102/3/4
f 101/1/4 102/1/4 103/1/4
f 102/3/4 97/3/4 104/3/4
f 103/1/4 102/1/4 104/1/4
f 97/2/4 98/2/4 105/2/4
f 104/3/4 97/3/4 105/3/4
f 98/4/4 94/4/4 106/4/4
f 105/2/4 98/2/4 106/2/4
f 106/4/4 94/4/4 107/4/4
f 110/4/5 109/4/5 108/4/5
f 111/4/5 109/4/5 110/4/5
f 112/4/5 109/4/5 111/4/5
f 113/3/5 112/3/5 111/3/5
f 114/3/5 112/3/5 113/3/5
f 115/3/5 112/3/5 114/3/5
f 116/3/5 112/3/5 115/3/5
f 117/2/5 111/2/5 110/2/5
f 118/3/5 113/3/5 111/3/5
f 118/2/5 111/2/5 117/2/5
f 119/2/5 114/2/5 113/2/5
f 119/3/5 113/3/5 118/3/5
f 120/3/5 115/3/5 114/3/5
f 120/2/5 114/2/5 119/2/5
f 121/3/5 118/3/5 117/3/5
f 121/3/5 119/3/5 118/3/5
f 121/3/5 120/3/5 119/3/5
f 122/3/5 115/3/5 120/3/5
f 122/3/5 120/3/5 121/3/5
f 123/2/5 116/2/5 115/2/5
f 123/3/5 115/3/5 122/3/5
f 124/2/5 116/2/5 123/2/5
f 125/2/5 122/2/5 121/2/5
f 126/3/5 123/3/5 122/3/5
f 126/2/5 122/2/5 125/2/5
f 127/1/5 124/1/5 123/1/5
f 127/3/5 123/3/5 126/3/5
f 128/1/5 124/1/5 127/1/5
f 129/4/6 130/4/6 131/4/6
f 131/4/6 130/4/6 132/4/6
f 133/4/6 134/4/6 135/4/6
f 135/4/6 134/4/6 136/4/6
f 136/4/6 134/4/6 137/4/6
f 137/4/6 134/4/6 138/4/6
f 139/4/6 140/4/6 143/4/6
f 140/2/6 141/2/6 144/2/6
f 143/4/6 140/4/6 144/4/6
f 141/4/6 142/4/6 145/4/6
f 144/2/6 141/2/6 145/2/6
f 145/4/6 142/4/6 146/4/6
f 147/4/6 148/4/6 149/4/6
f 149/4/6 148/4/6 150/4/6
f 150/4/6 148/4/6 151/4/6
f 151/4/6 148/4/6 152/4/6
f 153/4/6 154/4/6 157/4/6
f 154/2/6 155/2/6 158/2/6
f 157/4/6 154/4/6 158/4/6
f 155/4/6 156/4/6 159/4/6
f 158/2/6 155/2/6 159/2/6
f 159/4/6 156/4/6 160/4/6
f 161/4/6 162/4/6 163/4/6
f 163/4/6 162/4/6 164/4/6
