# MagicaVoxel @ Ephtracy

# material
mtllib GroundBlock_type5_010.mtl
usemtl palette

# normals
vn -1 0 0
vn 1 0 0
vn 0 0 1
vn 0 0 -1
vn 0 -1 0
vn 0 1 0

# texcoords
vt 0.302734 0.5
vt 0.322266 0.5
vt 0.541016 0.5
vt 0.556641 0.5
vt 0.962891 0.5
vt 0.966797 0.5

# verts
v -3 0 3
v -3 0 -0
v -3 0 -1
v -3 0 -3
v -3 1 2
v -3 1 1
v -3 1 -0
v -3 1 -1
v -3 2 2
v -3 2 1
v -3 2 -1
v -3 2 -2
v -3 3 1
v -3 3 -0
v -3 3 -1
v -3 3 -2
v -3 4 2
v -3 4 1
v -3 4 -0
v -3 4 -1
v -3 4 -2
v -3 5 3
v -3 5 2
v -3 5 -0
v -3 5 -1
v -3 5 -2
v -3 5 -3
v -3 6 3
v -3 6 -0
v -3 6 -3
v 3 0 3
v 3 0 1
v 3 0 -0
v 3 0 -3
v 3 1 1
v 3 1 -0
v 3 1 -1
v 3 1 -2
v 3 2 2
v 3 2 1
v 3 2 -1
v 3 2 -2
v 3 3 2
v 3 3 1
v 3 3 -0
v 3 3 -1
v 3 4 2
v 3 4 1
v 3 4 -0
v 3 4 -1
v 3 4 -2
v 3 5 3
v 3 5 2
v 3 5 1
v 3 5 -0
v 3 5 -2
v 3 5 -3
v 3 6 3
v 3 6 -1
v 3 6 -3
v -3 0 3
v -3 5 3
v -3 6 3
v -2 2 3
v -2 3 3
v -2 4 3
v -2 5 3
v -1 0 3
v -1 1 3
v -1 2 3
v -1 3 3
v -1 4 3
v -1 5 3
v 0 0 3
v 0 1 3
v 0 3 3
v 0 4 3
v 0 5 3
v 1 1 3
v 1 2 3
v 1 3 3
v 1 4 3
v 2 1 3
v 2 2 3
v 2 4 3
v 2 5 3
v 3 0 3
v 3 5 3
v 3 6 3
v -3 0 -3
v -3 5 -3
v -3 6 -3
v -2 1 -3
v -2 2 -3
v -2 4 -3
v -2 5 -3
v -1 1 -3
v -1 2 -3
v -1 3 -3
v -1 4 -3
v 0 0 -3
v 0 1 -3
v 0 3 -3
v 0 4 -3
v 0 5 -3
v 1 0 -3
v 1 1 -3
v 1 2 -3
v 1 3 -3
v 1 4 -3
v 1 5 -3
v 2 2 -3
v 2 3 -3
v 2 4 -3
v 2 5 -3
v 3 0 -3
v 3 5 -3
v 3 6 -3
v -3 0 3
v -1 0 3
v 0 0 3
v 3 0 3
v -1 0 2
v 0 0 2
v 2 0 1
v 3 0 1
v -3 0 -0
v -2 0 -0
v 2 0 -0
v 3 0 -0
v -3 0 -1
v -2 0 -1
v 0 0 -2
v 1 0 -2
v -3 0 -3
v 0 0 -3
v 1 0 -3
v 3 0 -3
v -3 6 3
v 3 6 3
v 0 6 2
v 1 6 2
v -2 6 1
v -1 6 1
v 0 6 1
v 1 6 1
v -3 6 -0
v -2 6 -0
v -1 6 -0
v 0 6 -0
v 1 6 -0
v 2 6 -0
v -2 6 -1
v 0 6 -1
v 1 6 -1
v 2 6 -1
v 3 6 -1
v 0 6 -2
v 1 6 -2
v -3 6 -3
v 3 6 -3

# faces
f 5/1/1 2/1/1 1/1/1
f 6/1/1 2/1/1 5/1/1
f 7/2/1 3/2/1 2/2/1
f 7/1/1 2/1/1 6/1/1
f 8/1/1 4/1/1 3/1/1
f 8/2/1 3/2/1 7/2/1
f 9/2/1 6/2/1 5/2/1
f 9/1/1 5/1/1 1/1/1
f 10/1/1 7/1/1 6/1/1
f 10/2/1 6/2/1 9/2/1
f 10/1/1 8/1/1 7/1/1
f 11/1/1 4/1/1 8/1/1
f 11/1/1 8/1/1 10/1/1
f 12/1/1 4/1/1 11/1/1
f 13/1/1 10/1/1 9/1/1
f 13/1/1 11/1/1 10/1/1
f 14/1/1 11/1/1 13/1/1
f 15/2/1 12/2/1 11/2/1
f 15/1/1 11/1/1 14/1/1
f 16/1/1 4/1/1 12/1/1
f 16/2/1 12/2/1 15/2/1
f 17/1/1 9/1/1 1/1/1
f 17/1/1 13/1/1 9/1/1
f 18/2/1 14/2/1 13/2/1
f 18/1/1 13/1/1 17/1/1
f 19/1/1 15/1/1 14/1/1
f 19/2/1 14/2/1 18/2/1
f 19/1/1 16/1/1 15/1/1
f 20/1/1 16/1/1 19/1/1
f 21/1/1 4/1/1 16/1/1
f 21/1/1 16/1/1 20/1/1
f 22/1/1 17/1/1 1/1/1
f 23/5/1 18/5/1 17/5/1
f 23/1/1 17/1/1 22/1/1
f 23/5/1 19/5/1 18/5/1
f 24/1/1 20/1/1 19/1/1
f 24/5/1 19/5/1 23/5/1
f 25/4/1 21/4/1 20/4/1
f 25/1/1 20/1/1 24/1/1
f 26/1/1 4/1/1 21/1/1
f 26/4/1 21/4/1 25/4/1
f 27/1/1 4/1/1 26/1/1
f 28/5/1 23/5/1 22/5/1
f 28/5/1 24/5/1 23/5/1
f 29/4/1 25/4/1 24/4/1
f 29/5/1 24/5/1 28/5/1
f 29/4/1 27/4/1 26/4/1
f 29/4/1 26/4/1 25/4/1
f 30/4/1 27/4/1 29/4/1
f 31/1/2 32/1/2 35/1/2
f 32/2/2 33/2/2 35/2/2
f 33/1/2 34/1/2 36/1/2
f 35/2/2 33/2/2 36/2/2
f 36/1/2 34/1/2 37/1/2
f 37/1/2 34/1/2 38/1/2
f 31/1/2 35/1/2 39/1/2
f 35/1/2 36/1/2 39/1/2
f 36/1/2 37/1/2 39/1/2
f 39/1/2 37/1/2 40/1/2
f 37/2/2 38/2/2 41/2/2
f 40/1/2 37/1/2 41/1/2
f 38/1/2 34/1/2 42/1/2
f 41/2/2 38/2/2 42/2/2
f 39/2/2 40/2/2 43/2/2
f 31/1/2 39/1/2 43/1/2
f 40/1/2 41/1/2 44/1/2
f 43/2/2 40/2/2 44/2/2
f 41/1/2 42/1/2 44/1/2
f 44/1/2 42/1/2 45/1/2
f 45/1/2 42/1/2 46/1/2
f 31/1/2 43/1/2 47/1/2
f 43/1/2 44/1/2 47/1/2
f 44/1/2 45/1/2 47/1/2
f 47/1/2 45/1/2 48/1/2
f 45/2/2 46/2/2 49/2/2
f 48/1/2 45/1/2 49/1/2
f 46/1/2 42/1/2 50/1/2
f 49/2/2 46/2/2 50/2/2
f 42/1/2 34/1/2 51/1/2
f 50/1/2 42/1/2 51/1/2
f 31/1/2 47/1/2 52/1/2
f 47/5/2 48/5/2 53/5/2
f 52/1/2 47/1/2 53/1/2
f 48/1/2 49/1/2 54/1/2
f 53/5/2 48/5/2 54/5/2
f 49/5/2 50/5/2 55/5/2
f 54/1/2 49/1/2 55/1/2
f 51/1/2 34/1/2 56/1/2
f 50/4/2 51/4/2 56/4/2
f 56/1/2 34/1/2 57/1/2
f 52/5/2 53/5/2 58/5/2
f 53/5/2 54/5/2 58/5/2
f 54/5/2 55/5/2 58/5/2
f 56/4/2 57/4/2 59/4/2
f 58/5/2 55/5/2 59/5/2
f 55/5/2 50/5/2 59/5/2
f 50/4/2 56/4/2 59/4/2
f 59/4/2 57/4/2 60/4/2
f 64/1/3 62/1/3 61/1/3
f 65/1/3 62/1/3 64/1/3
f 66/1/3 62/1/3 65/1/3
f 67/5/3 63/5/3 62/5/3
f 67/1/3 62/1/3 66/1/3
f 68/1/3 64/1/3 61/1/3
f 69/1/3 64/1/3 68/1/3
f 70/2/3 65/2/3 64/2/3
f 70/1/3 64/1/3 69/1/3
f 71/1/3 66/1/3 65/1/3
f 71/2/3 65/2/3 70/2/3
f 72/5/3 67/5/3 66/5/3
f 72/1/3 66/1/3 71/1/3
f 73/5/3 63/5/3 67/5/3
f 73/5/3 67/5/3 72/5/3
f 74/2/3 69/2/3 68/2/3
f 75/1/3 70/1/3 69/1/3
f 75/2/3 69/2/3 74/2/3
f 75/1/3 72/1/3 71/1/3
f 75/1/3 73/1/3 72/1/3
f 75/1/3 71/1/3 70/1/3
f 76/1/3 73/1/3 75/1/3
f 77/1/3 73/1/3 76/1/3
f 78/5/3 63/5/3 73/5/3
f 78/1/3 73/1/3 77/1/3
f 79/1/3 75/1/3 74/1/3
f 79/1/3 76/1/3 75/1/3
f 80/1/3 76/1/3 79/1/3
f 81/2/3 77/2/3 76/2/3
f 81/1/3 76/1/3 80/1/3
f 82/5/3 78/5/3 77/5/3
f 82/2/3 77/2/3 81/2/3
f 83/2/3 80/2/3 79/2/3
f 83/1/3 79/1/3 74/1/3
f 84/1/3 81/1/3 80/1/3
f 84/2/3 80/2/3 83/2/3
f 84/1/3 82/1/3 81/1/3
f 85/5/3 78/5/3 82/5/3
f 85/1/3 82/1/3 84/1/3
f 86/5/3 63/5/3 78/5/3
f 86/5/3 78/5/3 85/5/3
f 87/1/3 84/1/3 83/1/3
f 87/1/3 85/1/3 84/1/3
f 87/1/3 86/1/3 85/1/3
f 87/1/3 83/1/3 74/1/3
f 88/5/3 63/5/3 86/5/3
f 88/1/3 86/1/3 87/1/3
f 89/5/3 63/5/3 88/5/3
f 90/1/4 91/1/4 93/1/4
f 93/1/4 91/1/4 94/1/4
f 94/1/4 91/1/4 95/1/4
f 91/4/4 92/4/4 96/4/4
f 95/1/4 91/1/4 96/1/4
f 90/1/4 93/1/4 97/1/4
f 93/2/4 94/2/4 97/2/4
f 94/1/4 95/1/4 98/1/4
f 97/2/4 94/2/4 98/2/4
f 98/1/4 95/1/4 99/1/4
f 95/4/4 96/4/4 100/4/4
f 99/1/4 95/1/4 100/1/4
f 90/1/4 97/1/4 101/1/4
f 98/1/4 99/1/4 101/1/4
f 97/1/4 98/1/4 101/1/4
f 101/1/4 99/1/4 102/1/4
f 99/2/4 100/2/4 103/2/4
f 102/1/4 99/1/4 103/1/4
f 100/4/4 96/4/4 104/4/4
f 103/2/4 100/2/4 104/2/4
f 96/4/4 92/4/4 105/4/4
f 104/4/4 96/4/4 105/4/4
f 101/2/4 102/2/4 106/2/4
f 102/1/4 103/1/4 107/1/4
f 106/2/4 102/2/4 107/2/4
f 103/1/4 104/1/4 107/1/4
f 104/1/4 105/1/4 107/1/4
f 107/1/4 105/1/4 108/1/4
f 108/1/4 105/1/4 109/1/4
f 109/1/4 105/1/4 110/1/4
f 105/4/4 92/4/4 111/4/4
f 110/1/4 105/1/4 111/1/4
f 106/1/4 107/1/4 112/1/4
f 107/1/4 108/1/4 112/1/4
f 108/2/4 109/2/4 112/2/4
f 109/1/4 110/1/4 113/1/4
f 112/2/4 109/2/4 113/2/4
f 110/4/4 111/4/4 114/4/4
f 113/1/4 110/1/4 114/1/4
f 111/4/4 92/4/4 115/4/4
f 114/4/4 111/4/4 115/4/4
f 106/1/4 112/1/4 116/1/4
f 113/1/4 114/1/4 116/1/4
f 114/1/4 115/1/4 116/1/4
f 112/1/4 113/1/4 116/1/4
f 115/4/4 92/4/4 117/4/4
f 116/1/4 115/1/4 117/1/4
f 117/4/4 92/4/4 118/4/4
f 123/1/5 120/1/5 119/1/5
f 123/2/5 121/2/5 120/2/5
f 124/1/5 122/1/5 121/1/5
f 124/2/5 121/2/5 123/2/5
f 125/1/5 124/1/5 123/1/5
f 125/1/5 122/1/5 124/1/5
f 126/1/5 122/1/5 125/1/5
f 127/1/5 123/1/5 119/1/5
f 127/1/5 125/1/5 123/1/5
f 128/1/5 125/1/5 127/1/5
f 129/2/5 126/2/5 125/2/5
f 129/1/5 125/1/5 128/1/5
f 130/2/5 126/2/5 129/2/5
f 131/2/5 128/2/5 127/2/5
f 132/1/5 129/1/5 128/1/5
f 132/2/5 128/2/5 131/2/5
f 132/1/5 130/1/5 129/1/5
f 133/1/5 132/1/5 131/1/5
f 133/1/5 130/1/5 132/1/5
f 134/1/5 130/1/5 133/1/5
f 135/1/5 133/1/5 131/1/5
f 136/2/5 134/2/5 133/2/5
f 136/1/5 133/1/5 135/1/5
f 137/1/5 130/1/5 134/1/5
f 137/2/5 134/2/5 136/2/5
f 138/1/5 130/1/5 137/1/5
f 139/5/6 140/5/6 141/5/6
f 141/5/6 140/5/6 142/5/6
f 139/5/6 141/5/6 143/5/6
f 143/5/6 141/5/6 144/5/6
f 141/6/6 142/6/6 145/6/6
f 144/5/6 141/5/6 145/5/6
f 142/5/6 140/5/6 146/5/6
f 145/6/6 142/6/6 146/6/6
f 139/5/6 143/5/6 147/5/6
f 143/6/6 144/6/6 148/6/6
f 147/5/6 143/5/6 148/5/6
f 144/5/6 145/5/6 149/5/6
f 148/6/6 144/6/6 149/6/6
f 145/5/6 146/5/6 149/5/6
f 149/5/6 146/5/6 150/5/6
f 146/5/6 140/5/6 151/5/6
f 150/5/6 146/5/6 151/5/6
f 151/5/6 140/5/6 152/5/6
f 147/4/6 148/4/6 153/4/6
f 149/5/6 150/5/6 153/5/6
f 148/5/6 149/5/6 153/5/6
f 150/4/6 151/4/6 154/4/6
f 153/5/6 150/5/6 154/5/6
f 151/3/6 152/3/6 155/3/6
f 154/4/6 151/4/6 155/4/6
f 152/5/6 140/5/6 156/5/6
f 155/3/6 152/3/6 156/3/6
f 156/5/6 140/5/6 157/5/6
f 154/3/6 155/3/6 158/3/6
f 153/4/6 154/4/6 158/4/6
f 156/4/6 157/4/6 159/4/6
f 158/3/6 155/3/6 159/3/6
f 155/4/6 156/4/6 159/4/6
f 153/4/6 158/4/6 160/4/6
f 147/4/6 153/4/6 160/4/6
f 158/4/6 159/4/6 160/4/6
f 159/4/6 157/4/6 161/4/6
f 160/4/6 159/4/6 161/4/6
