# MagicaVoxel @ Ephtracy

# material
mtllib GroundBlock_type2_12.mtl
usemtl palette

# normals
vn -1 0 0
vn 1 0 0
vn 0 0 1
vn 0 0 -1
vn 0 -1 0
vn 0 1 0

# texcoords
vt 0.458984 0.5
vt 0.466797 0.5
vt 0.509766 0.5
vt 0.513672 0.5

# verts
v -3 0 3
v -3 0 2
v -3 0 1
v -3 0 -2
v -3 0 -3
v -3 1 2
v -3 1 1
v -3 1 -1
v -3 1 -2
v -3 1 -3
v -3 2 2
v -3 2 1
v -3 2 -0
v -3 2 -1
v -3 2 -2
v -3 3 2
v -3 3 1
v -3 3 -0
v -3 3 -1
v -3 4 1
v -3 4 -0
v -3 5 3
v -3 5 2
v -3 5 1
v -3 6 3
v -3 6 2
v 3 0 3
v 3 0 -0
v 3 0 -1
v 3 0 -2
v 3 0 -3
v 3 1 2
v 3 1 1
v 3 1 -0
v 3 1 -1
v 3 1 -2
v 3 1 -3
v 3 2 3
v 3 2 2
v 3 2 1
v 3 2 -0
v 3 2 -1
v 3 2 -2
v 3 3 3
v 3 3 2
v 3 3 1
v 3 3 -0
v 3 3 -1
v 3 4 2
v 3 4 1
v 3 4 -0
v 3 5 3
v 3 5 2
v 3 5 1
v 3 6 3
v 3 6 2
v -3 0 3
v -3 5 3
v -3 6 3
v -2 2 3
v -2 3 3
v -1 4 3
v -1 5 3
v 0 2 3
v 0 3 3
v 0 4 3
v 0 5 3
v 2 2 3
v 2 3 3
v 3 0 3
v 3 2 3
v 3 3 3
v 3 5 3
v 3 6 3
v -3 5 2
v -3 6 2
v 3 5 2
v 3 6 2
v -3 4 1
v -3 5 1
v 3 4 1
v 3 5 1
v -3 3 -0
v -3 4 -0
v 3 3 -0
v 3 4 -0
v -3 2 -1
v -3 3 -1
v 3 2 -1
v 3 3 -1
v -3 1 -2
v -3 2 -2
v 3 1 -2
v 3 2 -2
v -3 0 -3
v -3 1 -3
v 3 0 -3
v 3 1 -3
v -3 0 3
v 3 0 3
v -3 0 2
v -2 0 2
v -3 0 1
v -2 0 1
v 0 0 1
v 1 0 1
v 0 0 -0
v 1 0 -0
v 2 0 -0
v 3 0 -0
v 2 0 -1
v 3 0 -1
v -3 0 -2
v 3 0 -2
v -3 0 -3
v 3 0 -3
v -3 1 -2
v 3 1 -2
v -3 1 -3
v 3 1 -3
v -3 2 -1
v 3 2 -1
v -3 2 -2
v 3 2 -2
v -3 3 -0
v 3 3 -0
v -3 3 -1
v 3 3 -1
v -3 4 1
v 3 4 1
v -3 4 -0
v 3 4 -0
v -3 5 2
v 3 5 2
v -3 5 1
v 3 5 1
v -3 6 3
v 3 6 3
v -3 6 2
v 3 6 2

# faces
f 6/1/1 2/1/1 1/1/1
f 6/2/1 3/2/1 2/2/1
f 7/1/1 4/1/1 3/1/1
f 7/2/1 3/2/1 6/2/1
f 8/1/1 4/1/1 7/1/1
f 9/4/1 5/4/1 4/4/1
f 9/1/1 4/1/1 8/1/1
f 10/4/1 5/4/1 9/4/1
f 11/1/1 8/1/1 7/1/1
f 11/1/1 6/1/1 1/1/1
f 11/1/1 7/1/1 6/1/1
f 12/1/1 8/1/1 11/1/1
f 13/1/1 8/1/1 12/1/1
f 14/4/1 9/4/1 8/4/1
f 14/1/1 8/1/1 13/1/1
f 15/4/1 9/4/1 14/4/1
f 16/1/1 11/1/1 1/1/1
f 16/3/1 12/3/1 11/3/1
f 17/1/1 13/1/1 12/1/1
f 17/3/1 12/3/1 16/3/1
f 18/4/1 14/4/1 13/4/1
f 18/1/1 13/1/1 17/1/1
f 19/4/1 14/4/1 18/4/1
f 20/4/1 17/4/1 16/4/1
f 20/4/1 18/4/1 17/4/1
f 21/4/1 18/4/1 20/4/1
f 22/1/1 16/1/1 1/1/1
f 23/4/1 20/4/1 16/4/1
f 23/1/1 16/1/1 22/1/1
f 24/4/1 20/4/1 23/4/1
f 25/4/1 23/4/1 22/4/1
f 26/4/1 23/4/1 25/4/1
f 27/1/2 28/1/2 32/1/2
f 32/1/2 28/1/2 33/1/2
f 28/3/2 29/3/2 34/3/2
f 33/1/2 28/1/2 34/1/2
f 29/1/2 30/1/2 35/1/2
f 34/3/2 29/3/2 35/3/2
f 30/4/2 31/4/2 36/4/2
f 35/1/2 30/1/2 36/1/2
f 36/4/2 31/4/2 37/4/2
f 27/1/2 32/1/2 38/1/2
f 32/4/2 33/4/2 39/4/2
f 38/1/2 32/1/2 39/1/2
f 34/1/2 35/1/2 40/1/2
f 39/4/2 33/4/2 40/4/2
f 33/1/2 34/1/2 40/1/2
f 40/1/2 35/1/2 41/1/2
f 35/4/2 36/4/2 42/4/2
f 41/1/2 35/1/2 42/1/2
f 42/4/2 36/4/2 43/4/2
f 38/2/2 39/2/2 44/2/2
f 39/3/2 40/3/2 45/3/2
f 44/2/2 39/2/2 45/2/2
f 40/1/2 41/1/2 46/1/2
f 45/3/2 40/3/2 46/3/2
f 41/4/2 42/4/2 47/4/2
f 46/1/2 41/1/2 47/1/2
f 47/4/2 42/4/2 48/4/2
f 44/1/2 45/1/2 49/1/2
f 45/1/2 46/1/2 49/1/2
f 46/4/2 47/4/2 50/4/2
f 49/1/2 46/1/2 50/1/2
f 50/4/2 47/4/2 51/4/2
f 44/1/2 49/1/2 52/1/2
f 49/4/2 50/4/2 53/4/2
f 52/1/2 49/1/2 53/1/2
f 53/4/2 50/4/2 54/4/2
f 52/4/2 53/4/2 55/4/2
f 55/4/2 53/4/2 56/4/2
f 60/1/3 58/1/3 57/1/3
f 61/1/3 58/1/3 60/1/3
f 62/1/3 58/1/3 61/1/3
f 63/4/3 59/4/3 58/4/3
f 63/1/3 58/1/3 62/1/3
f 64/1/3 60/1/3 57/1/3
f 64/2/3 61/2/3 60/2/3
f 65/1/3 62/1/3 61/1/3
f 65/2/3 61/2/3 64/2/3
f 66/4/3 63/4/3 62/4/3
f 66/1/3 62/1/3 65/1/3
f 67/4/3 59/4/3 63/4/3
f 67/4/3 63/4/3 66/4/3
f 68/1/3 64/1/3 57/1/3
f 68/1/3 66/1/3 65/1/3
f 68/1/3 67/1/3 66/1/3
f 68/1/3 65/1/3 64/1/3
f 69/1/3 67/1/3 68/1/3
f 70/1/3 68/1/3 57/1/3
f 71/2/3 69/2/3 68/2/3
f 71/1/3 68/1/3 70/1/3
f 72/1/3 67/1/3 69/1/3
f 72/2/3 69/2/3 71/2/3
f 73/4/3 59/4/3 67/4/3
f 73/1/3 67/1/3 72/1/3
f 74/4/3 59/4/3 73/4/3
f 75/4/4 76/4/4 77/4/4
f 77/4/4 76/4/4 78/4/4
f 79/4/4 80/4/4 81/4/4
f 81/4/4 80/4/4 82/4/4
f 83/4/4 84/4/4 85/4/4
f 85/4/4 84/4/4 86/4/4
f 87/4/4 88/4/4 89/4/4
f 89/4/4 88/4/4 90/4/4
f 91/4/4 92/4/4 93/4/4
f 93/4/4 92/4/4 94/4/4
f 95/4/4 96/4/4 97/4/4
f 97/4/4 96/4/4 98/4/4
f 101/1/5 100/1/5 99/1/5
f 102/1/5 100/1/5 101/1/5
f 103/2/5 102/2/5 101/2/5
f 104/1/5 100/1/5 102/1/5
f 104/2/5 102/2/5 103/2/5
f 105/1/5 100/1/5 104/1/5
f 106/1/5 100/1/5 105/1/5
f 107/1/5 104/1/5 103/1/5
f 107/1/5 105/1/5 104/1/5
f 107/3/5 106/3/5 105/3/5
f 108/1/5 100/1/5 106/1/5
f 108/3/5 106/3/5 107/3/5
f 109/1/5 100/1/5 108/1/5
f 110/1/5 100/1/5 109/1/5
f 111/1/5 108/1/5 107/1/5
f 111/1/5 109/1/5 108/1/5
f 111/3/5 110/3/5 109/3/5
f 112/3/5 110/3/5 111/3/5
f 113/1/5 107/1/5 103/1/5
f 113/1/5 111/1/5 107/1/5
f 113/1/5 112/1/5 111/1/5
f 114/1/5 112/1/5 113/1/5
f 115/4/5 114/4/5 113/4/5
f 116/4/5 114/4/5 115/4/5
f 117/4/6 118/4/6 119/4/6
f 119/4/6 118/4/6 120/4/6
f 121/4/6 122/4/6 123/4/6
f 123/4/6 122/4/6 124/4/6
f 125/4/6 126/4/6 127/4/6
f 127/4/6 126/4/6 128/4/6
f 129/4/6 130/4/6 131/4/6
f 131/4/6 130/4/6 132/4/6
f 133/4/6 134/4/6 135/4/6
f 135/4/6 134/4/6 136/4/6
f 137/4/6 138/4/6 139/4/6
f 139/4/6 138/4/6 140/4/6
