# MagicaVoxel @ Ephtracy

# material
mtllib GroundBlock_type4_13.mtl
usemtl palette

# normals
vn -1 0 0
vn 1 0 0
vn 0 0 1
vn 0 0 -1
vn 0 -1 0
vn 0 1 0

# texcoords
vt 0.197266 0.5
vt 0.201172 0.5
vt 0.205078 0.5
vt 0.982422 0.5

# verts
v -3 0 3
v -3 0 2
v -3 0 -1
v -3 0 -2
v -3 0 -3
v -3 1 3
v -3 1 2
v -3 1 1
v -3 2 2
v -3 2 1
v -3 2 -0
v -3 2 -1
v -3 2 -2
v -3 2 -3
v -3 3 1
v -3 3 -0
v -3 3 -1
v -3 3 -2
v -3 3 -3
v -3 4 -0
v -3 4 -1
v -3 4 -2
v -3 5 -1
v -3 5 -2
v -3 5 -3
v -3 6 -2
v -3 6 -3
v 3 0 3
v 3 0 2
v 3 0 1
v 3 0 -2
v 3 0 -3
v 3 1 3
v 3 1 2
v 3 1 1
v 3 2 2
v 3 2 1
v 3 2 -0
v 3 2 -2
v 3 2 -3
v 3 3 1
v 3 3 -0
v 3 3 -1
v 3 3 -2
v 3 3 -3
v 3 4 -0
v 3 4 -1
v 3 4 -2
v 3 5 -1
v 3 5 -2
v 3 5 -3
v 3 6 -2
v 3 6 -3
v -3 0 3
v -3 1 3
v -2 0 3
v -2 1 3
v 2 0 3
v 2 1 3
v 3 0 3
v 3 1 3
v -3 1 2
v -3 2 2
v -2 1 2
v -2 2 2
v 2 1 2
v 2 2 2
v 3 1 2
v 3 2 2
v -3 2 1
v -3 3 1
v -2 2 1
v -2 3 1
v 2 2 1
v 2 3 1
v 3 2 1
v 3 3 1
v -3 3 -0
v -3 4 -0
v -2 3 -0
v -2 4 -0
v 2 3 -0
v 2 4 -0
v 3 3 -0
v 3 4 -0
v -3 4 -1
v -3 5 -1
v -2 4 -1
v -2 5 -1
v 2 4 -1
v 2 5 -1
v 3 4 -1
v 3 5 -1
v -3 5 -2
v -3 6 -2
v -2 5 -2
v -2 6 -2
v 2 5 -2
v 2 6 -2
v 3 5 -2
v 3 6 -2
v -3 0 -3
v -3 2 -3
v -3 3 -3
v -3 5 -3
v -3 6 -3
v -2 3 -3
v -2 5 -3
v -2 6 -3
v -1 3 -3
v -1 5 -3
v 1 0 -3
v 1 2 -3
v 2 0 -3
v 2 2 -3
v 2 5 -3
v 2 6 -3
v 3 0 -3
v 3 2 -3
v 3 3 -3
v 3 5 -3
v 3 6 -3
v -3 0 3
v -2 0 3
v 2 0 3
v 3 0 3
v -3 0 2
v -2 0 2
v 2 0 2
v 3 0 2
v -1 0 1
v 1 0 1
v 2 0 1
v 3 0 1
v -3 0 -1
v -2 0 -1
v -1 0 -1
v 1 0 -1
v -3 0 -2
v 1 0 -2
v 2 0 -2
v 3 0 -2
v -3 0 -3
v 1 0 -3
v 2 0 -3
v 3 0 -3
v -3 1 3
v -2 1 3
v 2 1 3
v 3 1 3
v -3 1 2
v -2 1 2
v 2 1 2
v 3 1 2
v -3 2 2
v -2 2 2
v 2 2 2
v 3 2 2
v -3 2 1
v -2 2 1
v 2 2 1
v 3 2 1
v -3 3 1
v -2 3 1
v 2 3 1
v 3 3 1
v -3 3 -0
v -2 3 -0
v 2 3 -0
v 3 3 -0
v -3 4 -0
v -2 4 -0
v 2 4 -0
v 3 4 -0
v -3 4 -1
v -2 4 -1
v 2 4 -1
v 3 4 -1
v -3 5 -1
v -2 5 -1
v 2 5 -1
v 3 5 -1
v -3 5 -2
v -2 5 -2
v 2 5 -2
v 3 5 -2
v -3 6 -2
v -2 6 -2
v 2 6 -2
v 3 6 -2
v -3 6 -3
v -2 6 -3
v 2 6 -3
v 3 6 -3

# faces
f 6/1/1 2/1/1 1/1/1
f 7/2/1 3/2/1 2/2/1
f 7/1/1 2/1/1 6/1/1
f 8/2/1 3/2/1 7/2/1
f 9/1/1 8/1/1 7/1/1
f 10/2/1 3/2/1 8/2/1
f 10/1/1 8/1/1 9/1/1
f 11/2/1 3/2/1 10/2/1
f 12/4/1 4/4/1 3/4/1
f 12/2/1 3/2/1 11/2/1
f 13/2/1 5/2/1 4/2/1
f 13/4/1 4/4/1 12/4/1
f 14/2/1 5/2/1 13/2/1
f 15/1/1 11/1/1 10/1/1
f 16/4/1 12/4/1 11/4/1
f 16/1/1 11/1/1 15/1/1
f 16/4/1 14/4/1 13/4/1
f 16/4/1 13/4/1 12/4/1
f 17/4/1 14/4/1 16/4/1
f 18/4/1 14/4/1 17/4/1
f 19/4/1 14/4/1 18/4/1
f 20/1/1 17/1/1 16/1/1
f 21/2/1 18/2/1 17/2/1
f 21/1/1 17/1/1 20/1/1
f 22/3/1 19/3/1 18/3/1
f 22/2/1 18/2/1 21/2/1
f 23/1/1 22/1/1 21/1/1
f 24/3/1 19/3/1 22/3/1
f 24/1/1 22/1/1 23/1/1
f 25/3/1 19/3/1 24/3/1
f 26/1/1 25/1/1 24/1/1
f 27/1/1 25/1/1 26/1/1
f 28/1/2 29/1/2 33/1/2
f 29/4/2 30/4/2 34/4/2
f 33/1/2 29/1/2 34/1/2
f 30/2/2 31/2/2 35/2/2
f 34/4/2 30/4/2 35/4/2
f 34/1/2 35/1/2 36/1/2
f 35/2/2 31/2/2 37/2/2
f 36/1/2 35/1/2 37/1/2
f 37/2/2 31/2/2 38/2/2
f 31/3/2 32/3/2 39/3/2
f 38/2/2 31/2/2 39/2/2
f 39/3/2 32/3/2 40/3/2
f 37/1/2 38/1/2 41/1/2
f 39/4/2 40/4/2 42/4/2
f 41/1/2 38/1/2 42/1/2
f 38/4/2 39/4/2 42/4/2
f 42/4/2 40/4/2 43/4/2
f 43/4/2 40/4/2 44/4/2
f 44/4/2 40/4/2 45/4/2
f 42/1/2 43/1/2 46/1/2
f 43/4/2 44/4/2 47/4/2
f 46/1/2 43/1/2 47/1/2
f 44/2/2 45/2/2 48/2/2
f 47/4/2 44/4/2 48/4/2
f 47/1/2 48/1/2 49/1/2
f 48/2/2 45/2/2 50/2/2
f 49/1/2 48/1/2 50/1/2
f 50/2/2 45/2/2 51/2/2
f 50/1/2 51/1/2 52/1/2
f 52/1/2 51/1/2 53/1/2
f 56/1/3 55/1/3 54/1/3
f 57/1/3 55/1/3 56/1/3
f 58/3/3 57/3/3 56/3/3
f 59/3/3 57/3/3 58/3/3
f 60/1/3 59/1/3 58/1/3
f 61/1/3 59/1/3 60/1/3
f 64/1/3 63/1/3 62/1/3
f 65/1/3 63/1/3 64/1/3
f 66/3/3 65/3/3 64/3/3
f 67/3/3 65/3/3 66/3/3
f 68/1/3 67/1/3 66/1/3
f 69/1/3 67/1/3 68/1/3
f 72/1/3 71/1/3 70/1/3
f 73/1/3 71/1/3 72/1/3
f 74/3/3 73/3/3 72/3/3
f 75/3/3 73/3/3 74/3/3
f 76/1/3 75/1/3 74/1/3
f 77/1/3 75/1/3 76/1/3
f 80/1/3 79/1/3 78/1/3
f 81/1/3 79/1/3 80/1/3
f 82/3/3 81/3/3 80/3/3
f 83/3/3 81/3/3 82/3/3
f 84/1/3 83/1/3 82/1/3
f 85/1/3 83/1/3 84/1/3
f 88/1/3 87/1/3 86/1/3
f 89/1/3 87/1/3 88/1/3
f 90/3/3 89/3/3 88/3/3
f 91/3/3 89/3/3 90/3/3
f 92/1/3 91/1/3 90/1/3
f 93/1/3 91/1/3 92/1/3
f 96/1/3 95/1/3 94/1/3
f 97/1/3 95/1/3 96/1/3
f 98/3/3 97/3/3 96/3/3
f 99/3/3 97/3/3 98/3/3
f 100/1/3 99/1/3 98/1/3
f 101/1/3 99/1/3 100/1/3
f 103/4/4 104/4/4 107/4/4
f 104/3/4 105/3/4 107/3/4
f 105/1/4 106/1/4 108/1/4
f 107/3/4 105/3/4 108/3/4
f 108/1/4 106/1/4 109/1/4
f 103/4/4 107/4/4 110/4/4
f 107/4/4 108/4/4 110/4/4
f 108/3/4 109/3/4 111/3/4
f 110/4/4 108/4/4 111/4/4
f 102/2/4 103/2/4 112/2/4
f 103/4/4 110/4/4 113/4/4
f 112/2/4 103/2/4 113/2/4
f 112/4/4 113/4/4 114/4/4
f 113/4/4 110/4/4 115/4/4
f 114/4/4 113/4/4 115/4/4
f 111/3/4 109/3/4 116/3/4
f 110/2/4 111/2/4 116/2/4
f 116/3/4 109/3/4 117/3/4
f 114/3/4 115/3/4 118/3/4
f 115/4/4 110/4/4 119/4/4
f 118/3/4 115/3/4 119/3/4
f 110/2/4 116/2/4 120/2/4
f 119/4/4 110/4/4 120/4/4
f 116/1/4 117/1/4 121/1/4
f 120/2/4 116/2/4 121/2/4
f 121/1/4 117/1/4 122/1/4
f 127/1/5 124/1/5 123/1/5
f 128/3/5 125/3/5 124/3/5
f 128/1/5 124/1/5 127/1/5
f 129/1/5 126/1/5 125/1/5
f 129/3/5 125/3/5 128/3/5
f 130/1/5 126/1/5 129/1/5
f 131/4/5 129/4/5 128/4/5
f 131/4/5 130/4/5 129/4/5
f 132/4/5 130/4/5 131/4/5
f 133/4/5 130/4/5 132/4/5
f 134/4/5 130/4/5 133/4/5
f 135/2/5 128/2/5 127/2/5
f 136/4/5 131/4/5 128/4/5
f 136/2/5 128/2/5 135/2/5
f 137/2/5 132/2/5 131/2/5
f 137/4/5 131/4/5 136/4/5
f 138/4/5 133/4/5 132/4/5
f 138/2/5 132/2/5 137/2/5
f 139/4/5 136/4/5 135/4/5
f 139/4/5 137/4/5 136/4/5
f 139/4/5 138/4/5 137/4/5
f 140/4/5 133/4/5 138/4/5
f 140/4/5 138/4/5 139/4/5
f 141/2/5 134/2/5 133/2/5
f 141/4/5 133/4/5 140/4/5
f 142/2/5 134/2/5 141/2/5
f 143/2/5 140/2/5 139/2/5
f 144/4/5 141/4/5 140/4/5
f 144/2/5 140/2/5 143/2/5
f 145/3/5 142/3/5 141/3/5
f 145/4/5 141/4/5 144/4/5
f 146/3/5 142/3/5 145/3/5
f 147/1/6 148/1/6 151/1/6
f 148/3/6 149/3/6 152/3/6
f 151/1/6 148/1/6 152/1/6
f 149/1/6 150/1/6 153/1/6
f 152/3/6 149/3/6 153/3/6
f 153/1/6 150/1/6 154/1/6
f 155/1/6 156/1/6 159/1/6
f 156/3/6 157/3/6 160/3/6
f 159/1/6 156/1/6 160/1/6
f 157/1/6 158/1/6 161/1/6
f 160/3/6 157/3/6 161/3/6
f 161/1/6 158/1/6 162/1/6
f 163/1/6 164/1/6 167/1/6
f 164/3/6 165/3/6 168/3/6
f 167/1/6 164/1/6 168/1/6
f 165/1/6 166/1/6 169/1/6
f 168/3/6 165/3/6 169/3/6
f 169/1/6 166/1/6 170/1/6
f 171/1/6 172/1/6 175/1/6
f 172/3/6 173/3/6 176/3/6
f 175/1/6 172/1/6 176/1/6
f 173/1/6 174/1/6 177/1/6
f 176/3/6 173/3/6 177/3/6
f 177/1/6 174/1/6 178/1/6
f 179/1/6 180/1/6 183/1/6
f 180/3/6 181/3/6 184/3/6
f 183/1/6 180/1/6 184/1/6
f 181/1/6 182/1/6 185/1/6
f 184/3/6 181/3/6 185/3/6
f 185/1/6 182/1/6 186/1/6
f 187/1/6 188/1/6 191/1/6
f 188/3/6 189/3/6 192/3/6
f 191/1/6 188/1/6 192/1/6
f 189/1/6 190/1/6 193/1/6
f 192/3/6 189/3/6 193/3/6
f 193/1/6 190/1/6 194/1/6
