# MagicaVoxel @ Ephtracy

# material
mtllib GroundBlock_type3_11.mtl
usemtl palette

# normals
vn -1 0 0
vn 1 0 0
vn 0 0 1
vn 0 0 -1
vn 0 -1 0
vn 0 1 0

# texcoords
vt 0.869141 0.5
vt 0.900391 0.5
vt 0.982422 0.5
vt 0.990234 0.5

# verts
v -3 0 3
v -3 0 -1
v -3 0 -2
v -3 0 -3
v -3 1 -1
v -3 1 -2
v -3 1 -3
v -3 2 3
v -3 2 -0
v -3 2 -1
v -3 2 -2
v -3 3 3
v -3 3 1
v -3 3 -0
v -3 3 -1
v -3 4 2
v -3 4 1
v -3 4 -0
v -3 5 3
v -3 5 2
v -3 5 1
v -3 6 3
v -3 6 2
v 3 0 3
v 3 0 2
v 3 0 1
v 3 0 -2
v 3 0 -3
v 3 1 -1
v 3 1 -2
v 3 1 -3
v 3 2 3
v 3 2 2
v 3 2 1
v 3 2 -0
v 3 2 -1
v 3 2 -2
v 3 3 3
v 3 3 1
v 3 3 -0
v 3 3 -1
v 3 4 2
v 3 4 1
v 3 4 -0
v 3 5 3
v 3 5 2
v 3 5 1
v 3 6 3
v 3 6 2
v -3 0 3
v -3 2 3
v -3 3 3
v -3 5 3
v -3 6 3
v -2 0 3
v -2 2 3
v -1 0 3
v -1 2 3
v 1 3 3
v 1 5 3
v 2 3 3
v 2 5 3
v 3 0 3
v 3 2 3
v 3 3 3
v 3 5 3
v 3 6 3
v -3 5 2
v -3 6 2
v 3 5 2
v 3 6 2
v -3 4 1
v -3 5 1
v -2 4 1
v -1 4 1
v 3 4 1
v 3 5 1
v -3 3 -0
v -3 4 -0
v -2 3 -0
v -2 4 -0
v -1 3 -0
v -1 4 -0
v 0 3 -0
v 3 3 -0
v 3 4 -0
v -3 2 -1
v -3 3 -1
v -1 2 -1
v -1 3 -1
v 0 2 -1
v 0 3 -1
v 1 2 -1
v 3 2 -1
v 3 3 -1
v -3 1 -2
v -3 2 -2
v 0 1 -2
v 0 2 -2
v 1 1 -2
v 1 2 -2
v 3 1 -2
v 3 2 -2
v -3 0 -3
v -3 1 -3
v 3 0 -3
v 3 1 -3
v -3 0 3
v -2 0 3
v -1 0 3
v 3 0 3
v -1 0 2
v 3 0 2
v -1 0 1
v 1 0 1
v 2 0 1
v 3 0 1
v -3 0 -1
v -2 0 -1
v -1 0 -1
v 1 0 -1
v -3 0 -2
v 2 0 -2
v 3 0 -2
v -3 0 -3
v 3 0 -3
v -3 1 -2
v 0 1 -2
v 1 1 -2
v 3 1 -2
v -3 1 -3
v 3 1 -3
v -3 2 -1
v -1 2 -1
v 0 2 -1
v 1 2 -1
v 3 2 -1
v -3 2 -2
v 0 2 -2
v 1 2 -2
v 3 2 -2
v -3 3 -0
v -2 3 -0
v -1 3 -0
v 0 3 -0
v 3 3 -0
v -3 3 -1
v -1 3 -1
v 0 3 -1
v 3 3 -1
v -3 4 1
v -2 4 1
v -1 4 1
v 3 4 1
v -3 4 -0
v -2 4 -0
v -1 4 -0
v 3 4 -0
v -3 5 2
v 3 5 2
v -3 5 1
v 3 5 1
v -3 6 3
v 3 6 3
v -3 6 2
v 3 6 2

# faces
f 5/2/1 2/2/1 1/2/1
f 5/3/1 3/3/1 2/3/1
f 6/4/1 4/4/1 3/4/1
f 6/3/1 3/3/1 5/3/1
f 7/4/1 4/4/1 6/4/1
f 8/2/1 5/2/1 1/2/1
f 9/2/1 5/2/1 8/2/1
f 10/4/1 6/4/1 5/4/1
f 10/2/1 5/2/1 9/2/1
f 11/4/1 6/4/1 10/4/1
f 12/3/1 9/3/1 8/3/1
f 13/3/1 9/3/1 12/3/1
f 14/4/1 10/4/1 9/4/1
f 14/3/1 9/3/1 13/3/1
f 15/4/1 10/4/1 14/4/1
f 16/1/1 13/1/1 12/1/1
f 17/4/1 14/4/1 13/4/1
f 17/1/1 13/1/1 16/1/1
f 18/4/1 14/4/1 17/4/1
f 19/1/1 16/1/1 12/1/1
f 20/4/1 17/4/1 16/4/1
f 20/1/1 16/1/1 19/1/1
f 21/4/1 17/4/1 20/4/1
f 22/4/1 20/4/1 19/4/1
f 23/4/1 20/4/1 22/4/1
f 26/2/2 27/2/2 29/2/2
f 27/4/2 28/4/2 30/4/2
f 29/2/2 27/2/2 30/2/2
f 30/4/2 28/4/2 31/4/2
f 24/2/2 25/2/2 32/2/2
f 25/3/2 26/3/2 33/3/2
f 32/2/2 25/2/2 33/2/2
f 26/2/2 29/2/2 34/2/2
f 33/3/2 26/3/2 34/3/2
f 34/2/2 29/2/2 35/2/2
f 29/4/2 30/4/2 36/4/2
f 35/2/2 29/2/2 36/2/2
f 36/4/2 30/4/2 37/4/2
f 32/3/2 33/3/2 38/3/2
f 34/3/2 35/3/2 38/3/2
f 33/3/2 34/3/2 38/3/2
f 38/3/2 35/3/2 39/3/2
f 35/4/2 36/4/2 40/4/2
f 39/3/2 35/3/2 40/3/2
f 40/4/2 36/4/2 41/4/2
f 38/2/2 39/2/2 42/2/2
f 39/4/2 40/4/2 43/4/2
f 42/2/2 39/2/2 43/2/2
f 43/4/2 40/4/2 44/4/2
f 38/2/2 42/2/2 45/2/2
f 42/4/2 43/4/2 46/4/2
f 45/2/2 42/2/2 46/2/2
f 46/4/2 43/4/2 47/4/2
f 45/4/2 46/4/2 48/4/2
f 48/4/2 46/4/2 49/4/2
f 55/2/3 51/2/3 50/2/3
f 56/3/3 52/3/3 51/3/3
f 56/2/3 51/2/3 55/2/3
f 57/3/3 56/3/3 55/3/3
f 58/3/3 52/3/3 56/3/3
f 58/3/3 56/3/3 57/3/3
f 59/1/3 53/1/3 52/1/3
f 59/3/3 52/3/3 58/3/3
f 60/4/3 54/4/3 53/4/3
f 60/1/3 53/1/3 59/1/3
f 61/3/3 59/3/3 58/3/3
f 61/3/3 60/3/3 59/3/3
f 62/4/3 54/4/3 60/4/3
f 62/3/3 60/3/3 61/3/3
f 63/2/3 58/2/3 57/2/3
f 64/3/3 61/3/3 58/3/3
f 64/2/3 58/2/3 63/2/3
f 65/2/3 62/2/3 61/2/3
f 65/3/3 61/3/3 64/3/3
f 66/4/3 54/4/3 62/4/3
f 66/2/3 62/2/3 65/2/3
f 67/4/3 54/4/3 66/4/3
f 68/4/4 69/4/4 70/4/4
f 70/4/4 69/4/4 71/4/4
f 72/4/4 73/4/4 74/4/4
f 74/4/4 73/4/4 75/4/4
f 75/4/4 73/4/4 76/4/4
f 76/4/4 73/4/4 77/4/4
f 78/4/4 79/4/4 80/4/4
f 80/4/4 79/4/4 81/4/4
f 80/1/4 81/1/4 82/1/4
f 82/1/4 81/1/4 83/1/4
f 82/4/4 83/4/4 84/4/4
f 84/4/4 83/4/4 85/4/4
f 85/4/4 83/4/4 86/4/4
f 87/4/4 88/4/4 89/4/4
f 89/4/4 88/4/4 90/4/4
f 89/1/4 90/1/4 91/1/4
f 91/1/4 90/1/4 92/1/4
f 91/4/4 92/4/4 93/4/4
f 93/4/4 92/4/4 94/4/4
f 94/4/4 92/4/4 95/4/4
f 96/4/4 97/4/4 98/4/4
f 98/4/4 97/4/4 99/4/4
f 98/1/4 99/1/4 100/1/4
f 100/1/4 99/1/4 101/1/4
f 100/4/4 101/4/4 102/4/4
f 102/4/4 101/4/4 103/4/4
f 104/4/4 105/4/4 106/4/4
f 106/4/4 105/4/4 107/4/4
f 112/3/5 110/3/5 109/3/5
f 112/2/5 111/2/5 110/2/5
f 113/2/5 111/2/5 112/2/5
f 114/3/5 112/3/5 109/3/5
f 114/3/5 113/3/5 112/3/5
f 115/3/5 113/3/5 114/3/5
f 116/3/5 113/3/5 115/3/5
f 117/3/5 113/3/5 116/3/5
f 118/2/5 109/2/5 108/2/5
f 119/3/5 114/3/5 109/3/5
f 119/2/5 109/2/5 118/2/5
f 120/2/5 115/2/5 114/2/5
f 120/3/5 114/3/5 119/3/5
f 121/3/5 116/3/5 115/3/5
f 121/2/5 115/2/5 120/2/5
f 122/3/5 119/3/5 118/3/5
f 122/3/5 120/3/5 119/3/5
f 122/3/5 121/3/5 120/3/5
f 123/3/5 116/3/5 121/3/5
f 123/3/5 121/3/5 122/3/5
f 123/2/5 117/2/5 116/2/5
f 124/2/5 117/2/5 123/2/5
f 125/4/5 123/4/5 122/4/5
f 125/4/5 124/4/5 123/4/5
f 126/4/5 124/4/5 125/4/5
f 127/4/6 128/4/6 131/4/6
f 129/4/6 130/4/6 131/4/6
f 128/4/6 129/4/6 131/4/6
f 131/4/6 130/4/6 132/4/6
f 133/4/6 134/4/6 138/4/6
f 134/4/6 135/4/6 138/4/6
f 135/1/6 136/1/6 139/1/6
f 138/4/6 135/4/6 139/4/6
f 136/4/6 137/4/6 140/4/6
f 139/1/6 136/1/6 140/1/6
f 140/4/6 137/4/6 141/4/6
f 142/4/6 143/4/6 147/4/6
f 143/4/6 144/4/6 147/4/6
f 144/1/6 145/1/6 148/1/6
f 147/4/6 144/4/6 148/4/6
f 145/4/6 146/4/6 149/4/6
f 148/1/6 145/1/6 149/1/6
f 149/4/6 146/4/6 150/4/6
f 151/4/6 152/4/6 155/4/6
f 152/1/6 153/1/6 156/1/6
f 155/4/6 152/4/6 156/4/6
f 153/4/6 154/4/6 157/4/6
f 156/1/6 153/1/6 157/1/6
f 157/4/6 154/4/6 158/4/6
f 159/4/6 160/4/6 161/4/6
f 161/4/6 160/4/6 162/4/6
f 163/4/6 164/4/6 165/4/6
f 165/4/6 164/4/6 166/4/6
