# MagicaVoxel @ Ephtracy

# material
mtllib GroundBlock_type1_03.mtl
usemtl palette

# normals
vn -1 0 0
vn 1 0 0
vn 0 0 1
vn 0 0 -1
vn 0 -1 0
vn 0 1 0

# texcoords
vt 0.111328 0.5
vt 0.119141 0.5
vt 0.505859 0.5
vt 0.529297 0.5
vt 0.541016 0.5
vt 0.556641 0.5
vt 0.966797 0.5

# verts
v -3 0 3
v -3 0 -1
v -3 0 -2
v -3 0 -3
v -3 1 3
v -3 1 2
v -3 1 -0
v -3 1 -1
v -3 1 -2
v -3 2 3
v -3 2 2
v -3 2 1
v -3 2 -0
v -3 2 -1
v -3 2 -2
v -3 3 3
v -3 3 2
v -3 3 1
v -3 3 -0
v -3 3 -1
v -3 3 -2
v -3 3 -3
v -3 4 3
v -3 4 2
v -3 4 1
v -3 4 -0
v -3 4 -1
v -3 4 -2
v -3 4 -3
v -3 5 3
v -3 5 2
v -3 5 1
v -3 5 -0
v -3 5 -1
v -3 5 -2
v -3 6 3
v -3 6 -3
v 3 0 3
v 3 0 -3
v 3 1 -0
v 3 1 -1
v 3 2 2
v 3 2 1
v 3 2 -0
v 3 2 -1
v 3 2 -2
v 3 2 -3
v 3 3 3
v 3 3 2
v 3 3 1
v 3 3 -0
v 3 3 -1
v 3 3 -2
v 3 3 -3
v 3 4 2
v 3 4 1
v 3 4 -0
v 3 4 -1
v 3 4 -2
v 3 5 3
v 3 5 1
v 3 5 -0
v 3 5 -1
v 3 5 -2
v 3 5 -3
v 3 6 3
v 3 6 -3
v -3 0 3
v -3 1 3
v -3 2 3
v -3 3 3
v -3 4 3
v -3 5 3
v -3 6 3
v -2 1 3
v -2 2 3
v -2 3 3
v -2 4 3
v -2 5 3
v -1 1 3
v -1 2 3
v -1 3 3
v -1 4 3
v -1 5 3
v 0 1 3
v 0 2 3
v 0 3 3
v 0 4 3
v 0 5 3
v 1 2 3
v 1 3 3
v 1 4 3
v 1 5 3
v 2 3 3
v 2 4 3
v 2 5 3
v 3 0 3
v 3 3 3
v 3 5 3
v 3 6 3
v -3 0 -3
v -3 3 -3
v -3 4 -3
v -3 6 -3
v -2 3 -3
v -2 4 -3
v -1 3 -3
v -1 4 -3
v -1 5 -3
v 0 4 -3
v 0 5 -3
v 1 2 -3
v 1 3 -3
v 1 4 -3
v 2 2 -3
v 2 3 -3
v 2 4 -3
v 2 5 -3
v 3 0 -3
v 3 2 -3
v 3 3 -3
v 3 5 -3
v 3 6 -3
v -3 0 3
v 3 0 3
v -3 0 -1
v -2 0 -1
v -3 0 -2
v -2 0 -2
v -3 0 -3
v 3 0 -3
v -3 6 3
v 3 6 3
v -2 6 2
v -1 6 2
v -2 6 1
v -1 6 1
v 0 6 -0
v 1 6 -0
v 0 6 -1
v 1 6 -1
v 2 6 -1
v 1 6 -2
v 2 6 -2
v -3 6 -3
v 3 6 -3

# faces
f 5/2/1 2/2/1 1/2/1
f 6/2/1 2/2/1 5/2/1
f 7/2/1 2/2/1 6/2/1
f 8/1/1 3/1/1 2/1/1
f 8/2/1 2/2/1 7/2/1
f 9/2/1 4/2/1 3/2/1
f 9/1/1 3/1/1 8/1/1
f 10/4/1 6/4/1 5/4/1
f 11/2/1 7/2/1 6/2/1
f 11/4/1 6/4/1 10/4/1
f 12/2/1 7/2/1 11/2/1
f 13/4/1 8/4/1 7/4/1
f 13/2/1 7/2/1 12/2/1
f 14/2/1 9/2/1 8/2/1
f 14/4/1 8/4/1 13/4/1
f 15/2/1 4/2/1 9/2/1
f 15/2/1 9/2/1 14/2/1
f 16/2/1 11/2/1 10/2/1
f 17/1/1 12/1/1 11/1/1
f 17/2/1 11/2/1 16/2/1
f 18/6/1 13/6/1 12/6/1
f 18/1/1 12/1/1 17/1/1
f 19/3/1 14/3/1 13/3/1
f 19/6/1 13/6/1 18/6/1
f 20/1/1 15/1/1 14/1/1
f 20/3/1 14/3/1 19/3/1
f 21/2/1 4/2/1 15/2/1
f 21/1/1 15/1/1 20/1/1
f 22/2/1 4/2/1 21/2/1
f 23/3/1 18/3/1 17/3/1
f 23/3/1 17/3/1 16/3/1
f 24/3/1 18/3/1 23/3/1
f 25/4/1 19/4/1 18/4/1
f 25/3/1 18/3/1 24/3/1
f 26/1/1 20/1/1 19/1/1
f 26/4/1 19/4/1 25/4/1
f 27/6/1 21/6/1 20/6/1
f 27/1/1 20/1/1 26/1/1
f 28/3/1 22/3/1 21/3/1
f 28/6/1 21/6/1 27/6/1
f 29/3/1 22/3/1 28/3/1
f 30/4/1 24/4/1 23/4/1
f 31/6/1 25/6/1 24/6/1
f 31/4/1 24/4/1 30/4/1
f 32/4/1 26/4/1 25/4/1
f 32/6/1 25/6/1 31/6/1
f 33/6/1 27/6/1 26/6/1
f 33/4/1 26/4/1 32/4/1
f 34/4/1 28/4/1 27/4/1
f 34/6/1 27/6/1 33/6/1
f 35/6/1 29/6/1 28/6/1
f 35/4/1 28/4/1 34/4/1
f 36/6/1 32/6/1 31/6/1
f 36/6/1 31/6/1 30/6/1
f 36/6/1 35/6/1 34/6/1
f 36/6/1 34/6/1 33/6/1
f 36/6/1 33/6/1 32/6/1
f 37/6/1 29/6/1 35/6/1
f 37/6/1 35/6/1 36/6/1
f 38/2/2 39/2/2 40/2/2
f 40/2/2 39/2/2 41/2/2
f 38/2/2 40/2/2 42/2/2
f 42/2/2 40/2/2 43/2/2
f 40/1/2 41/1/2 44/1/2
f 43/2/2 40/2/2 44/2/2
f 41/2/2 39/2/2 45/2/2
f 44/1/2 41/1/2 45/1/2
f 45/2/2 39/2/2 46/2/2
f 46/2/2 39/2/2 47/2/2
f 38/2/2 42/2/2 48/2/2
f 42/6/2 43/6/2 49/6/2
f 48/2/2 42/2/2 49/2/2
f 43/3/2 44/3/2 50/3/2
f 49/6/2 43/6/2 50/6/2
f 44/2/2 45/2/2 51/2/2
f 50/3/2 44/3/2 51/3/2
f 45/2/2 46/2/2 51/2/2
f 51/2/2 46/2/2 52/2/2
f 46/3/2 47/3/2 53/3/2
f 52/2/2 46/2/2 53/2/2
f 53/3/2 47/3/2 54/3/2
f 48/4/2 49/4/2 55/4/2
f 49/3/2 50/3/2 55/3/2
f 50/6/2 51/6/2 56/6/2
f 55/3/2 50/3/2 56/3/2
f 51/2/2 52/2/2 57/2/2
f 56/6/2 51/6/2 57/6/2
f 52/1/2 53/1/2 58/1/2
f 57/2/2 52/2/2 58/2/2
f 53/4/2 54/4/2 59/4/2
f 58/1/2 53/1/2 59/1/2
f 55/4/2 56/4/2 60/4/2
f 48/4/2 55/4/2 60/4/2
f 56/6/2 57/6/2 61/6/2
f 60/4/2 56/4/2 61/4/2
f 57/4/2 58/4/2 62/4/2
f 61/6/2 57/6/2 62/6/2
f 58/3/2 59/3/2 63/3/2
f 62/4/2 58/4/2 63/4/2
f 59/4/2 54/4/2 64/4/2
f 63/3/2 59/3/2 64/3/2
f 64/4/2 54/4/2 65/4/2
f 60/6/2 61/6/2 66/6/2
f 62/6/2 63/6/2 66/6/2
f 64/6/2 65/6/2 66/6/2
f 63/6/2 64/6/2 66/6/2
f 61/6/2 62/6/2 66/6/2
f 66/6/2 65/6/2 67/6/2
f 75/2/3 69/2/3 68/2/3
f 75/4/3 70/4/3 69/4/3
f 76/2/3 71/2/3 70/2/3
f 76/4/3 70/4/3 75/4/3
f 77/3/3 72/3/3 71/3/3
f 77/2/3 71/2/3 76/2/3
f 78/4/3 73/4/3 72/4/3
f 78/3/3 72/3/3 77/3/3
f 79/6/3 74/6/3 73/6/3
f 79/4/3 73/4/3 78/4/3
f 80/2/3 75/2/3 68/2/3
f 80/1/3 76/1/3 75/1/3
f 81/2/3 78/2/3 77/2/3
f 81/1/3 76/1/3 80/1/3
f 81/2/3 77/2/3 76/2/3
f 82/2/3 78/2/3 81/2/3
f 83/3/3 79/3/3 78/3/3
f 83/2/3 78/2/3 82/2/3
f 84/6/3 74/6/3 79/6/3
f 84/3/3 79/3/3 83/3/3
f 85/2/3 80/2/3 68/2/3
f 85/4/3 81/4/3 80/4/3
f 86/3/3 82/3/3 81/3/3
f 86/4/3 81/4/3 85/4/3
f 87/2/3 83/2/3 82/2/3
f 87/3/3 82/3/3 86/3/3
f 88/6/3 84/6/3 83/6/3
f 88/2/3 83/2/3 87/2/3
f 89/6/3 74/6/3 84/6/3
f 89/6/3 84/6/3 88/6/3
f 90/2/3 86/2/3 85/2/3
f 90/4/3 87/4/3 86/4/3
f 91/3/3 88/3/3 87/3/3
f 91/4/3 87/4/3 90/4/3
f 92/4/3 89/4/3 88/4/3
f 92/3/3 88/3/3 91/3/3
f 93/6/3 74/6/3 89/6/3
f 93/4/3 89/4/3 92/4/3
f 94/3/3 92/3/3 91/3/3
f 94/2/3 91/2/3 90/2/3
f 95/6/3 93/6/3 92/6/3
f 95/3/3 92/3/3 94/3/3
f 96/6/3 74/6/3 93/6/3
f 96/6/3 93/6/3 95/6/3
f 97/2/3 90/2/3 85/2/3
f 97/2/3 85/2/3 68/2/3
f 97/2/3 94/2/3 90/2/3
f 98/4/3 96/4/3 95/4/3
f 98/2/3 94/2/3 97/2/3
f 98/4/3 95/4/3 94/4/3
f 99/6/3 74/6/3 96/6/3
f 99/4/3 96/4/3 98/4/3
f 100/6/3 74/6/3 99/6/3
f 101/2/4 102/2/4 105/2/4
f 102/3/4 103/3/4 105/3/4
f 103/6/4 104/6/4 106/6/4
f 105/3/4 103/3/4 106/3/4
f 101/2/4 105/2/4 107/2/4
f 105/2/4 106/2/4 107/2/4
f 106/6/4 104/6/4 108/6/4
f 107/2/4 106/2/4 108/2/4
f 108/6/4 104/6/4 109/6/4
f 107/4/4 108/4/4 110/4/4
f 108/4/4 109/4/4 110/4/4
f 109/6/4 104/6/4 111/6/4
f 110/4/4 109/4/4 111/4/4
f 101/2/4 107/2/4 112/2/4
f 107/4/4 110/4/4 113/4/4
f 112/2/4 107/2/4 113/2/4
f 110/6/4 111/6/4 114/6/4
f 113/4/4 110/4/4 114/4/4
f 101/2/4 112/2/4 115/2/4
f 112/4/4 113/4/4 115/4/4
f 113/3/4 114/3/4 116/3/4
f 115/4/4 113/4/4 116/4/4
f 114/6/4 111/6/4 117/6/4
f 116/3/4 114/3/4 117/3/4
f 111/6/4 104/6/4 118/6/4
f 117/6/4 111/6/4 118/6/4
f 101/2/4 115/2/4 119/2/4
f 115/3/4 116/3/4 120/3/4
f 119/2/4 115/2/4 120/2/4
f 116/4/4 117/4/4 121/4/4
f 120/3/4 116/3/4 121/3/4
f 117/4/4 118/4/4 121/4/4
f 118/6/4 104/6/4 122/6/4
f 121/4/4 118/4/4 122/4/4
f 122/6/4 104/6/4 123/6/4
f 126/2/5 125/2/5 124/2/5
f 127/2/5 125/2/5 126/2/5
f 128/1/5 127/1/5 126/1/5
f 129/2/5 125/2/5 127/2/5
f 129/1/5 127/1/5 128/1/5
f 130/2/5 129/2/5 128/2/5
f 131/2/5 125/2/5 129/2/5
f 131/2/5 129/2/5 130/2/5
f 132/6/6 133/6/6 134/6/6
f 134/6/6 133/6/6 135/6/6
f 132/6/6 134/6/6 136/6/6
f 134/5/6 135/5/6 136/5/6
f 135/6/6 133/6/6 137/6/6
f 136/5/6 135/5/6 137/5/6
f 136/6/6 137/6/6 138/6/6
f 137/6/6 133/6/6 138/6/6
f 138/6/6 133/6/6 139/6/6
f 136/6/6 138/6/6 140/6/6
f 138/5/6 139/5/6 140/5/6
f 139/6/6 133/6/6 141/6/6
f 140/5/6 139/5/6 141/5/6
f 141/6/6 133/6/6 142/6/6
f 140/6/6 141/6/6 143/6/6
f 141/5/6 142/5/6 143/5/6
f 142/6/6 133/6/6 144/6/6
f 143/5/6 142/5/6 144/5/6
f 132/6/6 136/6/6 145/6/6
f 136/6/6 140/6/6 145/6/6
f 143/6/6 144/6/6 145/6/6
f 140/6/6 143/6/6 145/6/6
f 144/6/6 133/6/6 146/6/6
f 145/6/6 144/6/6 146/6/6
