# MagicaVoxel @ Ephtracy

# material
mtllib GroundBlock_type4_02.mtl
usemtl palette

# normals
vn -1 0 0
vn 1 0 0
vn 0 0 1
vn 0 0 -1
vn 0 -1 0
vn 0 1 0

# texcoords
vt 0.197266 0.5
vt 0.201172 0.5
vt 0.205078 0.5
vt 0.982422 0.5

# verts
v -3 0 3
v -3 0 -1
v -3 0 -2
v -3 0 -3
v -3 2 3
v -3 2 -1
v -3 2 -2
v -3 2 -3
v -3 3 3
v -3 3 2
v -3 3 1
v -3 3 -3
v -3 5 3
v -3 5 2
v -3 5 1
v -3 5 -3
v -3 6 3
v -3 6 -3
v 3 0 3
v 3 0 2
v 3 0 1
v 3 0 -3
v 3 2 3
v 3 2 2
v 3 2 1
v 3 2 -3
v 3 3 3
v 3 3 -1
v 3 3 -2
v 3 3 -3
v 3 5 3
v 3 5 -1
v 3 5 -2
v 3 5 -3
v 3 6 3
v 3 6 -3
v -3 0 3
v -3 2 3
v -3 3 3
v -3 5 3
v -3 6 3
v -2 0 3
v -2 2 3
v -1 0 3
v -1 2 3
v 1 3 3
v 1 5 3
v 2 3 3
v 2 5 3
v 3 0 3
v 3 2 3
v 3 3 3
v 3 5 3
v 3 6 3
v -3 0 -3
v -3 2 -3
v -3 3 -3
v -3 5 -3
v -3 6 -3
v -2 3 -3
v -2 5 -3
v -1 3 -3
v -1 5 -3
v 1 0 -3
v 1 2 -3
v 2 0 -3
v 2 2 -3
v 3 0 -3
v 3 2 -3
v 3 3 -3
v 3 5 -3
v 3 6 -3
v -3 0 3
v -2 0 3
v -1 0 3
v 3 0 3
v -1 0 2
v 3 0 2
v -1 0 1
v 1 0 1
v 2 0 1
v 3 0 1
v -3 0 -1
v -2 0 -1
v -1 0 -1
v 1 0 -1
v -3 0 -2
v 1 0 -2
v -3 0 -3
v 1 0 -3
v 2 0 -3
v 3 0 -3
v -3 6 3
v 3 6 3
v -1 6 1
v 0 6 1
v -1 6 -0
v 0 6 -0
v 1 6 -1
v 2 6 -1
v 1 6 -2
v 2 6 -2
v -3 6 -3
v 3 6 -3

# faces
f 5/3/1 2/3/1 1/3/1
f 6/4/1 3/4/1 2/4/1
f 6/3/1 2/3/1 5/3/1
f 7/2/1 4/2/1 3/2/1
f 7/4/1 3/4/1 6/4/1
f 8/2/1 4/2/1 7/2/1
f 9/4/1 6/4/1 5/4/1
f 9/4/1 7/4/1 6/4/1
f 9/4/1 8/4/1 7/4/1
f 10/4/1 8/4/1 9/4/1
f 11/4/1 8/4/1 10/4/1
f 12/4/1 8/4/1 11/4/1
f 13/2/1 10/2/1 9/2/1
f 14/4/1 11/4/1 10/4/1
f 14/2/1 10/2/1 13/2/1
f 15/2/1 12/2/1 11/2/1
f 15/4/1 11/4/1 14/4/1
f 16/2/1 12/2/1 15/2/1
f 17/1/1 14/1/1 13/1/1
f 17/1/1 15/1/1 14/1/1
f 17/1/1 16/1/1 15/1/1
f 18/1/1 16/1/1 17/1/1
f 19/3/2 20/3/2 23/3/2
f 20/4/2 21/4/2 24/4/2
f 23/3/2 20/3/2 24/3/2
f 21/2/2 22/2/2 25/2/2
f 24/4/2 21/4/2 25/4/2
f 25/2/2 22/2/2 26/2/2
f 23/4/2 24/4/2 27/4/2
f 24/4/2 25/4/2 27/4/2
f 25/4/2 26/4/2 27/4/2
f 27/4/2 26/4/2 28/4/2
f 28/4/2 26/4/2 29/4/2
f 29/4/2 26/4/2 30/4/2
f 27/2/2 28/2/2 31/2/2
f 28/4/2 29/4/2 32/4/2
f 31/2/2 28/2/2 32/2/2
f 29/3/2 30/3/2 33/3/2
f 32/4/2 29/4/2 33/4/2
f 33/3/2 30/3/2 34/3/2
f 31/1/2 32/1/2 35/1/2
f 32/1/2 33/1/2 35/1/2
f 33/1/2 34/1/2 35/1/2
f 35/1/2 34/1/2 36/1/2
f 42/3/3 38/3/3 37/3/3
f 43/4/3 39/4/3 38/4/3
f 43/3/3 38/3/3 42/3/3
f 44/4/3 43/4/3 42/4/3
f 45/4/3 39/4/3 43/4/3
f 45/4/3 43/4/3 44/4/3
f 46/2/3 40/2/3 39/2/3
f 46/4/3 39/4/3 45/4/3
f 47/1/3 41/1/3 40/1/3
f 47/2/3 40/2/3 46/2/3
f 48/4/3 46/4/3 45/4/3
f 48/4/3 47/4/3 46/4/3
f 49/1/3 41/1/3 47/1/3
f 49/4/3 47/4/3 48/4/3
f 50/3/3 45/3/3 44/3/3
f 51/4/3 48/4/3 45/4/3
f 51/3/3 45/3/3 50/3/3
f 52/2/3 49/2/3 48/2/3
f 52/4/3 48/4/3 51/4/3
f 53/1/3 41/1/3 49/1/3
f 53/2/3 49/2/3 52/2/3
f 54/1/3 41/1/3 53/1/3
f 56/4/4 57/4/4 60/4/4
f 57/2/4 58/2/4 60/2/4
f 58/1/4 59/1/4 61/1/4
f 60/2/4 58/2/4 61/2/4
f 56/4/4 60/4/4 62/4/4
f 60/4/4 61/4/4 62/4/4
f 61/1/4 59/1/4 63/1/4
f 62/4/4 61/4/4 63/4/4
f 55/2/4 56/2/4 64/2/4
f 56/4/4 62/4/4 65/4/4
f 64/2/4 56/2/4 65/2/4
f 64/4/4 65/4/4 66/4/4
f 65/4/4 62/4/4 67/4/4
f 66/4/4 65/4/4 67/4/4
f 66/2/4 67/2/4 68/2/4
f 67/4/4 62/4/4 69/4/4
f 68/2/4 67/2/4 69/2/4
f 62/3/4 63/3/4 70/3/4
f 69/4/4 62/4/4 70/4/4
f 63/1/4 59/1/4 71/1/4
f 70/3/4 63/3/4 71/3/4
f 71/1/4 59/1/4 72/1/4
f 77/4/5 75/4/5 74/4/5
f 77/3/5 76/3/5 75/3/5
f 78/3/5 76/3/5 77/3/5
f 79/4/5 77/4/5 74/4/5
f 79/4/5 78/4/5 77/4/5
f 80/4/5 78/4/5 79/4/5
f 81/4/5 78/4/5 80/4/5
f 82/4/5 78/4/5 81/4/5
f 83/3/5 74/3/5 73/3/5
f 84/4/5 79/4/5 74/4/5
f 84/3/5 74/3/5 83/3/5
f 85/2/5 80/2/5 79/2/5
f 85/4/5 79/4/5 84/4/5
f 86/4/5 81/4/5 80/4/5
f 86/2/5 80/2/5 85/2/5
f 87/4/5 84/4/5 83/4/5
f 87/4/5 85/4/5 84/4/5
f 87/4/5 86/4/5 85/4/5
f 88/4/5 81/4/5 86/4/5
f 88/4/5 86/4/5 87/4/5
f 89/2/5 88/2/5 87/2/5
f 90/4/5 81/4/5 88/4/5
f 90/2/5 88/2/5 89/2/5
f 91/2/5 82/2/5 81/2/5
f 91/4/5 81/4/5 90/4/5
f 92/2/5 82/2/5 91/2/5
f 93/1/6 94/1/6 95/1/6
f 95/1/6 94/1/6 96/1/6
f 93/1/6 95/1/6 97/1/6
f 95/3/6 96/3/6 97/3/6
f 96/1/6 94/1/6 98/1/6
f 97/3/6 96/3/6 98/3/6
f 97/1/6 98/1/6 99/1/6
f 98/1/6 94/1/6 99/1/6
f 99/1/6 94/1/6 100/1/6
f 97/1/6 99/1/6 101/1/6
f 99/3/6 100/3/6 101/3/6
f 100/1/6 94/1/6 102/1/6
f 101/3/6 100/3/6 102/3/6
f 93/1/6 97/1/6 103/1/6
f 97/1/6 101/1/6 103/1/6
f 101/1/6 102/1/6 103/1/6
f 102/1/6 94/1/6 104/1/6
f 103/1/6 102/1/6 104/1/6
