# MagicaVoxel @ Ephtracy

# material
mtllib GroundBlock_type4_09.mtl
usemtl palette

# normals
vn -1 0 0
vn 1 0 0
vn 0 0 1
vn 0 0 -1
vn 0 -1 0
vn 0 1 0

# texcoords
vt 0.197266 0.5
vt 0.201172 0.5
vt 0.205078 0.5
vt 0.982422 0.5

# verts
v -3 2 1
v -3 2 -2
v -3 3 3
v -3 3 2
v -3 3 1
v -3 3 -2
v -3 3 -3
v -3 5 3
v -3 5 2
v -3 5 1
v -3 5 -3
v -3 6 3
v -3 6 -3
v -2 1 1
v -2 1 -1
v -2 2 2
v -2 2 1
v -2 2 -1
v -2 3 2
v -2 3 1
v 0 0 1
v 0 0 -1
v 0 1 1
v 0 1 -1
v 0 1 -2
v 0 2 -1
v 0 2 -2
v 1 0 1
v 1 0 -1
v 1 1 1
v 1 1 -1
v 1 1 -2
v 1 2 -1
v 1 2 -2
v 2 1 1
v 2 1 -1
v 2 2 2
v 2 2 1
v 2 2 -1
v 2 3 2
v 2 3 1
v 3 2 1
v 3 2 -2
v 3 3 3
v 3 3 1
v 3 3 -1
v 3 3 -2
v 3 3 -3
v 3 5 3
v 3 5 -1
v 3 5 -2
v 3 5 -3
v 3 6 3
v 3 6 -3
v -3 3 3
v -3 5 3
v -3 6 3
v 1 3 3
v 1 5 3
v 2 3 3
v 2 5 3
v 3 3 3
v 3 5 3
v 3 6 3
v -2 2 2
v -2 3 2
v 1 3 2
v 2 2 2
v 2 3 2
v -3 2 1
v -3 3 1
v -2 1 1
v -2 2 1
v -2 3 1
v 0 0 1
v 0 1 1
v 1 0 1
v 1 1 1
v 2 1 1
v 2 2 1
v 2 3 1
v 3 2 1
v 3 3 1
v -2 1 -1
v -2 2 -1
v 0 0 -1
v 0 1 -1
v 0 2 -1
v 1 0 -1
v 1 1 -1
v 1 2 -1
v 2 1 -1
v 2 2 -1
v -3 2 -2
v -3 3 -2
v -2 3 -2
v -1 3 -2
v 0 1 -2
v 0 2 -2
v 1 1 -2
v 1 2 -2
v 3 2 -2
v 3 3 -2
v -3 3 -3
v -3 5 -3
v -3 6 -3
v -2 3 -3
v -2 5 -3
v -1 3 -3
v -1 5 -3
v 3 3 -3
v 3 5 -3
v 3 6 -3
v 0 0 1
v 1 0 1
v 0 0 -1
v 1 0 -1
v -2 1 1
v 0 1 1
v 1 1 1
v 2 1 1
v -2 1 -1
v 0 1 -1
v 1 1 -1
v 2 1 -1
v 0 1 -2
v 1 1 -2
v -2 2 2
v 2 2 2
v -3 2 1
v -2 2 1
v 2 2 1
v 3 2 1
v -2 2 -1
v 0 2 -1
v 1 2 -1
v 2 2 -1
v -3 2 -2
v 0 2 -2
v 1 2 -2
v 3 2 -2
v -3 3 3
v 1 3 3
v 2 3 3
v 3 3 3
v -3 3 2
v -2 3 2
v 1 3 2
v 2 3 2
v -3 3 1
v -2 3 1
v 2 3 1
v 3 3 1
v -3 3 -2
v -2 3 -2
v -1 3 -2
v 3 3 -2
v -3 3 -3
v -2 3 -3
v -1 3 -3
v 3 3 -3
v -3 6 3
v 3 6 3
v 0 6 1
v 1 6 1
v -2 6 -0
v -1 6 -0
v 0 6 -0
v 1 6 -0
v -2 6 -1
v -1 6 -1
v -3 6 -3
v 3 6 -3

# faces
f 5/4/1 2/4/1 1/4/1
f 6/4/1 2/4/1 5/4/1
f 8/2/1 4/2/1 3/2/1
f 9/4/1 5/4/1 4/4/1
f 9/2/1 4/2/1 8/2/1
f 10/2/1 7/2/1 6/2/1
f 10/4/1 5/4/1 9/4/1
f 10/2/1 6/2/1 5/2/1
f 11/2/1 7/2/1 10/2/1
f 12/1/1 9/1/1 8/1/1
f 12/1/1 10/1/1 9/1/1
f 12/1/1 11/1/1 10/1/1
f 13/1/1 11/1/1 12/1/1
f 17/2/1 15/2/1 14/2/1
f 18/2/1 15/2/1 17/2/1
f 19/4/1 17/4/1 16/4/1
f 20/4/1 17/4/1 19/4/1
f 23/2/1 22/2/1 21/2/1
f 24/2/1 22/2/1 23/2/1
f 26/2/1 25/2/1 24/2/1
f 27/2/1 25/2/1 26/2/1
f 28/2/2 29/2/2 30/2/2
f 30/2/2 29/2/2 31/2/2
f 31/2/2 32/2/2 33/2/2
f 33/2/2 32/2/2 34/2/2
f 35/2/2 36/2/2 38/2/2
f 38/2/2 36/2/2 39/2/2
f 37/4/2 38/4/2 40/4/2
f 40/4/2 38/4/2 41/4/2
f 42/4/2 43/4/2 45/4/2
f 45/4/2 43/4/2 46/4/2
f 46/4/2 43/4/2 47/4/2
f 44/3/2 45/3/2 49/3/2
f 45/3/2 46/3/2 49/3/2
f 46/4/2 47/4/2 50/4/2
f 49/3/2 46/3/2 50/3/2
f 47/2/2 48/2/2 51/2/2
f 50/4/2 47/4/2 51/4/2
f 51/2/2 48/2/2 52/2/2
f 49/1/2 50/1/2 53/1/2
f 50/1/2 51/1/2 53/1/2
f 51/1/2 52/1/2 53/1/2
f 53/1/2 52/1/2 54/1/2
f 58/2/3 56/2/3 55/2/3
f 59/1/3 57/1/3 56/1/3
f 59/2/3 56/2/3 58/2/3
f 60/4/3 59/4/3 58/4/3
f 61/1/3 57/1/3 59/1/3
f 61/4/3 59/4/3 60/4/3
f 62/3/3 61/3/3 60/3/3
f 63/1/3 57/1/3 61/1/3
f 63/3/3 61/3/3 62/3/3
f 64/1/3 57/1/3 63/1/3
f 67/4/3 66/4/3 65/4/3
f 68/4/3 67/4/3 65/4/3
f 69/4/3 67/4/3 68/4/3
f 73/4/3 71/4/3 70/4/3
f 74/4/3 71/4/3 73/4/3
f 76/2/3 73/2/3 72/2/3
f 77/2/3 76/2/3 75/2/3
f 78/2/3 73/2/3 76/2/3
f 78/2/3 76/2/3 77/2/3
f 79/2/3 73/2/3 78/2/3
f 80/2/3 73/2/3 79/2/3
f 82/4/3 81/4/3 80/4/3
f 83/4/3 81/4/3 82/4/3
f 84/2/4 85/2/4 87/2/4
f 87/2/4 85/2/4 88/2/4
f 86/2/4 87/2/4 89/2/4
f 89/2/4 87/2/4 90/2/4
f 90/2/4 91/2/4 92/2/4
f 92/2/4 91/2/4 93/2/4
f 94/4/4 95/4/4 96/4/4
f 94/4/4 96/4/4 97/4/4
f 94/4/4 97/4/4 99/4/4
f 98/2/4 99/2/4 100/2/4
f 99/4/4 97/4/4 101/4/4
f 100/2/4 99/2/4 101/2/4
f 101/4/4 97/4/4 102/4/4
f 102/4/4 97/4/4 103/4/4
f 104/2/4 105/2/4 107/2/4
f 105/1/4 106/1/4 108/1/4
f 107/2/4 105/2/4 108/2/4
f 107/4/4 108/4/4 109/4/4
f 108/1/4 106/1/4 110/1/4
f 109/4/4 108/4/4 110/4/4
f 109/2/4 110/2/4 111/2/4
f 110/1/4 106/1/4 112/1/4
f 111/2/4 110/2/4 112/2/4
f 112/1/4 106/1/4 113/1/4
f 116/2/5 115/2/5 114/2/5
f 117/2/5 115/2/5 116/2/5
f 122/2/5 119/2/5 118/2/5
f 123/2/5 119/2/5 122/2/5
f 124/2/5 121/2/5 120/2/5
f 125/2/5 121/2/5 124/2/5
f 126/2/5 124/2/5 123/2/5
f 127/2/5 124/2/5 126/2/5
f 131/4/5 129/4/5 128/4/5
f 132/4/5 129/4/5 131/4/5
f 134/4/5 131/4/5 130/4/5
f 137/4/5 133/4/5 132/4/5
f 138/4/5 135/4/5 134/4/5
f 138/4/5 134/4/5 130/4/5
f 139/4/5 135/4/5 138/4/5
f 140/4/5 137/4/5 136/4/5
f 141/4/5 133/4/5 137/4/5
f 141/4/5 137/4/5 140/4/5
f 146/2/5 143/2/5 142/2/5
f 147/2/5 143/2/5 146/2/5
f 148/4/5 144/4/5 143/4/5
f 148/2/5 143/2/5 147/2/5
f 149/3/5 145/3/5 144/3/5
f 149/4/5 144/4/5 148/4/5
f 150/4/5 147/4/5 146/4/5
f 151/4/5 147/4/5 150/4/5
f 152/3/5 145/3/5 149/3/5
f 153/3/5 145/3/5 152/3/5
f 158/2/5 155/2/5 154/2/5
f 159/4/5 156/4/5 155/4/5
f 159/2/5 155/2/5 158/2/5
f 160/2/5 157/2/5 156/2/5
f 160/4/5 156/4/5 159/4/5
f 161/2/5 157/2/5 160/2/5
f 162/1/6 163/1/6 164/1/6
f 164/1/6 163/1/6 165/1/6
f 162/1/6 164/1/6 166/1/6
f 166/1/6 164/1/6 167/1/6
f 164/3/6 165/3/6 168/3/6
f 167/1/6 164/1/6 168/1/6
f 165/1/6 163/1/6 169/1/6
f 168/3/6 165/3/6 169/3/6
f 166/3/6 167/3/6 170/3/6
f 162/1/6 166/1/6 170/1/6
f 167/1/6 168/1/6 171/1/6
f 170/3/6 167/3/6 171/3/6
f 168/1/6 169/1/6 171/1/6
f 162/1/6 170/1/6 172/1/6
f 170/1/6 171/1/6 172/1/6
f 171/1/6 169/1/6 173/1/6
f 172/1/6 171/1/6 173/1/6
f 169/1/6 163/1/6 173/1/6
