# MagicaVoxel @ Ephtracy

# material
mtllib GroundBlock_type2_04.mtl
usemtl palette

# normals
vn -1 0 0
vn 1 0 0
vn 0 0 1
vn 0 0 -1
vn 0 -1 0
vn 0 1 0

# texcoords
vt 0.458984 0.5
vt 0.466797 0.5
vt 0.509766 0.5

# verts
v -3 0 3
v -3 0 -3
v -3 1 -2
v -3 1 -3
v -3 2 1
v -3 2 -0
v -3 2 -2
v -3 2 -3
v -3 3 3
v -3 3 2
v -3 3 1
v -3 3 -0
v -3 3 -1
v -3 3 -2
v -3 4 3
v -3 4 2
v -3 4 1
v -3 4 -0
v -3 4 -1
v -3 4 -2
v -3 5 -0
v -3 5 -1
v -3 6 3
v -3 6 -0
v -3 6 -1
v -3 6 -3
v 3 0 3
v 3 0 -3
v 3 1 -2
v 3 1 -3
v 3 2 -0
v 3 2 -1
v 3 2 -2
v 3 2 -3
v 3 3 1
v 3 3 -0
v 3 3 -1
v 3 4 1
v 3 4 -0
v 3 4 -1
v 3 5 -0
v 3 5 -1
v 3 6 3
v 3 6 -3
v -3 0 3
v -3 3 3
v -3 4 3
v -3 6 3
v -2 3 3
v -2 4 3
v -1 3 3
v -1 4 3
v 3 0 3
v 3 6 3
v -3 0 -3
v -3 1 -3
v -3 2 -3
v -3 6 -3
v -2 1 -3
v -2 2 -3
v 2 1 -3
v 2 2 -3
v 3 0 -3
v 3 1 -3
v 3 2 -3
v 3 6 -3
v -3 0 3
v 3 0 3
v 0 0 -1
v 1 0 -1
v 0 0 -2
v 1 0 -2
v -3 0 -3
v 3 0 -3
v -3 6 3
v 3 6 3
v -1 6 1
v 0 6 1
v 1 6 1
v 2 6 1
v -3 6 -0
v -2 6 -0
v -1 6 -0
v 0 6 -0
v 1 6 -0
v 2 6 -0
v -3 6 -1
v -2 6 -1
v 0 6 -1
v 1 6 -1
v -3 6 -3
v 3 6 -3

# faces
f 3/1/1 2/1/1 1/1/1
f 4/1/1 2/1/1 3/1/1
f 5/1/1 3/1/1 1/1/1
f 6/1/1 3/1/1 5/1/1
f 7/2/1 4/2/1 3/2/1
f 7/1/1 3/1/1 6/1/1
f 8/2/1 4/2/1 7/2/1
f 9/1/1 5/1/1 1/1/1
f 10/1/1 5/1/1 9/1/1
f 11/3/1 6/3/1 5/3/1
f 11/1/1 5/1/1 10/1/1
f 12/1/1 7/1/1 6/1/1
f 12/3/1 6/3/1 11/3/1
f 12/1/1 8/1/1 7/1/1
f 13/1/1 8/1/1 12/1/1
f 14/1/1 8/1/1 13/1/1
f 15/3/1 10/3/1 9/3/1
f 16/1/1 11/1/1 10/1/1
f 16/3/1 10/3/1 15/3/1
f 17/2/1 12/2/1 11/2/1
f 17/1/1 11/1/1 16/1/1
f 18/1/1 13/1/1 12/1/1
f 18/2/1 12/2/1 17/2/1
f 19/3/1 14/3/1 13/3/1
f 19/1/1 13/1/1 18/1/1
f 20/1/1 8/1/1 14/1/1
f 20/3/1 14/3/1 19/3/1
f 21/1/1 19/1/1 18/1/1
f 21/1/1 16/1/1 15/1/1
f 21/1/1 20/1/1 19/1/1
f 21/1/1 18/1/1 17/1/1
f 21/1/1 17/1/1 16/1/1
f 22/1/1 20/1/1 21/1/1
f 23/1/1 21/1/1 15/1/1
f 24/2/1 22/2/1 21/2/1
f 24/1/1 21/1/1 23/1/1
f 25/1/1 20/1/1 22/1/1
f 25/2/1 22/2/1 24/2/1
f 26/1/1 8/1/1 20/1/1
f 26/1/1 20/1/1 25/1/1
f 27/1/2 28/1/2 29/1/2
f 29/1/2 28/1/2 30/1/2
f 27/1/2 29/1/2 31/1/2
f 31/1/2 29/1/2 32/1/2
f 29/3/2 30/3/2 33/3/2
f 32/1/2 29/1/2 33/1/2
f 33/3/2 30/3/2 34/3/2
f 27/1/2 31/1/2 35/1/2
f 31/2/2 32/2/2 36/2/2
f 35/1/2 31/1/2 36/1/2
f 32/1/2 33/1/2 37/1/2
f 36/2/2 32/2/2 37/2/2
f 33/1/2 34/1/2 37/1/2
f 27/1/2 35/1/2 38/1/2
f 35/3/2 36/3/2 38/3/2
f 36/1/2 37/1/2 39/1/2
f 38/3/2 36/3/2 39/3/2
f 37/1/2 34/1/2 40/1/2
f 39/1/2 37/1/2 40/1/2
f 38/1/2 39/1/2 41/1/2
f 39/2/2 40/2/2 41/2/2
f 40/1/2 34/1/2 42/1/2
f 41/2/2 40/2/2 42/2/2
f 38/1/2 41/1/2 43/1/2
f 27/1/2 38/1/2 43/1/2
f 41/1/2 42/1/2 43/1/2
f 42/1/2 34/1/2 44/1/2
f 43/1/2 42/1/2 44/1/2
f 49/1/3 46/1/3 45/1/3
f 49/3/3 47/3/3 46/3/3
f 50/1/3 48/1/3 47/1/3
f 50/3/3 47/3/3 49/3/3
f 51/1/3 49/1/3 45/1/3
f 51/2/3 50/2/3 49/2/3
f 52/1/3 48/1/3 50/1/3
f 52/2/3 50/2/3 51/2/3
f 53/1/3 51/1/3 45/1/3
f 53/1/3 52/1/3 51/1/3
f 54/1/3 48/1/3 52/1/3
f 54/1/3 52/1/3 53/1/3
f 55/1/4 56/1/4 59/1/4
f 56/2/4 57/2/4 59/2/4
f 57/1/4 58/1/4 60/1/4
f 59/2/4 57/2/4 60/2/4
f 55/1/4 59/1/4 61/1/4
f 59/1/4 60/1/4 61/1/4
f 60/1/4 58/1/4 62/1/4
f 61/1/4 60/1/4 62/1/4
f 55/1/4 61/1/4 63/1/4
f 61/3/4 62/3/4 64/3/4
f 63/1/4 61/1/4 64/1/4
f 62/1/4 58/1/4 65/1/4
f 64/3/4 62/3/4 65/3/4
f 65/1/4 58/1/4 66/1/4
f 69/1/5 68/1/5 67/1/5
f 70/1/5 68/1/5 69/1/5
f 71/1/5 69/1/5 67/1/5
f 71/3/5 70/3/5 69/3/5
f 72/1/5 68/1/5 70/1/5
f 72/3/5 70/3/5 71/3/5
f 73/1/5 71/1/5 67/1/5
f 73/1/5 72/1/5 71/1/5
f 74/1/5 68/1/5 72/1/5
f 74/1/5 72/1/5 73/1/5
f 75/1/6 76/1/6 77/1/6
f 77/1/6 76/1/6 78/1/6
f 78/1/6 76/1/6 79/1/6
f 79/1/6 76/1/6 80/1/6
f 75/1/6 77/1/6 81/1/6
f 81/1/6 77/1/6 82/1/6
f 77/3/6 78/3/6 83/3/6
f 82/1/6 77/1/6 83/1/6
f 78/1/6 79/1/6 84/1/6
f 83/3/6 78/3/6 84/3/6
f 79/3/6 80/3/6 85/3/6
f 84/1/6 79/1/6 85/1/6
f 80/1/6 76/1/6 86/1/6
f 85/3/6 80/3/6 86/3/6
f 81/2/6 82/2/6 87/2/6
f 82/1/6 83/1/6 88/1/6
f 87/2/6 82/2/6 88/2/6
f 83/1/6 84/1/6 88/1/6
f 84/3/6 85/3/6 89/3/6
f 88/1/6 84/1/6 89/1/6
f 85/1/6 86/1/6 90/1/6
f 89/3/6 85/3/6 90/3/6
f 87/1/6 88/1/6 91/1/6
f 88/1/6 89/1/6 91/1/6
f 89/1/6 90/1/6 91/1/6
f 90/1/6 86/1/6 92/1/6
f 91/1/6 90/1/6 92/1/6
f 86/1/6 76/1/6 92/1/6
