# MagicaVoxel @ Ephtracy

# material
mtllib GroundBlock_type3_02.mtl
usemtl palette

# normals
vn -1 0 0
vn 1 0 0
vn 0 0 1
vn 0 0 -1
vn 0 -1 0
vn 0 1 0

# texcoords
vt 0.869141 0.5
vt 0.900391 0.5
vt 0.982422 0.5
vt 0.990234 0.5

# verts
v -3 0 3
v -3 0 -1
v -3 0 -2
v -3 0 -3
v -3 2 3
v -3 2 -1
v -3 2 -2
v -3 2 -3
v -3 3 3
v -3 3 2
v -3 3 1
v -3 3 -3
v -3 5 3
v -3 5 2
v -3 5 1
v -3 5 -3
v -3 6 3
v -3 6 -3
v 3 0 3
v 3 0 2
v 3 0 1
v 3 0 -3
v 3 2 3
v 3 2 2
v 3 2 1
v 3 2 -3
v 3 3 3
v 3 3 -1
v 3 3 -2
v 3 3 -3
v 3 5 3
v 3 5 -1
v 3 5 -2
v 3 5 -3
v 3 6 3
v 3 6 -3
v -3 0 3
v -3 2 3
v -3 3 3
v -3 5 3
v -3 6 3
v -2 0 3
v -2 2 3
v -1 0 3
v -1 2 3
v 1 3 3
v 1 5 3
v 2 3 3
v 2 5 3
v 3 0 3
v 3 2 3
v 3 3 3
v 3 5 3
v 3 6 3
v -3 0 -3
v -3 2 -3
v -3 3 -3
v -3 5 -3
v -3 6 -3
v -2 3 -3
v -2 5 -3
v -1 3 -3
v -1 5 -3
v 1 0 -3
v 1 2 -3
v 2 0 -3
v 2 2 -3
v 3 0 -3
v 3 2 -3
v 3 3 -3
v 3 5 -3
v 3 6 -3
v -3 0 3
v -2 0 3
v -1 0 3
v 3 0 3
v -1 0 2
v 3 0 2
v -1 0 1
v 1 0 1
v 2 0 1
v 3 0 1
v -3 0 -1
v -2 0 -1
v -1 0 -1
v 1 0 -1
v -3 0 -2
v 1 0 -2
v -3 0 -3
v 1 0 -3
v 2 0 -3
v 3 0 -3
v -3 6 3
v 3 6 3
v -1 6 1
v 0 6 1
v -1 6 -0
v 0 6 -0
v 1 6 -1
v 2 6 -1
v 1 6 -2
v 2 6 -2
v -3 6 -3
v 3 6 -3

# faces
f 5/1/1 2/1/1 1/1/1
f 6/3/1 3/3/1 2/3/1
f 6/1/1 2/1/1 5/1/1
f 7/2/1 4/2/1 3/2/1
f 7/3/1 3/3/1 6/3/1
f 8/2/1 4/2/1 7/2/1
f 9/3/1 6/3/1 5/3/1
f 9/3/1 7/3/1 6/3/1
f 9/3/1 8/3/1 7/3/1
f 10/3/1 8/3/1 9/3/1
f 11/3/1 8/3/1 10/3/1
f 12/3/1 8/3/1 11/3/1
f 13/2/1 10/2/1 9/2/1
f 14/3/1 11/3/1 10/3/1
f 14/2/1 10/2/1 13/2/1
f 15/2/1 12/2/1 11/2/1
f 15/3/1 11/3/1 14/3/1
f 16/2/1 12/2/1 15/2/1
f 17/4/1 14/4/1 13/4/1
f 17/4/1 15/4/1 14/4/1
f 17/4/1 16/4/1 15/4/1
f 18/4/1 16/4/1 17/4/1
f 19/1/2 20/1/2 23/1/2
f 20/3/2 21/3/2 24/3/2
f 23/1/2 20/1/2 24/1/2
f 21/2/2 22/2/2 25/2/2
f 24/3/2 21/3/2 25/3/2
f 25/2/2 22/2/2 26/2/2
f 23/3/2 24/3/2 27/3/2
f 24/3/2 25/3/2 27/3/2
f 25/3/2 26/3/2 27/3/2
f 27/3/2 26/3/2 28/3/2
f 28/3/2 26/3/2 29/3/2
f 29/3/2 26/3/2 30/3/2
f 27/2/2 28/2/2 31/2/2
f 28/3/2 29/3/2 32/3/2
f 31/2/2 28/2/2 32/2/2
f 29/1/2 30/1/2 33/1/2
f 32/3/2 29/3/2 33/3/2
f 33/1/2 30/1/2 34/1/2
f 31/4/2 32/4/2 35/4/2
f 32/4/2 33/4/2 35/4/2
f 33/4/2 34/4/2 35/4/2
f 35/4/2 34/4/2 36/4/2
f 42/1/3 38/1/3 37/1/3
f 43/3/3 39/3/3 38/3/3
f 43/1/3 38/1/3 42/1/3
f 44/3/3 43/3/3 42/3/3
f 45/3/3 39/3/3 43/3/3
f 45/3/3 43/3/3 44/3/3
f 46/2/3 40/2/3 39/2/3
f 46/3/3 39/3/3 45/3/3
f 47/4/3 41/4/3 40/4/3
f 47/2/3 40/2/3 46/2/3
f 48/3/3 46/3/3 45/3/3
f 48/3/3 47/3/3 46/3/3
f 49/4/3 41/4/3 47/4/3
f 49/3/3 47/3/3 48/3/3
f 50/1/3 45/1/3 44/1/3
f 51/3/3 48/3/3 45/3/3
f 51/1/3 45/1/3 50/1/3
f 52/2/3 49/2/3 48/2/3
f 52/3/3 48/3/3 51/3/3
f 53/4/3 41/4/3 49/4/3
f 53/2/3 49/2/3 52/2/3
f 54/4/3 41/4/3 53/4/3
f 56/3/4 57/3/4 60/3/4
f 57/2/4 58/2/4 60/2/4
f 58/4/4 59/4/4 61/4/4
f 60/2/4 58/2/4 61/2/4
f 56/3/4 60/3/4 62/3/4
f 60/3/4 61/3/4 62/3/4
f 61/4/4 59/4/4 63/4/4
f 62/3/4 61/3/4 63/3/4
f 55/2/4 56/2/4 64/2/4
f 56/3/4 62/3/4 65/3/4
f 64/2/4 56/2/4 65/2/4
f 64/3/4 65/3/4 66/3/4
f 65/3/4 62/3/4 67/3/4
f 66/3/4 65/3/4 67/3/4
f 66/2/4 67/2/4 68/2/4
f 67/3/4 62/3/4 69/3/4
f 68/2/4 67/2/4 69/2/4
f 62/1/4 63/1/4 70/1/4
f 69/3/4 62/3/4 70/3/4
f 63/4/4 59/4/4 71/4/4
f 70/1/4 63/1/4 71/1/4
f 71/4/4 59/4/4 72/4/4
f 77/3/5 75/3/5 74/3/5
f 77/1/5 76/1/5 75/1/5
f 78/1/5 76/1/5 77/1/5
f 79/3/5 77/3/5 74/3/5
f 79/3/5 78/3/5 77/3/5
f 80/3/5 78/3/5 79/3/5
f 81/3/5 78/3/5 80/3/5
f 82/3/5 78/3/5 81/3/5
f 83/1/5 74/1/5 73/1/5
f 84/3/5 79/3/5 74/3/5
f 84/1/5 74/1/5 83/1/5
f 85/2/5 80/2/5 79/2/5
f 85/3/5 79/3/5 84/3/5
f 86/3/5 81/3/5 80/3/5
f 86/2/5 80/2/5 85/2/5
f 87/3/5 84/3/5 83/3/5
f 87/3/5 85/3/5 84/3/5
f 87/3/5 86/3/5 85/3/5
f 88/3/5 81/3/5 86/3/5
f 88/3/5 86/3/5 87/3/5
f 89/2/5 88/2/5 87/2/5
f 90/3/5 81/3/5 88/3/5
f 90/2/5 88/2/5 89/2/5
f 91/2/5 82/2/5 81/2/5
f 91/3/5 81/3/5 90/3/5
f 92/2/5 82/2/5 91/2/5
f 93/4/6 94/4/6 95/4/6
f 95/4/6 94/4/6 96/4/6
f 93/4/6 95/4/6 97/4/6
f 95/1/6 96/1/6 97/1/6
f 96/4/6 94/4/6 98/4/6
f 97/1/6 96/1/6 98/1/6
f 97/4/6 98/4/6 99/4/6
f 98/4/6 94/4/6 99/4/6
f 99/4/6 94/4/6 100/4/6
f 97/4/6 99/4/6 101/4/6
f 99/1/6 100/1/6 101/1/6
f 100/4/6 94/4/6 102/4/6
f 101/1/6 100/1/6 102/1/6
f 93/4/6 97/4/6 103/4/6
f 97/4/6 101/4/6 103/4/6
f 101/4/6 102/4/6 103/4/6
f 102/4/6 94/4/6 104/4/6
f 103/4/6 102/4/6 104/4/6
