# MagicaVoxel @ Ephtracy

# material
mtllib GroundBlock_type2_06.mtl
usemtl palette

# normals
vn -1 0 0
vn 1 0 0
vn 0 0 1
vn 0 0 -1
vn 0 -1 0
vn 0 1 0

# texcoords
vt 0.458984 0.5
vt 0.466797 0.5
vt 0.509766 0.5

# verts
v -3 0 3
v -3 0 -3
v -3 2 2
v -3 2 1
v -3 2 -0
v -3 3 2
v -3 3 1
v -3 3 -0
v -3 3 -1
v -3 3 -2
v -3 4 2
v -3 4 1
v -3 4 -1
v -3 4 -2
v -3 5 2
v -3 5 1
v -3 5 -1
v -3 5 -2
v -3 6 3
v -3 6 -1
v -3 6 -2
v -3 6 -3
v 3 0 3
v 3 0 -3
v 3 2 -1
v 3 2 -2
v 3 3 2
v 3 3 1
v 3 3 -1
v 3 3 -2
v 3 4 2
v 3 4 1
v 3 4 -0
v 3 4 -1
v 3 4 -2
v 3 5 1
v 3 5 -0
v 3 6 3
v 3 6 -3
v -3 0 3
v -3 6 3
v -1 1 3
v -1 2 3
v -1 4 3
v -1 5 3
v 0 1 3
v 0 2 3
v 0 4 3
v 0 5 3
v 3 0 3
v 3 6 3
v -3 0 -3
v -3 6 -3
v -1 2 -3
v -1 3 -3
v -1 5 -3
v -1 6 -3
v 0 2 -3
v 0 3 -3
v 0 4 -3
v 0 5 -3
v 0 6 -3
v 1 3 -3
v 1 4 -3
v 3 0 -3
v 3 6 -3
v -3 0 3
v 3 0 3
v 0 0 2
v 1 0 2
v -2 0 1
v -1 0 1
v 0 0 1
v 1 0 1
v -2 0 -1
v -1 0 -1
v 1 0 -1
v 2 0 -1
v 1 0 -2
v 2 0 -2
v -3 0 -3
v 3 0 -3
v -3 6 3
v 3 6 3
v 1 6 1
v 2 6 1
v 1 6 -0
v 2 6 -0
v -3 6 -1
v -2 6 -1
v -1 6 -1
v -3 6 -2
v -2 6 -2
v -1 6 -2
v 0 6 -2
v -3 6 -3
v -1 6 -3
v 0 6 -3
v 3 6 -3

# faces
f 3/1/1 2/1/1 1/1/1
f 4/1/1 2/1/1 3/1/1
f 5/1/1 2/1/1 4/1/1
f 6/1/1 3/1/1 1/1/1
f 6/3/1 4/3/1 3/3/1
f 7/2/1 5/2/1 4/2/1
f 7/3/1 4/3/1 6/3/1
f 8/1/1 2/1/1 5/1/1
f 8/2/1 5/2/1 7/2/1
f 9/1/1 2/1/1 8/1/1
f 10/1/1 2/1/1 9/1/1
f 11/1/1 7/1/1 6/1/1
f 11/1/1 6/1/1 1/1/1
f 11/1/1 8/1/1 7/1/1
f 11/1/1 9/1/1 8/1/1
f 12/1/1 9/1/1 11/1/1
f 13/3/1 10/3/1 9/3/1
f 13/1/1 9/1/1 12/1/1
f 14/1/1 2/1/1 10/1/1
f 14/3/1 10/3/1 13/3/1
f 15/2/1 12/2/1 11/2/1
f 15/1/1 11/1/1 1/1/1
f 16/1/1 13/1/1 12/1/1
f 16/2/1 12/2/1 15/2/1
f 16/1/1 14/1/1 13/1/1
f 17/1/1 14/1/1 16/1/1
f 18/1/1 2/1/1 14/1/1
f 18/1/1 14/1/1 17/1/1
f 19/1/1 15/1/1 1/1/1
f 19/1/1 17/1/1 16/1/1
f 19/1/1 16/1/1 15/1/1
f 20/2/1 18/2/1 17/2/1
f 20/1/1 17/1/1 19/1/1
f 21/1/1 2/1/1 18/1/1
f 21/2/1 18/2/1 20/2/1
f 22/1/1 2/1/1 21/1/1
f 23/1/2 24/1/2 25/1/2
f 25/1/2 24/1/2 26/1/2
f 23/1/2 25/1/2 27/1/2
f 27/1/2 25/1/2 28/1/2
f 25/2/2 26/2/2 29/2/2
f 28/1/2 25/1/2 29/1/2
f 26/1/2 24/1/2 30/1/2
f 29/2/2 26/2/2 30/2/2
f 27/3/2 28/3/2 31/3/2
f 23/1/2 27/1/2 31/1/2
f 28/1/2 29/1/2 32/1/2
f 31/3/2 28/3/2 32/3/2
f 32/1/2 29/1/2 33/1/2
f 29/3/2 30/3/2 34/3/2
f 33/1/2 29/1/2 34/1/2
f 30/1/2 24/1/2 35/1/2
f 34/3/2 30/3/2 35/3/2
f 32/2/2 33/2/2 36/2/2
f 31/1/2 32/1/2 36/1/2
f 33/1/2 34/1/2 37/1/2
f 36/2/2 33/2/2 37/2/2
f 34/1/2 35/1/2 37/1/2
f 23/1/2 31/1/2 38/1/2
f 31/1/2 36/1/2 38/1/2
f 36/1/2 37/1/2 38/1/2
f 37/1/2 35/1/2 39/1/2
f 38/1/2 37/1/2 39/1/2
f 35/1/2 24/1/2 39/1/2
f 42/1/3 41/1/3 40/1/3
f 43/1/3 41/1/3 42/1/3
f 44/1/3 41/1/3 43/1/3
f 45/1/3 41/1/3 44/1/3
f 46/1/3 42/1/3 40/1/3
f 46/3/3 43/3/3 42/3/3
f 47/1/3 44/1/3 43/1/3
f 47/3/3 43/3/3 46/3/3
f 48/3/3 45/3/3 44/3/3
f 48/1/3 44/1/3 47/1/3
f 49/1/3 41/1/3 45/1/3
f 49/3/3 45/3/3 48/3/3
f 50/1/3 48/1/3 47/1/3
f 50/1/3 47/1/3 46/1/3
f 50/1/3 49/1/3 48/1/3
f 50/1/3 46/1/3 40/1/3
f 51/1/3 41/1/3 49/1/3
f 51/1/3 49/1/3 50/1/3
f 52/1/4 53/1/4 54/1/4
f 54/1/4 53/1/4 55/1/4
f 55/1/4 53/1/4 56/1/4
f 56/1/4 53/1/4 57/1/4
f 52/1/4 54/1/4 58/1/4
f 54/3/4 55/3/4 58/3/4
f 55/1/4 56/1/4 59/1/4
f 58/3/4 55/3/4 59/3/4
f 59/1/4 56/1/4 60/1/4
f 56/2/4 57/2/4 61/2/4
f 60/1/4 56/1/4 61/1/4
f 61/2/4 57/2/4 62/2/4
f 59/3/4 60/3/4 63/3/4
f 58/1/4 59/1/4 63/1/4
f 61/1/4 62/1/4 64/1/4
f 63/3/4 60/3/4 64/3/4
f 60/1/4 61/1/4 64/1/4
f 52/1/4 58/1/4 65/1/4
f 58/1/4 63/1/4 65/1/4
f 63/1/4 64/1/4 65/1/4
f 64/1/4 62/1/4 66/1/4
f 65/1/4 64/1/4 66/1/4
f 69/1/5 68/1/5 67/1/5
f 70/1/5 68/1/5 69/1/5
f 71/1/5 69/1/5 67/1/5
f 72/1/5 69/1/5 71/1/5
f 73/3/5 70/3/5 69/3/5
f 73/1/5 69/1/5 72/1/5
f 74/1/5 68/1/5 70/1/5
f 74/3/5 70/3/5 73/3/5
f 75/3/5 72/3/5 71/3/5
f 75/1/5 71/1/5 67/1/5
f 76/1/5 73/1/5 72/1/5
f 76/3/5 72/3/5 75/3/5
f 76/1/5 74/1/5 73/1/5
f 77/1/5 68/1/5 74/1/5
f 77/1/5 74/1/5 76/1/5
f 78/1/5 68/1/5 77/1/5
f 79/1/5 76/1/5 75/1/5
f 79/1/5 77/1/5 76/1/5
f 79/3/5 78/3/5 77/3/5
f 80/1/5 68/1/5 78/1/5
f 80/3/5 78/3/5 79/3/5
f 81/1/5 75/1/5 67/1/5
f 81/1/5 79/1/5 75/1/5
f 81/1/5 80/1/5 79/1/5
f 82/1/5 68/1/5 80/1/5
f 82/1/5 80/1/5 81/1/5
f 83/1/6 84/1/6 85/1/6
f 85/1/6 84/1/6 86/1/6
f 83/1/6 85/1/6 87/1/6
f 85/3/6 86/3/6 87/3/6
f 86/1/6 84/1/6 88/1/6
f 87/3/6 86/3/6 88/3/6
f 83/1/6 87/1/6 89/1/6
f 87/1/6 88/1/6 89/1/6
f 89/1/6 88/1/6 90/1/6
f 90/1/6 88/1/6 91/1/6
f 89/2/6 90/2/6 92/2/6
f 90/3/6 91/3/6 93/3/6
f 92/2/6 90/2/6 93/2/6
f 91/1/6 88/1/6 94/1/6
f 93/3/6 91/3/6 94/3/6
f 94/1/6 88/1/6 95/1/6
f 92/1/6 93/1/6 96/1/6
f 93/1/6 94/1/6 96/1/6
f 94/2/6 95/2/6 97/2/6
f 96/1/6 94/1/6 97/1/6
f 95/1/6 88/1/6 98/1/6
f 97/2/6 95/2/6 98/2/6
f 88/1/6 84/1/6 99/1/6
f 98/1/6 88/1/6 99/1/6
