# MagicaVoxel @ Ephtracy

# material
mtllib GroundBlock_type4_12.mtl
usemtl palette

# normals
vn -1 0 0
vn 1 0 0
vn 0 0 1
vn 0 0 -1
vn 0 -1 0
vn 0 1 0

# texcoords
vt 0.197266 0.5
vt 0.201172 0.5
vt 0.205078 0.5
vt 0.982422 0.5

# verts
v -3 0 3
v -3 0 -1
v -3 0 -2
v -3 0 -3
v -3 1 -1
v -3 1 -2
v -3 1 -3
v -3 2 3
v -3 2 -0
v -3 2 -1
v -3 2 -2
v -3 3 3
v -3 3 1
v -3 3 -0
v -3 3 -1
v -3 4 2
v -3 4 1
v -3 4 -0
v -3 5 3
v -3 5 2
v -3 5 1
v -3 6 3
v -3 6 2
v 3 0 3
v 3 0 2
v 3 0 1
v 3 0 -2
v 3 0 -3
v 3 1 -1
v 3 1 -2
v 3 1 -3
v 3 2 3
v 3 2 2
v 3 2 1
v 3 2 -0
v 3 2 -1
v 3 2 -2
v 3 3 3
v 3 3 1
v 3 3 -0
v 3 3 -1
v 3 4 2
v 3 4 1
v 3 4 -0
v 3 5 3
v 3 5 2
v 3 5 1
v 3 6 3
v 3 6 2
v -3 0 3
v -3 2 3
v -3 3 3
v -3 5 3
v -3 6 3
v -2 0 3
v -2 2 3
v -2 5 3
v -2 6 3
v -1 0 3
v -1 2 3
v 1 3 3
v 1 5 3
v 2 3 3
v 2 5 3
v 2 6 3
v 3 0 3
v 3 2 3
v 3 3 3
v 3 5 3
v 3 6 3
v -3 5 2
v -3 6 2
v -2 5 2
v -2 6 2
v 2 5 2
v 2 6 2
v 3 5 2
v 3 6 2
v -3 4 1
v -3 5 1
v -2 4 1
v -2 5 1
v 2 4 1
v 2 5 1
v 3 4 1
v 3 5 1
v -3 3 -0
v -3 4 -0
v -2 3 -0
v -2 4 -0
v 2 3 -0
v 2 4 -0
v 3 3 -0
v 3 4 -0
v -3 2 -1
v -3 3 -1
v -2 2 -1
v -2 3 -1
v 2 2 -1
v 2 3 -1
v 3 2 -1
v 3 3 -1
v -3 1 -2
v -3 2 -2
v -2 1 -2
v -2 2 -2
v 2 1 -2
v 2 2 -2
v 3 1 -2
v 3 2 -2
v -3 0 -3
v -3 1 -3
v -2 0 -3
v -2 1 -3
v 2 0 -3
v 2 1 -3
v 3 0 -3
v 3 1 -3
v -3 0 3
v -2 0 3
v -1 0 3
v 3 0 3
v -2 0 2
v -1 0 2
v 2 0 2
v 3 0 2
v 2 0 1
v 3 0 1
v -3 0 -1
v -2 0 -1
v -3 0 -2
v -2 0 -2
v 2 0 -2
v 3 0 -2
v -3 0 -3
v -2 0 -3
v 2 0 -3
v 3 0 -3
v -3 1 -2
v -2 1 -2
v 2 1 -2
v 3 1 -2
v -3 1 -3
v -2 1 -3
v 2 1 -3
v 3 1 -3
v -3 2 -1
v -2 2 -1
v 2 2 -1
v 3 2 -1
v -3 2 -2
v -2 2 -2
v 2 2 -2
v 3 2 -2
v -3 3 -0
v -2 3 -0
v 2 3 -0
v 3 3 -0
v -3 3 -1
v -2 3 -1
v 2 3 -1
v 3 3 -1
v -3 4 1
v -2 4 1
v 2 4 1
v 3 4 1
v -3 4 -0
v -2 4 -0
v 2 4 -0
v 3 4 -0
v -3 5 2
v -2 5 2
v 2 5 2
v 3 5 2
v -3 5 1
v -2 5 1
v 2 5 1
v 3 5 1
v -3 6 3
v -2 6 3
v 2 6 3
v 3 6 3
v -3 6 2
v -2 6 2
v 2 6 2
v 3 6 2

# faces
f 5/3/1 2/3/1 1/3/1
f 5/4/1 3/4/1 2/4/1
f 6/1/1 4/1/1 3/1/1
f 6/4/1 3/4/1 5/4/1
f 7/1/1 4/1/1 6/1/1
f 8/3/1 5/3/1 1/3/1
f 9/3/1 5/3/1 8/3/1
f 10/1/1 6/1/1 5/1/1
f 10/3/1 5/3/1 9/3/1
f 11/1/1 6/1/1 10/1/1
f 12/4/1 9/4/1 8/4/1
f 13/4/1 9/4/1 12/4/1
f 14/1/1 10/1/1 9/1/1
f 14/4/1 9/4/1 13/4/1
f 15/1/1 10/1/1 14/1/1
f 16/3/1 13/3/1 12/3/1
f 17/1/1 14/1/1 13/1/1
f 17/3/1 13/3/1 16/3/1
f 18/1/1 14/1/1 17/1/1
f 19/3/1 16/3/1 12/3/1
f 20/1/1 17/1/1 16/1/1
f 20/3/1 16/3/1 19/3/1
f 21/1/1 17/1/1 20/1/1
f 22/1/1 20/1/1 19/1/1
f 23/1/1 20/1/1 22/1/1
f 26/2/2 27/2/2 29/2/2
f 27/1/2 28/1/2 30/1/2
f 29/2/2 27/2/2 30/2/2
f 30/1/2 28/1/2 31/1/2
f 24/2/2 25/2/2 32/2/2
f 25/4/2 26/4/2 33/4/2
f 32/2/2 25/2/2 33/2/2
f 26/2/2 29/2/2 34/2/2
f 33/4/2 26/4/2 34/4/2
f 34/2/2 29/2/2 35/2/2
f 29/1/2 30/1/2 36/1/2
f 35/2/2 29/2/2 36/2/2
f 36/1/2 30/1/2 37/1/2
f 32/4/2 33/4/2 38/4/2
f 34/4/2 35/4/2 38/4/2
f 33/4/2 34/4/2 38/4/2
f 38/4/2 35/4/2 39/4/2
f 35/1/2 36/1/2 40/1/2
f 39/4/2 35/4/2 40/4/2
f 40/1/2 36/1/2 41/1/2
f 38/3/2 39/3/2 42/3/2
f 39/1/2 40/1/2 43/1/2
f 42/3/2 39/3/2 43/3/2
f 43/1/2 40/1/2 44/1/2
f 38/3/2 42/3/2 45/3/2
f 42/1/2 43/1/2 46/1/2
f 45/3/2 42/3/2 46/3/2
f 46/1/2 43/1/2 47/1/2
f 45/1/2 46/1/2 48/1/2
f 48/1/2 46/1/2 49/1/2
f 55/3/3 51/3/3 50/3/3
f 56/4/3 52/4/3 51/4/3
f 56/3/3 51/3/3 55/3/3
f 57/1/3 54/1/3 53/1/3
f 57/3/3 53/3/3 52/3/3
f 58/1/3 54/1/3 57/1/3
f 59/4/3 56/4/3 55/4/3
f 60/4/3 52/4/3 56/4/3
f 60/4/3 56/4/3 59/4/3
f 61/3/3 57/3/3 52/3/3
f 61/4/3 52/4/3 60/4/3
f 61/3/3 58/3/3 57/3/3
f 62/3/3 58/3/3 61/3/3
f 63/4/3 61/4/3 60/4/3
f 63/4/3 62/4/3 61/4/3
f 64/3/3 58/3/3 62/3/3
f 64/4/3 62/4/3 63/4/3
f 65/3/3 58/3/3 64/3/3
f 66/2/3 60/2/3 59/2/3
f 67/4/3 63/4/3 60/4/3
f 67/2/3 60/2/3 66/2/3
f 68/3/3 64/3/3 63/3/3
f 68/4/3 63/4/3 67/4/3
f 69/1/3 65/1/3 64/1/3
f 69/3/3 64/3/3 68/3/3
f 70/1/3 65/1/3 69/1/3
f 71/1/4 72/1/4 73/1/4
f 73/1/4 72/1/4 74/1/4
f 73/3/4 74/3/4 75/3/4
f 75/3/4 74/3/4 76/3/4
f 75/1/4 76/1/4 77/1/4
f 77/1/4 76/1/4 78/1/4
f 79/1/4 80/1/4 81/1/4
f 81/1/4 80/1/4 82/1/4
f 81/3/4 82/3/4 83/3/4
f 83/3/4 82/3/4 84/3/4
f 83/1/4 84/1/4 85/1/4
f 85/1/4 84/1/4 86/1/4
f 87/1/4 88/1/4 89/1/4
f 89/1/4 88/1/4 90/1/4
f 89/3/4 90/3/4 91/3/4
f 91/3/4 90/3/4 92/3/4
f 91/1/4 92/1/4 93/1/4
f 93/1/4 92/1/4 94/1/4
f 95/1/4 96/1/4 97/1/4
f 97/1/4 96/1/4 98/1/4
f 97/3/4 98/3/4 99/3/4
f 99/3/4 98/3/4 100/3/4
f 99/1/4 100/1/4 101/1/4
f 101/1/4 100/1/4 102/1/4
f 103/1/4 104/1/4 105/1/4
f 105/1/4 104/1/4 106/1/4
f 105/3/4 106/3/4 107/3/4
f 107/3/4 106/3/4 108/3/4
f 107/1/4 108/1/4 109/1/4
f 109/1/4 108/1/4 110/1/4
f 111/1/4 112/1/4 113/1/4
f 113/1/4 112/1/4 114/1/4
f 113/3/4 114/3/4 115/3/4
f 115/3/4 114/3/4 116/3/4
f 115/1/4 116/1/4 117/1/4
f 117/1/4 116/1/4 118/1/4
f 123/3/5 120/3/5 119/3/5
f 123/4/5 121/4/5 120/4/5
f 124/2/5 122/2/5 121/2/5
f 124/4/5 121/4/5 123/4/5
f 125/2/5 122/2/5 124/2/5
f 126/2/5 122/2/5 125/2/5
f 127/2/5 124/2/5 123/2/5
f 127/2/5 125/2/5 124/2/5
f 127/4/5 126/4/5 125/4/5
f 128/4/5 126/4/5 127/4/5
f 129/3/5 123/3/5 119/3/5
f 130/2/5 127/2/5 123/2/5
f 130/3/5 123/3/5 129/3/5
f 130/2/5 128/2/5 127/2/5
f 131/4/5 130/4/5 129/4/5
f 132/2/5 128/2/5 130/2/5
f 132/4/5 130/4/5 131/4/5
f 133/2/5 128/2/5 132/2/5
f 134/2/5 128/2/5 133/2/5
f 135/1/5 132/1/5 131/1/5
f 136/3/5 133/3/5 132/3/5
f 136/1/5 132/1/5 135/1/5
f 137/1/5 134/1/5 133/1/5
f 137/3/5 133/3/5 136/3/5
f 138/1/5 134/1/5 137/1/5
f 139/1/6 140/1/6 143/1/6
f 140/3/6 141/3/6 144/3/6
f 143/1/6 140/1/6 144/1/6
f 141/1/6 142/1/6 145/1/6
f 144/3/6 141/3/6 145/3/6
f 145/1/6 142/1/6 146/1/6
f 147/1/6 148/1/6 151/1/6
f 148/3/6 149/3/6 152/3/6
f 151/1/6 148/1/6 152/1/6
f 149/1/6 150/1/6 153/1/6
f 152/3/6 149/3/6 153/3/6
f 153/1/6 150/1/6 154/1/6
f 155/1/6 156/1/6 159/1/6
f 156/3/6 157/3/6 160/3/6
f 159/1/6 156/1/6 160/1/6
f 157/1/6 158/1/6 161/1/6
f 160/3/6 157/3/6 161/3/6
f 161/1/6 158/1/6 162/1/6
f 163/1/6 164/1/6 167/1/6
f 164/3/6 165/3/6 168/3/6
f 167/1/6 164/1/6 168/1/6
f 165/1/6 166/1/6 169/1/6
f 168/3/6 165/3/6 169/3/6
f 169/1/6 166/1/6 170/1/6
f 171/1/6 172/1/6 175/1/6
f 172/3/6 173/3/6 176/3/6
f 175/1/6 172/1/6 176/1/6
f 173/1/6 174/1/6 177/1/6
f 176/3/6 173/3/6 177/3/6
f 177/1/6 174/1/6 178/1/6
f 179/1/6 180/1/6 183/1/6
f 180/3/6 181/3/6 184/3/6
f 183/1/6 180/1/6 184/1/6
f 181/1/6 182/1/6 185/1/6
f 184/3/6 181/3/6 185/3/6
f 185/1/6 182/1/6 186/1/6
