# MagicaVoxel @ Ephtracy

# material
mtllib Moose_01.mtl
usemtl palette

# normals
vn -1 0 0
vn 1 0 0
vn 0 0 1
vn 0 0 -1
vn 0 -1 0
vn 0 1 0

# texcoords
vt 0.271484 0.5
vt 0.330078 0.5
vt 0.931641 0.5
vt 0.958984 0.5
vt 0.982422 0.5

# verts
v -7.5 9 1
v -7.5 9 -1
v -7.5 11 1
v -7.5 11 -1
v -4.5 11 2
v -4.5 11 1
v -4.5 11 -1
v -4.5 11 -2
v -4.5 12 2
v -4.5 12 1
v -4.5 12 -1
v -4.5 12 -2
v -3.5 7 1
v -3.5 7 -1
v -3.5 9 1
v -3.5 9 -1
v -3.5 12 5
v -3.5 12 4
v -3.5 12 2
v -3.5 12 1
v -3.5 12 -1
v -3.5 12 -2
v -3.5 12 -4
v -3.5 12 -5
v -3.5 13 5
v -3.5 13 4
v -3.5 13 2
v -3.5 13 1
v -3.5 13 -1
v -3.5 13 -2
v -3.5 13 -4
v -3.5 13 -5
v -2.5 0 2
v -2.5 0 1
v -2.5 0 -1
v -2.5 0 -2
v -2.5 1 2
v -2.5 1 1
v -2.5 1 -1
v -2.5 1 -2
v -2.5 5 1
v -2.5 5 -1
v -2.5 7 1
v -2.5 7 -1
v -2.5 8 2
v -2.5 8 1
v -2.5 8 -1
v -2.5 8 -2
v -2.5 11 3
v -2.5 11 2
v -2.5 11 -2
v -2.5 11 -3
v -2.5 12 4
v -2.5 12 3
v -2.5 12 -3
v -2.5 12 -4
v -2.5 13 5
v -2.5 13 4
v -2.5 13 3
v -2.5 13 2
v -2.5 13 -2
v -2.5 13 -3
v -2.5 13 -4
v -2.5 13 -5
v -2.5 14 5
v -2.5 14 4
v -2.5 14 -4
v -2.5 14 -5
v -2.5 15 3
v -2.5 15 2
v -2.5 15 -2
v -2.5 15 -3
v 4.5 0 2
v 4.5 0 1
v 4.5 0 -1
v 4.5 0 -2
v 4.5 1 2
v 4.5 1 1
v 4.5 1 -1
v 4.5 1 -2
v 4.5 5 2
v 4.5 5 1
v 4.5 5 -1
v 4.5 5 -2
v 6.5 5 1
v 6.5 5 -1
v 6.5 6 1
v 6.5 6 -1
v -2.5 12 2
v -2.5 12 1
v -2.5 12 -1
v -2.5 12 -2
v -2.5 13 2
v -2.5 13 1
v -2.5 13 -1
v -2.5 13 -2
v -1.5 0 2
v -1.5 0 1
v -1.5 0 -1
v -1.5 0 -2
v -1.5 1 2
v -1.5 1 1
v -1.5 1 -1
v -1.5 1 -2
v -1.5 5 2
v -1.5 5 1
v -1.5 5 -1
v -1.5 5 -2
v -1.5 10 1
v -1.5 10 -1
v -1.5 11 3
v -1.5 11 1
v -1.5 11 -1
v -1.5 11 -3
v -1.5 12 5
v -1.5 12 3
v -1.5 12 2
v -1.5 12 1
v -1.5 12 -1
v -1.5 12 -2
v -1.5 12 -3
v -1.5 12 -5
v -1.5 13 4
v -1.5 13 3
v -1.5 13 -3
v -1.5 13 -4
v -1.5 14 5
v -1.5 14 4
v -1.5 14 -4
v -1.5 14 -5
v -1.5 15 3
v -1.5 15 2
v -1.5 15 -2
v -1.5 15 -3
v -0.5 9 1
v -0.5 9 -1
v -0.5 10 1
v -0.5 10 -1
v 5.5 0 2
v 5.5 0 1
v 5.5 0 -1
v 5.5 0 -2
v 5.5 1 2
v 5.5 1 1
v 5.5 1 -1
v 5.5 1 -2
v 5.5 5 1
v 5.5 5 -1
v 5.5 6 1
v 5.5 6 -1
v 5.5 8 2
v 5.5 8 1
v 5.5 8 -1
v 5.5 8 -2
v 5.5 9 1
v 5.5 9 -1
v 6.5 7 1
v 6.5 7 -1
v 6.5 8 1
v 6.5 8 -1
v 7.5 5 1
v 7.5 5 -1
v 7.5 7 1
v 7.5 7 -1
v -3.5 12 5
v -3.5 13 5
v -2.5 13 5
v -2.5 14 5
v -1.5 12 5
v -1.5 14 5
v -2.5 11 3
v -2.5 12 3
v -2.5 13 3
v -2.5 15 3
v -1.5 11 3
v -1.5 12 3
v -1.5 13 3
v -1.5 15 3
v -4.5 11 2
v -4.5 12 2
v -3.5 11 2
v -3.5 12 2
v -3.5 13 2
v -2.5 0 2
v -2.5 1 2
v -2.5 8 2
v -2.5 11 2
v -2.5 13 2
v -1.5 0 2
v -1.5 1 2
v -1.5 5 2
v 4.5 0 2
v 4.5 1 2
v 4.5 5 2
v 5.5 0 2
v 5.5 1 2
v 5.5 8 2
v -7.5 9 1
v -7.5 11 1
v -4.5 11 1
v -3.5 7 1
v -3.5 9 1
v -3.5 11 1
v -2.5 7 1
v -2.5 8 1
v -2.5 11 1
v -1.5 10 1
v -1.5 11 1
v -0.5 9 1
v -0.5 10 1
v 5.5 6 1
v 5.5 8 1
v 5.5 9 1
v 6.5 5 1
v 6.5 6 1
v 6.5 7 1
v 6.5 8 1
v 7.5 5 1
v 7.5 7 1
v -3.5 12 -1
v -3.5 13 -1
v -2.5 0 -1
v -2.5 1 -1
v -2.5 5 -1
v -2.5 12 -1
v -2.5 13 -1
v -1.5 0 -1
v -1.5 1 -1
v -1.5 5 -1
v 4.5 0 -1
v 4.5 1 -1
v 4.5 5 -1
v 5.5 0 -1
v 5.5 1 -1
v 5.5 5 -1
v -2.5 12 -2
v -2.5 13 -2
v -2.5 15 -2
v -1.5 12 -2
v -1.5 15 -2
v -3.5 12 -4
v -3.5 13 -4
v -2.5 12 -4
v -2.5 13 -4
v -2.5 14 -4
v -1.5 13 -4
v -1.5 14 -4
v -3.5 12 4
v -3.5 13 4
v -2.5 12 4
v -2.5 13 4
v -2.5 14 4
v -1.5 13 4
v -1.5 14 4
v -2.5 12 2
v -2.5 13 2
v -2.5 15 2
v -1.5 12 2
v -1.5 15 2
v -3.5 12 1
v -3.5 13 1
v -2.5 0 1
v -2.5 1 1
v -2.5 5 1
v -2.5 12 1
v -2.5 13 1
v -1.5 0 1
v -1.5 1 1
v -1.5 5 1
v 4.5 0 1
v 4.5 1 1
v 4.5 5 1
v 5.5 0 1
v 5.5 1 1
v 5.5 5 1
v -7.5 9 -1
v -7.5 11 -1
v -4.5 11 -1
v -3.5 7 -1
v -3.5 9 -1
v -3.5 11 -1
v -2.5 7 -1
v -2.5 8 -1
v -2.5 11 -1
v -1.5 10 -1
v -1.5 11 -1
v -0.5 9 -1
v -0.5 10 -1
v 5.5 6 -1
v 5.5 8 -1
v 5.5 9 -1
v 6.5 5 -1
v 6.5 6 -1
v 6.5 7 -1
v 6.5 8 -1
v 7.5 5 -1
v 7.5 7 -1
v -4.5 11 -2
v -4.5 12 -2
v -3.5 11 -2
v -3.5 12 -2
v -3.5 13 -2
v -2.5 0 -2
v -2.5 1 -2
v -2.5 8 -2
v -2.5 11 -2
v -2.5 13 -2
v -1.5 0 -2
v -1.5 1 -2
v -1.5 5 -2
v 4.5 0 -2
v 4.5 1 -2
v 4.5 5 -2
v 5.5 0 -2
v 5.5 1 -2
v 5.5 8 -2
v -2.5 11 -3
v -2.5 12 -3
v -2.5 13 -3
v -2.5 15 -3
v -1.5 11 -3
v -1.5 12 -3
v -1.5 13 -3
v -1.5 15 -3
v -3.5 12 -5
v -3.5 13 -5
v -2.5 13 -5
v -2.5 14 -5
v -1.5 12 -5
v -1.5 14 -5
v -2.5 0 2
v -1.5 0 2
v 4.5 0 2
v 5.5 0 2
v -2.5 0 1
v -1.5 0 1
v 4.5 0 1
v 5.5 0 1
v -2.5 0 -1
v -1.5 0 -1
v 4.5 0 -1
v 5.5 0 -1
v -2.5 0 -2
v -1.5 0 -2
v 4.5 0 -2
v 5.5 0 -2
v -1.5 5 2
v 4.5 5 2
v -2.5 5 1
v -1.5 5 1
v 4.5 5 1
v 5.5 5 1
v 6.5 5 1
v 7.5 5 1
v -2.5 5 -1
v -1.5 5 -1
v 4.5 5 -1
v 5.5 5 -1
v 6.5 5 -1
v 7.5 5 -1
v -1.5 5 -2
v 4.5 5 -2
v 5.5 6 1
v 6.5 6 1
v 5.5 6 -1
v 6.5 6 -1
v -3.5 7 1
v -2.5 7 1
v -3.5 7 -1
v -2.5 7 -1
v -7.5 9 1
v -3.5 9 1
v -7.5 9 -1
v -3.5 9 -1
v -2.5 11 3
v -1.5 11 3
v -4.5 11 2
v -3.5 11 2
v -2.5 11 2
v -4.5 11 1
v -3.5 11 1
v -2.5 11 1
v -1.5 11 1
v -4.5 11 -1
v -3.5 11 -1
v -2.5 11 -1
v -1.5 11 -1
v -4.5 11 -2
v -3.5 11 -2
v -2.5 11 -2
v -2.5 11 -3
v -1.5 11 -3
v -3.5 12 5
v -1.5 12 5
v -3.5 12 4
v -2.5 12 4
v -2.5 12 3
v -1.5 12 3
v -2.5 12 -3
v -1.5 12 -3
v -3.5 12 -4
v -2.5 12 -4
v -3.5 12 -5
v -1.5 12 -5
v 6.5 7 1
v 7.5 7 1
v 6.5 7 -1
v 7.5 7 -1
v -2.5 8 2
v 5.5 8 2
v -2.5 8 1
v 5.5 8 1
v 6.5 8 1
v -2.5 8 -1
v 5.5 8 -1
v 6.5 8 -1
v -2.5 8 -2
v 5.5 8 -2
v -0.5 9 1
v 5.5 9 1
v -0.5 9 -1
v 5.5 9 -1
v -1.5 10 1
v -0.5 10 1
v -1.5 10 -1
v -0.5 10 -1
v -7.5 11 1
v -4.5 11 1
v -7.5 11 -1
v -4.5 11 -1
v -4.5 12 2
v -3.5 12 2
v -2.5 12 2
v -1.5 12 2
v -4.5 12 1
v -3.5 12 1
v -2.5 12 1
v -1.5 12 1
v -4.5 12 -1
v -3.5 12 -1
v -2.5 12 -1
v -1.5 12 -1
v -4.5 12 -2
v -3.5 12 -2
v -2.5 12 -2
v -1.5 12 -2
v -3.5 13 5
v -2.5 13 5
v -3.5 13 4
v -2.5 13 4
v -1.5 13 4
v -2.5 13 3
v -1.5 13 3
v -3.5 13 2
v -2.5 13 2
v -3.5 13 1
v -2.5 13 1
v -3.5 13 -1
v -2.5 13 -1
v -3.5 13 -2
v -2.5 13 -2
v -2.5 13 -3
v -1.5 13 -3
v -3.5 13 -4
v -2.5 13 -4
v -1.5 13 -4
v -3.5 13 -5
v -2.5 13 -5
v -2.5 14 5
v -1.5 14 5
v -2.5 14 4
v -1.5 14 4
v -2.5 14 -4
v -1.5 14 -4
v -2.5 14 -5
v -1.5 14 -5
v -2.5 15 3
v -1.5 15 3
v -2.5 15 2
v -1.5 15 2
v -2.5 15 -2
v -1.5 15 -2
v -2.5 15 -3
v -1.5 15 -3

# faces
f 3/1/1 2/1/1 1/1/1
f 4/1/1 2/1/1 3/1/1
f 9/4/1 6/4/1 5/4/1
f 10/1/1 7/1/1 6/1/1
f 10/4/1 6/4/1 9/4/1
f 11/4/1 8/4/1 7/4/1
f 11/1/1 7/1/1 10/1/1
f 12/4/1 8/4/1 11/4/1
f 15/1/1 14/1/1 13/1/1
f 16/1/1 14/1/1 15/1/1
f 25/2/1 18/2/1 17/2/1
f 26/2/1 18/2/1 25/2/1
f 27/1/1 20/1/1 19/1/1
f 28/1/1 20/1/1 27/1/1
f 29/1/1 22/1/1 21/1/1
f 30/1/1 22/1/1 29/1/1
f 31/2/1 24/2/1 23/2/1
f 32/2/1 24/2/1 31/2/1
f 37/5/1 34/5/1 33/5/1
f 38/5/1 34/5/1 37/5/1
f 39/5/1 36/5/1 35/5/1
f 40/5/1 36/5/1 39/5/1
f 41/1/1 38/1/1 37/1/1
f 42/1/1 40/1/1 39/1/1
f 43/1/1 41/1/1 37/1/1
f 43/1/1 42/1/1 41/1/1
f 44/1/1 40/1/1 42/1/1
f 44/1/1 42/1/1 43/1/1
f 45/1/1 43/1/1 37/1/1
f 46/1/1 43/1/1 45/1/1
f 47/1/1 40/1/1 44/1/1
f 48/1/1 40/1/1 47/1/1
f 54/2/1 50/2/1 49/2/1
f 55/2/1 52/2/1 51/2/1
f 58/2/1 54/2/1 53/2/1
f 59/2/1 50/2/1 54/2/1
f 59/2/1 54/2/1 58/2/1
f 60/2/1 50/2/1 59/2/1
f 61/2/1 56/2/1 55/2/1
f 61/2/1 55/2/1 51/2/1
f 62/2/1 56/2/1 61/2/1
f 63/2/1 56/2/1 62/2/1
f 65/2/1 58/2/1 57/2/1
f 66/2/1 58/2/1 65/2/1
f 67/2/1 64/2/1 63/2/1
f 68/2/1 64/2/1 67/2/1
f 69/2/1 60/2/1 59/2/1
f 70/2/1 60/2/1 69/2/1
f 71/2/1 62/2/1 61/2/1
f 72/2/1 62/2/1 71/2/1
f 77/5/1 74/5/1 73/5/1
f 78/5/1 74/5/1 77/5/1
f 79/5/1 76/5/1 75/5/1
f 80/5/1 76/5/1 79/5/1
f 81/1/1 78/1/1 77/1/1
f 82/1/1 78/1/1 81/1/1
f 83/1/1 80/1/1 79/1/1
f 84/1/1 80/1/1 83/1/1
f 87/1/1 86/1/1 85/1/1
f 88/1/1 86/1/1 87/1/1
f 89/1/2 90/1/2 93/1/2
f 93/1/2 90/1/2 94/1/2
f 91/1/2 92/1/2 95/1/2
f 95/1/2 92/1/2 96/1/2
f 97/5/2 98/5/2 101/5/2
f 101/5/2 98/5/2 102/5/2
f 99/5/2 100/5/2 103/5/2
f 103/5/2 100/5/2 104/5/2
f 101/1/2 102/1/2 105/1/2
f 105/1/2 102/1/2 106/1/2
f 103/1/2 104/1/2 107/1/2
f 107/1/2 104/1/2 108/1/2
f 109/1/2 110/1/2 112/1/2
f 112/1/2 110/1/2 113/1/2
f 111/2/2 112/2/2 116/2/2
f 116/2/2 112/2/2 117/2/2
f 112/1/2 113/1/2 118/1/2
f 117/2/2 112/2/2 118/2/2
f 113/2/2 114/2/2 119/2/2
f 118/1/2 113/1/2 119/1/2
f 119/2/2 114/2/2 120/2/2
f 120/2/2 114/2/2 121/2/2
f 116/2/2 117/2/2 123/2/2
f 115/2/2 116/2/2 123/2/2
f 123/2/2 117/2/2 124/2/2
f 121/2/2 122/2/2 125/2/2
f 120/2/2 121/2/2 125/2/2
f 125/2/2 122/2/2 126/2/2
f 115/2/2 123/2/2 127/2/2
f 127/2/2 123/2/2 128/2/2
f 126/2/2 122/2/2 129/2/2
f 129/2/2 122/2/2 130/2/2
f 124/2/2 117/2/2 131/2/2
f 131/2/2 117/2/2 132/2/2
f 120/2/2 125/2/2 133/2/2
f 133/2/2 125/2/2 134/2/2
f 135/1/2 136/1/2 137/1/2
f 137/1/2 136/1/2 138/1/2
f 139/5/2 140/5/2 143/5/2
f 143/5/2 140/5/2 144/5/2
f 141/5/2 142/5/2 145/5/2
f 145/5/2 142/5/2 146/5/2
f 143/1/2 144/1/2 147/1/2
f 145/1/2 146/1/2 148/1/2
f 143/1/2 147/1/2 149/1/2
f 147/1/2 148/1/2 149/1/2
f 148/1/2 146/1/2 150/1/2
f 149/1/2 148/1/2 150/1/2
f 143/1/2 149/1/2 151/1/2
f 151/1/2 149/1/2 152/1/2
f 150/1/2 146/1/2 153/1/2
f 153/1/2 146/1/2 154/1/2
f 152/1/2 153/1/2 155/1/2
f 155/1/2 153/1/2 156/1/2
f 157/1/2 158/1/2 159/1/2
f 159/1/2 158/1/2 160/1/2
f 161/1/2 162/1/2 163/1/2
f 163/1/2 162/1/2 164/1/2
f 167/2/3 166/2/3 165/2/3
f 169/2/3 167/2/3 165/2/3
f 169/2/3 168/2/3 167/2/3
f 170/2/3 168/2/3 169/2/3
f 175/2/3 172/2/3 171/2/3
f 176/2/3 172/2/3 175/2/3
f 177/2/3 174/2/3 173/2/3
f 178/2/3 174/2/3 177/2/3
f 181/4/3 180/4/3 179/4/3
f 182/4/3 180/4/3 181/4/3
f 187/1/3 182/1/3 181/1/3
f 187/1/3 183/1/3 182/1/3
f 188/1/3 183/1/3 187/1/3
f 189/5/3 185/5/3 184/5/3
f 190/1/3 186/1/3 185/1/3
f 190/5/3 185/5/3 189/5/3
f 191/1/3 186/1/3 190/1/3
f 194/1/3 186/1/3 191/1/3
f 195/5/3 193/5/3 192/5/3
f 196/1/3 194/1/3 193/1/3
f 196/5/3 193/5/3 195/5/3
f 197/1/3 186/1/3 194/1/3
f 197/1/3 194/1/3 196/1/3
f 200/1/3 199/1/3 198/1/3
f 202/1/3 200/1/3 198/1/3
f 203/1/3 200/1/3 202/1/3
f 204/1/3 202/1/3 201/1/3
f 204/1/3 203/1/3 202/1/3
f 205/1/3 203/1/3 204/1/3
f 206/1/3 203/1/3 205/1/3
f 207/1/3 206/1/3 205/1/3
f 208/1/3 206/1/3 207/1/3
f 209/1/3 207/1/3 205/1/3
f 210/1/3 207/1/3 209/1/3
f 212/1/3 209/1/3 205/1/3
f 213/1/3 209/1/3 212/1/3
f 215/1/3 212/1/3 211/1/3
f 216/1/3 212/1/3 215/1/3
f 217/1/3 212/1/3 216/1/3
f 218/1/3 215/1/3 214/1/3
f 218/1/3 216/1/3 215/1/3
f 219/1/3 216/1/3 218/1/3
f 225/1/3 221/1/3 220/1/3
f 226/1/3 221/1/3 225/1/3
f 227/5/3 223/5/3 222/5/3
f 228/1/3 224/1/3 223/1/3
f 228/5/3 223/5/3 227/5/3
f 229/1/3 224/1/3 228/1/3
f 233/5/3 231/5/3 230/5/3
f 234/1/3 232/1/3 231/1/3
f 234/5/3 231/5/3 233/5/3
f 235/1/3 232/1/3 234/1/3
f 239/2/3 237/2/3 236/2/3
f 239/2/3 238/2/3 237/2/3
f 240/2/3 238/2/3 239/2/3
f 243/2/3 242/2/3 241/2/3
f 244/2/3 242/2/3 243/2/3
f 246/2/3 245/2/3 244/2/3
f 247/2/3 245/2/3 246/2/3
f 248/2/4 249/2/4 250/2/4
f 250/2/4 249/2/4 251/2/4
f 251/2/4 252/2/4 253/2/4
f 253/2/4 252/2/4 254/2/4
f 255/2/4 256/2/4 258/2/4
f 256/2/4 257/2/4 258/2/4
f 258/2/4 257/2/4 259/2/4
f 260/1/4 261/1/4 265/1/4
f 265/1/4 261/1/4 266/1/4
f 262/5/4 263/5/4 267/5/4
f 263/1/4 264/1/4 268/1/4
f 267/5/4 263/5/4 268/5/4
f 268/1/4 264/1/4 269/1/4
f 270/5/4 271/5/4 273/5/4
f 271/1/4 272/1/4 274/1/4
f 273/5/4 271/5/4 274/5/4
f 274/1/4 272/1/4 275/1/4
f 276/1/4 277/1/4 278/1/4
f 276/1/4 278/1/4 280/1/4
f 280/1/4 278/1/4 281/1/4
f 279/1/4 280/1/4 282/1/4
f 280/1/4 281/1/4 282/1/4
f 282/1/4 281/1/4 283/1/4
f 283/1/4 281/1/4 284/1/4
f 283/1/4 284/1/4 285/1/4
f 285/1/4 284/1/4 286/1/4
f 283/1/4 285/1/4 287/1/4
f 287/1/4 285/1/4 288/1/4
f 283/1/4 287/1/4 290/1/4
f 290/1/4 287/1/4 291/1/4
f 289/1/4 290/1/4 293/1/4
f 293/1/4 290/1/4 294/1/4
f 294/1/4 290/1/4 295/1/4
f 292/1/4 293/1/4 296/1/4
f 293/1/4 294/1/4 296/1/4
f 296/1/4 294/1/4 297/1/4
f 298/4/4 299/4/4 300/4/4
f 300/4/4 299/4/4 301/4/4
f 300/1/4 301/1/4 306/1/4
f 301/1/4 302/1/4 306/1/4
f 306/1/4 302/1/4 307/1/4
f 303/5/4 304/5/4 308/5/4
f 304/1/4 305/1/4 309/1/4
f 308/5/4 304/5/4 309/5/4
f 309/1/4 305/1/4 310/1/4
f 310/1/4 305/1/4 313/1/4
f 311/5/4 312/5/4 314/5/4
f 312/1/4 313/1/4 315/1/4
f 314/5/4 312/5/4 315/5/4
f 313/1/4 305/1/4 316/1/4
f 315/1/4 313/1/4 316/1/4
f 317/2/4 318/2/4 321/2/4
f 321/2/4 318/2/4 322/2/4
f 319/2/4 320/2/4 323/2/4
f 323/2/4 320/2/4 324/2/4
f 325/2/4 326/2/4 327/2/4
f 325/2/4 327/2/4 329/2/4
f 327/2/4 328/2/4 329/2/4
f 329/2/4 328/2/4 330/2/4
f 335/5/5 332/5/5 331/5/5
f 336/5/5 332/5/5 335/5/5
f 337/5/5 334/5/5 333/5/5
f 338/5/5 334/5/5 337/5/5
f 343/5/5 340/5/5 339/5/5
f 344/5/5 340/5/5 343/5/5
f 345/5/5 342/5/5 341/5/5
f 346/5/5 342/5/5 345/5/5
f 350/1/5 348/1/5 347/1/5
f 351/1/5 348/1/5 350/1/5
f 355/1/5 350/1/5 349/1/5
f 355/1/5 351/1/5 350/1/5
f 355/1/5 352/1/5 351/1/5
f 356/1/5 352/1/5 355/1/5
f 357/1/5 352/1/5 356/1/5
f 358/1/5 352/1/5 357/1/5
f 359/1/5 354/1/5 353/1/5
f 360/1/5 354/1/5 359/1/5
f 361/1/5 357/1/5 356/1/5
f 362/1/5 357/1/5 361/1/5
f 365/1/5 364/1/5 363/1/5
f 366/1/5 364/1/5 365/1/5
f 369/1/5 368/1/5 367/1/5
f 370/1/5 368/1/5 369/1/5
f 373/1/5 372/1/5 371/1/5
f 374/1/5 372/1/5 373/1/5
f 379/2/5 376/2/5 375/2/5
f 380/4/5 378/4/5 377/4/5
f 381/1/5 379/1/5 378/1/5
f 381/4/5 378/4/5 380/4/5
f 382/2/5 376/2/5 379/2/5
f 382/1/5 379/1/5 381/1/5
f 383/2/5 376/2/5 382/2/5
f 388/4/5 385/4/5 384/4/5
f 389/1/5 386/1/5 385/1/5
f 389/4/5 385/4/5 388/4/5
f 390/2/5 387/2/5 386/2/5
f 390/1/5 386/1/5 389/1/5
f 391/2/5 387/2/5 390/2/5
f 392/2/5 387/2/5 391/2/5
f 395/2/5 394/2/5 393/2/5
f 396/2/5 394/2/5 395/2/5
f 397/2/5 394/2/5 396/2/5
f 398/2/5 394/2/5 397/2/5
f 402/2/5 400/2/5 399/2/5
f 403/2/5 402/2/5 401/2/5
f 404/2/5 400/2/5 402/2/5
f 404/2/5 402/2/5 403/2/5
f 405/1/6 406/1/6 407/1/6
f 407/1/6 406/1/6 408/1/6
f 409/1/6 410/1/6 411/1/6
f 411/1/6 410/1/6 412/1/6
f 412/1/6 413/1/6 415/1/6
f 415/1/6 413/1/6 416/1/6
f 414/1/6 415/1/6 417/1/6
f 417/1/6 415/1/6 418/1/6
f 419/1/6 420/1/6 421/1/6
f 421/1/6 420/1/6 422/1/6
f 423/1/6 424/1/6 425/1/6
f 425/1/6 424/1/6 426/1/6
f 427/1/6 428/1/6 429/1/6
f 429/1/6 428/1/6 430/1/6
f 431/4/6 432/4/6 435/4/6
f 435/4/6 432/4/6 436/4/6
f 433/2/6 434/2/6 437/2/6
f 437/2/6 434/2/6 438/2/6
f 435/1/6 436/1/6 439/1/6
f 436/1/6 437/1/6 439/1/6
f 437/1/6 438/1/6 439/1/6
f 439/1/6 438/1/6 440/1/6
f 440/1/6 438/1/6 441/1/6
f 441/1/6 438/1/6 442/1/6
f 439/4/6 440/4/6 443/4/6
f 443/4/6 440/4/6 444/4/6
f 441/2/6 442/2/6 445/2/6
f 445/2/6 442/2/6 446/2/6
f 447/2/6 448/2/6 449/2/6
f 449/2/6 448/2/6 450/2/6
f 450/2/6 451/2/6 452/2/6
f 452/2/6 451/2/6 453/2/6
f 454/1/6 455/1/6 456/1/6
f 456/1/6 455/1/6 457/1/6
f 458/1/6 459/1/6 460/1/6
f 460/1/6 459/1/6 461/1/6
f 462/2/6 463/2/6 465/2/6
f 465/2/6 463/2/6 466/2/6
f 464/2/6 465/2/6 467/2/6
f 467/2/6 465/2/6 468/2/6
f 469/2/6 470/2/6 471/2/6
f 471/2/6 470/2/6 472/2/6
f 473/2/6 474/2/6 475/2/6
f 475/2/6 474/2/6 476/2/6
f 477/2/6 478/2/6 479/2/6
f 479/2/6 478/2/6 480/2/6
f 481/2/6 482/2/6 483/2/6
f 483/2/6 482/2/6 484/2/6
