# MagicaVoxel @ Ephtracy

# material
mtllib PlatformPart_08.mtl
usemtl palette

# normals
vn -1 0 0
vn 1 0 0
vn 0 0 1
vn 0 0 -1
vn 0 -1 0
vn 0 1 0

# texcoords
vt 0.396484 0.5
vt 0.419922 0.5

# verts
v -2 0 3.5
v -2 0 2.5
v -2 0 1.5
v -2 0 0.5
v -2 0 -0.5
v -2 0 -1.5
v -2 0 -2.5
v -2 0 -3.5
v -2 1 3.5
v -2 1 2.5
v -2 1 1.5
v -2 1 0.5
v -2 1 -0.5
v -2 1 -1.5
v -2 1 -2.5
v -2 1 -3.5
v 1 0 3.5
v 1 0 2.5
v 1 0 1.5
v 1 0 0.5
v 1 0 -0.5
v 1 0 -1.5
v 1 0 -2.5
v 1 0 -3.5
v 1 1 3.5
v 1 1 2.5
v 1 1 1.5
v 1 1 0.5
v 1 1 -0.5
v 1 1 -1.5
v 1 1 -2.5
v 1 1 -3.5
v -1 0 3.5
v -1 0 2.5
v -1 0 1.5
v -1 0 0.5
v -1 0 -0.5
v -1 0 -1.5
v -1 0 -2.5
v -1 0 -3.5
v -1 1 3.5
v -1 1 2.5
v -1 1 1.5
v -1 1 0.5
v -1 1 -0.5
v -1 1 -1.5
v -1 1 -2.5
v -1 1 -3.5
v 2 0 3.5
v 2 0 2.5
v 2 0 1.5
v 2 0 0.5
v 2 0 -0.5
v 2 0 -1.5
v 2 0 -2.5
v 2 0 -3.5
v 2 1 3.5
v 2 1 2.5
v 2 1 1.5
v 2 1 0.5
v 2 1 -0.5
v 2 1 -1.5
v 2 1 -2.5
v 2 1 -3.5
v -2 0 3.5
v -2 1 3.5
v -1 0 3.5
v -1 1 3.5
v 1 0 3.5
v 1 1 3.5
v 2 0 3.5
v 2 1 3.5
v -2 0 -3.5
v -2 1 -3.5
v -1 0 -3.5
v -1 1 -3.5
v 1 0 -3.5
v 1 1 -3.5
v 2 0 -3.5
v 2 1 -3.5
v -2 0 3.5
v -1 0 3.5
v 1 0 3.5
v 2 0 3.5
v -2 0 2.5
v -1 0 2.5
v 1 0 2.5
v 2 0 2.5
v -2 0 1.5
v -1 0 1.5
v 1 0 1.5
v 2 0 1.5
v -2 0 0.5
v -1 0 0.5
v 1 0 0.5
v 2 0 0.5
v -2 0 -0.5
v -1 0 -0.5
v 1 0 -0.5
v 2 0 -0.5
v -2 0 -1.5
v -1 0 -1.5
v 1 0 -1.5
v 2 0 -1.5
v -2 0 -2.5
v -1 0 -2.5
v 1 0 -2.5
v 2 0 -2.5
v -2 0 -3.5
v -1 0 -3.5
v 1 0 -3.5
v 2 0 -3.5
v -2 1 3.5
v -1 1 3.5
v 1 1 3.5
v 2 1 3.5
v -2 1 2.5
v -1 1 2.5
v 1 1 2.5
v 2 1 2.5
v -2 1 1.5
v -1 1 1.5
v 1 1 1.5
v 2 1 1.5
v -2 1 0.5
v -1 1 0.5
v 1 1 0.5
v 2 1 0.5
v -2 1 -0.5
v -1 1 -0.5
v 1 1 -0.5
v 2 1 -0.5
v -2 1 -1.5
v -1 1 -1.5
v 1 1 -1.5
v 2 1 -1.5
v -2 1 -2.5
v -1 1 -2.5
v 1 1 -2.5
v 2 1 -2.5
v -2 1 -3.5
v -1 1 -3.5
v 1 1 -3.5
v 2 1 -3.5

# faces
f 9/1/1 2/1/1 1/1/1
f 10/2/1 3/2/1 2/2/1
f 10/1/1 2/1/1 9/1/1
f 11/1/1 4/1/1 3/1/1
f 11/2/1 3/2/1 10/2/1
f 12/2/1 5/2/1 4/2/1
f 12/1/1 4/1/1 11/1/1
f 13/1/1 6/1/1 5/1/1
f 13/2/1 5/2/1 12/2/1
f 14/2/1 7/2/1 6/2/1
f 14/1/1 6/1/1 13/1/1
f 15/1/1 8/1/1 7/1/1
f 15/2/1 7/2/1 14/2/1
f 16/1/1 8/1/1 15/1/1
f 25/2/1 18/2/1 17/2/1
f 26/1/1 19/1/1 18/1/1
f 26/2/1 18/2/1 25/2/1
f 27/2/1 20/2/1 19/2/1
f 27/1/1 19/1/1 26/1/1
f 28/1/1 21/1/1 20/1/1
f 28/2/1 20/2/1 27/2/1
f 29/2/1 22/2/1 21/2/1
f 29/1/1 21/1/1 28/1/1
f 30/1/1 23/1/1 22/1/1
f 30/2/1 22/2/1 29/2/1
f 31/2/1 24/2/1 23/2/1
f 31/1/1 23/1/1 30/1/1
f 32/2/1 24/2/1 31/2/1
f 33/1/2 34/1/2 41/1/2
f 34/2/2 35/2/2 42/2/2
f 41/1/2 34/1/2 42/1/2
f 35/1/2 36/1/2 43/1/2
f 42/2/2 35/2/2 43/2/2
f 36/2/2 37/2/2 44/2/2
f 43/1/2 36/1/2 44/1/2
f 37/1/2 38/1/2 45/1/2
f 44/2/2 37/2/2 45/2/2
f 38/2/2 39/2/2 46/2/2
f 45/1/2 38/1/2 46/1/2
f 39/1/2 40/1/2 47/1/2
f 46/2/2 39/2/2 47/2/2
f 47/1/2 40/1/2 48/1/2
f 49/2/2 50/2/2 57/2/2
f 50/1/2 51/1/2 58/1/2
f 57/2/2 50/2/2 58/2/2
f 51/2/2 52/2/2 59/2/2
f 58/1/2 51/1/2 59/1/2
f 52/1/2 53/1/2 60/1/2
f 59/2/2 52/2/2 60/2/2
f 53/2/2 54/2/2 61/2/2
f 60/1/2 53/1/2 61/1/2
f 54/1/2 55/1/2 62/1/2
f 61/2/2 54/2/2 62/2/2
f 55/2/2 56/2/2 63/2/2
f 62/1/2 55/1/2 63/1/2
f 63/2/2 56/2/2 64/2/2
f 67/1/3 66/1/3 65/1/3
f 68/1/3 66/1/3 67/1/3
f 71/2/3 70/2/3 69/2/3
f 72/2/3 70/2/3 71/2/3
f 73/1/4 74/1/4 75/1/4
f 75/1/4 74/1/4 76/1/4
f 77/2/4 78/2/4 79/2/4
f 79/2/4 78/2/4 80/2/4
f 85/1/5 82/1/5 81/1/5
f 86/1/5 82/1/5 85/1/5
f 87/2/5 84/2/5 83/2/5
f 88/2/5 84/2/5 87/2/5
f 89/2/5 86/2/5 85/2/5
f 90/2/5 86/2/5 89/2/5
f 91/1/5 88/1/5 87/1/5
f 92/1/5 88/1/5 91/1/5
f 93/1/5 90/1/5 89/1/5
f 94/1/5 90/1/5 93/1/5
f 95/2/5 92/2/5 91/2/5
f 96/2/5 92/2/5 95/2/5
f 97/2/5 94/2/5 93/2/5
f 98/2/5 94/2/5 97/2/5
f 99/1/5 96/1/5 95/1/5
f 100/1/5 96/1/5 99/1/5
f 101/1/5 98/1/5 97/1/5
f 102/1/5 98/1/5 101/1/5
f 103/2/5 100/2/5 99/2/5
f 104/2/5 100/2/5 103/2/5
f 105/2/5 102/2/5 101/2/5
f 106/2/5 102/2/5 105/2/5
f 107/1/5 104/1/5 103/1/5
f 108/1/5 104/1/5 107/1/5
f 109/1/5 106/1/5 105/1/5
f 110/1/5 106/1/5 109/1/5
f 111/2/5 108/2/5 107/2/5
f 112/2/5 108/2/5 111/2/5
f 113/1/6 114/1/6 117/1/6
f 117/1/6 114/1/6 118/1/6
f 115/2/6 116/2/6 119/2/6
f 119/2/6 116/2/6 120/2/6
f 117/2/6 118/2/6 121/2/6
f 121/2/6 118/2/6 122/2/6
f 119/1/6 120/1/6 123/1/6
f 123/1/6 120/1/6 124/1/6
f 121/1/6 122/1/6 125/1/6
f 125/1/6 122/1/6 126/1/6
f 123/2/6 124/2/6 127/2/6
f 127/2/6 124/2/6 128/2/6
f 125/2/6 126/2/6 129/2/6
f 129/2/6 126/2/6 130/2/6
f 127/1/6 128/1/6 131/1/6
f 131/1/6 128/1/6 132/1/6
f 129/1/6 130/1/6 133/1/6
f 133/1/6 130/1/6 134/1/6
f 131/2/6 132/2/6 135/2/6
f 135/2/6 132/2/6 136/2/6
f 133/2/6 134/2/6 137/2/6
f 137/2/6 134/2/6 138/2/6
f 135/1/6 136/1/6 139/1/6
f 139/1/6 136/1/6 140/1/6
f 137/1/6 138/1/6 141/1/6
f 141/1/6 138/1/6 142/1/6
f 139/2/6 140/2/6 143/2/6
f 143/2/6 140/2/6 144/2/6
