# MagicaVoxel @ Ephtracy

# material
mtllib Stair_04.mtl
usemtl palette

# normals
vn -1 0 0
vn 1 0 0
vn 0 0 1
vn 0 0 -1
vn 0 -1 0
vn 0 1 0

# texcoords
vt 0.974609 0.5
vt 0.978516 0.5

# verts
v -1 0 3
v -1 0 2
v -1 0 -2
v -1 0 -3
v -1 6 3
v -1 6 2
v -1 6 -2
v -1 6 -3
v 0 1 2
v 0 1 -2
v 0 2 2
v 0 2 -2
v 0 3 2
v 0 3 -2
v 0 4 2
v 0 4 -2
v 0 5 2
v 0 5 -2
v 0 6 2
v 0 6 -2
v 1 0 3
v 1 0 2
v 1 0 -2
v 1 0 -3
v 1 1 2
v 1 1 -2
v 1 2 2
v 1 2 -2
v 1 3 2
v 1 3 -2
v 1 4 2
v 1 4 -2
v 1 5 2
v 1 5 -2
v 1 6 3
v 1 6 2
v 1 6 -2
v 1 6 -3
v -1 0 3
v -1 6 3
v 1 0 3
v 1 6 3
v -1 0 -2
v -1 6 -2
v 0 1 -2
v 0 2 -2
v 0 3 -2
v 0 4 -2
v 0 5 -2
v 0 6 -2
v 1 0 -2
v 1 1 -2
v 1 2 -2
v 1 3 -2
v 1 4 -2
v 1 5 -2
v -1 0 2
v -1 6 2
v 0 1 2
v 0 2 2
v 0 3 2
v 0 4 2
v 0 5 2
v 0 6 2
v 1 0 2
v 1 1 2
v 1 2 2
v 1 3 2
v 1 4 2
v 1 5 2
v -1 0 -3
v -1 6 -3
v 1 0 -3
v 1 6 -3
v -1 0 3
v 1 0 3
v -1 0 2
v 1 0 2
v -1 0 -2
v 1 0 -2
v -1 0 -3
v 1 0 -3
v 0 1 2
v 1 1 2
v 0 1 -2
v 1 1 -2
v 0 3 2
v 1 3 2
v 0 3 -2
v 1 3 -2
v 0 5 2
v 1 5 2
v 0 5 -2
v 1 5 -2
v 0 2 2
v 1 2 2
v 0 2 -2
v 1 2 -2
v 0 4 2
v 1 4 2
v 0 4 -2
v 1 4 -2
v -1 6 3
v 1 6 3
v -1 6 2
v 0 6 2
v 1 6 2
v -1 6 -2
v 0 6 -2
v 1 6 -2
v -1 6 -3
v 1 6 -3

# faces
f 5/1/1 2/1/1 1/1/1
f 6/1/1 2/1/1 5/1/1
f 7/1/1 4/1/1 3/1/1
f 8/1/1 4/1/1 7/1/1
f 11/2/1 10/2/1 9/2/1
f 12/2/1 10/2/1 11/2/1
f 15/2/1 14/2/1 13/2/1
f 16/2/1 14/2/1 15/2/1
f 19/2/1 18/2/1 17/2/1
f 20/2/1 18/2/1 19/2/1
f 21/1/2 22/1/2 25/1/2
f 23/1/2 24/1/2 26/1/2
f 21/1/2 25/1/2 27/1/2
f 25/2/2 26/2/2 27/2/2
f 26/1/2 24/1/2 28/1/2
f 27/2/2 26/2/2 28/2/2
f 21/1/2 27/1/2 29/1/2
f 28/1/2 24/1/2 30/1/2
f 21/1/2 29/1/2 31/1/2
f 29/2/2 30/2/2 31/2/2
f 30/1/2 24/1/2 32/1/2
f 31/2/2 30/2/2 32/2/2
f 21/1/2 31/1/2 33/1/2
f 32/1/2 24/1/2 34/1/2
f 21/1/2 33/1/2 35/1/2
f 33/2/2 34/2/2 36/2/2
f 35/1/2 33/1/2 36/1/2
f 34/1/2 24/1/2 37/1/2
f 36/2/2 34/2/2 37/2/2
f 37/1/2 24/1/2 38/1/2
f 41/1/3 40/1/3 39/1/3
f 42/1/3 40/1/3 41/1/3
f 45/1/3 44/1/3 43/1/3
f 46/1/3 44/1/3 45/1/3
f 47/1/3 44/1/3 46/1/3
f 48/1/3 44/1/3 47/1/3
f 49/1/3 44/1/3 48/1/3
f 50/1/3 44/1/3 49/1/3
f 51/1/3 45/1/3 43/1/3
f 52/1/3 45/1/3 51/1/3
f 53/1/3 47/1/3 46/1/3
f 54/1/3 47/1/3 53/1/3
f 55/1/3 49/1/3 48/1/3
f 56/1/3 49/1/3 55/1/3
f 57/1/4 58/1/4 59/1/4
f 59/1/4 58/1/4 60/1/4
f 60/1/4 58/1/4 61/1/4
f 61/1/4 58/1/4 62/1/4
f 62/1/4 58/1/4 63/1/4
f 63/1/4 58/1/4 64/1/4
f 57/1/4 59/1/4 65/1/4
f 65/1/4 59/1/4 66/1/4
f 60/1/4 61/1/4 67/1/4
f 67/1/4 61/1/4 68/1/4
f 62/1/4 63/1/4 69/1/4
f 69/1/4 63/1/4 70/1/4
f 71/1/4 72/1/4 73/1/4
f 73/1/4 72/1/4 74/1/4
f 77/1/5 76/1/5 75/1/5
f 78/1/5 76/1/5 77/1/5
f 81/1/5 80/1/5 79/1/5
f 82/1/5 80/1/5 81/1/5
f 85/2/5 84/2/5 83/2/5
f 86/2/5 84/2/5 85/2/5
f 89/2/5 88/2/5 87/2/5
f 90/2/5 88/2/5 89/2/5
f 93/2/5 92/2/5 91/2/5
f 94/2/5 92/2/5 93/2/5
f 95/2/6 96/2/6 97/2/6
f 97/2/6 96/2/6 98/2/6
f 99/2/6 100/2/6 101/2/6
f 101/2/6 100/2/6 102/2/6
f 103/1/6 104/1/6 105/1/6
f 105/1/6 104/1/6 106/1/6
f 106/1/6 104/1/6 107/1/6
f 106/2/6 107/2/6 109/2/6
f 109/2/6 107/2/6 110/2/6
f 108/1/6 109/1/6 111/1/6
f 109/1/6 110/1/6 111/1/6
f 111/1/6 110/1/6 112/1/6
