# MagicaVoxel @ Ephtracy

# material
mtllib Thorns_03.mtl
usemtl palette

# normals
vn -1 0 0
vn 1 0 0
vn 0 0 1
vn 0 0 -1
vn 0 -1 0
vn 0 1 0

# texcoords
vt 0.462891 0.5
vt 0.466797 0.5

# verts
v -2 0 2
v -2 0 1
v -2 0 -0
v -2 0 -1
v -2 1 -0
v -2 1 -1
v -2 2 -0
v -2 2 -1
v -2 3 2
v -2 3 1
v -2 4 2
v -2 4 1
v 0 0 -1
v 0 0 -2
v 0 2 -1
v 0 2 -2
v 0 3 -1
v 0 3 -2
v 1 0 2
v 1 0 1
v 1 2 2
v 1 2 1
v 1 3 2
v 1 3 1
v -1 0 2
v -1 0 1
v -1 0 -0
v -1 0 -1
v -1 1 -0
v -1 1 -1
v -1 2 -0
v -1 2 -1
v -1 3 2
v -1 3 1
v -1 4 2
v -1 4 1
v 1 0 -1
v 1 0 -2
v 1 2 -1
v 1 2 -2
v 1 3 -1
v 1 3 -2
v 2 0 2
v 2 0 1
v 2 2 2
v 2 2 1
v 2 3 2
v 2 3 1
v -2 0 2
v -2 3 2
v -2 4 2
v -1 0 2
v -1 3 2
v -1 4 2
v 1 0 2
v 1 2 2
v 1 3 2
v 2 0 2
v 2 2 2
v 2 3 2
v -2 0 -0
v -2 1 -0
v -2 2 -0
v -1 0 -0
v -1 1 -0
v -1 2 -0
v 0 0 -1
v 0 2 -1
v 0 3 -1
v 1 0 -1
v 1 2 -1
v 1 3 -1
v -2 0 1
v -2 3 1
v -2 4 1
v -1 0 1
v -1 3 1
v -1 4 1
v 1 0 1
v 1 2 1
v 1 3 1
v 2 0 1
v 2 2 1
v 2 3 1
v -2 0 -1
v -2 1 -1
v -2 2 -1
v -1 0 -1
v -1 1 -1
v -1 2 -1
v 0 0 -2
v 0 2 -2
v 0 3 -2
v 1 0 -2
v 1 2 -2
v 1 3 -2
v -2 0 2
v -1 0 2
v 1 0 2
v 2 0 2
v -2 0 1
v -1 0 1
v 1 0 1
v 2 0 1
v -2 0 -0
v -1 0 -0
v -2 0 -1
v -1 0 -1
v 0 0 -1
v 1 0 -1
v 0 0 -2
v 1 0 -2
v -2 2 -0
v -1 2 -0
v -2 2 -1
v -1 2 -1
v 1 3 2
v 2 3 2
v 1 3 1
v 2 3 1
v 0 3 -1
v 1 3 -1
v 0 3 -2
v 1 3 -2
v -2 4 2
v -1 4 2
v -2 4 1
v -1 4 1

# faces
f 5/2/1 4/2/1 3/2/1
f 6/2/1 4/2/1 5/2/1
f 7/1/1 6/1/1 5/1/1
f 8/1/1 6/1/1 7/1/1
f 9/2/1 2/2/1 1/2/1
f 10/2/1 2/2/1 9/2/1
f 11/1/1 10/1/1 9/1/1
f 12/1/1 10/1/1 11/1/1
f 15/2/1 14/2/1 13/2/1
f 16/2/1 14/2/1 15/2/1
f 17/1/1 16/1/1 15/1/1
f 18/1/1 16/1/1 17/1/1
f 21/2/1 20/2/1 19/2/1
f 22/2/1 20/2/1 21/2/1
f 23/1/1 22/1/1 21/1/1
f 24/1/1 22/1/1 23/1/1
f 27/2/2 28/2/2 29/2/2
f 29/2/2 28/2/2 30/2/2
f 29/1/2 30/1/2 31/1/2
f 31/1/2 30/1/2 32/1/2
f 25/2/2 26/2/2 33/2/2
f 33/2/2 26/2/2 34/2/2
f 33/1/2 34/1/2 35/1/2
f 35/1/2 34/1/2 36/1/2
f 37/2/2 38/2/2 39/2/2
f 39/2/2 38/2/2 40/2/2
f 39/1/2 40/1/2 41/1/2
f 41/1/2 40/1/2 42/1/2
f 43/2/2 44/2/2 45/2/2
f 45/2/2 44/2/2 46/2/2
f 45/1/2 46/1/2 47/1/2
f 47/1/2 46/1/2 48/1/2
f 52/2/3 50/2/3 49/2/3
f 53/1/3 51/1/3 50/1/3
f 53/2/3 50/2/3 52/2/3
f 54/1/3 51/1/3 53/1/3
f 58/2/3 56/2/3 55/2/3
f 59/1/3 57/1/3 56/1/3
f 59/2/3 56/2/3 58/2/3
f 60/1/3 57/1/3 59/1/3
f 64/2/3 62/2/3 61/2/3
f 65/1/3 63/1/3 62/1/3
f 65/2/3 62/2/3 64/2/3
f 66/1/3 63/1/3 65/1/3
f 70/2/3 68/2/3 67/2/3
f 71/1/3 69/1/3 68/1/3
f 71/2/3 68/2/3 70/2/3
f 72/1/3 69/1/3 71/1/3
f 73/2/4 74/2/4 76/2/4
f 74/1/4 75/1/4 77/1/4
f 76/2/4 74/2/4 77/2/4
f 77/1/4 75/1/4 78/1/4
f 79/2/4 80/2/4 82/2/4
f 80/1/4 81/1/4 83/1/4
f 82/2/4 80/2/4 83/2/4
f 83/1/4 81/1/4 84/1/4
f 85/2/4 86/2/4 88/2/4
f 86/1/4 87/1/4 89/1/4
f 88/2/4 86/2/4 89/2/4
f 89/1/4 87/1/4 90/1/4
f 91/2/4 92/2/4 94/2/4
f 92/1/4 93/1/4 95/1/4
f 94/2/4 92/2/4 95/2/4
f 95/1/4 93/1/4 96/1/4
f 101/2/5 98/2/5 97/2/5
f 102/2/5 98/2/5 101/2/5
f 103/2/5 100/2/5 99/2/5
f 104/2/5 100/2/5 103/2/5
f 107/2/5 106/2/5 105/2/5
f 108/2/5 106/2/5 107/2/5
f 111/2/5 110/2/5 109/2/5
f 112/2/5 110/2/5 111/2/5
f 113/1/6 114/1/6 115/1/6
f 115/1/6 114/1/6 116/1/6
f 117/1/6 118/1/6 119/1/6
f 119/1/6 118/1/6 120/1/6
f 121/1/6 122/1/6 123/1/6
f 123/1/6 122/1/6 124/1/6
f 125/1/6 126/1/6 127/1/6
f 127/1/6 126/1/6 128/1/6
