# MagicaVoxel @ Ephtracy

# material
mtllib Tree_type4_02_snow.mtl
usemtl palette

# normals
vn -1 0 0
vn 1 0 0
vn 0 0 1
vn 0 0 -1
vn 0 -1 0
vn 0 1 0

# texcoords
vt 0.279297 0.5
vt 0.556641 0.5
vt 0.560547 0.5
vt 0.962891 0.5
vt 0.966797 0.5

# verts
v -3 3 3
v -3 3 -3
v -3 5 3
v -3 5 -3
v -3 7 3
v -3 7 -3
v -3 9 3
v -3 9 -3
v -3 11 3
v -3 11 -3
v -3 13 3
v -3 13 -3
v -3 14 3
v -3 14 -3
v -3 15 3
v -3 15 -3
v -1 0 1
v -1 0 -1
v -1 3 1
v -1 3 -1
v 1 0 1
v 1 0 -1
v 1 3 1
v 1 3 -1
v 3 3 3
v 3 3 -3
v 3 5 3
v 3 5 -3
v 3 7 3
v 3 7 -3
v 3 9 3
v 3 9 -3
v 3 11 3
v 3 11 -3
v 3 13 3
v 3 13 -3
v 3 14 3
v 3 14 -3
v 3 15 3
v 3 15 -3
v -3 3 3
v -3 5 3
v -3 7 3
v -3 9 3
v -3 11 3
v -3 13 3
v -3 14 3
v -3 15 3
v 3 3 3
v 3 5 3
v 3 7 3
v 3 9 3
v 3 11 3
v 3 13 3
v 3 14 3
v 3 15 3
v -1 0 1
v -1 3 1
v 1 0 1
v 1 3 1
v -1 0 -1
v -1 3 -1
v 1 0 -1
v 1 3 -1
v -3 3 -3
v -3 5 -3
v -3 7 -3
v -3 9 -3
v -3 11 -3
v -3 13 -3
v -3 14 -3
v -3 15 -3
v 3 3 -3
v 3 5 -3
v 3 7 -3
v 3 9 -3
v 3 11 -3
v 3 13 -3
v 3 14 -3
v 3 15 -3
v -1 0 1
v 1 0 1
v -1 0 -1
v 1 0 -1
v -3 3 3
v 3 3 3
v -1 3 1
v 1 3 1
v -1 3 -1
v 1 3 -1
v -3 3 -3
v 3 3 -3
v -3 15 3
v 3 15 3
v 0 15 1
v 1 15 1
v 0 15 -0
v 1 15 -0
v -3 15 -3
v 3 15 -3

# faces
f 3/2/1 2/2/1 1/2/1
f 4/2/1 2/2/1 3/2/1
f 5/3/1 4/3/1 3/3/1
f 6/3/1 4/3/1 5/3/1
f 7/2/1 6/2/1 5/2/1
f 8/2/1 6/2/1 7/2/1
f 9/3/1 8/3/1 7/3/1
f 10/3/1 8/3/1 9/3/1
f 11/2/1 10/2/1 9/2/1
f 12/2/1 10/2/1 11/2/1
f 13/3/1 12/3/1 11/3/1
f 14/3/1 12/3/1 13/3/1
f 15/4/1 14/4/1 13/4/1
f 16/4/1 14/4/1 15/4/1
f 19/1/1 18/1/1 17/1/1
f 20/1/1 18/1/1 19/1/1
f 21/1/2 22/1/2 23/1/2
f 23/1/2 22/1/2 24/1/2
f 25/2/2 26/2/2 27/2/2
f 27/2/2 26/2/2 28/2/2
f 27/3/2 28/3/2 29/3/2
f 29/3/2 28/3/2 30/3/2
f 29/2/2 30/2/2 31/2/2
f 31/2/2 30/2/2 32/2/2
f 31/3/2 32/3/2 33/3/2
f 33/3/2 32/3/2 34/3/2
f 33/2/2 34/2/2 35/2/2
f 35/2/2 34/2/2 36/2/2
f 35/3/2 36/3/2 37/3/2
f 37/3/2 36/3/2 38/3/2
f 37/4/2 38/4/2 39/4/2
f 39/4/2 38/4/2 40/4/2
f 49/2/3 42/2/3 41/2/3
f 50/3/3 43/3/3 42/3/3
f 50/2/3 42/2/3 49/2/3
f 51/2/3 44/2/3 43/2/3
f 51/3/3 43/3/3 50/3/3
f 52/3/3 45/3/3 44/3/3
f 52/2/3 44/2/3 51/2/3
f 53/2/3 46/2/3 45/2/3
f 53/3/3 45/3/3 52/3/3
f 54/3/3 47/3/3 46/3/3
f 54/2/3 46/2/3 53/2/3
f 55/4/3 48/4/3 47/4/3
f 55/3/3 47/3/3 54/3/3
f 56/4/3 48/4/3 55/4/3
f 59/1/3 58/1/3 57/1/3
f 60/1/3 58/1/3 59/1/3
f 61/1/4 62/1/4 63/1/4
f 63/1/4 62/1/4 64/1/4
f 65/2/4 66/2/4 73/2/4
f 66/3/4 67/3/4 74/3/4
f 73/2/4 66/2/4 74/2/4
f 67/2/4 68/2/4 75/2/4
f 74/3/4 67/3/4 75/3/4
f 68/3/4 69/3/4 76/3/4
f 75/2/4 68/2/4 76/2/4
f 69/2/4 70/2/4 77/2/4
f 76/3/4 69/3/4 77/3/4
f 70/3/4 71/3/4 78/3/4
f 77/2/4 70/2/4 78/2/4
f 71/4/4 72/4/4 79/4/4
f 78/3/4 71/3/4 79/3/4
f 79/4/4 72/4/4 80/4/4
f 83/1/5 82/1/5 81/1/5
f 84/1/5 82/1/5 83/1/5
f 87/2/5 86/2/5 85/2/5
f 88/2/5 86/2/5 87/2/5
f 89/2/5 87/2/5 85/2/5
f 90/2/5 86/2/5 88/2/5
f 91/2/5 89/2/5 85/2/5
f 91/2/5 90/2/5 89/2/5
f 92/2/5 86/2/5 90/2/5
f 92/2/5 90/2/5 91/2/5
f 93/4/6 94/4/6 95/4/6
f 95/4/6 94/4/6 96/4/6
f 93/4/6 95/4/6 97/4/6
f 95/5/6 96/5/6 97/5/6
f 96/4/6 94/4/6 98/4/6
f 97/5/6 96/5/6 98/5/6
f 93/4/6 97/4/6 99/4/6
f 97/4/6 98/4/6 99/4/6
f 98/4/6 94/4/6 100/4/6
f 99/4/6 98/4/6 100/4/6
