# MagicaVoxel @ Ephtracy

# material
mtllib Tree_type1_02.mtl
usemtl palette

# normals
vn -1 0 0
vn 1 0 0
vn 0 0 1
vn 0 0 -1
vn 0 -1 0
vn 0 1 0

# texcoords
vt 0.279297 0.5
vt 0.529297 0.5
vt 0.556641 0.5

# verts
v -3.5 3 1.5
v -3.5 3 -1.5
v -3.5 4 0.5
v -3.5 4 -0.5
v -3.5 5 0.5
v -3.5 5 -0.5
v -3.5 6 1.5
v -3.5 6 -1.5
v -2.5 0 1.5
v -2.5 0 0.5
v -2.5 1 1.5
v -2.5 1 0.5
v -2.5 1 -0.5
v -2.5 3 0.5
v -2.5 3 -0.5
v -2.5 4 0.5
v -2.5 4 -0.5
v -2.5 5 0.5
v -2.5 5 -0.5
v -1.5 0 0.5
v -1.5 0 -1.5
v -1.5 1 0.5
v -1.5 1 -0.5
v -1.5 1 -1.5
v -1.5 2 -0.5
v -1.5 2 -1.5
v -1.5 4 1.5
v -1.5 4 0.5
v -1.5 4 -0.5
v -1.5 4 -1.5
v -1.5 5 1.5
v -1.5 5 0.5
v -1.5 5 -0.5
v -1.5 5 -1.5
v -1.5 6 0.5
v -1.5 6 -0.5
v 0.5 2 1.5
v 0.5 2 0.5
v 0.5 2 -0.5
v 0.5 2 -1.5
v 0.5 3 0.5
v 0.5 3 -0.5
v 0.5 4 0.5
v 0.5 4 -0.5
v 0.5 5 1.5
v 0.5 5 -1.5
v 1.5 3 0.5
v 1.5 3 -0.5
v 1.5 4 0.5
v 1.5 4 -0.5
v 2.5 3 1.5
v 2.5 3 0.5
v 2.5 3 -0.5
v 2.5 3 -1.5
v 2.5 4 1.5
v 2.5 4 0.5
v 2.5 4 -0.5
v 2.5 4 -1.5
v 2.5 5 0.5
v 2.5 5 -0.5
v -2.5 4 1.5
v -2.5 4 0.5
v -2.5 4 -0.5
v -2.5 4 -1.5
v -2.5 5 1.5
v -2.5 5 0.5
v -2.5 5 -0.5
v -2.5 5 -1.5
v -2.5 6 0.5
v -2.5 6 -0.5
v -1.5 0 1.5
v -1.5 0 0.5
v -1.5 1 1.5
v -1.5 1 0.5
v -1.5 2 0.5
v -1.5 2 -0.5
v -1.5 3 0.5
v -1.5 3 -0.5
v -1.5 4 0.5
v -1.5 4 -0.5
v -1.5 5 0.5
v -1.5 5 -0.5
v -0.5 0 -0.5
v -0.5 0 -1.5
v -0.5 1 -0.5
v -0.5 1 -1.5
v -0.5 2 -0.5
v -0.5 2 -1.5
v -0.5 3 1.5
v -0.5 3 -1.5
v -0.5 4 0.5
v -0.5 4 -0.5
v -0.5 5 0.5
v -0.5 5 -0.5
v -0.5 6 1.5
v -0.5 6 -1.5
v 0.5 0 0.5
v 0.5 0 -0.5
v 0.5 1 0.5
v 0.5 1 -0.5
v 1.5 1 0.5
v 1.5 1 -0.5
v 1.5 2 0.5
v 1.5 2 -0.5
v 1.5 3 1.5
v 1.5 3 0.5
v 1.5 3 -0.5
v 1.5 3 -1.5
v 1.5 4 1.5
v 1.5 4 0.5
v 1.5 4 -0.5
v 1.5 4 -1.5
v 1.5 5 0.5
v 1.5 5 -0.5
v 2.5 3 0.5
v 2.5 3 -0.5
v 2.5 4 0.5
v 2.5 4 -0.5
v 3.5 2 1.5
v 3.5 2 -1.5
v 3.5 3 0.5
v 3.5 3 -0.5
v 3.5 4 0.5
v 3.5 4 -0.5
v 3.5 5 1.5
v 3.5 5 -1.5
v -3.5 3 1.5
v -3.5 6 1.5
v -2.5 0 1.5
v -2.5 1 1.5
v -2.5 4 1.5
v -2.5 5 1.5
v -1.5 0 1.5
v -1.5 1 1.5
v -1.5 4 1.5
v -1.5 5 1.5
v -0.5 3 1.5
v -0.5 6 1.5
v 0.5 2 1.5
v 0.5 5 1.5
v 1.5 3 1.5
v 1.5 4 1.5
v 2.5 3 1.5
v 2.5 4 1.5
v 3.5 2 1.5
v 3.5 5 1.5
v -2.5 1 0.5
v -2.5 3 0.5
v -2.5 4 0.5
v -2.5 5 0.5
v -1.5 0 0.5
v -1.5 1 0.5
v -1.5 2 0.5
v -1.5 3 0.5
v -1.5 4 0.5
v -1.5 5 0.5
v 0.5 0 0.5
v 0.5 1 0.5
v 0.5 2 0.5
v 1.5 1 0.5
v 1.5 2 0.5
v 1.5 3 0.5
v 1.5 4 0.5
v 2.5 3 0.5
v 2.5 4 0.5
v -3.5 4 -0.5
v -3.5 5 -0.5
v -2.5 4 -0.5
v -2.5 5 -0.5
v -2.5 6 -0.5
v -1.5 4 -0.5
v -1.5 5 -0.5
v -1.5 6 -0.5
v -0.5 4 -0.5
v -0.5 5 -0.5
v 0.5 3 -0.5
v 0.5 4 -0.5
v 1.5 3 -0.5
v 1.5 4 -0.5
v 1.5 5 -0.5
v 2.5 3 -0.5
v 2.5 4 -0.5
v 2.5 5 -0.5
v 3.5 3 -0.5
v 3.5 4 -0.5
v -3.5 4 0.5
v -3.5 5 0.5
v -2.5 0 0.5
v -2.5 1 0.5
v -2.5 4 0.5
v -2.5 5 0.5
v -2.5 6 0.5
v -1.5 0 0.5
v -1.5 1 0.5
v -1.5 4 0.5
v -1.5 5 0.5
v -1.5 6 0.5
v -0.5 4 0.5
v -0.5 5 0.5
v 0.5 3 0.5
v 0.5 4 0.5
v 1.5 3 0.5
v 1.5 4 0.5
v 1.5 5 0.5
v 2.5 3 0.5
v 2.5 4 0.5
v 2.5 5 0.5
v 3.5 3 0.5
v 3.5 4 0.5
v -2.5 1 -0.5
v -2.5 3 -0.5
v -2.5 4 -0.5
v -2.5 5 -0.5
v -1.5 1 -0.5
v -1.5 2 -0.5
v -1.5 3 -0.5
v -1.5 4 -0.5
v -1.5 5 -0.5
v -0.5 0 -0.5
v -0.5 1 -0.5
v -0.5 2 -0.5
v 0.5 0 -0.5
v 0.5 1 -0.5
v 0.5 2 -0.5
v 1.5 1 -0.5
v 1.5 2 -0.5
v 1.5 3 -0.5
v 1.5 4 -0.5
v 2.5 3 -0.5
v 2.5 4 -0.5
v -3.5 3 -1.5
v -3.5 6 -1.5
v -2.5 4 -1.5
v -2.5 5 -1.5
v -1.5 0 -1.5
v -1.5 1 -1.5
v -1.5 2 -1.5
v -1.5 4 -1.5
v -1.5 5 -1.5
v -0.5 0 -1.5
v -0.5 1 -1.5
v -0.5 2 -1.5
v -0.5 3 -1.5
v -0.5 6 -1.5
v 0.5 2 -1.5
v 0.5 5 -1.5
v 1.5 3 -1.5
v 1.5 4 -1.5
v 2.5 3 -1.5
v 2.5 4 -1.5
v 3.5 2 -1.5
v 3.5 5 -1.5
v -2.5 0 1.5
v -1.5 0 1.5
v -2.5 0 0.5
v -1.5 0 0.5
v 0.5 0 0.5
v -0.5 0 -0.5
v 0.5 0 -0.5
v -1.5 0 -1.5
v -0.5 0 -1.5
v -2.5 1 0.5
v -1.5 1 0.5
v 0.5 1 0.5
v 1.5 1 0.5
v -2.5 1 -0.5
v -1.5 1 -0.5
v 0.5 1 -0.5
v 1.5 1 -0.5
v 0.5 2 1.5
v 3.5 2 1.5
v 0.5 2 0.5
v 1.5 2 0.5
v 2.5 2 0.5
v 0.5 2 -0.5
v 1.5 2 -0.5
v 2.5 2 -0.5
v 0.5 2 -1.5
v 3.5 2 -1.5
v -3.5 3 1.5
v -0.5 3 1.5
v -2.5 3 0.5
v -1.5 3 0.5
v -2.5 3 -0.5
v -1.5 3 -0.5
v -3.5 3 -1.5
v -0.5 3 -1.5
v 1.5 4 1.5
v 2.5 4 1.5
v 0.5 4 0.5
v 1.5 4 0.5
v 2.5 4 0.5
v 3.5 4 0.5
v 0.5 4 -0.5
v 1.5 4 -0.5
v 2.5 4 -0.5
v 3.5 4 -0.5
v 1.5 4 -1.5
v 2.5 4 -1.5
v -2.5 5 1.5
v -1.5 5 1.5
v -3.5 5 0.5
v -2.5 5 0.5
v -1.5 5 0.5
v -0.5 5 0.5
v -3.5 5 -0.5
v -2.5 5 -0.5
v -1.5 5 -0.5
v -0.5 5 -0.5
v -2.5 5 -1.5
v -1.5 5 -1.5
v -2.5 1 1.5
v -1.5 1 1.5
v -2.5 1 0.5
v -1.5 1 0.5
v -1.5 2 0.5
v 0.5 2 0.5
v -1.5 2 -0.5
v -0.5 2 -0.5
v 0.5 2 -0.5
v -1.5 2 -1.5
v -0.5 2 -1.5
v 1.5 3 1.5
v 2.5 3 1.5
v 0.5 3 0.5
v 1.5 3 0.5
v 2.5 3 0.5
v 3.5 3 0.5
v 0.5 3 -0.5
v 1.5 3 -0.5
v 2.5 3 -0.5
v 3.5 3 -0.5
v 1.5 3 -1.5
v 2.5 3 -1.5
v -2.5 4 1.5
v -1.5 4 1.5
v -3.5 4 0.5
v -2.5 4 0.5
v -1.5 4 0.5
v -0.5 4 0.5
v 1.5 4 0.5
v 2.5 4 0.5
v -3.5 4 -0.5
v -2.5 4 -0.5
v -1.5 4 -0.5
v -0.5 4 -0.5
v 1.5 4 -0.5
v 2.5 4 -0.5
v -2.5 4 -1.5
v -1.5 4 -1.5
v 0.5 5 1.5
v 3.5 5 1.5
v -2.5 5 0.5
v -1.5 5 0.5
v 1.5 5 0.5
v 2.5 5 0.5
v -2.5 5 -0.5
v -1.5 5 -0.5
v 1.5 5 -0.5
v 2.5 5 -0.5
v 0.5 5 -1.5
v 3.5 5 -1.5
v -3.5 6 1.5
v -0.5 6 1.5
v -2.5 6 0.5
v -1.5 6 0.5
v -2.5 6 -0.5
v -1.5 6 -0.5
v -3.5 6 -1.5
v -0.5 6 -1.5

# faces
f 3/3/1 2/3/1 1/3/1
f 4/3/1 2/3/1 3/3/1
f 5/3/1 3/3/1 1/3/1
f 6/3/1 2/3/1 4/3/1
f 7/3/1 5/3/1 1/3/1
f 7/3/1 6/3/1 5/3/1
f 8/3/1 2/3/1 6/3/1
f 8/3/1 6/3/1 7/3/1
f 11/1/1 10/1/1 9/1/1
f 12/1/1 10/1/1 11/1/1
f 14/1/1 13/1/1 12/1/1
f 15/1/1 13/1/1 14/1/1
f 18/2/1 17/2/1 16/2/1
f 19/2/1 17/2/1 18/2/1
f 22/1/1 21/1/1 20/1/1
f 23/1/1 21/1/1 22/1/1
f 24/1/1 21/1/1 23/1/1
f 25/3/1 24/3/1 23/3/1
f 26/3/1 24/3/1 25/3/1
f 31/3/1 28/3/1 27/3/1
f 32/3/1 28/3/1 31/3/1
f 33/3/1 30/3/1 29/3/1
f 34/3/1 30/3/1 33/3/1
f 35/3/1 33/3/1 32/3/1
f 36/3/1 33/3/1 35/3/1
f 41/3/1 38/3/1 37/3/1
f 41/1/1 39/1/1 38/1/1
f 42/3/1 40/3/1 39/3/1
f 42/1/1 39/1/1 41/1/1
f 43/3/1 41/3/1 37/3/1
f 44/3/1 40/3/1 42/3/1
f 45/3/1 43/3/1 37/3/1
f 45/3/1 44/3/1 43/3/1
f 46/3/1 40/3/1 44/3/1
f 46/3/1 44/3/1 45/3/1
f 49/2/1 48/2/1 47/2/1
f 50/2/1 48/2/1 49/2/1
f 55/3/1 52/3/1 51/3/1
f 56/3/1 52/3/1 55/3/1
f 57/3/1 54/3/1 53/3/1
f 58/3/1 54/3/1 57/3/1
f 59/3/1 57/3/1 56/3/1
f 60/3/1 57/3/1 59/3/1
f 61/3/2 62/3/2 65/3/2
f 65/3/2 62/3/2 66/3/2
f 63/3/2 64/3/2 67/3/2
f 67/3/2 64/3/2 68/3/2
f 66/3/2 67/3/2 69/3/2
f 69/3/2 67/3/2 70/3/2
f 71/1/2 72/1/2 73/1/2
f 73/1/2 72/1/2 74/1/2
f 75/1/2 76/1/2 77/1/2
f 77/1/2 76/1/2 78/1/2
f 79/2/2 80/2/2 81/2/2
f 81/2/2 80/2/2 82/2/2
f 83/1/2 84/1/2 85/1/2
f 85/1/2 84/1/2 86/1/2
f 85/3/2 86/3/2 87/3/2
f 87/3/2 86/3/2 88/3/2
f 89/3/2 90/3/2 91/3/2
f 91/3/2 90/3/2 92/3/2
f 89/3/2 91/3/2 93/3/2
f 92/3/2 90/3/2 94/3/2
f 89/3/2 93/3/2 95/3/2
f 93/3/2 94/3/2 95/3/2
f 94/3/2 90/3/2 96/3/2
f 95/3/2 94/3/2 96/3/2
f 97/1/2 98/1/2 99/1/2
f 99/1/2 98/1/2 100/1/2
f 101/1/2 102/1/2 103/1/2
f 103/1/2 102/1/2 104/1/2
f 105/3/2 106/3/2 109/3/2
f 109/3/2 106/3/2 110/3/2
f 107/3/2 108/3/2 111/3/2
f 111/3/2 108/3/2 112/3/2
f 110/3/2 111/3/2 113/3/2
f 113/3/2 111/3/2 114/3/2
f 115/2/2 116/2/2 117/2/2
f 117/2/2 116/2/2 118/2/2
f 119/3/2 120/3/2 121/3/2
f 121/3/2 120/3/2 122/3/2
f 119/3/2 121/3/2 123/3/2
f 122/3/2 120/3/2 124/3/2
f 119/3/2 123/3/2 125/3/2
f 123/3/2 124/3/2 125/3/2
f 124/3/2 120/3/2 126/3/2
f 125/3/2 124/3/2 126/3/2
f 131/3/3 128/3/3 127/3/3
f 132/3/3 128/3/3 131/3/3
f 133/1/3 130/1/3 129/1/3
f 134/1/3 130/1/3 133/1/3
f 135/3/3 131/3/3 127/3/3
f 136/3/3 128/3/3 132/3/3
f 137/3/3 135/3/3 127/3/3
f 137/3/3 136/3/3 135/3/3
f 138/3/3 128/3/3 136/3/3
f 138/3/3 136/3/3 137/3/3
f 141/3/3 140/3/3 139/3/3
f 142/3/3 140/3/3 141/3/3
f 143/3/3 141/3/3 139/3/3
f 144/3/3 140/3/3 142/3/3
f 145/3/3 143/3/3 139/3/3
f 145/3/3 144/3/3 143/3/3
f 146/3/3 140/3/3 144/3/3
f 146/3/3 144/3/3 145/3/3
f 152/1/3 148/1/3 147/1/3
f 153/1/3 148/1/3 152/1/3
f 154/1/3 148/1/3 153/1/3
f 155/2/3 150/2/3 149/2/3
f 156/2/3 150/2/3 155/2/3
f 157/1/3 152/1/3 151/1/3
f 157/1/3 153/1/3 152/1/3
f 158/1/3 153/1/3 157/1/3
f 159/1/3 153/1/3 158/1/3
f 160/1/3 159/1/3 158/1/3
f 161/1/3 159/1/3 160/1/3
f 164/2/3 163/2/3 162/2/3
f 165/2/3 163/2/3 164/2/3
f 168/3/3 167/3/3 166/3/3
f 169/3/3 167/3/3 168/3/3
f 172/3/3 170/3/3 169/3/3
f 173/3/3 170/3/3 172/3/3
f 174/3/3 172/3/3 171/3/3
f 175/3/3 172/3/3 174/3/3
f 178/3/3 177/3/3 176/3/3
f 179/3/3 177/3/3 178/3/3
f 182/3/3 180/3/3 179/3/3
f 183/3/3 180/3/3 182/3/3
f 184/3/3 182/3/3 181/3/3
f 185/3/3 182/3/3 184/3/3
f 186/3/4 187/3/4 190/3/4
f 190/3/4 187/3/4 191/3/4
f 188/1/4 189/1/4 193/1/4
f 193/1/4 189/1/4 194/1/4
f 191/3/4 192/3/4 196/3/4
f 196/3/4 192/3/4 197/3/4
f 195/3/4 196/3/4 198/3/4
f 198/3/4 196/3/4 199/3/4
f 200/3/4 201/3/4 202/3/4
f 202/3/4 201/3/4 203/3/4
f 203/3/4 204/3/4 206/3/4
f 206/3/4 204/3/4 207/3/4
f 205/3/4 206/3/4 208/3/4
f 208/3/4 206/3/4 209/3/4
f 210/1/4 211/1/4 214/1/4
f 214/1/4 211/1/4 215/1/4
f 215/1/4 211/1/4 216/1/4
f 212/2/4 213/2/4 217/2/4
f 217/2/4 213/2/4 218/2/4
f 219/1/4 220/1/4 222/1/4
f 220/1/4 221/1/4 222/1/4
f 222/1/4 221/1/4 223/1/4
f 223/1/4 221/1/4 224/1/4
f 223/1/4 224/1/4 225/1/4
f 225/1/4 224/1/4 226/1/4
f 227/2/4 228/2/4 229/2/4
f 229/2/4 228/2/4 230/2/4
f 231/3/4 232/3/4 233/3/4
f 233/3/4 232/3/4 234/3/4
f 231/3/4 233/3/4 238/3/4
f 234/3/4 232/3/4 239/3/4
f 235/1/4 236/1/4 240/1/4
f 236/3/4 237/3/4 241/3/4
f 240/1/4 236/1/4 241/1/4
f 241/3/4 237/3/4 242/3/4
f 231/3/4 238/3/4 243/3/4
f 238/3/4 239/3/4 243/3/4
f 239/3/4 232/3/4 244/3/4
f 243/3/4 239/3/4 244/3/4
f 245/3/4 246/3/4 247/3/4
f 247/3/4 246/3/4 248/3/4
f 245/3/4 247/3/4 249/3/4
f 248/3/4 246/3/4 250/3/4
f 245/3/4 249/3/4 251/3/4
f 249/3/4 250/3/4 251/3/4
f 250/3/4 246/3/4 252/3/4
f 251/3/4 250/3/4 252/3/4
f 255/1/5 254/1/5 253/1/5
f 256/1/5 254/1/5 255/1/5
f 258/1/5 257/1/5 256/1/5
f 259/1/5 257/1/5 258/1/5
f 260/1/5 258/1/5 256/1/5
f 261/1/5 258/1/5 260/1/5
f 266/1/5 263/1/5 262/1/5
f 267/1/5 263/1/5 266/1/5
f 268/1/5 265/1/5 264/1/5
f 269/1/5 265/1/5 268/1/5
f 272/3/5 271/3/5 270/3/5
f 273/3/5 271/3/5 272/3/5
f 274/3/5 271/3/5 273/3/5
f 276/1/5 274/1/5 273/1/5
f 277/3/5 271/3/5 274/3/5
f 277/1/5 274/1/5 276/1/5
f 278/3/5 276/3/5 275/3/5
f 278/3/5 277/3/5 276/3/5
f 279/3/5 271/3/5 277/3/5
f 279/3/5 277/3/5 278/3/5
f 282/3/5 281/3/5 280/3/5
f 283/3/5 281/3/5 282/3/5
f 284/3/5 282/3/5 280/3/5
f 285/3/5 281/3/5 283/3/5
f 286/3/5 284/3/5 280/3/5
f 286/3/5 285/3/5 284/3/5
f 287/3/5 281/3/5 285/3/5
f 287/3/5 285/3/5 286/3/5
f 291/3/5 289/3/5 288/3/5
f 292/3/5 289/3/5 291/3/5
f 294/3/5 291/3/5 290/3/5
f 295/3/5 291/3/5 294/3/5
f 296/3/5 293/3/5 292/3/5
f 297/3/5 293/3/5 296/3/5
f 298/3/5 296/3/5 295/3/5
f 299/3/5 296/3/5 298/3/5
f 303/3/5 301/3/5 300/3/5
f 304/3/5 301/3/5 303/3/5
f 306/3/5 303/3/5 302/3/5
f 307/3/5 303/3/5 306/3/5
f 308/3/5 305/3/5 304/3/5
f 309/3/5 305/3/5 308/3/5
f 310/3/5 308/3/5 307/3/5
f 311/3/5 308/3/5 310/3/5
f 312/1/6 313/1/6 314/1/6
f 314/1/6 313/1/6 315/1/6
f 316/1/6 317/1/6 318/1/6
f 318/1/6 317/1/6 319/1/6
f 319/1/6 317/1/6 320/1/6
f 318/3/6 319/3/6 321/3/6
f 321/3/6 319/3/6 322/3/6
f 323/3/6 324/3/6 326/3/6
f 326/3/6 324/3/6 327/3/6
f 325/1/6 326/1/6 329/1/6
f 329/1/6 326/1/6 330/1/6
f 327/3/6 328/3/6 331/3/6
f 331/3/6 328/3/6 332/3/6
f 330/3/6 331/3/6 333/3/6
f 333/3/6 331/3/6 334/3/6
f 335/3/6 336/3/6 338/3/6
f 338/3/6 336/3/6 339/3/6
f 337/3/6 338/3/6 343/3/6
f 343/3/6 338/3/6 344/3/6
f 339/3/6 340/3/6 345/3/6
f 345/3/6 340/3/6 346/3/6
f 341/2/6 342/2/6 347/2/6
f 347/2/6 342/2/6 348/2/6
f 344/3/6 345/3/6 349/3/6
f 349/3/6 345/3/6 350/3/6
f 351/3/6 352/3/6 355/3/6
f 355/3/6 352/3/6 356/3/6
f 353/2/6 354/2/6 357/2/6
f 357/2/6 354/2/6 358/2/6
f 351/3/6 355/3/6 359/3/6
f 356/3/6 352/3/6 360/3/6
f 351/3/6 359/3/6 361/3/6
f 359/3/6 360/3/6 361/3/6
f 360/3/6 352/3/6 362/3/6
f 361/3/6 360/3/6 362/3/6
f 363/3/6 364/3/6 365/3/6
f 365/3/6 364/3/6 366/3/6
f 363/3/6 365/3/6 367/3/6
f 366/3/6 364/3/6 368/3/6
f 363/3/6 367/3/6 369/3/6
f 367/3/6 368/3/6 369/3/6
f 368/3/6 364/3/6 370/3/6
f 369/3/6 368/3/6 370/3/6
