# MagicaVoxel @ Ephtracy

# material
mtllib Tree_type3_02.mtl
usemtl palette

# normals
vn -1 0 0
vn 1 0 0
vn 0 0 1
vn 0 0 -1
vn 0 -1 0
vn 0 1 0

# texcoords
vt 0.466797 0.5
vt 0.509766 0.5
vt 0.513672 0.5

# verts
v -3 3 3
v -3 3 -3
v -3 5 3
v -3 5 -3
v -3 7 3
v -3 7 -3
v -3 9 3
v -3 9 -3
v -3 11 3
v -3 11 -3
v -3 13 3
v -3 13 -3
v -3 15 3
v -3 15 -3
v -1 0 1
v -1 0 -1
v -1 3 1
v -1 3 -1
v 1 0 1
v 1 0 -1
v 1 3 1
v 1 3 -1
v 3 3 3
v 3 3 -3
v 3 5 3
v 3 5 -3
v 3 7 3
v 3 7 -3
v 3 9 3
v 3 9 -3
v 3 11 3
v 3 11 -3
v 3 13 3
v 3 13 -3
v 3 15 3
v 3 15 -3
v -3 3 3
v -3 5 3
v -3 7 3
v -3 9 3
v -3 11 3
v -3 13 3
v -3 15 3
v -1 9 3
v -1 10 3
v 0 9 3
v 0 10 3
v 1 10 3
v 1 11 3
v 2 10 3
v 2 11 3
v 3 3 3
v 3 5 3
v 3 7 3
v 3 9 3
v 3 11 3
v 3 13 3
v 3 15 3
v -1 0 1
v -1 3 1
v 1 0 1
v 1 3 1
v -1 0 -1
v -1 3 -1
v 1 0 -1
v 1 3 -1
v -3 3 -3
v -3 5 -3
v -3 7 -3
v -3 9 -3
v -3 11 -3
v -3 13 -3
v -3 15 -3
v -2 8 -3
v -2 9 -3
v -1 8 -3
v -1 9 -3
v 3 3 -3
v 3 5 -3
v 3 7 -3
v 3 9 -3
v 3 11 -3
v 3 13 -3
v 3 15 -3
v -1 0 1
v 1 0 1
v -1 0 -1
v 1 0 -1
v -3 3 3
v 3 3 3
v -1 3 1
v 1 3 1
v -1 3 -1
v 1 3 -1
v -3 3 -3
v 3 3 -3
v -3 15 3
v 3 15 3
v 1 15 -0
v 2 15 -0
v 1 15 -1
v 2 15 -1
v -3 15 -3
v 3 15 -3

# faces
f 3/2/1 2/2/1 1/2/1
f 4/2/1 2/2/1 3/2/1
f 5/3/1 4/3/1 3/3/1
f 6/3/1 4/3/1 5/3/1
f 7/2/1 6/2/1 5/2/1
f 8/2/1 6/2/1 7/2/1
f 9/3/1 8/3/1 7/3/1
f 10/3/1 8/3/1 9/3/1
f 11/2/1 10/2/1 9/2/1
f 12/2/1 10/2/1 11/2/1
f 13/3/1 12/3/1 11/3/1
f 14/3/1 12/3/1 13/3/1
f 17/1/1 16/1/1 15/1/1
f 18/1/1 16/1/1 17/1/1
f 19/1/2 20/1/2 21/1/2
f 21/1/2 20/1/2 22/1/2
f 23/2/2 24/2/2 25/2/2
f 25/2/2 24/2/2 26/2/2
f 25/3/2 26/3/2 27/3/2
f 27/3/2 26/3/2 28/3/2
f 27/2/2 28/2/2 29/2/2
f 29/2/2 28/2/2 30/2/2
f 29/3/2 30/3/2 31/3/2
f 31/3/2 30/3/2 32/3/2
f 31/2/2 32/2/2 33/2/2
f 33/2/2 32/2/2 34/2/2
f 33/3/2 34/3/2 35/3/2
f 35/3/2 34/3/2 36/3/2
f 44/2/3 40/2/3 39/2/3
f 44/3/3 41/3/3 40/3/3
f 45/3/3 41/3/3 44/3/3
f 46/2/3 44/2/3 39/2/3
f 46/1/3 45/1/3 44/1/3
f 47/3/3 41/3/3 45/3/3
f 47/1/3 45/1/3 46/1/3
f 48/3/3 47/3/3 46/3/3
f 48/3/3 41/3/3 47/3/3
f 49/2/3 42/2/3 41/2/3
f 49/3/3 41/3/3 48/3/3
f 50/3/3 48/3/3 46/3/3
f 50/1/3 49/1/3 48/1/3
f 51/2/3 42/2/3 49/2/3
f 51/1/3 49/1/3 50/1/3
f 52/2/3 38/2/3 37/2/3
f 53/3/3 39/3/3 38/3/3
f 53/2/3 38/2/3 52/2/3
f 54/2/3 46/2/3 39/2/3
f 54/3/3 39/3/3 53/3/3
f 55/3/3 50/3/3 46/3/3
f 55/2/3 46/2/3 54/2/3
f 55/3/3 51/3/3 50/3/3
f 56/2/3 42/2/3 51/2/3
f 56/3/3 51/3/3 55/3/3
f 57/3/3 43/3/3 42/3/3
f 57/2/3 42/2/3 56/2/3
f 58/3/3 43/3/3 57/3/3
f 61/1/3 60/1/3 59/1/3
f 62/1/3 60/1/3 61/1/3
f 63/1/4 64/1/4 65/1/4
f 65/1/4 64/1/4 66/1/4
f 69/2/4 70/2/4 74/2/4
f 70/3/4 71/3/4 75/3/4
f 74/2/4 70/2/4 75/2/4
f 69/2/4 74/2/4 76/2/4
f 74/1/4 75/1/4 76/1/4
f 75/3/4 71/3/4 77/3/4
f 76/1/4 75/1/4 77/1/4
f 67/2/4 68/2/4 78/2/4
f 68/3/4 69/3/4 79/3/4
f 78/2/4 68/2/4 79/2/4
f 69/2/4 76/2/4 80/2/4
f 79/3/4 69/3/4 80/3/4
f 76/2/4 77/2/4 80/2/4
f 77/3/4 71/3/4 81/3/4
f 80/2/4 77/2/4 81/2/4
f 71/2/4 72/2/4 82/2/4
f 81/3/4 71/3/4 82/3/4
f 72/3/4 73/3/4 83/3/4
f 82/2/4 72/2/4 83/2/4
f 83/3/4 73/3/4 84/3/4
f 87/1/5 86/1/5 85/1/5
f 88/1/5 86/1/5 87/1/5
f 91/2/5 90/2/5 89/2/5
f 92/2/5 90/2/5 91/2/5
f 93/2/5 91/2/5 89/2/5
f 94/2/5 90/2/5 92/2/5
f 95/2/5 93/2/5 89/2/5
f 95/2/5 94/2/5 93/2/5
f 96/2/5 90/2/5 94/2/5
f 96/2/5 94/2/5 95/2/5
f 97/3/6 98/3/6 99/3/6
f 99/3/6 98/3/6 100/3/6
f 97/3/6 99/3/6 101/3/6
f 99/1/6 100/1/6 101/1/6
f 100/3/6 98/3/6 102/3/6
f 101/1/6 100/1/6 102/1/6
f 97/3/6 101/3/6 103/3/6
f 101/3/6 102/3/6 103/3/6
f 102/3/6 98/3/6 104/3/6
f 103/3/6 102/3/6 104/3/6
