# MagicaVoxel @ Ephtracy

# material
mtllib Tree_type2_02.mtl
usemtl palette

# normals
vn -1 0 0
vn 1 0 0
vn 0 0 1
vn 0 0 -1
vn 0 -1 0
vn 0 1 0

# texcoords
vt 0.279297 0.5
vt 0.513672 0.5

# verts
v -4 7 1.5
v -4 7 -1.5
v -4 9 1.5
v -4 9 -1.5
v -3 6 1.5
v -3 6 -1.5
v -3 7 1.5
v -3 7 -1.5
v -3 8 2.5
v -3 8 1.5
v -3 8 -1.5
v -3 8 -2.5
v -3 9 2.5
v -3 9 1.5
v -3 9 -1.5
v -3 9 -2.5
v -3 10 1.5
v -3 10 -1.5
v -3 11 1.5
v -3 11 -1.5
v -3 12 1.5
v -3 12 -1.5
v -2 0 0.5
v -2 0 -1.5
v -2 1 -0.5
v -2 1 -1.5
v -2 2 0.5
v -2 2 -0.5
v -2 5 1.5
v -2 5 -1.5
v -2 6 2.5
v -2 6 1.5
v -2 6 -1.5
v -2 6 -2.5
v -2 7 2.5
v -2 7 1.5
v -2 7 -1.5
v -2 7 -2.5
v -2 10 1.5
v -2 10 -1.5
v -2 11 2.5
v -2 11 1.5
v -2 11 -1.5
v -2 11 -2.5
v -2 12 2.5
v -2 12 1.5
v -2 12 -1.5
v -2 12 -2.5
v -2 13 1.5
v -2 13 -1.5
v -1 0 1.5
v -1 0 0.5
v -1 1 -0.5
v -1 1 -1.5
v -1 2 0.5
v -1 2 -0.5
v -1 3 1.5
v -1 3 0.5
v -1 3 -0.5
v -1 3 -1.5
v -1 4 1.5
v -1 4 0.5
v -1 4 -0.5
v -1 4 -1.5
v -1 5 2.5
v -1 5 1.5
v -1 5 0.5
v -1 5 -0.5
v -1 5 -1.5
v -1 5 -2.5
v -1 6 3.5
v -1 6 2.5
v -1 6 1.5
v -1 6 -1.5
v -1 6 -2.5
v -1 6 -3.5
v -1 7 3.5
v -1 7 2.5
v -1 7 1.5
v -1 7 -1.5
v -1 7 -2.5
v -1 7 -3.5
v -1 8 2.5
v -1 8 1.5
v -1 8 -1.5
v -1 8 -2.5
v -1 13 0.5
v -1 13 -0.5
v -1 14 0.5
v -1 14 -0.5
v 0 0 1.5
v 0 0 0.5
v 0 0 -0.5
v 0 0 -1.5
v 0 3 1.5
v 0 3 0.5
v 0 3 -0.5
v 0 3 -1.5
v 0 8 2.5
v 0 8 1.5
v 0 8 -1.5
v 0 8 -2.5
v 0 9 2.5
v 0 9 1.5
v 0 9 0.5
v 0 9 -0.5
v 0 9 -1.5
v 0 9 -2.5
v 0 10 1.5
v 0 10 0.5
v 0 10 -0.5
v 0 10 -1.5
v 0 13 0.5
v 0 13 -0.5
v 0 14 0.5
v 0 14 -0.5
v 1 1 0.5
v 1 1 -0.5
v 1 4 0.5
v 1 4 -0.5
v 1 9 0.5
v 1 9 -0.5
v 1 10 1.5
v 1 10 0.5
v 1 10 -0.5
v 1 10 -1.5
v 1 11 2.5
v 1 11 1.5
v 1 11 -1.5
v 1 11 -2.5
v 1 12 2.5
v 1 12 1.5
v 1 12 -1.5
v 1 12 -2.5
v 1 13 1.5
v 1 13 -1.5
v 2 0 0.5
v 2 0 -0.5
v 2 1 0.5
v 2 1 -0.5
v 2 4 1.5
v 2 4 -1.5
v 2 5 2.5
v 2 5 1.5
v 2 5 -1.5
v 2 5 -2.5
v 2 6 3.5
v 2 6 2.5
v 2 6 1.5
v 2 6 -1.5
v 2 6 -2.5
v 2 6 -3.5
v 2 7 3.5
v 2 7 2.5
v 2 7 1.5
v 2 7 -1.5
v 2 7 -2.5
v 2 7 -3.5
v 2 8 2.5
v 2 8 1.5
v 2 8 -1.5
v 2 8 -2.5
v 2 9 1.5
v 2 9 -1.5
v 2 11 1.5
v 2 11 -1.5
v 2 12 1.5
v 2 12 -1.5
v 3 5 1.5
v 3 5 -1.5
v 3 6 2.5
v 3 6 1.5
v 3 6 -1.5
v 3 6 -2.5
v 3 7 2.5
v 3 7 1.5
v 3 7 -1.5
v 3 7 -2.5
v 3 8 1.5
v 3 8 -1.5
v 4 6 1.5
v 4 6 -1.5
v 4 7 1.5
v 4 7 -1.5
v -1 6 3.5
v -1 7 3.5
v 2 6 3.5
v 2 7 3.5
v -3 8 2.5
v -3 9 2.5
v -2 6 2.5
v -2 7 2.5
v -2 11 2.5
v -2 12 2.5
v -1 5 2.5
v -1 6 2.5
v -1 7 2.5
v -1 8 2.5
v 0 8 2.5
v 0 9 2.5
v 1 11 2.5
v 1 12 2.5
v 2 5 2.5
v 2 6 2.5
v 2 7 2.5
v 2 8 2.5
v 3 6 2.5
v 3 7 2.5
v -4 7 1.5
v -4 9 1.5
v -3 6 1.5
v -3 7 1.5
v -3 8 1.5
v -3 9 1.5
v -3 10 1.5
v -3 11 1.5
v -3 12 1.5
v -2 5 1.5
v -2 6 1.5
v -2 7 1.5
v -2 10 1.5
v -2 11 1.5
v -2 12 1.5
v -2 13 1.5
v -1 0 1.5
v -1 3 1.5
v -1 4 1.5
v -1 5 1.5
v -1 6 1.5
v -1 7 1.5
v -1 8 1.5
v 0 0 1.5
v 0 3 1.5
v 0 8 1.5
v 0 9 1.5
v 0 10 1.5
v 1 10 1.5
v 1 11 1.5
v 1 12 1.5
v 1 13 1.5
v 2 4 1.5
v 2 5 1.5
v 2 6 1.5
v 2 7 1.5
v 2 8 1.5
v 2 9 1.5
v 2 11 1.5
v 2 12 1.5
v 3 5 1.5
v 3 6 1.5
v 3 7 1.5
v 3 8 1.5
v 4 6 1.5
v 4 7 1.5
v -2 0 0.5
v -2 2 0.5
v -1 0 0.5
v -1 2 0.5
v -1 3 0.5
v -1 4 0.5
v -1 13 0.5
v -1 14 0.5
v 0 0 0.5
v 0 3 0.5
v 0 9 0.5
v 0 10 0.5
v 0 13 0.5
v 0 14 0.5
v 1 1 0.5
v 1 4 0.5
v 1 9 0.5
v 1 10 0.5
v 2 0 0.5
v 2 1 0.5
v -2 1 -0.5
v -2 2 -0.5
v -1 1 -0.5
v -1 2 -0.5
v -1 3 -0.5
v -1 4 -0.5
v -1 13 -0.5
v -1 14 -0.5
v 0 0 -0.5
v 0 3 -0.5
v 0 9 -0.5
v 0 10 -0.5
v 0 13 -0.5
v 0 14 -0.5
v 1 1 -0.5
v 1 4 -0.5
v 1 9 -0.5
v 1 10 -0.5
v 2 0 -0.5
v 2 1 -0.5
v -4 7 -1.5
v -4 9 -1.5
v -3 6 -1.5
v -3 7 -1.5
v -3 8 -1.5
v -3 9 -1.5
v -3 10 -1.5
v -3 11 -1.5
v -3 12 -1.5
v -2 0 -1.5
v -2 1 -1.5
v -2 5 -1.5
v -2 6 -1.5
v -2 7 -1.5
v -2 10 -1.5
v -2 11 -1.5
v -2 12 -1.5
v -2 13 -1.5
v -1 1 -1.5
v -1 3 -1.5
v -1 4 -1.5
v -1 5 -1.5
v -1 6 -1.5
v -1 7 -1.5
v -1 8 -1.5
v 0 0 -1.5
v 0 3 -1.5
v 0 8 -1.5
v 0 9 -1.5
v 0 10 -1.5
v 1 10 -1.5
v 1 11 -1.5
v 1 12 -1.5
v 1 13 -1.5
v 2 4 -1.5
v 2 5 -1.5
v 2 6 -1.5
v 2 7 -1.5
v 2 8 -1.5
v 2 9 -1.5
v 2 11 -1.5
v 2 12 -1.5
v 3 5 -1.5
v 3 6 -1.5
v 3 7 -1.5
v 3 8 -1.5
v 4 6 -1.5
v 4 7 -1.5
v -3 8 -2.5
v -3 9 -2.5
v -2 6 -2.5
v -2 7 -2.5
v -2 11 -2.5
v -2 12 -2.5
v -1 5 -2.5
v -1 6 -2.5
v -1 7 -2.5
v -1 8 -2.5
v 0 8 -2.5
v 0 9 -2.5
v 1 11 -2.5
v 1 12 -2.5
v 2 5 -2.5
v 2 6 -2.5
v 2 7 -2.5
v 2 8 -2.5
v 3 6 -2.5
v 3 7 -2.5
v -1 6 -3.5
v -1 7 -3.5
v 2 6 -3.5
v 2 7 -3.5
v -1 0 1.5
v 0 0 1.5
v -2 0 0.5
v -1 0 0.5
v 0 0 0.5
v 2 0 0.5
v 0 0 -0.5
v 2 0 -0.5
v -2 0 -1.5
v 0 0 -1.5
v -1 4 1.5
v 2 4 1.5
v -1 4 0.5
v 1 4 0.5
v -1 4 -0.5
v 1 4 -0.5
v -1 4 -1.5
v 2 4 -1.5
v -1 5 2.5
v 2 5 2.5
v -2 5 1.5
v -1 5 1.5
v 2 5 1.5
v 3 5 1.5
v -1 5 0.5
v -1 5 -0.5
v -2 5 -1.5
v -1 5 -1.5
v 2 5 -1.5
v 3 5 -1.5
v -1 5 -2.5
v 2 5 -2.5
v -1 6 3.5
v 2 6 3.5
v -2 6 2.5
v -1 6 2.5
v 2 6 2.5
v 3 6 2.5
v -3 6 1.5
v -2 6 1.5
v -1 6 1.5
v 2 6 1.5
v 3 6 1.5
v 4 6 1.5
v -3 6 -1.5
v -2 6 -1.5
v -1 6 -1.5
v 2 6 -1.5
v 3 6 -1.5
v 4 6 -1.5
v -2 6 -2.5
v -1 6 -2.5
v 2 6 -2.5
v 3 6 -2.5
v -1 6 -3.5
v 2 6 -3.5
v -4 7 1.5
v -3 7 1.5
v -4 7 -1.5
v -3 7 -1.5
v -3 8 2.5
v -1 8 2.5
v -3 8 1.5
v -1 8 1.5
v -3 8 -1.5
v -1 8 -1.5
v -3 8 -2.5
v -1 8 -2.5
v 0 10 1.5
v 1 10 1.5
v 0 10 0.5
v 1 10 0.5
v 0 10 -0.5
v 1 10 -0.5
v 0 10 -1.5
v 1 10 -1.5
v -2 11 2.5
v 1 11 2.5
v -3 11 1.5
v -2 11 1.5
v 1 11 1.5
v 2 11 1.5
v -3 11 -1.5
v -2 11 -1.5
v 1 11 -1.5
v 2 11 -1.5
v -2 11 -2.5
v 1 11 -2.5
v 1 1 0.5
v 2 1 0.5
v -2 1 -0.5
v -1 1 -0.5
v 1 1 -0.5
v 2 1 -0.5
v -2 1 -1.5
v -1 1 -1.5
v -2 2 0.5
v -1 2 0.5
v -2 2 -0.5
v -1 2 -0.5
v -1 3 1.5
v 0 3 1.5
v -1 3 0.5
v 0 3 0.5
v -1 3 -0.5
v 0 3 -0.5
v -1 3 -1.5
v 0 3 -1.5
v -1 7 3.5
v 2 7 3.5
v -2 7 2.5
v -1 7 2.5
v 2 7 2.5
v 3 7 2.5
v -2 7 1.5
v -1 7 1.5
v 2 7 1.5
v 3 7 1.5
v 4 7 1.5
v -2 7 -1.5
v -1 7 -1.5
v 2 7 -1.5
v 3 7 -1.5
v 4 7 -1.5
v -2 7 -2.5
v -1 7 -2.5
v 2 7 -2.5
v 3 7 -2.5
v -1 7 -3.5
v 2 7 -3.5
v 0 8 2.5
v 2 8 2.5
v 0 8 1.5
v 2 8 1.5
v 3 8 1.5
v 0 8 -1.5
v 2 8 -1.5
v 3 8 -1.5
v 0 8 -2.5
v 2 8 -2.5
v -3 9 2.5
v 0 9 2.5
v -4 9 1.5
v -3 9 1.5
v 0 9 1.5
v 2 9 1.5
v 0 9 0.5
v 1 9 0.5
v 0 9 -0.5
v 1 9 -0.5
v -4 9 -1.5
v -3 9 -1.5
v 0 9 -1.5
v 2 9 -1.5
v -3 9 -2.5
v 0 9 -2.5
v -3 10 1.5
v -2 10 1.5
v -3 10 -1.5
v -2 10 -1.5
v -2 12 2.5
v 1 12 2.5
v -3 12 1.5
v -2 12 1.5
v 1 12 1.5
v 2 12 1.5
v -3 12 -1.5
v -2 12 -1.5
v 1 12 -1.5
v 2 12 -1.5
v -2 12 -2.5
v 1 12 -2.5
v -2 13 1.5
v 1 13 1.5
v -1 13 0.5
v 0 13 0.5
v -1 13 -0.5
v 0 13 -0.5
v -2 13 -1.5
v 1 13 -1.5
v -1 14 0.5
v 0 14 0.5
v -1 14 -0.5
v 0 14 -0.5

# faces
f 3/2/1 2/2/1 1/2/1
f 4/2/1 2/2/1 3/2/1
f 7/2/1 6/2/1 5/2/1
f 8/2/1 6/2/1 7/2/1
f 13/2/1 10/2/1 9/2/1
f 14/2/1 10/2/1 13/2/1
f 15/2/1 12/2/1 11/2/1
f 16/2/1 12/2/1 15/2/1
f 17/2/1 15/2/1 14/2/1
f 18/2/1 15/2/1 17/2/1
f 21/2/1 20/2/1 19/2/1
f 22/2/1 20/2/1 21/2/1
f 25/1/1 24/1/1 23/1/1
f 26/1/1 24/1/1 25/1/1
f 27/1/1 25/1/1 23/1/1
f 28/1/1 25/1/1 27/1/1
f 32/2/1 30/2/1 29/2/1
f 33/2/1 30/2/1 32/2/1
f 35/2/1 32/2/1 31/2/1
f 36/2/1 32/2/1 35/2/1
f 37/2/1 34/2/1 33/2/1
f 38/2/1 34/2/1 37/2/1
f 42/2/1 40/2/1 39/2/1
f 43/2/1 40/2/1 42/2/1
f 45/2/1 42/2/1 41/2/1
f 46/2/1 42/2/1 45/2/1
f 47/2/1 44/2/1 43/2/1
f 48/2/1 44/2/1 47/2/1
f 49/2/1 47/2/1 46/2/1
f 50/2/1 47/2/1 49/2/1
f 55/1/1 52/1/1 51/1/1
f 56/1/1 54/1/1 53/1/1
f 57/1/1 55/1/1 51/1/1
f 57/1/1 56/1/1 55/1/1
f 58/1/1 56/1/1 57/1/1
f 59/1/1 54/1/1 56/1/1
f 59/1/1 56/1/1 58/1/1
f 60/1/1 54/1/1 59/1/1
f 62/1/1 59/1/1 58/1/1
f 63/1/1 59/1/1 62/1/1
f 66/2/1 62/2/1 61/2/1
f 67/1/1 63/1/1 62/1/1
f 67/2/1 62/2/1 66/2/1
f 68/2/1 64/2/1 63/2/1
f 68/1/1 63/1/1 67/1/1
f 69/2/1 64/2/1 68/2/1
f 72/2/1 66/2/1 65/2/1
f 73/2/1 66/2/1 72/2/1
f 74/2/1 70/2/1 69/2/1
f 75/2/1 70/2/1 74/2/1
f 77/2/1 72/2/1 71/2/1
f 78/2/1 72/2/1 77/2/1
f 81/2/1 76/2/1 75/2/1
f 82/2/1 76/2/1 81/2/1
f 83/2/1 79/2/1 78/2/1
f 84/2/1 79/2/1 83/2/1
f 85/2/1 81/2/1 80/2/1
f 86/2/1 81/2/1 85/2/1
f 89/2/1 88/2/1 87/2/1
f 90/2/1 88/2/1 89/2/1
f 91/1/2 92/1/2 95/1/2
f 95/1/2 92/1/2 96/1/2
f 93/1/2 94/1/2 97/1/2
f 97/1/2 94/1/2 98/1/2
f 99/2/2 100/2/2 103/2/2
f 103/2/2 100/2/2 104/2/2
f 101/2/2 102/2/2 107/2/2
f 107/2/2 102/2/2 108/2/2
f 104/2/2 105/2/2 109/2/2
f 109/2/2 105/2/2 110/2/2
f 106/2/2 107/2/2 111/2/2
f 111/2/2 107/2/2 112/2/2
f 113/2/2 114/2/2 115/2/2
f 115/2/2 114/2/2 116/2/2
f 117/1/2 118/1/2 119/1/2
f 119/1/2 118/1/2 120/1/2
f 121/2/2 122/2/2 124/2/2
f 124/2/2 122/2/2 125/2/2
f 124/2/2 125/2/2 128/2/2
f 125/2/2 126/2/2 128/2/2
f 123/2/2 124/2/2 128/2/2
f 128/2/2 126/2/2 129/2/2
f 127/2/2 128/2/2 131/2/2
f 131/2/2 128/2/2 132/2/2
f 129/2/2 130/2/2 133/2/2
f 133/2/2 130/2/2 134/2/2
f 132/2/2 133/2/2 135/2/2
f 135/2/2 133/2/2 136/2/2
f 137/1/2 138/1/2 139/1/2
f 139/1/2 138/1/2 140/1/2
f 141/2/2 142/2/2 144/2/2
f 144/2/2 142/2/2 145/2/2
f 143/2/2 144/2/2 148/2/2
f 148/2/2 144/2/2 149/2/2
f 145/2/2 146/2/2 150/2/2
f 150/2/2 146/2/2 151/2/2
f 147/2/2 148/2/2 153/2/2
f 153/2/2 148/2/2 154/2/2
f 151/2/2 152/2/2 157/2/2
f 157/2/2 152/2/2 158/2/2
f 154/2/2 155/2/2 159/2/2
f 159/2/2 155/2/2 160/2/2
f 156/2/2 157/2/2 161/2/2
f 161/2/2 157/2/2 162/2/2
f 160/2/2 161/2/2 163/2/2
f 163/2/2 161/2/2 164/2/2
f 165/2/2 166/2/2 167/2/2
f 167/2/2 166/2/2 168/2/2
f 169/2/2 170/2/2 172/2/2
f 172/2/2 170/2/2 173/2/2
f 171/2/2 172/2/2 175/2/2
f 175/2/2 172/2/2 176/2/2
f 173/2/2 174/2/2 177/2/2
f 177/2/2 174/2/2 178/2/2
f 176/2/2 177/2/2 179/2/2
f 179/2/2 177/2/2 180/2/2
f 181/2/2 182/2/2 183/2/2
f 183/2/2 182/2/2 184/2/2
f 187/2/3 186/2/3 185/2/3
f 188/2/3 186/2/3 187/2/3
f 196/2/3 192/2/3 191/2/3
f 197/2/3 192/2/3 196/2/3
f 198/2/3 190/2/3 189/2/3
f 199/2/3 198/2/3 197/2/3
f 199/2/3 190/2/3 198/2/3
f 200/2/3 190/2/3 199/2/3
f 201/2/3 194/2/3 193/2/3
f 202/2/3 194/2/3 201/2/3
f 203/2/3 196/2/3 195/2/3
f 204/2/3 196/2/3 203/2/3
f 205/2/3 199/2/3 197/2/3
f 206/2/3 199/2/3 205/2/3
f 207/2/3 205/2/3 204/2/3
f 208/2/3 205/2/3 207/2/3
f 212/2/3 210/2/3 209/2/3
f 213/2/3 210/2/3 212/2/3
f 214/2/3 210/2/3 213/2/3
f 219/2/3 212/2/3 211/2/3
f 219/2/3 213/2/3 212/2/3
f 220/2/3 213/2/3 219/2/3
f 221/2/3 215/2/3 214/2/3
f 222/2/3 217/2/3 216/2/3
f 223/2/3 217/2/3 222/2/3
f 228/2/3 219/2/3 218/2/3
f 229/2/3 219/2/3 228/2/3
f 230/2/3 213/2/3 220/2/3
f 231/2/3 213/2/3 230/2/3
f 232/1/3 226/1/3 225/1/3
f 233/1/3 226/1/3 232/1/3
f 235/2/3 221/2/3 214/2/3
f 235/2/3 222/2/3 221/2/3
f 236/2/3 222/2/3 235/2/3
f 237/2/3 222/2/3 236/2/3
f 238/2/3 222/2/3 237/2/3
f 239/2/3 224/2/3 223/2/3
f 240/2/3 224/2/3 239/2/3
f 241/2/3 228/2/3 227/2/3
f 242/2/3 228/2/3 241/2/3
f 245/2/3 235/2/3 234/2/3
f 246/2/3 235/2/3 245/2/3
f 247/2/3 239/2/3 238/2/3
f 248/2/3 239/2/3 247/2/3
f 249/2/3 243/2/3 242/2/3
f 250/2/3 243/2/3 249/2/3
f 251/2/3 245/2/3 244/2/3
f 252/2/3 245/2/3 251/2/3
f 253/2/3 251/2/3 250/2/3
f 254/2/3 251/2/3 253/2/3
f 257/1/3 256/1/3 255/1/3
f 258/1/3 256/1/3 257/1/3
f 264/1/3 260/1/3 259/1/3
f 267/2/3 262/2/3 261/2/3
f 268/2/3 262/2/3 267/2/3
f 269/1/3 264/1/3 263/1/3
f 270/1/3 260/1/3 264/1/3
f 270/1/3 264/1/3 269/1/3
f 271/2/3 266/2/3 265/2/3
f 272/2/3 266/2/3 271/2/3
f 273/1/3 269/1/3 263/1/3
f 274/1/3 269/1/3 273/1/3
f 275/1/4 276/1/4 277/1/4
f 277/1/4 276/1/4 278/1/4
f 279/1/4 280/1/4 284/1/4
f 281/2/4 282/2/4 287/2/4
f 287/2/4 282/2/4 288/2/4
f 283/1/4 284/1/4 289/1/4
f 284/1/4 280/1/4 290/1/4
f 289/1/4 284/1/4 290/1/4
f 285/2/4 286/2/4 291/2/4
f 291/2/4 286/2/4 292/2/4
f 283/1/4 289/1/4 293/1/4
f 293/1/4 289/1/4 294/1/4
f 295/2/4 296/2/4 298/2/4
f 298/2/4 296/2/4 299/2/4
f 299/2/4 296/2/4 300/2/4
f 297/2/4 298/2/4 307/2/4
f 298/2/4 299/2/4 307/2/4
f 307/2/4 299/2/4 308/2/4
f 300/2/4 301/2/4 309/2/4
f 302/2/4 303/2/4 310/2/4
f 310/2/4 303/2/4 311/2/4
f 304/1/4 305/1/4 313/1/4
f 306/2/4 307/2/4 316/2/4
f 316/2/4 307/2/4 317/2/4
f 308/2/4 299/2/4 318/2/4
f 318/2/4 299/2/4 319/2/4
f 313/1/4 314/1/4 320/1/4
f 304/1/4 313/1/4 320/1/4
f 320/1/4 314/1/4 321/1/4
f 300/2/4 309/2/4 323/2/4
f 309/2/4 310/2/4 323/2/4
f 323/2/4 310/2/4 324/2/4
f 324/2/4 310/2/4 325/2/4
f 325/2/4 310/2/4 326/2/4
f 311/2/4 312/2/4 327/2/4
f 327/2/4 312/2/4 328/2/4
f 315/2/4 316/2/4 329/2/4
f 329/2/4 316/2/4 330/2/4
f 322/2/4 323/2/4 333/2/4
f 333/2/4 323/2/4 334/2/4
f 326/2/4 327/2/4 335/2/4
f 335/2/4 327/2/4 336/2/4
f 330/2/4 331/2/4 337/2/4
f 337/2/4 331/2/4 338/2/4
f 332/2/4 333/2/4 339/2/4
f 339/2/4 333/2/4 340/2/4
f 338/2/4 339/2/4 341/2/4
f 341/2/4 339/2/4 342/2/4
f 345/2/4 346/2/4 350/2/4
f 350/2/4 346/2/4 351/2/4
f 343/2/4 344/2/4 352/2/4
f 351/2/4 352/2/4 353/2/4
f 352/2/4 344/2/4 353/2/4
f 353/2/4 344/2/4 354/2/4
f 347/2/4 348/2/4 355/2/4
f 355/2/4 348/2/4 356/2/4
f 349/2/4 350/2/4 357/2/4
f 357/2/4 350/2/4 358/2/4
f 351/2/4 353/2/4 359/2/4
f 359/2/4 353/2/4 360/2/4
f 358/2/4 359/2/4 361/2/4
f 361/2/4 359/2/4 362/2/4
f 363/2/4 364/2/4 365/2/4
f 365/2/4 364/2/4 366/2/4
f 370/1/5 368/1/5 367/1/5
f 371/1/5 368/1/5 370/1/5
f 373/1/5 370/1/5 369/1/5
f 373/1/5 372/1/5 371/1/5
f 373/1/5 371/1/5 370/1/5
f 374/1/5 372/1/5 373/1/5
f 375/1/5 373/1/5 369/1/5
f 376/1/5 373/1/5 375/1/5
f 379/2/5 378/2/5 377/2/5
f 380/2/5 378/2/5 379/2/5
f 382/2/5 378/2/5 380/2/5
f 383/2/5 382/2/5 381/2/5
f 384/2/5 378/2/5 382/2/5
f 384/2/5 382/2/5 383/2/5
f 388/2/5 386/2/5 385/2/5
f 389/2/5 386/2/5 388/2/5
f 391/2/5 388/2/5 387/2/5
f 392/2/5 391/2/5 387/2/5
f 393/2/5 392/2/5 387/2/5
f 394/2/5 392/2/5 393/2/5
f 395/2/5 390/2/5 389/2/5
f 396/2/5 390/2/5 395/2/5
f 397/2/5 395/2/5 394/2/5
f 398/2/5 395/2/5 397/2/5
f 402/2/5 400/2/5 399/2/5
f 403/2/5 400/2/5 402/2/5
f 406/2/5 402/2/5 401/2/5
f 407/2/5 402/2/5 406/2/5
f 408/2/5 404/2/5 403/2/5
f 409/2/5 404/2/5 408/2/5
f 411/2/5 406/2/5 405/2/5
f 412/2/5 406/2/5 411/2/5
f 415/2/5 410/2/5 409/2/5
f 416/2/5 410/2/5 415/2/5
f 417/2/5 413/2/5 412/2/5
f 418/2/5 413/2/5 417/2/5
f 419/2/5 415/2/5 414/2/5
f 420/2/5 415/2/5 419/2/5
f 421/2/5 419/2/5 418/2/5
f 422/2/5 419/2/5 421/2/5
f 425/2/5 424/2/5 423/2/5
f 426/2/5 424/2/5 425/2/5
f 429/2/5 428/2/5 427/2/5
f 430/2/5 428/2/5 429/2/5
f 433/2/5 432/2/5 431/2/5
f 434/2/5 432/2/5 433/2/5
f 437/2/5 436/2/5 435/2/5
f 438/2/5 436/2/5 437/2/5
f 441/2/5 440/2/5 439/2/5
f 442/2/5 440/2/5 441/2/5
f 446/2/5 444/2/5 443/2/5
f 447/2/5 444/2/5 446/2/5
f 449/2/5 446/2/5 445/2/5
f 450/2/5 446/2/5 449/2/5
f 451/2/5 448/2/5 447/2/5
f 452/2/5 448/2/5 451/2/5
f 453/2/5 451/2/5 450/2/5
f 454/2/5 451/2/5 453/2/5
f 455/1/6 456/1/6 459/1/6
f 459/1/6 456/1/6 460/1/6
f 457/1/6 458/1/6 461/1/6
f 461/1/6 458/1/6 462/1/6
f 463/1/6 464/1/6 465/1/6
f 465/1/6 464/1/6 466/1/6
f 467/1/6 468/1/6 469/1/6
f 469/1/6 468/1/6 470/1/6
f 471/1/6 472/1/6 473/1/6
f 473/1/6 472/1/6 474/1/6
f 475/2/6 476/2/6 478/2/6
f 478/2/6 476/2/6 479/2/6
f 477/2/6 478/2/6 481/2/6
f 481/2/6 478/2/6 482/2/6
f 479/2/6 480/2/6 483/2/6
f 483/2/6 480/2/6 484/2/6
f 484/2/6 485/2/6 489/2/6
f 489/2/6 485/2/6 490/2/6
f 486/2/6 487/2/6 491/2/6
f 491/2/6 487/2/6 492/2/6
f 488/2/6 489/2/6 493/2/6
f 493/2/6 489/2/6 494/2/6
f 492/2/6 493/2/6 495/2/6
f 495/2/6 493/2/6 496/2/6
f 497/2/6 498/2/6 499/2/6
f 499/2/6 498/2/6 500/2/6
f 500/2/6 501/2/6 503/2/6
f 503/2/6 501/2/6 504/2/6
f 502/2/6 503/2/6 505/2/6
f 505/2/6 503/2/6 506/2/6
f 507/2/6 508/2/6 510/2/6
f 510/2/6 508/2/6 511/2/6
f 511/2/6 512/2/6 513/2/6
f 513/2/6 512/2/6 514/2/6
f 514/2/6 512/2/6 516/2/6
f 509/2/6 510/2/6 517/2/6
f 517/2/6 510/2/6 518/2/6
f 515/2/6 516/2/6 519/2/6
f 516/2/6 512/2/6 520/2/6
f 519/2/6 516/2/6 520/2/6
f 518/2/6 519/2/6 521/2/6
f 521/2/6 519/2/6 522/2/6
f 523/2/6 524/2/6 525/2/6
f 525/2/6 524/2/6 526/2/6
f 527/2/6 528/2/6 530/2/6
f 530/2/6 528/2/6 531/2/6
f 529/2/6 530/2/6 533/2/6
f 533/2/6 530/2/6 534/2/6
f 531/2/6 532/2/6 535/2/6
f 535/2/6 532/2/6 536/2/6
f 534/2/6 535/2/6 537/2/6
f 537/2/6 535/2/6 538/2/6
f 539/2/6 540/2/6 541/2/6
f 541/2/6 540/2/6 542/2/6
f 539/2/6 541/2/6 543/2/6
f 542/2/6 540/2/6 544/2/6
f 539/2/6 543/2/6 545/2/6
f 543/2/6 544/2/6 545/2/6
f 544/2/6 540/2/6 546/2/6
f 545/2/6 544/2/6 546/2/6
f 547/2/6 548/2/6 549/2/6
f 549/2/6 548/2/6 550/2/6
