# MagicaVoxel @ Ephtracy

# material
mtllib Tree_type2_01_snow.mtl
usemtl palette

# normals
vn -1 0 0
vn 1 0 0
vn 0 0 1
vn 0 0 -1
vn 0 -1 0
vn 0 1 0

# texcoords
vt 0.279297 0.5
vt 0.513672 0.5
vt 0.962891 0.5
vt 0.966797 0.5

# verts
v -5.5 5 1.5
v -5.5 5 -1.5
v -5.5 6 1.5
v -5.5 6 -1.5
v -4.5 4 1.5
v -4.5 4 -1.5
v -4.5 5 2.5
v -4.5 5 1.5
v -4.5 5 -1.5
v -4.5 5 -2.5
v -4.5 6 2.5
v -4.5 6 1.5
v -4.5 6 -1.5
v -4.5 6 -2.5
v -4.5 7 1.5
v -4.5 7 -1.5
v -3.5 3 0.5
v -3.5 3 -0.5
v -3.5 4 0.5
v -3.5 4 -0.5
v -3.5 7 0.5
v -3.5 7 -0.5
v -3.5 8 0.5
v -3.5 8 -0.5
v -2.5 2 0.5
v -2.5 2 -0.5
v -2.5 3 0.5
v -2.5 3 -0.5
v -2.5 5 3.5
v -2.5 5 2.5
v -2.5 5 -2.5
v -2.5 5 -3.5
v -2.5 6 3.5
v -2.5 6 2.5
v -2.5 6 -2.5
v -2.5 6 -3.5
v -2.5 7 -0.5
v -2.5 7 -1.5
v -2.5 7 -3.5
v -2.5 8 -0.5
v -2.5 8 -3.5
v -1.5 0 -0.5
v -1.5 0 -1.5
v -1.5 1 -0.5
v -1.5 1 -1.5
v -1.5 4 2.5
v -1.5 4 1.5
v -1.5 4 -1.5
v -1.5 4 -3.5
v -1.5 5 4.5
v -1.5 5 3.5
v -1.5 5 2.5
v -1.5 5 1.5
v -1.5 5 -1.5
v -1.5 5 -3.5
v -1.5 5 -4.5
v -1.5 6 4.5
v -1.5 6 3.5
v -1.5 6 1.5
v -1.5 6 -1.5
v -1.5 6 -3.5
v -1.5 6 -4.5
v -1.5 7 3.5
v -1.5 7 1.5
v -1.5 7 0.5
v -1.5 7 -0.5
v -1.5 7 -1.5
v -1.5 7 -3.5
v -1.5 7 -4.5
v -1.5 8 0.5
v -1.5 8 -0.5
v -1.5 8 -3.5
v -1.5 8 -4.5
v -1.5 9 -0.5
v -1.5 9 -3.5
v -0.5 0 0.5
v -0.5 0 -0.5
v -0.5 1 -0.5
v -0.5 1 -1.5
v -0.5 2 0.5
v -0.5 2 -0.5
v -0.5 2 -1.5
v -0.5 2 -2.5
v -0.5 3 0.5
v -0.5 3 -0.5
v -0.5 3 -1.5
v -0.5 4 0.5
v -0.5 4 -0.5
v -0.5 4 -1.5
v -0.5 4 -2.5
v -0.5 7 2.5
v -0.5 7 1.5
v -0.5 8 2.5
v -0.5 8 1.5
v -0.5 9 -1.5
v -0.5 9 -2.5
v -0.5 10 -1.5
v -0.5 10 -2.5
v 0.5 0 -1.5
v 0.5 0 -2.5
v 0.5 1 -1.5
v 0.5 1 -2.5
v 0.5 4 0.5
v 0.5 4 -0.5
v 0.5 5 0.5
v 0.5 5 -0.5
v 0.5 6 0.5
v 0.5 6 -0.5
v 0.5 7 0.5
v 0.5 7 -0.5
v 1.5 3 0.5
v 1.5 3 -0.5
v 1.5 4 0.5
v 1.5 4 -0.5
v 1.5 7 1.5
v 1.5 7 0.5
v 1.5 8 1.5
v 1.5 8 0.5
v 2.5 8 0.5
v 2.5 8 -0.5
v 2.5 9 0.5
v 2.5 9 -0.5
v -2.5 7 0.5
v -2.5 7 -0.5
v -2.5 8 0.5
v -2.5 8 -0.5
v -1.5 3 0.5
v -1.5 3 -0.5
v -1.5 4 0.5
v -1.5 4 -0.5
v -1.5 6 0.5
v -1.5 6 -0.5
v -1.5 7 0.5
v -1.5 7 -0.5
v -0.5 4 0.5
v -0.5 4 -0.5
v -0.5 5 0.5
v -0.5 5 -0.5
v 0.5 1 -0.5
v 0.5 1 -1.5
v 0.5 2 -1.5
v 0.5 2 -2.5
v 0.5 3 0.5
v 0.5 3 -0.5
v 0.5 3 -1.5
v 0.5 4 0.5
v 0.5 4 -0.5
v 0.5 4 -1.5
v 0.5 4 -2.5
v 0.5 7 2.5
v 0.5 7 1.5
v 0.5 8 2.5
v 0.5 8 1.5
v 0.5 9 -1.5
v 0.5 9 -2.5
v 0.5 10 -1.5
v 0.5 10 -2.5
v 1.5 0 0.5
v 1.5 0 -2.5
v 1.5 1 -0.5
v 1.5 1 -2.5
v 1.5 2 0.5
v 1.5 2 -0.5
v 1.5 4 2.5
v 1.5 4 1.5
v 1.5 4 -1.5
v 1.5 4 -3.5
v 1.5 5 4.5
v 1.5 5 3.5
v 1.5 5 2.5
v 1.5 5 1.5
v 1.5 5 -1.5
v 1.5 5 -3.5
v 1.5 5 -4.5
v 1.5 6 4.5
v 1.5 6 3.5
v 1.5 6 2.5
v 1.5 6 -3.5
v 1.5 6 -4.5
v 1.5 7 3.5
v 1.5 7 2.5
v 1.5 7 -3.5
v 1.5 7 -4.5
v 1.5 8 -0.5
v 1.5 8 -3.5
v 1.5 8 -4.5
v 1.5 9 -0.5
v 1.5 9 -3.5
v 2.5 2 0.5
v 2.5 2 -0.5
v 2.5 3 0.5
v 2.5 3 -0.5
v 2.5 5 3.5
v 2.5 5 2.5
v 2.5 5 -2.5
v 2.5 5 -3.5
v 2.5 6 3.5
v 2.5 6 2.5
v 2.5 6 -2.5
v 2.5 6 -3.5
v 2.5 7 -1.5
v 2.5 7 -3.5
v 2.5 8 -1.5
v 2.5 8 -3.5
v 3.5 3 0.5
v 3.5 3 -0.5
v 3.5 4 1.5
v 3.5 4 0.5
v 3.5 4 -0.5
v 3.5 4 -1.5
v 3.5 5 1.5
v 3.5 5 -1.5
v 3.5 8 0.5
v 3.5 8 -0.5
v 3.5 9 0.5
v 3.5 9 -0.5
v 4.5 5 2.5
v 4.5 5 1.5
v 4.5 5 -1.5
v 4.5 5 -2.5
v 4.5 6 2.5
v 4.5 6 1.5
v 4.5 6 0.5
v 4.5 6 -1.5
v 4.5 6 -2.5
v 4.5 6 -3.5
v 4.5 7 2.5
v 4.5 7 1.5
v 4.5 7 0.5
v 4.5 7 -1.5
v 4.5 7 -2.5
v 4.5 7 -3.5
v 4.5 8 1.5
v 4.5 8 -1.5
v 5.5 5 1.5
v 5.5 5 0.5
v 5.5 5 -1.5
v 5.5 6 1.5
v 5.5 6 0.5
v 5.5 6 -1.5
v 5.5 6 -2.5
v 5.5 7 0.5
v 5.5 7 -2.5
v -1.5 5 4.5
v -1.5 6 4.5
v -0.5 5 4.5
v -0.5 6 4.5
v 0.5 5 4.5
v 0.5 6 4.5
v 1.5 5 4.5
v 1.5 6 4.5
v -2.5 5 3.5
v -2.5 6 3.5
v -1.5 5 3.5
v -1.5 6 3.5
v -1.5 7 3.5
v -0.5 6 3.5
v 0.5 6 3.5
v 1.5 5 3.5
v 1.5 6 3.5
v 1.5 7 3.5
v 2.5 5 3.5
v 2.5 6 3.5
v -4.5 5 2.5
v -4.5 6 2.5
v -2.5 5 2.5
v -2.5 6 2.5
v -1.5 4 2.5
v -1.5 5 2.5
v -0.5 7 2.5
v -0.5 8 2.5
v 0.5 7 2.5
v 0.5 8 2.5
v 1.5 4 2.5
v 1.5 5 2.5
v 1.5 6 2.5
v 1.5 7 2.5
v 2.5 5 2.5
v 2.5 6 2.5
v 4.5 5 2.5
v 4.5 6 2.5
v 4.5 7 2.5
v -5.5 5 1.5
v -5.5 6 1.5
v -4.5 4 1.5
v -4.5 5 1.5
v -4.5 6 1.5
v -4.5 7 1.5
v -1.5 4 1.5
v -1.5 5 1.5
v -1.5 6 1.5
v -1.5 7 1.5
v 1.5 4 1.5
v 1.5 5 1.5
v 1.5 7 1.5
v 1.5 8 1.5
v 3.5 4 1.5
v 3.5 5 1.5
v 4.5 5 1.5
v 4.5 6 1.5
v 4.5 7 1.5
v 4.5 8 1.5
v 5.5 5 1.5
v 5.5 6 1.5
v -3.5 3 0.5
v -3.5 4 0.5
v -3.5 7 0.5
v -3.5 8 0.5
v -2.5 2 0.5
v -2.5 3 0.5
v -2.5 7 0.5
v -2.5 8 0.5
v -1.5 3 0.5
v -1.5 4 0.5
v -1.5 7 0.5
v -1.5 8 0.5
v -0.5 0 0.5
v -0.5 2 0.5
v -0.5 3 0.5
v -0.5 4 0.5
v 0.5 3 0.5
v 0.5 4 0.5
v 1.5 0 0.5
v 1.5 2 0.5
v 1.5 3 0.5
v 1.5 4 0.5
v 1.5 7 0.5
v 1.5 8 0.5
v 2.5 2 0.5
v 2.5 3 0.5
v 2.5 8 0.5
v 2.5 9 0.5
v 3.5 3 0.5
v 3.5 4 0.5
v 3.5 8 0.5
v 3.5 9 0.5
v 4.5 6 0.5
v 4.5 7 0.5
v 5.5 6 0.5
v 5.5 7 0.5
v -2.5 7 -0.5
v -2.5 8 -0.5
v -1.5 0 -0.5
v -1.5 1 -0.5
v -1.5 6 -0.5
v -1.5 7 -0.5
v -1.5 8 -0.5
v -1.5 9 -0.5
v -0.5 0 -0.5
v -0.5 1 -0.5
v -0.5 4 -0.5
v -0.5 5 -0.5
v 0.5 4 -0.5
v 0.5 5 -0.5
v 0.5 6 -0.5
v 0.5 7 -0.5
v 1.5 8 -0.5
v 1.5 9 -0.5
v -0.5 3 -1.5
v -0.5 4 -1.5
v -0.5 9 -1.5
v -0.5 10 -1.5
v 0.5 3 -1.5
v 0.5 4 -1.5
v 0.5 9 -1.5
v 0.5 10 -1.5
v -0.5 7 1.5
v -0.5 8 1.5
v 0.5 7 1.5
v 0.5 8 1.5
v -1.5 6 0.5
v -1.5 7 0.5
v -0.5 4 0.5
v -0.5 5 0.5
v 0.5 4 0.5
v 0.5 5 0.5
v 0.5 6 0.5
v 0.5 7 0.5
v -3.5 3 -0.5
v -3.5 4 -0.5
v -3.5 7 -0.5
v -3.5 8 -0.5
v -2.5 2 -0.5
v -2.5 3 -0.5
v -2.5 7 -0.5
v -2.5 8 -0.5
v -1.5 3 -0.5
v -1.5 4 -0.5
v -0.5 2 -0.5
v -0.5 3 -0.5
v -0.5 4 -0.5
v 0.5 1 -0.5
v 0.5 3 -0.5
v 0.5 4 -0.5
v 1.5 1 -0.5
v 1.5 2 -0.5
v 1.5 3 -0.5
v 1.5 4 -0.5
v 2.5 2 -0.5
v 2.5 3 -0.5
v 2.5 8 -0.5
v 2.5 9 -0.5
v 3.5 3 -0.5
v 3.5 4 -0.5
v 3.5 8 -0.5
v 3.5 9 -0.5
v -5.5 5 -1.5
v -5.5 6 -1.5
v -4.5 4 -1.5
v -4.5 5 -1.5
v -4.5 6 -1.5
v -4.5 7 -1.5
v -2.5 6 -1.5
v -2.5 7 -1.5
v -1.5 0 -1.5
v -1.5 1 -1.5
v -1.5 4 -1.5
v -1.5 5 -1.5
v -1.5 6 -1.5
v -1.5 7 -1.5
v -0.5 1 -1.5
v -0.5 2 -1.5
v 0.5 0 -1.5
v 0.5 1 -1.5
v 0.5 2 -1.5
v 1.5 4 -1.5
v 1.5 5 -1.5
v 2.5 7 -1.5
v 2.5 8 -1.5
v 3.5 4 -1.5
v 3.5 5 -1.5
v 3.5 7 -1.5
v 3.5 8 -1.5
v 4.5 5 -1.5
v 4.5 6 -1.5
v 4.5 7 -1.5
v 4.5 8 -1.5
v 5.5 5 -1.5
v 5.5 6 -1.5
v -4.5 5 -2.5
v -4.5 6 -2.5
v -2.5 5 -2.5
v -2.5 6 -2.5
v -0.5 2 -2.5
v -0.5 4 -2.5
v -0.5 9 -2.5
v -0.5 10 -2.5
v 0.5 0 -2.5
v 0.5 1 -2.5
v 0.5 2 -2.5
v 0.5 4 -2.5
v 0.5 9 -2.5
v 0.5 10 -2.5
v 1.5 0 -2.5
v 1.5 1 -2.5
v 2.5 5 -2.5
v 2.5 6 -2.5
v 4.5 5 -2.5
v 4.5 6 -2.5
v 4.5 7 -2.5
v 5.5 6 -2.5
v 5.5 7 -2.5
v -2.5 5 -3.5
v -2.5 6 -3.5
v -2.5 7 -3.5
v -2.5 8 -3.5
v -1.5 4 -3.5
v -1.5 5 -3.5
v -1.5 6 -3.5
v -1.5 7 -3.5
v -1.5 8 -3.5
v -1.5 9 -3.5
v -0.5 7 -3.5
v -0.5 8 -3.5
v 1.5 4 -3.5
v 1.5 5 -3.5
v 1.5 6 -3.5
v 1.5 7 -3.5
v 1.5 8 -3.5
v 1.5 9 -3.5
v 2.5 5 -3.5
v 2.5 6 -3.5
v 2.5 7 -3.5
v 2.5 8 -3.5
v 4.5 6 -3.5
v 4.5 7 -3.5
v -1.5 5 -4.5
v -1.5 6 -4.5
v -1.5 7 -4.5
v -1.5 8 -4.5
v -0.5 7 -4.5
v -0.5 8 -4.5
v 1.5 5 -4.5
v 1.5 6 -4.5
v 1.5 7 -4.5
v 1.5 8 -4.5
v -0.5 0 0.5
v 1.5 0 0.5
v -1.5 0 -0.5
v -0.5 0 -0.5
v -1.5 0 -1.5
v 0.5 0 -1.5
v 0.5 0 -2.5
v 1.5 0 -2.5
v -2.5 2 0.5
v -0.5 2 0.5
v 1.5 2 0.5
v 2.5 2 0.5
v -2.5 2 -0.5
v -0.5 2 -0.5
v 1.5 2 -0.5
v 2.5 2 -0.5
v -0.5 2 -1.5
v 0.5 2 -1.5
v -0.5 2 -2.5
v 0.5 2 -2.5
v -3.5 3 0.5
v -2.5 3 0.5
v 2.5 3 0.5
v 3.5 3 0.5
v -3.5 3 -0.5
v -2.5 3 -0.5
v 2.5 3 -0.5
v 3.5 3 -0.5
v -1.5 4 2.5
v 1.5 4 2.5
v -4.5 4 1.5
v -1.5 4 1.5
v 1.5 4 1.5
v 3.5 4 1.5
v -3.5 4 0.5
v -1.5 4 0.5
v -0.5 4 0.5
v 0.5 4 0.5
v 1.5 4 0.5
v 3.5 4 0.5
v -3.5 4 -0.5
v -1.5 4 -0.5
v -0.5 4 -0.5
v 0.5 4 -0.5
v 1.5 4 -0.5
v 3.5 4 -0.5
v -4.5 4 -1.5
v -1.5 4 -1.5
v -0.5 4 -1.5
v 0.5 4 -1.5
v 1.5 4 -1.5
v 3.5 4 -1.5
v -0.5 4 -2.5
v 0.5 4 -2.5
v -1.5 4 -3.5
v 1.5 4 -3.5
v -1.5 5 4.5
v -0.5 5 4.5
v 0.5 5 4.5
v 1.5 5 4.5
v -2.5 5 3.5
v -1.5 5 3.5
v -0.5 5 3.5
v 0.5 5 3.5
v 1.5 5 3.5
v 2.5 5 3.5
v -4.5 5 2.5
v -2.5 5 2.5
v -1.5 5 2.5
v 1.5 5 2.5
v 2.5 5 2.5
v 4.5 5 2.5
v -5.5 5 1.5
v -4.5 5 1.5
v -1.5 5 1.5
v 1.5 5 1.5
v 3.5 5 1.5
v 4.5 5 1.5
v 5.5 5 1.5
v -0.5 5 0.5
v 0.5 5 0.5
v 4.5 5 0.5
v 5.5 5 0.5
v -0.5 5 -0.5
v 0.5 5 -0.5
v -5.5 5 -1.5
v -4.5 5 -1.5
v -1.5 5 -1.5
v 1.5 5 -1.5
v 3.5 5 -1.5
v 4.5 5 -1.5
v 5.5 5 -1.5
v -4.5 5 -2.5
v -2.5 5 -2.5
v 2.5 5 -2.5
v 4.5 5 -2.5
v -2.5 5 -3.5
v -1.5 5 -3.5
v 1.5 5 -3.5
v 2.5 5 -3.5
v -1.5 5 -4.5
v 1.5 5 -4.5
v 4.5 6 -1.5
v 5.5 6 -1.5
v 2.5 6 -2.5
v 4.5 6 -2.5
v 5.5 6 -2.5
v 2.5 6 -3.5
v 4.5 6 -3.5
v -1.5 7 0.5
v 0.5 7 0.5
v -1.5 7 -0.5
v 0.5 7 -0.5
v -2.5 7 -1.5
v -1.5 7 -1.5
v -2.5 7 -3.5
v -1.5 7 -3.5
v -0.5 7 -3.5
v 1.5 7 -3.5
v -1.5 7 -4.5
v -0.5 7 -4.5
v 1.5 7 -4.5
v -1.5 1 -0.5
v -0.5 1 -0.5
v 0.5 1 -0.5
v 1.5 1 -0.5
v -1.5 1 -1.5
v -0.5 1 -1.5
v 0.5 1 -1.5
v 0.5 1 -2.5
v 1.5 1 -2.5
v -1.5 3 0.5
v -0.5 3 0.5
v 0.5 3 0.5
v 1.5 3 0.5
v -1.5 3 -0.5
v -0.5 3 -0.5
v 0.5 3 -0.5
v 1.5 3 -0.5
v -0.5 3 -1.5
v 0.5 3 -1.5
v -0.5 4 0.5
v 0.5 4 0.5
v -0.5 4 -0.5
v 0.5 4 -0.5
v -1.5 6 4.5
v -0.5 6 4.5
v 0.5 6 4.5
v 1.5 6 4.5
v -2.5 6 3.5
v -1.5 6 3.5
v -0.5 6 3.5
v 0.5 6 3.5
v 1.5 6 3.5
v 2.5 6 3.5
v -4.5 6 2.5
v -2.5 6 2.5
v 1.5 6 2.5
v 2.5 6 2.5
v -5.5 6 1.5
v -4.5 6 1.5
v -1.5 6 1.5
v 4.5 6 1.5
v 5.5 6 1.5
v -1.5 6 0.5
v 0.5 6 0.5
v 4.5 6 0.5
v 5.5 6 0.5
v -1.5 6 -0.5
v 0.5 6 -0.5
v -5.5 6 -1.5
v -4.5 6 -1.5
v -2.5 6 -1.5
v -1.5 6 -1.5
v -4.5 6 -2.5
v -2.5 6 -2.5
v -2.5 6 -3.5
v -1.5 6 -3.5
v 1.5 6 -3.5
v -1.5 6 -4.5
v 1.5 6 -4.5
v -1.5 7 3.5
v 1.5 7 3.5
v -0.5 7 2.5
v 0.5 7 2.5
v 1.5 7 2.5
v 4.5 7 2.5
v -4.5 7 1.5
v -1.5 7 1.5
v -0.5 7 1.5
v 0.5 7 1.5
v 1.5 7 1.5
v 4.5 7 1.5
v -3.5 7 0.5
v -2.5 7 0.5
v -1.5 7 0.5
v 1.5 7 0.5
v 4.5 7 0.5
v 5.5 7 0.5
v -3.5 7 -0.5
v -2.5 7 -0.5
v -1.5 7 -0.5
v -4.5 7 -1.5
v -2.5 7 -1.5
v 2.5 7 -1.5
v 3.5 7 -1.5
v 4.5 7 -1.5
v 4.5 7 -2.5
v 5.5 7 -2.5
v 2.5 7 -3.5
v 4.5 7 -3.5
v -0.5 8 2.5
v 0.5 8 2.5
v -0.5 8 1.5
v 0.5 8 1.5
v 1.5 8 1.5
v 4.5 8 1.5
v -3.5 8 0.5
v -2.5 8 0.5
v -1.5 8 0.5
v 1.5 8 0.5
v 2.5 8 0.5
v 3.5 8 0.5
v -3.5 8 -0.5
v -2.5 8 -0.5
v -1.5 8 -0.5
v 1.5 8 -0.5
v 2.5 8 -0.5
v 3.5 8 -0.5
v 2.5 8 -1.5
v 3.5 8 -1.5
v 4.5 8 -1.5
v -2.5 8 -3.5
v -1.5 8 -3.5
v -0.5 8 -3.5
v 1.5 8 -3.5
v 2.5 8 -3.5
v -1.5 8 -4.5
v -0.5 8 -4.5
v 1.5 8 -4.5
v 2.5 9 0.5
v 3.5 9 0.5
v -1.5 9 -0.5
v 1.5 9 -0.5
v 2.5 9 -0.5
v 3.5 9 -0.5
v -0.5 9 -1.5
v 0.5 9 -1.5
v -0.5 9 -2.5
v 0.5 9 -2.5
v -1.5 9 -3.5
v 1.5 9 -3.5
v -0.5 10 -1.5
v 0.5 10 -1.5
v -0.5 10 -2.5
v 0.5 10 -2.5

# faces
f 3/3/1 2/3/1 1/3/1
f 4/3/1 2/3/1 3/3/1
f 8/2/1 6/2/1 5/2/1
f 9/2/1 6/2/1 8/2/1
f 11/3/1 8/3/1 7/3/1
f 12/3/1 8/3/1 11/3/1
f 13/3/1 10/3/1 9/3/1
f 14/3/1 10/3/1 13/3/1
f 15/3/1 13/3/1 12/3/1
f 16/3/1 13/3/1 15/3/1
f 19/1/1 18/1/1 17/1/1
f 20/1/1 18/1/1 19/1/1
f 23/4/1 22/4/1 21/4/1
f 24/4/1 22/4/1 23/4/1
f 27/1/1 26/1/1 25/1/1
f 28/1/1 26/1/1 27/1/1
f 33/3/1 30/3/1 29/3/1
f 34/3/1 30/3/1 33/3/1
f 35/3/1 32/3/1 31/3/1
f 36/3/1 32/3/1 35/3/1
f 40/3/1 38/3/1 37/3/1
f 40/3/1 39/3/1 38/3/1
f 41/3/1 39/3/1 40/3/1
f 44/1/1 43/1/1 42/1/1
f 45/1/1 43/1/1 44/1/1
f 52/2/1 47/2/1 46/2/1
f 53/2/1 47/2/1 52/2/1
f 54/2/1 49/2/1 48/2/1
f 55/2/1 49/2/1 54/2/1
f 57/3/1 51/3/1 50/3/1
f 58/3/1 51/3/1 57/3/1
f 61/2/1 56/2/1 55/2/1
f 62/2/1 56/2/1 61/2/1
f 63/3/1 59/3/1 58/3/1
f 64/3/1 59/3/1 63/3/1
f 67/2/1 61/2/1 60/2/1
f 68/2/1 61/2/1 67/2/1
f 70/3/1 66/3/1 65/3/1
f 71/3/1 66/3/1 70/3/1
f 72/4/1 69/4/1 68/4/1
f 73/4/1 69/4/1 72/4/1
f 74/3/1 72/3/1 71/3/1
f 75/3/1 72/3/1 74/3/1
f 78/1/1 77/1/1 76/1/1
f 80/1/1 78/1/1 76/1/1
f 80/1/1 79/1/1 78/1/1
f 81/1/1 79/1/1 80/1/1
f 82/1/1 79/1/1 81/1/1
f 85/1/1 83/1/1 82/1/1
f 85/1/1 82/1/1 81/1/1
f 86/1/1 83/1/1 85/1/1
f 87/1/1 85/1/1 84/1/1
f 88/1/1 85/1/1 87/1/1
f 89/1/1 83/1/1 86/1/1
f 90/1/1 83/1/1 89/1/1
f 93/4/1 92/4/1 91/4/1
f 94/4/1 92/4/1 93/4/1
f 97/3/1 96/3/1 95/3/1
f 98/3/1 96/3/1 97/3/1
f 101/1/1 100/1/1 99/1/1
f 102/1/1 100/1/1 101/1/1
f 105/2/1 104/2/1 103/2/1
f 106/2/1 104/2/1 105/2/1
f 109/2/1 108/2/1 107/2/1
f 110/2/1 108/2/1 109/2/1
f 113/1/1 112/1/1 111/1/1
f 114/1/1 112/1/1 113/1/1
f 117/3/1 116/3/1 115/3/1
f 118/3/1 116/3/1 117/3/1
f 121/3/1 120/3/1 119/3/1
f 122/3/1 120/3/1 121/3/1
f 123/4/2 124/4/2 125/4/2
f 125/4/2 124/4/2 126/4/2
f 127/1/2 128/1/2 129/1/2
f 129/1/2 128/1/2 130/1/2
f 131/3/2 132/3/2 133/3/2
f 133/3/2 132/3/2 134/3/2
f 135/2/2 136/2/2 137/2/2
f 137/2/2 136/2/2 138/2/2
f 139/1/2 140/1/2 141/1/2
f 139/1/2 141/1/2 144/1/2
f 141/1/2 142/1/2 144/1/2
f 144/1/2 142/1/2 145/1/2
f 143/1/2 144/1/2 146/1/2
f 146/1/2 144/1/2 147/1/2
f 145/1/2 142/1/2 148/1/2
f 148/1/2 142/1/2 149/1/2
f 150/4/2 151/4/2 152/4/2
f 152/4/2 151/4/2 153/4/2
f 154/3/2 155/3/2 156/3/2
f 156/3/2 155/3/2 157/3/2
f 158/1/2 159/1/2 160/1/2
f 160/1/2 159/1/2 161/1/2
f 158/1/2 160/1/2 162/1/2
f 162/1/2 160/1/2 163/1/2
f 164/2/2 165/2/2 170/2/2
f 170/2/2 165/2/2 171/2/2
f 166/2/2 167/2/2 172/2/2
f 172/2/2 167/2/2 173/2/2
f 168/3/2 169/3/2 175/3/2
f 175/3/2 169/3/2 176/3/2
f 173/2/2 174/2/2 178/2/2
f 178/2/2 174/2/2 179/2/2
f 176/3/2 177/3/2 180/3/2
f 180/3/2 177/3/2 181/3/2
f 182/3/2 183/3/2 185/3/2
f 185/3/2 183/3/2 186/3/2
f 184/3/2 185/3/2 187/3/2
f 187/3/2 185/3/2 188/3/2
f 189/1/2 190/1/2 191/1/2
f 191/1/2 190/1/2 192/1/2
f 193/3/2 194/3/2 197/3/2
f 197/3/2 194/3/2 198/3/2
f 195/2/2 196/2/2 199/2/2
f 199/2/2 196/2/2 200/2/2
f 201/3/2 202/3/2 203/3/2
f 203/3/2 202/3/2 204/3/2
f 205/1/2 206/1/2 208/1/2
f 208/1/2 206/1/2 209/1/2
f 207/2/2 208/2/2 211/2/2
f 209/2/2 210/2/2 211/2/2
f 208/2/2 209/2/2 211/2/2
f 211/2/2 210/2/2 212/2/2
f 213/3/2 214/3/2 215/3/2
f 215/3/2 214/3/2 216/3/2
f 217/2/2 218/2/2 221/2/2
f 221/2/2 218/2/2 222/2/2
f 219/2/2 220/2/2 224/2/2
f 224/2/2 220/2/2 225/2/2
f 221/3/2 222/3/2 227/3/2
f 222/2/2 223/2/2 228/2/2
f 227/3/2 222/3/2 228/3/2
f 228/2/2 223/2/2 229/2/2
f 225/3/2 226/3/2 231/3/2
f 231/3/2 226/3/2 232/3/2
f 229/3/2 230/3/2 233/3/2
f 228/3/2 229/3/2 233/3/2
f 233/3/2 230/3/2 234/3/2
f 235/3/2 236/3/2 238/3/2
f 236/2/2 237/2/2 239/2/2
f 238/3/2 236/3/2 239/3/2
f 239/2/2 237/2/2 240/2/2
f 240/3/2 241/3/2 242/3/2
f 239/3/2 240/3/2 242/3/2
f 242/3/2 241/3/2 243/3/2
f 246/3/3 245/3/3 244/3/3
f 247/3/3 245/3/3 246/3/3
f 248/4/3 247/4/3 246/4/3
f 249/4/3 247/4/3 248/4/3
f 250/3/3 249/3/3 248/3/3
f 251/3/3 249/3/3 250/3/3
f 254/3/3 253/3/3 252/3/3
f 255/3/3 253/3/3 254/3/3
f 257/3/3 256/3/3 255/3/3
f 258/3/3 256/3/3 257/3/3
f 260/3/3 256/3/3 258/3/3
f 261/3/3 256/3/3 260/3/3
f 262/3/3 260/3/3 259/3/3
f 263/3/3 260/3/3 262/3/3
f 266/3/3 265/3/3 264/3/3
f 267/3/3 265/3/3 266/3/3
f 272/4/3 271/4/3 270/4/3
f 273/4/3 271/4/3 272/4/3
f 274/2/3 269/2/3 268/2/3
f 275/2/3 269/2/3 274/2/3
f 279/3/3 277/3/3 276/3/3
f 280/2/3 279/2/3 278/2/3
f 281/3/3 277/3/3 279/3/3
f 281/2/3 279/2/3 280/2/3
f 282/3/3 277/3/3 281/3/3
f 286/3/3 284/3/3 283/3/3
f 287/3/3 284/3/3 286/3/3
f 289/2/3 286/2/3 285/2/3
f 290/2/3 286/2/3 289/2/3
f 291/3/3 288/3/3 287/3/3
f 292/3/3 288/3/3 291/3/3
f 297/2/3 294/2/3 293/2/3
f 298/2/3 294/2/3 297/2/3
f 301/3/3 296/3/3 295/3/3
f 302/3/3 296/3/3 301/3/3
f 303/3/3 300/3/3 299/3/3
f 304/3/3 300/3/3 303/3/3
f 310/1/3 306/1/3 305/1/3
f 311/4/3 308/4/3 307/4/3
f 312/4/3 308/4/3 311/4/3
f 313/1/3 310/1/3 309/1/3
f 313/1/3 306/1/3 310/1/3
f 314/1/3 306/1/3 313/1/3
f 318/1/3 313/1/3 309/1/3
f 319/1/3 313/1/3 318/1/3
f 321/1/3 318/1/3 317/1/3
f 321/1/3 320/1/3 319/1/3
f 321/1/3 319/1/3 318/1/3
f 322/1/3 320/1/3 321/1/3
f 323/1/3 321/1/3 317/1/3
f 324/1/3 321/1/3 323/1/3
f 325/1/3 321/1/3 324/1/3
f 327/3/3 316/3/3 315/3/3
f 328/3/3 316/3/3 327/3/3
f 329/1/3 326/1/3 325/1/3
f 329/1/3 325/1/3 324/1/3
f 330/1/3 326/1/3 329/1/3
f 333/1/3 326/1/3 330/1/3
f 334/1/3 326/1/3 333/1/3
f 335/3/3 332/3/3 331/3/3
f 336/3/3 332/3/3 335/3/3
f 339/3/3 338/3/3 337/3/3
f 340/3/3 338/3/3 339/3/3
f 346/3/3 342/3/3 341/3/3
f 347/3/3 342/3/3 346/3/3
f 349/1/3 344/1/3 343/1/3
f 350/1/3 344/1/3 349/1/3
f 353/2/3 352/2/3 351/2/3
f 354/2/3 352/2/3 353/2/3
f 355/2/3 346/2/3 345/2/3
f 356/2/3 346/2/3 355/2/3
f 357/3/3 348/3/3 347/3/3
f 358/3/3 348/3/3 357/3/3
f 363/1/3 360/1/3 359/1/3
f 364/1/3 360/1/3 363/1/3
f 365/3/3 362/3/3 361/3/3
f 366/3/3 362/3/3 365/3/3
f 367/4/4 368/4/4 369/4/4
f 369/4/4 368/4/4 370/4/4
f 373/2/4 374/2/4 375/2/4
f 375/2/4 374/2/4 376/2/4
f 371/3/4 372/3/4 377/3/4
f 377/3/4 372/3/4 378/3/4
f 379/1/4 380/1/4 384/1/4
f 381/4/4 382/4/4 385/4/4
f 385/4/4 382/4/4 386/4/4
f 383/1/4 384/1/4 387/1/4
f 384/1/4 380/1/4 387/1/4
f 387/1/4 380/1/4 388/1/4
f 383/1/4 387/1/4 389/1/4
f 389/1/4 387/1/4 390/1/4
f 390/1/4 391/1/4 393/1/4
f 393/1/4 391/1/4 394/1/4
f 392/1/4 393/1/4 395/1/4
f 395/1/4 393/1/4 396/1/4
f 396/1/4 393/1/4 397/1/4
f 397/1/4 398/1/4 399/1/4
f 396/1/4 397/1/4 399/1/4
f 399/1/4 398/1/4 400/1/4
f 400/1/4 398/1/4 403/1/4
f 403/1/4 398/1/4 404/1/4
f 401/3/4 402/3/4 405/3/4
f 405/3/4 402/3/4 406/3/4
f 407/3/4 408/3/4 410/3/4
f 410/3/4 408/3/4 411/3/4
f 411/3/4 412/3/4 413/3/4
f 413/3/4 412/3/4 414/3/4
f 409/2/4 410/2/4 417/2/4
f 417/2/4 410/2/4 418/2/4
f 413/2/4 414/2/4 419/2/4
f 419/2/4 414/2/4 420/2/4
f 415/1/4 416/1/4 421/1/4
f 415/1/4 421/1/4 423/1/4
f 421/1/4 422/1/4 423/1/4
f 423/1/4 422/1/4 424/1/4
f 424/1/4 422/1/4 425/1/4
f 426/2/4 427/2/4 430/2/4
f 430/2/4 427/2/4 431/2/4
f 428/4/4 429/4/4 432/4/4
f 432/4/4 429/4/4 433/4/4
f 432/3/4 433/3/4 436/3/4
f 436/3/4 433/3/4 437/3/4
f 434/2/4 435/2/4 438/2/4
f 438/2/4 435/2/4 439/2/4
f 440/3/4 441/3/4 442/3/4
f 442/3/4 441/3/4 443/3/4
f 444/1/4 445/1/4 450/1/4
f 450/1/4 445/1/4 451/1/4
f 446/3/4 447/3/4 452/3/4
f 452/3/4 447/3/4 453/3/4
f 448/1/4 449/1/4 454/1/4
f 454/1/4 449/1/4 455/1/4
f 456/2/4 457/2/4 458/2/4
f 458/2/4 457/2/4 459/2/4
f 459/3/4 460/3/4 461/3/4
f 461/3/4 460/3/4 462/3/4
f 463/3/4 464/3/4 468/3/4
f 468/3/4 464/3/4 469/3/4
f 465/3/4 466/3/4 470/3/4
f 470/3/4 466/3/4 471/3/4
f 469/2/4 470/2/4 473/2/4
f 471/3/4 472/3/4 474/3/4
f 467/2/4 468/2/4 475/2/4
f 475/2/4 468/2/4 476/2/4
f 469/2/4 473/2/4 477/2/4
f 477/2/4 473/2/4 478/2/4
f 474/3/4 472/3/4 479/3/4
f 479/3/4 472/3/4 480/3/4
f 477/2/4 478/2/4 481/2/4
f 476/2/4 477/2/4 481/2/4
f 481/2/4 478/2/4 482/2/4
f 478/3/4 479/3/4 483/3/4
f 482/2/4 478/2/4 483/2/4
f 483/3/4 479/3/4 484/3/4
f 482/3/4 483/3/4 485/3/4
f 485/3/4 483/3/4 486/3/4
f 489/4/4 490/4/4 491/4/4
f 491/4/4 490/4/4 492/4/4
f 487/2/4 488/2/4 493/2/4
f 493/2/4 488/2/4 494/2/4
f 491/3/4 492/3/4 495/3/4
f 495/3/4 492/3/4 496/3/4
f 500/1/5 498/1/5 497/1/5
f 501/1/5 500/1/5 499/1/5
f 502/1/5 498/1/5 500/1/5
f 502/1/5 500/1/5 501/1/5
f 503/1/5 498/1/5 502/1/5
f 504/1/5 498/1/5 503/1/5
f 509/1/5 506/1/5 505/1/5
f 510/1/5 506/1/5 509/1/5
f 511/1/5 508/1/5 507/1/5
f 512/1/5 508/1/5 511/1/5
f 515/1/5 514/1/5 513/1/5
f 516/1/5 514/1/5 515/1/5
f 521/1/5 518/1/5 517/1/5
f 522/1/5 518/1/5 521/1/5
f 523/1/5 520/1/5 519/1/5
f 524/1/5 520/1/5 523/1/5
f 528/2/5 526/2/5 525/2/5
f 529/2/5 526/2/5 528/2/5
f 531/2/5 528/2/5 527/2/5
f 531/2/5 530/2/5 529/2/5
f 531/2/5 529/2/5 528/2/5
f 532/2/5 530/2/5 531/2/5
f 533/2/5 530/2/5 532/2/5
f 534/2/5 530/2/5 533/2/5
f 535/2/5 530/2/5 534/2/5
f 536/2/5 530/2/5 535/2/5
f 537/2/5 531/2/5 527/2/5
f 538/2/5 533/2/5 532/2/5
f 539/2/5 533/2/5 538/2/5
f 540/2/5 535/2/5 534/2/5
f 541/2/5 535/2/5 540/2/5
f 543/2/5 539/2/5 538/2/5
f 543/2/5 542/2/5 541/2/5
f 543/2/5 541/2/5 540/2/5
f 543/2/5 540/2/5 539/2/5
f 543/2/5 537/2/5 527/2/5
f 543/2/5 538/2/5 537/2/5
f 544/2/5 542/2/5 543/2/5
f 545/2/5 542/2/5 544/2/5
f 546/2/5 542/2/5 545/2/5
f 547/2/5 542/2/5 546/2/5
f 548/2/5 542/2/5 547/2/5
f 549/2/5 545/2/5 544/2/5
f 550/2/5 547/2/5 546/2/5
f 551/2/5 549/2/5 544/2/5
f 551/2/5 550/2/5 549/2/5
f 552/2/5 547/2/5 550/2/5
f 552/2/5 550/2/5 551/2/5
f 558/3/5 554/3/5 553/3/5
f 559/4/5 555/4/5 554/4/5
f 559/3/5 554/3/5 558/3/5
f 560/3/5 556/3/5 555/3/5
f 560/4/5 555/4/5 559/4/5
f 561/3/5 556/3/5 560/3/5
f 564/3/5 558/3/5 557/3/5
f 565/2/5 559/2/5 558/2/5
f 565/2/5 560/2/5 559/2/5
f 565/3/5 558/3/5 564/3/5
f 565/2/5 561/2/5 560/2/5
f 566/3/5 562/3/5 561/3/5
f 566/2/5 561/2/5 565/2/5
f 567/3/5 562/3/5 566/3/5
f 570/3/5 564/3/5 563/3/5
f 570/3/5 565/3/5 564/3/5
f 571/3/5 565/3/5 570/3/5
f 572/2/5 567/2/5 566/2/5
f 572/2/5 568/2/5 567/2/5
f 573/2/5 568/2/5 572/2/5
f 574/2/5 568/2/5 573/2/5
f 578/3/5 575/3/5 574/3/5
f 578/2/5 574/2/5 573/2/5
f 579/3/5 575/3/5 578/3/5
f 580/2/5 577/2/5 576/2/5
f 581/2/5 577/2/5 580/2/5
f 582/3/5 570/3/5 569/3/5
f 583/3/5 570/3/5 582/3/5
f 586/2/5 578/2/5 573/2/5
f 586/2/5 579/2/5 578/2/5
f 587/2/5 579/2/5 586/2/5
f 588/2/5 579/2/5 587/2/5
f 589/3/5 584/3/5 583/3/5
f 590/3/5 584/3/5 589/3/5
f 591/2/5 587/2/5 586/2/5
f 591/2/5 586/2/5 585/2/5
f 592/2/5 587/2/5 591/2/5
f 593/3/5 584/3/5 590/3/5
f 594/3/5 584/3/5 593/3/5
f 595/2/5 591/2/5 585/2/5
f 596/2/5 591/2/5 595/2/5
f 597/2/5 595/2/5 594/2/5
f 598/2/5 595/2/5 597/2/5
f 602/3/5 600/3/5 599/3/5
f 603/3/5 600/3/5 602/3/5
f 604/3/5 602/3/5 601/3/5
f 605/3/5 602/3/5 604/3/5
f 608/3/5 607/3/5 606/3/5
f 609/3/5 607/3/5 608/3/5
f 612/3/5 611/3/5 610/3/5
f 613/3/5 611/3/5 612/3/5
f 616/4/5 614/4/5 613/4/5
f 617/3/5 615/3/5 614/3/5
f 617/4/5 614/4/5 616/4/5
f 618/3/5 615/3/5 617/3/5
f 619/1/6 620/1/6 623/1/6
f 623/1/6 620/1/6 624/1/6
f 621/1/6 622/1/6 625/1/6
f 625/1/6 622/1/6 626/1/6
f 626/1/6 622/1/6 627/1/6
f 628/1/6 629/1/6 632/1/6
f 632/1/6 629/1/6 633/1/6
f 630/1/6 631/1/6 634/1/6
f 634/1/6 631/1/6 635/1/6
f 633/1/6 634/1/6 636/1/6
f 636/1/6 634/1/6 637/1/6
f 638/1/6 639/1/6 640/1/6
f 640/1/6 639/1/6 641/1/6
f 642/3/6 643/3/6 647/3/6
f 643/4/6 644/4/6 648/4/6
f 647/3/6 643/3/6 648/3/6
f 644/3/6 645/3/6 649/3/6
f 648/4/6 644/4/6 649/4/6
f 649/3/6 645/3/6 650/3/6
f 646/3/6 647/3/6 653/3/6
f 650/3/6 651/3/6 654/3/6
f 654/3/6 651/3/6 655/3/6
f 652/3/6 653/3/6 657/3/6
f 653/3/6 647/3/6 658/3/6
f 657/3/6 653/3/6 658/3/6
f 659/3/6 660/3/6 663/3/6
f 663/3/6 660/3/6 664/3/6
f 661/2/6 662/2/6 665/2/6
f 665/2/6 662/2/6 666/2/6
f 656/3/6 657/3/6 667/3/6
f 667/3/6 657/3/6 668/3/6
f 669/3/6 670/3/6 671/3/6
f 668/3/6 669/3/6 671/3/6
f 671/3/6 670/3/6 672/3/6
f 672/3/6 670/3/6 673/3/6
f 673/3/6 670/3/6 674/3/6
f 674/2/6 675/2/6 676/2/6
f 676/2/6 675/2/6 677/2/6
f 678/3/6 679/3/6 680/3/6
f 680/3/6 679/3/6 681/3/6
f 681/3/6 679/3/6 682/3/6
f 678/3/6 680/3/6 685/3/6
f 685/3/6 680/3/6 686/3/6
f 681/3/6 682/3/6 687/3/6
f 682/3/6 683/3/6 687/3/6
f 687/3/6 683/3/6 688/3/6
f 688/3/6 683/3/6 689/3/6
f 685/3/6 686/3/6 690/3/6
f 684/3/6 685/3/6 690/3/6
f 687/3/6 688/3/6 690/3/6
f 686/3/6 687/3/6 690/3/6
f 690/3/6 688/3/6 691/3/6
f 691/3/6 688/3/6 692/3/6
f 692/3/6 688/3/6 693/3/6
f 684/3/6 690/3/6 696/3/6
f 691/3/6 692/3/6 697/3/6
f 697/3/6 692/3/6 698/3/6
f 684/3/6 696/3/6 699/3/6
f 696/3/6 697/3/6 699/3/6
f 699/3/6 697/3/6 700/3/6
f 694/3/6 695/3/6 703/3/6
f 701/3/6 702/3/6 704/3/6
f 702/3/6 703/3/6 704/3/6
f 703/3/6 695/3/6 704/3/6
f 704/3/6 695/3/6 705/3/6
f 701/3/6 704/3/6 706/3/6
f 706/3/6 704/3/6 707/3/6
f 708/4/6 709/4/6 710/4/6
f 710/4/6 709/4/6 711/4/6
f 712/3/6 713/3/6 717/3/6
f 717/3/6 713/3/6 718/3/6
f 718/3/6 713/3/6 719/3/6
f 714/4/6 715/4/6 720/4/6
f 720/4/6 715/4/6 721/4/6
f 716/3/6 717/3/6 722/3/6
f 717/3/6 718/3/6 722/3/6
f 722/3/6 718/3/6 723/3/6
f 723/3/6 718/3/6 724/3/6
f 719/3/6 713/3/6 725/3/6
f 723/3/6 724/3/6 726/3/6
f 724/4/6 725/4/6 726/4/6
f 725/3/6 713/3/6 727/3/6
f 726/4/6 725/4/6 727/4/6
f 727/3/6 713/3/6 728/3/6
f 721/3/6 722/3/6 729/3/6
f 729/3/6 722/3/6 730/3/6
f 723/3/6 726/3/6 732/3/6
f 732/3/6 726/3/6 733/3/6
f 730/4/6 731/4/6 734/4/6
f 731/3/6 732/3/6 735/3/6
f 734/4/6 731/4/6 735/4/6
f 735/3/6 732/3/6 736/3/6
f 737/3/6 738/3/6 741/3/6
f 741/3/6 738/3/6 742/3/6
f 739/3/6 740/3/6 743/3/6
f 743/3/6 740/3/6 744/3/6
f 739/3/6 743/3/6 745/3/6
f 744/3/6 740/3/6 746/3/6
f 739/3/6 745/3/6 747/3/6
f 745/3/6 746/3/6 747/3/6
f 746/3/6 740/3/6 748/3/6
f 747/3/6 746/3/6 748/3/6
f 749/3/6 750/3/6 751/3/6
f 751/3/6 750/3/6 752/3/6
