# MagicaVoxel @ Ephtracy

# material
mtllib Trough_02.mtl
usemtl palette

# normals
vn -1 0 0
vn 1 0 0
vn 0 0 1
vn 0 0 -1
vn 0 -1 0
vn 0 1 0

# texcoords
vt 0.279297 0.5
vt 0.298828 0.5
vt 0.302734 0.5

# verts
v -5 0 2
v -5 0 1
v -5 0 -0
v -5 0 -1
v -5 0 -2
v -5 1 3
v -5 1 2
v -5 1 1
v -5 1 -0
v -5 1 -1
v -5 1 -2
v -5 1 -3
v -5 2 3
v -5 2 2
v -5 2 1
v -5 2 -1
v -5 2 -2
v -5 2 -3
v -5 3 1
v -5 3 -1
v 4 1 1
v 4 1 -0
v 4 1 -1
v 4 2 1
v 4 2 -1
v 4 3 1
v 4 3 -1
v -4 1 1
v -4 1 -0
v -4 1 -1
v -4 2 1
v -4 2 -1
v -4 3 1
v -4 3 -1
v 5 0 2
v 5 0 1
v 5 0 -0
v 5 0 -1
v 5 0 -2
v 5 1 3
v 5 1 2
v 5 1 1
v 5 1 -0
v 5 1 -1
v 5 1 -2
v 5 1 -3
v 5 2 3
v 5 2 2
v 5 2 1
v 5 2 -1
v 5 2 -2
v 5 2 -3
v 5 3 1
v 5 3 -1
v -5 1 3
v -5 2 3
v 5 1 3
v 5 2 3
v -5 0 2
v -5 1 2
v 5 0 2
v 5 1 2
v -5 2 1
v -5 3 1
v -4 2 1
v -4 3 1
v 4 2 1
v 4 3 1
v 5 2 1
v 5 3 1
v -4 1 -1
v -4 2 -1
v 4 1 -1
v 4 2 -1
v -4 1 1
v -4 2 1
v 4 1 1
v 4 2 1
v -5 2 -1
v -5 3 -1
v -4 2 -1
v -4 3 -1
v 4 2 -1
v 4 3 -1
v 5 2 -1
v 5 3 -1
v -5 0 -2
v -5 1 -2
v 5 0 -2
v 5 1 -2
v -5 1 -3
v -5 2 -3
v 5 1 -3
v 5 2 -3
v -5 0 2
v 5 0 2
v -5 0 1
v 5 0 1
v -5 0 -0
v 5 0 -0
v -5 0 -1
v 5 0 -1
v -5 0 -2
v 5 0 -2
v -5 1 3
v 5 1 3
v -5 1 2
v 5 1 2
v -5 1 -2
v 5 1 -2
v -5 1 -3
v 5 1 -3
v -4 1 1
v 4 1 1
v -4 1 -0
v 4 1 -0
v -4 1 -1
v 4 1 -1
v -5 2 3
v 5 2 3
v -5 2 2
v 5 2 2
v -5 2 1
v -4 2 1
v 4 2 1
v 5 2 1
v -5 2 -1
v -4 2 -1
v 4 2 -1
v 5 2 -1
v -5 2 -2
v 5 2 -2
v -5 2 -3
v 5 2 -3
v -5 3 1
v -4 3 1
v 4 3 1
v 5 3 1
v -5 3 -1
v -4 3 -1
v 4 3 -1
v 5 3 -1

# faces
f 7/1/1 2/1/1 1/1/1
f 8/3/1 3/3/1 2/3/1
f 8/1/1 2/1/1 7/1/1
f 9/1/1 4/1/1 3/1/1
f 9/3/1 3/3/1 8/3/1
f 10/3/1 5/3/1 4/3/1
f 10/1/1 4/1/1 9/1/1
f 11/3/1 5/3/1 10/3/1
f 13/3/1 7/3/1 6/3/1
f 14/1/1 8/1/1 7/1/1
f 14/3/1 7/3/1 13/3/1
f 15/2/1 9/2/1 8/2/1
f 15/1/1 8/1/1 14/1/1
f 15/2/1 10/2/1 9/2/1
f 16/3/1 11/3/1 10/3/1
f 16/2/1 10/2/1 15/2/1
f 17/1/1 12/1/1 11/1/1
f 17/3/1 11/3/1 16/3/1
f 18/1/1 12/1/1 17/1/1
f 19/2/1 16/2/1 15/2/1
f 20/2/1 16/2/1 19/2/1
f 24/2/1 22/2/1 21/2/1
f 24/2/1 23/2/1 22/2/1
f 25/2/1 23/2/1 24/2/1
f 26/2/1 25/2/1 24/2/1
f 27/2/1 25/2/1 26/2/1
f 28/2/2 29/2/2 31/2/2
f 29/2/2 30/2/2 31/2/2
f 31/2/2 30/2/2 32/2/2
f 31/2/2 32/2/2 33/2/2
f 33/2/2 32/2/2 34/2/2
f 35/1/2 36/1/2 41/1/2
f 36/3/2 37/3/2 42/3/2
f 41/1/2 36/1/2 42/1/2
f 37/1/2 38/1/2 43/1/2
f 42/3/2 37/3/2 43/3/2
f 38/3/2 39/3/2 44/3/2
f 43/1/2 38/1/2 44/1/2
f 44/3/2 39/3/2 45/3/2
f 40/3/2 41/3/2 47/3/2
f 41/1/2 42/1/2 48/1/2
f 47/3/2 41/3/2 48/3/2
f 42/2/2 43/2/2 49/2/2
f 48/1/2 42/1/2 49/1/2
f 43/2/2 44/2/2 49/2/2
f 44/3/2 45/3/2 50/3/2
f 49/2/2 44/2/2 50/2/2
f 45/1/2 46/1/2 51/1/2
f 50/3/2 45/3/2 51/3/2
f 51/1/2 46/1/2 52/1/2
f 49/2/2 50/2/2 53/2/2
f 53/2/2 50/2/2 54/2/2
f 57/3/3 56/3/3 55/3/3
f 58/3/3 56/3/3 57/3/3
f 61/1/3 60/1/3 59/1/3
f 62/1/3 60/1/3 61/1/3
f 65/2/3 64/2/3 63/2/3
f 66/2/3 64/2/3 65/2/3
f 69/2/3 68/2/3 67/2/3
f 70/2/3 68/2/3 69/2/3
f 73/3/3 72/3/3 71/3/3
f 74/3/3 72/3/3 73/3/3
f 75/1/4 76/1/4 77/1/4
f 77/1/4 76/1/4 78/1/4
f 79/2/4 80/2/4 81/2/4
f 81/2/4 80/2/4 82/2/4
f 83/2/4 84/2/4 85/2/4
f 85/2/4 84/2/4 86/2/4
f 87/3/4 88/3/4 89/3/4
f 89/3/4 88/3/4 90/3/4
f 91/1/4 92/1/4 93/1/4
f 93/1/4 92/1/4 94/1/4
f 97/1/5 96/1/5 95/1/5
f 98/1/5 96/1/5 97/1/5
f 99/3/5 98/3/5 97/3/5
f 100/3/5 98/3/5 99/3/5
f 101/1/5 100/1/5 99/1/5
f 102/1/5 100/1/5 101/1/5
f 103/3/5 102/3/5 101/3/5
f 104/3/5 102/3/5 103/3/5
f 107/3/5 106/3/5 105/3/5
f 108/3/5 106/3/5 107/3/5
f 111/1/5 110/1/5 109/1/5
f 112/1/5 110/1/5 111/1/5
f 113/3/6 114/3/6 115/3/6
f 115/3/6 114/3/6 116/3/6
f 115/1/6 116/1/6 117/1/6
f 117/1/6 116/1/6 118/1/6
f 119/3/6 120/3/6 121/3/6
f 121/3/6 120/3/6 122/3/6
f 121/1/6 122/1/6 123/1/6
f 123/1/6 122/1/6 124/1/6
f 124/1/6 122/1/6 125/1/6
f 125/1/6 122/1/6 126/1/6
f 127/3/6 128/3/6 131/3/6
f 129/3/6 130/3/6 131/3/6
f 128/3/6 129/3/6 131/3/6
f 131/3/6 130/3/6 132/3/6
f 131/1/6 132/1/6 133/1/6
f 133/1/6 132/1/6 134/1/6
f 135/2/6 136/2/6 139/2/6
f 139/2/6 136/2/6 140/2/6
f 137/2/6 138/2/6 141/2/6
f 141/2/6 138/2/6 142/2/6
