# MagicaVoxel @ Ephtracy

# material
mtllib Trough_01.mtl
usemtl palette

# normals
vn -1 0 0
vn 1 0 0
vn 0 0 1
vn 0 0 -1
vn 0 -1 0
vn 0 1 0

# texcoords
vt 0.279297 0.5
vt 0.298828 0.5
vt 0.302734 0.5
vt 0.736328 0.5

# verts
v -5 0 2
v -5 0 1
v -5 0 -0
v -5 0 -1
v -5 0 -2
v -5 1 3
v -5 1 2
v -5 1 1
v -5 1 -0
v -5 1 -1
v -5 1 -2
v -5 1 -3
v -5 2 3
v -5 2 2
v -5 2 1
v -5 2 -1
v -5 2 -2
v -5 2 -3
v -5 3 1
v -5 3 -1
v 4 2 1
v 4 2 -1
v 4 3 1
v 4 3 -1
v -4 2 1
v -4 2 -1
v -4 3 1
v -4 3 -1
v 5 0 2
v 5 0 1
v 5 0 -0
v 5 0 -1
v 5 0 -2
v 5 1 3
v 5 1 2
v 5 1 1
v 5 1 -0
v 5 1 -1
v 5 1 -2
v 5 1 -3
v 5 2 3
v 5 2 2
v 5 2 1
v 5 2 -1
v 5 2 -2
v 5 2 -3
v 5 3 1
v 5 3 -1
v -5 1 3
v -5 2 3
v 5 1 3
v 5 2 3
v -5 0 2
v -5 1 2
v 5 0 2
v 5 1 2
v -5 2 1
v -5 3 1
v -4 2 1
v -4 3 1
v 4 2 1
v 4 3 1
v 5 2 1
v 5 3 1
v -5 2 -1
v -5 3 -1
v -4 2 -1
v -4 3 -1
v 4 2 -1
v 4 3 -1
v 5 2 -1
v 5 3 -1
v -5 0 -2
v -5 1 -2
v 5 0 -2
v 5 1 -2
v -5 1 -3
v -5 2 -3
v 5 1 -3
v 5 2 -3
v -5 0 2
v 5 0 2
v -5 0 1
v 5 0 1
v -5 0 -0
v 5 0 -0
v -5 0 -1
v 5 0 -1
v -5 0 -2
v 5 0 -2
v -5 1 3
v 5 1 3
v -5 1 2
v 5 1 2
v -5 1 -2
v 5 1 -2
v -5 1 -3
v 5 1 -3
v -5 2 3
v 5 2 3
v -5 2 2
v 5 2 2
v -5 2 1
v -4 2 1
v 4 2 1
v 5 2 1
v -5 2 -1
v -4 2 -1
v 4 2 -1
v 5 2 -1
v -5 2 -2
v 5 2 -2
v -5 2 -3
v 5 2 -3
v -5 3 1
v -4 3 1
v 4 3 1
v 5 3 1
v -5 3 -1
v -4 3 -1
v 4 3 -1
v 5 3 -1

# faces
f 7/1/1 2/1/1 1/1/1
f 8/3/1 3/3/1 2/3/1
f 8/1/1 2/1/1 7/1/1
f 9/1/1 4/1/1 3/1/1
f 9/3/1 3/3/1 8/3/1
f 10/3/1 5/3/1 4/3/1
f 10/1/1 4/1/1 9/1/1
f 11/3/1 5/3/1 10/3/1
f 13/3/1 7/3/1 6/3/1
f 14/1/1 8/1/1 7/1/1
f 14/3/1 7/3/1 13/3/1
f 15/2/1 9/2/1 8/2/1
f 15/1/1 8/1/1 14/1/1
f 15/2/1 10/2/1 9/2/1
f 16/3/1 11/3/1 10/3/1
f 16/2/1 10/2/1 15/2/1
f 17/1/1 12/1/1 11/1/1
f 17/3/1 11/3/1 16/3/1
f 18/1/1 12/1/1 17/1/1
f 19/2/1 16/2/1 15/2/1
f 20/2/1 16/2/1 19/2/1
f 23/2/1 22/2/1 21/2/1
f 24/2/1 22/2/1 23/2/1
f 25/2/2 26/2/2 27/2/2
f 27/2/2 26/2/2 28/2/2
f 29/1/2 30/1/2 35/1/2
f 30/3/2 31/3/2 36/3/2
f 35/1/2 30/1/2 36/1/2
f 31/1/2 32/1/2 37/1/2
f 36/3/2 31/3/2 37/3/2
f 32/3/2 33/3/2 38/3/2
f 37/1/2 32/1/2 38/1/2
f 38/3/2 33/3/2 39/3/2
f 34/3/2 35/3/2 41/3/2
f 35/1/2 36/1/2 42/1/2
f 41/3/2 35/3/2 42/3/2
f 36/2/2 37/2/2 43/2/2
f 42/1/2 36/1/2 43/1/2
f 37/2/2 38/2/2 43/2/2
f 38/3/2 39/3/2 44/3/2
f 43/2/2 38/2/2 44/2/2
f 39/1/2 40/1/2 45/1/2
f 44/3/2 39/3/2 45/3/2
f 45/1/2 40/1/2 46/1/2
f 43/2/2 44/2/2 47/2/2
f 47/2/2 44/2/2 48/2/2
f 51/3/3 50/3/3 49/3/3
f 52/3/3 50/3/3 51/3/3
f 55/1/3 54/1/3 53/1/3
f 56/1/3 54/1/3 55/1/3
f 59/2/3 58/2/3 57/2/3
f 60/2/3 58/2/3 59/2/3
f 63/2/3 62/2/3 61/2/3
f 64/2/3 62/2/3 63/2/3
f 65/2/4 66/2/4 67/2/4
f 67/2/4 66/2/4 68/2/4
f 69/2/4 70/2/4 71/2/4
f 71/2/4 70/2/4 72/2/4
f 73/3/4 74/3/4 75/3/4
f 75/3/4 74/3/4 76/3/4
f 77/1/4 78/1/4 79/1/4
f 79/1/4 78/1/4 80/1/4
f 83/1/5 82/1/5 81/1/5
f 84/1/5 82/1/5 83/1/5
f 85/3/5 84/3/5 83/3/5
f 86/3/5 84/3/5 85/3/5
f 87/1/5 86/1/5 85/1/5
f 88/1/5 86/1/5 87/1/5
f 89/3/5 88/3/5 87/3/5
f 90/3/5 88/3/5 89/3/5
f 93/3/5 92/3/5 91/3/5
f 94/3/5 92/3/5 93/3/5
f 97/1/5 96/1/5 95/1/5
f 98/1/5 96/1/5 97/1/5
f 99/3/6 100/3/6 101/3/6
f 101/3/6 100/3/6 102/3/6
f 101/1/6 102/1/6 103/1/6
f 103/1/6 102/1/6 104/1/6
f 104/1/6 102/1/6 105/1/6
f 105/1/6 102/1/6 106/1/6
f 104/4/6 105/4/6 108/4/6
f 108/4/6 105/4/6 109/4/6
f 107/3/6 108/3/6 111/3/6
f 109/3/6 110/3/6 111/3/6
f 108/3/6 109/3/6 111/3/6
f 111/3/6 110/3/6 112/3/6
f 111/1/6 112/1/6 113/1/6
f 113/1/6 112/1/6 114/1/6
f 115/2/6 116/2/6 119/2/6
f 119/2/6 116/2/6 120/2/6
f 117/2/6 118/2/6 121/2/6
f 121/2/6 118/2/6 122/2/6
