# MagicaVoxel @ Ephtracy

# material
mtllib WaterFall_05.mtl
usemtl palette

# normals
vn -1 0 0
vn 1 0 0
vn 0 0 1
vn 0 0 -1
vn 0 -1 0
vn 0 1 0

# texcoords
vt 0.728516 0.5
vt 0.736328 0.5

# verts
v -1 0 3
v -1 0 1
v -1 0 -0
v -1 0 -3
v -1 3 1
v -1 3 -0
v -1 6 3
v -1 6 -3
v 1 0 3
v 1 0 -3
v 1 6 3
v 1 6 -3
v -1 0 3
v -1 6 3
v 1 0 3
v 1 6 3
v -1 0 -3
v -1 6 -3
v 1 0 -3
v 1 6 -3
v -1 0 3
v 1 0 3
v -1 0 1
v 0 0 1
v -1 0 -0
v 0 0 -0
v -1 0 -3
v 1 0 -3
v -1 6 3
v 1 6 3
v -1 6 -3
v 1 6 -3

# faces
f 5/2/1 2/2/1 1/2/1
f 5/1/1 3/1/1 2/1/1
f 6/2/1 4/2/1 3/2/1
f 6/1/1 3/1/1 5/1/1
f 7/2/1 5/2/1 1/2/1
f 7/2/1 6/2/1 5/2/1
f 8/2/1 4/2/1 6/2/1
f 8/2/1 6/2/1 7/2/1
f 9/2/2 10/2/2 11/2/2
f 11/2/2 10/2/2 12/2/2
f 15/2/3 14/2/3 13/2/3
f 16/2/3 14/2/3 15/2/3
f 17/2/4 18/2/4 19/2/4
f 19/2/4 18/2/4 20/2/4
f 23/2/5 22/2/5 21/2/5
f 24/2/5 22/2/5 23/2/5
f 25/1/5 24/1/5 23/1/5
f 26/2/5 22/2/5 24/2/5
f 26/1/5 24/1/5 25/1/5
f 27/2/5 26/2/5 25/2/5
f 28/2/5 22/2/5 26/2/5
f 28/2/5 26/2/5 27/2/5
f 29/2/6 30/2/6 31/2/6
f 31/2/6 30/2/6 32/2/6
