# MagicaVoxel @ Ephtracy

# material
mtllib WaterFall_04.mtl
usemtl palette

# normals
vn -1 0 0
vn 1 0 0
vn 0 0 1
vn 0 0 -1
vn 0 -1 0
vn 0 1 0

# texcoords
vt 0.728516 0.5
vt 0.736328 0.5

# verts
v -1 0 3
v -1 0 2
v -1 0 -3
v -1 1 -1
v -1 1 -2
v -1 5 -1
v -1 5 -2
v -1 6 3
v -1 6 2
v -1 6 -3
v 1 0 3
v 1 0 2
v 1 0 -3
v 1 6 3
v 1 6 2
v 1 6 -3
v -1 0 3
v -1 6 3
v 1 0 3
v 1 6 3
v -1 0 -3
v -1 6 -3
v 1 0 -3
v 1 6 -3
v -1 0 3
v 1 0 3
v -1 0 2
v 1 0 2
v -1 0 -3
v 1 0 -3
v -1 6 3
v 1 6 3
v -1 6 2
v 1 6 2
v -1 6 -3
v 1 6 -3

# faces
f 4/2/1 3/2/1 2/2/1
f 5/2/1 3/2/1 4/2/1
f 6/2/1 4/2/1 2/2/1
f 6/1/1 5/1/1 4/1/1
f 7/2/1 3/2/1 5/2/1
f 7/1/1 5/1/1 6/1/1
f 8/1/1 2/1/1 1/1/1
f 9/2/1 6/2/1 2/2/1
f 9/1/1 2/1/1 8/1/1
f 9/2/1 7/2/1 6/2/1
f 10/2/1 3/2/1 7/2/1
f 10/2/1 7/2/1 9/2/1
f 11/1/2 12/1/2 14/1/2
f 12/2/2 13/2/2 15/2/2
f 14/1/2 12/1/2 15/1/2
f 15/2/2 13/2/2 16/2/2
f 19/1/3 18/1/3 17/1/3
f 20/1/3 18/1/3 19/1/3
f 21/2/4 22/2/4 23/2/4
f 23/2/4 22/2/4 24/2/4
f 27/1/5 26/1/5 25/1/5
f 28/1/5 26/1/5 27/1/5
f 29/2/5 28/2/5 27/2/5
f 30/2/5 28/2/5 29/2/5
f 31/1/6 32/1/6 33/1/6
f 33/1/6 32/1/6 34/1/6
f 33/2/6 34/2/6 35/2/6
f 35/2/6 34/2/6 36/2/6
