# MagicaVoxel @ Ephtracy

# material
mtllib Chicken_01.mtl
usemtl palette

# normals
vn -1 0 0
vn 1 0 0
vn 0 0 1
vn 0 0 -1
vn 0 -1 0
vn 0 1 0

# texcoords
vt 0.146484 0.5
vt 0.416016 0.5
vt 0.919922 0.5
vt 0.958984 0.5

# verts
v -1.5 0 1
v -1.5 0 -0
v -1.5 1 2
v -1.5 1 1
v -1.5 1 -0
v -1.5 1 -1
v -1.5 3 2
v -1.5 3 1
v -1.5 4 1
v -1.5 4 -1
v -1.5 4 -2
v -1.5 5 -1
v -1.5 5 -2
v -0.5 2 3
v -0.5 2 2
v -0.5 3 2
v -0.5 3 -1
v -0.5 3 -2
v -0.5 3 -3
v -0.5 4 3
v -0.5 4 2
v -0.5 4 1
v -0.5 4 -0
v -0.5 4 -1
v -0.5 4 -2
v -0.5 4 -3
v -0.5 5 1
v -0.5 5 -0
v -0.5 5 -1
v -0.5 6 -0
v -0.5 6 -1
v 0.5 0 1
v 0.5 0 -0
v 0.5 1 1
v 0.5 1 -0
v -0.5 0 1
v -0.5 0 -0
v -0.5 1 1
v -0.5 1 -0
v 0.5 2 3
v 0.5 2 2
v 0.5 3 2
v 0.5 3 -1
v 0.5 3 -2
v 0.5 3 -3
v 0.5 4 3
v 0.5 4 2
v 0.5 4 1
v 0.5 4 -0
v 0.5 4 -1
v 0.5 4 -2
v 0.5 4 -3
v 0.5 5 1
v 0.5 5 -0
v 0.5 5 -1
v 0.5 6 -0
v 0.5 6 -1
v 1.5 0 1
v 1.5 0 -0
v 1.5 1 2
v 1.5 1 1
v 1.5 1 -0
v 1.5 1 -1
v 1.5 3 2
v 1.5 3 1
v 1.5 4 1
v 1.5 4 -1
v 1.5 4 -2
v 1.5 5 -1
v 1.5 5 -2
v -0.5 2 3
v -0.5 4 3
v 0.5 2 3
v 0.5 4 3
v -1.5 1 2
v -1.5 3 2
v -0.5 2 2
v -0.5 3 2
v 0.5 2 2
v 0.5 3 2
v 1.5 1 2
v 1.5 3 2
v -1.5 0 1
v -1.5 1 1
v -1.5 3 1
v -1.5 4 1
v -0.5 0 1
v -0.5 1 1
v -0.5 4 1
v -0.5 5 1
v 0.5 0 1
v 0.5 1 1
v 0.5 4 1
v 0.5 5 1
v 1.5 0 1
v 1.5 1 1
v 1.5 3 1
v 1.5 4 1
v -0.5 5 -0
v -0.5 6 -0
v 0.5 5 -0
v 0.5 6 -0
v -1.5 4 -1
v -1.5 5 -1
v -0.5 4 -1
v -0.5 5 -1
v 0.5 4 -1
v 0.5 5 -1
v 1.5 4 -1
v 1.5 5 -1
v -0.5 3 2
v -0.5 4 2
v 0.5 3 2
v 0.5 4 2
v -1.5 0 -0
v -1.5 1 -0
v -0.5 0 -0
v -0.5 1 -0
v 0.5 0 -0
v 0.5 1 -0
v 1.5 0 -0
v 1.5 1 -0
v -1.5 1 -1
v -1.5 4 -1
v -0.5 3 -1
v -0.5 4 -1
v -0.5 5 -1
v -0.5 6 -1
v 0.5 3 -1
v 0.5 4 -1
v 0.5 5 -1
v 0.5 6 -1
v 1.5 1 -1
v 1.5 4 -1
v -1.5 4 -2
v -1.5 5 -2
v -0.5 4 -2
v -0.5 5 -2
v 0.5 4 -2
v 0.5 5 -2
v 1.5 4 -2
v 1.5 5 -2
v -0.5 3 -3
v -0.5 4 -3
v 0.5 3 -3
v 0.5 4 -3
v -1.5 0 1
v -0.5 0 1
v 0.5 0 1
v 1.5 0 1
v -1.5 0 -0
v -0.5 0 -0
v 0.5 0 -0
v 1.5 0 -0
v -1.5 1 2
v 1.5 1 2
v -1.5 1 1
v -0.5 1 1
v 0.5 1 1
v 1.5 1 1
v -1.5 1 -0
v -0.5 1 -0
v 0.5 1 -0
v 1.5 1 -0
v -1.5 1 -1
v 1.5 1 -1
v -0.5 2 3
v 0.5 2 3
v -0.5 2 2
v 0.5 2 2
v -0.5 3 -1
v 0.5 3 -1
v -0.5 3 -2
v 0.5 3 -2
v -0.5 3 -3
v 0.5 3 -3
v -1.5 4 -1
v -0.5 4 -1
v 0.5 4 -1
v 1.5 4 -1
v -1.5 4 -2
v -0.5 4 -2
v 0.5 4 -2
v 1.5 4 -2
v -1.5 3 2
v -0.5 3 2
v 0.5 3 2
v 1.5 3 2
v -1.5 3 1
v 1.5 3 1
v -0.5 4 3
v 0.5 4 3
v -0.5 4 2
v 0.5 4 2
v -1.5 4 1
v -0.5 4 1
v 0.5 4 1
v 1.5 4 1
v -0.5 4 -0
v 0.5 4 -0
v -1.5 4 -1
v -0.5 4 -1
v 0.5 4 -1
v 1.5 4 -1
v -0.5 4 -2
v 0.5 4 -2
v -0.5 4 -3
v 0.5 4 -3
v -0.5 5 1
v 0.5 5 1
v -0.5 5 -0
v 0.5 5 -0
v -1.5 5 -1
v -0.5 5 -1
v 0.5 5 -1
v 1.5 5 -1
v -1.5 5 -2
v -0.5 5 -2
v 0.5 5 -2
v 1.5 5 -2
v -0.5 6 -0
v 0.5 6 -0
v -0.5 6 -1
v 0.5 6 -1

# faces
f 4/2/1 2/2/1 1/2/1
f 5/2/1 2/2/1 4/2/1
f 7/3/1 4/3/1 3/3/1
f 7/3/1 6/3/1 5/3/1
f 7/3/1 5/3/1 4/3/1
f 8/3/1 6/3/1 7/3/1
f 9/3/1 6/3/1 8/3/1
f 10/3/1 6/3/1 9/3/1
f 12/4/1 11/4/1 10/4/1
f 13/4/1 11/4/1 12/4/1
f 16/3/1 15/3/1 14/3/1
f 20/3/1 16/3/1 14/3/1
f 21/3/1 16/3/1 20/3/1
f 24/3/1 18/3/1 17/3/1
f 25/2/1 19/2/1 18/2/1
f 25/3/1 18/3/1 24/3/1
f 26/2/1 19/2/1 25/2/1
f 27/1/1 23/1/1 22/1/1
f 28/3/1 24/3/1 23/3/1
f 28/1/1 23/1/1 27/1/1
f 29/3/1 24/3/1 28/3/1
f 30/1/1 29/1/1 28/1/1
f 31/1/1 29/1/1 30/1/1
f 34/2/1 33/2/1 32/2/1
f 35/2/1 33/2/1 34/2/1
f 36/2/2 37/2/2 38/2/2
f 38/2/2 37/2/2 39/2/2
f 40/3/2 41/3/2 42/3/2
f 40/3/2 42/3/2 46/3/2
f 46/3/2 42/3/2 47/3/2
f 43/3/2 44/3/2 50/3/2
f 44/2/2 45/2/2 51/2/2
f 50/3/2 44/3/2 51/3/2
f 51/2/2 45/2/2 52/2/2
f 48/1/2 49/1/2 53/1/2
f 49/3/2 50/3/2 54/3/2
f 53/1/2 49/1/2 54/1/2
f 54/3/2 50/3/2 55/3/2
f 54/1/2 55/1/2 56/1/2
f 56/1/2 55/1/2 57/1/2
f 58/2/2 59/2/2 61/2/2
f 61/2/2 59/2/2 62/2/2
f 60/3/2 61/3/2 64/3/2
f 62/3/2 63/3/2 64/3/2
f 61/3/2 62/3/2 64/3/2
f 64/3/2 63/3/2 65/3/2
f 65/3/2 63/3/2 66/3/2
f 66/3/2 63/3/2 67/3/2
f 67/4/2 68/4/2 69/4/2
f 69/4/2 68/4/2 70/4/2
f 73/3/3 72/3/3 71/3/3
f 74/3/3 72/3/3 73/3/3
f 77/3/3 76/3/3 75/3/3
f 78/3/3 76/3/3 77/3/3
f 79/3/3 77/3/3 75/3/3
f 81/3/3 79/3/3 75/3/3
f 81/3/3 80/3/3 79/3/3
f 82/3/3 80/3/3 81/3/3
f 87/2/3 84/2/3 83/2/3
f 88/2/3 84/2/3 87/2/3
f 89/3/3 86/3/3 85/3/3
f 93/1/3 90/1/3 89/1/3
f 93/3/3 89/3/3 85/3/3
f 94/1/3 90/1/3 93/1/3
f 95/2/3 92/2/3 91/2/3
f 96/2/3 92/2/3 95/2/3
f 97/3/3 93/3/3 85/3/3
f 98/3/3 93/3/3 97/3/3
f 101/1/3 100/1/3 99/1/3
f 102/1/3 100/1/3 101/1/3
f 105/4/3 104/4/3 103/4/3
f 106/4/3 104/4/3 105/4/3
f 109/4/3 108/4/3 107/4/3
f 110/4/3 108/4/3 109/4/3
f 111/3/4 112/3/4 113/3/4
f 113/3/4 112/3/4 114/3/4
f 115/2/4 116/2/4 117/2/4
f 117/2/4 116/2/4 118/2/4
f 119/2/4 120/2/4 121/2/4
f 121/2/4 120/2/4 122/2/4
f 123/3/4 124/3/4 125/3/4
f 125/3/4 124/3/4 126/3/4
f 123/3/4 125/3/4 129/3/4
f 127/1/4 128/1/4 131/1/4
f 131/1/4 128/1/4 132/1/4
f 129/3/4 130/3/4 133/3/4
f 123/3/4 129/3/4 133/3/4
f 133/3/4 130/3/4 134/3/4
f 135/4/4 136/4/4 137/4/4
f 137/4/4 136/4/4 138/4/4
f 137/3/4 138/3/4 139/3/4
f 139/3/4 138/3/4 140/3/4
f 139/4/4 140/4/4 141/4/4
f 141/4/4 140/4/4 142/4/4
f 143/2/4 144/2/4 145/2/4
f 145/2/4 144/2/4 146/2/4
f 151/2/5 148/2/5 147/2/5
f 152/2/5 148/2/5 151/2/5
f 153/2/5 150/2/5 149/2/5
f 154/2/5 150/2/5 153/2/5
f 157/3/5 156/3/5 155/3/5
f 158/3/5 156/3/5 157/3/5
f 159/3/5 156/3/5 158/3/5
f 160/3/5 156/3/5 159/3/5
f 162/3/5 159/3/5 158/3/5
f 163/3/5 159/3/5 162/3/5
f 165/3/5 162/3/5 161/3/5
f 165/3/5 164/3/5 163/3/5
f 165/3/5 163/3/5 162/3/5
f 166/3/5 164/3/5 165/3/5
f 169/3/5 168/3/5 167/3/5
f 170/3/5 168/3/5 169/3/5
f 173/3/5 172/3/5 171/3/5
f 174/3/5 172/3/5 173/3/5
f 175/2/5 174/2/5 173/2/5
f 176/2/5 174/2/5 175/2/5
f 181/4/5 178/4/5 177/4/5
f 182/4/5 178/4/5 181/4/5
f 183/4/5 180/4/5 179/4/5
f 184/4/5 180/4/5 183/4/5
f 185/3/6 186/3/6 189/3/6
f 187/3/6 188/3/6 189/3/6
f 186/3/6 187/3/6 189/3/6
f 189/3/6 188/3/6 190/3/6
f 191/3/6 192/3/6 193/3/6
f 193/3/6 192/3/6 194/3/6
f 195/3/6 196/3/6 199/3/6
f 197/3/6 198/3/6 200/3/6
f 195/3/6 199/3/6 201/3/6
f 201/3/6 199/3/6 202/3/6
f 200/3/6 198/3/6 203/3/6
f 203/3/6 198/3/6 204/3/6
f 205/2/6 206/2/6 207/2/6
f 207/2/6 206/2/6 208/2/6
f 209/1/6 210/1/6 211/1/6
f 211/1/6 210/1/6 212/1/6
f 213/4/6 214/4/6 217/4/6
f 214/3/6 215/3/6 218/3/6
f 217/4/6 214/4/6 218/4/6
f 215/4/6 216/4/6 219/4/6
f 218/3/6 215/3/6 219/3/6
f 219/4/6 216/4/6 220/4/6
f 221/1/6 222/1/6 223/1/6
f 223/1/6 222/1/6 224/1/6
