# MagicaVoxel @ Ephtracy

# material
mtllib Deer_01.mtl
usemtl palette

# normals
vn -1 0 0
vn 1 0 0
vn 0 0 1
vn 0 0 -1
vn 0 -1 0
vn 0 1 0

# texcoords
vt 0.306641 0.5
vt 0.330078 0.5
vt 0.931641 0.5
vt 0.958984 0.5
vt 0.982422 0.5

# verts
v -7 9 1
v -7 9 -1
v -7 10 1
v -7 10 -1
v -7 11 1
v -7 11 -1
v -5 11 2
v -5 11 1
v -5 11 -1
v -5 11 -2
v -5 12 2
v -5 12 1
v -5 12 -1
v -5 12 -2
v -4 7 1
v -4 7 -1
v -4 9 1
v -4 9 -1
v -4 12 2
v -4 12 1
v -4 12 -1
v -4 12 -2
v -4 13 2
v -4 13 1
v -4 13 -1
v -4 13 -2
v -3 0 2
v -3 0 1
v -3 0 -1
v -3 0 -2
v -3 1 2
v -3 1 1
v -3 1 -1
v -3 1 -2
v -3 5 1
v -3 5 -1
v -3 7 1
v -3 7 -1
v -3 8 2
v -3 8 1
v -3 8 -1
v -3 8 -2
v -3 11 3
v -3 11 2
v -3 11 -2
v -3 11 -3
v -3 13 4
v -3 13 3
v -3 13 2
v -3 13 -2
v -3 13 -3
v -3 13 -4
v -3 14 4
v -3 14 3
v -3 14 2
v -3 14 1
v -3 14 -1
v -3 14 -2
v -3 14 -3
v -3 14 -4
v -3 15 4
v -3 15 3
v -3 15 2
v -3 15 1
v -3 15 -1
v -3 15 -2
v -3 15 -3
v -3 15 -4
v -3 16 4
v -3 16 3
v -3 16 2
v -3 16 1
v -3 16 -1
v -3 16 -2
v -3 16 -3
v -3 16 -4
v -3 17 3
v -3 17 1
v -3 17 -1
v -3 17 -3
v 4 0 2
v 4 0 1
v 4 0 -1
v 4 0 -2
v 4 1 2
v 4 1 1
v 4 1 -1
v 4 1 -2
v 4 5 2
v 4 5 1
v 4 5 -1
v 4 5 -2
v -3 12 2
v -3 12 1
v -3 12 -1
v -3 12 -2
v -3 13 2
v -3 13 1
v -3 13 -1
v -3 13 -2
v -2 0 2
v -2 0 1
v -2 0 -1
v -2 0 -2
v -2 1 2
v -2 1 1
v -2 1 -1
v -2 1 -2
v -2 5 2
v -2 5 1
v -2 5 -1
v -2 5 -2
v -2 10 1
v -2 10 -1
v -2 11 3
v -2 11 1
v -2 11 -1
v -2 11 -3
v -2 12 2
v -2 12 1
v -2 12 -1
v -2 12 -2
v -2 13 4
v -2 13 3
v -2 13 -3
v -2 13 -4
v -2 14 4
v -2 14 3
v -2 14 2
v -2 14 1
v -2 14 -1
v -2 14 -2
v -2 14 -3
v -2 14 -4
v -2 15 4
v -2 15 3
v -2 15 2
v -2 15 1
v -2 15 -1
v -2 15 -2
v -2 15 -3
v -2 15 -4
v -2 16 4
v -2 16 3
v -2 16 2
v -2 16 1
v -2 16 -1
v -2 16 -2
v -2 16 -3
v -2 16 -4
v -2 17 3
v -2 17 1
v -2 17 -1
v -2 17 -3
v -1 9 1
v -1 9 -1
v -1 10 1
v -1 10 -1
v 5 0 2
v 5 0 1
v 5 0 -1
v 5 0 -2
v 5 1 2
v 5 1 1
v 5 1 -1
v 5 1 -2
v 5 5 1
v 5 5 -1
v 5 6 1
v 5 6 -1
v 5 8 2
v 5 8 1
v 5 8 -1
v 5 8 -2
v 5 9 1
v 5 9 -1
v 6 6 1
v 6 6 -1
v 6 7 1
v 6 7 -1
v 7 7 1
v 7 7 -1
v 7 8 1
v 7 8 -1
v -3 13 4
v -3 14 4
v -3 15 4
v -3 16 4
v -2 13 4
v -2 14 4
v -2 15 4
v -2 16 4
v -3 11 3
v -3 13 3
v -3 14 3
v -3 15 3
v -3 16 3
v -3 17 3
v -2 11 3
v -2 13 3
v -2 14 3
v -2 15 3
v -2 16 3
v -2 17 3
v -5 11 2
v -5 12 2
v -4 11 2
v -4 12 2
v -4 13 2
v -3 0 2
v -3 1 2
v -3 8 2
v -3 11 2
v -3 13 2
v -2 0 2
v -2 1 2
v -2 5 2
v 4 0 2
v 4 1 2
v 4 5 2
v 5 0 2
v 5 1 2
v 5 8 2
v -7 9 1
v -7 10 1
v -7 11 1
v -6 10 1
v -6 11 1
v -5 11 1
v -4 7 1
v -4 9 1
v -4 11 1
v -3 7 1
v -3 8 1
v -3 11 1
v -2 10 1
v -2 11 1
v -1 9 1
v -1 10 1
v 5 6 1
v 5 8 1
v 5 9 1
v 6 6 1
v 6 7 1
v 7 7 1
v 7 8 1
v -4 12 -1
v -4 13 -1
v -3 0 -1
v -3 1 -1
v -3 5 -1
v -3 12 -1
v -3 13 -1
v -3 14 -1
v -3 15 -1
v -3 16 -1
v -3 17 -1
v -2 0 -1
v -2 1 -1
v -2 5 -1
v -2 14 -1
v -2 15 -1
v -2 16 -1
v -2 17 -1
v 4 0 -1
v 4 1 -1
v 4 5 -1
v 5 0 -1
v 5 1 -1
v 5 5 -1
v -3 12 -2
v -3 13 -2
v -3 14 -2
v -3 15 -2
v -3 16 -2
v -2 12 -2
v -2 14 -2
v -2 15 -2
v -2 16 -2
v -3 12 2
v -3 13 2
v -3 14 2
v -3 15 2
v -3 16 2
v -2 12 2
v -2 14 2
v -2 15 2
v -2 16 2
v -4 12 1
v -4 13 1
v -3 0 1
v -3 1 1
v -3 5 1
v -3 12 1
v -3 13 1
v -3 14 1
v -3 15 1
v -3 16 1
v -3 17 1
v -2 0 1
v -2 1 1
v -2 5 1
v -2 14 1
v -2 15 1
v -2 16 1
v -2 17 1
v 4 0 1
v 4 1 1
v 4 5 1
v 5 0 1
v 5 1 1
v 5 5 1
v -7 9 -1
v -7 10 -1
v -7 11 -1
v -6 10 -1
v -6 11 -1
v -5 11 -1
v -4 7 -1
v -4 9 -1
v -4 11 -1
v -3 7 -1
v -3 8 -1
v -3 11 -1
v -2 10 -1
v -2 11 -1
v -1 9 -1
v -1 10 -1
v 5 6 -1
v 5 8 -1
v 5 9 -1
v 6 6 -1
v 6 7 -1
v 7 7 -1
v 7 8 -1
v -5 11 -2
v -5 12 -2
v -4 11 -2
v -4 12 -2
v -4 13 -2
v -3 0 -2
v -3 1 -2
v -3 8 -2
v -3 11 -2
v -3 13 -2
v -2 0 -2
v -2 1 -2
v -2 5 -2
v 4 0 -2
v 4 1 -2
v 4 5 -2
v 5 0 -2
v 5 1 -2
v 5 8 -2
v -3 11 -3
v -3 13 -3
v -3 14 -3
v -3 15 -3
v -3 16 -3
v -3 17 -3
v -2 11 -3
v -2 13 -3
v -2 14 -3
v -2 15 -3
v -2 16 -3
v -2 17 -3
v -3 13 -4
v -3 14 -4
v -3 15 -4
v -3 16 -4
v -2 13 -4
v -2 14 -4
v -2 15 -4
v -2 16 -4
v -3 0 2
v -2 0 2
v 4 0 2
v 5 0 2
v -3 0 1
v -2 0 1
v 4 0 1
v 5 0 1
v -3 0 -1
v -2 0 -1
v 4 0 -1
v 5 0 -1
v -3 0 -2
v -2 0 -2
v 4 0 -2
v 5 0 -2
v -2 5 2
v 4 5 2
v -3 5 1
v -2 5 1
v 4 5 1
v 5 5 1
v -3 5 -1
v -2 5 -1
v 4 5 -1
v 5 5 -1
v -2 5 -2
v 4 5 -2
v 5 6 1
v 6 6 1
v 5 6 -1
v 6 6 -1
v -4 7 1
v -3 7 1
v 6 7 1
v 7 7 1
v -4 7 -1
v -3 7 -1
v 6 7 -1
v 7 7 -1
v -7 9 1
v -4 9 1
v -7 9 -1
v -4 9 -1
v -3 11 3
v -2 11 3
v -5 11 2
v -4 11 2
v -3 11 2
v -5 11 1
v -4 11 1
v -3 11 1
v -2 11 1
v -5 11 -1
v -4 11 -1
v -3 11 -1
v -2 11 -1
v -5 11 -2
v -4 11 -2
v -3 11 -2
v -3 11 -3
v -2 11 -3
v -3 13 4
v -2 13 4
v -3 13 3
v -2 13 3
v -3 13 -3
v -2 13 -3
v -3 13 -4
v -2 13 -4
v -3 14 2
v -2 14 2
v -3 14 1
v -2 14 1
v -3 14 -1
v -2 14 -1
v -3 14 -2
v -2 14 -2
v -3 15 4
v -2 15 4
v -3 15 3
v -2 15 3
v -3 15 -3
v -2 15 -3
v -3 15 -4
v -2 15 -4
v -3 16 2
v -2 16 2
v -3 16 1
v -2 16 1
v -3 16 -1
v -2 16 -1
v -3 16 -2
v -2 16 -2
v -3 8 2
v 5 8 2
v -3 8 1
v 5 8 1
v 7 8 1
v -3 8 -1
v 5 8 -1
v 7 8 -1
v -3 8 -2
v 5 8 -2
v -1 9 1
v 5 9 1
v -1 9 -1
v 5 9 -1
v -2 10 1
v -1 10 1
v -2 10 -1
v -1 10 -1
v -7 11 1
v -6 11 1
v -5 11 1
v -7 11 -1
v -6 11 -1
v -5 11 -1
v -5 12 2
v -4 12 2
v -3 12 2
v -2 12 2
v -5 12 1
v -4 12 1
v -3 12 1
v -2 12 1
v -5 12 -1
v -4 12 -1
v -3 12 -1
v -2 12 -1
v -5 12 -2
v -4 12 -2
v -3 12 -2
v -2 12 -2
v -4 13 2
v -3 13 2
v -4 13 1
v -3 13 1
v -4 13 -1
v -3 13 -1
v -4 13 -2
v -3 13 -2
v -3 14 4
v -2 14 4
v -3 14 3
v -2 14 3
v -3 14 -3
v -2 14 -3
v -3 14 -4
v -2 14 -4
v -3 15 2
v -2 15 2
v -3 15 1
v -2 15 1
v -3 15 -1
v -2 15 -1
v -3 15 -2
v -2 15 -2
v -3 16 4
v -2 16 4
v -3 16 3
v -2 16 3
v -3 16 -3
v -2 16 -3
v -3 16 -4
v -2 16 -4
v -3 17 3
v -2 17 3
v -3 17 1
v -2 17 1
v -3 17 -1
v -2 17 -1
v -3 17 -3
v -2 17 -3

# faces
f 3/1/1 2/1/1 1/1/1
f 4/1/1 2/1/1 3/1/1
f 5/5/1 4/5/1 3/5/1
f 6/5/1 4/5/1 5/5/1
f 11/4/1 8/4/1 7/4/1
f 12/1/1 9/1/1 8/1/1
f 12/4/1 8/4/1 11/4/1
f 13/4/1 10/4/1 9/4/1
f 13/1/1 9/1/1 12/1/1
f 14/4/1 10/4/1 13/4/1
f 17/1/1 16/1/1 15/1/1
f 18/1/1 16/1/1 17/1/1
f 23/1/1 20/1/1 19/1/1
f 24/1/1 20/1/1 23/1/1
f 25/1/1 22/1/1 21/1/1
f 26/1/1 22/1/1 25/1/1
f 31/5/1 28/5/1 27/5/1
f 32/5/1 28/5/1 31/5/1
f 33/5/1 30/5/1 29/5/1
f 34/5/1 30/5/1 33/5/1
f 35/1/1 32/1/1 31/1/1
f 36/1/1 34/1/1 33/1/1
f 37/1/1 35/1/1 31/1/1
f 37/1/1 36/1/1 35/1/1
f 38/1/1 34/1/1 36/1/1
f 38/1/1 36/1/1 37/1/1
f 39/1/1 37/1/1 31/1/1
f 40/1/1 37/1/1 39/1/1
f 41/1/1 34/1/1 38/1/1
f 42/1/1 34/1/1 41/1/1
f 48/2/1 44/2/1 43/2/1
f 49/2/1 44/2/1 48/2/1
f 50/2/1 46/2/1 45/2/1
f 51/2/1 46/2/1 50/2/1
f 53/2/1 49/2/1 48/2/1
f 53/2/1 48/2/1 47/2/1
f 54/2/1 49/2/1 53/2/1
f 55/2/1 49/2/1 54/2/1
f 58/2/1 52/2/1 51/2/1
f 58/2/1 51/2/1 50/2/1
f 59/2/1 52/2/1 58/2/1
f 60/2/1 52/2/1 59/2/1
f 62/2/1 56/2/1 55/2/1
f 62/2/1 55/2/1 54/2/1
f 63/2/1 56/2/1 62/2/1
f 64/2/1 56/2/1 63/2/1
f 65/2/1 59/2/1 58/2/1
f 65/2/1 58/2/1 57/2/1
f 66/2/1 59/2/1 65/2/1
f 67/2/1 59/2/1 66/2/1
f 69/2/1 63/2/1 62/2/1
f 69/2/1 62/2/1 61/2/1
f 70/2/1 63/2/1 69/2/1
f 71/2/1 63/2/1 70/2/1
f 74/2/1 68/2/1 67/2/1
f 74/2/1 67/2/1 66/2/1
f 75/2/1 68/2/1 74/2/1
f 76/2/1 68/2/1 75/2/1
f 77/2/1 72/2/1 71/2/1
f 77/2/1 71/2/1 70/2/1
f 78/2/1 72/2/1 77/2/1
f 79/2/1 75/2/1 74/2/1
f 79/2/1 74/2/1 73/2/1
f 80/2/1 75/2/1 79/2/1
f 85/5/1 82/5/1 81/5/1
f 86/5/1 82/5/1 85/5/1
f 87/5/1 84/5/1 83/5/1
f 88/5/1 84/5/1 87/5/1
f 89/1/1 86/1/1 85/1/1
f 90/1/1 86/1/1 89/1/1
f 91/1/1 88/1/1 87/1/1
f 92/1/1 88/1/1 91/1/1
f 93/1/2 94/1/2 97/1/2
f 97/1/2 94/1/2 98/1/2
f 95/1/2 96/1/2 99/1/2
f 99/1/2 96/1/2 100/1/2
f 101/5/2 102/5/2 105/5/2
f 105/5/2 102/5/2 106/5/2
f 103/5/2 104/5/2 107/5/2
f 107/5/2 104/5/2 108/5/2
f 105/1/2 106/1/2 109/1/2
f 109/1/2 106/1/2 110/1/2
f 107/1/2 108/1/2 111/1/2
f 111/1/2 108/1/2 112/1/2
f 113/1/2 114/1/2 116/1/2
f 116/1/2 114/1/2 117/1/2
f 115/2/2 116/2/2 119/2/2
f 116/1/2 117/1/2 120/1/2
f 119/2/2 116/2/2 120/2/2
f 117/2/2 118/2/2 121/2/2
f 120/1/2 117/1/2 121/1/2
f 121/2/2 118/2/2 122/2/2
f 115/2/2 119/2/2 124/2/2
f 122/2/2 118/2/2 125/2/2
f 123/2/2 124/2/2 127/2/2
f 124/2/2 119/2/2 128/2/2
f 127/2/2 124/2/2 128/2/2
f 128/2/2 119/2/2 129/2/2
f 125/2/2 126/2/2 132/2/2
f 122/2/2 125/2/2 132/2/2
f 132/2/2 126/2/2 133/2/2
f 133/2/2 126/2/2 134/2/2
f 129/2/2 130/2/2 136/2/2
f 128/2/2 129/2/2 136/2/2
f 136/2/2 130/2/2 137/2/2
f 137/2/2 130/2/2 138/2/2
f 132/2/2 133/2/2 139/2/2
f 131/2/2 132/2/2 139/2/2
f 139/2/2 133/2/2 140/2/2
f 140/2/2 133/2/2 141/2/2
f 136/2/2 137/2/2 143/2/2
f 135/2/2 136/2/2 143/2/2
f 143/2/2 137/2/2 144/2/2
f 144/2/2 137/2/2 145/2/2
f 141/2/2 142/2/2 148/2/2
f 140/2/2 141/2/2 148/2/2
f 148/2/2 142/2/2 149/2/2
f 149/2/2 142/2/2 150/2/2
f 145/2/2 146/2/2 151/2/2
f 144/2/2 145/2/2 151/2/2
f 151/2/2 146/2/2 152/2/2
f 148/2/2 149/2/2 153/2/2
f 147/2/2 148/2/2 153/2/2
f 153/2/2 149/2/2 154/2/2
f 155/1/2 156/1/2 157/1/2
f 157/1/2 156/1/2 158/1/2
f 159/5/2 160/5/2 163/5/2
f 163/5/2 160/5/2 164/5/2
f 161/5/2 162/5/2 165/5/2
f 165/5/2 162/5/2 166/5/2
f 163/1/2 164/1/2 167/1/2
f 165/1/2 166/1/2 168/1/2
f 163/1/2 167/1/2 169/1/2
f 167/1/2 168/1/2 169/1/2
f 168/1/2 166/1/2 170/1/2
f 169/1/2 168/1/2 170/1/2
f 163/1/2 169/1/2 171/1/2
f 171/1/2 169/1/2 172/1/2
f 170/1/2 166/1/2 173/1/2
f 173/1/2 166/1/2 174/1/2
f 172/1/2 173/1/2 175/1/2
f 175/1/2 173/1/2 176/1/2
f 177/1/2 178/1/2 179/1/2
f 179/1/2 178/1/2 180/1/2
f 181/1/2 182/1/2 183/1/2
f 183/1/2 182/1/2 184/1/2
f 189/2/3 186/2/3 185/2/3
f 190/2/3 186/2/3 189/2/3
f 191/2/3 188/2/3 187/2/3
f 192/2/3 188/2/3 191/2/3
f 199/2/3 194/2/3 193/2/3
f 200/2/3 194/2/3 199/2/3
f 201/2/3 196/2/3 195/2/3
f 202/2/3 196/2/3 201/2/3
f 203/2/3 198/2/3 197/2/3
f 204/2/3 198/2/3 203/2/3
f 207/4/3 206/4/3 205/4/3
f 208/4/3 206/4/3 207/4/3
f 213/1/3 208/1/3 207/1/3
f 213/1/3 209/1/3 208/1/3
f 214/1/3 209/1/3 213/1/3
f 215/5/3 211/5/3 210/5/3
f 216/1/3 212/1/3 211/1/3
f 216/5/3 211/5/3 215/5/3
f 217/1/3 212/1/3 216/1/3
f 220/1/3 212/1/3 217/1/3
f 221/5/3 219/5/3 218/5/3
f 222/1/3 220/1/3 219/1/3
f 222/5/3 219/5/3 221/5/3
f 223/1/3 212/1/3 220/1/3
f 223/1/3 220/1/3 222/1/3
f 227/1/3 225/1/3 224/1/3
f 227/5/3 226/5/3 225/5/3
f 228/5/3 226/5/3 227/5/3
f 229/1/3 228/1/3 227/1/3
f 231/1/3 227/1/3 224/1/3
f 231/1/3 229/1/3 227/1/3
f 232/1/3 229/1/3 231/1/3
f 233/1/3 231/1/3 230/1/3
f 233/1/3 232/1/3 231/1/3
f 234/1/3 232/1/3 233/1/3
f 235/1/3 232/1/3 234/1/3
f 236/1/3 235/1/3 234/1/3
f 237/1/3 235/1/3 236/1/3
f 238/1/3 236/1/3 234/1/3
f 239/1/3 236/1/3 238/1/3
f 241/1/3 238/1/3 234/1/3
f 242/1/3 238/1/3 241/1/3
f 243/1/3 241/1/3 240/1/3
f 244/1/3 241/1/3 243/1/3
f 245/1/3 241/1/3 244/1/3
f 246/1/3 241/1/3 245/1/3
f 252/1/3 248/1/3 247/1/3
f 253/1/3 248/1/3 252/1/3
f 258/5/3 250/5/3 249/5/3
f 259/1/3 251/1/3 250/1/3
f 259/5/3 250/5/3 258/5/3
f 260/1/3 251/1/3 259/1/3
f 261/2/3 255/2/3 254/2/3
f 262/2/3 255/2/3 261/2/3
f 263/2/3 257/2/3 256/2/3
f 264/2/3 257/2/3 263/2/3
f 268/5/3 266/5/3 265/5/3
f 269/1/3 267/1/3 266/1/3
f 269/5/3 266/5/3 268/5/3
f 270/1/3 267/1/3 269/1/3
f 276/2/3 272/2/3 271/2/3
f 276/2/3 273/2/3 272/2/3
f 277/2/3 273/2/3 276/2/3
f 278/2/3 275/2/3 274/2/3
f 279/2/3 275/2/3 278/2/3
f 280/2/4 281/2/4 285/2/4
f 281/2/4 282/2/4 285/2/4
f 285/2/4 282/2/4 286/2/4
f 283/2/4 284/2/4 287/2/4
f 287/2/4 284/2/4 288/2/4
f 289/1/4 290/1/4 294/1/4
f 294/1/4 290/1/4 295/1/4
f 291/5/4 292/5/4 300/5/4
f 292/1/4 293/1/4 301/1/4
f 300/5/4 292/5/4 301/5/4
f 301/1/4 293/1/4 302/1/4
f 296/2/4 297/2/4 303/2/4
f 303/2/4 297/2/4 304/2/4
f 298/2/4 299/2/4 305/2/4
f 305/2/4 299/2/4 306/2/4
f 307/5/4 308/5/4 310/5/4
f 308/1/4 309/1/4 311/1/4
f 310/5/4 308/5/4 311/5/4
f 311/1/4 309/1/4 312/1/4
f 313/1/4 314/1/4 316/1/4
f 314/5/4 315/5/4 316/5/4
f 316/5/4 315/5/4 317/5/4
f 316/1/4 317/1/4 318/1/4
f 313/1/4 316/1/4 320/1/4
f 316/1/4 318/1/4 320/1/4
f 320/1/4 318/1/4 321/1/4
f 319/1/4 320/1/4 322/1/4
f 320/1/4 321/1/4 322/1/4
f 322/1/4 321/1/4 323/1/4
f 323/1/4 321/1/4 324/1/4
f 323/1/4 324/1/4 325/1/4
f 325/1/4 324/1/4 326/1/4
f 323/1/4 325/1/4 327/1/4
f 327/1/4 325/1/4 328/1/4
f 323/1/4 327/1/4 330/1/4
f 330/1/4 327/1/4 331/1/4
f 329/1/4 330/1/4 332/1/4
f 332/1/4 330/1/4 333/1/4
f 333/1/4 330/1/4 334/1/4
f 334/1/4 330/1/4 335/1/4
f 336/4/4 337/4/4 338/4/4
f 338/4/4 337/4/4 339/4/4
f 338/1/4 339/1/4 344/1/4
f 339/1/4 340/1/4 344/1/4
f 344/1/4 340/1/4 345/1/4
f 341/5/4 342/5/4 346/5/4
f 342/1/4 343/1/4 347/1/4
f 346/5/4 342/5/4 347/5/4
f 347/1/4 343/1/4 348/1/4
f 348/1/4 343/1/4 351/1/4
f 349/5/4 350/5/4 352/5/4
f 350/1/4 351/1/4 353/1/4
f 352/5/4 350/5/4 353/5/4
f 351/1/4 343/1/4 354/1/4
f 353/1/4 351/1/4 354/1/4
f 355/2/4 356/2/4 361/2/4
f 361/2/4 356/2/4 362/2/4
f 357/2/4 358/2/4 363/2/4
f 363/2/4 358/2/4 364/2/4
f 359/2/4 360/2/4 365/2/4
f 365/2/4 360/2/4 366/2/4
f 367/2/4 368/2/4 371/2/4
f 371/2/4 368/2/4 372/2/4
f 369/2/4 370/2/4 373/2/4
f 373/2/4 370/2/4 374/2/4
f 379/5/5 376/5/5 375/5/5
f 380/5/5 376/5/5 379/5/5
f 381/5/5 378/5/5 377/5/5
f 382/5/5 378/5/5 381/5/5
f 387/5/5 384/5/5 383/5/5
f 388/5/5 384/5/5 387/5/5
f 389/5/5 386/5/5 385/5/5
f 390/5/5 386/5/5 389/5/5
f 394/1/5 392/1/5 391/1/5
f 395/1/5 392/1/5 394/1/5
f 397/1/5 394/1/5 393/1/5
f 397/1/5 396/1/5 395/1/5
f 397/1/5 395/1/5 394/1/5
f 398/1/5 396/1/5 397/1/5
f 399/1/5 396/1/5 398/1/5
f 400/1/5 396/1/5 399/1/5
f 401/1/5 399/1/5 398/1/5
f 402/1/5 399/1/5 401/1/5
f 405/1/5 404/1/5 403/1/5
f 406/1/5 404/1/5 405/1/5
f 411/1/5 408/1/5 407/1/5
f 412/1/5 408/1/5 411/1/5
f 413/1/5 410/1/5 409/1/5
f 414/1/5 410/1/5 413/1/5
f 417/1/5 416/1/5 415/1/5
f 418/1/5 416/1/5 417/1/5
f 423/2/5 420/2/5 419/2/5
f 424/4/5 422/4/5 421/4/5
f 425/1/5 423/1/5 422/1/5
f 425/4/5 422/4/5 424/4/5
f 426/2/5 420/2/5 423/2/5
f 426/1/5 423/1/5 425/1/5
f 427/2/5 420/2/5 426/2/5
f 432/4/5 429/4/5 428/4/5
f 433/1/5 430/1/5 429/1/5
f 433/4/5 429/4/5 432/4/5
f 434/2/5 431/2/5 430/2/5
f 434/1/5 430/1/5 433/1/5
f 435/2/5 431/2/5 434/2/5
f 436/2/5 431/2/5 435/2/5
f 439/2/5 438/2/5 437/2/5
f 440/2/5 438/2/5 439/2/5
f 443/2/5 442/2/5 441/2/5
f 444/2/5 442/2/5 443/2/5
f 447/2/5 446/2/5 445/2/5
f 448/2/5 446/2/5 447/2/5
f 451/2/5 450/2/5 449/2/5
f 452/2/5 450/2/5 451/2/5
f 455/2/5 454/2/5 453/2/5
f 456/2/5 454/2/5 455/2/5
f 459/2/5 458/2/5 457/2/5
f 460/2/5 458/2/5 459/2/5
f 463/2/5 462/2/5 461/2/5
f 464/2/5 462/2/5 463/2/5
f 467/2/5 466/2/5 465/2/5
f 468/2/5 466/2/5 467/2/5
f 469/1/6 470/1/6 471/1/6
f 471/1/6 470/1/6 472/1/6
f 472/1/6 473/1/6 475/1/6
f 475/1/6 473/1/6 476/1/6
f 474/1/6 475/1/6 477/1/6
f 477/1/6 475/1/6 478/1/6
f 479/1/6 480/1/6 481/1/6
f 481/1/6 480/1/6 482/1/6
f 483/1/6 484/1/6 485/1/6
f 485/1/6 484/1/6 486/1/6
f 487/5/6 488/5/6 490/5/6
f 488/1/6 489/1/6 491/1/6
f 490/5/6 488/5/6 491/5/6
f 491/1/6 489/1/6 492/1/6
f 493/4/6 494/4/6 497/4/6
f 497/4/6 494/4/6 498/4/6
f 495/2/6 496/2/6 499/2/6
f 499/2/6 496/2/6 500/2/6
f 497/1/6 498/1/6 501/1/6
f 498/1/6 499/1/6 501/1/6
f 499/1/6 500/1/6 501/1/6
f 501/1/6 500/1/6 502/1/6
f 502/1/6 500/1/6 503/1/6
f 503/1/6 500/1/6 504/1/6
f 501/4/6 502/4/6 505/4/6
f 505/4/6 502/4/6 506/4/6
f 503/2/6 504/2/6 507/2/6
f 507/2/6 504/2/6 508/2/6
f 509/1/6 510/1/6 511/1/6
f 511/1/6 510/1/6 512/1/6
f 513/1/6 514/1/6 515/1/6
f 515/1/6 514/1/6 516/1/6
f 517/2/6 518/2/6 519/2/6
f 519/2/6 518/2/6 520/2/6
f 521/2/6 522/2/6 523/2/6
f 523/2/6 522/2/6 524/2/6
f 525/2/6 526/2/6 527/2/6
f 527/2/6 526/2/6 528/2/6
f 529/2/6 530/2/6 531/2/6
f 531/2/6 530/2/6 532/2/6
f 533/2/6 534/2/6 535/2/6
f 535/2/6 534/2/6 536/2/6
f 537/2/6 538/2/6 539/2/6
f 539/2/6 538/2/6 540/2/6
f 541/2/6 542/2/6 543/2/6
f 543/2/6 542/2/6 544/2/6
f 545/2/6 546/2/6 547/2/6
f 547/2/6 546/2/6 548/2/6
