# MagicaVoxel @ Ephtracy

# material
mtllib GroundBlock_type3_12.mtl
usemtl palette

# normals
vn -1 0 0
vn 1 0 0
vn 0 0 1
vn 0 0 -1
vn 0 -1 0
vn 0 1 0

# texcoords
vt 0.869141 0.5
vt 0.900391 0.5
vt 0.982422 0.5
vt 0.990234 0.5

# verts
v -3 0 3
v -3 0 -1
v -3 0 -2
v -3 0 -3
v -3 1 -1
v -3 1 -2
v -3 1 -3
v -3 2 3
v -3 2 -0
v -3 2 -1
v -3 2 -2
v -3 3 3
v -3 3 1
v -3 3 -0
v -3 3 -1
v -3 4 2
v -3 4 1
v -3 4 -0
v -3 5 3
v -3 5 2
v -3 5 1
v -3 6 3
v -3 6 2
v 3 0 3
v 3 0 2
v 3 0 1
v 3 0 -2
v 3 0 -3
v 3 1 -1
v 3 1 -2
v 3 1 -3
v 3 2 3
v 3 2 2
v 3 2 1
v 3 2 -0
v 3 2 -1
v 3 2 -2
v 3 3 3
v 3 3 1
v 3 3 -0
v 3 3 -1
v 3 4 2
v 3 4 1
v 3 4 -0
v 3 5 3
v 3 5 2
v 3 5 1
v 3 6 3
v 3 6 2
v -3 0 3
v -3 2 3
v -3 3 3
v -3 5 3
v -3 6 3
v -2 0 3
v -2 2 3
v -1 0 3
v -1 2 3
v 1 3 3
v 1 5 3
v 2 3 3
v 2 5 3
v 3 0 3
v 3 2 3
v 3 3 3
v 3 5 3
v 3 6 3
v -3 5 2
v -3 6 2
v 3 5 2
v 3 6 2
v -3 4 1
v -3 5 1
v 0 4 1
v 1 4 1
v 3 4 1
v 3 5 1
v -3 3 -0
v -3 4 -0
v 0 3 -0
v 0 4 -0
v 1 3 -0
v 1 4 -0
v 3 3 -0
v 3 4 -0
v -3 2 -1
v -3 3 -1
v -1 2 -1
v 1 2 -1
v 3 2 -1
v 3 3 -1
v -3 1 -2
v -3 2 -2
v -1 1 -2
v -1 2 -2
v 1 1 -2
v 1 2 -2
v 3 1 -2
v 3 2 -2
v -3 0 -3
v -3 1 -3
v 3 0 -3
v 3 1 -3
v -3 0 3
v -2 0 3
v -1 0 3
v 3 0 3
v -2 0 2
v -1 0 2
v 2 0 2
v 3 0 2
v 2 0 1
v 3 0 1
v -3 0 -1
v -2 0 -1
v -3 0 -2
v -2 0 -2
v 3 0 -2
v -3 0 -3
v 3 0 -3
v -3 1 -2
v -1 1 -2
v 1 1 -2
v 3 1 -2
v -3 1 -3
v 3 1 -3
v -3 2 -1
v -1 2 -1
v 1 2 -1
v 3 2 -1
v -3 2 -2
v -1 2 -2
v 1 2 -2
v 3 2 -2
v -3 3 -0
v 0 3 -0
v 1 3 -0
v 3 3 -0
v -3 3 -1
v 3 3 -1
v -3 4 1
v 0 4 1
v 1 4 1
v 3 4 1
v -3 4 -0
v 0 4 -0
v 1 4 -0
v 3 4 -0
v -3 5 2
v 3 5 2
v -3 5 1
v 3 5 1
v -3 6 3
v 3 6 3
v -3 6 2
v 3 6 2

# faces
f 5/1/1 2/1/1 1/1/1
f 5/3/1 3/3/1 2/3/1
f 6/4/1 4/4/1 3/4/1
f 6/3/1 3/3/1 5/3/1
f 7/4/1 4/4/1 6/4/1
f 8/1/1 5/1/1 1/1/1
f 9/1/1 5/1/1 8/1/1
f 10/4/1 6/4/1 5/4/1
f 10/1/1 5/1/1 9/1/1
f 11/4/1 6/4/1 10/4/1
f 12/3/1 9/3/1 8/3/1
f 13/3/1 9/3/1 12/3/1
f 14/4/1 10/4/1 9/4/1
f 14/3/1 9/3/1 13/3/1
f 15/4/1 10/4/1 14/4/1
f 16/1/1 13/1/1 12/1/1
f 17/4/1 14/4/1 13/4/1
f 17/1/1 13/1/1 16/1/1
f 18/4/1 14/4/1 17/4/1
f 19/1/1 16/1/1 12/1/1
f 20/4/1 17/4/1 16/4/1
f 20/1/1 16/1/1 19/1/1
f 21/4/1 17/4/1 20/4/1
f 22/4/1 20/4/1 19/4/1
f 23/4/1 20/4/1 22/4/1
f 26/2/2 27/2/2 29/2/2
f 27/4/2 28/4/2 30/4/2
f 29/2/2 27/2/2 30/2/2
f 30/4/2 28/4/2 31/4/2
f 24/2/2 25/2/2 32/2/2
f 25/3/2 26/3/2 33/3/2
f 32/2/2 25/2/2 33/2/2
f 26/2/2 29/2/2 34/2/2
f 33/3/2 26/3/2 34/3/2
f 34/2/2 29/2/2 35/2/2
f 29/4/2 30/4/2 36/4/2
f 35/2/2 29/2/2 36/2/2
f 36/4/2 30/4/2 37/4/2
f 32/3/2 33/3/2 38/3/2
f 34/3/2 35/3/2 38/3/2
f 33/3/2 34/3/2 38/3/2
f 38/3/2 35/3/2 39/3/2
f 35/4/2 36/4/2 40/4/2
f 39/3/2 35/3/2 40/3/2
f 40/4/2 36/4/2 41/4/2
f 38/1/2 39/1/2 42/1/2
f 39/4/2 40/4/2 43/4/2
f 42/1/2 39/1/2 43/1/2
f 43/4/2 40/4/2 44/4/2
f 38/1/2 42/1/2 45/1/2
f 42/4/2 43/4/2 46/4/2
f 45/1/2 42/1/2 46/1/2
f 46/4/2 43/4/2 47/4/2
f 45/4/2 46/4/2 48/4/2
f 48/4/2 46/4/2 49/4/2
f 55/1/3 51/1/3 50/1/3
f 56/3/3 52/3/3 51/3/3
f 56/1/3 51/1/3 55/1/3
f 57/3/3 56/3/3 55/3/3
f 58/3/3 52/3/3 56/3/3
f 58/3/3 56/3/3 57/3/3
f 59/1/3 53/1/3 52/1/3
f 59/3/3 52/3/3 58/3/3
f 60/4/3 54/4/3 53/4/3
f 60/1/3 53/1/3 59/1/3
f 61/3/3 59/3/3 58/3/3
f 61/3/3 60/3/3 59/3/3
f 62/4/3 54/4/3 60/4/3
f 62/3/3 60/3/3 61/3/3
f 63/2/3 58/2/3 57/2/3
f 64/3/3 61/3/3 58/3/3
f 64/2/3 58/2/3 63/2/3
f 65/1/3 62/1/3 61/1/3
f 65/3/3 61/3/3 64/3/3
f 66/4/3 54/4/3 62/4/3
f 66/1/3 62/1/3 65/1/3
f 67/4/3 54/4/3 66/4/3
f 68/4/4 69/4/4 70/4/4
f 70/4/4 69/4/4 71/4/4
f 72/4/4 73/4/4 74/4/4
f 74/4/4 73/4/4 75/4/4
f 75/4/4 73/4/4 76/4/4
f 76/4/4 73/4/4 77/4/4
f 78/4/4 79/4/4 80/4/4
f 80/4/4 79/4/4 81/4/4
f 80/1/4 81/1/4 82/1/4
f 82/1/4 81/1/4 83/1/4
f 82/4/4 83/4/4 84/4/4
f 84/4/4 83/4/4 85/4/4
f 86/4/4 87/4/4 88/4/4
f 88/4/4 87/4/4 89/4/4
f 89/4/4 87/4/4 90/4/4
f 90/4/4 87/4/4 91/4/4
f 92/4/4 93/4/4 94/4/4
f 94/4/4 93/4/4 95/4/4
f 94/1/4 95/1/4 96/1/4
f 96/1/4 95/1/4 97/1/4
f 96/4/4 97/4/4 98/4/4
f 98/4/4 97/4/4 99/4/4
f 100/4/4 101/4/4 102/4/4
f 102/4/4 101/4/4 103/4/4
f 108/1/5 105/1/5 104/1/5
f 108/3/5 106/3/5 105/3/5
f 109/2/5 107/2/5 106/2/5
f 109/3/5 106/3/5 108/3/5
f 110/2/5 107/2/5 109/2/5
f 111/2/5 107/2/5 110/2/5
f 112/2/5 109/2/5 108/2/5
f 112/2/5 110/2/5 109/2/5
f 112/3/5 111/3/5 110/3/5
f 113/3/5 111/3/5 112/3/5
f 114/1/5 108/1/5 104/1/5
f 115/2/5 112/2/5 108/2/5
f 115/1/5 108/1/5 114/1/5
f 115/2/5 113/2/5 112/2/5
f 116/3/5 115/3/5 114/3/5
f 117/2/5 113/2/5 115/2/5
f 117/3/5 115/3/5 116/3/5
f 118/2/5 113/2/5 117/2/5
f 119/4/5 117/4/5 116/4/5
f 119/4/5 118/4/5 117/4/5
f 120/4/5 118/4/5 119/4/5
f 121/4/6 122/4/6 125/4/6
f 123/4/6 124/4/6 125/4/6
f 122/4/6 123/4/6 125/4/6
f 125/4/6 124/4/6 126/4/6
f 127/4/6 128/4/6 131/4/6
f 128/1/6 129/1/6 132/1/6
f 131/4/6 128/4/6 132/4/6
f 129/4/6 130/4/6 133/4/6
f 132/1/6 129/1/6 133/1/6
f 133/4/6 130/4/6 134/4/6
f 135/4/6 136/4/6 139/4/6
f 137/4/6 138/4/6 139/4/6
f 136/4/6 137/4/6 139/4/6
f 139/4/6 138/4/6 140/4/6
f 141/4/6 142/4/6 145/4/6
f 142/1/6 143/1/6 146/1/6
f 145/4/6 142/4/6 146/4/6
f 143/4/6 144/4/6 147/4/6
f 146/1/6 143/1/6 147/1/6
f 147/4/6 144/4/6 148/4/6
f 149/4/6 150/4/6 151/4/6
f 151/4/6 150/4/6 152/4/6
f 153/4/6 154/4/6 155/4/6
f 155/4/6 154/4/6 156/4/6
