# MagicaVoxel @ Ephtracy

# material
mtllib GroundBlock_type1_09.mtl
usemtl palette

# normals
vn -1 0 0
vn 1 0 0
vn 0 0 1
vn 0 0 -1
vn 0 -1 0
vn 0 1 0

# texcoords
vt 0.111328 0.5
vt 0.119141 0.5
vt 0.505859 0.5
vt 0.529297 0.5
vt 0.541016 0.5
vt 0.556641 0.5
vt 0.966797 0.5

# verts
v -3 0 3
v -3 0 1
v -3 0 -0
v -3 0 -1
v -3 0 -2
v -3 0 -3
v -3 1 1
v -3 1 -0
v -3 1 -1
v -3 1 -2
v -3 1 -3
v -3 2 3
v -3 2 2
v -3 2 1
v -3 2 -0
v -3 2 -1
v -3 2 -2
v -3 3 3
v -3 3 2
v -3 3 1
v -3 3 -0
v -3 3 -1
v -3 4 3
v -3 4 2
v -3 4 1
v -3 4 -0
v -3 5 3
v -3 5 2
v -3 5 1
v -3 6 3
v -3 6 2
v 3 0 3
v 3 0 1
v 3 0 -0
v 3 0 -1
v 3 0 -2
v 3 0 -3
v 3 1 2
v 3 1 1
v 3 1 -0
v 3 1 -1
v 3 1 -2
v 3 1 -3
v 3 2 3
v 3 2 2
v 3 2 1
v 3 2 -0
v 3 2 -1
v 3 2 -2
v 3 3 3
v 3 3 2
v 3 3 1
v 3 3 -0
v 3 3 -1
v 3 4 3
v 3 4 2
v 3 4 1
v 3 4 -0
v 3 5 2
v 3 5 1
v 3 6 3
v 3 6 2
v -3 0 3
v -3 2 3
v -3 3 3
v -3 4 3
v -3 5 3
v -3 6 3
v -2 2 3
v -2 3 3
v -2 4 3
v -2 5 3
v -2 6 3
v -1 1 3
v -1 2 3
v -1 3 3
v -1 4 3
v -1 5 3
v -1 6 3
v 0 0 3
v 0 1 3
v 0 2 3
v 0 3 3
v 0 4 3
v 0 5 3
v 1 0 3
v 1 1 3
v 1 2 3
v 1 3 3
v 1 4 3
v 1 5 3
v 1 6 3
v 2 2 3
v 2 3 3
v 2 4 3
v 2 5 3
v 2 6 3
v 3 0 3
v 3 2 3
v 3 3 3
v 3 4 3
v 3 6 3
v -3 5 2
v -3 6 2
v -2 5 2
v -2 6 2
v -1 5 2
v -1 6 2
v 1 5 2
v 1 6 2
v 2 5 2
v 2 6 2
v 3 5 2
v 3 6 2
v -3 4 1
v -3 5 1
v -2 4 1
v -1 4 1
v 0 4 1
v 1 4 1
v 1 5 1
v 2 4 1
v 2 5 1
v 3 4 1
v 3 5 1
v -3 3 -0
v -3 4 -0
v -2 3 -0
v -2 4 -0
v -1 3 -0
v -1 4 -0
v 0 3 -0
v 0 4 -0
v 1 3 -0
v 3 3 -0
v 3 4 -0
v -3 2 -1
v -3 3 -1
v -1 2 -1
v 0 2 -1
v 0 3 -1
v 1 2 -1
v 1 3 -1
v 2 2 -1
v 3 2 -1
v 3 3 -1
v -3 1 -2
v -3 2 -2
v -1 1 -2
v -1 2 -2
v 0 1 -2
v 0 2 -2
v 1 1 -2
v 2 1 -2
v 2 2 -2
v 3 1 -2
v 3 2 -2
v -3 0 -3
v -3 1 -3
v 0 0 -3
v 0 1 -3
v 1 0 -3
v 1 1 -3
v 3 0 -3
v 3 1 -3
v -3 0 3
v 0 0 3
v 1 0 3
v 3 0 3
v 0 0 2
v 1 0 2
v -3 0 1
v -2 0 1
v 2 0 1
v 3 0 1
v -3 0 -0
v -2 0 -0
v 2 0 -0
v 3 0 -0
v -3 0 -1
v -2 0 -1
v 2 0 -1
v 3 0 -1
v -3 0 -2
v -2 0 -2
v 0 0 -2
v 1 0 -2
v 2 0 -2
v 3 0 -2
v -3 0 -3
v 0 0 -3
v 1 0 -3
v 3 0 -3
v -3 1 -2
v -1 1 -2
v 0 1 -2
v 1 1 -2
v 2 1 -2
v 3 1 -2
v -3 1 -3
v 0 1 -3
v 1 1 -3
v 3 1 -3
v -3 2 -1
v -1 2 -1
v 0 2 -1
v 1 2 -1
v 2 2 -1
v 3 2 -1
v -3 2 -2
v -1 2 -2
v 0 2 -2
v 2 2 -2
v 3 2 -2
v -3 3 -0
v -2 3 -0
v -1 3 -0
v 0 3 -0
v 1 3 -0
v 3 3 -0
v -3 3 -1
v 0 3 -1
v 1 3 -1
v 3 3 -1
v -3 4 1
v -2 4 1
v -1 4 1
v 0 4 1
v 1 4 1
v 2 4 1
v 3 4 1
v -3 4 -0
v -2 4 -0
v -1 4 -0
v 0 4 -0
v 3 4 -0
v -3 5 2
v -2 5 2
v -1 5 2
v 1 5 2
v 2 5 2
v 3 5 2
v -3 5 1
v 1 5 1
v 2 5 1
v 3 5 1
v -3 6 3
v -2 6 3
v -1 6 3
v 1 6 3
v 2 6 3
v 3 6 3
v -3 6 2
v -2 6 2
v -1 6 2
v 1 6 2
v 2 6 2
v 3 6 2

# faces
f 7/2/1 2/2/1 1/2/1
f 7/1/1 3/1/1 2/1/1
f 8/2/1 4/2/1 3/2/1
f 8/1/1 3/1/1 7/1/1
f 9/4/1 5/4/1 4/4/1
f 9/2/1 4/2/1 8/2/1
f 10/6/1 6/6/1 5/6/1
f 10/4/1 5/4/1 9/4/1
f 11/6/1 6/6/1 10/6/1
f 12/2/1 8/2/1 7/2/1
f 12/2/1 7/2/1 1/2/1
f 13/2/1 8/2/1 12/2/1
f 14/2/1 8/2/1 13/2/1
f 15/4/1 9/4/1 8/4/1
f 15/2/1 8/2/1 14/2/1
f 16/6/1 10/6/1 9/6/1
f 16/4/1 9/4/1 15/4/1
f 17/6/1 10/6/1 16/6/1
f 18/4/1 13/4/1 12/4/1
f 19/2/1 14/2/1 13/2/1
f 19/4/1 13/4/1 18/4/1
f 20/3/1 15/3/1 14/3/1
f 20/2/1 14/2/1 19/2/1
f 21/6/1 16/6/1 15/6/1
f 21/3/1 15/3/1 20/3/1
f 22/6/1 16/6/1 21/6/1
f 23/3/1 19/3/1 18/3/1
f 24/4/1 20/4/1 19/4/1
f 24/3/1 19/3/1 23/3/1
f 25/5/1 21/5/1 20/5/1
f 25/4/1 20/4/1 24/4/1
f 26/5/1 21/5/1 25/5/1
f 27/4/1 24/4/1 23/4/1
f 28/6/1 25/6/1 24/6/1
f 28/4/1 24/4/1 27/4/1
f 29/6/1 25/6/1 28/6/1
f 30/6/1 28/6/1 27/6/1
f 31/6/1 28/6/1 30/6/1
f 32/2/2 33/2/2 38/2/2
f 33/1/2 34/1/2 39/1/2
f 38/2/2 33/2/2 39/2/2
f 34/2/2 35/2/2 40/2/2
f 39/1/2 34/1/2 40/1/2
f 35/4/2 36/4/2 41/4/2
f 40/2/2 35/2/2 41/2/2
f 36/6/2 37/6/2 42/6/2
f 41/4/2 36/4/2 42/4/2
f 42/6/2 37/6/2 43/6/2
f 32/2/2 38/2/2 44/2/2
f 38/4/2 39/4/2 45/4/2
f 44/2/2 38/2/2 45/2/2
f 39/2/2 40/2/2 46/2/2
f 45/4/2 39/4/2 46/4/2
f 40/4/2 41/4/2 47/4/2
f 46/2/2 40/2/2 47/2/2
f 41/5/2 42/5/2 48/5/2
f 47/4/2 41/4/2 48/4/2
f 48/5/2 42/5/2 49/5/2
f 44/3/2 45/3/2 50/3/2
f 45/4/2 46/4/2 51/4/2
f 50/3/2 45/3/2 51/3/2
f 46/3/2 47/3/2 52/3/2
f 51/4/2 46/4/2 52/4/2
f 47/6/2 48/6/2 53/6/2
f 52/3/2 47/3/2 53/3/2
f 53/6/2 48/6/2 54/6/2
f 50/4/2 51/4/2 55/4/2
f 51/3/2 52/3/2 56/3/2
f 55/4/2 51/4/2 56/4/2
f 52/6/2 53/6/2 57/6/2
f 56/3/2 52/3/2 57/3/2
f 57/6/2 53/6/2 58/6/2
f 55/6/2 56/6/2 59/6/2
f 56/6/2 57/6/2 59/6/2
f 59/6/2 57/6/2 60/6/2
f 55/6/2 59/6/2 61/6/2
f 61/6/2 59/6/2 62/6/2
f 69/2/3 64/2/3 63/2/3
f 69/4/3 65/4/3 64/4/3
f 70/3/3 66/3/3 65/3/3
f 70/4/3 65/4/3 69/4/3
f 71/4/3 67/4/3 66/4/3
f 71/3/3 66/3/3 70/3/3
f 72/6/3 68/6/3 67/6/3
f 72/4/3 67/4/3 71/4/3
f 73/6/3 68/6/3 72/6/3
f 74/2/3 70/2/3 69/2/3
f 74/2/3 69/2/3 63/2/3
f 75/2/3 70/2/3 74/2/3
f 76/3/3 71/3/3 70/3/3
f 76/2/3 70/2/3 75/2/3
f 76/3/3 72/3/3 71/3/3
f 77/3/3 72/3/3 76/3/3
f 78/5/3 73/5/3 72/5/3
f 78/3/3 72/3/3 77/3/3
f 79/5/3 73/5/3 78/5/3
f 80/2/3 74/2/3 63/2/3
f 81/4/3 75/4/3 74/4/3
f 81/2/3 74/2/3 80/2/3
f 82/3/3 76/3/3 75/3/3
f 82/4/3 75/4/3 81/4/3
f 83/4/3 77/4/3 76/4/3
f 83/3/3 76/3/3 82/3/3
f 84/6/3 78/6/3 77/6/3
f 84/4/3 77/4/3 83/4/3
f 84/6/3 79/6/3 78/6/3
f 85/6/3 79/6/3 84/6/3
f 86/1/3 81/1/3 80/1/3
f 87/2/3 82/2/3 81/2/3
f 87/1/3 81/1/3 86/1/3
f 88/4/3 83/4/3 82/4/3
f 88/2/3 82/2/3 87/2/3
f 89/3/3 84/3/3 83/3/3
f 89/4/3 83/4/3 88/4/3
f 90/4/3 85/4/3 84/4/3
f 90/3/3 84/3/3 89/3/3
f 91/6/3 79/6/3 85/6/3
f 91/4/3 85/4/3 90/4/3
f 92/6/3 79/6/3 91/6/3
f 93/2/3 87/2/3 86/2/3
f 93/2/3 88/2/3 87/2/3
f 93/2/3 89/2/3 88/2/3
f 94/3/3 90/3/3 89/3/3
f 94/2/3 89/2/3 93/2/3
f 95/6/3 91/6/3 90/6/3
f 95/3/3 90/3/3 94/3/3
f 96/5/3 92/5/3 91/5/3
f 96/6/3 91/6/3 95/6/3
f 97/5/3 92/5/3 96/5/3
f 98/2/3 93/2/3 86/2/3
f 99/3/3 94/3/3 93/3/3
f 99/2/3 93/2/3 98/2/3
f 100/4/3 95/4/3 94/4/3
f 100/3/3 94/3/3 99/3/3
f 101/6/3 96/6/3 95/6/3
f 101/4/3 95/4/3 100/4/3
f 101/6/3 97/6/3 96/6/3
f 102/6/3 97/6/3 101/6/3
f 103/6/4 104/6/4 105/6/4
f 105/6/4 104/6/4 106/6/4
f 105/5/4 106/5/4 107/5/4
f 107/5/4 106/5/4 108/5/4
f 107/6/4 108/6/4 109/6/4
f 109/6/4 108/6/4 110/6/4
f 109/5/4 110/5/4 111/5/4
f 111/5/4 110/5/4 112/5/4
f 111/6/4 112/6/4 113/6/4
f 113/6/4 112/6/4 114/6/4
f 115/6/4 116/6/4 117/6/4
f 117/6/4 116/6/4 118/6/4
f 118/6/4 116/6/4 119/6/4
f 119/6/4 116/6/4 120/6/4
f 120/6/4 116/6/4 121/6/4
f 120/5/4 121/5/4 122/5/4
f 122/5/4 121/5/4 123/5/4
f 122/6/4 123/6/4 124/6/4
f 124/6/4 123/6/4 125/6/4
f 126/5/4 127/5/4 128/5/4
f 128/5/4 127/5/4 129/5/4
f 128/6/4 129/6/4 130/6/4
f 130/6/4 129/6/4 131/6/4
f 130/5/4 131/5/4 132/5/4
f 132/5/4 131/5/4 133/5/4
f 132/6/4 133/6/4 134/6/4
f 134/6/4 133/6/4 135/6/4
f 135/6/4 133/6/4 136/6/4
f 137/6/4 138/6/4 139/6/4
f 139/6/4 138/6/4 140/6/4
f 140/6/4 138/6/4 141/6/4
f 140/5/4 141/5/4 142/5/4
f 142/5/4 141/5/4 143/5/4
f 142/6/4 143/6/4 144/6/4
f 144/6/4 143/6/4 145/6/4
f 145/6/4 143/6/4 146/6/4
f 147/6/4 148/6/4 149/6/4
f 149/6/4 148/6/4 150/6/4
f 149/5/4 150/5/4 151/5/4
f 151/5/4 150/5/4 152/5/4
f 151/6/4 152/6/4 153/6/4
f 153/6/4 152/6/4 154/6/4
f 154/6/4 152/6/4 155/6/4
f 154/5/4 155/5/4 156/5/4
f 156/5/4 155/5/4 157/5/4
f 158/6/4 159/6/4 160/6/4
f 160/6/4 159/6/4 161/6/4
f 160/5/4 161/5/4 162/5/4
f 162/5/4 161/5/4 163/5/4
f 162/6/4 163/6/4 164/6/4
f 164/6/4 163/6/4 165/6/4
f 170/2/5 167/2/5 166/2/5
f 170/1/5 168/1/5 167/1/5
f 171/2/5 169/2/5 168/2/5
f 171/1/5 168/1/5 170/1/5
f 172/2/5 170/2/5 166/2/5
f 172/2/5 171/2/5 170/2/5
f 173/2/5 171/2/5 172/2/5
f 174/2/5 169/2/5 171/2/5
f 174/2/5 171/2/5 173/2/5
f 175/2/5 169/2/5 174/2/5
f 176/1/5 173/1/5 172/1/5
f 177/2/5 174/2/5 173/2/5
f 177/1/5 173/1/5 176/1/5
f 178/1/5 175/1/5 174/1/5
f 178/2/5 174/2/5 177/2/5
f 179/1/5 175/1/5 178/1/5
f 180/2/5 177/2/5 176/2/5
f 180/2/5 178/2/5 177/2/5
f 180/2/5 179/2/5 178/2/5
f 181/2/5 179/2/5 180/2/5
f 182/2/5 179/2/5 181/2/5
f 183/2/5 179/2/5 182/2/5
f 184/4/5 181/4/5 180/4/5
f 185/2/5 182/2/5 181/2/5
f 185/4/5 181/4/5 184/4/5
f 186/2/5 182/2/5 185/2/5
f 187/2/5 182/2/5 186/2/5
f 188/4/5 183/4/5 182/4/5
f 188/2/5 182/2/5 187/2/5
f 189/4/5 183/4/5 188/4/5
f 190/6/5 185/6/5 184/6/5
f 190/6/5 186/6/5 185/6/5
f 191/5/5 187/5/5 186/5/5
f 191/6/5 186/6/5 190/6/5
f 192/6/5 189/6/5 188/6/5
f 192/5/5 187/5/5 191/5/5
f 192/6/5 188/6/5 187/6/5
f 193/6/5 189/6/5 192/6/5
f 194/6/6 195/6/6 200/6/6
f 195/6/6 196/6/6 200/6/6
f 196/5/6 197/5/6 201/5/6
f 200/6/6 196/6/6 201/6/6
f 198/6/6 199/6/6 202/6/6
f 201/5/6 197/5/6 202/5/6
f 197/6/6 198/6/6 202/6/6
f 202/6/6 199/6/6 203/6/6
f 204/6/6 205/6/6 210/6/6
f 205/5/6 206/5/6 211/5/6
f 210/6/6 205/6/6 211/6/6
f 206/6/6 207/6/6 212/6/6
f 211/5/6 206/5/6 212/5/6
f 207/6/6 208/6/6 212/6/6
f 208/5/6 209/5/6 213/5/6
f 212/6/6 208/6/6 213/6/6
f 213/5/6 209/5/6 214/5/6
f 215/6/6 216/6/6 221/6/6
f 216/6/6 217/6/6 221/6/6
f 217/6/6 218/6/6 221/6/6
f 218/5/6 219/5/6 222/5/6
f 221/6/6 218/6/6 222/6/6
f 219/6/6 220/6/6 223/6/6
f 222/5/6 219/5/6 223/5/6
f 223/6/6 220/6/6 224/6/6
f 225/5/6 226/5/6 232/5/6
f 226/6/6 227/6/6 233/6/6
f 232/5/6 226/5/6 233/5/6
f 227/5/6 228/5/6 234/5/6
f 233/6/6 227/6/6 234/6/6
f 230/6/6 231/6/6 235/6/6
f 234/5/6 228/5/6 235/5/6
f 228/6/6 229/6/6 235/6/6
f 229/6/6 230/6/6 235/6/6
f 235/6/6 231/6/6 236/6/6
f 237/6/6 238/6/6 243/6/6
f 238/6/6 239/6/6 243/6/6
f 239/6/6 240/6/6 243/6/6
f 240/5/6 241/5/6 244/5/6
f 243/6/6 240/6/6 244/6/6
f 241/6/6 242/6/6 245/6/6
f 244/5/6 241/5/6 245/5/6
f 245/6/6 242/6/6 246/6/6
f 247/6/6 248/6/6 253/6/6
f 248/5/6 249/5/6 254/5/6
f 253/6/6 248/6/6 254/6/6
f 249/6/6 250/6/6 255/6/6
f 254/5/6 249/5/6 255/5/6
f 250/5/6 251/5/6 256/5/6
f 255/6/6 250/6/6 256/6/6
f 251/6/6 252/6/6 257/6/6
f 256/5/6 251/5/6 257/5/6
f 257/6/6 252/6/6 258/6/6
