# MagicaVoxel @ Ephtracy

# material
mtllib GroundBlock_type2_11.mtl
usemtl palette

# normals
vn -1 0 0
vn 1 0 0
vn 0 0 1
vn 0 0 -1
vn 0 -1 0
vn 0 1 0

# texcoords
vt 0.458984 0.5
vt 0.466797 0.5
vt 0.509766 0.5
vt 0.513672 0.5

# verts
v -3 0 3
v -3 0 -2
v -3 0 -3
v -3 1 2
v -3 1 1
v -3 1 -1
v -3 1 -2
v -3 1 -3
v -3 2 2
v -3 2 1
v -3 2 -0
v -3 2 -1
v -3 2 -2
v -3 3 3
v -3 3 2
v -3 3 -0
v -3 3 -1
v -3 4 3
v -3 4 2
v -3 4 1
v -3 4 -0
v -3 5 3
v -3 5 2
v -3 5 1
v -3 6 3
v -3 6 2
v 3 0 3
v 3 0 -2
v 3 0 -3
v 3 1 3
v 3 1 2
v 3 1 -1
v 3 1 -2
v 3 1 -3
v 3 2 3
v 3 2 2
v 3 2 -0
v 3 2 -1
v 3 2 -2
v 3 3 3
v 3 3 2
v 3 3 1
v 3 3 -0
v 3 3 -1
v 3 4 2
v 3 4 1
v 3 4 -0
v 3 5 3
v 3 5 2
v 3 5 1
v 3 6 3
v 3 6 2
v -3 0 3
v -3 3 3
v -3 4 3
v -3 5 3
v -3 6 3
v -2 3 3
v -2 4 3
v -1 3 3
v -1 4 3
v 0 4 3
v 0 5 3
v 1 2 3
v 1 3 3
v 1 4 3
v 1 5 3
v 2 1 3
v 2 2 3
v 2 3 3
v 3 0 3
v 3 1 3
v 3 2 3
v 3 3 3
v 3 5 3
v 3 6 3
v -3 5 2
v -3 6 2
v 3 5 2
v 3 6 2
v -3 4 1
v -3 5 1
v 3 4 1
v 3 5 1
v -3 3 -0
v -3 4 -0
v 3 3 -0
v 3 4 -0
v -3 2 -1
v -3 3 -1
v 3 2 -1
v 3 3 -1
v -3 1 -2
v -3 2 -2
v 3 1 -2
v 3 2 -2
v -3 0 -3
v -3 1 -3
v 3 0 -3
v 3 1 -3
v -3 0 3
v 3 0 3
v 0 0 -0
v 1 0 -0
v 0 0 -1
v 1 0 -1
v -3 0 -2
v 3 0 -2
v -3 0 -3
v 3 0 -3
v -3 1 -2
v 3 1 -2
v -3 1 -3
v 3 1 -3
v -3 2 -1
v 3 2 -1
v -3 2 -2
v 3 2 -2
v -3 3 -0
v 3 3 -0
v -3 3 -1
v 3 3 -1
v -3 4 1
v 3 4 1
v -3 4 -0
v 3 4 -0
v -3 5 2
v 3 5 2
v -3 5 1
v 3 5 1
v -3 6 3
v 3 6 3
v -3 6 2
v 3 6 2

# faces
f 4/1/1 2/1/1 1/1/1
f 5/1/1 2/1/1 4/1/1
f 6/1/1 2/1/1 5/1/1
f 7/4/1 3/4/1 2/4/1
f 7/1/1 2/1/1 6/1/1
f 8/4/1 3/4/1 7/4/1
f 9/1/1 4/1/1 1/1/1
f 9/3/1 5/3/1 4/3/1
f 10/1/1 6/1/1 5/1/1
f 10/3/1 5/3/1 9/3/1
f 11/1/1 6/1/1 10/1/1
f 12/4/1 7/4/1 6/4/1
f 12/1/1 6/1/1 11/1/1
f 13/4/1 7/4/1 12/4/1
f 14/1/1 9/1/1 1/1/1
f 14/1/1 11/1/1 10/1/1
f 14/1/1 10/1/1 9/1/1
f 15/1/1 11/1/1 14/1/1
f 16/4/1 12/4/1 11/4/1
f 16/1/1 11/1/1 15/1/1
f 17/4/1 12/4/1 16/4/1
f 18/2/1 15/2/1 14/2/1
f 19/4/1 16/4/1 15/4/1
f 19/2/1 15/2/1 18/2/1
f 20/4/1 16/4/1 19/4/1
f 21/4/1 16/4/1 20/4/1
f 22/1/1 19/1/1 18/1/1
f 23/4/1 20/4/1 19/4/1
f 23/1/1 19/1/1 22/1/1
f 24/4/1 20/4/1 23/4/1
f 25/4/1 23/4/1 22/4/1
f 26/4/1 23/4/1 25/4/1
f 27/1/2 28/1/2 30/1/2
f 30/1/2 28/1/2 31/1/2
f 31/1/2 28/1/2 32/1/2
f 28/4/2 29/4/2 33/4/2
f 32/1/2 28/1/2 33/1/2
f 33/4/2 29/4/2 34/4/2
f 30/3/2 31/3/2 35/3/2
f 31/1/2 32/1/2 36/1/2
f 35/3/2 31/3/2 36/3/2
f 36/1/2 32/1/2 37/1/2
f 32/4/2 33/4/2 38/4/2
f 37/1/2 32/1/2 38/1/2
f 38/4/2 33/4/2 39/4/2
f 35/2/2 36/2/2 40/2/2
f 36/1/2 37/1/2 41/1/2
f 40/2/2 36/2/2 41/2/2
f 41/1/2 37/1/2 42/1/2
f 37/4/2 38/4/2 43/4/2
f 42/1/2 37/1/2 43/1/2
f 43/4/2 38/4/2 44/4/2
f 41/1/2 42/1/2 45/1/2
f 40/1/2 41/1/2 45/1/2
f 42/4/2 43/4/2 46/4/2
f 45/1/2 42/1/2 46/1/2
f 46/4/2 43/4/2 47/4/2
f 40/1/2 45/1/2 48/1/2
f 45/4/2 46/4/2 49/4/2
f 48/1/2 45/1/2 49/1/2
f 49/4/2 46/4/2 50/4/2
f 48/4/2 49/4/2 51/4/2
f 51/4/2 49/4/2 52/4/2
f 58/1/3 54/1/3 53/1/3
f 58/2/3 55/2/3 54/2/3
f 59/1/3 56/1/3 55/1/3
f 59/2/3 55/2/3 58/2/3
f 60/1/3 58/1/3 53/1/3
f 60/4/3 59/4/3 58/4/3
f 61/1/3 56/1/3 59/1/3
f 61/4/3 59/4/3 60/4/3
f 62/1/3 61/1/3 60/1/3
f 62/1/3 56/1/3 61/1/3
f 63/4/3 57/4/3 56/4/3
f 63/1/3 56/1/3 62/1/3
f 64/1/3 62/1/3 60/1/3
f 64/1/3 60/1/3 53/1/3
f 65/1/3 62/1/3 64/1/3
f 66/4/3 63/4/3 62/4/3
f 66/1/3 62/1/3 65/1/3
f 67/4/3 57/4/3 63/4/3
f 67/4/3 63/4/3 66/4/3
f 68/1/3 64/1/3 53/1/3
f 69/3/3 65/3/3 64/3/3
f 69/1/3 64/1/3 68/1/3
f 70/1/3 66/1/3 65/1/3
f 70/3/3 65/3/3 69/3/3
f 70/1/3 67/1/3 66/1/3
f 71/1/3 68/1/3 53/1/3
f 72/3/3 69/3/3 68/3/3
f 72/1/3 68/1/3 71/1/3
f 73/2/3 70/2/3 69/2/3
f 73/3/3 69/3/3 72/3/3
f 74/1/3 67/1/3 70/1/3
f 74/2/3 70/2/3 73/2/3
f 75/4/3 57/4/3 67/4/3
f 75/1/3 67/1/3 74/1/3
f 76/4/3 57/4/3 75/4/3
f 77/4/4 78/4/4 79/4/4
f 79/4/4 78/4/4 80/4/4
f 81/4/4 82/4/4 83/4/4
f 83/4/4 82/4/4 84/4/4
f 85/4/4 86/4/4 87/4/4
f 87/4/4 86/4/4 88/4/4
f 89/4/4 90/4/4 91/4/4
f 91/4/4 90/4/4 92/4/4
f 93/4/4 94/4/4 95/4/4
f 95/4/4 94/4/4 96/4/4
f 97/4/4 98/4/4 99/4/4
f 99/4/4 98/4/4 100/4/4
f 103/1/5 102/1/5 101/1/5
f 104/1/5 102/1/5 103/1/5
f 105/1/5 103/1/5 101/1/5
f 105/3/5 104/3/5 103/3/5
f 106/1/5 102/1/5 104/1/5
f 106/3/5 104/3/5 105/3/5
f 107/1/5 105/1/5 101/1/5
f 107/1/5 106/1/5 105/1/5
f 108/1/5 102/1/5 106/1/5
f 108/1/5 106/1/5 107/1/5
f 109/4/5 108/4/5 107/4/5
f 110/4/5 108/4/5 109/4/5
f 111/4/6 112/4/6 113/4/6
f 113/4/6 112/4/6 114/4/6
f 115/4/6 116/4/6 117/4/6
f 117/4/6 116/4/6 118/4/6
f 119/4/6 120/4/6 121/4/6
f 121/4/6 120/4/6 122/4/6
f 123/4/6 124/4/6 125/4/6
f 125/4/6 124/4/6 126/4/6
f 127/4/6 128/4/6 129/4/6
f 129/4/6 128/4/6 130/4/6
f 131/4/6 132/4/6 133/4/6
f 133/4/6 132/4/6 134/4/6
