# MagicaVoxel @ Ephtracy

# material
mtllib Haystack_01.mtl
usemtl palette

# normals
vn -1 0 0
vn 1 0 0
vn 0 0 1
vn 0 0 -1
vn 0 -1 0
vn 0 1 0

# texcoords
vt 0.392578 0.5
vt 0.404297 0.5
vt 0.416016 0.5
vt 0.419922 0.5
vt 0.423828 0.5

# verts
v -4.5 0 2.5
v -4.5 0 1.5
v -4.5 0 0.5
v -4.5 0 -0.5
v -4.5 0 -1.5
v -4.5 0 -2.5
v -4.5 1 2.5
v -4.5 1 1.5
v -4.5 1 0.5
v -4.5 1 -0.5
v -4.5 1 -1.5
v -4.5 1 -2.5
v -3.5 0 3.5
v -3.5 0 2.5
v -3.5 0 -2.5
v -3.5 0 -3.5
v -3.5 1 3.5
v -3.5 1 2.5
v -3.5 1 1.5
v -3.5 1 0.5
v -3.5 1 -0.5
v -3.5 1 -1.5
v -3.5 1 -2.5
v -3.5 1 -3.5
v -3.5 2 -0.5
v -3.5 2 -1.5
v -3.5 3 1.5
v -3.5 3 0.5
v -3.5 3 -0.5
v -3.5 3 -1.5
v -3.5 4 1.5
v -3.5 4 0.5
v -3.5 4 -1.5
v -2.5 0 4.5
v -2.5 0 3.5
v -2.5 0 -3.5
v -2.5 0 -4.5
v -2.5 1 4.5
v -2.5 1 3.5
v -2.5 1 2.5
v -2.5 1 1.5
v -2.5 1 -1.5
v -2.5 1 -2.5
v -2.5 1 -3.5
v -2.5 1 -4.5
v -2.5 2 2.5
v -2.5 2 1.5
v -2.5 2 -1.5
v -2.5 3 1.5
v -2.5 3 -1.5
v -2.5 4 2.5
v -2.5 4 1.5
v -2.5 4 0.5
v -2.5 4 -0.5
v -2.5 4 -1.5
v -2.5 4 -2.5
v -2.5 5 1.5
v -2.5 5 -0.5
v -2.5 5 -1.5
v -1.5 1 3.5
v -1.5 1 2.5
v -1.5 1 -2.5
v -1.5 1 -3.5
v -1.5 2 2.5
v -1.5 2 -2.5
v -1.5 2 -3.5
v -1.5 3 3.5
v -1.5 3 2.5
v -1.5 4 3.5
v -1.5 4 2.5
v -1.5 4 1.5
v -1.5 4 -1.5
v -1.5 4 -2.5
v -1.5 4 -3.5
v -1.5 5 2.5
v -1.5 5 1.5
v -1.5 5 0.5
v -1.5 5 -0.5
v -1.5 5 -1.5
v -1.5 5 -2.5
v -1.5 6 1.5
v -1.5 6 0.5
v -1.5 6 -0.5
v -1.5 6 -1.5
v -0.5 6 0.5
v -0.5 6 -0.5
v -0.5 7 0.5
v -0.5 7 -0.5
v 0.5 0 0.5
v 0.5 0 -0.5
v 0.5 1 0.5
v 0.5 1 -0.5
v -0.5 0 0.5
v -0.5 0 -0.5
v -0.5 1 0.5
v -0.5 1 -0.5
v 0.5 6 0.5
v 0.5 6 -0.5
v 0.5 7 0.5
v 0.5 7 -0.5
v 1.5 1 3.5
v 1.5 1 2.5
v 1.5 1 -2.5
v 1.5 1 -3.5
v 1.5 2 -2.5
v 1.5 2 -3.5
v 1.5 3 3.5
v 1.5 3 2.5
v 1.5 3 -2.5
v 1.5 3 -3.5
v 1.5 4 3.5
v 1.5 4 2.5
v 1.5 4 1.5
v 1.5 4 -1.5
v 1.5 4 -2.5
v 1.5 4 -3.5
v 1.5 5 2.5
v 1.5 5 1.5
v 1.5 5 0.5
v 1.5 5 -0.5
v 1.5 5 -1.5
v 1.5 5 -2.5
v 1.5 6 1.5
v 1.5 6 0.5
v 1.5 6 -0.5
v 1.5 6 -1.5
v 2.5 0 4.5
v 2.5 0 3.5
v 2.5 0 -3.5
v 2.5 0 -4.5
v 2.5 1 4.5
v 2.5 1 3.5
v 2.5 1 2.5
v 2.5 1 1.5
v 2.5 1 -1.5
v 2.5 1 -2.5
v 2.5 1 -3.5
v 2.5 1 -4.5
v 2.5 2 1.5
v 2.5 2 -1.5
v 2.5 2 -2.5
v 2.5 3 2.5
v 2.5 3 1.5
v 2.5 3 -1.5
v 2.5 3 -2.5
v 2.5 4 2.5
v 2.5 4 1.5
v 2.5 4 -0.5
v 2.5 4 -1.5
v 2.5 4 -2.5
v 2.5 5 1.5
v 2.5 5 -0.5
v 2.5 5 -1.5
v 3.5 0 3.5
v 3.5 0 2.5
v 3.5 0 -2.5
v 3.5 0 -3.5
v 3.5 1 3.5
v 3.5 1 2.5
v 3.5 1 1.5
v 3.5 1 0.5
v 3.5 1 -0.5
v 3.5 1 -1.5
v 3.5 1 -2.5
v 3.5 1 -3.5
v 3.5 2 1.5
v 3.5 2 0.5
v 3.5 2 -0.5
v 3.5 2 -1.5
v 3.5 3 1.5
v 3.5 3 0.5
v 3.5 3 -0.5
v 3.5 3 -1.5
v 3.5 4 1.5
v 3.5 4 -0.5
v 3.5 4 -1.5
v 4.5 0 2.5
v 4.5 0 1.5
v 4.5 0 0.5
v 4.5 0 -0.5
v 4.5 0 -2.5
v 4.5 1 2.5
v 4.5 1 1.5
v 4.5 1 0.5
v 4.5 1 -0.5
v 4.5 1 -2.5
v -2.5 0 4.5
v -2.5 1 4.5
v -1.5 0 4.5
v -1.5 1 4.5
v -0.5 0 4.5
v -0.5 1 4.5
v 0.5 0 4.5
v 0.5 1 4.5
v 1.5 0 4.5
v 1.5 1 4.5
v 2.5 0 4.5
v 2.5 1 4.5
v -3.5 0 3.5
v -3.5 1 3.5
v -2.5 0 3.5
v -2.5 1 3.5
v -1.5 1 3.5
v -1.5 3 3.5
v -1.5 4 3.5
v -0.5 1 3.5
v -0.5 2 3.5
v -0.5 3 3.5
v -0.5 4 3.5
v 0.5 1 3.5
v 0.5 2 3.5
v 0.5 3 3.5
v 0.5 4 3.5
v 1.5 1 3.5
v 1.5 3 3.5
v 1.5 4 3.5
v 2.5 0 3.5
v 2.5 1 3.5
v 3.5 0 3.5
v 3.5 1 3.5
v -4.5 0 2.5
v -4.5 1 2.5
v -3.5 0 2.5
v -3.5 1 2.5
v -2.5 1 2.5
v -2.5 2 2.5
v -2.5 4 2.5
v -1.5 1 2.5
v -1.5 2 2.5
v -1.5 3 2.5
v -1.5 4 2.5
v -1.5 5 2.5
v -0.5 4 2.5
v -0.5 5 2.5
v 0.5 4 2.5
v 0.5 5 2.5
v 1.5 1 2.5
v 1.5 3 2.5
v 1.5 4 2.5
v 1.5 5 2.5
v 2.5 1 2.5
v 2.5 3 2.5
v 2.5 4 2.5
v 3.5 0 2.5
v 3.5 1 2.5
v 4.5 0 2.5
v 4.5 1 2.5
v -3.5 1 1.5
v -3.5 3 1.5
v -3.5 4 1.5
v -2.5 1 1.5
v -2.5 2 1.5
v -2.5 3 1.5
v -2.5 4 1.5
v -2.5 5 1.5
v -1.5 4 1.5
v -1.5 5 1.5
v -1.5 6 1.5
v -0.5 5 1.5
v -0.5 6 1.5
v 0.5 5 1.5
v 1.5 4 1.5
v 1.5 5 1.5
v 1.5 6 1.5
v 2.5 1 1.5
v 2.5 2 1.5
v 2.5 3 1.5
v 2.5 4 1.5
v 2.5 5 1.5
v 3.5 1 1.5
v 3.5 2 1.5
v 3.5 3 1.5
v 3.5 4 1.5
v -0.5 6 0.5
v -0.5 7 0.5
v 0.5 6 0.5
v 0.5 7 0.5
v -0.5 0 -0.5
v -0.5 1 -0.5
v 0.5 0 -0.5
v 0.5 1 -0.5
v -0.5 0 0.5
v -0.5 1 0.5
v 0.5 0 0.5
v 0.5 1 0.5
v -0.5 6 -0.5
v -0.5 7 -0.5
v 0.5 6 -0.5
v 0.5 7 -0.5
v -3.5 1 -1.5
v -3.5 2 -1.5
v -3.5 3 -1.5
v -3.5 4 -1.5
v -2.5 1 -1.5
v -2.5 2 -1.5
v -2.5 3 -1.5
v -2.5 4 -1.5
v -2.5 5 -1.5
v -1.5 4 -1.5
v -1.5 5 -1.5
v -1.5 6 -1.5
v -0.5 5 -1.5
v -0.5 6 -1.5
v 0.5 5 -1.5
v 0.5 6 -1.5
v 1.5 4 -1.5
v 1.5 5 -1.5
v 1.5 6 -1.5
v 2.5 1 -1.5
v 2.5 2 -1.5
v 2.5 3 -1.5
v 2.5 4 -1.5
v 2.5 5 -1.5
v 3.5 1 -1.5
v 3.5 2 -1.5
v 3.5 3 -1.5
v 3.5 4 -1.5
v -4.5 0 -2.5
v -4.5 1 -2.5
v -3.5 0 -2.5
v -3.5 1 -2.5
v -2.5 1 -2.5
v -2.5 4 -2.5
v -1.5 1 -2.5
v -1.5 2 -2.5
v -1.5 4 -2.5
v -1.5 5 -2.5
v -0.5 4 -2.5
v -0.5 5 -2.5
v 0.5 4 -2.5
v 1.5 1 -2.5
v 1.5 2 -2.5
v 1.5 3 -2.5
v 1.5 4 -2.5
v 1.5 5 -2.5
v 2.5 1 -2.5
v 2.5 2 -2.5
v 2.5 3 -2.5
v 2.5 4 -2.5
v 3.5 0 -2.5
v 3.5 1 -2.5
v 4.5 0 -2.5
v 4.5 1 -2.5
v -3.5 0 -3.5
v -3.5 1 -3.5
v -2.5 0 -3.5
v -2.5 1 -3.5
v -1.5 1 -3.5
v -1.5 2 -3.5
v -1.5 4 -3.5
v -0.5 1 -3.5
v -0.5 2 -3.5
v -0.5 3 -3.5
v -0.5 4 -3.5
v 0.5 1 -3.5
v 0.5 2 -3.5
v 0.5 3 -3.5
v 0.5 4 -3.5
v 1.5 1 -3.5
v 1.5 2 -3.5
v 1.5 3 -3.5
v 1.5 4 -3.5
v 2.5 0 -3.5
v 2.5 1 -3.5
v 3.5 0 -3.5
v 3.5 1 -3.5
v -2.5 0 -4.5
v -2.5 1 -4.5
v -1.5 0 -4.5
v -1.5 1 -4.5
v -0.5 0 -4.5
v -0.5 1 -4.5
v 0.5 0 -4.5
v 0.5 1 -4.5
v 1.5 0 -4.5
v 1.5 1 -4.5
v 2.5 0 -4.5
v 2.5 1 -4.5
v -2.5 0 4.5
v -1.5 0 4.5
v -0.5 0 4.5
v 0.5 0 4.5
v 1.5 0 4.5
v 2.5 0 4.5
v -3.5 0 3.5
v -2.5 0 3.5
v -1.5 0 3.5
v -0.5 0 3.5
v 0.5 0 3.5
v 1.5 0 3.5
v 2.5 0 3.5
v 3.5 0 3.5
v -4.5 0 2.5
v -3.5 0 2.5
v -2.5 0 2.5
v 1.5 0 2.5
v 2.5 0 2.5
v 3.5 0 2.5
v 4.5 0 2.5
v -4.5 0 1.5
v -3.5 0 1.5
v 3.5 0 1.5
v 4.5 0 1.5
v -4.5 0 0.5
v -3.5 0 0.5
v -0.5 0 0.5
v 0.5 0 0.5
v 3.5 0 0.5
v 4.5 0 0.5
v -4.5 0 -0.5
v -3.5 0 -0.5
v -0.5 0 -0.5
v 0.5 0 -0.5
v 3.5 0 -0.5
v 4.5 0 -0.5
v -4.5 0 -1.5
v -3.5 0 -1.5
v -2.5 0 -1.5
v -4.5 0 -2.5
v -3.5 0 -2.5
v -2.5 0 -2.5
v 1.5 0 -2.5
v 2.5 0 -2.5
v 3.5 0 -2.5
v 4.5 0 -2.5
v -3.5 0 -3.5
v -2.5 0 -3.5
v -1.5 0 -3.5
v -0.5 0 -3.5
v 0.5 0 -3.5
v 1.5 0 -3.5
v 2.5 0 -3.5
v 3.5 0 -3.5
v -2.5 0 -4.5
v -1.5 0 -4.5
v -0.5 0 -4.5
v 0.5 0 -4.5
v 1.5 0 -4.5
v 2.5 0 -4.5
v -0.5 1 0.5
v 0.5 1 0.5
v -0.5 1 -0.5
v 0.5 1 -0.5
v -2.5 1 4.5
v -1.5 1 4.5
v -0.5 1 4.5
v 0.5 1 4.5
v 1.5 1 4.5
v 2.5 1 4.5
v -3.5 1 3.5
v -2.5 1 3.5
v -1.5 1 3.5
v -0.5 1 3.5
v 0.5 1 3.5
v 1.5 1 3.5
v 2.5 1 3.5
v 3.5 1 3.5
v -4.5 1 2.5
v -3.5 1 2.5
v -2.5 1 2.5
v -1.5 1 2.5
v 1.5 1 2.5
v 2.5 1 2.5
v 3.5 1 2.5
v 4.5 1 2.5
v -4.5 1 1.5
v -3.5 1 1.5
v -2.5 1 1.5
v 2.5 1 1.5
v 3.5 1 1.5
v 4.5 1 1.5
v -4.5 1 0.5
v -3.5 1 0.5
v 3.5 1 0.5
v 4.5 1 0.5
v -4.5 1 -0.5
v -3.5 1 -0.5
v 3.5 1 -0.5
v 4.5 1 -0.5
v -4.5 1 -1.5
v -3.5 1 -1.5
v -2.5 1 -1.5
v 2.5 1 -1.5
v 3.5 1 -1.5
v -4.5 1 -2.5
v -3.5 1 -2.5
v -2.5 1 -2.5
v -1.5 1 -2.5
v 1.5 1 -2.5
v 2.5 1 -2.5
v 3.5 1 -2.5
v 4.5 1 -2.5
v -3.5 1 -3.5
v -2.5 1 -3.5
v -1.5 1 -3.5
v -0.5 1 -3.5
v 0.5 1 -3.5
v 1.5 1 -3.5
v 2.5 1 -3.5
v 3.5 1 -3.5
v -2.5 1 -4.5
v -1.5 1 -4.5
v -0.5 1 -4.5
v 0.5 1 -4.5
v 1.5 1 -4.5
v 2.5 1 -4.5
v -1.5 4 3.5
v -0.5 4 3.5
v 0.5 4 3.5
v 1.5 4 3.5
v -2.5 4 2.5
v -1.5 4 2.5
v -0.5 4 2.5
v 0.5 4 2.5
v 1.5 4 2.5
v 2.5 4 2.5
v -3.5 4 1.5
v -2.5 4 1.5
v -1.5 4 1.5
v 1.5 4 1.5
v 2.5 4 1.5
v 3.5 4 1.5
v -3.5 4 0.5
v -2.5 4 0.5
v -2.5 4 -0.5
v 2.5 4 -0.5
v 3.5 4 -0.5
v -3.5 4 -1.5
v -2.5 4 -1.5
v -1.5 4 -1.5
v 1.5 4 -1.5
v 2.5 4 -1.5
v 3.5 4 -1.5
v -2.5 4 -2.5
v -1.5 4 -2.5
v -0.5 4 -2.5
v 0.5 4 -2.5
v 1.5 4 -2.5
v 2.5 4 -2.5
v -1.5 4 -3.5
v -0.5 4 -3.5
v 0.5 4 -3.5
v 1.5 4 -3.5
v -1.5 5 2.5
v -0.5 5 2.5
v 0.5 5 2.5
v 1.5 5 2.5
v -2.5 5 1.5
v -1.5 5 1.5
v -0.5 5 1.5
v 0.5 5 1.5
v 1.5 5 1.5
v 2.5 5 1.5
v -1.5 5 0.5
v 1.5 5 0.5
v -2.5 5 -0.5
v -1.5 5 -0.5
v 1.5 5 -0.5
v 2.5 5 -0.5
v -2.5 5 -1.5
v -1.5 5 -1.5
v -0.5 5 -1.5
v 0.5 5 -1.5
v 1.5 5 -1.5
v 2.5 5 -1.5
v -1.5 5 -2.5
v -0.5 5 -2.5
v 1.5 5 -2.5
v -1.5 6 1.5
v -0.5 6 1.5
v 1.5 6 1.5
v -1.5 6 0.5
v -0.5 6 0.5
v 0.5 6 0.5
v 1.5 6 0.5
v -1.5 6 -0.5
v -0.5 6 -0.5
v 0.5 6 -0.5
v 1.5 6 -0.5
v -1.5 6 -1.5
v -0.5 6 -1.5
v 0.5 6 -1.5
v 1.5 6 -1.5
v -0.5 7 0.5
v 0.5 7 0.5
v -0.5 7 -0.5
v 0.5 7 -0.5

# faces
f 7/3/1 2/3/1 1/3/1
f 8/4/1 3/4/1 2/4/1
f 8/3/1 2/3/1 7/3/1
f 9/3/1 4/3/1 3/3/1
f 9/4/1 3/4/1 8/4/1
f 10/5/1 5/5/1 4/5/1
f 10/3/1 4/3/1 9/3/1
f 11/3/1 6/3/1 5/3/1
f 11/5/1 5/5/1 10/5/1
f 12/3/1 6/3/1 11/3/1
f 17/5/1 14/5/1 13/5/1
f 18/5/1 14/5/1 17/5/1
f 23/5/1 16/5/1 15/5/1
f 24/5/1 16/5/1 23/5/1
f 25/3/1 22/3/1 21/3/1
f 25/3/1 20/3/1 19/3/1
f 25/3/1 21/3/1 20/3/1
f 26/3/1 22/3/1 25/3/1
f 27/3/1 25/3/1 19/3/1
f 28/3/1 25/3/1 27/3/1
f 29/4/1 26/4/1 25/4/1
f 29/3/1 25/3/1 28/3/1
f 30/4/1 26/4/1 29/4/1
f 31/4/1 28/4/1 27/4/1
f 32/3/1 29/3/1 28/3/1
f 32/4/1 28/4/1 31/4/1
f 32/3/1 30/3/1 29/3/1
f 33/3/1 30/3/1 32/3/1
f 38/5/1 35/5/1 34/5/1
f 39/5/1 35/5/1 38/5/1
f 44/4/1 37/4/1 36/4/1
f 45/4/1 37/4/1 44/4/1
f 46/5/1 41/5/1 40/5/1
f 47/5/1 41/5/1 46/5/1
f 48/3/1 43/3/1 42/3/1
f 49/3/1 47/3/1 46/3/1
f 50/3/1 43/3/1 48/3/1
f 51/3/1 49/3/1 46/3/1
f 52/3/1 49/3/1 51/3/1
f 55/3/1 43/3/1 50/3/1
f 56/3/1 43/3/1 55/3/1
f 57/3/1 54/3/1 53/3/1
f 57/3/1 53/3/1 52/3/1
f 58/5/1 55/5/1 54/5/1
f 58/3/1 54/3/1 57/3/1
f 59/5/1 55/5/1 58/5/1
f 64/3/1 61/3/1 60/3/1
f 65/3/1 63/3/1 62/3/1
f 66/3/1 63/3/1 65/3/1
f 67/3/1 64/3/1 60/3/1
f 68/3/1 64/3/1 67/3/1
f 69/4/1 68/4/1 67/4/1
f 70/4/1 68/4/1 69/4/1
f 73/5/1 66/5/1 65/5/1
f 74/5/1 66/5/1 73/5/1
f 75/1/1 71/1/1 70/1/1
f 76/1/1 71/1/1 75/1/1
f 79/4/1 73/4/1 72/4/1
f 80/4/1 73/4/1 79/4/1
f 81/5/1 77/5/1 76/5/1
f 82/3/1 78/3/1 77/3/1
f 82/5/1 77/5/1 81/5/1
f 83/1/1 79/1/1 78/1/1
f 83/3/1 78/3/1 82/3/1
f 84/1/1 79/1/1 83/1/1
f 87/3/1 86/3/1 85/3/1
f 88/3/1 86/3/1 87/3/1
f 91/3/1 90/3/1 89/3/1
f 92/3/1 90/3/1 91/3/1
f 93/3/2 94/3/2 95/3/2
f 95/3/2 94/3/2 96/3/2
f 97/3/2 98/3/2 99/3/2
f 99/3/2 98/3/2 100/3/2
f 103/3/2 104/3/2 105/3/2
f 105/3/2 104/3/2 106/3/2
f 101/3/2 102/3/2 107/3/2
f 107/3/2 102/3/2 108/3/2
f 105/4/2 106/4/2 109/4/2
f 109/4/2 106/4/2 110/4/2
f 107/4/2 108/4/2 111/4/2
f 111/4/2 108/4/2 112/4/2
f 109/3/2 110/3/2 115/3/2
f 115/3/2 110/3/2 116/3/2
f 112/5/2 113/5/2 117/5/2
f 117/5/2 113/5/2 118/5/2
f 114/3/2 115/3/2 121/3/2
f 121/3/2 115/3/2 122/3/2
f 118/1/2 119/1/2 123/1/2
f 119/3/2 120/3/2 124/3/2
f 123/1/2 119/1/2 124/1/2
f 120/5/2 121/5/2 125/5/2
f 124/3/2 120/3/2 125/3/2
f 125/5/2 121/5/2 126/5/2
f 127/3/2 128/3/2 131/3/2
f 131/3/2 128/3/2 132/3/2
f 129/3/2 130/3/2 137/3/2
f 137/3/2 130/3/2 138/3/2
f 133/3/2 134/3/2 139/3/2
f 135/3/2 136/3/2 140/3/2
f 140/3/2 136/3/2 141/3/2
f 133/3/2 139/3/2 142/3/2
f 142/3/2 139/3/2 143/3/2
f 140/4/2 141/4/2 144/4/2
f 144/4/2 141/4/2 145/4/2
f 142/2/2 143/2/2 146/2/2
f 146/2/2 143/2/2 147/2/2
f 144/3/2 145/3/2 149/3/2
f 149/3/2 145/3/2 150/3/2
f 147/3/2 148/3/2 151/3/2
f 148/4/2 149/4/2 152/4/2
f 151/3/2 148/3/2 152/3/2
f 152/4/2 149/4/2 153/4/2
f 154/5/2 155/5/2 158/5/2
f 158/5/2 155/5/2 159/5/2
f 156/4/2 157/4/2 164/4/2
f 164/4/2 157/4/2 165/4/2
f 160/3/2 161/3/2 166/3/2
f 161/4/2 162/4/2 167/4/2
f 166/3/2 161/3/2 167/3/2
f 162/1/2 163/1/2 168/1/2
f 167/4/2 162/4/2 168/4/2
f 168/1/2 163/1/2 169/1/2
f 166/4/2 167/4/2 170/4/2
f 167/3/2 168/3/2 171/3/2
f 170/4/2 167/4/2 171/4/2
f 168/3/2 169/3/2 171/3/2
f 171/3/2 169/3/2 172/3/2
f 172/3/2 169/3/2 173/3/2
f 170/3/2 171/3/2 174/3/2
f 171/3/2 172/3/2 174/3/2
f 172/5/2 173/5/2 175/5/2
f 174/3/2 172/3/2 175/3/2
f 175/5/2 173/5/2 176/5/2
f 177/3/2 178/3/2 182/3/2
f 178/5/2 179/5/2 183/5/2
f 182/3/2 178/3/2 183/3/2
f 179/1/2 180/1/2 184/1/2
f 183/5/2 179/5/2 184/5/2
f 180/3/2 181/3/2 185/3/2
f 184/1/2 180/1/2 185/1/2
f 185/3/2 181/3/2 186/3/2
f 189/5/3 188/5/3 187/5/3
f 190/5/3 188/5/3 189/5/3
f 191/2/3 190/2/3 189/2/3
f 192/2/3 190/2/3 191/2/3
f 193/5/3 192/5/3 191/5/3
f 194/5/3 192/5/3 193/5/3
f 195/1/3 194/1/3 193/1/3
f 196/1/3 194/1/3 195/1/3
f 197/3/3 196/3/3 195/3/3
f 198/3/3 196/3/3 197/3/3
f 201/5/3 200/5/3 199/5/3
f 202/5/3 200/5/3 201/5/3
f 206/3/3 204/3/3 203/3/3
f 207/3/3 204/3/3 206/3/3
f 208/4/3 205/4/3 204/4/3
f 208/3/3 204/3/3 207/3/3
f 209/4/3 205/4/3 208/4/3
f 210/3/3 207/3/3 206/3/3
f 211/5/3 208/5/3 207/5/3
f 211/3/3 207/3/3 210/3/3
f 212/3/3 209/3/3 208/3/3
f 212/5/3 208/5/3 211/5/3
f 213/3/3 209/3/3 212/3/3
f 214/3/3 211/3/3 210/3/3
f 214/3/3 212/3/3 211/3/3
f 215/4/3 213/4/3 212/4/3
f 215/3/3 212/3/3 214/3/3
f 216/4/3 213/4/3 215/4/3
f 219/5/3 218/5/3 217/5/3
f 220/5/3 218/5/3 219/5/3
f 223/3/3 222/3/3 221/3/3
f 224/3/3 222/3/3 223/3/3
f 228/5/3 226/5/3 225/5/3
f 229/3/3 227/3/3 226/3/3
f 229/5/3 226/5/3 228/5/3
f 230/3/3 227/3/3 229/3/3
f 231/3/3 227/3/3 230/3/3
f 233/1/3 232/1/3 231/1/3
f 234/1/3 232/1/3 233/1/3
f 235/3/3 234/3/3 233/3/3
f 236/3/3 234/3/3 235/3/3
f 239/5/3 236/5/3 235/5/3
f 240/5/3 236/5/3 239/5/3
f 241/3/3 238/3/3 237/3/3
f 242/2/3 239/2/3 238/2/3
f 242/3/3 238/3/3 241/3/3
f 243/2/3 239/2/3 242/2/3
f 246/3/3 245/3/3 244/3/3
f 247/3/3 245/3/3 246/3/3
f 251/3/3 249/3/3 248/3/3
f 252/3/3 249/3/3 251/3/3
f 253/4/3 250/4/3 249/4/3
f 253/3/3 249/3/3 252/3/3
f 254/4/3 250/4/3 253/4/3
f 256/3/3 255/3/3 254/3/3
f 257/3/3 255/3/3 256/3/3
f 259/5/3 258/5/3 257/5/3
f 260/5/3 258/5/3 259/5/3
f 261/1/3 260/1/3 259/1/3
f 263/1/3 260/1/3 261/1/3
f 264/1/3 260/1/3 263/1/3
f 268/3/3 263/3/3 262/3/3
f 269/3/3 263/3/3 268/3/3
f 270/3/3 266/3/3 265/3/3
f 271/4/3 267/4/3 266/4/3
f 271/3/3 266/3/3 270/3/3
f 272/3/3 268/3/3 267/3/3
f 272/4/3 267/4/3 271/4/3
f 273/3/3 268/3/3 272/3/3
f 276/3/3 275/3/3 274/3/3
f 277/3/3 275/3/3 276/3/3
f 280/3/3 279/3/3 278/3/3
f 281/3/3 279/3/3 280/3/3
f 282/3/4 283/3/4 284/3/4
f 284/3/4 283/3/4 285/3/4
f 286/3/4 287/3/4 288/3/4
f 288/3/4 287/3/4 289/3/4
f 290/3/4 291/3/4 294/3/4
f 291/4/4 292/4/4 295/4/4
f 294/3/4 291/3/4 295/3/4
f 292/3/4 293/3/4 296/3/4
f 295/4/4 292/4/4 296/4/4
f 296/3/4 293/3/4 297/3/4
f 297/5/4 298/5/4 299/5/4
f 299/5/4 298/5/4 300/5/4
f 300/1/4 301/1/4 302/1/4
f 302/1/4 301/1/4 303/1/4
f 302/4/4 303/4/4 304/4/4
f 304/4/4 303/4/4 305/4/4
f 304/5/4 305/5/4 307/5/4
f 307/5/4 305/5/4 308/5/4
f 306/4/4 307/4/4 312/4/4
f 312/4/4 307/4/4 313/4/4
f 309/1/4 310/1/4 314/1/4
f 310/3/4 311/3/4 315/3/4
f 314/1/4 310/1/4 315/1/4
f 311/5/4 312/5/4 316/5/4
f 315/3/4 311/3/4 316/3/4
f 316/5/4 312/5/4 317/5/4
f 318/3/4 319/3/4 320/3/4
f 320/3/4 319/3/4 321/3/4
f 322/3/4 323/3/4 324/3/4
f 324/3/4 323/3/4 325/3/4
f 325/3/4 323/3/4 326/3/4
f 326/4/4 327/4/4 328/4/4
f 328/4/4 327/4/4 329/4/4
f 328/3/4 329/3/4 330/3/4
f 330/3/4 329/3/4 334/3/4
f 334/3/4 329/3/4 335/3/4
f 331/3/4 332/3/4 336/3/4
f 332/4/4 333/4/4 337/4/4
f 336/3/4 332/3/4 337/3/4
f 333/3/4 334/3/4 338/3/4
f 337/4/4 333/4/4 338/4/4
f 338/3/4 334/3/4 339/3/4
f 340/3/4 341/3/4 342/3/4
f 342/3/4 341/3/4 343/3/4
f 344/5/4 345/5/4 346/5/4
f 346/5/4 345/5/4 347/5/4
f 348/3/4 349/3/4 351/3/4
f 349/5/4 350/5/4 352/5/4
f 351/3/4 349/3/4 352/3/4
f 352/5/4 350/5/4 353/5/4
f 353/5/4 350/5/4 354/5/4
f 351/3/4 352/3/4 355/3/4
f 352/1/4 353/1/4 356/1/4
f 355/3/4 352/3/4 356/3/4
f 353/4/4 354/4/4 357/4/4
f 356/1/4 353/1/4 357/1/4
f 357/4/4 354/4/4 358/4/4
f 355/3/4 356/3/4 359/3/4
f 356/4/4 357/4/4 360/4/4
f 359/3/4 356/3/4 360/3/4
f 357/3/4 358/3/4 361/3/4
f 360/4/4 357/4/4 361/4/4
f 361/3/4 358/3/4 362/3/4
f 363/4/4 364/4/4 365/4/4
f 365/4/4 364/4/4 366/4/4
f 367/4/4 368/4/4 369/4/4
f 369/4/4 368/4/4 370/4/4
f 369/3/4 370/3/4 371/3/4
f 371/3/4 370/3/4 372/3/4
f 371/1/4 372/1/4 373/1/4
f 373/1/4 372/1/4 374/1/4
f 373/5/4 374/5/4 375/5/4
f 375/5/4 374/5/4 376/5/4
f 375/3/4 376/3/4 377/3/4
f 377/3/4 376/3/4 378/3/4
f 386/5/5 380/5/5 379/5/5
f 387/2/5 381/2/5 380/2/5
f 387/5/5 380/5/5 386/5/5
f 388/5/5 382/5/5 381/5/5
f 388/2/5 381/2/5 387/2/5
f 389/1/5 383/1/5 382/1/5
f 389/5/5 382/5/5 388/5/5
f 390/3/5 384/3/5 383/3/5
f 390/1/5 383/1/5 389/1/5
f 391/3/5 384/3/5 390/3/5
f 394/5/5 386/5/5 385/5/5
f 395/3/5 389/3/5 388/3/5
f 395/3/5 387/3/5 386/3/5
f 395/5/5 386/5/5 394/5/5
f 395/3/5 388/3/5 387/3/5
f 395/3/5 390/3/5 389/3/5
f 396/4/5 391/4/5 390/4/5
f 396/3/5 390/3/5 395/3/5
f 397/5/5 392/5/5 391/5/5
f 397/4/5 391/4/5 396/4/5
f 398/5/5 392/5/5 397/5/5
f 400/3/5 394/3/5 393/3/5
f 400/3/5 399/3/5 398/3/5
f 400/3/5 398/3/5 397/3/5
f 400/3/5 397/3/5 396/3/5
f 400/3/5 396/3/5 395/3/5
f 400/3/5 395/3/5 394/3/5
f 401/3/5 399/3/5 400/3/5
f 402/3/5 399/3/5 401/3/5
f 403/3/5 399/3/5 402/3/5
f 404/4/5 401/4/5 400/4/5
f 405/3/5 402/3/5 401/3/5
f 405/4/5 401/4/5 404/4/5
f 406/3/5 402/3/5 405/3/5
f 407/3/5 402/3/5 406/3/5
f 408/5/5 403/5/5 402/5/5
f 408/3/5 402/3/5 407/3/5
f 409/5/5 403/5/5 408/5/5
f 410/3/5 405/3/5 404/3/5
f 410/3/5 406/3/5 405/3/5
f 411/3/5 406/3/5 410/3/5
f 412/3/5 406/3/5 411/3/5
f 413/3/5 408/3/5 407/3/5
f 414/1/5 409/1/5 408/1/5
f 414/3/5 408/3/5 413/3/5
f 415/1/5 409/1/5 414/1/5
f 416/5/5 411/5/5 410/5/5
f 417/3/5 413/3/5 412/3/5
f 417/5/5 411/5/5 416/5/5
f 417/3/5 412/3/5 411/3/5
f 417/3/5 415/3/5 414/3/5
f 417/3/5 414/3/5 413/3/5
f 418/3/5 415/3/5 417/3/5
f 419/3/5 417/3/5 416/3/5
f 420/4/5 418/4/5 417/4/5
f 420/3/5 417/3/5 419/3/5
f 421/3/5 415/3/5 418/3/5
f 421/4/5 418/4/5 420/4/5
f 422/3/5 415/3/5 421/3/5
f 423/3/5 415/3/5 422/3/5
f 424/3/5 415/3/5 423/3/5
f 425/3/5 415/3/5 424/3/5
f 426/5/5 421/5/5 420/5/5
f 427/3/5 422/3/5 421/3/5
f 427/5/5 421/5/5 426/5/5
f 428/3/5 422/3/5 427/3/5
f 429/3/5 422/3/5 428/3/5
f 430/3/5 422/3/5 429/3/5
f 431/1/5 423/1/5 422/1/5
f 431/3/5 422/3/5 430/3/5
f 432/4/5 424/4/5 423/4/5
f 432/1/5 423/1/5 431/1/5
f 433/4/5 424/4/5 432/4/5
f 434/4/5 428/4/5 427/4/5
f 435/3/5 429/3/5 428/3/5
f 435/4/5 428/4/5 434/4/5
f 436/1/5 430/1/5 429/1/5
f 436/3/5 429/3/5 435/3/5
f 437/5/5 431/5/5 430/5/5
f 437/1/5 430/1/5 436/1/5
f 438/3/5 432/3/5 431/3/5
f 438/5/5 431/5/5 437/5/5
f 439/3/5 432/3/5 438/3/5
f 442/3/5 441/3/5 440/3/5
f 443/3/5 441/3/5 442/3/5
f 444/5/6 445/5/6 451/5/6
f 445/2/6 446/2/6 452/2/6
f 451/5/6 445/5/6 452/5/6
f 446/5/6 447/5/6 453/5/6
f 452/2/6 446/2/6 453/2/6
f 447/1/6 448/1/6 454/1/6
f 453/5/6 447/5/6 454/5/6
f 448/3/6 449/3/6 455/3/6
f 454/1/6 448/1/6 455/1/6
f 455/3/6 449/3/6 456/3/6
f 450/5/6 451/5/6 459/5/6
f 451/3/6 452/3/6 460/3/6
f 459/5/6 451/5/6 460/5/6
f 460/3/6 452/3/6 461/3/6
f 455/4/6 456/4/6 462/4/6
f 456/5/6 457/5/6 463/5/6
f 462/4/6 456/4/6 463/4/6
f 463/5/6 457/5/6 464/5/6
f 458/3/6 459/3/6 466/3/6
f 459/3/6 460/3/6 466/3/6
f 466/3/6 460/3/6 467/3/6
f 467/3/6 460/3/6 468/3/6
f 464/3/6 465/3/6 469/3/6
f 463/3/6 464/3/6 469/3/6
f 469/3/6 465/3/6 470/3/6
f 470/3/6 465/3/6 471/3/6
f 466/4/6 467/4/6 472/4/6
f 472/4/6 467/4/6 473/4/6
f 470/5/6 471/5/6 474/5/6
f 474/5/6 471/5/6 475/5/6
f 472/3/6 473/3/6 476/3/6
f 476/3/6 473/3/6 477/3/6
f 474/1/6 475/1/6 478/1/6
f 478/1/6 475/1/6 479/1/6
f 476/5/6 477/5/6 480/5/6
f 480/5/6 477/5/6 481/5/6
f 478/3/6 479/3/6 484/3/6
f 480/3/6 481/3/6 485/3/6
f 481/4/6 482/4/6 486/4/6
f 485/3/6 481/3/6 486/3/6
f 486/4/6 482/4/6 487/4/6
f 483/3/6 484/3/6 490/3/6
f 484/3/6 479/3/6 491/3/6
f 490/3/6 484/3/6 491/3/6
f 491/3/6 479/3/6 492/3/6
f 486/5/6 487/5/6 493/5/6
f 487/3/6 488/3/6 494/3/6
f 493/5/6 487/5/6 494/5/6
f 494/3/6 488/3/6 495/3/6
f 489/1/6 490/1/6 498/1/6
f 490/4/6 491/4/6 499/4/6
f 498/1/6 490/1/6 499/1/6
f 499/4/6 491/4/6 500/4/6
f 494/4/6 495/4/6 501/4/6
f 495/3/6 496/3/6 502/3/6
f 501/4/6 495/4/6 502/4/6
f 496/1/6 497/1/6 503/1/6
f 502/3/6 496/3/6 503/3/6
f 497/5/6 498/5/6 504/5/6
f 503/1/6 497/1/6 504/1/6
f 498/3/6 499/3/6 505/3/6
f 504/5/6 498/5/6 505/5/6
f 505/3/6 499/3/6 506/3/6
f 507/4/6 508/4/6 512/4/6
f 508/3/6 509/3/6 513/3/6
f 512/4/6 508/4/6 513/4/6
f 509/4/6 510/4/6 514/4/6
f 513/3/6 509/3/6 514/3/6
f 514/4/6 510/4/6 515/4/6
f 511/3/6 512/3/6 518/3/6
f 518/3/6 512/3/6 519/3/6
f 515/2/6 516/2/6 520/2/6
f 520/2/6 516/2/6 521/2/6
f 517/4/6 518/4/6 523/4/6
f 523/4/6 518/4/6 524/4/6
f 523/3/6 524/3/6 525/3/6
f 521/3/6 522/3/6 526/3/6
f 526/3/6 522/3/6 527/3/6
f 523/3/6 525/3/6 528/3/6
f 528/3/6 525/3/6 529/3/6
f 526/5/6 527/5/6 532/5/6
f 532/5/6 527/5/6 533/5/6
f 529/3/6 530/3/6 534/3/6
f 534/3/6 530/3/6 535/3/6
f 531/3/6 532/3/6 538/3/6
f 538/3/6 532/3/6 539/3/6
f 535/5/6 536/5/6 540/5/6
f 536/4/6 537/4/6 541/4/6
f 540/5/6 536/5/6 541/5/6
f 537/3/6 538/3/6 542/3/6
f 541/4/6 537/4/6 542/4/6
f 542/3/6 538/3/6 543/3/6
f 544/1/6 545/1/6 549/1/6
f 545/3/6 546/3/6 550/3/6
f 549/1/6 545/1/6 550/1/6
f 546/5/6 547/5/6 551/5/6
f 550/3/6 546/3/6 551/3/6
f 551/5/6 547/5/6 552/5/6
f 548/3/6 549/3/6 554/3/6
f 552/3/6 553/3/6 555/3/6
f 548/3/6 554/3/6 556/3/6
f 556/3/6 554/3/6 557/3/6
f 555/3/6 553/3/6 558/3/6
f 558/3/6 553/3/6 559/3/6
f 556/5/6 557/5/6 560/5/6
f 560/5/6 557/5/6 561/5/6
f 558/4/6 559/4/6 564/4/6
f 564/4/6 559/4/6 565/4/6
f 561/4/6 562/4/6 566/4/6
f 562/3/6 563/3/6 567/3/6
f 566/4/6 562/4/6 567/4/6
f 563/3/6 564/3/6 567/3/6
f 567/3/6 564/3/6 568/3/6
f 569/5/6 570/5/6 572/5/6
f 570/1/6 571/1/6 573/1/6
f 572/5/6 570/5/6 573/5/6
f 573/1/6 571/1/6 574/1/6
f 574/1/6 571/1/6 575/1/6
f 572/3/6 573/3/6 576/3/6
f 576/3/6 573/3/6 577/3/6
f 574/3/6 575/3/6 578/3/6
f 578/3/6 575/3/6 579/3/6
f 576/1/6 577/1/6 580/1/6
f 577/4/6 578/4/6 581/4/6
f 580/1/6 577/1/6 581/1/6
f 578/5/6 579/5/6 582/5/6
f 581/4/6 578/4/6 582/4/6
f 582/5/6 579/5/6 583/5/6
f 584/3/6 585/3/6 586/3/6
f 586/3/6 585/3/6 587/3/6
