# MagicaVoxel @ Ephtracy

# material
mtllib Pointer_03.mtl
usemtl palette

# normals
vn -1 0 0
vn 1 0 0
vn 0 0 1
vn 0 0 -1
vn 0 -1 0
vn 0 1 0

# texcoords
vt 0.279297 0.5
vt 0.298828 0.5
vt 0.302734 0.5

# verts
v -5 3 -0
v -5 3 -1
v -5 4 -0
v -5 4 -1
v -5 5 -0
v -5 5 -1
v -5 6 -0
v -5 6 -1
v -5 7 -0
v -5 7 -1
v -4 0 1
v -4 0 -0
v -4 3 -0
v -4 4 -0
v -4 5 -0
v -4 6 -0
v -4 7 -0
v -4 8 1
v -4 8 -0
v 3 0 1
v 3 0 -0
v 3 3 -0
v 3 4 -0
v 3 5 -0
v 3 6 -0
v 3 7 -0
v 3 8 1
v 3 8 -0
v -3 0 1
v -3 0 -0
v -3 3 -0
v -3 4 -0
v -3 5 -0
v -3 6 -0
v -3 7 -0
v -3 8 1
v -3 8 -0
v 4 0 1
v 4 0 -0
v 4 3 -0
v 4 4 -0
v 4 5 -0
v 4 6 -0
v 4 7 -0
v 4 8 1
v 4 8 -0
v 5 3 -0
v 5 3 -1
v 5 4 -0
v 5 4 -1
v 5 5 -0
v 5 5 -1
v 5 6 -0
v 5 6 -1
v 5 7 -0
v 5 7 -1
v -4 0 1
v -4 8 1
v -3 0 1
v -3 8 1
v 3 0 1
v 3 8 1
v 4 0 1
v 4 8 1
v -5 3 -0
v -5 4 -0
v -5 5 -0
v -5 6 -0
v -5 7 -0
v -4 3 -0
v -4 4 -0
v -4 5 -0
v -4 6 -0
v -4 7 -0
v -3 3 -0
v -3 4 -0
v -3 5 -0
v -3 6 -0
v -3 7 -0
v 3 3 -0
v 3 4 -0
v 3 5 -0
v 3 6 -0
v 3 7 -0
v 4 3 -0
v 4 4 -0
v 4 5 -0
v 4 6 -0
v 4 7 -0
v 5 3 -0
v 5 4 -0
v 5 5 -0
v 5 6 -0
v 5 7 -0
v -4 0 -0
v -4 3 -0
v -4 7 -0
v -4 8 -0
v -3 0 -0
v -3 3 -0
v -3 7 -0
v -3 8 -0
v 3 0 -0
v 3 3 -0
v 3 7 -0
v 3 8 -0
v 4 0 -0
v 4 3 -0
v 4 7 -0
v 4 8 -0
v -5 3 -1
v -5 4 -1
v -5 5 -1
v -5 6 -1
v -5 7 -1
v 5 3 -1
v 5 4 -1
v 5 5 -1
v 5 6 -1
v 5 7 -1
v -4 0 1
v -3 0 1
v 3 0 1
v 4 0 1
v -4 0 -0
v -3 0 -0
v 3 0 -0
v 4 0 -0
v -5 3 -0
v -4 3 -0
v -3 3 -0
v 3 3 -0
v 4 3 -0
v 5 3 -0
v -5 3 -1
v 5 3 -1
v -5 7 -0
v -4 7 -0
v -3 7 -0
v 3 7 -0
v 4 7 -0
v 5 7 -0
v -5 7 -1
v 5 7 -1
v -4 8 1
v -3 8 1
v 3 8 1
v 4 8 1
v -4 8 -0
v -3 8 -0
v 3 8 -0
v 4 8 -0

# faces
f 3/3/1 2/3/1 1/3/1
f 4/3/1 2/3/1 3/3/1
f 5/2/1 4/2/1 3/2/1
f 6/2/1 4/2/1 5/2/1
f 7/3/1 6/3/1 5/3/1
f 8/3/1 6/3/1 7/3/1
f 9/2/1 8/2/1 7/2/1
f 10/2/1 8/2/1 9/2/1
f 13/1/1 12/1/1 11/1/1
f 14/1/1 13/1/1 11/1/1
f 15/1/1 14/1/1 11/1/1
f 16/1/1 15/1/1 11/1/1
f 17/1/1 16/1/1 11/1/1
f 18/1/1 17/1/1 11/1/1
f 19/1/1 17/1/1 18/1/1
f 22/1/1 21/1/1 20/1/1
f 23/1/1 22/1/1 20/1/1
f 24/1/1 23/1/1 20/1/1
f 25/1/1 24/1/1 20/1/1
f 26/1/1 25/1/1 20/1/1
f 27/1/1 26/1/1 20/1/1
f 28/1/1 26/1/1 27/1/1
f 29/1/2 30/1/2 31/1/2
f 29/1/2 31/1/2 32/1/2
f 29/1/2 32/1/2 33/1/2
f 29/1/2 33/1/2 34/1/2
f 29/1/2 34/1/2 35/1/2
f 29/1/2 35/1/2 36/1/2
f 36/1/2 35/1/2 37/1/2
f 38/1/2 39/1/2 40/1/2
f 38/1/2 40/1/2 41/1/2
f 38/1/2 41/1/2 42/1/2
f 38/1/2 42/1/2 43/1/2
f 38/1/2 43/1/2 44/1/2
f 38/1/2 44/1/2 45/1/2
f 45/1/2 44/1/2 46/1/2
f 47/3/2 48/3/2 49/3/2
f 49/3/2 48/3/2 50/3/2
f 49/2/2 50/2/2 51/2/2
f 51/2/2 50/2/2 52/2/2
f 51/3/2 52/3/2 53/3/2
f 53/3/2 52/3/2 54/3/2
f 53/2/2 54/2/2 55/2/2
f 55/2/2 54/2/2 56/2/2
f 59/1/3 58/1/3 57/1/3
f 60/1/3 58/1/3 59/1/3
f 63/1/3 62/1/3 61/1/3
f 64/1/3 62/1/3 63/1/3
f 70/3/3 66/3/3 65/3/3
f 71/2/3 67/2/3 66/2/3
f 71/3/3 66/3/3 70/3/3
f 72/3/3 68/3/3 67/3/3
f 72/2/3 67/2/3 71/2/3
f 73/2/3 69/2/3 68/2/3
f 73/3/3 68/3/3 72/3/3
f 74/2/3 69/2/3 73/2/3
f 80/3/3 76/3/3 75/3/3
f 81/2/3 77/2/3 76/2/3
f 81/3/3 76/3/3 80/3/3
f 82/3/3 78/3/3 77/3/3
f 82/2/3 77/2/3 81/2/3
f 83/2/3 79/2/3 78/2/3
f 83/3/3 78/3/3 82/3/3
f 84/2/3 79/2/3 83/2/3
f 90/3/3 86/3/3 85/3/3
f 91/2/3 87/2/3 86/2/3
f 91/3/3 86/3/3 90/3/3
f 92/3/3 88/3/3 87/3/3
f 92/2/3 87/2/3 91/2/3
f 93/2/3 89/2/3 88/2/3
f 93/3/3 88/3/3 92/3/3
f 94/2/3 89/2/3 93/2/3
f 95/1/4 96/1/4 99/1/4
f 99/1/4 96/1/4 100/1/4
f 97/1/4 98/1/4 101/1/4
f 101/1/4 98/1/4 102/1/4
f 103/1/4 104/1/4 107/1/4
f 107/1/4 104/1/4 108/1/4
f 105/1/4 106/1/4 109/1/4
f 109/1/4 106/1/4 110/1/4
f 111/3/4 112/3/4 116/3/4
f 112/2/4 113/2/4 117/2/4
f 116/3/4 112/3/4 117/3/4
f 113/3/4 114/3/4 118/3/4
f 117/2/4 113/2/4 118/2/4
f 114/2/4 115/2/4 119/2/4
f 118/3/4 114/3/4 119/3/4
f 119/2/4 115/2/4 120/2/4
f 125/1/5 122/1/5 121/1/5
f 126/1/5 122/1/5 125/1/5
f 127/1/5 124/1/5 123/1/5
f 128/1/5 124/1/5 127/1/5
f 135/3/5 130/3/5 129/3/5
f 135/3/5 134/3/5 133/3/5
f 135/3/5 133/3/5 132/3/5
f 135/3/5 132/3/5 131/3/5
f 135/3/5 131/3/5 130/3/5
f 136/3/5 134/3/5 135/3/5
f 137/2/6 138/2/6 143/2/6
f 141/2/6 142/2/6 143/2/6
f 140/2/6 141/2/6 143/2/6
f 139/2/6 140/2/6 143/2/6
f 138/2/6 139/2/6 143/2/6
f 143/2/6 142/2/6 144/2/6
f 145/1/6 146/1/6 149/1/6
f 149/1/6 146/1/6 150/1/6
f 147/1/6 148/1/6 151/1/6
f 151/1/6 148/1/6 152/1/6
