# MagicaVoxel @ Ephtracy

# material
mtllib Rabbit_01.mtl
usemtl palette

# normals
vn -1 0 0
vn 1 0 0
vn 0 0 1
vn 0 0 -1
vn 0 -1 0
vn 0 1 0

# texcoords
vt 0.0371094 0.5
vt 0.919922 0.5
vt 0.923828 0.5
vt 0.958984 0.5

# verts
v -3 2 0.5
v -3 2 -0.5
v -3 3 0.5
v -3 3 -0.5
v -2 0 0.5
v -2 0 -2.5
v -2 1 1.5
v -2 1 0.5
v -2 1 -1.5
v -2 1 -2.5
v -2 2 0.5
v -2 2 -0.5
v -2 3 0.5
v -2 3 -0.5
v -2 4 -0.5
v -2 4 -1.5
v -2 5 0.5
v -2 5 -0.5
v -2 5 -1.5
v -2 8 1.5
v -2 8 0.5
v -1 1 2.5
v -1 1 1.5
v -1 2 2.5
v -1 2 1.5
v -1 3 -1.5
v -1 3 -2.5
v -1 4 -1.5
v -1 4 -2.5
v 1 0 0.5
v 1 0 -2.5
v 1 1 0.5
v 1 1 -1.5
v 1 1 -2.5
v 1 5 1.5
v 1 5 0.5
v 1 8 1.5
v 1 8 0.5
v -1 0 0.5
v -1 0 -2.5
v -1 1 0.5
v -1 1 -1.5
v -1 1 -2.5
v -1 5 1.5
v -1 5 0.5
v -1 8 1.5
v -1 8 0.5
v 1 1 2.5
v 1 1 1.5
v 1 2 2.5
v 1 2 1.5
v 1 3 -1.5
v 1 3 -2.5
v 1 4 -1.5
v 1 4 -2.5
v 2 0 0.5
v 2 0 -2.5
v 2 1 1.5
v 2 1 0.5
v 2 1 -1.5
v 2 1 -2.5
v 2 2 0.5
v 2 2 -0.5
v 2 3 0.5
v 2 3 -0.5
v 2 4 -0.5
v 2 4 -1.5
v 2 5 0.5
v 2 5 -0.5
v 2 5 -1.5
v 2 8 1.5
v 2 8 0.5
v 3 2 0.5
v 3 2 -0.5
v 3 3 0.5
v 3 3 -0.5
v -1 1 2.5
v -1 2 2.5
v 1 1 2.5
v 1 2 2.5
v -2 1 1.5
v -2 8 1.5
v -1 1 1.5
v -1 2 1.5
v -1 5 1.5
v -1 8 1.5
v 1 1 1.5
v 1 2 1.5
v 1 5 1.5
v 1 8 1.5
v 2 1 1.5
v 2 8 1.5
v -3 2 0.5
v -3 3 0.5
v -2 0 0.5
v -2 1 0.5
v -2 2 0.5
v -2 3 0.5
v -1 0 0.5
v -1 1 0.5
v 1 0 0.5
v 1 1 0.5
v 2 0 0.5
v 2 1 0.5
v 2 2 0.5
v 2 3 0.5
v 3 2 0.5
v 3 3 0.5
v -2 5 0.5
v -2 8 0.5
v -1 5 0.5
v -1 8 0.5
v 1 5 0.5
v 1 8 0.5
v 2 5 0.5
v 2 8 0.5
v -3 2 -0.5
v -3 3 -0.5
v -2 2 -0.5
v -2 3 -0.5
v 2 2 -0.5
v 2 3 -0.5
v 3 2 -0.5
v 3 3 -0.5
v -2 1 -1.5
v -2 4 -1.5
v -2 5 -1.5
v -1 1 -1.5
v -1 3 -1.5
v -1 4 -1.5
v -1 5 -1.5
v 1 1 -1.5
v 1 3 -1.5
v 1 4 -1.5
v 1 5 -1.5
v 2 1 -1.5
v 2 4 -1.5
v 2 5 -1.5
v -2 0 -2.5
v -2 1 -2.5
v -1 0 -2.5
v -1 1 -2.5
v -1 3 -2.5
v -1 4 -2.5
v 1 0 -2.5
v 1 1 -2.5
v 1 3 -2.5
v 1 4 -2.5
v 2 0 -2.5
v 2 1 -2.5
v -2 0 0.5
v -1 0 0.5
v 1 0 0.5
v 2 0 0.5
v -2 0 -2.5
v -1 0 -2.5
v 1 0 -2.5
v 2 0 -2.5
v -1 1 2.5
v 1 1 2.5
v -2 1 1.5
v -1 1 1.5
v 1 1 1.5
v 2 1 1.5
v -2 1 0.5
v -1 1 0.5
v 1 1 0.5
v 2 1 0.5
v -1 1 -1.5
v 1 1 -1.5
v -3 2 0.5
v -2 2 0.5
v 2 2 0.5
v 3 2 0.5
v -3 2 -0.5
v -2 2 -0.5
v 2 2 -0.5
v 3 2 -0.5
v -1 3 -1.5
v 1 3 -1.5
v -1 3 -2.5
v 1 3 -2.5
v -2 1 -1.5
v -1 1 -1.5
v 1 1 -1.5
v 2 1 -1.5
v -2 1 -2.5
v -1 1 -2.5
v 1 1 -2.5
v 2 1 -2.5
v -1 2 2.5
v 1 2 2.5
v -1 2 1.5
v 1 2 1.5
v -3 3 0.5
v -2 3 0.5
v 2 3 0.5
v 3 3 0.5
v -3 3 -0.5
v -2 3 -0.5
v 2 3 -0.5
v 3 3 -0.5
v -1 4 -1.5
v 1 4 -1.5
v -1 4 -2.5
v 1 4 -2.5
v -1 5 1.5
v 1 5 1.5
v -2 5 0.5
v -1 5 0.5
v 1 5 0.5
v 2 5 0.5
v -2 5 -0.5
v -1 5 -0.5
v 1 5 -0.5
v 2 5 -0.5
v -2 5 -1.5
v -1 5 -1.5
v 1 5 -1.5
v 2 5 -1.5
v -2 8 1.5
v -1 8 1.5
v 1 8 1.5
v 2 8 1.5
v -2 8 0.5
v -1 8 0.5
v 1 8 0.5
v 2 8 0.5

# faces
f 3/3/1 2/3/1 1/3/1
f 4/3/1 2/3/1 3/3/1
f 8/3/1 6/3/1 5/3/1
f 9/3/1 6/3/1 8/3/1
f 10/3/1 6/3/1 9/3/1
f 11/2/1 8/2/1 7/2/1
f 11/2/1 9/2/1 8/2/1
f 12/2/1 9/2/1 11/2/1
f 13/2/1 11/2/1 7/2/1
f 14/2/1 9/2/1 12/2/1
f 15/2/1 9/2/1 14/2/1
f 15/2/1 14/2/1 13/2/1
f 16/2/1 9/2/1 15/2/1
f 17/2/1 13/2/1 7/2/1
f 17/2/1 15/2/1 13/2/1
f 18/4/1 16/4/1 15/4/1
f 18/2/1 15/2/1 17/2/1
f 19/4/1 16/4/1 18/4/1
f 20/2/1 17/2/1 7/2/1
f 21/2/1 17/2/1 20/2/1
f 24/4/1 23/4/1 22/4/1
f 25/4/1 23/4/1 24/4/1
f 28/1/1 27/1/1 26/1/1
f 29/1/1 27/1/1 28/1/1
f 32/3/1 31/3/1 30/3/1
f 33/3/1 31/3/1 32/3/1
f 34/3/1 31/3/1 33/3/1
f 37/2/1 36/2/1 35/2/1
f 38/2/1 36/2/1 37/2/1
f 39/3/2 40/3/2 41/3/2
f 41/3/2 40/3/2 42/3/2
f 42/3/2 40/3/2 43/3/2
f 44/2/2 45/2/2 46/2/2
f 46/2/2 45/2/2 47/2/2
f 48/4/2 49/4/2 50/4/2
f 50/4/2 49/4/2 51/4/2
f 52/1/2 53/1/2 54/1/2
f 54/1/2 53/1/2 55/1/2
f 56/3/2 57/3/2 59/3/2
f 59/3/2 57/3/2 60/3/2
f 60/3/2 57/3/2 61/3/2
f 58/2/2 59/2/2 62/2/2
f 59/2/2 60/2/2 62/2/2
f 62/2/2 60/2/2 63/2/2
f 58/2/2 62/2/2 64/2/2
f 63/2/2 60/2/2 65/2/2
f 65/2/2 60/2/2 66/2/2
f 64/2/2 65/2/2 66/2/2
f 66/2/2 60/2/2 67/2/2
f 58/2/2 64/2/2 68/2/2
f 64/2/2 66/2/2 68/2/2
f 66/4/2 67/4/2 69/4/2
f 68/2/2 66/2/2 69/2/2
f 69/4/2 67/4/2 70/4/2
f 58/2/2 68/2/2 71/2/2
f 71/2/2 68/2/2 72/2/2
f 73/3/2 74/3/2 75/3/2
f 75/3/2 74/3/2 76/3/2
f 79/4/3 78/4/3 77/4/3
f 80/4/3 78/4/3 79/4/3
f 83/2/3 82/2/3 81/2/3
f 84/2/3 82/2/3 83/2/3
f 85/2/3 82/2/3 84/2/3
f 86/2/3 82/2/3 85/2/3
f 88/2/3 85/2/3 84/2/3
f 89/2/3 85/2/3 88/2/3
f 91/2/3 88/2/3 87/2/3
f 91/2/3 90/2/3 89/2/3
f 91/2/3 89/2/3 88/2/3
f 92/2/3 90/2/3 91/2/3
f 97/3/3 94/3/3 93/3/3
f 98/3/3 94/3/3 97/3/3
f 99/3/3 96/3/3 95/3/3
f 100/3/3 96/3/3 99/3/3
f 103/3/3 102/3/3 101/3/3
f 104/3/3 102/3/3 103/3/3
f 107/3/3 106/3/3 105/3/3
f 108/3/3 106/3/3 107/3/3
f 109/2/4 110/2/4 111/2/4
f 111/2/4 110/2/4 112/2/4
f 113/2/4 114/2/4 115/2/4
f 115/2/4 114/2/4 116/2/4
f 117/3/4 118/3/4 119/3/4
f 119/3/4 118/3/4 120/3/4
f 121/3/4 122/3/4 123/3/4
f 123/3/4 122/3/4 124/3/4
f 125/2/4 126/2/4 128/2/4
f 128/2/4 126/2/4 129/2/4
f 126/4/4 127/4/4 130/4/4
f 129/2/4 126/2/4 130/2/4
f 130/4/4 127/4/4 131/4/4
f 128/2/4 129/2/4 132/2/4
f 132/2/4 129/2/4 133/2/4
f 130/2/4 131/2/4 134/2/4
f 134/2/4 131/2/4 135/2/4
f 132/2/4 133/2/4 136/2/4
f 133/2/4 134/2/4 136/2/4
f 134/4/4 135/4/4 137/4/4
f 136/2/4 134/2/4 137/2/4
f 137/4/4 135/4/4 138/4/4
f 139/3/4 140/3/4 141/3/4
f 141/3/4 140/3/4 142/3/4
f 143/1/4 144/1/4 147/1/4
f 147/1/4 144/1/4 148/1/4
f 145/3/4 146/3/4 149/3/4
f 149/3/4 146/3/4 150/3/4
f 155/3/5 152/3/5 151/3/5
f 156/3/5 152/3/5 155/3/5
f 157/3/5 154/3/5 153/3/5
f 158/3/5 154/3/5 157/3/5
f 162/4/5 160/4/5 159/4/5
f 163/4/5 160/4/5 162/4/5
f 165/2/5 162/2/5 161/2/5
f 165/2/5 164/2/5 163/2/5
f 165/2/5 163/2/5 162/2/5
f 166/2/5 164/2/5 165/2/5
f 167/2/5 164/2/5 166/2/5
f 168/2/5 164/2/5 167/2/5
f 169/2/5 167/2/5 166/2/5
f 170/2/5 167/2/5 169/2/5
f 175/3/5 172/3/5 171/3/5
f 176/3/5 172/3/5 175/3/5
f 177/3/5 174/3/5 173/3/5
f 178/3/5 174/3/5 177/3/5
f 181/1/5 180/1/5 179/1/5
f 182/1/5 180/1/5 181/1/5
f 183/3/6 184/3/6 187/3/6
f 187/3/6 184/3/6 188/3/6
f 185/3/6 186/3/6 189/3/6
f 189/3/6 186/3/6 190/3/6
f 191/4/6 192/4/6 193/4/6
f 193/4/6 192/4/6 194/4/6
f 195/3/6 196/3/6 199/3/6
f 199/3/6 196/3/6 200/3/6
f 197/3/6 198/3/6 201/3/6
f 201/3/6 198/3/6 202/3/6
f 203/1/6 204/1/6 205/1/6
f 205/1/6 204/1/6 206/1/6
f 207/2/6 208/2/6 210/2/6
f 210/2/6 208/2/6 211/2/6
f 209/2/6 210/2/6 213/2/6
f 211/2/6 212/2/6 213/2/6
f 210/2/6 211/2/6 213/2/6
f 213/2/6 212/2/6 214/2/6
f 214/2/6 212/2/6 215/2/6
f 215/2/6 212/2/6 216/2/6
f 213/4/6 214/4/6 217/4/6
f 214/2/6 215/2/6 218/2/6
f 217/4/6 214/4/6 218/4/6
f 215/4/6 216/4/6 219/4/6
f 218/2/6 215/2/6 219/2/6
f 219/4/6 216/4/6 220/4/6
f 221/2/6 222/2/6 225/2/6
f 225/2/6 222/2/6 226/2/6
f 223/2/6 224/2/6 227/2/6
f 227/2/6 224/2/6 228/2/6
