# MagicaVoxel @ Ephtracy

# material
mtllib Stair_03.mtl
usemtl palette

# normals
vn -1 0 0
vn 1 0 0
vn 0 0 1
vn 0 0 -1
vn 0 -1 0
vn 0 1 0

# texcoords
vt 0.974609 0.5
vt 0.978516 0.5

# verts
v -1 0 3
v -1 0 2
v -1 0 -2
v -1 0 -3
v -1 7 3
v -1 7 2
v -1 7 -2
v -1 7 -3
v 0 1 2
v 0 1 -2
v 0 2 2
v 0 2 -2
v 0 3 2
v 0 3 -2
v 0 4 2
v 0 4 -2
v 0 5 2
v 0 5 -2
v 0 6 2
v 0 6 -2
v 1 0 3
v 1 0 2
v 1 0 -2
v 1 0 -3
v 1 1 2
v 1 1 -2
v 1 2 2
v 1 2 -2
v 1 3 2
v 1 3 -2
v 1 4 2
v 1 4 -2
v 1 5 2
v 1 5 -2
v 1 6 2
v 1 6 -2
v 1 7 3
v 1 7 2
v 1 7 -2
v 1 7 -3
v -1 0 3
v -1 7 3
v 1 0 3
v 1 7 3
v -1 0 -2
v -1 7 -2
v 0 1 -2
v 0 2 -2
v 0 3 -2
v 0 4 -2
v 0 5 -2
v 0 6 -2
v 1 0 -2
v 1 1 -2
v 1 2 -2
v 1 3 -2
v 1 4 -2
v 1 5 -2
v 1 6 -2
v 1 7 -2
v -1 0 2
v -1 7 2
v 0 1 2
v 0 2 2
v 0 3 2
v 0 4 2
v 0 5 2
v 0 6 2
v 1 0 2
v 1 1 2
v 1 2 2
v 1 3 2
v 1 4 2
v 1 5 2
v 1 6 2
v 1 7 2
v -1 0 -3
v -1 7 -3
v 1 0 -3
v 1 7 -3
v -1 0 3
v 1 0 3
v -1 0 2
v 1 0 2
v -1 0 -2
v 1 0 -2
v -1 0 -3
v 1 0 -3
v 0 1 2
v 1 1 2
v 0 1 -2
v 1 1 -2
v 0 3 2
v 1 3 2
v 0 3 -2
v 1 3 -2
v 0 5 2
v 1 5 2
v 0 5 -2
v 1 5 -2
v 0 2 2
v 1 2 2
v 0 2 -2
v 1 2 -2
v 0 4 2
v 1 4 2
v 0 4 -2
v 1 4 -2
v 0 6 2
v 1 6 2
v 0 6 -2
v 1 6 -2
v -1 7 3
v 1 7 3
v -1 7 2
v 1 7 2
v -1 7 -2
v 1 7 -2
v -1 7 -3
v 1 7 -3

# faces
f 5/1/1 2/1/1 1/1/1
f 6/1/1 2/1/1 5/1/1
f 7/1/1 4/1/1 3/1/1
f 8/1/1 4/1/1 7/1/1
f 11/2/1 10/2/1 9/2/1
f 12/2/1 10/2/1 11/2/1
f 15/2/1 14/2/1 13/2/1
f 16/2/1 14/2/1 15/2/1
f 19/2/1 18/2/1 17/2/1
f 20/2/1 18/2/1 19/2/1
f 21/1/2 22/1/2 25/1/2
f 23/1/2 24/1/2 26/1/2
f 21/1/2 25/1/2 27/1/2
f 25/2/2 26/2/2 27/2/2
f 26/1/2 24/1/2 28/1/2
f 27/2/2 26/2/2 28/2/2
f 21/1/2 27/1/2 29/1/2
f 28/1/2 24/1/2 30/1/2
f 21/1/2 29/1/2 31/1/2
f 29/2/2 30/2/2 31/2/2
f 30/1/2 24/1/2 32/1/2
f 31/2/2 30/2/2 32/2/2
f 21/1/2 31/1/2 33/1/2
f 32/1/2 24/1/2 34/1/2
f 21/1/2 33/1/2 35/1/2
f 33/2/2 34/2/2 35/2/2
f 34/1/2 24/1/2 36/1/2
f 35/2/2 34/2/2 36/2/2
f 21/1/2 35/1/2 37/1/2
f 37/1/2 35/1/2 38/1/2
f 36/1/2 24/1/2 39/1/2
f 39/1/2 24/1/2 40/1/2
f 43/1/3 42/1/3 41/1/3
f 44/1/3 42/1/3 43/1/3
f 47/1/3 46/1/3 45/1/3
f 48/1/3 46/1/3 47/1/3
f 49/1/3 46/1/3 48/1/3
f 50/1/3 46/1/3 49/1/3
f 51/1/3 46/1/3 50/1/3
f 52/1/3 46/1/3 51/1/3
f 53/1/3 47/1/3 45/1/3
f 54/1/3 47/1/3 53/1/3
f 55/1/3 49/1/3 48/1/3
f 56/1/3 49/1/3 55/1/3
f 57/1/3 51/1/3 50/1/3
f 58/1/3 51/1/3 57/1/3
f 59/1/3 46/1/3 52/1/3
f 60/1/3 46/1/3 59/1/3
f 61/1/4 62/1/4 63/1/4
f 63/1/4 62/1/4 64/1/4
f 64/1/4 62/1/4 65/1/4
f 65/1/4 62/1/4 66/1/4
f 66/1/4 62/1/4 67/1/4
f 67/1/4 62/1/4 68/1/4
f 61/1/4 63/1/4 69/1/4
f 69/1/4 63/1/4 70/1/4
f 64/1/4 65/1/4 71/1/4
f 71/1/4 65/1/4 72/1/4
f 66/1/4 67/1/4 73/1/4
f 73/1/4 67/1/4 74/1/4
f 68/1/4 62/1/4 75/1/4
f 75/1/4 62/1/4 76/1/4
f 77/1/4 78/1/4 79/1/4
f 79/1/4 78/1/4 80/1/4
f 83/1/5 82/1/5 81/1/5
f 84/1/5 82/1/5 83/1/5
f 87/1/5 86/1/5 85/1/5
f 88/1/5 86/1/5 87/1/5
f 91/2/5 90/2/5 89/2/5
f 92/2/5 90/2/5 91/2/5
f 95/2/5 94/2/5 93/2/5
f 96/2/5 94/2/5 95/2/5
f 99/2/5 98/2/5 97/2/5
f 100/2/5 98/2/5 99/2/5
f 101/2/6 102/2/6 103/2/6
f 103/2/6 102/2/6 104/2/6
f 105/2/6 106/2/6 107/2/6
f 107/2/6 106/2/6 108/2/6
f 109/2/6 110/2/6 111/2/6
f 111/2/6 110/2/6 112/2/6
f 113/1/6 114/1/6 115/1/6
f 115/1/6 114/1/6 116/1/6
f 117/1/6 118/1/6 119/1/6
f 119/1/6 118/1/6 120/1/6
