# MagicaVoxel @ Ephtracy

# material
mtllib Tree_type1_03_snow.mtl
usemtl palette

# normals
vn -1 0 0
vn 1 0 0
vn 0 0 1
vn 0 0 -1
vn 0 -1 0
vn 0 1 0

# texcoords
vt 0.279297 0.5
vt 0.529297 0.5
vt 0.556641 0.5
vt 0.962891 0.5
vt 0.966797 0.5

# verts
v -3.5 5 1.5
v -3.5 5 -1.5
v -3.5 6 0.5
v -3.5 6 -0.5
v -3.5 7 1.5
v -3.5 7 0.5
v -3.5 7 -0.5
v -3.5 7 -1.5
v -3.5 8 1.5
v -3.5 8 -1.5
v -2.5 0 0.5
v -2.5 0 -0.5
v -2.5 1 0.5
v -2.5 1 -0.5
v -2.5 3 0.5
v -2.5 3 -0.5
v -2.5 5 0.5
v -2.5 5 -0.5
v -2.5 6 0.5
v -2.5 6 -0.5
v -2.5 7 0.5
v -2.5 7 -0.5
v -1.5 0 1.5
v -1.5 0 0.5
v -1.5 1 1.5
v -1.5 1 0.5
v -1.5 1 -0.5
v -1.5 2 1.5
v -1.5 2 0.5
v -1.5 2 -0.5
v -1.5 2 -3.5
v -1.5 3 -0.5
v -1.5 3 -1.5
v -1.5 3 -2.5
v -1.5 4 -1.5
v -1.5 4 -2.5
v -1.5 4 -3.5
v -1.5 5 -0.5
v -1.5 5 -1.5
v -1.5 5 -2.5
v -1.5 5 -3.5
v -1.5 6 1.5
v -1.5 6 0.5
v -1.5 6 -0.5
v -1.5 6 -1.5
v -1.5 7 1.5
v -1.5 7 0.5
v -1.5 7 -0.5
v -1.5 7 -1.5
v -1.5 8 0.5
v -1.5 8 -0.5
v -0.5 0 -0.5
v -0.5 0 -1.5
v -0.5 1 -1.5
v -0.5 1 -2.5
v -0.5 2 0.5
v -0.5 2 -0.5
v -0.5 2 -2.5
v -0.5 3 0.5
v -0.5 3 -0.5
v -0.5 3 -1.5
v -0.5 3 -2.5
v -0.5 4 -1.5
v -0.5 4 -2.5
v 0.5 2 2.5
v 0.5 2 0.5
v 0.5 3 2.5
v 0.5 3 0.5
v 0.5 3 -0.5
v 0.5 3 -1.5
v 0.5 3 -2.5
v 0.5 3 -3.5
v 0.5 4 3.5
v 0.5 4 0.5
v 0.5 4 -0.5
v 0.5 4 -1.5
v 0.5 4 -2.5
v 0.5 4 -3.5
v 0.5 5 2.5
v 0.5 5 1.5
v 0.5 5 -1.5
v 0.5 5 -2.5
v 0.5 6 3.5
v 0.5 6 2.5
v 0.5 6 1.5
v 0.5 6 0.5
v 0.5 7 3.5
v 0.5 7 1.5
v 0.5 7 0.5
v 1.5 0 1.5
v 1.5 0 0.5
v 1.5 1 1.5
v 1.5 1 0.5
v 1.5 3 2.5
v 1.5 3 1.5
v 1.5 4 2.5
v 1.5 4 1.5
v 1.5 5 2.5
v 1.5 5 1.5
v 1.5 6 2.5
v 1.5 6 1.5
v 2.5 5 3.5
v 2.5 5 2.5
v 2.5 5 1.5
v 2.5 5 0.5
v 2.5 6 3.5
v 2.5 6 2.5
v 2.5 6 1.5
v 2.5 6 0.5
v 2.5 7 2.5
v 2.5 7 1.5
v -2.5 6 1.5
v -2.5 6 0.5
v -2.5 6 -0.5
v -2.5 6 -1.5
v -2.5 7 1.5
v -2.5 7 0.5
v -2.5 7 -0.5
v -2.5 7 -1.5
v -2.5 8 0.5
v -2.5 8 -0.5
v -1.5 4 0.5
v -1.5 4 -0.5
v -1.5 5 0.5
v -1.5 5 -0.5
v -1.5 6 0.5
v -1.5 6 -0.5
v -1.5 7 0.5
v -1.5 7 -0.5
v -0.5 0 1.5
v -0.5 0 0.5
v -0.5 1 1.5
v -0.5 1 0.5
v -0.5 2 1.5
v -0.5 2 0.5
v -0.5 3 -0.5
v -0.5 3 -1.5
v -0.5 3 -2.5
v -0.5 3 -3.5
v -0.5 4 -0.5
v -0.5 4 -1.5
v -0.5 4 -2.5
v -0.5 4 -3.5
v -0.5 5 1.5
v -0.5 5 -0.5
v -0.5 5 -1.5
v -0.5 5 -2.5
v -0.5 6 0.5
v -0.5 6 -0.5
v -0.5 7 1.5
v -0.5 7 0.5
v -0.5 7 -0.5
v -0.5 7 -1.5
v -0.5 8 1.5
v -0.5 8 -1.5
v 0.5 1 -0.5
v 0.5 1 -1.5
v 0.5 1 -2.5
v 0.5 2 -0.5
v 0.5 2 -2.5
v 0.5 3 0.5
v 0.5 3 -0.5
v 0.5 3 -1.5
v 0.5 3 -2.5
v 0.5 4 0.5
v 0.5 4 -0.5
v 0.5 4 -1.5
v 0.5 4 -2.5
v 1.5 0 0.5
v 1.5 0 -1.5
v 1.5 1 0.5
v 1.5 1 -0.5
v 1.5 1 -1.5
v 1.5 2 1.5
v 1.5 2 0.5
v 1.5 2 -0.5
v 1.5 2 -3.5
v 1.5 3 1.5
v 1.5 3 -0.5
v 1.5 3 -1.5
v 1.5 3 -2.5
v 1.5 4 -0.5
v 1.5 4 -1.5
v 1.5 4 -2.5
v 1.5 4 -3.5
v 1.5 5 3.5
v 1.5 5 2.5
v 1.5 5 1.5
v 1.5 5 0.5
v 1.5 5 -0.5
v 1.5 5 -3.5
v 1.5 6 3.5
v 1.5 6 2.5
v 1.5 6 1.5
v 1.5 6 0.5
v 1.5 7 2.5
v 1.5 7 1.5
v 2.5 0 1.5
v 2.5 0 0.5
v 2.5 1 1.5
v 2.5 1 0.5
v 2.5 2 2.5
v 2.5 2 1.5
v 2.5 4 2.5
v 2.5 4 1.5
v 2.5 5 2.5
v 2.5 5 1.5
v 2.5 6 2.5
v 2.5 6 1.5
v 3.5 4 3.5
v 3.5 4 0.5
v 3.5 5 2.5
v 3.5 5 1.5
v 3.5 6 3.5
v 3.5 6 2.5
v 3.5 6 1.5
v 3.5 6 0.5
v 3.5 7 3.5
v 3.5 7 0.5
v 0.5 4 3.5
v 0.5 6 3.5
v 0.5 7 3.5
v 1.5 5 3.5
v 1.5 6 3.5
v 1.5 7 3.5
v 2.5 5 3.5
v 2.5 6 3.5
v 2.5 7 3.5
v 3.5 4 3.5
v 3.5 6 3.5
v 3.5 7 3.5
v 0.5 2 2.5
v 0.5 3 2.5
v 1.5 2 2.5
v 1.5 3 2.5
v 1.5 4 2.5
v 1.5 5 2.5
v 1.5 6 2.5
v 2.5 2 2.5
v 2.5 4 2.5
v 2.5 5 2.5
v 2.5 6 2.5
v -3.5 5 1.5
v -3.5 7 1.5
v -3.5 8 1.5
v -2.5 6 1.5
v -2.5 7 1.5
v -1.5 0 1.5
v -1.5 1 1.5
v -1.5 2 1.5
v -1.5 6 1.5
v -1.5 7 1.5
v -0.5 0 1.5
v -0.5 1 1.5
v -0.5 2 1.5
v -0.5 5 1.5
v -0.5 7 1.5
v -0.5 8 1.5
v 0.5 5 1.5
v 0.5 6 1.5
v 1.5 0 1.5
v 1.5 1 1.5
v 1.5 5 1.5
v 1.5 6 1.5
v 1.5 7 1.5
v 2.5 0 1.5
v 2.5 1 1.5
v 2.5 5 1.5
v 2.5 6 1.5
v 2.5 7 1.5
v 3.5 5 1.5
v 3.5 6 1.5
v -2.5 0 0.5
v -2.5 1 0.5
v -2.5 3 0.5
v -2.5 5 0.5
v -2.5 6 0.5
v -2.5 7 0.5
v -1.5 0 0.5
v -1.5 1 0.5
v -1.5 3 0.5
v -1.5 4 0.5
v -1.5 5 0.5
v -1.5 6 0.5
v -1.5 7 0.5
v -0.5 0 0.5
v -0.5 1 0.5
v -0.5 2 0.5
v -0.5 3 0.5
v 0.5 2 0.5
v 0.5 3 0.5
v 0.5 4 0.5
v 1.5 0 0.5
v 1.5 1 0.5
v 1.5 2 0.5
v -3.5 6 -0.5
v -3.5 7 -0.5
v -2.5 6 -0.5
v -2.5 7 -0.5
v -2.5 8 -0.5
v -1.5 2 -0.5
v -1.5 3 -0.5
v -1.5 4 -0.5
v -1.5 5 -0.5
v -1.5 6 -0.5
v -1.5 7 -0.5
v -1.5 8 -0.5
v -0.5 2 -0.5
v -0.5 3 -0.5
v -0.5 4 -0.5
v -0.5 5 -0.5
v -0.5 6 -0.5
v -0.5 7 -0.5
v 0.5 3 -0.5
v 0.5 4 -0.5
v 1.5 3 -0.5
v 1.5 4 -0.5
v 1.5 5 -0.5
v -0.5 3 -1.5
v -0.5 4 -1.5
v 0.5 3 -1.5
v 0.5 4 -1.5
v -1.5 3 -2.5
v -1.5 4 -2.5
v -0.5 3 -2.5
v -0.5 4 -2.5
v -0.5 5 -2.5
v 0.5 3 -2.5
v 0.5 4 -2.5
v 0.5 5 -2.5
v 1.5 3 -2.5
v 1.5 4 -2.5
v 0.5 5 2.5
v 0.5 6 2.5
v 1.5 5 2.5
v 1.5 6 2.5
v 1.5 7 2.5
v 2.5 5 2.5
v 2.5 6 2.5
v 2.5 7 2.5
v 3.5 5 2.5
v 3.5 6 2.5
v 1.5 2 1.5
v 1.5 3 1.5
v 1.5 4 1.5
v 1.5 5 1.5
v 1.5 6 1.5
v 2.5 2 1.5
v 2.5 4 1.5
v 2.5 5 1.5
v 2.5 6 1.5
v -3.5 6 0.5
v -3.5 7 0.5
v -2.5 6 0.5
v -2.5 7 0.5
v -2.5 8 0.5
v -1.5 6 0.5
v -1.5 7 0.5
v -1.5 8 0.5
v -0.5 6 0.5
v -0.5 7 0.5
v 0.5 4 0.5
v 0.5 6 0.5
v 0.5 7 0.5
v 1.5 0 0.5
v 1.5 1 0.5
v 1.5 5 0.5
v 1.5 6 0.5
v 1.5 7 0.5
v 2.5 0 0.5
v 2.5 1 0.5
v 2.5 5 0.5
v 2.5 6 0.5
v 3.5 4 0.5
v 3.5 6 0.5
v 3.5 7 0.5
v -2.5 0 -0.5
v -2.5 1 -0.5
v -2.5 3 -0.5
v -2.5 5 -0.5
v -2.5 6 -0.5
v -2.5 7 -0.5
v -1.5 1 -0.5
v -1.5 2 -0.5
v -1.5 3 -0.5
v -1.5 5 -0.5
v -1.5 6 -0.5
v -1.5 7 -0.5
v -0.5 0 -0.5
v -0.5 2 -0.5
v -0.5 3 -0.5
v -0.5 4 -0.5
v 0.5 1 -0.5
v 0.5 2 -0.5
v 0.5 3 -0.5
v 0.5 4 -0.5
v 1.5 1 -0.5
v 1.5 2 -0.5
v -3.5 5 -1.5
v -3.5 7 -1.5
v -3.5 8 -1.5
v -2.5 6 -1.5
v -2.5 7 -1.5
v -1.5 3 -1.5
v -1.5 4 -1.5
v -1.5 5 -1.5
v -1.5 6 -1.5
v -1.5 7 -1.5
v -0.5 0 -1.5
v -0.5 1 -1.5
v -0.5 3 -1.5
v -0.5 4 -1.5
v -0.5 5 -1.5
v -0.5 7 -1.5
v -0.5 8 -1.5
v 0.5 1 -1.5
v 0.5 3 -1.5
v 0.5 4 -1.5
v 0.5 5 -1.5
v 1.5 0 -1.5
v 1.5 1 -1.5
v 1.5 3 -1.5
v 1.5 4 -1.5
v -0.5 1 -2.5
v -0.5 2 -2.5
v -0.5 3 -2.5
v -0.5 4 -2.5
v 0.5 1 -2.5
v 0.5 2 -2.5
v 0.5 3 -2.5
v 0.5 4 -2.5
v -1.5 2 -3.5
v -1.5 4 -3.5
v -1.5 5 -3.5
v -0.5 3 -3.5
v -0.5 4 -3.5
v -0.5 5 -3.5
v 0.5 3 -3.5
v 0.5 4 -3.5
v 1.5 2 -3.5
v 1.5 4 -3.5
v 1.5 5 -3.5
v -1.5 0 1.5
v -0.5 0 1.5
v 1.5 0 1.5
v 2.5 0 1.5
v -2.5 0 0.5
v -1.5 0 0.5
v -0.5 0 0.5
v 1.5 0 0.5
v 2.5 0 0.5
v -2.5 0 -0.5
v -0.5 0 -0.5
v -0.5 0 -1.5
v 1.5 0 -1.5
v -0.5 1 -1.5
v 0.5 1 -1.5
v -0.5 1 -2.5
v 0.5 1 -2.5
v 0.5 2 2.5
v 1.5 2 2.5
v 2.5 2 2.5
v 1.5 2 1.5
v 2.5 2 1.5
v 0.5 2 0.5
v 1.5 2 0.5
v -1.5 2 -0.5
v -0.5 2 -0.5
v 0.5 2 -0.5
v 1.5 2 -0.5
v -0.5 2 -2.5
v 0.5 2 -2.5
v -1.5 2 -3.5
v 1.5 2 -3.5
v -2.5 3 0.5
v -1.5 3 0.5
v -0.5 3 0.5
v -2.5 3 -0.5
v -1.5 3 -0.5
v -0.5 3 -0.5
v 0.5 4 3.5
v 3.5 4 3.5
v 1.5 4 2.5
v 2.5 4 2.5
v 1.5 4 1.5
v 2.5 4 1.5
v 0.5 4 0.5
v 3.5 4 0.5
v -0.5 4 -0.5
v 0.5 4 -0.5
v -1.5 4 -1.5
v -0.5 4 -1.5
v 0.5 4 -1.5
v 1.5 4 -1.5
v -1.5 4 -2.5
v -0.5 4 -2.5
v 0.5 4 -2.5
v 1.5 4 -2.5
v -0.5 4 -3.5
v 0.5 4 -3.5
v -3.5 5 1.5
v -0.5 5 1.5
v -2.5 5 0.5
v -1.5 5 0.5
v -2.5 5 -0.5
v -1.5 5 -0.5
v -0.5 5 -0.5
v -3.5 5 -1.5
v -1.5 5 -1.5
v 1.5 6 3.5
v 2.5 6 3.5
v 0.5 6 2.5
v 1.5 6 2.5
v 2.5 6 2.5
v 3.5 6 2.5
v 0.5 6 1.5
v 1.5 6 1.5
v 2.5 6 1.5
v 3.5 6 1.5
v 1.5 6 0.5
v 2.5 6 0.5
v -2.5 7 1.5
v -1.5 7 1.5
v -3.5 7 0.5
v -2.5 7 0.5
v -1.5 7 0.5
v -0.5 7 0.5
v -3.5 7 -0.5
v -2.5 7 -0.5
v -1.5 7 -0.5
v -0.5 7 -0.5
v -2.5 7 -1.5
v -1.5 7 -1.5
v 1.5 1 1.5
v 2.5 1 1.5
v -2.5 1 0.5
v -1.5 1 0.5
v 1.5 1 0.5
v 2.5 1 0.5
v -2.5 1 -0.5
v -1.5 1 -0.5
v 0.5 1 -0.5
v 1.5 1 -0.5
v 0.5 1 -1.5
v 1.5 1 -1.5
v -1.5 2 1.5
v -0.5 2 1.5
v -1.5 2 0.5
v -0.5 2 0.5
v -1.5 2 -0.5
v -0.5 2 -0.5
v 0.5 3 2.5
v 1.5 3 2.5
v 1.5 3 1.5
v 0.5 3 0.5
v -0.5 3 -0.5
v 0.5 3 -0.5
v 1.5 3 -0.5
v -1.5 3 -1.5
v -0.5 3 -1.5
v 0.5 3 -1.5
v 1.5 3 -1.5
v -1.5 3 -2.5
v -0.5 3 -2.5
v 0.5 3 -2.5
v 1.5 3 -2.5
v -0.5 3 -3.5
v 0.5 3 -3.5
v -1.5 4 0.5
v 0.5 4 0.5
v -1.5 4 -0.5
v -0.5 4 -0.5
v 0.5 4 -0.5
v -0.5 4 -1.5
v 0.5 4 -1.5
v -0.5 4 -2.5
v 0.5 4 -2.5
v 1.5 5 3.5
v 2.5 5 3.5
v 0.5 5 2.5
v 1.5 5 2.5
v 2.5 5 2.5
v 3.5 5 2.5
v 0.5 5 1.5
v 1.5 5 1.5
v 2.5 5 1.5
v 3.5 5 1.5
v 1.5 5 0.5
v 2.5 5 0.5
v -0.5 5 -0.5
v 1.5 5 -0.5
v -1.5 5 -1.5
v -0.5 5 -1.5
v 0.5 5 -1.5
v -1.5 5 -2.5
v -0.5 5 -2.5
v 0.5 5 -2.5
v -1.5 5 -3.5
v -0.5 5 -3.5
v 1.5 5 -3.5
v 1.5 6 2.5
v 2.5 6 2.5
v -2.5 6 1.5
v -1.5 6 1.5
v 1.5 6 1.5
v 2.5 6 1.5
v -3.5 6 0.5
v -2.5 6 0.5
v -1.5 6 0.5
v -0.5 6 0.5
v -3.5 6 -0.5
v -2.5 6 -0.5
v -1.5 6 -0.5
v -0.5 6 -0.5
v -2.5 6 -1.5
v -1.5 6 -1.5
v 0.5 7 3.5
v 1.5 7 3.5
v 2.5 7 3.5
v 3.5 7 3.5
v 1.5 7 2.5
v 2.5 7 2.5
v 0.5 7 1.5
v 1.5 7 1.5
v 2.5 7 1.5
v -2.5 7 0.5
v -1.5 7 0.5
v 0.5 7 0.5
v 1.5 7 0.5
v 3.5 7 0.5
v -2.5 7 -0.5
v -1.5 7 -0.5
v -3.5 8 1.5
v -0.5 8 1.5
v -2.5 8 0.5
v -1.5 8 0.5
v -2.5 8 -0.5
v -1.5 8 -0.5
v -3.5 8 -1.5
v -0.5 8 -1.5

# faces
f 3/3/1 2/3/1 1/3/1
f 4/3/1 2/3/1 3/3/1
f 5/3/1 3/3/1 1/3/1
f 6/3/1 3/3/1 5/3/1
f 7/3/1 2/3/1 4/3/1
f 8/3/1 2/3/1 7/3/1
f 9/4/1 6/4/1 5/4/1
f 9/4/1 7/4/1 6/4/1
f 9/4/1 8/4/1 7/4/1
f 10/4/1 8/4/1 9/4/1
f 13/1/1 12/1/1 11/1/1
f 14/1/1 12/1/1 13/1/1
f 17/1/1 16/1/1 15/1/1
f 18/1/1 16/1/1 17/1/1
f 21/2/1 20/2/1 19/2/1
f 22/2/1 20/2/1 21/2/1
f 25/1/1 24/1/1 23/1/1
f 26/1/1 24/1/1 25/1/1
f 28/3/1 26/3/1 25/3/1
f 29/1/1 27/1/1 26/1/1
f 29/3/1 26/3/1 28/3/1
f 30/1/1 27/1/1 29/1/1
f 32/3/1 31/3/1 30/3/1
f 33/3/1 31/3/1 32/3/1
f 34/3/1 31/3/1 33/3/1
f 35/3/1 33/3/1 32/3/1
f 36/3/1 31/3/1 34/3/1
f 37/3/1 31/3/1 36/3/1
f 38/3/1 35/3/1 32/3/1
f 39/4/1 36/4/1 35/4/1
f 39/3/1 35/3/1 38/3/1
f 40/5/1 37/5/1 36/5/1
f 40/4/1 36/4/1 39/4/1
f 41/5/1 37/5/1 40/5/1
f 46/3/1 43/3/1 42/3/1
f 47/3/1 43/3/1 46/3/1
f 48/3/1 45/3/1 44/3/1
f 49/3/1 45/3/1 48/3/1
f 50/4/1 48/4/1 47/4/1
f 51/4/1 48/4/1 50/4/1
f 54/1/1 53/1/1 52/1/1
f 57/1/1 54/1/1 52/1/1
f 57/1/1 55/1/1 54/1/1
f 58/1/1 55/1/1 57/1/1
f 59/1/1 57/1/1 56/1/1
f 60/1/1 57/1/1 59/1/1
f 63/2/1 62/2/1 61/2/1
f 64/2/1 62/2/1 63/2/1
f 67/4/1 66/4/1 65/4/1
f 68/4/1 66/4/1 67/4/1
f 75/3/1 70/3/1 69/3/1
f 76/3/1 70/3/1 75/3/1
f 77/3/1 72/3/1 71/3/1
f 78/3/1 72/3/1 77/3/1
f 79/3/1 74/3/1 73/3/1
f 80/3/1 74/3/1 79/3/1
f 81/4/1 77/4/1 76/4/1
f 82/4/1 77/4/1 81/4/1
f 83/3/1 79/3/1 73/3/1
f 84/3/1 79/3/1 83/3/1
f 85/3/1 74/3/1 80/3/1
f 86/3/1 74/3/1 85/3/1
f 87/4/1 84/4/1 83/4/1
f 87/4/1 85/4/1 84/4/1
f 88/5/1 86/5/1 85/5/1
f 88/4/1 85/4/1 87/4/1
f 89/5/1 86/5/1 88/5/1
f 92/1/1 91/1/1 90/1/1
f 93/1/1 91/1/1 92/1/1
f 96/1/1 95/1/1 94/1/1
f 97/1/1 95/1/1 96/1/1
f 100/2/1 99/2/1 98/2/1
f 101/2/1 99/2/1 100/2/1
f 106/3/1 103/3/1 102/3/1
f 107/3/1 103/3/1 106/3/1
f 108/3/1 105/3/1 104/3/1
f 109/3/1 105/3/1 108/3/1
f 110/4/1 108/4/1 107/4/1
f 111/4/1 108/4/1 110/4/1
f 112/3/2 113/3/2 116/3/2
f 116/3/2 113/3/2 117/3/2
f 114/3/2 115/3/2 118/3/2
f 118/3/2 115/3/2 119/3/2
f 117/4/2 118/4/2 120/4/2
f 120/4/2 118/4/2 121/4/2
f 122/1/2 123/1/2 124/1/2
f 124/1/2 123/1/2 125/1/2
f 126/2/2 127/2/2 128/2/2
f 128/2/2 127/2/2 129/2/2
f 130/1/2 131/1/2 132/1/2
f 132/1/2 131/1/2 133/1/2
f 132/3/2 133/3/2 134/3/2
f 134/3/2 133/3/2 135/3/2
f 136/3/2 137/3/2 140/3/2
f 140/3/2 137/3/2 141/3/2
f 138/3/2 139/3/2 142/3/2
f 142/3/2 139/3/2 143/3/2
f 141/4/2 142/4/2 146/4/2
f 146/4/2 142/4/2 147/4/2
f 144/3/2 145/3/2 148/3/2
f 145/3/2 146/3/2 148/3/2
f 148/3/2 146/3/2 149/3/2
f 144/3/2 148/3/2 150/3/2
f 150/3/2 148/3/2 151/3/2
f 149/3/2 146/3/2 152/3/2
f 152/3/2 146/3/2 153/3/2
f 150/4/2 151/4/2 154/4/2
f 151/4/2 152/4/2 154/4/2
f 152/4/2 153/4/2 154/4/2
f 154/4/2 153/4/2 155/4/2
f 156/1/2 157/1/2 159/1/2
f 157/1/2 158/1/2 159/1/2
f 159/1/2 158/1/2 160/1/2
f 161/4/2 162/4/2 165/4/2
f 165/4/2 162/4/2 166/4/2
f 163/2/2 164/2/2 167/2/2
f 167/2/2 164/2/2 168/2/2
f 169/1/2 170/1/2 171/1/2
f 171/1/2 170/1/2 172/1/2
f 172/1/2 170/1/2 173/1/2
f 171/1/2 172/1/2 175/1/2
f 175/1/2 172/1/2 176/1/2
f 175/4/2 176/4/2 178/4/2
f 174/4/2 175/4/2 178/4/2
f 176/3/2 177/3/2 179/3/2
f 178/4/2 176/4/2 179/4/2
f 179/3/2 177/3/2 180/3/2
f 180/3/2 177/3/2 181/3/2
f 179/3/2 180/3/2 182/3/2
f 182/3/2 180/3/2 183/3/2
f 181/3/2 177/3/2 184/3/2
f 184/3/2 177/3/2 185/3/2
f 182/4/2 183/4/2 190/4/2
f 183/4/2 184/4/2 190/4/2
f 184/4/2 185/4/2 190/4/2
f 190/4/2 185/4/2 191/4/2
f 186/3/2 187/3/2 192/3/2
f 192/3/2 187/3/2 193/3/2
f 188/3/2 189/3/2 194/3/2
f 194/3/2 189/3/2 195/3/2
f 193/4/2 194/4/2 196/4/2
f 196/4/2 194/4/2 197/4/2
f 198/1/2 199/1/2 200/1/2
f 200/1/2 199/1/2 201/1/2
f 202/1/2 203/1/2 204/1/2
f 204/1/2 203/1/2 205/1/2
f 206/2/2 207/2/2 208/2/2
f 208/2/2 207/2/2 209/2/2
f 210/3/2 211/3/2 212/3/2
f 212/3/2 211/3/2 213/3/2
f 210/3/2 212/3/2 214/3/2
f 214/3/2 212/3/2 215/3/2
f 213/3/2 211/3/2 216/3/2
f 216/3/2 211/3/2 217/3/2
f 214/4/2 215/4/2 218/4/2
f 215/4/2 216/4/2 218/4/2
f 216/4/2 217/4/2 218/4/2
f 218/4/2 217/4/2 219/4/2
f 223/3/3 221/3/3 220/3/3
f 224/4/3 222/4/3 221/4/3
f 224/3/3 221/3/3 223/3/3
f 225/4/3 222/4/3 224/4/3
f 226/3/3 223/3/3 220/3/3
f 227/5/3 225/5/3 224/5/3
f 228/5/3 225/5/3 227/5/3
f 229/3/3 226/3/3 220/3/3
f 229/3/3 227/3/3 226/3/3
f 230/4/3 228/4/3 227/4/3
f 230/3/3 227/3/3 229/3/3
f 231/4/3 228/4/3 230/4/3
f 234/4/3 233/4/3 232/4/3
f 235/4/3 233/4/3 234/4/3
f 239/1/3 235/1/3 234/1/3
f 239/1/3 236/1/3 235/1/3
f 240/1/3 236/1/3 239/1/3
f 241/2/3 238/2/3 237/2/3
f 242/2/3 238/2/3 241/2/3
f 246/3/3 244/3/3 243/3/3
f 247/4/3 245/4/3 244/4/3
f 247/3/3 244/3/3 246/3/3
f 251/3/3 246/3/3 243/3/3
f 252/4/3 245/4/3 247/4/3
f 253/1/3 249/1/3 248/1/3
f 254/3/3 250/3/3 249/3/3
f 254/1/3 249/1/3 253/1/3
f 255/3/3 250/3/3 254/3/3
f 256/3/3 251/3/3 243/3/3
f 256/3/3 252/3/3 251/3/3
f 257/4/3 245/4/3 252/4/3
f 257/3/3 252/3/3 256/3/3
f 258/4/3 245/4/3 257/4/3
f 263/3/3 260/3/3 259/3/3
f 264/3/3 260/3/3 263/3/3
f 266/1/3 262/1/3 261/1/3
f 267/1/3 262/1/3 266/1/3
f 269/4/3 265/4/3 264/4/3
f 270/4/3 265/4/3 269/4/3
f 271/3/3 269/3/3 268/3/3
f 272/3/3 269/3/3 271/3/3
f 279/1/3 274/1/3 273/1/3
f 280/1/3 274/1/3 279/1/3
f 281/1/3 276/1/3 275/1/3
f 282/1/3 276/1/3 281/1/3
f 283/1/3 276/1/3 282/1/3
f 284/2/3 278/2/3 277/2/3
f 285/2/3 278/2/3 284/2/3
f 289/4/3 282/4/3 281/4/3
f 290/1/3 288/1/3 287/1/3
f 290/1/3 289/1/3 288/1/3
f 290/1/3 287/1/3 286/1/3
f 291/4/3 282/4/3 289/4/3
f 291/1/3 289/1/3 290/1/3
f 292/4/3 282/4/3 291/4/3
f 293/1/3 290/1/3 286/1/3
f 294/1/3 290/1/3 293/1/3
f 295/1/3 290/1/3 294/1/3
f 298/3/3 297/3/3 296/3/3
f 299/3/3 297/3/3 298/3/3
f 306/4/3 300/4/3 299/4/3
f 307/4/3 300/4/3 306/4/3
f 308/3/3 302/3/3 301/3/3
f 309/3/3 302/3/3 308/3/3
f 310/3/3 304/3/3 303/3/3
f 311/3/3 304/3/3 310/3/3
f 312/3/3 306/3/3 305/3/3
f 313/3/3 306/3/3 312/3/3
f 315/4/3 311/4/3 310/4/3
f 316/3/3 315/3/3 314/3/3
f 317/4/3 311/4/3 315/4/3
f 317/3/3 315/3/3 316/3/3
f 318/4/3 311/4/3 317/4/3
f 321/2/3 320/2/3 319/2/3
f 322/2/3 320/2/3 321/2/3
f 325/3/3 324/3/3 323/3/3
f 326/3/3 324/3/3 325/3/3
f 329/4/3 327/4/3 326/4/3
f 330/4/3 327/4/3 329/4/3
f 331/3/3 329/3/3 328/3/3
f 332/3/3 329/3/3 331/3/3
f 333/3/4 334/3/4 335/3/4
f 335/3/4 334/3/4 336/3/4
f 336/5/4 337/5/4 339/5/4
f 339/5/4 337/5/4 340/5/4
f 338/3/4 339/3/4 341/3/4
f 341/3/4 339/3/4 342/3/4
f 343/1/4 344/1/4 348/1/4
f 344/1/4 345/1/4 348/1/4
f 348/1/4 345/1/4 349/1/4
f 346/2/4 347/2/4 350/2/4
f 350/2/4 347/2/4 351/2/4
f 352/3/4 353/3/4 354/3/4
f 354/3/4 353/3/4 355/3/4
f 355/4/4 356/4/4 358/4/4
f 358/4/4 356/4/4 359/4/4
f 357/3/4 358/3/4 360/3/4
f 360/3/4 358/3/4 361/3/4
f 362/3/4 363/3/4 367/3/4
f 363/5/4 364/5/4 368/5/4
f 367/3/4 363/3/4 368/3/4
f 368/5/4 364/5/4 369/5/4
f 365/1/4 366/1/4 370/1/4
f 370/1/4 366/1/4 371/1/4
f 362/3/4 367/3/4 372/3/4
f 368/4/4 369/4/4 373/4/4
f 372/3/4 373/3/4 374/3/4
f 362/3/4 372/3/4 374/3/4
f 373/4/4 369/4/4 375/4/4
f 374/3/4 373/3/4 375/3/4
f 375/4/4 369/4/4 376/4/4
f 377/1/4 378/1/4 383/1/4
f 379/1/4 380/1/4 385/1/4
f 385/1/4 380/1/4 386/1/4
f 381/2/4 382/2/4 387/2/4
f 387/2/4 382/2/4 388/2/4
f 383/1/4 384/1/4 389/1/4
f 377/1/4 383/1/4 389/1/4
f 389/1/4 384/1/4 390/1/4
f 391/4/4 392/4/4 395/4/4
f 395/4/4 392/4/4 396/4/4
f 393/1/4 394/1/4 397/1/4
f 397/1/4 394/1/4 398/1/4
f 399/3/4 400/3/4 402/3/4
f 400/4/4 401/4/4 403/4/4
f 402/3/4 400/3/4 403/3/4
f 399/3/4 402/3/4 406/3/4
f 406/3/4 402/3/4 407/3/4
f 403/4/4 401/4/4 408/4/4
f 404/3/4 405/3/4 411/3/4
f 411/3/4 405/3/4 412/3/4
f 406/3/4 407/3/4 413/3/4
f 407/3/4 408/3/4 413/3/4
f 408/4/4 401/4/4 414/4/4
f 413/3/4 408/3/4 414/3/4
f 414/4/4 401/4/4 415/4/4
f 409/1/4 410/1/4 416/1/4
f 412/4/4 413/4/4 418/4/4
f 418/4/4 413/4/4 419/4/4
f 409/1/4 416/1/4 420/1/4
f 420/1/4 416/1/4 421/1/4
f 417/3/4 418/3/4 422/3/4
f 422/3/4 418/3/4 423/3/4
f 424/1/4 425/1/4 428/1/4
f 428/1/4 425/1/4 429/1/4
f 426/2/4 427/2/4 430/2/4
f 430/2/4 427/2/4 431/2/4
f 432/3/4 433/3/4 435/3/4
f 433/5/4 434/5/4 436/5/4
f 435/3/4 433/3/4 436/3/4
f 436/5/4 434/5/4 437/5/4
f 432/3/4 435/3/4 438/3/4
f 436/4/4 437/4/4 439/4/4
f 432/3/4 438/3/4 440/3/4
f 438/3/4 439/3/4 440/3/4
f 439/4/4 437/4/4 441/4/4
f 440/3/4 439/3/4 441/3/4
f 441/4/4 437/4/4 442/4/4
f 448/1/5 444/1/5 443/1/5
f 449/1/5 444/1/5 448/1/5
f 450/1/5 446/1/5 445/1/5
f 451/1/5 446/1/5 450/1/5
f 452/1/5 449/1/5 448/1/5
f 452/1/5 448/1/5 447/1/5
f 452/1/5 450/1/5 449/1/5
f 453/1/5 450/1/5 452/1/5
f 454/1/5 450/1/5 453/1/5
f 455/1/5 450/1/5 454/1/5
f 458/1/5 457/1/5 456/1/5
f 459/1/5 457/1/5 458/1/5
f 463/4/5 461/4/5 460/4/5
f 463/1/5 462/1/5 461/1/5
f 464/1/5 462/1/5 463/1/5
f 465/4/5 463/4/5 460/4/5
f 466/4/5 463/4/5 465/4/5
f 471/3/5 468/3/5 467/3/5
f 472/3/5 470/3/5 469/3/5
f 473/3/5 471/3/5 467/3/5
f 473/3/5 472/3/5 471/3/5
f 474/3/5 470/3/5 472/3/5
f 474/3/5 472/3/5 473/3/5
f 478/1/5 476/1/5 475/1/5
f 479/4/5 477/4/5 476/4/5
f 479/1/5 476/1/5 478/1/5
f 480/4/5 477/4/5 479/4/5
f 483/3/5 482/3/5 481/3/5
f 484/3/5 482/3/5 483/3/5
f 485/3/5 483/3/5 481/3/5
f 486/3/5 482/3/5 484/3/5
f 487/3/5 485/3/5 481/3/5
f 487/3/5 486/3/5 485/3/5
f 488/3/5 482/3/5 486/3/5
f 488/3/5 486/3/5 487/3/5
f 492/4/5 490/4/5 489/4/5
f 493/4/5 490/4/5 492/4/5
f 495/4/5 492/4/5 491/4/5
f 496/4/5 492/4/5 495/4/5
f 497/4/5 494/4/5 493/4/5
f 498/4/5 494/4/5 497/4/5
f 499/4/5 497/4/5 496/4/5
f 500/4/5 497/4/5 499/4/5
f 503/3/5 502/3/5 501/3/5
f 504/3/5 502/3/5 503/3/5
f 505/3/5 503/3/5 501/3/5
f 506/3/5 502/3/5 504/3/5
f 507/3/5 502/3/5 506/3/5
f 508/3/5 505/3/5 501/3/5
f 508/3/5 506/3/5 505/3/5
f 509/3/5 506/3/5 508/3/5
f 513/5/5 511/5/5 510/5/5
f 514/5/5 511/5/5 513/5/5
f 516/4/5 513/4/5 512/4/5
f 517/4/5 513/4/5 516/4/5
f 518/4/5 515/4/5 514/4/5
f 519/4/5 515/4/5 518/4/5
f 520/4/5 518/4/5 517/4/5
f 521/4/5 518/4/5 520/4/5
f 525/4/5 523/4/5 522/4/5
f 526/4/5 523/4/5 525/4/5
f 528/4/5 525/4/5 524/4/5
f 529/4/5 525/4/5 528/4/5
f 530/4/5 527/4/5 526/4/5
f 531/4/5 527/4/5 530/4/5
f 532/4/5 530/4/5 529/4/5
f 533/4/5 530/4/5 532/4/5
f 534/1/6 535/1/6 538/1/6
f 538/1/6 535/1/6 539/1/6
f 536/1/6 537/1/6 540/1/6
f 540/1/6 537/1/6 541/1/6
f 542/1/6 543/1/6 544/1/6
f 544/1/6 543/1/6 545/1/6
f 546/3/6 547/3/6 548/3/6
f 548/3/6 547/3/6 549/3/6
f 548/1/6 549/1/6 550/1/6
f 550/1/6 549/1/6 551/1/6
f 552/4/6 553/4/6 554/4/6
f 552/4/6 554/4/6 555/4/6
f 555/4/6 554/4/6 557/4/6
f 557/4/6 554/4/6 558/4/6
f 556/3/6 557/3/6 560/3/6
f 560/3/6 557/3/6 561/3/6
f 559/3/6 560/3/6 563/3/6
f 563/3/6 560/3/6 564/3/6
f 561/3/6 562/3/6 565/3/6
f 565/3/6 562/3/6 566/3/6
f 564/3/6 565/3/6 567/3/6
f 567/3/6 565/3/6 568/3/6
f 569/4/6 570/4/6 571/4/6
f 571/4/6 570/4/6 572/4/6
f 572/4/6 570/4/6 573/4/6
f 574/2/6 575/2/6 576/2/6
f 576/2/6 575/2/6 577/2/6
f 578/3/6 579/3/6 581/3/6
f 581/3/6 579/3/6 582/3/6
f 580/3/6 581/3/6 584/3/6
f 584/3/6 581/3/6 585/3/6
f 582/3/6 583/3/6 586/3/6
f 586/3/6 583/3/6 587/3/6
f 585/3/6 586/3/6 588/3/6
f 588/3/6 586/3/6 589/3/6
f 590/4/6 591/4/6 593/4/6
f 593/4/6 591/4/6 594/4/6
f 592/4/6 593/4/6 595/4/6
f 595/4/6 593/4/6 596/4/6
f 594/4/6 591/4/6 597/4/6
f 595/5/6 596/5/6 598/5/6
f 596/4/6 597/4/6 599/4/6
f 598/5/6 596/5/6 599/5/6
f 597/4/6 591/4/6 600/4/6
f 599/4/6 597/4/6 600/4/6
f 601/2/6 602/2/6 605/2/6
f 605/2/6 602/2/6 606/2/6
f 603/3/6 604/3/6 608/3/6
f 608/3/6 604/3/6 609/3/6
f 607/3/6 608/3/6 611/3/6
f 611/3/6 608/3/6 612/3/6
f 609/3/6 610/3/6 613/3/6
f 613/3/6 610/3/6 614/3/6
f 612/3/6 613/3/6 615/3/6
f 615/3/6 613/3/6 616/3/6
f 617/4/6 618/4/6 621/4/6
f 618/5/6 619/5/6 621/5/6
f 619/4/6 620/4/6 622/4/6
f 621/5/6 619/5/6 622/5/6
f 617/4/6 621/4/6 623/4/6
f 623/4/6 621/4/6 624/4/6
f 622/4/6 620/4/6 625/4/6
f 623/5/6 624/5/6 628/5/6
f 624/4/6 625/4/6 629/4/6
f 628/5/6 624/5/6 629/5/6
f 625/4/6 620/4/6 630/4/6
f 629/4/6 625/4/6 630/4/6
f 626/2/6 627/2/6 631/2/6
f 631/2/6 627/2/6 632/2/6
f 633/4/6 634/4/6 635/4/6
f 635/4/6 634/4/6 636/4/6
f 633/4/6 635/4/6 637/4/6
f 636/4/6 634/4/6 638/4/6
f 633/4/6 637/4/6 639/4/6
f 637/4/6 638/4/6 639/4/6
f 638/4/6 634/4/6 640/4/6
f 639/4/6 638/4/6 640/4/6
