# MagicaVoxel @ Ephtracy

# material
mtllib Tree_type3_01_snow.mtl
usemtl palette

# normals
vn -1 0 0
vn 1 0 0
vn 0 0 1
vn 0 0 -1
vn 0 -1 0
vn 0 1 0

# texcoords
vt 0.466797 0.5
vt 0.509766 0.5
vt 0.513672 0.5
vt 0.962891 0.5
vt 0.966797 0.5

# verts
v -2 3 2
v -2 3 -2
v -2 5 2
v -2 5 1
v -2 5 -0
v -2 5 -1
v -2 5 -2
v -2 6 2
v -2 6 1
v -2 6 -0
v -2 6 -1
v -2 7 2
v -2 7 -2
v -2 9 2
v -2 9 -2
v -2 10 2
v -2 10 -2
v -2 11 2
v -2 11 -2
v -1 0 1
v -1 0 -1
v -1 3 1
v -1 3 -1
v 1 0 1
v 1 0 -1
v 1 3 1
v 1 3 -1
v 2 3 2
v 2 3 -2
v 2 5 2
v 2 5 -2
v 2 7 2
v 2 7 -2
v 2 9 2
v 2 9 -2
v 2 10 2
v 2 10 -2
v 2 11 2
v 2 11 -2
v -2 3 2
v -2 5 2
v -2 6 2
v -2 7 2
v -2 9 2
v -2 10 2
v -2 11 2
v -1 5 2
v -1 6 2
v -1 8 2
v -1 9 2
v 0 8 2
v 0 9 2
v 2 3 2
v 2 5 2
v 2 7 2
v 2 9 2
v 2 10 2
v 2 11 2
v -1 0 1
v -1 3 1
v 1 0 1
v 1 3 1
v -1 0 -1
v -1 3 -1
v 1 0 -1
v 1 3 -1
v -2 3 -2
v -2 5 -2
v -2 7 -2
v -2 9 -2
v -2 10 -2
v -2 11 -2
v -1 8 -2
v -1 9 -2
v 0 8 -2
v 0 9 -2
v 2 3 -2
v 2 5 -2
v 2 7 -2
v 2 9 -2
v 2 10 -2
v 2 11 -2
v -1 0 1
v 1 0 1
v -1 0 -1
v 1 0 -1
v -2 3 2
v 2 3 2
v -1 3 1
v 1 3 1
v -1 3 -1
v 1 3 -1
v -2 3 -2
v 2 3 -2
v -2 11 2
v 2 11 2
v -1 11 1
v 0 11 1
v -1 11 -0
v 0 11 -0
v 1 11 -0
v 0 11 -1
v 1 11 -1
v -2 11 -2
v 2 11 -2

# faces
f 3/2/1 2/2/1 1/2/1
f 4/2/1 2/2/1 3/2/1
f 5/2/1 2/2/1 4/2/1
f 6/2/1 2/2/1 5/2/1
f 7/2/1 2/2/1 6/2/1
f 8/1/1 4/1/1 3/1/1
f 9/3/1 5/3/1 4/3/1
f 9/1/1 4/1/1 8/1/1
f 10/1/1 6/1/1 5/1/1
f 10/3/1 5/3/1 9/3/1
f 11/3/1 7/3/1 6/3/1
f 11/1/1 6/1/1 10/1/1
f 12/3/1 9/3/1 8/3/1
f 12/3/1 10/3/1 9/3/1
f 12/3/1 11/3/1 10/3/1
f 13/3/1 7/3/1 11/3/1
f 13/3/1 11/3/1 12/3/1
f 14/2/1 13/2/1 12/2/1
f 15/2/1 13/2/1 14/2/1
f 16/3/1 15/3/1 14/3/1
f 17/3/1 15/3/1 16/3/1
f 18/4/1 17/4/1 16/4/1
f 19/4/1 17/4/1 18/4/1
f 22/1/1 21/1/1 20/1/1
f 23/1/1 21/1/1 22/1/1
f 24/1/2 25/1/2 26/1/2
f 26/1/2 25/1/2 27/1/2
f 28/2/2 29/2/2 30/2/2
f 30/2/2 29/2/2 31/2/2
f 30/3/2 31/3/2 32/3/2
f 32/3/2 31/3/2 33/3/2
f 32/2/2 33/2/2 34/2/2
f 34/2/2 33/2/2 35/2/2
f 34/3/2 35/3/2 36/3/2
f 36/3/2 35/3/2 37/3/2
f 36/4/2 37/4/2 38/4/2
f 38/4/2 37/4/2 39/4/2
f 47/2/3 41/2/3 40/2/3
f 47/1/3 42/1/3 41/1/3
f 48/3/3 43/3/3 42/3/3
f 48/1/3 42/1/3 47/1/3
f 49/2/3 44/2/3 43/2/3
f 50/3/3 45/3/3 44/3/3
f 50/2/3 44/2/3 49/2/3
f 51/2/3 49/2/3 43/2/3
f 51/1/3 50/1/3 49/1/3
f 52/3/3 45/3/3 50/3/3
f 52/1/3 50/1/3 51/1/3
f 53/2/3 47/2/3 40/2/3
f 54/3/3 48/3/3 47/3/3
f 54/2/3 47/2/3 53/2/3
f 55/2/3 51/2/3 43/2/3
f 55/3/3 48/3/3 54/3/3
f 55/3/3 43/3/3 48/3/3
f 55/2/3 52/2/3 51/2/3
f 56/3/3 45/3/3 52/3/3
f 56/2/3 52/2/3 55/2/3
f 57/4/3 46/4/3 45/4/3
f 57/3/3 45/3/3 56/3/3
f 58/4/3 46/4/3 57/4/3
f 61/1/3 60/1/3 59/1/3
f 62/1/3 60/1/3 61/1/3
f 63/1/4 64/1/4 65/1/4
f 65/1/4 64/1/4 66/1/4
f 69/2/4 70/2/4 73/2/4
f 70/3/4 71/3/4 74/3/4
f 73/2/4 70/2/4 74/2/4
f 69/2/4 73/2/4 75/2/4
f 73/1/4 74/1/4 75/1/4
f 74/3/4 71/3/4 76/3/4
f 75/1/4 74/1/4 76/1/4
f 67/2/4 68/2/4 77/2/4
f 68/3/4 69/3/4 78/3/4
f 77/2/4 68/2/4 78/2/4
f 69/2/4 75/2/4 79/2/4
f 78/3/4 69/3/4 79/3/4
f 75/2/4 76/2/4 79/2/4
f 76/3/4 71/3/4 80/3/4
f 79/2/4 76/2/4 80/2/4
f 71/4/4 72/4/4 81/4/4
f 80/3/4 71/3/4 81/3/4
f 81/4/4 72/4/4 82/4/4
f 85/1/5 84/1/5 83/1/5
f 86/1/5 84/1/5 85/1/5
f 89/2/5 88/2/5 87/2/5
f 90/2/5 88/2/5 89/2/5
f 91/2/5 89/2/5 87/2/5
f 92/2/5 88/2/5 90/2/5
f 93/2/5 91/2/5 87/2/5
f 93/2/5 92/2/5 91/2/5
f 94/2/5 88/2/5 92/2/5
f 94/2/5 92/2/5 93/2/5
f 95/4/6 96/4/6 97/4/6
f 97/4/6 96/4/6 98/4/6
f 95/4/6 97/4/6 99/4/6
f 97/5/6 98/5/6 99/5/6
f 98/4/6 96/4/6 100/4/6
f 99/5/6 98/5/6 100/5/6
f 100/4/6 96/4/6 101/4/6
f 99/4/6 100/4/6 102/4/6
f 100/5/6 101/5/6 102/5/6
f 101/4/6 96/4/6 103/4/6
f 102/5/6 101/5/6 103/5/6
f 95/4/6 99/4/6 104/4/6
f 99/4/6 102/4/6 104/4/6
f 102/4/6 103/4/6 104/4/6
f 103/4/6 96/4/6 105/4/6
f 104/4/6 103/4/6 105/4/6
