# MagicaVoxel @ Ephtracy

# material
mtllib Tree_type1_01_snow.mtl
usemtl palette

# normals
vn -1 0 0
vn 1 0 0
vn 0 0 1
vn 0 0 -1
vn 0 -1 0
vn 0 1 0

# texcoords
vt 0.529297 0.5
vt 0.556641 0.5
vt 0.962891 0.5
vt 0.966797 0.5

# verts
v -1.5 0 1.5
v -1.5 0 -1.5
v -1.5 1 0.5
v -1.5 1 -0.5
v -1.5 2 1.5
v -1.5 2 0.5
v -1.5 2 -0.5
v -1.5 2 -1.5
v -1.5 3 1.5
v -1.5 3 0.5
v -1.5 3 -0.5
v -1.5 3 -1.5
v -0.5 1 0.5
v -0.5 1 -0.5
v -0.5 2 0.5
v -0.5 2 -0.5
v 0.5 1 1.5
v 0.5 1 0.5
v 0.5 1 -0.5
v 0.5 1 -1.5
v 0.5 2 1.5
v 0.5 2 0.5
v 0.5 2 -0.5
v 0.5 2 -1.5
v 0.5 3 0.5
v 0.5 3 -0.5
v -0.5 1 1.5
v -0.5 1 0.5
v -0.5 1 -0.5
v -0.5 1 -1.5
v -0.5 2 1.5
v -0.5 2 0.5
v -0.5 2 -0.5
v -0.5 2 -1.5
v -0.5 3 0.5
v -0.5 3 -0.5
v 0.5 1 0.5
v 0.5 1 -0.5
v 0.5 2 0.5
v 0.5 2 -0.5
v 1.5 0 1.5
v 1.5 0 -1.5
v 1.5 1 0.5
v 1.5 1 -0.5
v 1.5 2 1.5
v 1.5 2 0.5
v 1.5 2 -0.5
v 1.5 2 -1.5
v 1.5 3 1.5
v 1.5 3 -1.5
v -1.5 0 1.5
v -1.5 2 1.5
v -1.5 3 1.5
v -0.5 1 1.5
v -0.5 2 1.5
v 0.5 1 1.5
v 0.5 2 1.5
v 1.5 0 1.5
v 1.5 2 1.5
v 1.5 3 1.5
v -0.5 1 0.5
v -0.5 2 0.5
v 0.5 1 0.5
v 0.5 2 0.5
v -1.5 1 -0.5
v -1.5 2 -0.5
v -0.5 1 -0.5
v -0.5 2 -0.5
v -0.5 3 -0.5
v 0.5 1 -0.5
v 0.5 2 -0.5
v 0.5 3 -0.5
v 1.5 1 -0.5
v 1.5 2 -0.5
v -1.5 1 0.5
v -1.5 2 0.5
v -0.5 1 0.5
v -0.5 2 0.5
v -0.5 3 0.5
v 0.5 1 0.5
v 0.5 2 0.5
v 0.5 3 0.5
v 1.5 1 0.5
v 1.5 2 0.5
v -0.5 1 -0.5
v -0.5 2 -0.5
v 0.5 1 -0.5
v 0.5 2 -0.5
v -1.5 0 -1.5
v -1.5 2 -1.5
v -1.5 3 -1.5
v -0.5 1 -1.5
v -0.5 2 -1.5
v 0.5 1 -1.5
v 0.5 2 -1.5
v 1.5 0 -1.5
v 1.5 2 -1.5
v 1.5 3 -1.5
v -1.5 0 1.5
v 1.5 0 1.5
v -1.5 0 -1.5
v 1.5 0 -1.5
v -0.5 2 1.5
v 0.5 2 1.5
v -1.5 2 0.5
v -0.5 2 0.5
v 0.5 2 0.5
v 1.5 2 0.5
v -1.5 2 -0.5
v -0.5 2 -0.5
v 0.5 2 -0.5
v 1.5 2 -0.5
v -0.5 2 -1.5
v 0.5 2 -1.5
v -0.5 1 1.5
v 0.5 1 1.5
v -1.5 1 0.5
v -0.5 1 0.5
v 0.5 1 0.5
v 1.5 1 0.5
v -1.5 1 -0.5
v -0.5 1 -0.5
v 0.5 1 -0.5
v 1.5 1 -0.5
v -0.5 1 -1.5
v 0.5 1 -1.5
v -0.5 2 0.5
v 0.5 2 0.5
v -0.5 2 -0.5
v 0.5 2 -0.5
v -1.5 3 1.5
v 1.5 3 1.5
v -1.5 3 0.5
v -0.5 3 0.5
v 0.5 3 0.5
v -1.5 3 -0.5
v -0.5 3 -0.5
v 0.5 3 -0.5
v -1.5 3 -1.5
v 1.5 3 -1.5

# faces
f 3/2/1 2/2/1 1/2/1
f 4/2/1 2/2/1 3/2/1
f 5/2/1 3/2/1 1/2/1
f 6/2/1 3/2/1 5/2/1
f 7/2/1 2/2/1 4/2/1
f 8/2/1 2/2/1 7/2/1
f 9/3/1 6/3/1 5/3/1
f 10/4/1 7/4/1 6/4/1
f 10/3/1 6/3/1 9/3/1
f 11/3/1 8/3/1 7/3/1
f 11/4/1 7/4/1 10/4/1
f 12/3/1 8/3/1 11/3/1
f 15/1/1 14/1/1 13/1/1
f 16/1/1 14/1/1 15/1/1
f 21/2/1 18/2/1 17/2/1
f 22/2/1 18/2/1 21/2/1
f 23/2/1 20/2/1 19/2/1
f 24/2/1 20/2/1 23/2/1
f 25/3/1 23/3/1 22/3/1
f 26/3/1 23/3/1 25/3/1
f 27/2/2 28/2/2 31/2/2
f 31/2/2 28/2/2 32/2/2
f 29/2/2 30/2/2 33/2/2
f 33/2/2 30/2/2 34/2/2
f 32/4/2 33/4/2 35/4/2
f 35/4/2 33/4/2 36/4/2
f 37/1/2 38/1/2 39/1/2
f 39/1/2 38/1/2 40/1/2
f 41/2/2 42/2/2 43/2/2
f 43/2/2 42/2/2 44/2/2
f 41/2/2 43/2/2 45/2/2
f 45/2/2 43/2/2 46/2/2
f 44/2/2 42/2/2 47/2/2
f 47/2/2 42/2/2 48/2/2
f 45/3/2 46/3/2 49/3/2
f 46/3/2 47/3/2 49/3/2
f 47/3/2 48/3/2 49/3/2
f 49/3/2 48/3/2 50/3/2
f 54/2/3 52/2/3 51/2/3
f 55/3/3 53/3/3 52/3/3
f 55/2/3 52/2/3 54/2/3
f 56/2/3 54/2/3 51/2/3
f 57/3/3 53/3/3 55/3/3
f 58/2/3 56/2/3 51/2/3
f 58/2/3 57/2/3 56/2/3
f 59/3/3 53/3/3 57/3/3
f 59/2/3 57/2/3 58/2/3
f 60/3/3 53/3/3 59/3/3
f 63/1/3 62/1/3 61/1/3
f 64/1/3 62/1/3 63/1/3
f 67/2/3 66/2/3 65/2/3
f 68/2/3 66/2/3 67/2/3
f 71/3/3 69/3/3 68/3/3
f 72/3/3 69/3/3 71/3/3
f 73/2/3 71/2/3 70/2/3
f 74/2/3 71/2/3 73/2/3
f 75/2/4 76/2/4 77/2/4
f 77/2/4 76/2/4 78/2/4
f 78/3/4 79/3/4 81/3/4
f 81/3/4 79/3/4 82/3/4
f 80/2/4 81/2/4 83/2/4
f 83/2/4 81/2/4 84/2/4
f 85/1/4 86/1/4 87/1/4
f 87/1/4 86/1/4 88/1/4
f 89/2/4 90/2/4 92/2/4
f 90/3/4 91/3/4 93/3/4
f 92/2/4 90/2/4 93/2/4
f 89/2/4 92/2/4 94/2/4
f 93/3/4 91/3/4 95/3/4
f 89/2/4 94/2/4 96/2/4
f 94/2/4 95/2/4 96/2/4
f 95/3/4 91/3/4 97/3/4
f 96/2/4 95/2/4 97/2/4
f 97/3/4 91/3/4 98/3/4
f 101/2/5 100/2/5 99/2/5
f 102/2/5 100/2/5 101/2/5
f 106/3/5 104/3/5 103/3/5
f 107/3/5 104/3/5 106/3/5
f 109/4/5 106/4/5 105/4/5
f 110/4/5 106/4/5 109/4/5
f 111/3/5 108/3/5 107/3/5
f 112/3/5 108/3/5 111/3/5
f 113/3/5 111/3/5 110/3/5
f 114/3/5 111/3/5 113/3/5
f 115/2/6 116/2/6 118/2/6
f 118/2/6 116/2/6 119/2/6
f 117/2/6 118/2/6 121/2/6
f 121/2/6 118/2/6 122/2/6
f 119/2/6 120/2/6 123/2/6
f 123/2/6 120/2/6 124/2/6
f 122/2/6 123/2/6 125/2/6
f 125/2/6 123/2/6 126/2/6
f 127/1/6 128/1/6 129/1/6
f 129/1/6 128/1/6 130/1/6
f 131/3/6 132/3/6 133/3/6
f 133/3/6 132/3/6 134/3/6
f 134/3/6 132/3/6 135/3/6
f 133/4/6 134/4/6 136/4/6
f 136/4/6 134/4/6 137/4/6
f 135/3/6 132/3/6 138/3/6
f 136/3/6 137/3/6 139/3/6
f 137/3/6 138/3/6 139/3/6
f 138/3/6 132/3/6 140/3/6
f 139/3/6 138/3/6 140/3/6
