# MagicaVoxel @ Ephtracy

# material
mtllib WaterBlock_02.mtl
usemtl palette

# normals
vn -1 0 0
vn 1 0 0
vn 0 0 1
vn 0 0 -1
vn 0 -1 0
vn 0 1 0

# texcoords
vt 0.302734 0.5
vt 0.728516 0.5
vt 0.736328 0.5

# verts
v -3 0 3
v -3 0 -3
v -3 2 3
v -3 2 2
v -3 2 -2
v -3 2 -3
v -3 3 3
v -3 3 2
v -3 3 -2
v -3 3 -3
v 3 0 3
v 3 0 -3
v 3 2 3
v 3 2 2
v 3 2 -2
v 3 2 -3
v 3 3 3
v 3 3 2
v 3 3 -2
v 3 3 -3
v -3 0 3
v -3 2 3
v -3 3 3
v 3 0 3
v 3 2 3
v 3 3 3
v -3 0 -3
v -3 2 -3
v -3 3 -3
v 3 0 -3
v 3 2 -3
v 3 3 -3
v -3 0 3
v 3 0 3
v -3 0 -3
v 3 0 -3
v -3 3 3
v 3 3 3
v -3 3 2
v -2 3 2
v 0 3 2
v 1 3 2
v 2 3 2
v 3 3 2
v -2 3 1
v 0 3 1
v 1 3 1
v 2 3 1
v -2 3 -1
v -1 3 -1
v 0 3 -1
v 2 3 -1
v -3 3 -2
v -2 3 -2
v -1 3 -2
v 0 3 -2
v 2 3 -2
v 3 3 -2
v -3 3 -3
v 3 3 -3

# faces
f 3/3/1 2/3/1 1/3/1
f 4/3/1 2/3/1 3/3/1
f 5/3/1 2/3/1 4/3/1
f 6/3/1 2/3/1 5/3/1
f 7/2/1 4/2/1 3/2/1
f 8/3/1 5/3/1 4/3/1
f 8/2/1 4/2/1 7/2/1
f 9/2/1 6/2/1 5/2/1
f 9/3/1 5/3/1 8/3/1
f 10/2/1 6/2/1 9/2/1
f 11/3/2 12/3/2 13/3/2
f 13/3/2 12/3/2 14/3/2
f 14/3/2 12/3/2 15/3/2
f 15/3/2 12/3/2 16/3/2
f 13/2/2 14/2/2 17/2/2
f 14/3/2 15/3/2 18/3/2
f 17/2/2 14/2/2 18/2/2
f 15/2/2 16/2/2 19/2/2
f 18/3/2 15/3/2 19/3/2
f 19/2/2 16/2/2 20/2/2
f 24/3/3 22/3/3 21/3/3
f 25/2/3 23/2/3 22/2/3
f 25/3/3 22/3/3 24/3/3
f 26/2/3 23/2/3 25/2/3
f 27/3/4 28/3/4 30/3/4
f 28/2/4 29/2/4 31/2/4
f 30/3/4 28/3/4 31/3/4
f 31/2/4 29/2/4 32/2/4
f 35/3/5 34/3/5 33/3/5
f 36/3/5 34/3/5 35/3/5
f 37/2/6 38/2/6 39/2/6
f 39/2/6 38/2/6 40/2/6
f 40/2/6 38/2/6 41/2/6
f 41/2/6 38/2/6 42/2/6
f 42/2/6 38/2/6 43/2/6
f 43/2/6 38/2/6 44/2/6
f 39/3/6 40/3/6 45/3/6
f 40/2/6 41/2/6 45/2/6
f 41/3/6 42/3/6 46/3/6
f 45/2/6 41/2/6 46/2/6
f 42/2/6 43/2/6 47/2/6
f 46/3/6 42/3/6 47/3/6
f 43/3/6 44/3/6 48/3/6
f 47/2/6 43/2/6 48/2/6
f 46/3/6 47/3/6 49/3/6
f 39/3/6 45/3/6 49/3/6
f 47/3/6 48/3/6 49/3/6
f 45/3/6 46/3/6 49/3/6
f 49/3/6 48/3/6 50/3/6
f 50/3/6 48/3/6 51/3/6
f 48/3/6 44/3/6 52/3/6
f 51/3/6 48/3/6 52/3/6
f 39/3/6 49/3/6 53/3/6
f 49/2/6 50/2/6 54/2/6
f 53/3/6 49/3/6 54/3/6
f 50/3/6 51/3/6 55/3/6
f 54/2/6 50/2/6 55/2/6
f 51/2/6 52/2/6 56/2/6
f 55/3/6 51/3/6 56/3/6
f 52/3/6 44/3/6 57/3/6
f 56/2/6 52/2/6 57/2/6
f 57/3/6 44/3/6 58/3/6
f 53/2/6 54/2/6 59/2/6
f 55/2/6 56/2/6 59/2/6
f 57/2/6 58/2/6 59/2/6
f 56/2/6 57/2/6 59/2/6
f 54/2/6 55/2/6 59/2/6
f 59/2/6 58/2/6 60/2/6
