# MagicaVoxel @ Ephtracy

# material
mtllib Well_02.mtl
usemtl palette

# normals
vn -1 0 0
vn 1 0 0
vn 0 0 1
vn 0 0 -1
vn 0 -1 0
vn 0 1 0

# texcoords
vt 0.279297 0.5
vt 0.298828 0.5
vt 0.302734 0.5
vt 0.736328 0.5
vt 0.974609 0.5

# verts
v -6 4 0.5
v -6 4 -0.5
v -6 5 0.5
v -6 5 -0.5
v -4 5 0.5
v -4 5 -0.5
v -4 7 0.5
v -4 7 -0.5
v -2 0 3.5
v -2 0 1.5
v -2 0 -1.5
v -2 0 -3.5
v -2 2 3.5
v -2 2 1.5
v -2 2 -1.5
v -2 2 -3.5
v -2 3 3.5
v -2 3 1.5
v -2 3 -1.5
v -2 3 -3.5
v -2 6 0.5
v -2 6 -0.5
v -2 7 0.5
v -2 7 -0.5
v -2 8 1.5
v -2 8 -1.5
v 1 2 0.5
v 1 2 -0.5
v 1 6 0.5
v 1 6 -0.5
v 4 2 2.5
v 4 2 1.5
v 4 2 -1.5
v 4 2 -2.5
v 4 3 2.5
v 4 3 1.5
v 4 3 -1.5
v 4 3 -2.5
v 4 6 0.5
v 4 6 -0.5
v 4 7 0.5
v 4 7 -0.5
v 4 8 1.5
v 4 8 -1.5
v -3 4 0.5
v -3 4 -0.5
v -3 6 0.5
v -3 6 -0.5
v -1 2 2.5
v -1 2 1.5
v -1 2 -1.5
v -1 2 -2.5
v -1 3 2.5
v -1 3 1.5
v -1 3 -1.5
v -1 3 -2.5
v -1 6 0.5
v -1 6 -0.5
v -1 7 0.5
v -1 7 -0.5
v -1 8 1.5
v -1 8 -1.5
v 2 2 0.5
v 2 2 -0.5
v 2 6 0.5
v 2 6 -0.5
v 5 0 3.5
v 5 0 1.5
v 5 0 -1.5
v 5 0 -3.5
v 5 2 3.5
v 5 2 1.5
v 5 2 -1.5
v 5 2 -3.5
v 5 3 3.5
v 5 3 1.5
v 5 3 -1.5
v 5 3 -3.5
v 5 6 0.5
v 5 6 -0.5
v 5 7 0.5
v 5 7 -0.5
v 5 8 1.5
v 5 8 -1.5
v 6 6 0.5
v 6 6 -0.5
v 6 7 0.5
v 6 7 -0.5
v -2 0 3.5
v -2 2 3.5
v -2 3 3.5
v 5 0 3.5
v 5 2 3.5
v 5 3 3.5
v -2 3 1.5
v -2 8 1.5
v -1 3 1.5
v -1 8 1.5
v 4 3 1.5
v 4 8 1.5
v 5 3 1.5
v 5 8 1.5
v -6 4 0.5
v -6 5 0.5
v -4 5 0.5
v -4 7 0.5
v -3 4 0.5
v -3 6 0.5
v -2 6 0.5
v -2 7 0.5
v -1 6 0.5
v -1 7 0.5
v 1 2 0.5
v 1 6 0.5
v 1 7 0.5
v 2 2 0.5
v 2 6 0.5
v 2 7 0.5
v 4 6 0.5
v 4 7 0.5
v 5 6 0.5
v 5 7 0.5
v 6 6 0.5
v 6 7 0.5
v -1 2 -2.5
v -1 3 -2.5
v 4 2 -2.5
v 4 3 -2.5
v -1 2 2.5
v -1 3 2.5
v 4 2 2.5
v 4 3 2.5
v -6 4 -0.5
v -6 5 -0.5
v -4 5 -0.5
v -4 7 -0.5
v -3 4 -0.5
v -3 6 -0.5
v -2 6 -0.5
v -2 7 -0.5
v -1 6 -0.5
v -1 7 -0.5
v 1 2 -0.5
v 1 6 -0.5
v 1 7 -0.5
v 2 2 -0.5
v 2 6 -0.5
v 2 7 -0.5
v 4 6 -0.5
v 4 7 -0.5
v 5 6 -0.5
v 5 7 -0.5
v 6 6 -0.5
v 6 7 -0.5
v -2 3 -1.5
v -2 8 -1.5
v -1 3 -1.5
v -1 8 -1.5
v 4 3 -1.5
v 4 8 -1.5
v 5 3 -1.5
v 5 8 -1.5
v -2 0 -3.5
v -2 2 -3.5
v -2 3 -3.5
v 5 0 -3.5
v 5 2 -3.5
v 5 3 -3.5
v -2 0 3.5
v 5 0 3.5
v -1 0 2.5
v 4 0 2.5
v -2 0 1.5
v -1 0 1.5
v 4 0 1.5
v 5 0 1.5
v 1 0 0.5
v 2 0 0.5
v 1 0 -0.5
v 2 0 -0.5
v -2 0 -1.5
v -1 0 -1.5
v 4 0 -1.5
v 5 0 -1.5
v -1 0 -2.5
v 4 0 -2.5
v -2 0 -3.5
v 5 0 -3.5
v -6 4 0.5
v -3 4 0.5
v -6 4 -0.5
v -3 4 -0.5
v -3 6 0.5
v -2 6 0.5
v -1 6 0.5
v 1 6 0.5
v 2 6 0.5
v 4 6 0.5
v 5 6 0.5
v 6 6 0.5
v -3 6 -0.5
v -2 6 -0.5
v -1 6 -0.5
v 1 6 -0.5
v 2 6 -0.5
v 4 6 -0.5
v 5 6 -0.5
v 6 6 -0.5
v -1 2 2.5
v 4 2 2.5
v -1 2 1.5
v 4 2 1.5
v 1 2 0.5
v 2 2 0.5
v 1 2 -0.5
v 2 2 -0.5
v -1 2 -1.5
v 4 2 -1.5
v -1 2 -2.5
v 4 2 -2.5
v -2 3 3.5
v 5 3 3.5
v -1 3 2.5
v 4 3 2.5
v -2 3 1.5
v -1 3 1.5
v 4 3 1.5
v 5 3 1.5
v -2 3 -1.5
v -1 3 -1.5
v 4 3 -1.5
v 5 3 -1.5
v -1 3 -2.5
v 4 3 -2.5
v -2 3 -3.5
v 5 3 -3.5
v -6 5 0.5
v -4 5 0.5
v -6 5 -0.5
v -4 5 -0.5
v -4 7 0.5
v -2 7 0.5
v -1 7 0.5
v 1 7 0.5
v 2 7 0.5
v 4 7 0.5
v 5 7 0.5
v 6 7 0.5
v -4 7 -0.5
v -2 7 -0.5
v -1 7 -0.5
v 1 7 -0.5
v 2 7 -0.5
v 4 7 -0.5
v 5 7 -0.5
v 6 7 -0.5
v -2 8 1.5
v -1 8 1.5
v 4 8 1.5
v 5 8 1.5
v -2 8 -1.5
v -1 8 -1.5
v 4 8 -1.5
v 5 8 -1.5

# faces
f 3/5/1 2/5/1 1/5/1
f 4/5/1 2/5/1 3/5/1
f 7/5/1 6/5/1 5/5/1
f 8/5/1 6/5/1 7/5/1
f 13/1/1 10/1/1 9/1/1
f 14/3/1 11/3/1 10/3/1
f 14/1/1 10/1/1 13/1/1
f 15/1/1 12/1/1 11/1/1
f 15/3/1 11/3/1 14/3/1
f 16/1/1 12/1/1 15/1/1
f 17/2/1 14/2/1 13/2/1
f 18/3/1 15/3/1 14/3/1
f 18/2/1 14/2/1 17/2/1
f 19/2/1 16/2/1 15/2/1
f 19/3/1 15/3/1 18/3/1
f 20/2/1 16/2/1 19/2/1
f 21/3/1 19/3/1 18/3/1
f 22/3/1 19/3/1 21/3/1
f 23/3/1 21/3/1 18/3/1
f 24/3/1 19/3/1 22/3/1
f 25/3/1 23/3/1 18/3/1
f 25/3/1 24/3/1 23/3/1
f 26/3/1 19/3/1 24/3/1
f 26/3/1 24/3/1 25/3/1
f 29/3/1 28/3/1 27/3/1
f 30/3/1 28/3/1 29/3/1
f 35/2/1 32/2/1 31/2/1
f 36/3/1 33/3/1 32/3/1
f 36/2/1 32/2/1 35/2/1
f 37/2/1 34/2/1 33/2/1
f 37/3/1 33/3/1 36/3/1
f 38/2/1 34/2/1 37/2/1
f 39/3/1 37/3/1 36/3/1
f 40/3/1 37/3/1 39/3/1
f 41/3/1 39/3/1 36/3/1
f 42/3/1 37/3/1 40/3/1
f 43/3/1 41/3/1 36/3/1
f 43/3/1 42/3/1 41/3/1
f 44/3/1 37/3/1 42/3/1
f 44/3/1 42/3/1 43/3/1
f 45/5/2 46/5/2 47/5/2
f 47/5/2 46/5/2 48/5/2
f 49/2/2 50/2/2 53/2/2
f 50/3/2 51/3/2 54/3/2
f 53/2/2 50/2/2 54/2/2
f 51/2/2 52/2/2 55/2/2
f 54/3/2 51/3/2 55/3/2
f 55/2/2 52/2/2 56/2/2
f 54/3/2 55/3/2 57/3/2
f 57/3/2 55/3/2 58/3/2
f 54/3/2 57/3/2 59/3/2
f 58/3/2 55/3/2 60/3/2
f 54/3/2 59/3/2 61/3/2
f 59/3/2 60/3/2 61/3/2
f 60/3/2 55/3/2 62/3/2
f 61/3/2 60/3/2 62/3/2
f 63/3/2 64/3/2 65/3/2
f 65/3/2 64/3/2 66/3/2
f 67/1/2 68/1/2 71/1/2
f 68/3/2 69/3/2 72/3/2
f 71/1/2 68/1/2 72/1/2
f 69/1/2 70/1/2 73/1/2
f 72/3/2 69/3/2 73/3/2
f 73/1/2 70/1/2 74/1/2
f 71/2/2 72/2/2 75/2/2
f 72/3/2 73/3/2 76/3/2
f 75/2/2 72/2/2 76/2/2
f 73/2/2 74/2/2 77/2/2
f 76/3/2 73/3/2 77/3/2
f 77/2/2 74/2/2 78/2/2
f 76/3/2 77/3/2 79/3/2
f 79/3/2 77/3/2 80/3/2
f 76/3/2 79/3/2 81/3/2
f 80/3/2 77/3/2 82/3/2
f 76/3/2 81/3/2 83/3/2
f 81/3/2 82/3/2 83/3/2
f 82/3/2 77/3/2 84/3/2
f 83/3/2 82/3/2 84/3/2
f 85/5/2 86/5/2 87/5/2
f 87/5/2 86/5/2 88/5/2
f 92/1/3 90/1/3 89/1/3
f 93/2/3 91/2/3 90/2/3
f 93/1/3 90/1/3 92/1/3
f 94/2/3 91/2/3 93/2/3
f 97/3/3 96/3/3 95/3/3
f 98/3/3 96/3/3 97/3/3
f 101/3/3 100/3/3 99/3/3
f 102/3/3 100/3/3 101/3/3
f 105/5/3 104/5/3 103/5/3
f 107/5/3 105/5/3 103/5/3
f 107/5/3 106/5/3 105/5/3
f 108/5/3 106/5/3 107/5/3
f 109/5/3 106/5/3 108/5/3
f 110/5/3 106/5/3 109/5/3
f 114/5/3 112/5/3 111/5/3
f 115/5/3 112/5/3 114/5/3
f 116/3/3 114/3/3 113/3/3
f 116/3/3 115/3/3 114/3/3
f 117/3/3 115/3/3 116/3/3
f 118/3/3 115/3/3 117/3/3
f 119/5/3 118/5/3 117/5/3
f 120/5/3 118/5/3 119/5/3
f 123/5/3 122/5/3 121/5/3
f 124/5/3 122/5/3 123/5/3
f 127/2/3 126/2/3 125/2/3
f 128/2/3 126/2/3 127/2/3
f 129/2/4 130/2/4 131/2/4
f 131/2/4 130/2/4 132/2/4
f 133/5/4 134/5/4 135/5/4
f 133/5/4 135/5/4 137/5/4
f 135/5/4 136/5/4 137/5/4
f 137/5/4 136/5/4 138/5/4
f 138/5/4 136/5/4 139/5/4
f 139/5/4 136/5/4 140/5/4
f 141/5/4 142/5/4 144/5/4
f 144/5/4 142/5/4 145/5/4
f 143/3/4 144/3/4 146/3/4
f 144/3/4 145/3/4 146/3/4
f 146/3/4 145/3/4 147/3/4
f 147/3/4 145/3/4 148/3/4
f 147/5/4 148/5/4 149/5/4
f 149/5/4 148/5/4 150/5/4
f 151/5/4 152/5/4 153/5/4
f 153/5/4 152/5/4 154/5/4
f 155/3/4 156/3/4 157/3/4
f 157/3/4 156/3/4 158/3/4
f 159/3/4 160/3/4 161/3/4
f 161/3/4 160/3/4 162/3/4
f 163/1/4 164/1/4 166/1/4
f 164/2/4 165/2/4 167/2/4
f 166/1/4 164/1/4 167/1/4
f 167/2/4 165/2/4 168/2/4
f 171/1/5 170/1/5 169/1/5
f 172/1/5 170/1/5 171/1/5
f 173/1/5 171/1/5 169/1/5
f 174/4/5 172/4/5 171/4/5
f 174/1/5 171/1/5 173/1/5
f 175/1/5 170/1/5 172/1/5
f 175/4/5 172/4/5 174/4/5
f 176/1/5 170/1/5 175/1/5
f 177/4/5 175/4/5 174/4/5
f 178/4/5 175/4/5 177/4/5
f 179/4/5 177/4/5 174/4/5
f 179/3/5 178/3/5 177/3/5
f 180/4/5 175/4/5 178/4/5
f 180/3/5 178/3/5 179/3/5
f 181/3/5 174/3/5 173/3/5
f 182/4/5 179/4/5 174/4/5
f 182/3/5 174/3/5 181/3/5
f 182/4/5 180/4/5 179/4/5
f 183/4/5 175/4/5 180/4/5
f 183/4/5 180/4/5 182/4/5
f 183/3/5 176/3/5 175/3/5
f 184/3/5 176/3/5 183/3/5
f 185/1/5 182/1/5 181/1/5
f 185/4/5 183/4/5 182/4/5
f 186/1/5 184/1/5 183/1/5
f 186/4/5 183/4/5 185/4/5
f 187/1/5 185/1/5 181/1/5
f 187/1/5 186/1/5 185/1/5
f 188/1/5 184/1/5 186/1/5
f 188/1/5 186/1/5 187/1/5
f 191/5/5 190/5/5 189/5/5
f 192/5/5 190/5/5 191/5/5
f 201/5/5 194/5/5 193/5/5
f 202/5/5 194/5/5 201/5/5
f 203/5/5 196/5/5 195/5/5
f 204/5/5 196/5/5 203/5/5
f 205/5/5 198/5/5 197/5/5
f 206/5/5 198/5/5 205/5/5
f 207/5/5 200/5/5 199/5/5
f 208/5/5 200/5/5 207/5/5
f 209/4/6 210/4/6 211/4/6
f 211/4/6 210/4/6 212/4/6
f 211/4/6 212/4/6 213/4/6
f 213/4/6 212/4/6 214/4/6
f 211/4/6 213/4/6 215/4/6
f 214/4/6 212/4/6 216/4/6
f 211/4/6 215/4/6 217/4/6
f 215/4/6 216/4/6 217/4/6
f 216/4/6 212/4/6 218/4/6
f 217/4/6 216/4/6 218/4/6
f 217/4/6 218/4/6 219/4/6
f 219/4/6 218/4/6 220/4/6
f 221/2/6 222/2/6 223/2/6
f 223/2/6 222/2/6 224/2/6
f 221/2/6 223/2/6 225/2/6
f 225/2/6 223/2/6 226/2/6
f 224/2/6 222/2/6 227/2/6
f 227/2/6 222/2/6 228/2/6
f 229/2/6 230/2/6 233/2/6
f 231/2/6 232/2/6 234/2/6
f 229/2/6 233/2/6 235/2/6
f 233/2/6 234/2/6 235/2/6
f 234/2/6 232/2/6 236/2/6
f 235/2/6 234/2/6 236/2/6
f 237/5/6 238/5/6 239/5/6
f 239/5/6 238/5/6 240/5/6
f 241/5/6 242/5/6 249/5/6
f 249/5/6 242/5/6 250/5/6
f 243/5/6 244/5/6 251/5/6
f 244/3/6 245/3/6 252/3/6
f 251/5/6 244/5/6 252/5/6
f 245/5/6 246/5/6 253/5/6
f 252/3/6 245/3/6 253/3/6
f 253/5/6 246/5/6 254/5/6
f 247/5/6 248/5/6 255/5/6
f 255/5/6 248/5/6 256/5/6
f 257/3/6 258/3/6 261/3/6
f 261/3/6 258/3/6 262/3/6
f 259/3/6 260/3/6 263/3/6
f 263/3/6 260/3/6 264/3/6
